mtllib chaffee_turret_m2.mtl
o chaffee_turret_m2
v -0.30036 0.33256 1.48902
v -0.30036 0.31353 1.46473
v -0.30036 0.34949 1.48201
v -0.27630 0.37316 1.47592
v -0.27630 0.35229 1.46492
v -0.27624 0.34949 1.48201
v -0.27624 0.36641 1.48902
v -0.27624 0.37342 1.50595
v -0.27630 0.38790 1.49630
v -0.30036 0.36641 1.48902
v -0.30036 0.38790 1.49630
v -0.30036 0.37342 1.50595
v -0.30036 0.36641 1.52287
v -0.30036 0.38645 1.52167
v -0.30036 0.37270 1.53991
v -0.30036 0.34948 1.52988
v -0.30036 0.35310 1.54684
v -0.30036 0.33256 1.52286
v -0.30036 0.29557 1.55059
v -0.30036 0.32555 1.50594
v -0.27630 0.32037 1.46583
v -0.30036 0.35229 1.46492
v -0.30036 0.37316 1.47592
v -0.24674 0.12648 1.76206
v -0.23596 0.13727 1.76207
v -0.22969 0.12023 1.76207
v -0.33610 0.07392 1.76442
v -0.30314 -0.10333 1.67102
v 0.05307 0.03751 3.42701
v 0.04121 0.02724 3.42701
v 0.02823 0.04448 3.42701
v 0.04054 0.05679 3.42701
v 0.06155 0.05071 3.42701
v -0.12337 0.03880 1.76835
v -0.10484 0.00707 1.75068
v -0.17106 -0.10090 1.68004
v -0.08516 -0.01753 1.73729
v -0.42759 0.25432 1.46707
v -0.17106 0.24914 1.67595
v -0.10850 0.13744 1.75268
v -0.17714 0.18302 1.71909
v -0.27009 0.07387 1.77452
v -0.30314 0.07389 1.77129
v -0.03705 0.25921 1.68134
v -0.05693 0.18877 1.72734
v -0.20338 0.09867 1.76519
v -0.19084 0.11339 1.75817
v -0.18546 0.07383 1.78279
v -0.27630 0.38645 1.52167
v -0.27624 0.36641 1.52287
v -0.27630 0.37270 1.53991
v -0.27624 0.34948 1.52988
v -0.27630 0.35310 1.54684
v -0.27630 0.30034 1.55023
v -0.27624 0.33256 1.52286
v -0.27624 0.32555 1.50594
v -0.27624 0.33256 1.48902
v 0.23548 0.32555 1.50594
v 0.23548 0.33256 1.48902
v 0.23548 0.31353 1.46473
v 0.23548 0.34949 1.48201
v 0.23548 0.35229 1.46492
v 0.23548 0.37316 1.47592
v 0.23548 0.36641 1.48902
v 0.23548 0.38790 1.49630
v -0.29475 0.22529 1.68149
v -0.33316 0.20992 1.68158
v -0.30314 0.23329 1.66638
v -0.35138 0.18090 1.69453
v 0.09697 0.24914 1.67595
v 0.04625 0.19728 1.72016
v 0.01341 0.20208 1.72242
v 0.37778 0.28073 1.46514
v 0.36045 0.25432 1.46707
v 0.23548 0.29557 1.55059
v -0.02200 0.19991 1.72138
v -0.26146 0.18145 1.76207
v -0.27619 0.17750 1.76207
v -0.27865 0.19350 1.76208
v -0.22182 0.22653 1.68952
v -0.19710 0.20647 1.70483
v -0.08320 0.16793 1.73767
v -0.28697 0.16672 1.76207
v -0.29322 0.18376 1.76207
v -0.24674 0.17750 1.76207
v -0.24426 0.19350 1.76208
v -0.23596 0.16672 1.76207
v -0.21995 0.16918 1.76207
v -0.23201 0.15199 1.76207
v -0.27917 0.11179 1.76210
v -0.27619 0.12648 1.76206
v -0.26146 0.12254 1.76206
v -0.21653 0.15199 1.76207
v -0.24383 0.10969 1.76296
v 0.21136 0.33256 1.48902
v 0.21141 0.32037 1.46583
v 0.21136 0.34949 1.48201
v -0.34131 0.11489 1.74105
v -0.35318 0.14212 1.71897
v -0.26746 0.23068 1.68247
v 0.21136 0.37342 1.50595
v 0.21141 0.38790 1.49630
v 0.21141 0.38645 1.52167
v 0.21136 0.36641 1.52287
v 0.21141 0.37270 1.53991
v 0.21136 0.34948 1.52988
v 0.21141 0.35310 1.54684
v 0.21141 0.30034 1.55023
v 0.21136 0.33256 1.52286
v 0.21136 0.32555 1.50594
v -0.03024 0.03751 3.42701
v -0.03872 0.05071 3.42701
v -0.01772 0.05679 3.42701
v 0.21141 0.35229 1.46492
v 0.21141 0.37316 1.47592
v 0.21136 0.36641 1.48902
v 0.23548 0.37342 1.50595
v 0.23548 0.36641 1.52287
v 0.23548 0.38645 1.52167
v 0.23548 0.37270 1.53991
v 0.23548 0.34948 1.52988
v 0.23548 0.35310 1.54684
v 0.23548 0.33256 1.52286
v -0.30296 0.16918 1.76207
v -0.29092 0.15199 1.76207
v -0.30638 0.15199 1.76207
v 0.26704 -0.00216 1.91215
v 0.25723 0.00156 1.91215
v 0.26704 0.00562 1.91215
v -0.22969 0.18376 1.76207
v -0.26124 0.10803 1.76242
v 0.23640 0.01175 1.73875
v 0.23365 -0.00438 1.73008
v 0.15397 0.03941 1.76269
v -0.26145 0.19692 1.76208
v -0.21995 0.13480 1.76207
v 0.24195 -0.02272 1.71842
v 0.24864 0.02815 1.74626
v 0.22905 0.07389 1.77129
v 0.26574 0.03236 1.74491
v -0.30296 0.13480 1.76207
v -0.29322 0.12023 1.76207
v -0.28697 0.13727 1.76207
v 0.37778 0.07402 1.74168
v 0.29942 0.01359 1.72708
v 0.28707 0.02628 1.73650
v -0.00541 0.04452 3.14283
v -0.01772 0.05683 3.14284
v 0.01141 0.07365 3.08131
v 0.27686 0.00156 1.91215
v 0.04054 0.09047 3.14284
v 0.04505 0.07365 3.14284
v 0.04054 0.05683 3.14284
v 0.02823 0.04452 3.14283
v 0.01141 0.04001 3.14283
v -0.00541 0.04448 3.42701
v -0.02222 0.07365 3.14284
v 0.01141 0.10728 3.14284
v 0.02823 0.10278 3.14284
v -0.00541 0.10278 3.14284
v -0.01772 0.09047 3.14284
v -0.00412 0.12649 3.42702
v -0.00541 0.10274 3.42702
v -0.01839 0.11998 3.42702
v 0.01141 0.12873 3.42702
v 0.02694 0.12649 3.42702
v 0.01141 0.10725 3.42702
v 0.01141 0.03997 3.42701
v 0.02694 0.02072 3.42701
v 0.01141 0.01849 3.42701
v -0.00412 0.02072 3.42701
v -0.04314 0.06576 3.42701
v -0.04314 0.08145 3.42702
v -0.02222 0.07361 3.42701
v 0.06597 0.08145 3.42702
v 0.06597 0.06576 3.42701
v 0.04505 0.07361 3.42701
v 0.04054 0.09043 3.42702
v 0.06155 0.09651 3.42702
v -0.01772 0.09043 3.42702
v -0.03872 0.09651 3.42702
v 0.02823 0.10274 3.42702
v 0.04121 0.11998 3.42702
v 0.05307 0.10970 3.42702
v -0.03024 0.10970 3.42702
v -0.01839 0.02724 3.42701
v -0.24538 0.16813 1.72599
v -0.26155 0.15196 1.73392
v -0.26155 0.17483 1.72599
v -0.24538 0.13579 1.72599
v -0.23868 0.15196 1.72599
v -0.27772 0.13579 1.72599
v -0.26155 0.12909 1.72599
v -0.27772 0.16813 1.72599
v -0.28442 0.15196 1.72599
v 0.07558 0.18936 1.72100
v 0.11199 0.16834 1.72771
v -0.17593 0.14398 1.74251
v -0.12918 0.07375 1.78423
v 0.15261 0.10345 1.76358
v 0.13606 0.13887 1.74250
v 0.13023 0.00193 1.74130
v 0.15957 0.07385 1.77804
v 0.22905 0.23329 1.66638
v -0.22778 0.07385 1.77865
v 0.23765 -0.00784 1.73461
v -0.06902 0.05291 1.82689
v -0.05606 0.03400 1.82690
v -0.06202 0.03232 1.79911
v -0.07607 0.05228 1.80044
v 0.06603 0.01735 1.82690
v 0.07889 0.03400 1.82690
v 0.08524 0.03226 1.79845
v 0.06987 0.01557 1.79757
v 0.04862 0.00726 1.82691
v 0.05149 0.00465 1.79728
v 0.03067 -0.00042 1.82691
v 0.03208 -0.00279 1.79702
v -0.00784 -0.00042 1.82691
v -0.00919 -0.00282 1.79717
v -0.02579 0.00726 1.82691
v -0.02884 0.00453 1.79757
v -0.04320 0.01735 1.82690
v -0.04694 0.01580 1.79820
v 0.09185 0.05291 1.82689
v 0.09944 0.05239 1.79997
v -0.07236 0.07389 1.82689
v -0.08121 0.07368 1.80181
v -0.06830 0.09380 1.82690
v -0.07617 0.09448 1.80073
v -0.05791 0.11520 1.82691
v -0.06391 0.11597 1.79913
v -0.04518 0.13138 1.82691
v -0.04863 0.13288 1.79831
v -0.02787 0.14319 1.82692
v -0.03032 0.14515 1.79780
v -0.00866 0.15149 1.82692
v -0.00983 0.15297 1.79745
v 0.01141 0.15350 1.82692
v 0.01153 0.15544 1.79719
v 0.03276 0.15285 1.79720
v 0.01280 0.16311 1.75930
v 0.03839 0.15901 1.75936
v 0.01141 0.13959 2.04173
v 0.02844 0.13735 2.04173
v 0.02625 0.12916 2.02956
v 0.01141 0.13112 2.02956
v 0.06840 0.10669 2.04172
v 0.07497 0.09082 2.04172
v 0.06678 0.08863 2.02955
v 0.06105 0.10246 2.02955
v -0.02149 0.13078 2.04173
v -0.00562 0.13735 2.04173
v -0.00342 0.12916 2.02956
v -0.01725 0.12344 2.02956
v 0.02844 0.01024 2.04171
v 0.01141 0.00799 2.04171
v 0.01141 0.01647 2.02954
v 0.02625 0.01843 2.02954
v 0.07497 0.05676 2.04172
v 0.06840 0.04089 2.04171
v 0.06105 0.04513 2.02955
v 0.06678 0.05896 2.02955
v -0.05439 0.07379 2.04172
v -0.05215 0.09082 2.04172
v -0.04396 0.08863 2.02955
v -0.04591 0.07379 2.02955
v -0.02149 0.01681 2.04171
v -0.03512 0.02727 2.04171
v -0.02912 0.03326 2.02954
v -0.01725 0.02415 2.02954
v 0.05794 0.12032 2.04172
v 0.05195 0.11433 2.02955
v -0.31710 0.09970 1.75434
v -0.31655 0.12608 1.75009
v -0.30503 0.10998 1.75602
v 0.03149 0.15149 1.82692
v 0.05069 0.14319 1.82692
v 0.05284 0.14484 1.79744
v 0.06800 0.13138 1.82691
v 0.07122 0.13275 1.79780
v 0.08073 0.11520 1.82691
v 0.08660 0.11571 1.79854
v 0.09112 0.09380 1.82690
v 0.09895 0.09438 1.80006
v 0.09519 0.07389 1.82689
v 0.10422 0.07371 1.80121
v -0.20191 0.14862 1.75112
v -0.20739 0.12601 1.75747
v -0.32171 0.14880 1.74265
v -0.31780 0.17228 1.73583
v -0.28644 0.09930 1.76082
v -0.26197 0.09660 1.76332
v -0.23797 0.09850 1.76427
v -0.21915 0.11060 1.76149
v -0.30503 0.19239 1.73114
v -0.20593 0.17194 1.74427
v -0.21863 0.19177 1.73798
v -0.23796 0.20548 1.73261
v -0.26168 0.21046 1.72920
v -0.28501 0.20582 1.72880
v -0.23144 0.08908 1.76867
v -0.26357 0.08824 1.76694
v -0.29559 0.08998 1.76326
v -0.12080 0.10391 1.77113
v -0.24093 0.15200 1.73937
v -0.24093 0.15200 1.72488
v -0.24368 0.16226 1.72488
v -0.24368 0.16226 1.73937
v -0.24674 0.17751 1.73950
v -0.25120 0.16978 1.73937
v -0.26146 0.17253 1.73937
v -0.26146 0.18145 1.73950
v -0.28697 0.13727 1.73950
v -0.27925 0.14173 1.73937
v -0.27173 0.13421 1.73937
v -0.27619 0.12649 1.73950
v -0.24674 0.12649 1.73950
v -0.25120 0.13421 1.73937
v -0.24368 0.14173 1.73937
v -0.23596 0.13727 1.73950
v -0.27173 0.16978 1.73937
v -0.27619 0.17751 1.73950
v -0.23596 0.16672 1.73950
v -0.24368 0.16226 1.73937
v -0.29092 0.15200 1.73950
v -0.28200 0.15200 1.73937
v -0.26146 0.12254 1.73950
v -0.26146 0.13146 1.73937
v -0.26146 0.13146 1.73937
v -0.26146 0.13147 1.72488
v -0.25120 0.13422 1.72488
v -0.25120 0.13421 1.73937
v -0.27925 0.16226 1.73937
v -0.28697 0.16672 1.73950
v -0.27925 0.16226 1.73937
v -0.27925 0.16226 1.72488
v -0.28200 0.15200 1.72488
v -0.28200 0.15200 1.73937
v -0.27173 0.13421 1.73937
v -0.27173 0.13422 1.72488
v -0.24368 0.14173 1.73937
v -0.24368 0.14173 1.72488
v -0.27173 0.16978 1.73937
v -0.27173 0.16978 1.72488
v -0.25120 0.16978 1.73937
v -0.25120 0.16978 1.72488
v -0.26146 0.17253 1.72488
v -0.26146 0.17253 1.73937
v -0.27925 0.14173 1.73937
v -0.27925 0.14173 1.72488
v -0.27619 0.12648 1.76206
v -0.27619 0.12649 1.73950
v -0.26146 0.12254 1.73950
v -0.26146 0.12254 1.76206
v -0.28697 0.13727 1.76207
v -0.28697 0.13727 1.73950
v -0.24674 0.12648 1.76206
v -0.24674 0.12649 1.73950
v -0.23596 0.13727 1.73950
v -0.23596 0.13727 1.76207
v -0.26146 0.18145 1.76207
v -0.26146 0.18145 1.73950
v -0.27619 0.17751 1.73950
v -0.27619 0.17750 1.76207
v -0.23596 0.16672 1.76207
v -0.23596 0.16672 1.73950
v -0.24674 0.17751 1.73950
v -0.24674 0.17750 1.76207
v -0.29092 0.15199 1.76207
v -0.29092 0.15200 1.73950
v -0.23201 0.15199 1.76207
v -0.23201 0.15200 1.73950
v -0.28697 0.16672 1.76207
v -0.28697 0.16672 1.73950
v -0.26146 0.17253 1.73937
v -0.26146 0.17253 1.72488
v -0.26146 0.18145 1.73950
v -0.26146 0.18145 1.76207
v -0.23201 0.15200 1.73950
v -0.24093 0.15200 1.73937
v 0.26704 0.00563 1.87594
v 0.27686 0.00156 1.87593
v 0.27686 0.00156 1.91215
v 0.26704 0.00562 1.91215
v 0.26704 0.00910 1.87444
v 0.27931 0.00402 1.87444
v 0.27686 0.00156 1.87593
v 0.26704 0.00563 1.87594
v 0.25723 0.00156 1.87593
v 0.25723 0.00156 1.91215
v -0.00738 0.36202 1.44226
v -0.00738 0.33825 1.44200
v 0.02438 0.33825 1.44200
v 0.02438 0.36202 1.44226
v -0.01249 0.35622 1.46196
v 0.02950 0.35622 1.46196
v 0.02950 0.33434 1.46303
v -0.01249 0.33434 1.46303
v 0.02438 0.33825 1.44200
v -0.00738 0.33825 1.44200
v -0.00738 0.33825 1.44200
v -0.00738 0.36202 1.44226
v -0.01249 0.35622 1.46196
v -0.01249 0.33434 1.46303
v -0.00738 0.36202 1.44226
v 0.02438 0.36202 1.44226
v 0.02438 0.36202 1.44226
v 0.02438 0.33825 1.44200
v 0.02950 0.33434 1.46303
v 0.02950 0.35622 1.46196
v 0.25477 0.00402 1.87444
v 0.25723 0.00156 1.87593
v 0.27931 0.00402 1.87444
v 0.26704 0.00910 1.87444
v 0.26704 0.00912 1.71171
v 0.27931 0.00404 1.71171
v 0.25477 0.00402 1.87444
v 0.25477 0.00404 1.71171
v 0.29471 0.00808 1.73206
v 0.28328 0.02011 1.74104
v 0.26698 0.02469 1.74739
v 0.25076 0.02035 1.74842
v 0.24034 0.00761 1.74291
v 0.29696 -0.00773 1.72287
v 0.24685 0.00321 1.74010
v 0.25538 0.01173 1.74360
v 0.26097 0.00205 1.71881
v 0.25653 -0.00238 1.71699
v 0.26702 0.01485 1.74282
v 0.27867 0.01173 1.73828
v 0.27308 0.00205 1.71604
v 0.26702 0.00367 1.71841
v 0.28720 0.00319 1.73190
v 0.27751 -0.00239 1.71272
v 0.27867 0.01173 1.73828
v 0.26702 0.01485 1.74282
v 0.29031 -0.00844 1.72484
v 0.25538 0.01173 1.74360
v 0.24685 0.00321 1.74010
v 0.28720 0.00319 1.73190
v 0.01141 -0.00143 2.03189
v 0.03088 0.00113 2.03189
v 0.22905 0.32411 1.46278
v 0.22905 0.29628 1.46437
v 0.21136 0.34948 1.52988
v 0.23548 0.34948 1.52988
v 0.23548 0.36641 1.52287
v 0.21136 0.36641 1.52287
v 0.23548 0.38790 1.49630
v 0.23548 0.38645 1.52167
v 0.21141 0.38645 1.52167
v 0.21141 0.38790 1.49630
v 0.21141 0.32037 1.46583
v 0.23548 0.31353 1.46473
v 0.23548 0.35229 1.46492
v 0.21141 0.35229 1.46492
v 0.21141 0.37316 1.47592
v 0.23548 0.37316 1.47592
v 0.23548 0.37270 1.53991
v 0.21141 0.37270 1.53991
v 0.23548 0.35310 1.54684
v 0.21141 0.35310 1.54684
v 0.23548 0.29557 1.55059
v 0.21141 0.30034 1.55023
v 0.21136 0.37342 1.50595
v 0.23548 0.37342 1.50595
v 0.23548 0.36641 1.48902
v 0.21136 0.36641 1.48902
v 0.23548 0.37342 1.50595
v 0.21136 0.37342 1.50595
v -0.27624 0.36641 1.48902
v -0.27624 0.34949 1.48201
v -0.30036 0.34949 1.48201
v -0.30036 0.36641 1.48902
v 0.21136 0.33256 1.52286
v 0.23548 0.33256 1.52286
v 0.21136 0.32555 1.50594
v 0.23548 0.32555 1.50594
v 0.21136 0.33256 1.48902
v 0.23548 0.33256 1.48902
v 0.21136 0.34949 1.48201
v 0.23548 0.34949 1.48201
v -0.03705 0.35481 1.46111
v -0.03705 0.34644 1.54052
v -0.17106 0.33598 1.54004
v -0.17106 0.34646 1.46156
v -0.30314 0.31211 1.53665
v -0.30314 0.32219 1.46288
v -0.30036 0.37270 1.53991
v -0.27630 0.37270 1.53991
v -0.27630 0.35310 1.54684
v -0.30036 0.35310 1.54684
v 0.05024 0.03998 3.31111
v 0.05506 0.03597 2.02789
v 0.04264 0.02521 2.02789
v 0.03919 0.03041 3.31111
v 0.02588 0.12291 3.31112
v 0.02768 0.12921 2.02790
v 0.04264 0.12238 2.02790
v 0.03919 0.11684 3.31112
v -0.03943 0.06631 3.31111
v -0.04575 0.06558 2.02789
v -0.04575 0.08201 2.02790
v -0.03943 0.08094 3.31111
v -0.30036 0.38790 1.49630
v -0.27630 0.38790 1.49630
v -0.27630 0.38645 1.52167
v -0.30036 0.38645 1.52167
v -0.27630 0.32037 1.46583
v -0.27630 0.35229 1.46492
v -0.30036 0.35229 1.46492
v -0.30036 0.31353 1.46473
v -0.30036 0.37316 1.47592
v -0.27630 0.37316 1.47592
v -0.17106 0.30403 1.61532
v -0.30314 0.28071 1.60822
v -0.30036 0.29557 1.55059
v -0.27630 0.30034 1.55023
v -0.27624 0.37342 1.50595
v -0.30036 0.37342 1.50595
v -0.27624 0.36641 1.52287
v -0.27624 0.37342 1.50595
v -0.30036 0.37342 1.50595
v -0.30036 0.36641 1.52287
v -0.27624 0.34948 1.52988
v -0.30036 0.34948 1.52988
v -0.27624 0.33256 1.52286
v -0.30036 0.33256 1.52286
v -0.27624 0.32555 1.50594
v -0.30036 0.32555 1.50594
v -0.27624 0.33256 1.48902
v -0.30036 0.33256 1.48902
v -0.30314 0.32219 1.46288
v -0.30314 0.29628 1.46437
v 0.09697 0.34646 1.46156
v 0.09697 0.33598 1.54004
v 0.22905 0.32411 1.46278
v 0.22905 0.31401 1.53665
v 0.37778 0.19908 1.64866
v 0.09697 0.30403 1.61532
v 0.22905 0.28071 1.60822
v -0.03705 0.31378 1.61762
v -0.03532 0.05228 3.31111
v -0.04112 0.04980 2.02789
v -0.17106 0.34646 1.46156
v -0.17106 0.31635 1.46325
v -0.03705 0.35481 1.46111
v -0.03705 0.32944 1.46253
v 0.01141 0.12874 3.31112
v 0.01141 0.12873 3.42702
v -0.00412 0.12649 3.42702
v -0.00412 0.12651 3.31112
v -0.03024 0.10972 3.31112
v -0.03024 0.10970 3.42702
v -0.03872 0.09651 3.42702
v -0.03872 0.09652 3.31111
v -0.00412 0.02074 3.31110
v -0.00412 0.02072 3.42701
v 0.01141 0.01849 3.42701
v 0.01141 0.01851 3.31110
v 0.06597 0.08147 3.31111
v 0.06597 0.08145 3.42702
v 0.06155 0.09651 3.42702
v 0.06155 0.09652 3.31111
v -0.01839 0.11999 3.31112
v -0.01839 0.11998 3.42702
v -0.01839 0.02726 3.31111
v -0.01839 0.02724 3.42701
v 0.06597 0.06578 3.31111
v 0.06597 0.06576 3.42701
v -0.03024 0.03753 3.31111
v -0.03024 0.03751 3.42701
v 0.06155 0.05073 3.31111
v 0.06155 0.05071 3.42701
v 0.05307 0.10970 3.42702
v 0.05307 0.10972 3.31112
v -0.03872 0.05073 3.31111
v -0.03872 0.05071 3.42701
v 0.05307 0.03753 3.31111
v 0.05307 0.03751 3.42701
v 0.02694 0.12651 3.31112
v 0.02694 0.12649 3.42702
v -0.04314 0.06578 3.31111
v -0.04314 0.06576 3.42701
v 0.04121 0.02726 3.31111
v 0.04121 0.02724 3.42701
v 0.02694 0.12651 3.31112
v 0.02588 0.12291 3.31112
v 0.03919 0.11684 3.31112
v 0.04121 0.11999 3.31112
v -0.04314 0.06578 3.31111
v -0.03943 0.06631 3.31111
v -0.03943 0.08094 3.31111
v -0.04314 0.08147 3.31111
v 0.04121 0.02726 3.31111
v 0.03919 0.03041 3.31111
v 0.02588 0.02433 3.31110
v 0.02694 0.02074 3.31110
v 0.04505 0.07365 3.14284
v 0.04054 0.09047 3.14284
v 0.04054 0.09043 3.42702
v 0.04505 0.07361 3.42701
v -0.00541 0.10278 3.14284
v -0.01772 0.09047 3.14284
v -0.01772 0.09043 3.42702
v -0.00541 0.10274 3.42702
v -0.02222 0.07365 3.14284
v -0.02222 0.07361 3.42701
v -0.01772 0.05683 3.14284
v -0.01772 0.05679 3.42701
v -0.00541 0.04452 3.14283
v -0.00541 0.04448 3.42701
v 0.01141 0.04001 3.14283
v 0.01141 0.03997 3.42701
v 0.02823 0.04452 3.14283
v 0.02823 0.04448 3.42701
v 0.04054 0.05683 3.14284
v 0.04054 0.05679 3.42701
v 0.05024 0.10726 3.31112
v 0.05307 0.10972 3.31112
v 0.02823 0.10278 3.14284
v 0.02823 0.10274 3.42702
v 0.01141 0.10728 3.14284
v 0.01141 0.10725 3.42702
v 0.04121 0.11999 3.31112
v 0.04121 0.11998 3.42702
v -0.04314 0.08147 3.31111
v -0.04314 0.08145 3.42702
v 0.02694 0.02074 3.31110
v 0.02694 0.02072 3.42701
v 0.01141 0.01851 3.31110
v 0.01141 0.01849 3.42701
v -0.00306 0.02433 3.31110
v -0.00486 0.01838 2.02789
v -0.01981 0.02521 2.02789
v -0.01636 0.03041 3.31111
v 0.02768 0.01838 2.02789
v 0.02588 0.02433 3.31110
v 0.05506 0.11161 2.02790
v 0.05024 0.10726 3.31112
v -0.04112 0.09779 2.02790
v -0.03532 0.09496 3.31111
v 0.01141 0.01604 2.02789
v 0.01141 0.02225 3.31110
v 0.06395 0.09779 2.02790
v 0.05814 0.09496 3.31111
v -0.03224 0.11161 2.02790
v -0.02741 0.10726 3.31112
v 0.01141 0.02225 3.31110
v 0.01141 0.01604 2.02789
v 0.06858 0.08201 2.02790
v 0.06226 0.08094 3.31111
v -0.01981 0.12238 2.02790
v -0.01636 0.11684 3.31112
v 0.05307 0.03753 3.31111
v 0.05024 0.03998 3.31111
v 0.06858 0.06558 2.02789
v 0.06226 0.06631 3.31111
v -0.00486 0.12921 2.02790
v -0.00306 0.12291 3.31112
v -0.03224 0.03597 2.02789
v -0.02741 0.03998 3.31111
v 0.06395 0.04980 2.02789
v 0.05814 0.05228 3.31111
v 0.01141 0.13155 2.02790
v 0.01141 0.12499 3.31112
v 0.06597 0.08147 3.31111
v 0.06226 0.08094 3.31111
v 0.06226 0.06631 3.31111
v 0.06597 0.06578 3.31111
v -0.03532 0.09496 3.31111
v -0.03872 0.09652 3.31111
v 0.01141 0.02225 3.31110
v 0.01141 0.01851 3.31110
v 0.05814 0.09496 3.31111
v 0.06155 0.09652 3.31111
v -0.02741 0.10726 3.31112
v -0.03024 0.10972 3.31112
v -0.00306 0.02433 3.31110
v -0.00412 0.02074 3.31110
v -0.01636 0.11684 3.31112
v -0.01839 0.11999 3.31112
v -0.01636 0.03041 3.31111
v -0.01839 0.02726 3.31111
v -0.00306 0.12291 3.31112
v -0.00412 0.12651 3.31112
v -0.02741 0.03998 3.31111
v -0.03024 0.03753 3.31111
v 0.05814 0.05228 3.31111
v 0.06155 0.05073 3.31111
v 0.01141 0.12499 3.31112
v 0.01141 0.12874 3.31112
v -0.03532 0.05228 3.31111
v -0.03872 0.05073 3.31111
v 0.08664 0.07379 2.03190
v 0.08408 0.05432 2.03190
v 0.08013 0.05538 2.04171
v 0.08255 0.07379 2.04172
v 0.06461 0.12699 2.03191
v 0.07656 0.11141 2.03191
v 0.07302 0.10936 2.04172
v 0.06172 0.12410 2.04172
v -0.06382 0.07379 2.03190
v -0.06125 0.09326 2.03191
v -0.05730 0.09221 2.04172
v -0.05973 0.07379 2.04172
v 0.01141 0.00265 2.04171
v 0.02983 0.00508 2.04171
v 0.08408 0.09326 2.03191
v 0.08013 0.09221 2.04172
v -0.05374 0.11141 2.03191
v -0.05020 0.10936 2.04172
v 0.01141 -0.00143 2.03189
v -0.00806 0.00113 2.03189
v -0.00700 0.00508 2.04171
v 0.01141 0.00265 2.04171
v -0.04178 0.12699 2.03191
v -0.03889 0.12410 2.04172
v -0.02620 0.00864 2.03190
v -0.02416 0.01218 2.04171
v 0.04903 0.00864 2.03190
v 0.04698 0.01218 2.04171
v -0.02620 0.13894 2.03191
v -0.02416 0.13540 2.04173
v -0.04178 0.02060 2.03190
v -0.03889 0.02349 2.04171
v 0.07656 0.03618 2.03190
v 0.07302 0.03822 2.04171
v -0.00806 0.14646 2.03191
v -0.00700 0.14251 2.04173
v 0.01141 0.14902 2.03191
v 0.03088 0.14646 2.03191
v 0.02983 0.14251 2.04173
v 0.01141 0.14494 2.04173
v -0.05374 0.03618 2.03190
v -0.05020 0.03822 2.04171
v -0.04557 0.10669 2.04172
v -0.03512 0.12032 2.04172
v -0.02912 0.11433 2.02955
v -0.03823 0.10246 2.02955
v 0.06461 0.02060 2.03190
v -0.06125 0.05432 2.03190
v 0.04903 0.13894 2.03191
v 0.04431 0.13078 2.04173
v 0.04007 0.12344 2.02956
v 0.06172 0.02349 2.04171
v 0.04698 0.13540 2.04173
v -0.05730 0.05538 2.04171
v -0.03889 0.02349 2.04171
v -0.05020 0.03822 2.04171
v -0.04557 0.04089 2.04171
v -0.03512 0.02727 2.04171
v 0.06172 0.12410 2.04172
v 0.07302 0.10936 2.04172
v 0.06840 0.10669 2.04172
v 0.05794 0.12032 2.04172
v 0.04698 0.01218 2.04171
v 0.02983 0.00508 2.04171
v 0.02844 0.01024 2.04171
v 0.04431 0.01681 2.04171
v -0.05730 0.05538 2.04171
v -0.05973 0.07379 2.04172
v -0.05439 0.07379 2.04172
v -0.05215 0.05676 2.04172
v 0.04698 0.13540 2.04173
v 0.04431 0.13078 2.04173
v 0.06172 0.02349 2.04171
v 0.05794 0.02727 2.04171
v 0.02983 0.14251 2.04173
v 0.02844 0.13735 2.04173
v -0.00700 0.14251 2.04173
v 0.01141 0.14494 2.04173
v 0.01141 0.13959 2.04173
v -0.00562 0.13735 2.04173
v 0.07302 0.03822 2.04171
v 0.06840 0.04089 2.04171
v -0.05730 0.09221 2.04172
v -0.05215 0.09082 2.04172
v -0.02416 0.13540 2.04173
v -0.02149 0.13078 2.04173
v 0.08013 0.05538 2.04171
v 0.07497 0.05676 2.04172
v -0.02416 0.01218 2.04171
v -0.02149 0.01681 2.04171
v 0.07721 0.07379 2.04172
v 0.06873 0.07379 2.02955
v 0.05794 0.02727 2.04171
v 0.05195 0.03326 2.02954
v -0.00562 0.01024 2.04171
v -0.00342 0.01843 2.02954
v -0.04557 0.04089 2.04171
v -0.03823 0.04513 2.02955
v -0.03889 0.12410 2.04172
v -0.03512 0.12032 2.04172
v -0.05215 0.05676 2.04172
v -0.04396 0.05896 2.02955
v 0.04431 0.01681 2.04171
v 0.04007 0.02415 2.02954
v 0.08255 0.07379 2.04172
v 0.07721 0.07379 2.04172
v -0.00700 0.00508 2.04171
v -0.00562 0.01024 2.04171
v -0.05020 0.10936 2.04172
v -0.04557 0.10669 2.04172
v 0.08013 0.09221 2.04172
v 0.07497 0.09082 2.04172
v 0.01141 0.00265 2.04171
v 0.01141 0.00799 2.04171
v -0.01483 0.15888 1.76059
v -0.07957 0.12192 1.77400
v -0.06110 0.13926 1.76721
v -0.03952 -0.00408 1.76187
v 0.12890 0.07327 1.78515
v 0.12205 0.04658 1.77700
v -0.04136 0.15169 1.76327
v -0.06070 0.00862 1.76702
v 0.10295 0.02358 1.76828
v -0.07771 0.02435 1.77312
v 0.08322 0.00665 1.76345
v 0.11924 0.09979 1.77662
v -0.09555 0.04684 1.78384
v 0.06116 -0.00311 1.75931
v 0.06063 0.15189 1.76064
v 0.08303 0.14024 1.76265
v -0.10295 0.07326 1.79113
v -0.07771 0.02435 1.77312
v -0.06070 0.00862 1.76702
v 0.08322 0.00665 1.76345
v 0.10295 0.02358 1.76828
v 0.09697 0.32326 1.46270
v 0.09697 0.34646 1.46156
v 0.37778 0.24925 1.59356
v 0.37778 0.27114 1.52572
v 0.37778 0.28073 1.46514
v 0.01280 0.16311 1.75930
v -0.01483 0.15888 1.76059
v 0.10423 0.12143 1.76896
v -0.09435 0.09939 1.78323
v 0.12205 0.04658 1.77700
v -0.04136 0.15169 1.76327
v 0.03839 0.15901 1.75936
v 0.01141 0.10728 3.14284
v 0.01141 0.10725 3.42702
v 0.06063 0.15189 1.76064
v -0.09555 0.04684 1.78384
v 0.08303 0.14024 1.76265
v -0.10295 0.07326 1.79113
v 0.10423 0.12143 1.76896
v -0.09435 0.09939 1.78323
v 0.11924 0.09979 1.77662
v -0.07957 0.12192 1.77400
v 0.12890 0.07327 1.78515
v -0.06110 0.13926 1.76721
vt 0.10059 0.00489
vt 0.10172 0.00624
vt 0.10118 0.00403
vt 0.02565 0.05005
vt 0.02531 0.05135
vt 0.02630 0.05128
vt 0.02647 0.05025
vt 0.02731 0.04964
vt 0.02659 0.04897
vt 0.10099 0.00300
vt 0.10084 0.00172
vt 0.10013 0.00241
vt 0.09910 0.00260
vt 0.09941 0.00150
vt 0.09822 0.00205
vt 0.09851 0.00346
vt 0.09761 0.00306
vt 0.09870 0.00449
vt 0.09671 0.00622
vt 0.09956 0.00508
vt 0.02578 0.05311
vt 0.10217 0.00408
vt 0.10180 0.00278
vt 0.03795 0.02366
vt 0.03743 0.02311
vt 0.03705 0.02396
vt 0.04280 0.02657
vt 0.04162 0.03790
vt 0.11809 0.00613
vt 0.11867 0.00680
vt 0.11955 0.00594
vt 0.11895 0.00514
vt 0.11772 0.00532
vt 0.03123 0.02875
vt 0.03023 0.03069
vt 0.03401 0.03778
vt 0.02914 0.03222
vt 0.07574 0.01368
vt 0.03388 0.01532
vt 0.03041 0.02283
vt 0.03419 0.01973
vt 0.03913 0.02663
vt 0.04093 0.02660
vt 0.02640 0.01512
vt 0.02753 0.01973
vt 0.03557 0.02507
vt 0.03492 0.02417
vt 0.03454 0.02667
vt 0.02801 0.04871
vt 0.02834 0.04981
vt 0.02921 0.04924
vt 0.02896 0.05065
vt 0.02985 0.05023
vt 0.03073 0.05311
vt 0.02879 0.05169
vt 0.02794 0.05230
vt 0.02691 0.05213
vt 0.10601 0.00512
vt 0.10498 0.00493
vt 0.10385 0.00627
vt 0.10440 0.00407
vt 0.10341 0.00411
vt 0.10378 0.00282
vt 0.10459 0.00304
vt 0.10474 0.00176
vt 0.04079 0.01674
vt 0.04302 0.01747
vt 0.04133 0.01579
vt 0.04410 0.01927
vt 0.01897 0.01544
vt 0.02183 0.01917
vt 0.02365 0.01901
vt 0.12329 0.01212
vt 0.12226 0.01368
vt 0.10885 0.00627
vt 0.02561 0.01906
vt 0.03867 0.02116
vt 0.03928 0.02134
vt 0.03936 0.02069
vt 0.03673 0.01681
vt 0.03531 0.01820
vt 0.02900 0.02100
vt 0.03977 0.02179
vt 0.03997 0.02105
vt 0.03806 0.02130
vt 0.03801 0.02066
vt 0.03757 0.02174
vt 0.03689 0.02153
vt 0.03731 0.02240
vt 0.03962 0.02443
vt 0.03943 0.02368
vt 0.03870 0.02388
vt 0.03657 0.02228
vt 0.03777 0.02454
vt 0.03702 0.05204
vt 0.03815 0.05302
vt 0.03763 0.05120
vt 0.04327 0.02389
vt 0.04415 0.02193
vt 0.03930 0.01656
vt 0.03661 0.04956
vt 0.03734 0.04888
vt 0.03591 0.04863
vt 0.03558 0.04973
vt 0.03472 0.04915
vt 0.03497 0.05057
vt 0.03408 0.05015
vt 0.03320 0.05303
vt 0.03514 0.05160
vt 0.03599 0.05221
vt 0.12279 0.00680
vt 0.12338 0.00613
vt 0.12224 0.00562
vt 0.03862 0.05126
vt 0.03828 0.04996
vt 0.03746 0.05017
vt 0.10545 0.00245
vt 0.10648 0.00265
vt 0.10618 0.00154
vt 0.10736 0.00210
vt 0.10707 0.00351
vt 0.10797 0.00311
vt 0.10687 0.00453
vt 0.04044 0.02160
vt 0.04002 0.02243
vt 0.04072 0.02231
vt 0.05326 0.02982
vt 0.05394 0.02984
vt 0.05345 0.02935
vt 0.03739 0.02098
vt 0.03869 0.02464
vt 0.01131 0.03046
vt 0.01141 0.03149
vt 0.01594 0.02869
vt 0.03869 0.02055
vt 0.03661 0.02315
vt 0.01090 0.03265
vt 0.01066 0.02942
vt 0.01191 0.02661
vt 0.00967 0.02918
vt 0.04071 0.02314
vt 0.04032 0.02394
vt 0.03992 0.02313
vt 0.00333 0.02668
vt 0.00766 0.03044
vt 0.00843 0.02960
vt 0.09156 0.00612
vt 0.09281 0.00612
vt 0.09219 0.00379
vt 0.05276 0.02935
vt 0.09156 0.00146
vt 0.09048 0.00209
vt 0.08985 0.00317
vt 0.08985 0.00442
vt 0.09048 0.00550
vt 0.12145 0.00621
vt 0.09389 0.00550
vt 0.09389 0.00209
vt 0.09281 0.00146
vt 0.09452 0.00317
vt 0.09452 0.00442
vt 0.12204 0.00157
vt 0.12192 0.00292
vt 0.12279 0.00206
vt 0.12118 0.00132
vt 0.12029 0.00132
vt 0.12101 0.00253
vt 0.12046 0.00633
vt 0.11943 0.00729
vt 0.12029 0.00754
vt 0.12118 0.00754
vt 0.12375 0.00532
vt 0.12388 0.00443
vt 0.12263 0.00470
vt 0.11772 0.00355
vt 0.11759 0.00443
vt 0.11883 0.00416
vt 0.11922 0.00325
vt 0.11809 0.00273
vt 0.12251 0.00372
vt 0.12375 0.00355
vt 0.12002 0.00265
vt 0.11943 0.00157
vt 0.11867 0.00206
vt 0.12338 0.00273
vt 0.12204 0.00729
vt 0.06858 0.01261
vt 0.07000 0.01319
vt 0.06941 0.01178
vt 0.06941 0.01461
vt 0.06858 0.01378
vt 0.07141 0.01378
vt 0.07058 0.01461
vt 0.07058 0.01178
vt 0.07141 0.01261
vt 0.02020 0.01957
vt 0.01817 0.02075
vt 0.03412 0.02227
vt 0.03153 0.02668
vt 0.01602 0.02485
vt 0.01685 0.02257
vt 0.01717 0.03108
vt 0.01569 0.02666
vt 0.01147 0.01600
vt 0.03683 0.02666
vt 0.01102 0.03149
vt 0.10850 0.01909
vt 0.10988 0.01936
vt 0.11013 0.01770
vt 0.10871 0.01741
vt 0.08810 0.01955
vt 0.08933 0.01931
vt 0.08909 0.01758
vt 0.08779 0.01784
vt 0.08694 0.01980
vt 0.08661 0.01814
vt 0.08585 0.02003
vt 0.08549 0.01842
vt 0.11333 0.02007
vt 0.11367 0.01848
vt 0.11225 0.01985
vt 0.11256 0.01821
vt 0.11110 0.01960
vt 0.11139 0.01795
vt 0.09073 0.01904
vt 0.09054 0.01731
vt 0.10719 0.01893
vt 0.10736 0.01727
vt 0.10593 0.01887
vt 0.10605 0.01718
vt 0.10448 0.01885
vt 0.10460 0.01718
vt 0.10325 0.01886
vt 0.10329 0.01718
vt 0.10201 0.01887
vt 0.10204 0.01719
vt 0.10079 0.01887
vt 0.10081 0.01719
vt 0.09962 0.01887
vt 0.09962 0.01719
vt 0.09843 0.01718
vt 0.09957 0.01516
vt 0.09829 0.01515
vt 0.08342 0.00074
vt 0.08242 0.00102
vt 0.08275 0.00180
vt 0.08354 0.00160
vt 0.08032 0.00318
vt 0.08006 0.00415
vt 0.08088 0.00426
vt 0.08108 0.00348
vt 0.08547 0.00100
vt 0.08446 0.00074
vt 0.08435 0.00158
vt 0.08514 0.00180
vt 0.08348 0.00857
vt 0.08453 0.00857
vt 0.08441 0.00773
vt 0.08360 0.00772
vt 0.08033 0.00618
vt 0.08087 0.00705
vt 0.08153 0.00653
vt 0.08112 0.00584
vt 0.08788 0.00415
vt 0.08762 0.00317
vt 0.08684 0.00348
vt 0.08706 0.00426
vt 0.08639 0.00778
vt 0.08712 0.00707
vt 0.08644 0.00655
vt 0.08588 0.00712
vt 0.08080 0.00229
vt 0.08148 0.00279
vt 0.04180 0.02495
vt 0.04170 0.02346
vt 0.04108 0.02443
vt 0.09846 0.01887
vt 0.09724 0.01886
vt 0.09722 0.01716
vt 0.09600 0.01884
vt 0.09598 0.01713
vt 0.09477 0.01883
vt 0.09466 0.01711
vt 0.09331 0.01883
vt 0.09320 0.01711
vt 0.09204 0.01888
vt 0.09189 0.01715
vt 0.03563 0.02227
vt 0.03586 0.02354
vt 0.04194 0.02215
vt 0.04166 0.02088
vt 0.04005 0.02508
vt 0.03873 0.02525
vt 0.03744 0.02513
vt 0.03645 0.02443
vt 0.04094 0.01987
vt 0.03591 0.02100
vt 0.03663 0.01999
vt 0.03763 0.01931
vt 0.03879 0.01906
vt 0.03991 0.01927
vt 0.03707 0.02568
vt 0.03880 0.02574
vt 0.04056 0.02561
vt 0.03110 0.02488
vt 0.01996 0.05567
vt 0.02090 0.05567
vt 0.02090 0.05498
vt 0.01996 0.05498
vt 0.08447 0.00284
vt 0.08432 0.00340
vt 0.08492 0.00375
vt 0.08533 0.00334
vt 0.08447 0.00654
vt 0.08432 0.00598
vt 0.08363 0.00598
vt 0.08348 0.00654
vt 0.08213 0.00519
vt 0.08269 0.00504
vt 0.08269 0.00435
vt 0.08213 0.00420
vt 0.08527 0.00435
vt 0.08583 0.00420
vt 0.08348 0.00284
vt 0.08363 0.00340
vt 0.08533 0.00605
vt 0.08492 0.00564
vt 0.08262 0.00605
vt 0.08303 0.00564
vt 0.01996 0.05774
vt 0.02090 0.05774
vt 0.02090 0.05705
vt 0.01996 0.05705
vt 0.08527 0.00504
vt 0.08583 0.00519
vt 0.01996 0.06050
vt 0.02090 0.06050
vt 0.02090 0.05981
vt 0.01996 0.05981
vt 0.01996 0.05843
vt 0.02090 0.05843
vt 0.01996 0.05636
vt 0.02090 0.05636
vt 0.01996 0.06119
vt 0.02090 0.06119
vt 0.01996 0.05429
vt 0.02090 0.05429
vt 0.02090 0.05360
vt 0.01996 0.05360
vt 0.01996 0.05912
vt 0.02090 0.05912
vt 0.02376 0.05490
vt 0.02229 0.05490
vt 0.02229 0.05589
vt 0.02376 0.05589
vt 0.02376 0.05391
vt 0.02229 0.05391
vt 0.02376 0.05688
vt 0.02229 0.05688
vt 0.02229 0.05787
vt 0.02376 0.05787
vt 0.02376 0.04994
vt 0.02229 0.04994
vt 0.02229 0.05093
vt 0.02376 0.05093
vt 0.02376 0.05985
vt 0.02229 0.05985
vt 0.02229 0.06084
vt 0.02376 0.06084
vt 0.02376 0.05291
vt 0.02229 0.05291
vt 0.02376 0.05886
vt 0.02229 0.05886
vt 0.02376 0.05192
vt 0.02229 0.05192
vt 0.01996 0.06188
vt 0.02090 0.06188
vt 0.02229 0.06183
vt 0.02376 0.06183
vt 0.08262 0.00334
vt 0.08303 0.00375
vt 0.02739 0.05966
vt 0.02739 0.05898
vt 0.02504 0.05898
vt 0.02504 0.05966
vt 0.05368 0.03969
vt 0.05282 0.03969
vt 0.05291 0.03992
vt 0.05359 0.03992
vt 0.02739 0.06035
vt 0.02504 0.06035
vt 0.01155 0.05676
vt 0.01155 0.05540
vt 0.00974 0.05540
vt 0.00974 0.05676
vt 0.01182 0.05928
vt 0.00942 0.05928
vt 0.00942 0.06053
vt 0.01182 0.06053
vt 0.00971 0.06175
vt 0.01152 0.06175
vt 0.01463 0.06069
vt 0.01486 0.05936
vt 0.01366 0.05948
vt 0.01338 0.06069
vt 0.01152 0.05811
vt 0.00971 0.05811
vt 0.01511 0.05544
vt 0.01375 0.05544
vt 0.01354 0.05667
vt 0.01479 0.05660
vt 0.05430 0.04031
vt 0.05407 0.04040
vt 0.02862 0.05829
vt 0.02862 0.05915
vt 0.03918 0.05915
vt 0.03918 0.05829
vt 0.02862 0.06001
vt 0.03918 0.06001
vt 0.00810 0.03065
vt 0.00877 0.02991
vt 0.00966 0.02962
vt 0.01049 0.02986
vt 0.01095 0.03060
vt 0.00791 0.03160
vt 0.07603 0.00380
vt 0.07536 0.00335
vt 0.07505 0.00484
vt 0.07530 0.00502
vt 0.07458 0.00335
vt 0.07387 0.00380
vt 0.07447 0.00503
vt 0.07473 0.00484
vt 0.07339 0.00456
vt 0.07433 0.00534
vt 0.00898 0.03039
vt 0.00961 0.03018
vt 0.00828 0.03161
vt 0.01021 0.03035
vt 0.01060 0.03084
vt 0.00849 0.03091
vt 0.08652 0.03168
vt 0.08761 0.03146
vt 0.11451 0.00956
vt 0.11451 0.01120
vt 0.01876 0.05975
vt 0.01739 0.05975
vt 0.01739 0.06079
vt 0.01876 0.06079
vt 0.00125 0.05485
vt 0.00125 0.05630
vt 0.00263 0.05630
vt 0.00263 0.05485
vt 0.00263 0.05026
vt 0.00125 0.04987
vt 0.00125 0.05208
vt 0.00263 0.05208
vt 0.00263 0.05342
vt 0.00125 0.05342
vt 0.00125 0.05760
vt 0.00263 0.05760
vt 0.00125 0.05879
vt 0.00263 0.05879
vt 0.00125 0.06207
vt 0.00263 0.06180
vt 0.01876 0.05349
vt 0.01739 0.05349
vt 0.01739 0.05453
vt 0.01876 0.05453
vt 0.01739 0.06183
vt 0.01876 0.06183
vt 0.00677 0.05463
vt 0.00677 0.05567
vt 0.00815 0.05567
vt 0.00815 0.05463
vt 0.01876 0.05870
vt 0.01739 0.05870
vt 0.01876 0.05766
vt 0.01739 0.05766
vt 0.01876 0.05662
vt 0.01739 0.05662
vt 0.01876 0.05557
vt 0.01739 0.05557
vt 0.02633 0.00104
vt 0.02636 0.00572
vt 0.03412 0.00607
vt 0.03444 0.00138
vt 0.04193 0.00694
vt 0.04255 0.00251
vt 0.00533 0.05764
vt 0.00396 0.05764
vt 0.00396 0.05882
vt 0.00533 0.05882
vt 0.06383 0.04175
vt 0.12477 0.04175
vt 0.12477 0.04069
vt 0.06383 0.04069
vt 0.06380 0.04919
vt 0.12473 0.04919
vt 0.12474 0.04813
vt 0.06380 0.04813
vt 0.06376 0.05663
vt 0.12470 0.05663
vt 0.12471 0.05557
vt 0.06377 0.05557
vt 0.00533 0.05489
vt 0.00396 0.05489
vt 0.00396 0.05634
vt 0.00533 0.05634
vt 0.00396 0.05029
vt 0.00396 0.05211
vt 0.00533 0.05211
vt 0.00533 0.04990
vt 0.00533 0.05346
vt 0.00396 0.05346
vt 0.03392 0.01075
vt 0.04155 0.01150
vt 0.00533 0.06211
vt 0.00396 0.06183
vt 0.00677 0.05359
vt 0.00815 0.05359
vt 0.00677 0.06089
vt 0.00677 0.06194
vt 0.00815 0.06194
vt 0.00815 0.06089
vt 0.00677 0.05985
vt 0.00815 0.05985
vt 0.00677 0.05881
vt 0.00815 0.05881
vt 0.00677 0.05776
vt 0.00815 0.05776
vt 0.00677 0.05672
vt 0.00815 0.05672
vt 0.08309 0.00968
vt 0.08309 0.01120
vt 0.01823 0.00146
vt 0.01860 0.00616
vt 0.01014 0.00263
vt 0.01079 0.00708
vt 0.00249 0.01731
vt 0.01885 0.01085
vt 0.01121 0.01169
vt 0.02638 0.01046
vt 0.06376 0.05769
vt 0.12470 0.05769
vt 0.09089 0.00825
vt 0.09089 0.01002
vt 0.09880 0.00775
vt 0.09880 0.00925
vt 0.06250 0.05209
vt 0.05589 0.05209
vt 0.05589 0.05299
vt 0.06250 0.05299
vt 0.06250 0.05478
vt 0.05589 0.05478
vt 0.05589 0.05567
vt 0.06250 0.05567
vt 0.06250 0.06103
vt 0.05589 0.06103
vt 0.05589 0.06193
vt 0.06250 0.06193
vt 0.06250 0.04762
vt 0.05589 0.04762
vt 0.05589 0.04852
vt 0.06250 0.04852
vt 0.06250 0.05388
vt 0.05589 0.05388
vt 0.06250 0.06014
vt 0.05589 0.06014
vt 0.06250 0.04673
vt 0.05589 0.04673
vt 0.06250 0.05924
vt 0.05589 0.05924
vt 0.06250 0.04584
vt 0.05589 0.04584
vt 0.05589 0.04941
vt 0.06250 0.04941
vt 0.06250 0.05835
vt 0.05589 0.05835
vt 0.06250 0.04494
vt 0.05589 0.04494
vt 0.06250 0.05120
vt 0.05589 0.05120
vt 0.06250 0.05746
vt 0.05589 0.05746
vt 0.06250 0.04405
vt 0.05589 0.04405
vt 0.11187 0.00157
vt 0.11196 0.00177
vt 0.11276 0.00153
vt 0.11273 0.00132
vt 0.11112 0.00680
vt 0.11126 0.00664
vt 0.11071 0.00601
vt 0.11053 0.00613
vt 0.11619 0.00531
vt 0.11599 0.00525
vt 0.11564 0.00601
vt 0.11582 0.00613
vt 0.05453 0.05409
vt 0.05453 0.05323
vt 0.04059 0.05323
vt 0.04059 0.05408
vt 0.05453 0.06091
vt 0.05453 0.06006
vt 0.04059 0.06006
vt 0.04059 0.06091
vt 0.05453 0.05920
vt 0.04059 0.05920
vt 0.05453 0.05835
vt 0.04059 0.05835
vt 0.05453 0.05750
vt 0.04059 0.05750
vt 0.05453 0.05664
vt 0.04059 0.05664
vt 0.05453 0.05579
vt 0.04059 0.05579
vt 0.05453 0.05494
vt 0.04059 0.05494
vt 0.11359 0.00153
vt 0.11362 0.00132
vt 0.05453 0.05238
vt 0.04059 0.05238
vt 0.05453 0.05153
vt 0.04059 0.05153
vt 0.06250 0.05031
vt 0.05589 0.05031
vt 0.06250 0.05656
vt 0.05589 0.05656
vt 0.06250 0.04316
vt 0.05589 0.04316
vt 0.06250 0.04226
vt 0.05589 0.04226
vt 0.06374 0.06088
vt 0.12468 0.06088
vt 0.12469 0.05982
vt 0.06375 0.05982
vt 0.12478 0.03963
vt 0.06384 0.03963
vt 0.12474 0.04707
vt 0.06381 0.04707
vt 0.12471 0.05450
vt 0.06377 0.05450
vt 0.12478 0.03856
vt 0.06384 0.03856
vt 0.12475 0.04600
vt 0.06381 0.04600
vt 0.12471 0.05344
vt 0.06378 0.05344
vt 0.06374 0.06194
vt 0.12468 0.06194
vt 0.12475 0.04494
vt 0.06382 0.04494
vt 0.12472 0.05238
vt 0.06378 0.05238
vt 0.11632 0.00443
vt 0.11611 0.00443
vt 0.12476 0.04388
vt 0.06382 0.04388
vt 0.12472 0.05132
vt 0.06379 0.05132
vt 0.12469 0.05875
vt 0.06375 0.05875
vt 0.12476 0.04281
vt 0.06382 0.04281
vt 0.12473 0.05025
vt 0.06379 0.05025
vt 0.11523 0.00206
vt 0.11509 0.00222
vt 0.11564 0.00285
vt 0.11582 0.00273
vt 0.11037 0.00525
vt 0.11016 0.00531
vt 0.11509 0.00664
vt 0.11523 0.00680
vt 0.11439 0.00177
vt 0.11448 0.00157
vt 0.11025 0.00443
vt 0.11003 0.00443
vt 0.11439 0.00709
vt 0.11448 0.00729
vt 0.11037 0.00361
vt 0.11016 0.00354
vt 0.11359 0.00733
vt 0.11362 0.00754
vt 0.11071 0.00285
vt 0.11053 0.00273
vt 0.11276 0.00733
vt 0.11273 0.00754
vt 0.11599 0.00361
vt 0.11619 0.00354
vt 0.11126 0.00222
vt 0.11112 0.00206
vt 0.11196 0.00709
vt 0.11187 0.00729
vt 0.09304 0.03078
vt 0.09194 0.03088
vt 0.09200 0.03149
vt 0.09309 0.03140
vt 0.09632 0.03059
vt 0.09523 0.03064
vt 0.09526 0.03124
vt 0.09634 0.03120
vt 0.10617 0.03078
vt 0.10508 0.03070
vt 0.10504 0.03130
vt 0.10612 0.03139
vt 0.08666 0.03227
vt 0.08771 0.03206
vt 0.09414 0.03070
vt 0.09418 0.03131
vt 0.10400 0.03064
vt 0.10397 0.03124
vt 0.11269 0.03168
vt 0.11160 0.03147
vt 0.11150 0.03207
vt 0.11254 0.03227
vt 0.10291 0.03059
vt 0.10289 0.03120
vt 0.11052 0.03130
vt 0.11044 0.03190
vt 0.08868 0.03130
vt 0.08877 0.03189
vt 0.10181 0.03056
vt 0.10179 0.03118
vt 0.10945 0.03115
vt 0.10936 0.03176
vt 0.09084 0.03101
vt 0.09091 0.03161
vt 0.10070 0.03054
vt 0.10069 0.03115
vt 0.09961 0.03053
vt 0.09851 0.03054
vt 0.09852 0.03114
vt 0.09960 0.03114
vt 0.10836 0.03102
vt 0.10829 0.03161
vt 0.08711 0.00227
vt 0.08638 0.00153
vt 0.08585 0.00221
vt 0.08643 0.00278
vt 0.08976 0.03114
vt 0.10727 0.03088
vt 0.09742 0.03055
vt 0.08152 0.00154
vt 0.08205 0.00222
vt 0.08984 0.03174
vt 0.09743 0.03117
vt 0.10720 0.03150
vt 0.07814 0.00754
vt 0.07867 0.00663
vt 0.07839 0.00651
vt 0.07790 0.00736
vt 0.07170 0.00261
vt 0.07117 0.00352
vt 0.07145 0.00364
vt 0.07194 0.00279
vt 0.07337 0.00882
vt 0.07439 0.00909
vt 0.07443 0.00879
vt 0.07348 0.00854
vt 0.07894 0.00560
vt 0.07894 0.00455
vt 0.07864 0.00459
vt 0.07864 0.00556
vt 0.07245 0.00186
vt 0.07264 0.00210
vt 0.07245 0.00829
vt 0.07264 0.00805
vt 0.07337 0.00133
vt 0.07348 0.00161
vt 0.07545 0.00106
vt 0.07439 0.00106
vt 0.07443 0.00136
vt 0.07541 0.00136
vt 0.07170 0.00754
vt 0.07194 0.00736
vt 0.07867 0.00352
vt 0.07839 0.00364
vt 0.07647 0.00133
vt 0.07636 0.00161
vt 0.07117 0.00663
vt 0.07145 0.00651
vt 0.07739 0.00829
vt 0.07721 0.00805
vt 0.08005 0.00518
vt 0.08089 0.00507
vt 0.08160 0.00777
vt 0.08212 0.00709
vt 0.08552 0.00829
vt 0.08519 0.00752
vt 0.08763 0.00617
vt 0.08685 0.00585
vt 0.07739 0.00186
vt 0.07721 0.00210
vt 0.08790 0.00518
vt 0.08705 0.00507
vt 0.08249 0.00828
vt 0.08282 0.00751
vt 0.07090 0.00560
vt 0.07120 0.00556
vt 0.07647 0.00882
vt 0.07636 0.00854
vt 0.07814 0.00261
vt 0.07790 0.00279
vt 0.07090 0.00455
vt 0.07120 0.00459
vt 0.07545 0.00909
vt 0.07541 0.00879
vt 0.10095 0.01523
vt 0.10475 0.01554
vt 0.10347 0.01537
vt 0.11281 0.01621
vt 0.09178 0.01547
vt 0.09034 0.01544
vt 0.10230 0.01527
vt 0.11156 0.01611
vt 0.08880 0.01562
vt 0.11037 0.01604
vt 0.08748 0.01582
vt 0.09318 0.01538
vt 0.10888 0.01597
vt 0.08626 0.01604
vt 0.09713 0.01515
vt 0.09589 0.01513
vt 0.10749 0.01587
vt 0.02869 0.02922
vt 0.02773 0.03010
vt 0.01988 0.03022
vt 0.01880 0.02930
vt 0.10671 0.00961
vt 0.10671 0.00825
vt 0.00217 0.01279
vt 0.00155 0.00849
vt 0.00089 0.00479
vt 0.02373 0.02192
vt 0.02521 0.02214
vt 0.09449 0.01525
vt 0.10612 0.01580
vt 0.01771 0.02801
vt 0.02664 0.02254
vt 0.02235 0.02213
vt 0.05453 0.06176
vt 0.04059 0.06176
vt 0.02115 0.02250
vt 0.02973 0.02797
vt 0.01993 0.02311
vt 0.03019 0.02667
vt 0.01875 0.02416
vt 0.02963 0.02541
vt 0.01788 0.02535
vt 0.02876 0.02418
vt 0.01725 0.02664
vt 0.02772 0.02321
usemtl chaffee_turret_m2
s 1
f 3/3 2/2 1/1
f 6/6 5/5 4/4
f 4/4 7/7 6/6
f 7/7 9/9 8/8
f 9/9 7/7 4/4
f 12/12 11/11 10/10
f 14/14 12/12 13/13
f 12/12 14/14 11/11
f 13/13 15/15 14/14
f 16/16 15/15 13/13
f 16/16 17/17 15/15
f 19/19 16/16 18/18
f 16/16 19/19 17/17
f 20/20 19/19 18/18
f 20/20 2/2 19/19
f 1/1 2/2 20/20
f 5/5 6/6 21/21
f 3/3 22/22 2/2
f 3/3 23/23 22/22
f 10/10 23/23 3/3
f 23/23 10/10 11/11
f 26/26 25/25 24/24
f 31/31 30/30 29/29
f 29/29 32/32 31/31
f 33/33 32/32 29/29
f 41/41 40/40 39/39
f 43/43 28/28 42/42
f 45/45 44/44 39/39
f 48/48 47/47 46/46
f 28/28 43/43 27/27
f 9/9 49/49 8/8
f 49/49 50/50 8/8
f 51/51 50/50 49/49
f 51/51 52/52 50/50
f 53/53 52/52 51/51
f 52/52 53/53 54/54
f 54/54 55/55 52/52
f 54/54 56/56 55/55
f 54/54 21/21 56/56
f 21/21 57/57 56/56
f 21/21 6/6 57/57
f 60/60 59/59 58/58
f 60/60 61/61 59/59
f 62/62 61/61 60/60
f 63/63 61/61 62/62
f 63/63 64/64 61/61
f 64/64 63/63 65/65
f 68/68 67/67 66/66
f 72/72 71/71 70/70
f 60/60 58/58 75/75
f 72/72 44/44 76/76
f 79/79 78/78 77/77
f 81/81 39/39 80/80
f 40/40 82/82 39/39
f 84/84 83/83 78/78
f 41/41 39/39 81/81
f 86/86 77/77 85/85
f 89/89 88/88 87/87
f 92/92 91/91 90/90
f 89/89 93/93 88/88
f 94/94 24/24 92/92
f 97/97 96/96 95/95
f 100/100 68/68 66/66
f 103/103 102/102 101/101
f 104/104 103/103 101/101
f 104/104 105/105 103/103
f 106/106 105/105 104/104
f 106/106 107/107 105/105
f 107/107 106/106 108/108
f 109/109 108/108 106/106
f 110/110 108/108 109/109
f 96/96 108/108 110/110
f 95/95 96/96 110/110
f 113/113 112/112 111/111
f 97/97 114/114 96/96
f 114/114 97/97 115/115
f 116/116 115/115 97/97
f 102/102 116/116 101/101
f 116/116 102/102 115/115
f 65/65 117/117 64/64
f 117/117 119/119 118/118
f 119/119 117/117 65/65
f 120/120 118/118 119/119
f 120/120 121/121 118/118
f 122/122 121/121 120/120
f 121/121 75/75 123/123
f 75/75 121/121 122/122
f 75/75 58/58 123/123
f 126/126 125/125 124/124
f 129/129 128/128 127/127
f 86/86 85/85 130/130
f 131/131 92/92 90/90
f 134/134 133/133 132/132
f 86/86 135/135 77/77
f 79/79 77/77 135/135
f 131/131 94/94 92/92
f 79/79 84/84 78/78
f 94/94 26/26 24/24
f 124/124 83/83 84/84
f 26/26 136/136 25/25
f 140/140 139/139 138/138
f 136/136 93/93 89/89
f 141/141 125/125 126/126
f 91/91 143/143 142/142
f 125/125 83/83 124/124
f 130/130 85/85 87/87
f 146/146 145/145 144/144
f 136/136 89/89 25/25
f 44/44 72/72 70/70
f 149/149 148/148 147/147
f 142/142 143/143 141/141
f 130/130 87/87 88/88
f 90/90 91/91 142/142
f 149/149 152/152 151/151
f 149/149 153/153 152/152
f 149/149 154/154 153/153
f 149/149 155/155 154/154
f 149/149 147/147 155/155
f 113/113 111/111 156/156
f 149/149 157/157 148/148
f 149/149 159/159 158/158
f 149/149 158/158 160/160
f 149/149 161/161 157/157
f 149/149 151/151 159/159
f 149/149 160/160 161/161
f 129/129 127/127 150/150
f 164/164 163/163 162/162
f 167/167 166/166 165/165
f 170/170 169/169 168/168
f 168/168 171/171 170/170
f 174/174 173/173 172/172
f 177/177 176/176 175/175
f 175/175 178/178 177/177
f 179/179 178/178 175/175
f 177/177 33/33 176/176
f 32/32 33/33 177/177
f 172/172 113/113 174/174
f 112/112 113/113 172/172
f 180/180 173/173 174/174
f 180/180 181/181 173/173
f 167/167 162/162 163/163
f 182/182 166/166 167/167
f 182/182 183/183 166/166
f 182/182 184/184 183/183
f 178/178 184/184 182/182
f 178/178 179/179 184/184
f 164/164 180/180 163/163
f 185/185 180/180 164/164
f 180/180 185/185 181/181
f 156/156 171/171 168/168
f 168/168 169/169 31/31
f 30/30 31/31 169/169
f 156/156 186/186 171/171
f 156/156 111/111 186/186
f 189/189 188/188 187/187
f 191/191 188/188 190/190
f 193/193 188/188 192/192
f 195/195 188/188 194/194
f 187/187 188/188 191/191
f 190/190 188/188 193/193
f 192/192 188/188 195/195
f 194/194 188/188 189/189
f 197/197 70/70 196/196
f 196/196 70/70 71/71
f 40/40 41/41 198/198
f 143/143 125/125 141/141
f 48/48 34/34 199/199
f 139/139 201/201 200/200
f 165/165 162/162 167/167
f 34/34 48/48 36/36
f 134/134 139/139 203/203
f 70/70 197/197 204/204
f 45/45 39/39 82/82
f 204/204 197/197 201/201
f 204/204 201/201 139/139
f 205/205 36/36 48/48
f 76/76 44/44 45/45
f 139/139 200/200 203/203
f 209/209 208/208 207/207
f 210/210 209/209 207/207
f 213/213 212/212 211/211
f 214/214 213/213 211/211
f 214/214 211/211 215/215
f 216/216 214/214 215/215
f 216/216 215/215 217/217
f 218/218 216/216 217/217
f 220/220 219/219 221/221
f 222/222 220/220 221/221
f 222/222 221/221 223/223
f 224/224 222/222 223/223
f 224/224 223/223 208/208
f 209/209 224/224 208/208
f 226/226 225/225 212/212
f 213/213 226/226 212/212
f 210/210 207/207 227/227
f 228/228 210/210 227/227
f 228/228 227/227 229/229
f 230/230 228/228 229/229
f 230/230 229/229 231/231
f 232/232 230/230 231/231
f 232/232 231/231 233/233
f 234/234 232/232 233/233
f 234/234 233/233 235/235
f 236/236 234/234 235/235
f 236/236 235/235 237/237
f 238/238 236/236 237/237
f 238/238 237/237 239/239
f 240/240 238/238 239/239
f 242/242 240/240 241/241
f 243/243 242/242 241/241
f 246/246 245/245 244/244
f 247/247 246/246 244/244
f 250/250 249/249 248/248
f 251/251 250/250 248/248
f 254/254 253/253 252/252
f 255/255 254/254 252/252
f 258/258 257/257 256/256
f 259/259 258/258 256/256
f 262/262 261/261 260/260
f 263/263 262/262 260/260
f 266/266 265/265 264/264
f 267/267 266/266 264/264
f 270/270 269/269 268/268
f 271/271 270/270 268/268
f 251/251 248/248 272/272
f 273/273 251/251 272/272
f 275/275 98/98 274/274
f 276/276 275/275 274/274
f 240/240 239/239 277/277
f 241/241 240/240 277/277
f 241/241 277/277 278/278
f 279/279 241/241 278/278
f 279/279 278/278 280/280
f 281/281 279/279 280/280
f 281/281 280/280 282/282
f 283/283 281/281 282/282
f 283/283 282/282 284/284
f 285/285 283/283 284/284
f 285/285 284/284 286/286
f 287/287 285/285 286/286
f 287/287 286/286 225/225
f 226/226 287/287 225/225
f 288/288 93/93 136/136
f 289/289 288/288 136/136
f 290/290 126/126 124/124
f 291/291 290/290 124/124
f 275/275 141/141 126/126
f 290/290 275/275 126/126
f 276/276 142/142 141/141
f 275/275 276/276 141/141
f 292/292 90/90 142/142
f 276/276 292/292 142/142
f 293/293 131/131 90/90
f 292/292 293/293 90/90
f 294/294 94/94 131/131
f 293/293 294/294 131/131
f 295/295 26/26 94/94
f 294/294 295/295 94/94
f 289/289 136/136 26/26
f 295/295 289/289 26/26
f 291/291 124/124 84/84
f 296/296 291/291 84/84
f 297/297 88/88 93/93
f 288/288 297/297 93/93
f 298/298 130/130 88/88
f 297/297 298/298 88/88
f 299/299 86/86 130/130
f 298/298 299/299 130/130
f 300/300 135/135 86/86
f 299/299 300/300 86/86
f 300/300 100/100 66/66
f 301/301 300/300 66/66
f 205/205 48/48 46/46
f 302/302 205/205 46/46
f 100/100 80/80 39/39
f 68/68 100/100 39/39
f 294/294 302/302 46/46
f 295/295 294/294 46/46
f 295/295 46/46 47/47
f 289/289 295/295 47/47
f 291/291 69/69 99/99
f 290/290 291/291 99/99
f 293/293 303/303 302/302
f 294/294 293/293 302/302
f 297/297 41/41 81/81
f 298/298 297/297 81/81
f 299/299 80/80 100/100
f 300/300 299/299 100/100
f 276/276 274/274 304/304
f 292/292 276/276 304/304
f 289/289 47/47 198/198
f 288/288 289/289 198/198
f 290/290 99/99 98/98
f 275/275 290/290 98/98
f 305/305 40/40 198/198
f 47/47 305/305 198/198
f 298/298 81/81 80/80
f 299/299 298/298 80/80
f 296/296 67/67 69/69
f 291/291 296/296 69/69
f 292/292 304/304 303/303
f 293/293 292/292 303/303
f 288/288 198/198 41/41
f 297/297 288/288 41/41
f 301/301 66/66 67/67
f 296/296 301/301 67/67
f 301/301 79/79 135/135
f 300/300 301/301 135/135
f 296/296 84/84 79/79
f 301/301 296/296 79/79
f 308/308 307/307 306/306
f 309/309 308/308 306/306
f 312/312 311/311 310/310
f 313/313 312/312 310/310
f 316/316 315/315 314/314
f 317/317 316/316 314/314
f 320/320 319/319 318/318
f 321/321 320/320 318/318
f 322/322 312/312 313/313
f 323/323 322/322 313/313
f 311/311 325/325 324/324
f 310/310 311/311 324/324
f 315/315 327/327 326/326
f 314/314 315/315 326/326
f 319/319 329/329 328/328
f 318/318 319/319 328/328
f 332/332 331/331 330/330
f 333/333 332/332 330/330
f 334/334 322/322 323/323
f 335/335 334/334 323/323
f 338/338 337/337 336/336
f 339/339 338/338 336/336
f 331/331 341/341 340/340
f 330/330 331/331 340/340
f 307/307 343/343 342/342
f 306/306 307/307 342/342
f 337/337 345/345 344/344
f 336/336 337/337 344/344
f 348/348 347/347 346/346
f 349/349 348/348 346/346
f 341/341 351/351 350/350
f 340/340 341/341 350/350
f 343/343 332/332 333/333
f 342/342 343/343 333/333
f 354/354 353/353 352/352
f 355/355 354/354 352/352
f 353/353 357/357 356/356
f 352/352 353/353 356/356
f 360/360 359/359 358/358
f 361/361 360/360 358/358
f 364/364 363/363 362/362
f 365/365 364/364 362/362
f 368/368 367/367 366/366
f 369/369 368/368 366/366
f 357/357 371/371 370/370
f 356/356 357/357 370/370
f 359/359 354/354 355/355
f 358/358 359/359 355/355
f 367/367 373/373 372/372
f 366/366 367/367 372/372
f 371/371 375/375 374/374
f 370/370 371/371 374/374
f 345/345 377/377 376/376
f 344/344 345/345 376/376
f 373/373 360/360 361/361
f 372/372 373/373 361/361
f 375/375 364/364 365/365
f 374/374 375/375 365/365
f 378/378 368/368 369/369
f 379/379 378/378 369/369
f 325/325 381/381 380/380
f 324/324 325/325 380/380
f 327/327 334/334 335/335
f 326/326 327/327 335/335
f 329/329 316/316 317/317
f 328/328 329/329 317/317
f 381/381 320/320 321/321
f 380/380 381/381 321/321
f 384/384 383/383 382/382
f 385/385 384/384 382/382
f 388/388 387/387 386/386
f 389/389 388/388 386/386
f 385/385 382/382 390/390
f 391/391 385/385 390/390
f 394/394 393/393 392/392
f 395/395 394/394 392/392
f 398/398 397/397 396/396
f 399/399 398/398 396/396
f 399/399 401/401 400/400
f 398/398 399/399 400/400
f 404/404 403/403 402/402
f 405/405 404/404 402/402
f 397/397 407/407 406/406
f 396/396 397/397 406/406
f 410/410 409/409 408/408
f 411/411 410/410 408/408
f 389/389 386/386 412/412
f 413/413 389/389 412/412
f 416/416 415/415 414/414
f 417/417 416/416 414/414
f 419/419 418/418 415/415
f 416/416 419/419 415/415
f 351/351 338/338 339/339
f 350/350 351/351 339/339
f 347/347 308/308 309/309
f 346/346 347/347 309/309
f 146/146 421/421 420/420
f 145/145 146/146 420/420
f 138/138 423/423 422/422
f 140/140 138/138 422/422
f 132/132 133/133 424/424
f 137/137 133/133 134/134
f 132/132 424/424 423/423
f 138/138 132/132 423/423
f 428/428 427/427 426/426
f 429/429 428/428 426/426
f 432/432 431/431 430/430
f 433/433 432/432 430/430
f 435/435 434/434 431/431
f 432/432 435/435 431/431
f 433/433 430/430 427/427
f 428/428 433/433 427/427
f 140/140 146/146 144/144
f 139/139 140/140 144/144
f 436/436 421/421 422/422
f 437/437 436/436 422/422
f 437/437 422/422 423/423
f 439/439 437/437 423/423
f 440/440 424/424 206/206
f 441/441 420/420 421/421
f 436/436 441/441 421/421
f 145/145 420/420 425/425
f 132/132 138/138 139/139
f 134/134 132/132 139/139
f 441/441 438/438 420/420
f 74/74 445/445 444/444
f 73/73 74/74 444/444
f 439/439 423/423 424/424
f 440/440 439/439 424/424
f 27/27 43/43 304/304
f 274/274 27/27 304/304
f 42/42 303/303 304/304
f 43/43 42/42 304/304
f 42/42 28/28 205/205
f 205/205 302/302 303/303
f 42/42 205/205 303/303
f 140/140 422/422 421/421
f 146/146 140/140 421/421
f 448/448 447/447 446/446
f 449/449 448/448 446/446
f 452/452 451/451 450/450
f 453/453 452/452 450/450
f 456/456 455/455 454/454
f 457/457 456/456 454/454
f 459/459 458/458 453/453
f 450/450 459/459 453/453
f 456/456 457/457 458/458
f 459/459 456/456 458/458
f 461/461 460/460 451/451
f 452/452 461/461 451/451
f 463/463 462/462 460/460
f 461/461 463/463 460/460
f 463/463 465/465 464/464
f 462/462 463/463 464/464
f 468/468 467/467 466/466
f 469/469 468/468 466/466
f 470/470 448/448 449/449
f 471/471 470/470 449/449
f 474/474 473/473 472/472
f 475/475 474/474 472/472
f 447/447 477/477 476/476
f 446/446 447/447 476/476
f 477/477 479/479 478/478
f 476/476 477/477 478/478
f 479/479 481/481 480/480
f 478/478 479/479 480/480
f 481/481 483/483 482/482
f 480/480 481/481 482/482
f 483/483 468/468 469/469
f 482/482 483/483 469/469
f 486/486 485/485 484/484
f 487/487 486/486 484/484
f 488/488 486/486 487/487
f 489/489 488/488 487/487
f 492/492 491/491 490/490
f 493/493 492/492 490/490
f 496/496 495/495 494/494
f 497/497 496/496 494/494
f 500/500 499/499 498/498
f 501/501 500/500 498/498
f 504/504 503/503 502/502
f 505/505 504/504 502/502
f 508/508 507/507 506/506
f 509/509 508/508 506/506
f 512/512 511/511 510/510
f 513/513 512/512 510/510
f 514/514 506/506 507/507
f 515/515 514/514 507/507
f 512/512 514/514 515/515
f 511/511 512/512 515/515
f 491/491 508/508 509/509
f 490/490 491/491 509/509
f 68/68 39/39 516/516
f 517/517 68/68 516/516
f 492/492 493/493 518/518
f 519/519 492/492 518/518
f 475/475 472/472 520/520
f 521/521 475/475 520/520
f 524/524 523/523 522/522
f 525/525 524/524 522/522
f 525/525 522/522 526/526
f 527/527 525/525 526/526
f 527/527 526/526 528/528
f 529/529 527/527 528/528
f 529/529 528/528 530/530
f 531/531 529/529 530/530
f 531/531 530/530 532/532
f 533/533 531/531 532/532
f 533/533 532/532 473/473
f 474/474 533/533 473/473
f 535/535 38/38 534/534
f 537/537 536/536 484/484
f 485/485 537/537 484/484
f 539/539 538/538 536/536
f 537/537 539/539 536/536
f 144/144 540/540 204/204
f 139/139 144/144 204/204
f 204/204 542/542 541/541
f 70/70 204/204 541/541
f 70/70 541/541 543/543
f 44/44 70/70 543/543
f 39/39 44/44 543/543
f 516/516 39/39 543/543
f 517/517 516/516 486/486
f 488/488 517/517 486/486
f 503/503 545/545 544/544
f 502/502 503/503 544/544
f 516/516 543/543 485/485
f 486/486 516/516 485/485
f 535/535 534/534 546/546
f 547/547 535/535 546/546
f 547/547 546/546 548/548
f 549/549 547/547 548/548
f 552/552 551/551 550/550
f 553/553 552/552 550/550
f 556/556 555/555 554/554
f 557/557 556/556 554/554
f 560/560 559/559 558/558
f 561/561 560/560 558/558
f 564/564 563/563 562/562
f 565/565 564/564 562/562
f 555/555 567/567 566/566
f 554/554 555/555 566/566
f 559/559 569/569 568/568
f 558/558 559/559 568/568
f 563/563 571/571 570/570
f 562/562 563/563 570/570
f 567/567 552/552 553/553
f 566/566 567/567 553/553
f 569/569 573/573 572/572
f 568/568 569/569 572/572
f 571/571 575/575 574/574
f 570/570 571/571 574/574
f 576/576 564/564 565/565
f 577/577 576/576 565/565
f 573/573 579/579 578/578
f 572/572 573/573 578/578
f 575/575 581/581 580/580
f 574/574 575/575 580/580
f 551/551 583/583 582/582
f 550/550 551/551 582/582
f 579/579 585/585 584/584
f 578/578 579/579 584/584
f 581/581 587/587 586/586
f 580/580 581/581 586/586
f 590/590 589/589 588/588
f 591/591 590/590 588/588
f 594/594 593/593 592/592
f 595/595 594/594 592/592
f 598/598 597/597 596/596
f 599/599 598/598 596/596
f 602/602 601/601 600/600
f 603/603 602/602 600/600
f 606/606 605/605 604/604
f 607/607 606/606 604/604
f 609/609 608/608 605/605
f 606/606 609/609 605/605
f 611/611 610/610 608/608
f 609/609 611/611 608/608
f 613/613 612/612 610/610
f 611/611 613/613 610/610
f 615/615 614/614 612/612
f 613/613 615/615 612/612
f 617/617 616/616 614/614
f 615/615 617/617 614/614
f 619/619 618/618 616/616
f 617/617 619/619 616/616
f 603/603 600/600 618/618
f 619/619 603/603 618/618
f 620/620 590/590 591/591
f 621/621 620/620 591/591
f 623/623 622/622 601/601
f 602/602 623/623 601/601
f 625/625 624/624 622/622
f 623/623 625/625 622/622
f 583/583 627/627 626/626
f 582/582 583/583 626/626
f 585/585 629/629 628/628
f 584/584 585/585 628/628
f 587/587 631/631 630/630
f 586/586 587/587 630/630
f 627/627 576/576 577/577
f 626/626 627/627 577/577
f 629/629 556/556 557/557
f 628/628 629/629 557/557
f 631/631 633/633 632/632
f 630/630 631/631 632/632
f 636/636 635/635 634/634
f 637/637 636/636 634/634
f 638/638 496/496 497/497
f 639/639 638/638 497/497
f 640/640 500/500 501/501
f 641/641 640/640 501/501
f 642/642 504/504 505/505
f 643/643 642/642 505/505
f 644/644 638/638 639/639
f 645/645 644/644 639/639
f 646/646 640/640 641/641
f 647/647 646/646 641/641
f 648/648 642/642 643/643
f 649/649 648/648 643/643
f 635/635 651/651 650/650
f 634/634 635/635 650/650
f 652/652 646/646 647/647
f 653/653 652/652 647/647
f 654/654 648/648 649/649
f 655/655 654/654 649/649
f 597/597 657/657 656/656
f 596/596 597/597 656/656
f 658/658 652/652 653/653
f 659/659 658/658 653/653
f 660/660 654/654 655/655
f 661/661 660/660 655/655
f 662/662 636/636 637/637
f 663/663 662/662 637/637
f 664/664 658/658 659/659
f 665/665 664/664 659/659
f 666/666 660/660 661/661
f 667/667 666/666 661/661
f 545/545 662/662 663/663
f 544/544 545/545 663/663
f 495/495 664/664 665/665
f 494/494 495/495 665/665
f 499/499 666/666 667/667
f 498/498 499/499 667/667
f 670/670 669/669 668/668
f 671/671 670/670 668/668
f 672/672 594/594 595/595
f 673/673 672/672 595/595
f 674/674 598/598 599/599
f 675/675 674/674 599/599
f 676/676 620/620 621/621
f 677/677 676/676 621/621
f 678/678 672/672 673/673
f 679/679 678/678 673/673
f 680/680 674/674 675/675
f 681/681 680/680 675/675
f 669/669 676/676 677/677
f 668/668 669/669 677/677
f 682/682 678/678 679/679
f 683/683 682/682 679/679
f 684/684 680/680 681/681
f 685/685 684/684 681/681
f 686/686 682/682 683/683
f 687/687 686/686 683/683
f 688/688 684/684 685/685
f 689/689 688/688 685/685
f 690/690 670/670 671/671
f 691/691 690/690 671/671
f 692/692 686/686 687/687
f 693/693 692/692 687/687
f 694/694 688/688 689/689
f 695/695 694/694 689/689
f 657/657 690/690 691/691
f 656/656 657/657 691/691
f 589/589 692/692 693/693
f 588/588 589/589 693/693
f 593/593 694/694 695/695
f 592/592 593/593 695/695
f 698/698 697/697 696/696
f 699/699 698/698 696/696
f 702/702 701/701 700/700
f 703/703 702/702 700/700
f 706/706 705/705 704/704
f 707/707 706/706 704/704
f 708/708 442/442 443/443
f 709/709 708/708 443/443
f 711/711 710/710 701/701
f 702/702 711/711 701/701
f 713/713 712/712 705/705
f 706/706 713/713 705/705
f 716/716 715/715 714/714
f 717/717 716/716 714/714
f 699/699 696/696 710/710
f 711/711 699/699 710/710
f 719/719 718/718 712/712
f 713/713 719/719 712/712
f 721/721 720/720 715/715
f 716/716 721/721 715/715
f 709/709 443/443 722/722
f 723/723 709/709 722/722
f 725/725 724/724 718/718
f 719/719 725/725 718/718
f 727/727 726/726 720/720
f 721/721 727/727 720/720
f 729/729 728/728 697/697
f 698/698 729/729 697/697
f 731/731 730/730 724/724
f 725/725 731/731 724/724
f 734/734 733/733 732/732
f 735/735 734/734 732/732
f 737/737 736/736 726/726
f 727/727 737/737 726/726
f 247/247 244/244 253/253
f 254/254 247/247 253/253
f 740/740 739/739 738/738
f 741/741 740/740 738/738
f 212/212 728/728 742/742
f 211/211 212/212 742/742
f 280/280 700/700 701/701
f 282/282 280/280 701/701
f 215/215 722/722 443/443
f 217/217 215/215 443/443
f 207/207 743/743 704/704
f 227/227 207/207 704/704
f 278/278 744/744 700/700
f 280/280 278/278 700/700
f 211/211 742/742 722/722
f 215/215 211/211 722/722
f 208/208 736/736 743/743
f 207/207 208/208 743/743
f 277/277 733/733 744/744
f 278/278 277/277 744/744
f 237/237 730/730 732/732
f 239/239 237/237 732/732
f 746/746 745/745 245/245
f 246/246 746/746 245/245
f 223/223 726/726 736/736
f 208/208 223/223 736/736
f 747/747 742/742 728/728
f 729/729 747/747 728/728
f 735/735 732/732 730/730
f 731/731 735/735 730/730
f 748/748 744/744 733/733
f 734/734 748/748 733/733
f 749/749 743/743 736/736
f 737/737 749/749 736/736
f 723/723 722/722 742/742
f 747/747 723/723 742/742
f 703/703 700/700 744/744
f 748/748 703/703 744/744
f 707/707 704/704 743/743
f 749/749 707/707 743/743
f 752/752 751/751 750/750
f 753/753 752/752 750/750
f 756/756 755/755 754/754
f 757/757 756/756 754/754
f 760/760 759/759 758/758
f 761/761 760/760 758/758
f 764/764 763/763 762/762
f 765/765 764/764 762/762
f 757/757 754/754 766/766
f 767/767 757/757 766/766
f 761/761 758/758 768/768
f 769/769 761/761 768/768
f 765/765 762/762 751/751
f 752/752 765/765 751/751
f 767/767 766/766 770/770
f 771/771 767/767 770/770
f 774/774 773/773 772/772
f 775/775 774/774 772/772
f 769/769 768/768 776/776
f 777/777 769/769 776/776
f 779/779 778/778 763/763
f 764/764 779/779 763/763
f 771/771 770/770 773/773
f 774/774 771/771 773/773
f 775/775 772/772 780/780
f 781/781 775/775 780/780
f 777/777 776/776 782/782
f 783/783 777/777 782/782
f 753/753 750/750 784/784
f 785/785 753/753 784/784
f 787/787 786/786 249/249
f 250/250 787/787 249/249
f 789/789 788/788 261/261
f 262/262 789/789 261/261
f 791/791 790/790 257/257
f 258/258 791/791 257/257
f 793/793 792/792 269/269
f 270/270 793/793 269/269
f 781/781 780/780 794/794
f 795/795 781/781 794/794
f 271/271 268/268 790/790
f 791/791 271/271 790/790
f 797/797 796/796 792/792
f 793/793 797/797 792/792
f 263/263 260/260 786/786
f 787/787 263/263 786/786
f 799/799 798/798 788/788
f 789/789 799/799 788/788
f 255/255 252/252 739/739
f 740/740 255/255 739/739
f 273/273 272/272 745/745
f 746/746 273/273 745/745
f 267/267 264/264 796/796
f 797/797 267/267 796/796
f 259/259 256/256 798/798
f 799/799 259/259 798/798
f 227/227 704/704 705/705
f 229/229 227/227 705/705
f 783/783 782/782 800/800
f 801/801 783/783 800/800
f 785/785 784/784 802/802
f 803/803 785/785 802/802
f 795/795 794/794 804/804
f 805/805 795/795 804/804
f 801/801 800/800 806/806
f 807/807 801/801 806/806
f 803/803 802/802 808/808
f 809/809 803/803 808/808
f 805/805 804/804 778/778
f 779/779 805/805 778/778
f 807/807 806/806 755/755
f 756/756 807/807 755/755
f 809/809 808/808 759/759
f 760/760 809/809 759/759
f 810/810 238/238 240/240
f 242/242 810/810 240/240
f 811/811 232/232 234/234
f 812/812 811/811 234/234
f 814/814 287/287 226/226
f 815/815 814/814 226/226
f 812/812 234/234 236/236
f 816/816 812/812 236/236
f 813/813 222/222 224/224
f 817/817 813/813 224/224
f 815/815 226/226 213/213
f 818/818 815/815 213/213
f 816/816 236/236 238/238
f 810/810 816/816 238/238
f 817/817 224/224 209/209
f 819/819 817/817 209/209
f 818/818 213/213 214/214
f 820/820 818/818 214/214
f 821/821 285/285 287/287
f 814/814 821/821 287/287
f 819/819 209/209 210/210
f 822/822 819/819 210/210
f 820/820 214/214 216/216
f 823/823 820/820 216/216
f 243/243 241/241 279/279
f 824/824 243/243 279/279
f 824/824 279/279 281/281
f 825/825 824/824 281/281
f 822/822 210/210 228/228
f 826/826 822/822 228/228
f 37/37 828/828 827/827
f 35/35 37/37 827/827
f 202/202 830/830 829/829
f 831/831 549/549 548/548
f 832/832 831/831 548/548
f 542/542 204/204 540/540
f 833/833 542/542 540/540
f 542/542 833/833 834/834
f 539/539 542/542 834/834
f 542/542 539/539 537/537
f 541/541 542/542 537/537
f 541/541 537/537 485/485
f 543/543 541/541 485/485
f 834/834 835/835 538/538
f 539/539 834/834 538/538
f 445/445 831/831 832/832
f 444/444 445/445 832/832
f 76/76 837/837 836/836
f 72/72 76/76 836/836
f 825/825 281/281 283/283
f 838/838 825/825 283/283
f 826/826 228/228 230/230
f 839/839 826/826 230/230
f 838/838 283/283 285/285
f 821/821 838/838 285/285
f 839/839 230/230 232/232
f 811/811 839/839 232/232
f 233/233 718/718 724/724
f 235/235 233/233 724/724
f 134/134 840/840 830/830
f 202/202 134/134 830/830
f 45/45 841/841 837/837
f 76/76 45/45 837/837
f 72/72 836/836 842/842
f 71/71 72/72 842/842
f 305/305 47/47 48/48
f 199/199 305/305 48/48
f 239/239 732/732 733/733
f 277/277 239/239 733/733
f 235/235 724/724 730/730
f 237/237 235/235 730/730
f 225/225 697/697 728/728
f 212/212 225/225 728/728
f 221/221 720/720 726/726
f 223/223 221/221 726/726
f 286/286 696/696 697/697
f 225/225 286/286 697/697
f 219/219 715/715 720/720
f 221/221 219/219 720/720
f 231/231 712/712 718/718
f 233/233 231/231 718/718
f 284/284 710/710 696/696
f 286/286 284/284 696/696
f 229/229 705/705 712/712
f 231/231 229/229 712/712
f 282/282 701/701 710/710
f 284/284 282/282 710/710
f 607/607 604/604 843/843
f 844/844 607/607 843/843
f 71/71 842/842 845/845
f 196/196 71/71 845/845
f 35/35 827/827 846/846
f 34/34 35/35 846/846
f 196/196 845/845 847/847
f 197/197 196/196 847/847
f 34/34 846/846 848/848
f 199/199 34/34 848/848
f 197/197 847/847 849/849
f 201/201 197/197 849/849
f 199/199 848/848 850/850
f 305/305 199/199 850/850
f 741/741 738/738 265/265
f 266/266 741/741 265/265
f 201/201 849/849 851/851
f 200/200 201/201 851/851
f 305/305 850/850 852/852
f 40/40 305/305 852/852
f 200/200 851/851 853/853
f 203/203 200/200 853/853
f 40/40 852/852 854/854
f 82/82 40/40 854/854
f 203/203 853/853 840/840
f 134/134 203/203 840/840
f 82/82 854/854 841/841
f 45/45 82/82 841/841
