mtllib pershing_hull_m5.mtl
o pershing_hull_m5
v 0.45175 0.17759 1.93628
v 0.44878 0.24480 1.91404
v 0.48881 0.24480 1.91404
v 0.48684 0.17759 1.93628
v 0.44977 0.14645 1.80407
v 0.48956 0.14645 1.80407
v 0.48881 0.24480 1.91404
v 0.44878 0.24480 1.91404
v -0.47146 0.24480 1.91404
v -0.47541 0.17561 1.93059
v -0.50754 0.17561 1.93059
v -0.51347 0.24480 1.91404
v -0.47047 0.14645 1.81000
v -0.51248 0.14645 1.81000
v -0.51347 0.24480 1.91404
v -0.47146 0.24480 1.91404
v 0.61138 0.77486 1.62121
v 0.59186 0.77584 1.63678
v 0.58889 0.79240 1.62788
v 0.58593 0.80797 1.61627
v 0.74655 0.40715 1.56289
v 0.73593 0.43261 1.73884
v 0.71739 0.61547 1.63974
v 0.72308 0.61547 1.57945
v 0.70578 0.58334 1.74180
v 0.70652 0.51218 1.80210
v 0.70652 0.42964 1.82063
v 0.70652 0.34118 1.79444
v 0.73395 0.32067 1.68052
v 0.34574 0.83243 1.61232
v 0.58025 0.78079 1.51891
v 0.57827 0.80426 1.54930
v 0.45372 0.81588 1.53077
v 0.28050 0.81390 1.50433
v 0.63362 0.81390 1.44502
v 0.59680 0.78079 1.48209
v 0.66377 0.79833 1.44502
v 0.62201 0.75064 1.51891
v 0.62967 0.76621 1.56487
v 0.69021 0.77584 1.44601
v 0.72406 0.82452 1.39263
v 0.74161 0.62214 1.49370
v 0.73864 0.64660 1.33333
v 0.73864 0.53071 1.40029
v 0.72308 0.62016 1.52484
v 0.65710 0.73606 1.57055
v 0.64622 0.72642 1.51891
v 0.66080 0.74570 1.48308
v 0.66278 0.73804 1.63876
v 0.62794 0.76423 1.48209
v 0.73593 0.18550 1.42179
v -0.71486 0.85072 1.39362
v -0.72648 0.82452 1.39263
v -0.72153 0.83540 1.30120
v -0.63010 0.80500 1.61923
v -0.63208 0.78375 1.62517
v -0.76428 0.27792 1.73785
v -0.76527 0.23986 1.63579
v -0.77985 0.36045 1.64073
v -0.76527 0.42371 1.74081
v -0.76626 0.61918 1.65136
v -0.76330 0.59199 1.75144
v -0.76330 0.34389 1.80407
v -0.76428 0.42964 1.82755
v -0.76428 0.51514 1.80605
v -0.52310 0.92287 1.55301
v -0.49296 0.91793 1.55202
v -0.49296 0.92189 1.59675
v -0.52310 0.92782 1.59502
v -0.52113 0.80426 1.54139
v -0.37434 0.82551 1.50260
v -0.62516 0.79042 1.51026
v -0.64666 0.78474 1.54436
v -0.69336 0.86258 1.39733
v -0.69237 0.81192 1.44601
v -0.71486 0.79537 1.44502
v -0.69534 0.73507 1.51619
v -0.66890 0.76423 1.51619
v -0.68842 0.75558 1.57154
v -0.70399 0.71950 1.57055
v -0.74007 0.63203 1.46850
v -0.70399 0.72444 1.63777
v -0.70102 0.74767 1.48308
v -0.75959 0.59595 1.57945
v -0.74872 0.60089 1.52088
v -0.66420 0.76621 1.48110
v -0.77615 0.36737 1.54831
v -0.63208 0.76719 1.63678
v -0.75168 0.45089 1.43341
v 0.44013 0.92856 1.55202
v 0.47695 0.93054 1.55597
v 0.47794 0.93844 1.58711
v 0.44013 0.93449 1.59774
v -0.60589 0.87617 1.54634
v -0.60292 0.88111 1.60367
v -0.63010 0.80500 1.61923
v -0.64666 0.78474 1.54436
v -0.60589 0.87617 1.54634
v -0.64666 0.78474 1.54436
v -0.52113 0.80426 1.54139
v -0.52310 0.84998 1.53744
v -0.42377 0.82057 1.55400
v -0.45391 0.88111 1.60960
v -0.45391 0.87617 1.55202
v -0.45391 0.88111 1.60960
v -0.42377 0.82156 1.62220
v -0.60292 0.88111 1.60367
v -0.58340 0.90830 1.59872
v -0.63010 0.80500 1.61923
v 0.58593 0.80797 1.61627
v 0.38651 0.88284 1.60663
v 0.56468 0.86925 1.60465
v 0.45372 0.81588 1.53077
v 0.46435 0.87716 1.54139
v 0.57827 0.80426 1.54930
v 0.58593 0.80797 1.61627
v 0.56468 0.86925 1.60465
v 0.55974 0.86456 1.55499
v -0.58340 0.90434 1.54930
v -0.58340 0.90830 1.59872
v -0.58340 0.90434 1.54930
v -0.52310 0.90236 1.54930
v -0.46676 0.90533 1.60268
v -0.46676 0.90039 1.55202
v -0.55424 0.92189 1.59675
v -0.46676 0.90533 1.60268
v 0.53923 0.90632 1.60070
v 0.40603 0.90928 1.60268
v 0.44013 0.93449 1.59774
v 0.44013 0.92856 1.55202
v 0.47028 0.90138 1.54634
v 0.53923 0.90632 1.60070
v 0.53453 0.89940 1.55400
v -0.55424 0.91793 1.55202
v -0.55424 0.92189 1.59675
v -0.55424 0.91793 1.55202
v -0.52310 0.92287 1.55301
v -0.52310 0.92782 1.59502
v -0.49296 0.92189 1.59675
v 0.47794 0.93844 1.58711
v 0.51402 0.92955 1.59601
v 0.47695 0.93054 1.55597
v 0.51402 0.92189 1.55499
v 0.51402 0.92189 1.55499
v 0.51402 0.92955 1.59601
v 0.70948 0.23591 1.63876
v 0.70652 0.27965 1.73513
v -0.65926 0.82057 1.44403
v -0.63974 0.77980 1.48209
v 0.55974 0.86456 1.55499
v 0.57827 0.80426 1.54930
v 0.53453 0.89940 1.55400
v -0.75662 0.15609 1.36249
v -0.45391 0.87617 1.55202
v -0.42377 0.82057 1.55400
v -0.46676 0.90039 1.55202
v -0.49296 0.91793 1.55202
v 0.71838 0.18550 1.42179
v 0.69688 0.23591 1.63876
v 0.70948 0.23591 1.63876
v 0.73593 0.18550 1.42179
v -0.75662 0.15609 1.36249
v -0.76527 0.23986 1.63579
v -0.75267 0.23986 1.63480
v -0.74402 0.15708 1.36347
v 0.69688 0.23591 1.63876
v 0.71838 0.18550 1.42179
v 0.69589 0.35576 1.41290
v 0.69688 0.40913 1.62986
v -0.74402 0.32931 1.35458
v -0.74402 0.15708 1.36347
v -0.75267 0.23986 1.63480
v -0.75465 0.41210 1.62615
v 0.65215 0.15041 1.70103
v 0.58791 0.09975 1.71067
v 0.58791 0.12322 1.77689
v 0.65215 0.16696 1.75737
v 0.58791 0.16103 1.83817
v 0.65215 0.20378 1.82261
v 0.58791 0.21663 1.89452
v 0.65215 0.25049 1.86931
v 0.58791 0.28261 1.93554
v 0.65215 0.30707 1.90440
v 0.58791 0.35650 1.96173
v 0.65215 0.36935 1.92565
v 0.58791 0.43434 1.97038
v 0.65215 0.43434 1.93356
v 0.58791 0.51415 1.96173
v 0.65215 0.49957 1.92565
v 0.58791 0.58631 1.93554
v 0.65215 0.56185 1.90440
v 0.58791 0.61349 1.91898
v 0.65215 0.61843 1.86931
v 0.58791 0.65229 1.89452
v 0.58791 0.70789 1.83916
v 0.65215 0.66514 1.82261
v 0.58791 0.74866 1.77294
v 0.65215 0.70196 1.75737
v 0.65215 0.72148 1.69609
v 0.58791 0.77486 1.69905
v 0.70182 0.24579 1.72623
v 0.70182 0.22825 1.67286
v 0.70182 0.27100 1.76602
v 0.70182 0.30411 1.79913
v 0.70182 0.34389 1.82458
v 0.70182 0.38763 1.84015
v 0.70182 0.43434 1.84485
v 0.70182 0.48104 1.84015
v 0.70182 0.52503 1.82458
v 0.70182 0.56481 1.79913
v 0.70182 0.59792 1.76602
v 0.70182 0.62313 1.72623
v 0.70182 0.64364 1.66792
v 0.65215 0.72815 1.66890
v 0.69293 0.72148 1.65803
v 0.69293 0.72148 1.63876
v 0.72505 0.63672 1.63974
v 0.72505 0.63573 1.65803
v 0.19006 0.42766 1.98792
v 0.48288 0.48401 1.91503
v 0.55380 0.48401 1.91503
v 0.55380 0.48401 1.96939
v 0.48288 0.48401 1.96939
v 0.55183 0.55517 1.89353
v 0.55183 0.53763 1.89254
v 0.48585 0.53664 1.89254
v 0.48585 0.55419 1.89254
v 0.58692 0.51415 1.91503
v 0.58791 0.61349 1.91898
v 0.58791 0.58631 1.93554
v 0.58791 0.51415 1.96173
v 0.44977 0.51415 1.91503
v 0.44779 0.51415 1.96173
v 0.44779 0.58631 1.93554
v 0.44779 0.61349 1.91898
v 0.57432 0.49389 1.96470
v 0.57432 0.49191 1.91503
v 0.46237 0.49389 1.96470
v 0.46139 0.49191 1.91503
v 0.57432 0.49389 1.96470
v 0.55380 0.48401 1.96939
v 0.48288 0.48401 1.96939
v 0.55380 0.48401 1.91503
v 0.48288 0.48401 1.91503
v 0.50908 0.50649 1.90910
v 0.52959 0.50748 1.90910
v 0.44779 0.61349 1.91898
v 0.48956 0.57445 1.91008
v 0.47893 0.55616 1.91008
v 0.44977 0.51415 1.91503
v 0.47992 0.53466 1.90910
v 0.54812 0.51811 1.90910
v 0.57432 0.49191 1.91503
v 0.49054 0.51712 1.90910
v 0.46139 0.49191 1.91503
v 0.58692 0.51415 1.91503
v 0.55776 0.53664 1.91008
v 0.52662 0.57939 1.89353
v 0.50908 0.57939 1.89353
v 0.50710 0.58532 1.91008
v 0.52860 0.58532 1.91008
v 0.49450 0.56975 1.89353
v 0.48956 0.57445 1.91008
v 0.48585 0.55419 1.89254
v 0.47893 0.55616 1.91008
v 0.48585 0.53664 1.89254
v 0.47992 0.53466 1.90910
v 0.49450 0.52206 1.89254
v 0.49054 0.51712 1.90910
v 0.51007 0.51316 1.89254
v 0.50908 0.50649 1.90910
v 0.52761 0.51316 1.89254
v 0.52959 0.50748 1.90910
v 0.54318 0.52206 1.89254
v 0.54812 0.51811 1.90910
v 0.55776 0.53664 1.91008
v 0.55183 0.53763 1.89254
v 0.55183 0.55517 1.89353
v 0.55776 0.55715 1.91008
v 0.54219 0.57074 1.89353
v 0.54713 0.57544 1.91008
v 0.52662 0.57939 1.89353
v 0.52860 0.58532 1.91008
v 0.55776 0.55715 1.91008
v 0.58791 0.61349 1.91898
v 0.54713 0.57544 1.91008
v 0.50710 0.58532 1.91008
v 0.52860 0.58532 1.91008
v -0.60959 0.70789 1.83719
v -0.60959 0.74866 1.77096
v -0.60959 0.65229 1.89254
v 0.44779 0.61349 1.91898
v 0.18808 0.28360 1.95283
v 0.18808 0.21762 1.91206
v -0.60959 0.16103 1.83817
v -0.60959 0.12322 1.77689
v -0.60959 0.09975 1.71067
v -0.69139 0.15041 1.70103
v -0.69139 0.16894 1.76602
v -0.69139 0.20378 1.82261
v -0.69139 0.25049 1.86931
v -0.60959 0.21663 1.89254
v -0.69139 0.30707 1.90440
v -0.60959 0.28261 1.93455
v -0.69139 0.36935 1.92565
v -0.60959 0.35650 1.95975
v -0.60959 0.43434 1.96840
v -0.69139 0.43434 1.93356
v -0.60959 0.51218 1.95975
v -0.69139 0.49957 1.92565
v -0.69139 0.56185 1.90440
v -0.60959 0.58631 1.93455
v -0.69139 0.70196 1.75737
v -0.69139 0.66514 1.82261
v -0.69139 0.72148 1.69609
v -0.60959 0.77486 1.69707
v -0.74600 0.22825 1.67286
v -0.74600 0.24579 1.72623
v -0.74600 0.27100 1.76602
v -0.74600 0.30411 1.79913
v -0.74600 0.34389 1.82458
v -0.74600 0.38763 1.84015
v -0.74600 0.43434 1.84485
v -0.74600 0.48104 1.84015
v -0.74600 0.52503 1.82458
v -0.69139 0.61843 1.86931
v -0.74600 0.56481 1.79913
v -0.74600 0.59792 1.76602
v -0.74600 0.62313 1.72623
v -0.74600 0.64364 1.66989
v -0.68175 0.72148 1.67187
v -0.72450 0.72346 1.64073
v -0.72351 0.72247 1.65902
v -0.76330 0.63573 1.65803
v -0.76428 0.63672 1.63974
v -0.23893 0.28360 1.95283
v -0.23893 0.35749 1.97927
v -0.23893 0.21762 1.91206
v -0.06966 0.27495 1.96173
v -0.01925 0.26605 1.95778
v 0.07614 0.29620 1.97137
v 0.03141 0.27396 1.96173
v -0.11537 0.29917 1.97236
v -0.65926 0.16202 1.70103
v -0.67878 0.17265 1.65136
v -0.61157 0.14250 1.65729
v 0.61904 0.16103 1.70103
v 0.58123 0.14250 1.66100
v 0.64252 0.17265 1.65136
v 0.68626 0.27297 1.62887
v 0.67069 0.25345 1.81198
v -0.76330 0.23591 1.66989
v -0.76923 0.25642 1.66396
v -0.76923 0.27198 1.71660
v -0.76330 0.25147 1.72623
v -0.76923 0.29348 1.75144
v -0.76330 0.27594 1.76528
v -0.76923 0.32165 1.77986
v -0.76330 0.30806 1.79715
v -0.76923 0.35576 1.80111
v -0.76330 0.34686 1.82063
v -0.76923 0.39455 1.81470
v -0.76330 0.38961 1.83620
v -0.76923 0.43434 1.81865
v -0.76330 0.43434 1.84114
v -0.76923 0.47437 1.81470
v -0.76330 0.47931 1.83620
v -0.76923 0.51218 1.80111
v -0.76330 0.52206 1.82063
v -0.76923 0.54727 1.77986
v -0.76330 0.56086 1.79715
v -0.76923 0.57544 1.75144
v -0.76330 0.59298 1.76528
v -0.76923 0.59694 1.71660
v -0.76330 0.61646 1.72623
v -0.76923 0.61448 1.66297
v -0.76330 0.63573 1.65803
v -0.76923 0.61448 1.63974
v -0.76428 0.63672 1.63974
v 0.72901 0.29151 1.75243
v 0.72901 0.27001 1.71758
v 0.72308 0.25345 1.72525
v 0.72308 0.27792 1.76429
v 0.72901 0.32067 1.78085
v 0.72308 0.30905 1.79542
v 0.72901 0.35576 1.80309
v 0.72308 0.34686 1.81964
v 0.72901 0.39356 1.81668
v 0.72308 0.38961 1.83422
v 0.72901 0.43434 1.82063
v 0.72308 0.43434 1.83916
v 0.72901 0.47536 1.81668
v 0.72308 0.47931 1.83422
v 0.72505 0.52107 1.81964
v 0.72901 0.51316 1.80309
v 0.72901 0.54825 1.78085
v 0.72505 0.55888 1.79542
v 0.72901 0.57643 1.75243
v 0.72505 0.59100 1.76429
v 0.72901 0.59891 1.71758
v 0.72505 0.61547 1.72525
v 0.72505 0.63573 1.65803
v 0.72901 0.61349 1.66396
v 0.64252 0.17265 1.65136
v 0.64820 0.14250 1.65803
v 0.70182 0.22133 1.63777
v 0.68626 0.27297 1.62887
v 0.58123 0.14250 1.66100
v 0.58791 0.10864 1.67558
v -0.60959 0.10864 1.67187
v -0.61157 0.14250 1.65729
v -0.67878 0.17265 1.65136
v -0.69139 0.14250 1.66001
v -0.72845 0.27396 1.62418
v -0.74600 0.22133 1.63777
v -0.76330 0.61646 1.72623
v -0.76330 0.63573 1.65803
v -0.74600 0.64364 1.66989
v -0.74600 0.62313 1.72623
v -0.74600 0.59792 1.76602
v -0.76330 0.59298 1.76528
v -0.74600 0.56481 1.79913
v -0.76330 0.56086 1.79715
v -0.74600 0.52503 1.82458
v -0.76330 0.52206 1.82063
v -0.74600 0.48104 1.84015
v -0.76330 0.47931 1.83620
v -0.74600 0.43434 1.84485
v -0.76330 0.43434 1.84114
v -0.74600 0.38763 1.84015
v -0.76330 0.38961 1.83620
v -0.74600 0.34389 1.82458
v -0.76330 0.34686 1.82063
v -0.74600 0.30411 1.79913
v -0.76330 0.30806 1.79715
v -0.74600 0.27100 1.76602
v -0.76330 0.27594 1.76528
v -0.74600 0.24579 1.72623
v -0.76330 0.25147 1.72623
v -0.74600 0.22825 1.67286
v -0.76330 0.23591 1.66989
v 0.72308 0.25345 1.72525
v 0.70182 0.24579 1.72623
v 0.70182 0.27100 1.76602
v 0.72308 0.27792 1.76429
v 0.70182 0.30411 1.79913
v 0.72308 0.30905 1.79542
v 0.70182 0.34389 1.82458
v 0.72308 0.34686 1.81964
v 0.70182 0.38763 1.84015
v 0.72308 0.38961 1.83422
v 0.70182 0.43434 1.84485
v 0.72308 0.43434 1.83916
v 0.70182 0.48104 1.84015
v 0.72308 0.47931 1.83422
v 0.70182 0.52503 1.82458
v 0.72505 0.52107 1.81964
v 0.70182 0.56481 1.79913
v 0.72505 0.55888 1.79542
v 0.70182 0.59792 1.76602
v 0.72505 0.59100 1.76429
v 0.70182 0.62313 1.72623
v 0.72505 0.61547 1.72525
v 0.70182 0.64364 1.66792
v 0.72505 0.63573 1.65803
v 0.70182 0.64364 1.66792
v 0.65215 0.72815 1.66890
v 0.69293 0.72148 1.65803
v 0.72505 0.63573 1.65803
v -0.44329 0.52676 1.94517
v -0.45021 0.53763 1.94517
v -0.44823 0.54158 1.95876
v -0.44032 0.52972 1.96272
v -0.44329 0.51514 1.94517
v -0.43933 0.51613 1.96667
v -0.44823 0.50452 1.94517
v -0.44526 0.50353 1.96939
v -0.45787 0.49760 1.94517
v -0.45688 0.49661 1.97038
v -0.49098 0.51613 1.96667
v -0.49197 0.52972 1.96272
v -0.48801 0.52503 1.94517
v -0.48703 0.51218 1.94517
v -0.71091 0.25345 1.81198
v -0.72845 0.27396 1.62418
v 0.50908 0.57939 1.89353
v 0.52662 0.57939 1.89353
v 0.54219 0.57074 1.89353
v 0.49450 0.56975 1.89353
v 0.54318 0.52206 1.89254
v 0.49450 0.52206 1.89254
v 0.52761 0.51316 1.89254
v 0.51007 0.51316 1.89254
v -0.76923 0.61448 1.63974
v -0.74501 0.60558 1.63085
v -0.76428 0.63672 1.63974
v -0.66618 0.74570 1.63085
v -0.72450 0.72346 1.64073
v 0.70281 0.60460 1.63381
v 0.72505 0.63672 1.63974
v 0.69293 0.72148 1.63876
v 0.62398 0.74767 1.62986
v 0.72901 0.61448 1.63777
v 0.70380 0.58829 1.71264
v 0.70380 0.56876 1.74576
v 0.72901 0.57643 1.75243
v 0.72901 0.59891 1.71758
v 0.70380 0.54059 1.77393
v 0.72901 0.54825 1.78085
v 0.70380 0.50649 1.79542
v 0.72901 0.51316 1.80309
v 0.70380 0.47338 1.80704
v 0.72901 0.47536 1.81668
v 0.70380 0.43434 1.81099
v 0.72901 0.43434 1.82063
v 0.70380 0.39455 1.80704
v 0.72901 0.39356 1.81668
v 0.70380 0.36144 1.79444
v 0.72901 0.35576 1.80309
v 0.70380 0.32734 1.77294
v 0.72901 0.32067 1.78085
v 0.70380 0.29917 1.74477
v 0.72901 0.29151 1.75243
v 0.70380 0.27792 1.71462
v 0.72901 0.27001 1.71758
v -0.74674 0.26605 1.66198
v -0.74402 0.27965 1.71363
v -0.76923 0.27198 1.71660
v -0.76923 0.25642 1.66396
v -0.74402 0.29917 1.74773
v -0.76923 0.29348 1.75144
v -0.74402 0.32734 1.77491
v -0.76923 0.32165 1.77986
v -0.74402 0.35946 1.79542
v -0.76923 0.35576 1.80111
v -0.74402 0.39653 1.80803
v -0.76923 0.39455 1.81470
v -0.74402 0.43434 1.81272
v -0.76923 0.43434 1.81865
v -0.74402 0.47338 1.80803
v -0.76923 0.47437 1.81470
v -0.74402 0.50946 1.79444
v -0.76923 0.51218 1.80111
v -0.74402 0.54331 1.77294
v -0.76923 0.54727 1.77986
v -0.74303 0.56481 1.74674
v -0.76923 0.57544 1.75144
v -0.74303 0.58631 1.71264
v -0.76923 0.59694 1.71660
v -0.74303 0.60287 1.66001
v -0.76923 0.61448 1.66297
v -0.74501 0.60558 1.63085
v -0.76923 0.61448 1.63974
v 0.72901 0.61349 1.66396
v 0.70380 0.60188 1.66100
v 0.70380 0.25741 1.62788
v 0.72209 0.23121 1.63579
v 0.72901 0.24777 1.63085
v -0.74674 0.25938 1.62887
v -0.76330 0.22923 1.63480
v -0.76923 0.24950 1.62986
v 0.72209 0.23788 1.67088
v 0.70182 0.22825 1.67286
v 0.72209 0.23788 1.67088
v 0.72901 0.25444 1.66495
v 0.72901 0.25444 1.66495
v 0.70380 0.26408 1.66100
v 0.64820 0.14250 1.65803
v 0.58791 0.10864 1.67558
v -0.60959 0.10864 1.67187
v -0.69139 0.14250 1.66001
v -0.74600 0.22133 1.63777
v 0.70182 0.22133 1.63777
v 0.72209 0.23121 1.63579
v 0.70182 0.22133 1.63777
v 0.72209 0.23121 1.63579
v 0.72901 0.24777 1.63085
v 0.72901 0.24777 1.63085
v 0.70380 0.25741 1.62788
v -0.74600 0.22133 1.63777
v -0.76330 0.22923 1.63480
v -0.76330 0.22923 1.63480
v -0.76923 0.24950 1.62986
v -0.74674 0.25938 1.62887
v -0.76923 0.24950 1.62986
v -0.49098 0.51613 1.96667
v -0.49197 0.52972 1.96272
v -0.45021 0.53763 1.94517
v -0.44823 0.50452 1.94517
v -0.45787 0.49760 1.94517
v -0.46083 0.54232 1.94517
v -0.44329 0.52676 1.94517
v -0.44329 0.51514 1.94517
v 0.72505 0.63672 1.63974
v 0.72901 0.61448 1.63777
v 0.72901 0.61448 1.63777
v 0.70281 0.60460 1.63381
v 0.58791 0.77683 1.66890
v 0.58593 0.79537 1.65803
v 0.58593 0.79734 1.64073
v 0.64721 0.76917 1.63974
v 0.64721 0.76917 1.65803
v -0.60959 0.77683 1.67187
v -0.63208 0.79537 1.65803
v -0.67878 0.77115 1.65902
v -0.67878 0.77115 1.64073
v -0.63208 0.79635 1.64073
v 0.58593 0.79537 1.65803
v 0.58791 0.77683 1.66890
v -0.60959 0.77683 1.67187
v -0.68175 0.72148 1.67187
v -0.67878 0.77115 1.65902
v -0.63208 0.79537 1.65803
v 0.58593 0.79734 1.64073
v -0.63208 0.79635 1.64073
v -0.45984 0.54825 1.95679
v -0.48505 0.54158 1.95876
v -0.48332 0.53565 1.94517
v -0.47343 0.54825 1.95679
v -0.47245 0.54158 1.94517
v -0.45984 0.54825 1.95679
v -0.46083 0.54232 1.94517
v -0.46083 0.54232 1.94517
v -0.45984 0.54825 1.95679
v -0.48505 0.54158 1.95876
v -0.47343 0.54825 1.95679
v -0.47047 0.49661 1.97038
v -0.47047 0.49760 1.94517
v -0.48134 0.50254 1.94517
v -0.48332 0.50353 1.96939
v -0.45688 0.49661 1.97038
v -0.47047 0.49661 1.97038
v -0.48332 0.50353 1.96939
v -0.48801 0.52503 1.94517
v -0.48332 0.53565 1.94517
v -0.48134 0.50254 1.94517
v -0.48703 0.51218 1.94517
v -0.47047 0.49760 1.94517
v -0.47245 0.54158 1.94517
v 0.64721 0.76917 1.63974
v 0.64721 0.76917 1.65803
v -0.67878 0.77115 1.64073
v -0.72351 0.72247 1.65902
v -0.74600 0.64364 1.66989
v -0.76330 0.63573 1.65803
vt 0.69582 0.21558
vt 0.70024 0.21561
vt 0.70024 0.21441
vt 0.69582 0.21441
vt 0.68768 0.21558
vt 0.68766 0.21441
vt 0.69582 0.21220
vt 0.69582 0.21780
vt 0.70027 0.20812
vt 0.69582 0.20812
vt 0.69582 0.20928
vt 0.70027 0.20928
vt 0.68801 0.20812
vt 0.68803 0.20928
vt 0.69585 0.21150
vt 0.69585 0.20591
vt 0.68893 0.23158
vt 0.68683 0.23076
vt 0.68638 0.23161
vt 0.68596 0.23249
vt 0.72579 0.22725
vt 0.71660 0.22019
vt 0.70459 0.22821
vt 0.70764 0.23089
vt 0.70309 0.22299
vt 0.70686 0.21889
vt 0.71338 0.21638
vt 0.72225 0.21565
vt 0.72854 0.22038
vt 0.66415 0.23337
vt 0.68806 0.23738
vt 0.68653 0.23564
vt 0.67497 0.23676
vt 0.65861 0.23871
vt 0.69325 0.24163
vt 0.69010 0.23911
vt 0.69655 0.24132
vt 0.69357 0.23660
vt 0.69210 0.23428
vt 0.69982 0.24081
vt 0.70047 0.24438
vt 0.71036 0.23484
vt 0.71703 0.24212
vt 0.72240 0.23646
vt 0.70923 0.23343
vt 0.69560 0.23350
vt 0.69715 0.23608
vt 0.69805 0.23824
vt 0.69377 0.23030
vt 0.69395 0.23862
vt 0.74952 0.22875
vt 0.56413 0.24472
vt 0.56210 0.24418
vt 0.55953 0.24828
vt 0.57289 0.23264
vt 0.57219 0.23169
vt 0.52836 0.21785
vt 0.52117 0.22143
vt 0.53188 0.22361
vt 0.54120 0.22032
vt 0.55434 0.22809
vt 0.55513 0.22299
vt 0.53665 0.21623
vt 0.54470 0.21690
vt 0.55129 0.21926
vt 0.57442 0.22170
vt 0.57134 0.22168
vt 0.57154 0.22389
vt 0.57462 0.22374
vt 0.58178 0.23649
vt 0.59585 0.23859
vt 0.57132 0.23770
vt 0.56957 0.23601
vt 0.56620 0.24486
vt 0.56515 0.24167
vt 0.56258 0.24136
vt 0.56190 0.23656
vt 0.56602 0.23705
vt 0.56540 0.23403
vt 0.56185 0.23362
vt 0.54942 0.23664
vt 0.56458 0.23053
vt 0.56150 0.23844
vt 0.55024 0.23083
vt 0.54864 0.23363
vt 0.56625 0.23874
vt 0.52904 0.22779
vt 0.57202 0.23071
vt 0.53191 0.23453
vt 0.58598 0.22677
vt 0.58248 0.22712
vt 0.58266 0.22868
vt 0.58635 0.22897
vt 0.58408 0.22093
vt 0.58426 0.22376
vt 0.59227 0.22403
vt 0.59380 0.22021
vt 0.68316 0.22516
vt 0.67936 0.22921
vt 0.69060 0.22848
vt 0.69048 0.22642
vt 0.55938 0.22158
vt 0.56580 0.22444
vt 0.56562 0.22162
vt 0.68101 0.22463
vt 0.68388 0.22177
vt 0.66705 0.22468
vt 0.66890 0.22600
vt 0.66458 0.22104
vt 0.62037 0.22162
vt 0.60249 0.22446
vt 0.61820 0.22430
vt 0.64277 0.22173
vt 0.64240 0.22450
vt 0.56592 0.22626
vt 0.56530 0.22951
vt 0.57157 0.22928
vt 0.57189 0.22692
vt 0.58061 0.22128
vt 0.58086 0.22374
vt 0.68523 0.22393
vt 0.69063 0.22405
vt 0.56850 0.22418
vt 0.56830 0.22168
vt 0.67162 0.22664
vt 0.67981 0.22579
vt 0.61583 0.22585
vt 0.60414 0.22568
vt 0.60698 0.22687
vt 0.64505 0.22670
vt 0.64212 0.22564
vt 0.57581 0.22928
vt 0.57596 0.22701
vt 0.57749 0.22154
vt 0.57771 0.22376
vt 0.68788 0.22333
vt 0.69065 0.22312
vt 0.67452 0.22691
vt 0.67742 0.22665
vt 0.61031 0.22730
vt 0.61360 0.22689
vt 0.64180 0.22700
vt 0.63848 0.22680
vt 0.57886 0.22714
vt 0.57911 0.22913
vt 0.73791 0.22036
vt 0.73004 0.21697
vt 0.56835 0.24171
vt 0.56935 0.23902
vt 0.63391 0.22453
vt 0.63164 0.22195
vt 0.63646 0.22592
vt 0.50354 0.23164
vt 0.69677 0.22530
vt 0.69937 0.22781
vt 0.69567 0.22420
vt 0.69342 0.22339
vt 0.75049 0.22836
vt 0.73886 0.21998
vt 0.73791 0.22036
vt 0.74952 0.22875
vt 0.50354 0.23164
vt 0.52117 0.22143
vt 0.52022 0.22104
vt 0.50261 0.23127
vt 0.74522 0.24091
vt 0.72377 0.24091
vt 0.72697 0.24909
vt 0.74840 0.24909
vt 0.74517 0.24097
vt 0.74840 0.24905
vt 0.72689 0.24903
vt 0.72389 0.24097
vt 0.69153 0.15673
vt 0.68978 0.15938
vt 0.69412 0.15951
vt 0.69535 0.15707
vt 0.69852 0.15964
vt 0.70022 0.15732
vt 0.70349 0.15978
vt 0.70464 0.15744
vt 0.70834 0.15983
vt 0.70908 0.15750
vt 0.71316 0.15985
vt 0.71351 0.15754
vt 0.71798 0.15986
vt 0.71793 0.15757
vt 0.72285 0.15985
vt 0.72235 0.15750
vt 0.72754 0.15966
vt 0.72677 0.15743
vt 0.72956 0.15978
vt 0.73119 0.15739
vt 0.73251 0.15971
vt 0.73723 0.15960
vt 0.73551 0.15725
vt 0.74200 0.15944
vt 0.74035 0.15695
vt 0.74445 0.15654
vt 0.74682 0.15924
vt 0.69735 0.15411
vt 0.69330 0.15376
vt 0.70114 0.15424
vt 0.70519 0.15432
vt 0.70936 0.15436
vt 0.71361 0.15433
vt 0.71790 0.15427
vt 0.72220 0.15432
vt 0.72642 0.15431
vt 0.73054 0.15428
vt 0.73446 0.15418
vt 0.73813 0.15401
vt 0.74238 0.15356
vt 0.74625 0.15636
vt 0.71415 0.12899
vt 0.71413 0.12962
vt 0.72015 0.12962
vt 0.72017 0.12899
vt 0.71760 0.17226
vt 0.68279 0.17981
vt 0.68279 0.17711
vt 0.67869 0.17710
vt 0.67866 0.17979
vt 0.55001 0.20465
vt 0.54999 0.20531
vt 0.55496 0.20534
vt 0.55496 0.20468
vt 0.68274 0.17531
vt 0.68234 0.17155
vt 0.68106 0.17260
vt 0.67921 0.17534
vt 0.68271 0.18161
vt 0.67916 0.18158
vt 0.68104 0.18432
vt 0.68231 0.18536
vt 0.67906 0.17625
vt 0.68279 0.17627
vt 0.67904 0.18066
vt 0.68276 0.18064
vt 0.72165 0.16028
vt 0.72102 0.16093
vt 0.72105 0.16314
vt 0.72172 0.16106
vt 0.72177 0.16302
vt 0.72302 0.16230
vt 0.72302 0.16173
vt 0.72894 0.16392
vt 0.72674 0.16280
vt 0.72574 0.16309
vt 0.72347 0.16394
vt 0.72459 0.16309
vt 0.72360 0.16123
vt 0.72215 0.16049
vt 0.72360 0.16280
vt 0.72225 0.16360
vt 0.72337 0.16013
vt 0.72459 0.16094
vt 0.71992 0.15181
vt 0.71860 0.15181
vt 0.71855 0.15237
vt 0.72015 0.15237
vt 0.71703 0.15181
vt 0.71700 0.15237
vt 0.71550 0.15181
vt 0.71548 0.15237
vt 0.71415 0.15181
vt 0.71405 0.15237
vt 0.71276 0.15181
vt 0.71278 0.15237
vt 0.71143 0.15181
vt 0.71143 0.15237
vt 0.71011 0.15181
vt 0.71008 0.15237
vt 0.70878 0.15181
vt 0.70883 0.15237
vt 0.70764 0.15237
vt 0.70764 0.15181
vt 0.70659 0.15181
vt 0.70661 0.15237
vt 0.70569 0.15181
vt 0.70576 0.15237
vt 0.70484 0.15181
vt 0.70471 0.15237
vt 0.72574 0.16094
vt 0.72884 0.16009
vt 0.72674 0.16123
vt 0.72732 0.16230
vt 0.72732 0.16173
vt 0.73766 0.19730
vt 0.74248 0.19745
vt 0.73291 0.19719
vt 0.72971 0.16417
vt 0.70866 0.17234
vt 0.70399 0.17236
vt 0.69872 0.19743
vt 0.69435 0.19758
vt 0.69003 0.19774
vt 0.69208 0.20087
vt 0.69640 0.20042
vt 0.70069 0.20019
vt 0.70506 0.20004
vt 0.70364 0.19727
vt 0.70946 0.19995
vt 0.70854 0.19718
vt 0.71383 0.19989
vt 0.71338 0.19713
vt 0.71820 0.19710
vt 0.71823 0.19983
vt 0.72305 0.19708
vt 0.72262 0.19986
vt 0.72699 0.19989
vt 0.72792 0.19710
vt 0.74045 0.20039
vt 0.73566 0.20009
vt 0.74450 0.20079
vt 0.74735 0.19765
vt 0.69407 0.20393
vt 0.69807 0.20353
vt 0.70179 0.20335
vt 0.70574 0.20323
vt 0.70986 0.20318
vt 0.71403 0.20317
vt 0.71828 0.20321
vt 0.72250 0.20313
vt 0.72667 0.20312
vt 0.73136 0.19995
vt 0.73071 0.20316
vt 0.73461 0.20327
vt 0.73826 0.20343
vt 0.74243 0.20382
vt 0.74620 0.20087
vt 0.61031 0.12962
vt 0.61031 0.12899
vt 0.60396 0.12899
vt 0.60394 0.12962
vt 0.70876 0.18560
vt 0.71346 0.18560
vt 0.70409 0.18561
vt 0.70851 0.18038
vt 0.70796 0.17880
vt 0.70983 0.17581
vt 0.70841 0.17722
vt 0.71001 0.18179
vt 0.54977 0.19560
vt 0.54787 0.19694
vt 0.55269 0.19709
vt 0.62971 0.19560
vt 0.62739 0.19698
vt 0.63188 0.19694
vt 0.63885 0.19637
vt 0.63331 0.19108
vt 0.62100 0.15307
vt 0.61955 0.15303
vt 0.61955 0.15482
vt 0.62100 0.15486
vt 0.61955 0.15611
vt 0.62100 0.15611
vt 0.61955 0.15737
vt 0.62100 0.15737
vt 0.61955 0.15862
vt 0.62100 0.15862
vt 0.61955 0.15989
vt 0.62100 0.15988
vt 0.61955 0.16120
vt 0.62100 0.16120
vt 0.61955 0.16250
vt 0.62100 0.16251
vt 0.61955 0.16377
vt 0.62100 0.16377
vt 0.61955 0.16501
vt 0.62100 0.16501
vt 0.61955 0.16627
vt 0.62100 0.16627
vt 0.61955 0.16758
vt 0.62100 0.16757
vt 0.61955 0.16943
vt 0.62100 0.16973
vt 0.61955 0.17027
vt 0.62100 0.17028
vt 0.67747 0.19200
vt 0.67994 0.19200
vt 0.67991 0.19137
vt 0.67747 0.19137
vt 0.67494 0.19200
vt 0.67494 0.19137
vt 0.67235 0.19200
vt 0.67235 0.19137
vt 0.66975 0.19200
vt 0.66977 0.19137
vt 0.66708 0.19200
vt 0.66708 0.19137
vt 0.66428 0.19200
vt 0.66428 0.19137
vt 0.66143 0.19137
vt 0.66143 0.19200
vt 0.65856 0.19200
vt 0.65856 0.19137
vt 0.65571 0.19200
vt 0.65571 0.19137
vt 0.65296 0.19200
vt 0.65301 0.19137
vt 0.64907 0.19137
vt 0.64962 0.19200
vt 0.52372 0.16165
vt 0.52334 0.16070
vt 0.52004 0.16324
vt 0.52104 0.16490
vt 0.52761 0.16066
vt 0.52716 0.15951
vt 0.60221 0.15965
vt 0.60234 0.16080
vt 0.60656 0.16175
vt 0.60733 0.16080
vt 0.60968 0.16503
vt 0.61081 0.16334
vt 0.61670 0.16933
vt 0.61670 0.17147
vt 0.61782 0.17119
vt 0.61782 0.16941
vt 0.61782 0.16813
vt 0.61670 0.16807
vt 0.61782 0.16677
vt 0.61670 0.16671
vt 0.61782 0.16530
vt 0.61670 0.16525
vt 0.61782 0.16377
vt 0.61670 0.16375
vt 0.61782 0.16219
vt 0.61670 0.16219
vt 0.61782 0.16059
vt 0.61670 0.16060
vt 0.61782 0.15902
vt 0.61670 0.15907
vt 0.61782 0.15749
vt 0.61670 0.15755
vt 0.61782 0.15602
vt 0.61670 0.15609
vt 0.61782 0.15466
vt 0.61670 0.15473
vt 0.61782 0.15306
vt 0.61670 0.15303
vt 0.67879 0.19055
vt 0.67899 0.18981
vt 0.67587 0.18981
vt 0.67569 0.19055
vt 0.67267 0.18981
vt 0.67255 0.19055
vt 0.66947 0.18981
vt 0.66940 0.19055
vt 0.66635 0.18981
vt 0.66630 0.19055
vt 0.66320 0.18981
vt 0.66320 0.19055
vt 0.66021 0.18981
vt 0.66023 0.19055
vt 0.65743 0.18981
vt 0.65748 0.19055
vt 0.65494 0.18981
vt 0.65504 0.19055
vt 0.65251 0.18981
vt 0.65264 0.19055
vt 0.65009 0.18981
vt 0.65027 0.19055
vt 0.64650 0.18981
vt 0.64610 0.19055
vt 0.51989 0.16099
vt 0.52352 0.15852
vt 0.52087 0.15857
vt 0.51825 0.16108
vt 0.57699 0.12904
vt 0.57611 0.12904
vt 0.57611 0.12967
vt 0.57704 0.12967
vt 0.57769 0.12904
vt 0.57771 0.12967
vt 0.57831 0.12904
vt 0.57834 0.12967
vt 0.57896 0.12904
vt 0.57894 0.12967
vt 0.58116 0.12967
vt 0.58208 0.12967
vt 0.58196 0.12904
vt 0.58106 0.12904
vt 0.54617 0.19108
vt 0.54057 0.19659
vt 0.55319 0.20376
vt 0.55186 0.20375
vt 0.55069 0.20407
vt 0.55434 0.20410
vt 0.55064 0.20588
vt 0.55426 0.20592
vt 0.55179 0.20623
vt 0.55311 0.20624
vt 0.51837 0.16988
vt 0.51997 0.17020
vt 0.51875 0.16921
vt 0.52529 0.16595
vt 0.52152 0.16656
vt 0.61143 0.17033
vt 0.61275 0.16929
vt 0.61056 0.16668
vt 0.60611 0.16595
vt 0.61303 0.16998
vt 0.65506 0.19379
vt 0.65746 0.19379
vt 0.65743 0.19293
vt 0.65509 0.19293
vt 0.66001 0.19379
vt 0.65991 0.19293
vt 0.66258 0.19379
vt 0.66243 0.19293
vt 0.66490 0.19379
vt 0.66498 0.19293
vt 0.66755 0.19379
vt 0.66755 0.19293
vt 0.67020 0.19379
vt 0.67012 0.19293
vt 0.67255 0.19379
vt 0.67265 0.19293
vt 0.67507 0.19379
vt 0.67507 0.19293
vt 0.67752 0.19379
vt 0.67749 0.19293
vt 0.67984 0.19379
vt 0.67984 0.19293
vt 0.65234 0.18902
vt 0.65591 0.18902
vt 0.65584 0.18816
vt 0.65227 0.18816
vt 0.65823 0.18902
vt 0.65818 0.18816
vt 0.66066 0.18902
vt 0.66056 0.18816
vt 0.66303 0.18902
vt 0.66300 0.18816
vt 0.66558 0.18902
vt 0.66550 0.18816
vt 0.66797 0.18902
vt 0.66800 0.18816
vt 0.67052 0.18902
vt 0.67047 0.18816
vt 0.67292 0.18902
vt 0.67289 0.18816
vt 0.67537 0.18902
vt 0.67529 0.18816
vt 0.67739 0.18902
vt 0.67752 0.18816
vt 0.67964 0.18902
vt 0.67966 0.18816
vt 0.68284 0.18902
vt 0.68284 0.18816
vt 0.68476 0.18902
vt 0.68428 0.18816
vt 0.65189 0.19293
vt 0.65189 0.19379
vt 0.51989 0.16442
vt 0.51872 0.16355
vt 0.51832 0.16410
vt 0.61086 0.16456
vt 0.61185 0.16360
vt 0.61225 0.16425
vt 0.68261 0.19055
vt 0.68264 0.18981
vt 0.68298 0.19137
vt 0.68306 0.19200
vt 0.68308 0.19293
vt 0.68318 0.19379
vt 0.68885 0.15649
vt 0.68758 0.15920
vt 0.68758 0.19791
vt 0.68955 0.20120
vt 0.69183 0.20428
vt 0.69100 0.15343
vt 0.68496 0.19055
vt 0.68496 0.18981
vt 0.68498 0.19137
vt 0.68513 0.19200
vt 0.68516 0.19293
vt 0.68528 0.19379
vt 0.61782 0.15195
vt 0.61670 0.15193
vt 0.62100 0.15193
vt 0.61955 0.15193
vt 0.64989 0.18902
vt 0.64982 0.18816
vt 0.72322 0.19341
vt 0.72412 0.19343
vt 0.52079 0.21464
vt 0.52067 0.21586
vt 0.52142 0.21611
vt 0.52162 0.21444
vt 0.52032 0.21501
vt 0.52027 0.21546
vt 0.64812 0.19137
vt 0.64822 0.19200
vt 0.65044 0.19293
vt 0.65024 0.19379
vt 0.74867 0.15914
vt 0.70491 0.12899
vt 0.70489 0.12962
vt 0.70966 0.12962
vt 0.70963 0.12899
vt 0.74892 0.19773
vt 0.61847 0.12899
vt 0.61480 0.12899
vt 0.61480 0.12962
vt 0.61850 0.12962
vt 0.52794 0.15657
vt 0.52776 0.15727
vt 0.60254 0.15727
vt 0.60726 0.15883
vt 0.60691 0.15724
vt 0.60394 0.15657
vt 0.60374 0.16435
vt 0.52741 0.16432
vt 0.72534 0.19243
vt 0.58316 0.12967
vt 0.58303 0.12904
vt 0.58438 0.12967
vt 0.58431 0.12904
vt 0.58568 0.12967
vt 0.58558 0.12904
vt 0.57512 0.12904
vt 0.57499 0.12967
vt 0.72487 0.19323
vt 0.72532 0.19287
vt 0.57959 0.12967
vt 0.57964 0.12904
vt 0.58031 0.12904
vt 0.58036 0.12967
vt 0.72205 0.19236
vt 0.72205 0.19278
vt 0.72247 0.19317
vt 0.52367 0.21511
vt 0.52327 0.21471
vt 0.52312 0.21593
vt 0.52362 0.21556
vt 0.52232 0.21613
vt 0.52249 0.21446
vt 0.60763 0.16521
vt 0.52399 0.15722
vt 0.52446 0.16510
vt 0.60998 0.15862
vt 0.61173 0.16108
vt 0.61308 0.16115
usemtl pershing_hull_m5
s 1
f 3/3 2/2 1/1
f 3/3 1/1 4/4
f 4/4 1/1 5/5
f 4/4 5/5 6/6
f 7/7 4/4 6/6
f 1/1 8/8 5/5
f 11/11 10/10 9/9
f 11/11 9/9 12/12
f 14/14 13/13 10/10
f 14/14 10/10 11/11
f 15/15 14/14 11/11
f 10/10 13/13 16/16
f 19/19 18/18 17/17
f 19/19 17/17 20/20
f 23/23 22/22 21/21
f 23/23 21/21 24/24
f 22/22 23/23 25/25
f 22/22 25/25 26/26
f 22/22 26/26 27/27
f 22/22 27/27 28/28
f 22/22 28/28 29/29
f 33/33 32/32 31/31
f 39/39 38/38 31/31
f 39/39 31/31 32/32
f 42/42 41/41 40/40
f 43/43 41/41 42/42
f 43/43 42/42 44/44
f 47/47 46/46 45/45
f 47/47 45/45 42/42
f 47/47 42/42 48/48
f 24/24 45/45 46/46
f 24/24 46/46 49/49
f 38/38 47/47 48/48
f 38/38 48/48 50/50
f 42/42 40/40 48/48
f 24/24 49/49 23/23
f 50/50 37/37 35/35
f 50/50 35/35 36/36
f 39/39 20/20 17/17
f 39/39 17/17 46/46
f 20/20 39/39 32/32
f 44/44 42/42 21/21
f 44/44 21/21 51/51
f 59/59 58/58 57/57
f 59/59 57/57 60/60
f 59/59 60/60 61/61
f 61/61 60/60 62/62
f 60/60 57/57 63/63
f 60/60 63/63 64/64
f 60/60 64/64 65/65
f 60/60 65/65 62/62
f 68/68 67/67 66/66
f 68/68 66/66 69/69
f 70/70 71/71 72/72
f 70/70 72/72 73/73
f 75/75 74/74 52/52
f 75/75 52/52 53/53
f 75/75 53/53 76/76
f 79/79 78/78 77/77
f 80/80 79/79 77/77
f 80/80 77/77 81/81
f 82/82 79/79 80/80
f 82/82 80/80 61/61
f 76/76 53/53 81/81
f 76/76 81/81 83/83
f 84/84 61/61 80/80
f 84/84 80/80 85/85
f 80/80 81/81 85/85
f 81/81 77/77 83/83
f 86/86 75/75 76/76
f 86/86 76/76 83/83
f 87/87 84/84 85/85
f 79/79 56/56 55/55
f 56/56 79/79 82/82
f 56/56 82/82 88/88
f 54/54 89/89 81/81
f 89/89 87/87 85/85
f 89/89 85/85 81/81
f 92/92 91/91 90/90
f 92/92 90/90 93/93
f 96/96 95/95 94/94
f 96/96 94/94 97/97
f 100/100 99/99 98/98
f 100/100 98/98 101/101
f 103/103 102/102 104/104
f 107/107 106/106 105/105
f 107/107 105/105 108/108
f 106/106 107/107 109/109
f 111/111 110/110 112/112
f 117/117 116/116 115/115
f 117/117 115/115 118/118
f 95/95 120/120 119/119
f 95/95 119/119 94/94
f 101/101 98/98 121/121
f 101/101 121/121 122/122
f 123/123 103/103 104/104
f 123/123 104/104 124/124
f 105/105 126/126 125/125
f 105/105 125/125 108/108
f 111/111 112/112 127/127
f 128/128 111/111 127/127
f 128/128 127/127 129/129
f 114/114 130/130 131/131
f 118/118 133/133 132/132
f 118/118 132/132 117/117
f 120/120 135/135 134/134
f 120/120 134/134 119/119
f 122/122 121/121 136/136
f 122/122 136/136 137/137
f 68/68 123/123 124/124
f 68/68 124/124 67/67
f 126/126 139/139 138/138
f 126/126 138/138 125/125
f 127/127 141/141 140/140
f 127/127 140/140 129/129
f 131/131 130/130 142/142
f 131/131 142/142 143/143
f 132/132 133/133 144/144
f 132/132 144/144 145/145
f 144/144 91/91 92/92
f 144/144 92/92 145/145
f 134/134 135/135 69/69
f 134/134 69/69 66/66
f 20/20 30/30 19/19
f 146/146 51/51 21/21
f 146/146 21/21 29/29
f 29/29 21/21 22/22
f 29/29 28/28 147/147
f 29/29 147/147 146/146
f 21/21 42/42 45/45
f 21/21 45/45 24/24
f 40/40 41/41 37/37
f 40/40 37/37 48/48
f 37/37 50/50 48/48
f 39/39 46/46 47/47
f 39/39 47/47 38/38
f 17/17 49/49 46/46
f 18/18 49/49 17/17
f 148/148 74/74 75/75
f 148/148 75/75 86/86
f 86/86 149/149 148/148
f 113/113 114/114 150/150
f 113/113 150/150 151/151
f 152/152 114/114 131/131
f 152/152 131/131 143/143
f 114/114 152/152 150/150
f 73/73 72/72 78/78
f 73/73 78/78 79/79
f 73/73 79/79 55/55
f 58/58 59/59 87/87
f 58/58 87/87 153/153
f 89/89 153/153 87/87
f 84/84 87/87 59/59
f 84/84 59/59 61/61
f 38/38 50/50 36/36
f 38/38 36/36 31/31
f 36/36 34/34 31/31
f 71/71 149/149 72/72
f 149/149 86/86 78/78
f 149/149 78/78 72/72
f 78/78 86/86 83/83
f 78/78 83/83 77/77
f 100/100 101/101 154/154
f 100/100 154/154 155/155
f 154/154 101/101 122/122
f 156/156 154/154 122/122
f 156/156 122/122 157/157
f 157/157 122/122 137/137
f 160/160 159/159 158/158
f 160/160 158/158 161/161
f 164/164 163/163 162/162
f 164/164 162/162 165/165
f 168/168 167/167 166/166
f 168/168 166/166 169/169
f 172/172 171/171 170/170
f 172/172 170/170 173/173
f 176/176 175/175 174/174
f 176/176 174/174 177/177
f 178/178 176/176 177/177
f 178/178 177/177 179/179
f 180/180 178/178 179/179
f 180/180 179/179 181/181
f 182/182 180/180 181/181
f 182/182 181/181 183/183
f 184/184 182/182 183/183
f 184/184 183/183 185/185
f 186/186 184/184 185/185
f 186/186 185/185 187/187
f 189/189 188/188 186/186
f 189/189 186/186 187/187
f 191/191 190/190 188/188
f 191/191 188/188 189/189
f 191/191 193/193 192/192
f 191/191 192/192 190/190
f 193/193 194/194 192/192
f 196/196 195/195 194/194
f 196/196 194/194 193/193
f 198/198 197/197 195/195
f 198/198 195/195 196/196
f 197/197 198/198 199/199
f 197/197 199/199 200/200
f 201/201 177/177 174/174
f 201/201 174/174 202/202
f 203/203 179/179 177/177
f 203/203 177/177 201/201
f 204/204 181/181 179/179
f 204/204 179/179 203/203
f 205/205 183/183 181/181
f 205/205 181/181 204/204
f 206/206 185/185 183/183
f 206/206 183/183 205/205
f 207/207 187/187 185/185
f 207/207 185/185 206/206
f 189/189 187/187 207/207
f 189/189 207/207 208/208
f 191/191 189/189 208/208
f 191/191 208/208 209/209
f 193/193 191/191 209/209
f 193/193 209/209 210/210
f 196/196 193/193 210/210
f 196/196 210/210 211/211
f 198/198 196/196 211/211
f 198/198 211/211 212/212
f 199/199 198/198 212/212
f 199/199 212/212 213/213
f 214/214 199/199 213/213
f 217/217 216/216 215/215
f 217/217 215/215 218/218
f 222/222 221/221 220/220
f 222/222 220/220 223/223
f 226/226 225/225 224/224
f 226/226 224/224 227/227
f 230/230 229/229 228/228
f 230/230 228/228 231/231
f 234/234 233/233 232/232
f 234/234 232/232 235/235
f 221/221 222/222 236/236
f 221/221 236/236 237/237
f 238/238 223/223 220/220
f 238/238 220/220 239/239
f 237/237 236/236 231/231
f 237/237 231/231 228/228
f 233/233 238/238 239/239
f 233/233 239/239 232/232
f 241/241 186/186 240/240
f 242/242 186/186 241/241
f 240/240 186/186 188/188
f 245/245 244/244 243/243
f 245/245 243/243 246/246
f 249/249 248/248 247/247
f 249/249 247/247 250/250
f 249/249 250/250 251/251
f 243/243 253/253 252/252
f 243/243 252/252 246/246
f 250/250 255/255 254/254
f 250/250 254/254 251/251
f 252/252 253/253 256/256
f 252/252 256/256 257/257
f 254/254 255/255 244/244
f 254/254 244/244 245/245
f 260/260 259/259 258/258
f 260/260 258/258 261/261
f 263/263 262/262 259/259
f 263/263 259/259 260/260
f 265/265 264/264 262/262
f 265/265 262/262 263/263
f 267/267 266/266 264/264
f 267/267 264/264 265/265
f 269/269 268/268 266/266
f 269/269 266/266 267/267
f 271/271 270/270 268/268
f 271/271 268/268 269/269
f 272/272 270/270 271/271
f 272/272 271/271 273/273
f 274/274 272/272 273/273
f 274/274 273/273 275/275
f 278/278 277/277 276/276
f 278/278 276/276 279/279
f 280/280 278/278 279/279
f 280/280 279/279 281/281
f 282/282 280/280 281/281
f 282/282 281/281 283/283
f 277/277 274/274 275/275
f 277/277 275/275 276/276
f 256/256 285/285 284/284
f 256/256 284/284 257/257
f 284/284 285/285 286/286
f 287/287 247/247 248/248
f 286/286 285/285 288/288
f 285/285 247/247 287/287
f 285/285 287/287 288/288
f 192/192 194/194 292/292
f 293/293 182/182 184/184
f 294/294 180/180 182/182
f 294/294 182/182 293/293
f 178/178 180/180 294/294
f 178/178 294/294 295/295
f 295/295 296/296 176/176
f 295/295 176/176 178/178
f 298/298 297/297 296/296
f 298/298 296/296 299/299
f 295/295 300/300 299/299
f 295/295 299/299 296/296
f 302/302 301/301 300/300
f 302/302 300/300 295/295
f 304/304 303/303 301/301
f 304/304 301/301 302/302
f 306/306 305/305 303/303
f 306/306 303/303 304/304
f 305/305 306/306 307/307
f 305/305 307/307 308/308
f 311/311 310/310 309/309
f 311/311 309/309 312/312
f 289/289 290/290 313/313
f 289/289 313/313 314/314
f 315/315 313/313 290/290
f 315/315 290/290 316/316
f 318/318 317/317 298/298
f 318/318 298/298 299/299
f 319/319 318/318 299/299
f 319/319 299/299 300/300
f 320/320 319/319 300/300
f 320/320 300/300 301/301
f 321/321 320/320 301/301
f 321/321 301/301 303/303
f 322/322 321/321 303/303
f 322/322 303/303 305/305
f 323/323 322/322 305/305
f 323/323 305/305 308/308
f 323/323 308/308 310/310
f 323/323 310/310 324/324
f 324/324 310/310 311/311
f 324/324 311/311 325/325
f 325/325 311/311 326/326
f 325/325 326/326 327/327
f 327/327 326/326 314/314
f 327/327 314/314 328/328
f 328/328 314/314 313/313
f 328/328 313/313 329/329
f 329/329 313/313 315/315
f 329/329 315/315 330/330
f 330/330 315/315 331/331
f 334/334 333/333 332/332
f 334/334 332/332 335/335
f 306/306 304/304 336/336
f 304/304 302/302 338/338
f 304/304 338/338 336/336
f 338/338 340/340 339/339
f 294/294 293/293 341/341
f 294/294 341/341 342/342
f 338/338 339/339 343/343
f 346/346 345/345 344/344
f 346/346 344/344 347/347
f 346/346 347/347 348/348
f 348/348 347/347 349/349
f 350/350 349/349 347/347
f 350/350 347/347 351/351
f 184/184 186/186 219/219
f 338/338 302/302 295/295
f 338/338 295/295 294/294
f 294/294 342/342 340/340
f 294/294 340/340 338/338
f 354/354 353/353 352/352
f 354/354 352/352 355/355
f 357/357 356/356 354/354
f 357/357 354/354 355/355
f 359/359 358/358 356/356
f 359/359 356/356 357/357
f 361/361 360/360 358/358
f 361/361 358/358 359/359
f 363/363 362/362 360/360
f 363/363 360/360 361/361
f 365/365 364/364 362/362
f 365/365 362/362 363/363
f 367/367 366/366 364/364
f 367/367 364/364 365/365
f 369/369 368/368 366/366
f 369/369 366/366 367/367
f 371/371 370/370 368/368
f 371/371 368/368 369/369
f 373/373 372/372 370/370
f 373/373 370/370 371/371
f 375/375 374/374 372/372
f 375/375 372/372 373/373
f 376/376 374/374 375/375
f 376/376 375/375 377/377
f 378/378 376/376 377/377
f 378/378 377/377 379/379
f 382/382 381/381 380/380
f 382/382 380/380 383/383
f 383/383 380/380 384/384
f 383/383 384/384 385/385
f 385/385 384/384 386/386
f 385/385 386/386 387/387
f 387/387 386/386 388/388
f 387/387 388/388 389/389
f 389/389 388/388 390/390
f 389/389 390/390 391/391
f 391/391 390/390 392/392
f 391/391 392/392 393/393
f 394/394 393/393 392/392
f 394/394 392/392 395/395
f 394/394 395/395 396/396
f 394/394 396/396 397/397
f 397/397 396/396 398/398
f 397/397 398/398 399/399
f 399/399 398/398 400/400
f 399/399 400/400 401/401
f 403/403 402/402 401/401
f 403/403 401/401 400/400
f 406/406 405/405 404/404
f 406/406 404/404 407/407
f 408/408 404/404 405/405
f 408/408 405/405 409/409
f 408/408 409/409 410/410
f 408/408 410/410 411/411
f 413/413 412/412 411/411
f 413/413 411/411 410/410
f 415/415 414/414 412/412
f 415/415 412/412 413/413
f 418/418 417/417 416/416
f 418/418 416/416 419/419
f 420/420 419/419 416/416
f 420/420 416/416 421/421
f 422/422 420/420 421/421
f 422/422 421/421 423/423
f 424/424 422/422 423/423
f 424/424 423/423 425/425
f 426/426 424/424 425/425
f 426/426 425/425 427/427
f 428/428 426/426 427/427
f 428/428 427/427 429/429
f 431/431 430/430 428/428
f 431/431 428/428 429/429
f 433/433 432/432 430/430
f 433/433 430/430 431/431
f 435/435 434/434 432/432
f 435/435 432/432 433/433
f 437/437 436/436 434/434
f 437/437 434/434 435/435
f 439/439 438/438 436/436
f 439/439 436/436 437/437
f 441/441 440/440 438/438
f 441/441 438/438 439/439
f 444/444 443/443 442/442
f 444/444 442/442 445/445
f 446/446 444/444 445/445
f 446/446 445/445 447/447
f 448/448 446/446 447/447
f 448/448 447/447 449/449
f 450/450 448/448 449/449
f 450/450 449/449 451/451
f 452/452 450/450 451/451
f 452/452 451/451 453/453
f 455/455 454/454 452/452
f 455/455 452/452 453/453
f 457/457 456/456 454/454
f 457/457 454/454 455/455
f 459/459 458/458 456/456
f 459/459 456/456 457/457
f 461/461 460/460 458/458
f 461/461 458/458 459/459
f 463/463 462/462 460/460
f 463/463 460/460 461/461
f 464/464 462/462 463/463
f 464/464 463/463 465/465
f 468/468 467/467 466/466
f 468/468 466/466 469/469
f 472/472 471/471 470/470
f 472/472 470/470 473/473
f 473/473 470/470 474/474
f 475/475 474/474 476/476
f 475/475 476/476 477/477
f 477/477 476/476 478/478
f 477/477 478/478 479/479
f 482/482 481/481 480/480
f 482/482 480/480 483/483
f 485/485 484/484 344/344
f 485/485 344/344 345/345
f 484/484 351/351 347/347
f 484/484 347/347 344/344
f 488/488 487/487 486/486
f 488/488 486/486 489/489
f 224/224 488/488 489/489
f 224/224 489/489 227/227
f 226/226 491/491 490/490
f 226/226 490/490 225/225
f 491/491 493/493 492/492
f 491/491 492/492 490/490
f 496/496 495/495 494/494
f 498/498 497/497 495/495
f 498/498 495/495 496/496
f 501/501 500/500 499/499
f 501/501 499/499 502/502
f 503/503 499/499 500/500
f 506/506 505/505 504/504
f 506/506 504/504 507/507
f 509/509 508/508 505/505
f 509/509 505/505 506/506
f 511/511 510/510 508/508
f 511/511 508/508 509/509
f 513/513 512/512 510/510
f 513/513 510/510 511/511
f 514/514 512/512 513/513
f 514/514 513/513 515/515
f 517/517 516/516 514/514
f 517/517 514/514 515/515
f 518/518 516/516 517/517
f 518/518 517/517 519/519
f 520/520 518/518 519/519
f 520/520 519/519 521/521
f 523/523 522/522 520/520
f 523/523 520/520 521/521
f 524/524 522/522 523/523
f 524/524 523/523 525/525
f 528/528 527/527 526/526
f 528/528 526/526 529/529
f 531/531 530/530 527/527
f 531/531 527/527 528/528
f 533/533 532/532 530/530
f 533/533 530/530 531/531
f 535/535 534/534 532/532
f 535/535 532/532 533/533
f 537/537 536/536 534/534
f 537/537 534/534 535/535
f 539/539 538/538 536/536
f 539/539 536/536 537/537
f 541/541 540/540 538/538
f 541/541 538/538 539/539
f 543/543 542/542 540/540
f 543/543 540/540 541/541
f 545/545 544/544 542/542
f 545/545 542/542 543/543
f 546/546 544/544 545/545
f 546/546 545/545 547/547
f 548/548 546/546 547/547
f 548/548 547/547 549/549
f 550/550 548/548 549/549
f 550/550 549/549 551/551
f 553/553 552/552 550/550
f 553/553 550/550 551/551
f 504/504 555/555 554/554
f 504/504 554/554 507/507
f 406/406 407/407 556/556
f 557/557 406/406 556/556
f 557/557 556/556 558/558
f 559/559 414/414 415/415
f 559/559 415/415 560/560
f 559/559 560/560 561/561
f 443/443 563/563 562/562
f 443/443 562/562 442/442
f 381/381 382/382 564/564
f 381/381 564/564 565/565
f 524/524 525/525 566/566
f 524/524 566/566 567/567
f 569/569 568/568 174/174
f 569/569 174/174 175/175
f 570/570 569/569 175/175
f 570/570 175/175 297/297
f 298/298 571/571 570/570
f 298/298 570/570 297/297
f 571/571 298/298 317/317
f 571/571 317/317 572/572
f 202/202 174/174 568/568
f 202/202 568/568 573/573
f 574/574 562/562 563/563
f 574/574 563/563 575/575
f 565/565 564/564 576/576
f 565/565 576/576 577/577
f 567/567 566/566 578/578
f 567/567 578/578 579/579
f 580/580 440/440 441/441
f 580/580 441/441 581/581
f 582/582 352/352 353/353
f 582/582 353/353 583/583
f 529/529 526/526 584/584
f 529/529 584/584 585/585
f 587/587 309/309 586/586
f 590/590 589/589 588/588
f 590/590 588/588 591/591
f 589/589 593/593 592/592
f 589/589 592/592 588/588
f 595/595 594/594 402/402
f 595/595 402/402 403/403
f 596/596 554/554 555/555
f 596/596 555/555 597/597
f 214/214 598/598 200/200
f 214/214 200/200 199/199
f 601/601 600/600 599/599
f 601/601 599/599 602/602
f 316/316 603/603 331/331
f 316/316 331/331 315/315
f 606/606 605/605 604/604
f 606/606 604/604 607/607
f 612/612 611/611 610/610
f 612/612 610/610 613/613
f 312/312 291/291 326/326
f 312/312 326/326 311/311
f 291/291 289/289 314/314
f 291/291 314/314 326/326
f 291/291 312/312 616/616
f 618/618 617/617 481/481
f 618/618 481/481 482/482
f 620/620 619/619 617/617
f 620/620 617/617 618/618
f 620/620 622/622 621/621
f 620/620 621/621 619/619
f 623/623 471/471 472/472
f 623/623 472/472 624/624
f 587/587 625/625 312/312
f 587/587 312/312 309/309
f 312/312 625/625 626/626
f 616/616 312/312 626/626
f 307/307 309/309 310/310
f 307/307 310/310 308/308
f 307/307 306/306 337/337
f 478/478 628/628 627/627
f 478/478 627/627 479/479
f 627/627 628/628 629/629
f 627/627 629/629 630/630
f 483/483 480/480 630/630
f 483/483 630/630 629/629
f 307/307 631/631 632/632
f 633/633 586/586 309/309
f 307/307 632/632 633/633
f 309/309 307/307 633/633
f 636/636 635/635 634/634
f 636/636 634/634 637/637
f 638/638 590/590 591/591
f 638/638 591/591 639/639
f 639/639 635/635 636/636
f 639/639 636/636 638/638
f 296/296 297/297 175/175
f 296/296 175/175 176/176
f 640/640 502/502 614/614
f 609/609 467/467 641/641
f 609/609 641/641 608/608
f 497/497 642/642 615/615
f 644/644 611/611 643/643
f 644/644 643/643 645/645
f 216/216 601/601 602/602
f 216/216 602/602 215/215
f 605/605 606/606 332/332
f 605/605 332/332 333/333
f 502/502 640/640 501/501
f 468/468 641/641 467/467
f 498/498 642/642 497/497
f 611/611 612/612 643/643
