mtllib pershing_hull_m2.mtl
o pershing_hull_m2
v -0.29453 0.02784 1.65309
v -0.59229 0.15337 1.60836
v -0.02221 0.02784 1.69213
v -0.68867 0.11556 1.45071
v -0.68867 0.23418 1.54115
v -0.54460 0.02784 1.53843
v -0.75292 0.02784 1.35829
v -0.75193 0.02784 0.09258
v 0.53527 0.15337 1.55770
v 0.50018 0.02784 1.50433
v 0.24936 0.02784 1.65309
v 0.72011 0.10370 1.41685
v 0.64524 0.18846 1.48085
v 0.72308 0.12322 1.41957
v 0.93411 0.02784 0.58878
v 0.93411 0.02784 0.86406
v 0.85726 0.02784 1.12773
v 0.70850 0.02784 1.35927
v 0.70850 0.02784 0.09357
v -0.68867 0.21169 1.67162
v 0.64524 0.21169 1.67162
v 0.64524 0.24085 1.79617
v 0.64524 0.54652 1.46355
v 0.64524 0.21169 1.67162
v 0.64524 0.66810 1.78554
v 0.64524 0.18846 1.48085
v 0.72604 0.52404 1.39041
v 0.72308 0.12322 1.41957
v -0.29354 -0.02183 -0.20123
v -0.54460 0.02784 -0.08731
v -0.54460 -0.02183 -0.08731
v -0.29354 0.02784 -0.20123
v -0.54460 -0.02183 -0.08731
v -0.75193 -0.02183 0.09258
v -0.90069 0.02784 0.32413
v -0.90069 -0.02183 0.32413
v -0.97853 0.02784 0.58779
v -0.97853 -0.02183 0.58779
v -0.97853 0.02784 0.86308
v -0.97853 -0.02183 0.86308
v -0.90168 0.02784 1.12674
v -0.90168 -0.02183 1.12674
v -0.75292 0.02784 1.35829
v -0.75292 -0.02183 1.35829
v -0.54460 -0.02183 1.53843
v -0.75292 -0.02183 1.35829
v -0.29453 -0.02183 1.65309
v -0.02221 -0.02183 1.69213
v 0.24936 -0.02183 1.65309
v 0.50018 -0.02183 1.53942
v 0.70850 -0.02183 1.35927
v 0.85726 -0.02183 1.12773
v 0.70850 -0.02183 1.35927
v 0.93411 -0.02183 0.86406
v 0.93411 -0.02183 0.58878
v 0.85726 -0.02183 0.32512
v 0.85726 0.02784 0.32512
v 0.70850 -0.02183 0.09357
v 0.50117 -0.02183 -0.08731
v 0.50117 -0.02183 -0.08731
v 0.25011 0.02784 -0.20123
v 0.25011 -0.02183 -0.20123
v -0.02122 0.02784 -0.24003
v -0.02122 -0.02183 -0.24003
v 0.64524 0.18846 1.48085
v 0.64524 0.54652 1.46355
v -0.68867 0.11556 1.45071
v -0.68867 0.71678 1.37287
v 0.64524 0.68565 1.47418
v 0.64524 0.57865 1.88167
v 0.64524 0.31696 1.86338
v 0.64524 0.41803 1.88957
v -0.68867 0.24085 1.79617
v -0.68867 0.41803 1.88957
v -0.68867 0.31696 1.86338
v -0.68867 0.57865 1.88167
v -0.68867 0.21169 1.67162
v -0.68867 0.66810 1.78554
v -0.68867 0.23418 1.54115
v -0.68867 0.68565 1.47986
v 0.74260 0.18352 1.42945
v 0.74260 0.52404 1.37114
v 0.74260 0.18352 1.38744
v 0.74260 0.53565 1.40400
v 0.74260 0.18352 1.42945
v 0.71245 0.18352 1.41191
v 0.70158 0.18352 1.42945
v 0.74260 0.18352 1.38744
v 0.70751 0.53565 1.40400
v 0.74260 0.18352 1.42945
v 0.70158 0.18352 1.42945
v 0.74260 0.53565 1.40400
v 1.13649 0.50748 1.12674
v 1.11895 0.59891 1.24363
v 1.07916 0.41506 1.22015
v 1.10437 0.38393 1.12477
v 1.07916 0.41506 1.22015
v 0.89235 0.59891 1.19495
v 1.09275 0.42766 1.22410
v 0.90001 0.59891 1.17444
v 1.09078 0.42766 1.20162
v 1.11895 0.39653 1.12674
v 1.09275 0.42766 1.22410
v 0.89235 0.59891 1.19495
v 1.10338 0.59990 1.21719
v 1.11895 0.59891 1.24363
v 1.08583 0.41902 1.20261
v 1.10239 0.39949 1.12402
v 1.10239 0.39949 1.12402
v 1.10437 0.38393 1.12477
v 1.13649 0.50748 1.12674
v 1.11030 0.40641 1.12674
v 1.11895 0.39653 1.12674
v 1.12389 0.50847 1.12575
v 1.09078 0.42766 1.20162
v 1.12389 0.50847 1.12575
v 1.10338 0.59990 1.21719
v 1.11030 0.40641 1.12674
v 1.10338 0.59990 1.21719
v 1.11895 0.59891 1.24363
v -1.04080 0.32956 1.23102
v -1.02128 0.32264 1.20359
v -1.04080 0.32956 1.20359
v -1.02128 0.32264 1.23102
v -0.96197 0.39480 1.23102
v -1.00003 0.36267 1.23102
v -1.00472 0.37528 1.23102
v -0.96691 0.31696 1.23102
v -1.00472 0.34884 1.23102
v -1.02128 0.32264 1.23102
v -1.01831 0.34315 1.23102
v -1.04080 0.32956 1.23102
v -1.03116 0.34884 1.23102
v -1.05340 0.34513 1.23102
v -1.03685 0.36267 1.23102
v -1.05835 0.36440 1.23102
v -1.05143 0.38393 1.23102
v -1.03116 0.37528 1.23102
v -1.03685 0.39752 1.23102
v -1.01831 0.38096 1.23102
v -1.01634 0.40147 1.23102
v -0.96691 0.31696 1.23102
v -1.03685 0.39752 1.23102
v -1.01634 0.40147 1.20359
v -1.01634 0.40147 1.23102
v -1.03685 0.39752 1.20359
v -1.05340 0.34513 1.23102
v -1.05340 0.34513 1.20359
v -1.01634 0.40147 1.20359
v -1.01831 0.38096 1.20359
v -1.03685 0.39752 1.20359
v -1.03116 0.37528 1.20359
v -1.05143 0.38393 1.20359
v -1.03685 0.36267 1.20359
v -1.05835 0.36440 1.20359
v -1.05340 0.34513 1.20359
v -1.03116 0.34884 1.20359
v -1.04080 0.32956 1.20359
v -1.01831 0.34315 1.20359
v -1.02128 0.32264 1.20359
v -1.05143 0.38393 1.20359
v -1.05143 0.38393 1.23102
v -0.96197 0.39480 1.23102
v -0.96691 0.31696 1.26587
v -0.96197 0.39480 1.23102
v -0.96197 0.39480 1.26587
v -0.96691 0.31696 1.26587
v -0.91527 0.31399 1.28341
v -1.05835 0.36440 1.20359
v -1.05835 0.36440 1.23102
v -0.96691 0.31696 1.26587
v -1.00003 0.36267 1.26587
v -1.00472 0.34884 1.26587
v -0.96197 0.39480 1.26587
v -1.00472 0.37528 1.26587
v -1.01634 0.40147 1.26587
v -1.01831 0.38096 1.26587
v -1.03685 0.39752 1.26587
v -1.03116 0.37528 1.26587
v -1.05143 0.38393 1.26587
v -1.03685 0.36267 1.26587
v -1.05835 0.36440 1.26587
v -1.05340 0.34513 1.26587
v -1.03116 0.34884 1.26587
v -1.04080 0.32956 1.26587
v -1.01831 0.34315 1.26587
v -1.02128 0.32264 1.26587
v -0.96197 0.39480 1.23102
v -0.95135 0.39381 1.27946
v -0.96197 0.39480 1.26587
v -0.96098 0.31597 1.29231
v -0.96197 0.39480 1.26587
v -0.95135 0.39381 1.27946
v -0.95604 0.39381 1.29231
v -1.02128 0.32264 1.29231
v -0.96691 0.31696 1.26587
v -1.02128 0.32264 1.26587
v -0.96098 0.31597 1.29231
v -1.01634 0.40147 1.29231
v -1.01634 0.40147 1.26587
v -0.95604 0.39381 1.29231
v -0.91527 0.31399 1.28341
v -0.96098 0.31597 1.29231
v -0.91131 0.39381 1.28341
v -0.95901 0.32758 1.21348
v -0.95135 0.39381 1.27946
v -0.95901 0.32758 1.28045
v -1.03685 0.39752 1.29231
v -1.03685 0.39752 1.26587
v -1.04080 0.32956 1.29231
v -1.04080 0.32956 1.26587
v -1.00003 0.36267 1.29231
v -1.00472 0.34884 1.29231
v -1.00472 0.37528 1.29231
v -1.01634 0.40147 1.29231
v -1.01831 0.38096 1.29231
v -1.03685 0.39752 1.29231
v -1.03116 0.37528 1.29231
v -1.05143 0.38393 1.29231
v -1.03685 0.36267 1.29231
v -1.05835 0.36440 1.29231
v -1.05340 0.34513 1.29231
v -1.03116 0.34884 1.29231
v -1.04080 0.32956 1.29231
v -1.01831 0.34315 1.29231
v -1.02128 0.32264 1.29231
v -0.91131 0.39381 1.28341
v -0.91329 0.39381 1.27377
v -0.95135 0.39381 1.27946
v -0.91922 0.32561 1.27377
v -0.91329 0.39381 1.27377
v -0.95901 0.32758 1.28045
v -1.05143 0.38393 1.26587
v -1.05143 0.38393 1.29231
v -1.05340 0.34513 1.29231
v -1.05340 0.34513 1.26587
v -1.05835 0.36440 1.26587
v -1.05835 0.36440 1.29231
v -1.00472 0.37528 1.29231
v -1.01831 0.38096 1.26587
v -1.01831 0.38096 1.29231
v -1.00472 0.37528 1.26587
v -1.03116 0.37528 1.29231
v -1.03116 0.37528 1.26587
v -1.00003 0.36267 1.29231
v -1.00472 0.37528 1.26587
v -1.00472 0.37528 1.29231
v -1.00003 0.36267 1.26587
v -1.03685 0.36267 1.29231
v -1.03685 0.36267 1.26587
v -1.00472 0.34884 1.26587
v -1.00472 0.34884 1.29231
v -1.03116 0.34884 1.29231
v -1.03116 0.34884 1.26587
v -1.01831 0.34315 1.26587
v -1.01831 0.34315 1.29231
v -1.00472 0.37528 1.23102
v -1.01831 0.38096 1.20359
v -1.01831 0.38096 1.23102
v -1.00472 0.37528 1.20359
v -1.03116 0.37528 1.23102
v -1.03116 0.37528 1.20359
v -1.00003 0.36267 1.23102
v -1.00472 0.37528 1.20359
v -1.00472 0.37528 1.23102
v -1.03685 0.36267 1.23102
v -1.03685 0.36267 1.20359
v -1.00472 0.34884 1.20359
v -1.00472 0.34884 1.23102
v -1.03116 0.34884 1.23102
v -1.03116 0.34884 1.20359
v -1.01831 0.34315 1.20359
v -1.01831 0.34315 1.23102
v -1.35883 0.54554 0.80673
v -1.36674 0.49093 0.79512
v -1.31608 0.50452 0.87691
v -1.30348 0.44224 0.86999
v -1.36476 0.45213 0.77066
v -1.35513 0.44916 0.81538
v -1.34425 0.50649 0.81464
v -1.36476 0.48228 0.81736
v -1.37638 0.48326 0.77758
v -1.35611 0.50279 0.77164
v 1.12587 0.59422 1.27946
v 1.11994 0.54059 1.29231
v 1.12290 0.58334 1.29404
v 1.26499 0.58137 1.06076
v 1.25338 0.55517 1.06348
v 1.24349 0.57470 1.11612
v 1.27166 0.55715 1.02469
v 1.14909 0.72840 1.05483
v 1.14440 0.68367 1.17839
v 1.12883 0.67478 1.20854
v 1.16367 0.72148 1.04693
v 1.21631 0.52404 1.00714
v 1.20272 0.54356 0.99355
v 1.10041 0.68169 1.17444
v 1.04308 0.70023 1.17839
v 1.06656 0.70789 1.14626
v 1.05297 0.67972 1.21249
v 1.11697 0.71184 1.08597
v 1.18814 0.63894 1.14132
v 1.16862 0.66909 1.10450
v 1.19975 0.63400 1.10055
v 1.16565 0.66415 1.16183
v 1.31639 0.56407 0.84084
v 1.23385 0.54850 1.07806
v 1.22298 0.56876 1.14330
v 1.14539 0.58631 1.20088
v 1.10931 0.59891 1.23967
v 1.14341 0.55221 1.26389
v 1.13748 0.60583 1.15986
v 1.20469 0.57470 1.19396
v 1.19679 0.57371 1.18234
v 0.96920 0.57964 1.27575
v 0.96524 0.58038 1.29898
v 1.00799 0.58137 1.28341
v 0.99070 0.55913 1.26982
v 0.96722 0.55913 1.26488
v 1.28155 0.59125 0.97205
v 1.24547 0.60188 1.11809
v 1.28056 0.57173 0.99454
v 1.10239 0.59891 1.31059
v 1.04506 0.65352 1.26685
v 1.11326 0.63104 1.28736
v 1.01887 0.63499 1.28341
v 1.11697 0.60979 1.29231
v 1.12488 0.56209 1.31554
v 1.17554 0.59694 1.05780
v 1.04308 0.53862 1.32517
v 1.09275 0.52008 1.32147
v 1.05964 0.48326 1.32814
v 1.02084 0.52404 1.32443
v 0.98872 0.55715 1.31850
v 1.12587 0.52503 1.30960
v 1.12784 0.54554 1.30392
v 0.98872 0.67379 1.23004
v 1.00997 0.66118 1.24931
v 0.98575 0.67008 1.21817
v 0.96524 0.58038 1.29898
v 1.00626 0.59990 1.30194
v 0.97686 0.63697 1.27377
v 0.96055 0.64858 1.24659
v 0.92645 0.60385 1.26883
v 1.17652 0.68466 1.02172
v 1.15700 0.68466 1.14330
v 1.14440 0.57865 1.26685
v 1.16664 0.56778 1.25326
v 1.21532 0.61349 1.14626
v 1.21829 0.60484 1.17147
v 1.19778 0.59595 1.21447
v 1.15503 0.59323 1.24758
v 1.18418 0.62634 1.17839
v 1.14811 0.63598 1.24758
v 1.15799 0.62436 1.21447
v 1.14811 0.60188 1.25425
v 1.16466 0.65254 1.19099
v 1.22298 0.53664 1.06348
v 1.22693 0.52799 1.01604
v 1.20766 0.53961 1.06348
v 1.25511 0.52997 1.02469
v 1.18913 0.54850 1.06744
v 1.27562 0.53096 0.99849
v 1.25609 0.50452 0.95080
v 1.28155 0.48722 0.88853
v 1.30873 0.49883 0.86036
v 1.23089 0.58928 1.16875
v 1.17727 0.56679 1.06546
v 1.16170 0.59891 1.17345
v 1.15898 0.59891 1.10920
v 1.16763 0.57964 1.14330
v 1.21927 0.62708 1.05483
v 1.26499 0.60188 1.01406
v 1.24250 0.61250 1.07905
v 1.24448 0.61843 0.97798
v 1.27067 0.61448 0.91274
v 1.28921 0.57272 0.95377
v 1.30082 0.55616 0.93523
v 0.93905 0.59891 1.28638
v 0.95264 0.58730 1.26018
v 0.94004 0.59891 1.26216
v 1.19283 0.57964 1.22312
v 1.21433 0.65451 1.00121
v 1.15404 0.66712 1.20557
v 1.14143 0.65056 1.24659
v 1.12982 0.66217 1.24264
v 0.99539 0.51045 1.27476
v 0.97587 0.44719 1.27674
v 0.98872 0.54257 1.26018
v 0.99243 0.47437 1.28143
v 0.99638 0.43953 1.27279
v 0.96623 0.44817 1.24832
v 0.99935 0.43854 1.28835
v 1.01788 0.51144 1.26587
v 1.07125 0.51045 1.24659
v 1.04210 0.47536 1.24363
v 1.05964 0.58631 1.27377
v 1.01491 0.47733 1.27847
v 0.99243 0.50847 1.24832
v 0.95956 0.47437 1.22707
v 0.99638 0.43953 1.27279
v 0.98279 0.53392 1.22213
v 0.96821 0.44521 1.23572
v 1.17554 0.67379 1.05483
v 1.28822 0.53392 0.97601
v 1.30576 0.53664 0.91868
v 1.29118 0.54751 0.97205
v 1.09078 0.44817 1.30096
v 1.08410 0.45979 1.31356
v 0.97117 0.65649 1.25228
v 0.93905 0.59891 1.28638
v 0.92842 0.60583 1.28045
v 0.93510 0.50452 1.25228
v 1.01393 0.50180 1.26315
v 1.00898 0.43755 1.27773
v 1.20469 0.56876 1.15220
v 1.19110 0.56308 1.13366
v 1.11129 0.64759 1.27081
v 1.07224 0.66514 1.24461
v 0.95066 0.57568 1.25623
v 0.95758 0.56679 1.26488
v 0.91385 0.53664 1.25425
v 0.96623 0.52997 1.25919
v 1.22496 0.57667 1.17048
v 1.02084 0.43656 1.27946
v 1.17727 0.63993 1.17048
v 0.96920 0.48030 1.24560
v 0.96055 0.59422 1.24832
v 0.96821 0.44521 1.23572
v 1.09177 0.44422 1.27773
v 1.08312 0.51045 1.26784
v 1.08015 0.43755 1.24931
v 1.10239 0.49488 1.25129
v 1.12587 0.51341 1.28736
v 1.11994 0.54059 1.29231
v 1.08410 0.49488 1.23473
v 1.08410 0.43458 1.24931
v 1.06557 0.43656 1.23671
v 1.09275 0.44051 1.28045
v 1.06162 0.43458 1.24066
v 1.04210 0.43656 1.24931
v 1.05766 0.49389 1.23004
v 1.04308 0.43557 1.24363
v 1.03444 0.49488 1.24264
v 1.07323 0.56481 1.25228
v 1.12587 0.51341 1.28736
v 1.09275 0.44051 1.28045
v 1.08410 0.43458 1.24931
v 1.09275 0.44051 1.28045
v 1.08880 0.45608 1.30194
v 1.09078 0.44817 1.30096
v 1.09473 0.52700 1.30491
v 1.00898 0.43755 1.27773
v 1.01393 0.50180 1.26315
v 1.00898 0.43755 1.27773
v 1.04308 0.43557 1.24363
v 1.00898 0.43755 1.27773
v 1.07719 0.46671 1.31652
v 1.06557 0.43656 1.23671
v 1.08410 0.45979 1.31356
v 1.05964 0.48326 1.32814
v 1.19209 0.57865 1.17048
v 0.92645 0.60385 1.26883
v 0.92842 0.60583 1.28045
v 1.02084 0.52404 1.32443
v 0.98872 0.55715 1.31850
v 1.08880 0.58137 1.27081
v 1.09078 0.53293 1.29033
v 1.05470 0.59792 1.22707
v 1.01096 0.59694 1.24066
v 0.99539 0.59595 1.21817
v 1.01096 0.59694 1.24066
v 1.10931 0.59891 1.23967
v 0.05464 0.90731 -1.56701
v 0.08578 0.85961 -1.60902
v 0.08775 0.83737 -1.59148
v 0.10530 0.84306 -1.60309
v 0.05365 0.85961 -1.58950
v 0.02944 0.85961 -1.56899
v 0.08479 0.82378 -1.55342
v 0.12284 0.84306 -1.58752
v 0.12186 0.85690 -1.58357
v 0.10135 0.86950 -1.59815
v -0.00071 0.89965 -1.55639
v 0.13050 0.85097 -1.56503
v 0.12186 0.85690 -1.58357
v 0.11592 0.87914 -1.57961
v 0.08973 0.90162 -1.57690
v 0.08578 0.85961 -1.60902
v 0.10135 0.86950 -1.59815
v 0.11592 0.87914 -1.57961
v 0.05365 0.85961 -1.58950
v 0.11592 0.87914 -1.57961
v 1.07224 0.47165 1.21546
v 0.95462 0.45015 1.18135
v 1.05099 0.48228 1.21546
v 1.04803 0.45979 1.21150
vt 0.01378 0.43064
vt 0.00699 0.42191
vt 0.01413 0.43821
vt 0.01488 0.41801
vt 0.00714 0.41776
vt 0.01548 0.42302
vt 0.02108 0.41579
vt 0.11478 0.49007
vt 0.00873 0.45434
vt 0.01663 0.45382
vt 0.01503 0.44571
vt 0.01578 0.46010
vt 0.01003 0.45820
vt 0.01483 0.46041
vt 0.09009 0.38366
vt 0.07330 0.38187
vt 0.05696 0.38031
vt 0.04157 0.37821
vt 0.12338 0.38762
vt 0.00174 0.41982
vt 0.00184 0.45704
vt 0.30974 0.47200
vt 0.29469 0.46432
vt 0.30374 0.47254
vt 0.31034 0.46185
vt 0.29464 0.47285
vt 0.03197 0.39216
vt 0.03757 0.38082
vt 0.01378 0.49634
vt 0.00419 0.49411
vt 0.00224 0.49631
vt 0.01378 0.49518
vt 0.13027 0.49168
vt 0.11473 0.49147
vt 0.09814 0.49095
vt 0.09829 0.49234
vt 0.08095 0.49190
vt 0.08105 0.49328
vt 0.06371 0.49194
vt 0.06371 0.49333
vt 0.04707 0.49185
vt 0.04707 0.49324
vt 0.03132 0.49177
vt 0.03137 0.49315
vt 0.01818 0.42332
vt 0.02353 0.41641
vt 0.01668 0.43068
vt 0.01703 0.43816
vt 0.01788 0.44566
vt 0.01958 0.45302
vt 0.02298 0.46025
vt 0.05766 0.37891
vt 0.04237 0.37684
vt 0.07395 0.38048
vt 0.09079 0.38229
vt 0.10744 0.38432
vt 0.10684 0.38569
vt 0.12383 0.38619
vt 0.13942 0.38694
vt 0.05041 0.49640
vt 0.03892 0.49521
vt 0.03892 0.49637
vt 0.02638 0.49520
vt 0.02633 0.49635
vt 0.03107 0.38182
vt 0.02568 0.39185
vt 0.23372 0.42481
vt 0.23203 0.41043
vt 0.29559 0.46103
vt 0.31463 0.46409
vt 0.31314 0.47027
vt 0.31463 0.46793
vt 0.21648 0.42338
vt 0.21059 0.41969
vt 0.21263 0.42191
vt 0.20954 0.41589
vt 0.22258 0.42352
vt 0.21323 0.41337
vt 0.22843 0.42243
vt 0.22738 0.41163
vt 0.49290 0.48411
vt 0.47751 0.48494
vt 0.49275 0.48494
vt 0.47721 0.48411
vt 0.01668 0.49299
vt 0.01718 0.49254
vt 0.01648 0.49230
vt 0.01818 0.49306
vt 0.01913 0.37816
vt 0.00229 0.37724
vt 0.00224 0.37816
vt 0.01913 0.37724
vt 0.29310 0.47587
vt 0.29789 0.47355
vt 0.29789 0.47905
vt 0.29310 0.47969
vt 0.25926 0.43431
vt 0.25012 0.42969
vt 0.25861 0.43466
vt 0.45791 0.43924
vt 0.44937 0.44400
vt 0.29310 0.47923
vt 0.29789 0.47858
vt 0.43797 0.41814
vt 0.43912 0.41332
vt 0.43797 0.41264
vt 0.43568 0.43767
vt 0.43942 0.43827
vt 0.35951 0.44696
vt 0.35941 0.44657
vt 0.35781 0.44963
vt 0.35911 0.44712
vt 0.35866 0.44689
vt 0.35846 0.44964
vt 0.43568 0.43741
vt 0.43942 0.43552
vt 0.43568 0.43314
vt 0.43942 0.43802
vt 0.45791 0.44431
vt 0.25012 0.43530
vt 0.15042 0.50022
vt 0.14942 0.50091
vt 0.15042 0.50091
vt 0.14942 0.50022
vt 0.36426 0.49659
vt 0.36256 0.49565
vt 0.36226 0.49596
vt 0.36426 0.49468
vt 0.36231 0.49533
vt 0.36161 0.49468
vt 0.36171 0.49518
vt 0.36066 0.49480
vt 0.36101 0.49529
vt 0.35996 0.49515
vt 0.36071 0.49560
vt 0.35971 0.49562
vt 0.35996 0.49611
vt 0.36096 0.49592
vt 0.36066 0.49646
vt 0.36161 0.49607
vt 0.36161 0.49659
vt 0.14687 0.50022
vt 0.15421 0.50022
vt 0.15521 0.50091
vt 0.15521 0.50022
vt 0.15421 0.50091
vt 0.15136 0.50022
vt 0.15136 0.50091
vt 0.20794 0.44464
vt 0.20789 0.44413
vt 0.20889 0.44449
vt 0.20849 0.44396
vt 0.20954 0.44413
vt 0.20874 0.44364
vt 0.20974 0.44364
vt 0.20944 0.44318
vt 0.20839 0.44333
vt 0.20874 0.44284
vt 0.20774 0.44323
vt 0.20779 0.44273
vt 0.15326 0.50091
vt 0.15326 0.50022
vt 0.15776 0.50022
vt 0.49560 0.43988
vt 0.49730 0.43794
vt 0.49560 0.43794
vt 0.21758 0.38079
vt 0.21618 0.38194
vt 0.15231 0.50091
vt 0.15231 0.50022
vt 0.26831 0.39422
vt 0.27001 0.39521
vt 0.27021 0.39487
vt 0.26831 0.39613
vt 0.27031 0.39552
vt 0.27096 0.39613
vt 0.27096 0.39564
vt 0.27191 0.39601
vt 0.27161 0.39549
vt 0.27261 0.39566
vt 0.27181 0.39516
vt 0.27286 0.39519
vt 0.27261 0.39471
vt 0.27151 0.39484
vt 0.27191 0.39435
vt 0.27086 0.39472
vt 0.27096 0.39422
vt 0.00724 0.39149
vt 0.00778 0.39030
vt 0.00724 0.39064
vt 0.21618 0.38077
vt 0.48130 0.39938
vt 0.48070 0.39973
vt 0.48100 0.40004
vt 0.48995 0.40004
vt 0.49260 0.39938
vt 0.48995 0.39938
vt 0.49295 0.40004
vt 0.48395 0.40004
vt 0.48395 0.39938
vt 0.33917 0.40125
vt 0.34142 0.39927
vt 0.33922 0.39927
vt 0.34142 0.40125
vt 0.35532 0.40074
vt 0.35202 0.39914
vt 0.35532 0.39914
vt 0.48495 0.40004
vt 0.48495 0.39938
vt 0.48895 0.40004
vt 0.48895 0.39938
vt 0.33717 0.40032
vt 0.33697 0.39997
vt 0.33682 0.40063
vt 0.33612 0.40125
vt 0.33612 0.40073
vt 0.33517 0.40112
vt 0.33552 0.40057
vt 0.33448 0.40074
vt 0.33527 0.40023
vt 0.33423 0.40024
vt 0.33453 0.39974
vt 0.33562 0.39991
vt 0.33527 0.39939
vt 0.33632 0.39979
vt 0.33627 0.39927
vt 0.47880 0.40004
vt 0.47875 0.39981
vt 0.16851 0.49218
vt 0.16531 0.49316
vt 0.16856 0.49318
vt 0.16521 0.49213
vt 0.48595 0.39938
vt 0.48595 0.40004
vt 0.48795 0.40004
vt 0.48795 0.39938
vt 0.48695 0.39938
vt 0.48695 0.40004
vt 0.00783 0.47534
vt 0.00714 0.47470
vt 0.00714 0.47534
vt 0.00783 0.47470
vt 0.00644 0.47534
vt 0.00644 0.47470
vt 0.00294 0.47534
vt 0.00224 0.47470
vt 0.00224 0.47534
vt 0.00294 0.47470
vt 0.00574 0.47534
vt 0.00574 0.47470
vt 0.00364 0.47470
vt 0.00364 0.47534
vt 0.00504 0.47534
vt 0.00504 0.47470
vt 0.00434 0.47470
vt 0.00434 0.47534
vt 0.48405 0.37913
vt 0.48335 0.37845
vt 0.48335 0.37913
vt 0.48405 0.37845
vt 0.48265 0.37913
vt 0.48265 0.37845
vt 0.47920 0.37913
vt 0.47850 0.37845
vt 0.47850 0.37913
vt 0.48200 0.37913
vt 0.48200 0.37845
vt 0.47990 0.37845
vt 0.47990 0.37913
vt 0.48130 0.37913
vt 0.48130 0.37845
vt 0.48060 0.37845
vt 0.48060 0.37913
vt 0.19999 0.48050
vt 0.19499 0.48130
vt 0.19559 0.47702
vt 0.18925 0.47731
vt 0.02093 0.39501
vt 0.01613 0.39481
vt 0.01313 0.39185
vt 0.01628 0.39288
vt 0.02113 0.39306
vt 0.02133 0.39138
vt 0.47691 0.39253
vt 0.48185 0.39412
vt 0.47855 0.39245
vt 0.45387 0.39670
vt 0.45447 0.39810
vt 0.45951 0.39693
vt 0.45032 0.39781
vt 0.45622 0.38837
vt 0.46596 0.39023
vt 0.46891 0.39012
vt 0.45542 0.38888
vt 0.45122 0.40164
vt 0.45142 0.40307
vt 0.46721 0.38855
vt 0.46871 0.38629
vt 0.46571 0.38671
vt 0.47121 0.38726
vt 0.45981 0.38773
vt 0.46276 0.39284
vt 0.45966 0.39108
vt 0.45886 0.39309
vt 0.46456 0.39140
vt 0.43208 0.39683
vt 0.45657 0.39877
vt 0.46301 0.39736
vt 0.47361 0.39828
vt 0.47940 0.39838
vt 0.47766 0.39505
vt 0.47111 0.40063
vt 0.46796 0.39637
vt 0.46791 0.39715
vt 0.34842 0.44451
vt 0.35197 0.44490
vt 0.35072 0.44239
vt 0.34757 0.44254
vt 0.34547 0.44369
vt 0.44547 0.39602
vt 0.45951 0.39569
vt 0.44747 0.39702
vt 0.47945 0.39101
vt 0.47606 0.38782
vt 0.47606 0.39079
vt 0.47845 0.38717
vt 0.47706 0.39153
vt 0.48145 0.39248
vt 0.46066 0.40360
vt 0.48580 0.38958
vt 0.48605 0.39195
vt 0.49055 0.39123
vt 0.48820 0.38882
vt 0.48575 0.38701
vt 0.48410 0.39336
vt 0.48245 0.39335
vt 0.47401 0.38525
vt 0.47521 0.38628
vt 0.47356 0.38486
vt 0.48420 0.38556
vt 0.48190 0.38721
vt 0.47885 0.38548
vt 0.47666 0.38436
vt 0.48130 0.38327
vt 0.45287 0.39024
vt 0.46306 0.39038
vt 0.47646 0.39377
vt 0.47471 0.39484
vt 0.46256 0.39452
vt 0.46471 0.39510
vt 0.46921 0.39485
vt 0.47361 0.39361
vt 0.46601 0.39334
vt 0.47216 0.39180
vt 0.46986 0.39268
vt 0.47386 0.39303
vt 0.46716 0.39184
vt 0.45582 0.39976
vt 0.45122 0.40091
vt 0.45672 0.40041
vt 0.45082 0.39943
vt 0.45811 0.40112
vt 0.44757 0.39907
vt 0.44357 0.40113
vt 0.43678 0.40129
vt 0.43338 0.40014
vt 0.46456 0.39605
vt 0.45961 0.40207
vt 0.47031 0.39918
vt 0.46576 0.40193
vt 0.46671 0.39984
vt 0.45437 0.39356
vt 0.44967 0.39547
vt 0.45617 0.39499
vt 0.44677 0.39394
vt 0.44017 0.39427
vt 0.44327 0.39681
vt 0.44122 0.39756
vt 0.34997 0.44800
vt 0.34552 0.44601
vt 0.34547 0.44742
vt 0.47056 0.39535
vt 0.44982 0.39206
vt 0.46836 0.39108
vt 0.47166 0.39121
vt 0.47171 0.39057
vt 0.34407 0.44055
vt 0.33842 0.43917
vt 0.34572 0.44206
vt 0.34142 0.43937
vt 0.33727 0.43824
vt 0.33667 0.44044
vt 0.33912 0.43776
vt 0.34602 0.43997
vt 0.34967 0.43858
vt 0.34662 0.43758
vt 0.35132 0.44082
vt 0.34327 0.43878
vt 0.29534 0.43873
vt 0.29165 0.44042
vt 0.29734 0.44200
vt 0.29300 0.43746
vt 0.29310 0.44173
vt 0.45537 0.39081
vt 0.44527 0.39878
vt 0.43932 0.39842
vt 0.44467 0.39808
vt 0.49240 0.39376
vt 0.49165 0.39295
vt 0.47656 0.38492
vt 0.48265 0.38423
vt 0.48200 0.38373
vt 0.33962 0.44288
vt 0.29784 0.43897
vt 0.29864 0.44199
vt 0.46486 0.39788
vt 0.46406 0.39903
vt 0.47441 0.39037
vt 0.47321 0.38849
vt 0.34417 0.44536
vt 0.34502 0.44446
vt 0.34017 0.44426
vt 0.34327 0.44264
vt 0.46521 0.39650
vt 0.34132 0.43698
vt 0.46546 0.39261
vt 0.33942 0.44119
vt 0.34452 0.44624
vt 0.33537 0.44053
vt 0.35282 0.43572
vt 0.35147 0.43849
vt 0.34957 0.43533
vt 0.28185 0.42519
vt 0.28115 0.42728
vt 0.28340 0.42802
vt 0.28320 0.42431
vt 0.27810 0.42298
vt 0.27950 0.42210
vt 0.27645 0.42432
vt 0.34727 0.43537
vt 0.34487 0.43590
vt 0.28465 0.42330
vt 0.28055 0.42109
vt 0.28600 0.42223
vt 0.28845 0.42626
vt 0.48505 0.39447
vt 0.49295 0.39477
vt 0.34982 0.43508
vt 0.35317 0.43551
vt 0.35527 0.43653
vt 0.35527 0.43607
vt 0.35377 0.43914
vt 0.28305 0.41909
vt 0.28800 0.42121
vt 0.33717 0.43733
vt 0.34512 0.43558
vt 0.34007 0.43682
vt 0.35691 0.43736
vt 0.34747 0.43507
vt 0.35666 0.43677
vt 0.35796 0.43867
vt 0.46746 0.39782
vt 0.34597 0.44900
vt 0.34832 0.44931
vt 0.35701 0.44134
vt 0.35477 0.44320
vt 0.28815 0.42745
vt 0.28450 0.42698
vt 0.29280 0.42612
vt 0.29534 0.42428
vt 0.29360 0.43451
vt 0.29609 0.43453
vt 0.29075 0.42877
vt 0.30944 0.49682
vt 0.29155 0.49044
vt 0.29365 0.48971
vt 0.29175 0.48932
vt 0.29484 0.49145
vt 0.29804 0.49198
vt 0.29659 0.48887
vt 0.29155 0.48812
vt 0.29020 0.48827
vt 0.28955 0.48971
vt 0.30814 0.49405
vt 0.29305 0.48712
vt 0.29115 0.48740
vt 0.29020 0.48626
vt 0.30944 0.49861
vt 0.30434 0.49906
vt 0.30624 0.49965
vt 0.30869 0.50020
vt 0.30439 0.49716
vt 0.28800 0.48873
vt 0.25816 0.50043
vt 0.25212 0.50036
vt 0.25716 0.50089
vt 0.25681 0.50037
vn -0.4130 -0.1337 0.9008
vn -0.6249 -0.6321 0.4582
vn -0.1419 0.0000 0.9899
vn -0.6611 -0.3878 0.6422
vn -0.7252 -0.6253 0.2881
vn -0.5434 -0.2776 0.7923
vn -0.6512 -0.0944 0.7530
vn -0.6554 0.0000 -0.7553
vn 0.4956 -0.6696 0.5532
vn 0.5961 0.1049 0.7960
vn 0.2804 0.0000 0.9599
vn 0.5176 -0.2459 0.8195
vn 0.6029 -0.4039 0.6881
vn 0.5016 -0.1936 0.8432
vn 0.9601 0.0000 -0.2798
vn 1.0000 0.0000 0.0000
vn 0.9601 -0.0000 0.2798
vn 0.8413 -0.0000 0.5405
vn 0.6574 0.0000 -0.7535
vn -0.5777 -0.8044 -0.1386
vn 0.3724 -0.9213 0.1122
vn 1.0000 0.0000 0.0000
vn 1.0000 0.0000 0.0000
vn 1.0000 0.0000 0.0000
vn 1.0000 0.0000 0.0000
vn 1.0000 0.0000 0.0000
vn 0.6707 0.0381 0.7407
vn 0.6437 0.0508 0.7636
vn -0.1694 0.0000 -0.9855
vn -0.4132 0.0000 -0.9106
vn -0.4132 0.0000 -0.9106
vn -0.1410 0.0000 -0.9900
vn -0.6554 0.0000 -0.7553
vn -0.6769 0.0000 -0.7361
vn -0.8413 0.0000 -0.5405
vn -0.8565 0.0000 -0.5161
vn -0.9591 0.0000 -0.2831
vn -0.9669 0.0000 -0.2552
vn -1.0000 0.0000 0.0000
vn -0.9996 -0.0000 0.0287
vn -0.9601 -0.0000 0.2798
vn -0.9515 -0.0000 0.3076
vn -0.8413 -0.0000 0.5405
vn -0.8413 -0.0000 0.5405
vn -0.5409 -0.0000 0.8411
vn -0.6541 -0.0000 0.7564
vn -0.3902 0.0000 0.9207
vn -0.1133 0.0000 0.9936
vn 0.2803 0.0000 0.9599
vn 0.5654 0.4169 0.7117
vn 0.5769 0.4713 0.6671
vn 0.9515 -0.0000 0.3076
vn 0.8413 -0.0000 0.5405
vn 0.9996 -0.0000 0.0287
vn 0.9677 0.0000 -0.2522
vn 0.8567 0.0000 -0.5158
vn 0.8413 0.0000 -0.5405
vn 0.6787 0.0000 -0.7345
vn 0.6574 0.0000 -0.7535
vn 0.4132 0.0000 -0.9106
vn 0.4132 0.0000 -0.9106
vn 0.3868 0.0000 -0.9222
vn 0.1415 0.0000 -0.9899
vn 0.1131 0.0000 -0.9936
vn 0.6486 0.0486 0.7596
vn 0.6761 0.0356 0.7360
vn -1.0000 0.0000 0.0000
vn -1.0000 0.0000 0.0000
vn 1.0000 0.0000 0.0000
vn 1.0000 0.0000 0.0000
vn 1.0000 0.0000 0.0000
vn 1.0000 0.0000 0.0000
vn -1.0000 0.0000 0.0000
vn -1.0000 0.0000 0.0000
vn -1.0000 0.0000 0.0000
vn -1.0000 0.0000 0.0000
vn -1.0000 0.0000 0.0000
vn -1.0000 0.0000 0.0000
vn -1.0000 0.0000 0.0000
vn -1.0000 0.0000 0.0000
vn 1.0000 0.0000 0.0000
vn 1.0000 0.0000 0.0000
vn 1.0000 0.0000 0.0000
vn 1.0000 0.0000 0.0000
vn -0.0000 -1.0000 0.0000
vn -0.0000 -1.0000 0.0000
vn -0.0000 -1.0000 0.0000
vn -0.0000 -1.0000 0.0000
vn -0.0000 0.0721 0.9974
vn -0.0000 0.0721 0.9974
vn -0.0000 0.0721 0.9974
vn -0.0000 0.0721 0.9974
vn 0.9432 -0.1654 0.2881
vn 0.9438 -0.1762 0.2795
vn 0.5655 -0.7291 0.3855
vn 0.5723 -0.7228 0.3872
vn -0.2097 -0.0795 0.9745
vn -0.2094 -0.0791 0.9746
vn -0.2096 -0.0793 0.9746
vn 0.2048 0.0732 -0.9761
vn 0.2048 0.0732 -0.9761
vn 0.7819 -0.5006 0.3715
vn 0.8364 -0.4217 0.3501
vn -0.0092 0.9990 0.0428
vn -0.0092 0.9990 0.0428
vn -0.0092 0.9990 0.0428
vn -0.8160 0.4669 -0.3407
vn -0.5639 0.7658 -0.3091
vn 0.1709 0.0520 -0.9839
vn 0.1572 -0.0270 -0.9872
vn 0.0717 -0.0186 -0.9973
vn 0.0797 0.0670 -0.9946
vn 0.1106 0.0370 -0.9932
vn 0.0766 -0.0199 -0.9969
vn -0.9104 0.2618 -0.3205
vn -0.9478 0.1058 -0.3009
vn -0.9460 0.0972 -0.3094
vn -0.7949 0.5146 -0.3216
vn 0.2048 0.0732 -0.9761
vn -0.2094 -0.0791 0.9746
vn -0.5773 -0.8165 0.0000
vn -0.2406 -0.9706 0.0000
vn -0.5773 -0.8165 0.0000
vn -0.2206 -0.9754 0.0000
vn -0.0000 0.0000 1.0000
vn -0.0000 0.0000 1.0000
vn -0.0000 0.0000 1.0000
vn -0.0000 0.0000 1.0000
vn -0.0000 0.0000 1.0000
vn -0.0000 0.0000 1.0000
vn -0.0000 0.0000 1.0000
vn -0.0000 0.0000 1.0000
vn -0.0000 0.0000 1.0000
vn -0.0000 0.0000 1.0000
vn -0.0000 0.0000 1.0000
vn -0.0000 0.0000 1.0000
vn -0.0000 0.0000 1.0000
vn -0.0000 0.0000 1.0000
vn -0.0000 0.0000 1.0000
vn -0.0000 0.0000 1.0000
vn -0.0000 0.0000 1.0000
vn -0.1040 -0.9946 0.0000
vn -0.4532 0.8914 0.0000
vn -0.0614 0.9981 0.0000
vn -0.0342 0.9994 0.0000
vn -0.4532 0.8914 0.0000
vn -0.8935 -0.4491 0.0000
vn -0.8935 -0.4491 0.0000
vn -0.0000 0.0000 -1.0000
vn -0.0000 0.0000 -1.0000
vn -0.0000 0.0000 -1.0000
vn -0.0000 0.0000 -1.0000
vn -0.0000 0.0000 -1.0000
vn -0.0000 0.0000 -1.0000
vn -0.0000 0.0000 -1.0000
vn -0.0000 0.0000 -1.0000
vn -0.0000 0.0000 -1.0000
vn -0.0000 0.0000 -1.0000
vn -0.0000 0.0000 -1.0000
vn -0.0000 0.0000 -1.0000
vn -0.8362 0.5485 0.0000
vn -0.8362 0.5485 0.0000
vn 0.1218 0.9926 0.0000
vn -0.9980 0.0634 0.0000
vn -0.9980 0.0634 0.0000
vn -0.9980 0.0634 0.0000
vn -0.0483 -0.9985 -0.0265
vn -0.0483 -0.9985 -0.0265
vn -0.9990 0.0448 0.0000
vn -0.9990 0.0448 0.0000
vn -0.0000 0.0000 -1.0000
vn -0.0000 0.0000 -1.0000
vn -0.0000 0.0000 -1.0000
vn -0.0000 0.0000 -1.0000
vn -0.0000 0.0000 -1.0000
vn -0.0000 0.0000 -1.0000
vn -0.0000 0.0000 -1.0000
vn -0.0000 0.0000 -1.0000
vn -0.0000 0.0000 -1.0000
vn -0.0000 0.0000 -1.0000
vn -0.0000 0.0000 -1.0000
vn -0.0000 0.0000 -1.0000
vn -0.0000 0.0000 -1.0000
vn -0.0000 0.0000 -1.0000
vn -0.0000 0.0000 -1.0000
vn -0.0000 0.0000 -1.0000
vn -0.0000 0.0000 -1.0000
vn 0.0926 0.9957 0.0000
vn 0.0926 0.9957 0.0000
vn 0.0926 0.9957 0.0000
vn -0.0483 -0.9985 -0.0265
vn 0.1128 0.9936 0.0099
vn 0.0321 0.9994 0.0117
vn 0.0701 0.9975 0.0085
vn -0.2214 -0.9752 -0.0018
vn -0.1085 -0.9941 -0.0094
vn -0.2206 -0.9754 0.0000
vn -0.1100 -0.9939 -0.0125
vn -0.0335 0.9994 0.0013
vn -0.0342 0.9994 0.0000
vn 0.0972 -0.0053 0.9952
vn 0.1920 -0.0113 0.9813
vn 0.0965 -0.0061 0.9953
vn 0.1951 -0.0097 0.9807
vn 0.9934 -0.1149 0.0000
vn 0.9934 -0.1149 0.0000
vn 0.9934 -0.1149 0.0000
vn -0.4532 0.8914 0.0000
vn -0.4532 0.8914 0.0000
vn -0.5773 -0.8165 0.0000
vn -0.5773 -0.8165 0.0000
vn -0.0000 0.0000 1.0000
vn -0.0000 0.0000 1.0000
vn -0.0000 0.0000 1.0000
vn -0.0000 0.0000 1.0000
vn -0.0000 0.0000 1.0000
vn -0.0000 0.0000 1.0000
vn -0.0000 0.0000 1.0000
vn -0.0000 0.0000 1.0000
vn -0.0000 0.0000 1.0000
vn -0.0000 0.0000 1.0000
vn -0.0000 0.0000 1.0000
vn -0.0000 0.0000 1.0000
vn -0.0000 0.0000 1.0000
vn -0.0000 0.0000 1.0000
vn -0.0000 0.0000 1.0000
vn -0.0000 1.0000 0.0000
vn -0.0000 1.0000 0.0000
vn -0.1535 0.0100 -0.9881
vn -0.1594 0.0072 -0.9872
vn -0.1477 0.0128 -0.9889
vn -0.1652 0.0044 -0.9863
vn -0.8362 0.5485 0.0000
vn -0.8362 0.5485 0.0000
vn -0.8935 -0.4491 0.0000
vn -0.8935 -0.4491 0.0000
vn -0.9990 0.0448 0.0000
vn -0.9990 0.0448 0.0000
vn -0.3858 -0.9226 0.0000
vn 0.0102 -0.9999 0.0000
vn 0.0102 -0.9999 0.0000
vn -0.3858 -0.9226 0.0000
vn 0.7045 -0.7097 0.0000
vn 0.7045 -0.7097 0.0000
vn -0.9999 -0.0148 0.0000
vn -0.9371 -0.3491 0.0000
vn -0.9371 -0.3491 0.0000
vn -0.9999 -0.0148 0.0000
vn 0.9999 -0.0170 0.0000
vn 0.9999 -0.0170 0.0000
vn -0.7311 0.6823 0.0000
vn -0.7311 0.6823 0.0000
vn 0.7165 0.6976 0.0000
vn 0.7165 0.6976 0.0000
vn 0.0102 0.9999 0.0000
vn 0.0102 0.9999 0.0000
vn -0.3858 -0.9226 0.0000
vn 0.0102 -0.9999 0.0000
vn 0.0102 -0.9999 0.0000
vn -0.3858 -0.9226 0.0000
vn 0.7045 -0.7097 0.0000
vn 0.7045 -0.7097 0.0000
vn -0.9998 -0.0202 0.0000
vn -0.9371 -0.3491 0.0000
vn -0.9371 -0.3491 0.0000
vn 0.9999 -0.0170 0.0000
vn 0.9999 -0.0170 0.0000
vn -0.5542 0.8324 0.0000
vn -0.7311 0.6823 0.0000
vn 0.7165 0.6976 0.0000
vn 0.7165 0.6976 0.0000
vn 0.0102 0.9999 0.0000
vn 0.0102 0.9999 0.0000
vn -0.8510 0.0115 0.5251
vn -0.8428 -0.0700 0.5336
vn -0.8280 -0.1557 0.5387
vn -0.8114 -0.2242 0.5398
vn -0.9101 -0.3775 0.1711
vn -0.8110 -0.3075 0.4976
vn 0.1494 -0.0155 0.9887
vn -0.5042 -0.0167 0.8634
vn -0.9420 0.2242 0.2497
vn -0.6467 0.7341 0.2070
vn 0.8290 0.0952 0.5510
vn 0.9396 -0.1524 -0.3066
vn 0.9861 0.1055 0.1286
vn 0.9591 -0.0120 0.2829
vn 0.7382 -0.5378 0.4071
vn 0.7846 -0.5306 0.3206
vn 0.9264 -0.1552 0.3430
vn 0.3677 0.8724 0.3221
vn 0.3838 0.8659 0.3209
vn 0.1247 0.9387 0.3215
vn 0.8480 0.4782 0.2286
vn -0.2816 -0.9392 0.1965
vn -0.8401 -0.5226 -0.1451
vn 0.0948 0.9385 0.3321
vn 0.2301 0.8617 0.4522
vn 0.3365 0.8563 0.3918
vn 0.1284 0.8972 0.4226
vn -0.0857 0.9438 0.3191
vn 0.7239 0.6668 0.1769
vn 0.8548 0.4993 0.1418
vn 0.6508 0.7430 0.1564
vn 0.8385 0.5145 0.1795
vn 0.9799 0.1037 0.1703
vn 0.4638 -0.7925 0.3960
vn 0.3475 -0.9020 0.2564
vn -0.4462 -0.7981 -0.4048
vn -0.5871 -0.6962 -0.4130
vn 0.2129 -0.9478 0.2375
vn -0.4710 -0.8769 -0.0959
vn 0.4929 -0.8358 0.2417
vn -0.2373 -0.9654 -0.1081
vn -0.3967 -0.7646 0.5079
vn -0.2916 -0.9258 -0.2405
vn -0.0874 -0.9614 0.2610
vn -0.1160 -0.4719 0.8740
vn -0.1524 -0.3338 0.9303
vn 0.8551 0.5000 0.1369
vn 0.8118 0.5150 0.2753
vn 0.9589 0.1411 0.2461
vn 0.2152 0.4087 0.8869
vn -0.0151 0.7902 0.6127
vn 0.3661 0.5327 0.7630
vn -0.0873 0.6167 0.7824
vn 0.7542 0.2443 0.6095
vn 0.6802 0.1556 0.7163
vn -0.9461 -0.1297 -0.2968
vn -0.0035 0.1610 0.9869
vn 0.2341 -0.0312 0.9717
vn 0.2234 -0.0555 0.9732
vn -0.0763 0.0658 0.9949
vn -0.1060 0.3524 0.9298
vn 0.8571 -0.1589 0.4900
vn 0.9849 -0.0496 -0.1661
vn -0.3173 0.8803 0.3527
vn -0.0240 0.8636 0.5036
vn -0.6960 0.7180 -0.0114
vn -0.2267 0.4366 0.8706
vn -0.1469 0.4300 0.8908
vn -0.2142 0.6080 0.7645
vn -0.6580 0.7310 0.1808
vn -0.7878 0.6152 0.0294
vn 0.9515 0.2658 0.1551
vn 0.8231 0.5310 0.2012
vn 0.5968 0.0880 0.7975
vn 0.7222 -0.2434 0.6474
vn 0.6323 0.7462 0.2080
vn 0.6927 0.6515 0.3092
vn 0.6494 0.4705 0.5974
vn 0.6913 0.4074 0.5968
vn 0.6001 0.6815 0.4188
vn 0.8499 0.2150 0.4811
vn 0.8678 0.2657 0.4199
vn 0.8060 0.2020 0.5564
vn 0.8988 0.3102 0.3098
vn 0.0698 -0.9489 0.3079
vn 0.0321 -0.9593 0.2805
vn -0.2759 -0.9363 0.2172
vn 0.3446 -0.8598 0.3770
vn -0.6568 -0.7512 0.0662
vn 0.6646 -0.6400 0.3856
vn 0.2630 -0.8964 0.3567
vn 0.5991 -0.7285 0.3322
vn 0.7246 -0.6132 0.3146
vn 0.8960 0.1230 0.4267
vn -0.9181 -0.3683 -0.1465
vn -0.3737 -0.9204 -0.1148
vn -0.8609 -0.4919 -0.1298
vn -0.6195 -0.7673 0.1657
vn 0.6245 0.7677 0.1439
vn 0.6619 0.7429 0.0999
vn 0.5928 0.7970 0.1158
vn 0.6365 0.7608 0.1269
vn 0.7834 0.6106 0.1156
vn 0.9243 0.3493 0.1541
vn 0.9557 0.1929 0.2225
vn -0.5387 -0.8415 0.0412
vn -0.9070 -0.4029 -0.1223
vn -0.5848 -0.7963 -0.1543
vn 0.7776 -0.2650 0.5702
vn 0.7719 0.5921 0.2317
vn 0.6809 0.6397 0.3565
vn 0.6465 0.5357 0.5432
vn 0.3027 0.8261 0.4753
vn -0.1402 0.3219 0.9363
vn -0.7185 -0.4231 0.5520
vn -0.2278 -0.1950 0.9540
vn -0.2455 0.1907 0.9504
vn -0.2934 -0.9557 0.0224
vn -0.7297 -0.6336 0.2571
vn -0.1182 -0.5999 0.7913
vn 0.3360 0.0084 0.9418
vn -0.3867 -0.2451 0.8890
vn 0.3837 -0.0313 0.9229
vn -0.3452 -0.9064 0.2434
vn 0.4929 0.1769 0.8519
vn 0.6138 -0.2180 -0.7588
vn 0.7251 -0.1228 -0.6776
vn 0.5104 -0.1981 -0.8368
vn 0.8249 -0.2150 -0.5227
vn 0.7991 0.0596 -0.5982
vn 0.8222 0.5362 0.1909
vn 0.8574 -0.3905 0.3353
vn 0.9645 -0.1221 0.2342
vn 0.9546 0.0422 0.2948
vn 0.8156 -0.4143 0.4040
vn 0.5336 -0.2898 0.7945
vn -0.4087 0.8088 0.4228
vn -0.1563 0.4469 0.8808
vn -0.5414 0.6468 0.5372
vn -0.0121 -0.2486 0.9685
vn 0.4909 -0.2320 -0.8397
vn 0.3231 -0.2330 -0.9172
vn -0.0494 -0.9631 0.2645
vn -0.2993 -0.9060 0.2994
vn 0.1992 0.7605 0.6180
vn 0.0417 0.9092 0.4143
vn -0.9385 0.0432 0.3425
vn -0.4175 -0.1975 0.8869
vn -0.1274 -0.1602 0.9788
vn 0.0204 -0.2232 0.9746
vn 0.6670 -0.6219 0.4102
vn 0.4716 -0.6350 0.6118
vn 0.8035 0.4955 0.3300
vn -0.7438 0.0450 0.6669
vn -0.7692 -0.1748 -0.6147
vn -0.3856 -0.9098 0.1536
vn -0.9701 -0.1007 0.2208
vn -0.9104 -0.1355 0.3910
vn -0.5570 -0.3873 0.7347
vn 0.7553 0.1553 -0.6367
vn 0.8148 0.0845 -0.5736
vn 0.1408 0.0632 -0.9880
vn 0.5033 0.1371 -0.8532
vn 0.7724 -0.2448 -0.5860
vn 0.1319 -0.1760 -0.9755
vn 0.9160 -0.3032 -0.2625
vn -0.1213 -0.9575 0.2617
vn 0.5365 -0.5835 0.6097
vn -0.1157 -0.0029 -0.9933
vn -0.5205 -0.1275 -0.8443
vn -0.5929 -0.1007 -0.7990
vn 0.8210 0.0072 -0.5709
vn 0.9632 -0.2375 0.1261
vn 0.8747 -0.4202 0.2413
vn -0.4846 -0.7597 0.4337
vn -0.9700 -0.1932 0.1475
vn -0.9436 -0.1018 -0.3151
vn -0.9593 -0.2652 -0.0971
vn -0.8532 -0.3359 -0.3991
vn -0.7102 -0.1102 -0.6953
vn -0.7235 -0.1415 -0.6757
vn -0.1411 -0.9893 -0.0359
vn 0.0130 -0.9931 0.1166
vn -0.0836 -0.9965 0.0041
vn -0.8016 -0.3681 -0.4710
vn 0.0660 -0.9173 -0.3927
vn -0.5825 -0.7330 0.3512
vn -0.4129 -0.1625 -0.8962
vn -0.5443 -0.8331 0.0982
vn -0.4391 -0.8963 0.0629
vn -0.6186 -0.7503 0.2330
vn -0.2620 -0.4455 -0.8561
vn -0.2384 -0.6463 -0.7248
vn 0.2633 -0.5985 -0.7566
vn 0.4807 0.2595 -0.8376
vn 0.2079 -0.2937 -0.9330
vn -0.3756 -0.1042 -0.9209
vn 0.8097 -0.1997 -0.5518
vn 0.7775 -0.2034 -0.5951
vn -0.0828 -0.8439 -0.5301
vn -0.1994 0.5712 -0.7962
vn -0.0888 -0.3605 -0.9285
vn -0.1193 -0.8318 -0.5421
vn 0.3439 -0.4982 -0.7960
vn -0.4632 -0.6573 -0.5945
vn -0.4749 -0.6783 -0.5607
vn 0.1864 -0.9298 -0.3175
vn 0.7290 -0.2490 -0.6376
vn 0.6557 0.2622 -0.7080
vn 0.5919 0.2524 -0.7654
vn -0.3075 0.4430 -0.8422
vn 0.9069 0.2394 -0.3466
vn 0.9069 0.2400 -0.3464
vn 0.8982 0.2971 -0.3241
vn 0.0555 0.6241 -0.7794
vn -0.1170 0.5125 -0.8507
vn 0.2717 0.5974 -0.7545
vn 0.4465 0.6003 -0.6635
vn -0.5193 0.0016 -0.8546
vn 0.6681 0.2993 -0.6812
vn -0.0811 -0.1622 0.9834
vn -0.2926 -0.1280 0.9476
vn -0.1809 -0.1471 0.9724
vn -0.2209 -0.1406 0.9651
usemtl pershing_hull_m2
f 5/5/5 4/4/4 2/2/2
f 4/4/4 6/6/6 2/2/2
f 7/7/7 6/6/6 4/4/4
f 10/10/10 12/12/12 9/9/9
f 14/14/14 13/13/13 12/12/12
f 13/13/13 9/9/9 12/12/12
f 20/20/20 5/5/5 2/2/2
f 24/24/24 23/23/23 22/22/22
f 23/23/23 25/25/25 22/22/22
f 24/24/24 26/26/26 23/23/23
f 13/13/13 21/21/21 9/9/9
f 31/31/31 30/30/30 29/29/29
f 34/34/34 8/8/8 33/33/33
f 36/36/36 35/35/35 34/34/34
f 38/38/38 37/37/37 36/36/36
f 40/40/40 39/39/39 38/38/38
f 40/40/40 42/42/42 41/41/41
f 44/44/44 43/43/43 42/42/42
f 46/46/46 45/45/45 7/7/7
f 45/45/45 6/6/6 7/7/7
f 47/47/47 1/1/1 45/45/45
f 1/1/1 6/6/6 45/45/45
f 48/48/48 3/3/3 47/47/47
f 49/49/49 11/11/11 48/48/48
f 11/11/11 49/49/49 50/50/50
f 10/10/10 50/50/50 51/51/51
f 18/18/18 53/53/53 52/52/52
f 17/17/17 52/52/52 54/54/54
f 16/16/16 54/54/54 55/55/55
f 15/15/15 55/55/55 56/56/56
f 57/57/57 56/56/56 58/58/58
f 19/19/19 58/58/58 59/59/59
f 62/62/62 61/61/61 60/60/60
f 64/64/64 63/63/63 62/62/62
f 29/29/29 32/32/32 64/64/64
f 1/1/1 2/2/2 6/6/6
f 28/28/28 27/27/27 65/65/65
f 27/27/27 66/66/66 65/65/65
f 25/25/25 23/23/23 69/69/69
f 71/71/71 22/22/22 70/70/70
f 22/22/22 25/25/25 70/70/70
f 71/71/71 70/70/70 72/72/72
f 75/75/75 74/74/74 73/73/73
f 74/74/74 76/76/76 73/73/73
f 78/78/78 77/77/77 76/76/76
f 77/77/77 73/73/73 76/76/76
f 80/80/80 79/79/79 78/78/78
f 79/79/79 77/77/77 78/78/78
f 83/83/83 82/82/82 81/81/81
f 82/82/82 84/84/84 81/81/81
f 87/87/87 86/86/86 85/85/85
f 86/86/86 88/88/88 85/85/85
f 91/91/91 90/90/90 89/89/89
f 90/90/90 92/92/92 89/89/89
f 99/99/99 98/98/98 97/97/97
f 96/96/96 102/102/102 95/95/95
f 102/102/102 103/103/103 95/95/95
f 106/106/106 105/105/105 104/104/104
f 113/113/113 112/112/112 111/111/111
f 112/112/112 114/114/114 111/111/111
f 110/110/110 109/109/109 113/113/113
f 109/109/109 112/112/112 113/113/113
f 117/117/117 116/116/116 115/115/115
f 116/116/116 118/118/118 115/115/115
f 115/115/115 118/118/118 107/107/107
f 118/118/118 108/108/108 107/107/107
f 102/102/102 93/93/93 103/103/103
f 93/93/93 94/94/94 103/103/103
f 101/101/101 100/100/100 119/119/119
f 120/120/120 98/98/98 99/99/99
f 123/123/123 122/122/122 121/121/121
f 122/122/122 124/124/124 121/121/121
f 127/127/127 126/126/126 125/125/125
f 126/126/126 129/129/129 128/128/128
f 128/128/128 129/129/129 130/130/130
f 129/129/129 131/131/131 130/130/130
f 130/130/130 131/131/131 132/132/132
f 131/131/131 133/133/133 132/132/132
f 132/132/132 133/133/133 134/134/134
f 133/133/133 135/135/135 134/134/134
f 135/135/135 136/136/136 134/134/134
f 136/136/136 135/135/135 137/137/137
f 135/135/135 138/138/138 137/137/137
f 137/137/137 138/138/138 139/139/139
f 138/138/138 140/140/140 139/139/139
f 140/140/140 141/141/141 139/139/139
f 140/140/140 127/127/127 141/141/141
f 127/127/127 125/125/125 141/141/141
f 124/124/124 122/122/122 142/142/142
f 145/145/145 144/144/144 143/143/143
f 144/144/144 146/146/146 143/143/143
f 148/148/148 123/123/123 147/147/147
f 123/123/123 121/121/121 147/147/147
f 149/149/149 150/150/150 151/151/151
f 150/150/150 152/152/152 151/151/151
f 151/151/151 152/152/152 153/153/153
f 152/152/152 154/154/154 153/153/153
f 154/154/154 155/155/155 153/153/153
f 155/155/155 154/154/154 156/156/156
f 154/154/154 157/157/157 156/156/156
f 156/156/156 157/157/157 158/158/158
f 157/157/157 159/159/159 158/158/158
f 159/159/159 160/160/160 158/158/158
f 146/146/146 161/161/161 143/143/143
f 161/161/161 162/162/162 143/143/143
f 145/145/145 163/163/163 144/144/144
f 166/166/166 165/165/165 164/164/164
f 161/161/161 169/169/169 162/162/162
f 169/169/169 170/170/170 162/162/162
f 170/170/170 169/169/169 147/147/147
f 169/169/169 148/148/148 147/147/147
f 173/173/173 172/172/172 171/171/171
f 172/172/172 174/174/174 171/171/171
f 172/172/172 175/175/175 174/174/174
f 174/174/174 175/175/175 176/176/176
f 175/175/175 177/177/177 176/176/176
f 176/176/176 177/177/177 178/178/178
f 177/177/177 179/179/179 178/178/178
f 178/178/178 179/179/179 180/180/180
f 179/179/179 181/181/181 180/180/180
f 181/181/181 182/182/182 180/180/180
f 182/182/182 181/181/181 183/183/183
f 181/181/181 184/184/184 183/183/183
f 183/183/183 184/184/184 185/185/185
f 184/184/184 186/186/186 185/185/185
f 186/186/186 187/187/187 185/185/185
f 186/186/186 173/173/173 187/187/187
f 173/173/173 171/171/171 187/187/187
f 190/190/190 189/189/189 188/188/188
f 168/168/168 191/191/191 167/167/167
f 194/194/194 193/193/193 192/192/192
f 197/197/197 196/196/196 195/195/195
f 196/196/196 198/198/198 195/195/195
f 194/194/194 192/192/192 199/199/199
f 192/192/192 200/200/200 199/199/199
f 203/203/203 202/202/202 201/201/201
f 202/202/202 204/204/204 201/201/201
f 206/206/206 207/207/207 205/205/205
f 199/199/199 200/200/200 208/208/208
f 200/200/200 209/209/209 208/208/208
f 195/195/195 210/210/210 197/197/197
f 210/210/210 211/211/211 197/197/197
f 213/213/213 203/203/203 212/212/212
f 203/203/203 201/201/201 212/212/212
f 212/212/212 201/201/201 214/214/214
f 201/201/201 215/215/215 214/214/214
f 215/215/215 216/216/216 214/214/214
f 215/215/215 217/217/217 216/216/216
f 217/217/217 218/218/218 216/216/216
f 217/217/217 219/219/219 218/218/218
f 221/221/221 220/220/220 219/219/219
f 220/220/220 218/218/218 219/219/219
f 221/221/221 222/222/222 220/220/220
f 222/222/222 223/223/223 220/220/220
f 222/222/222 224/224/224 223/223/223
f 226/226/226 225/225/225 224/224/224
f 225/225/225 223/223/223 224/224/224
f 225/225/225 226/226/226 213/213/213
f 226/226/226 203/203/203 213/213/213
f 194/194/194 227/227/227 193/193/193
f 227/227/227 228/228/228 193/193/193
f 231/231/231 230/230/230 229/229/229
f 230/230/230 232/232/232 229/229/229
f 234/234/234 208/208/208 233/233/233
f 208/208/208 209/209/209 233/233/233
f 210/210/210 235/235/235 211/211/211
f 235/235/235 236/236/236 211/211/211
f 238/238/238 237/237/237 235/235/235
f 237/237/237 236/236/236 235/235/235
f 238/238/238 234/234/234 237/237/237
f 234/234/234 233/233/233 237/237/237
f 241/241/241 240/240/240 239/239/239
f 240/240/240 242/242/242 239/239/239
f 244/244/244 240/240/240 243/243/243
f 240/240/240 241/241/241 243/243/243
f 247/247/247 246/246/246 245/245/245
f 246/246/246 248/248/248 245/245/245
f 250/250/250 244/244/244 249/249/249
f 244/244/244 243/243/243 249/249/249
f 252/252/252 245/245/245 251/251/251
f 245/245/245 248/248/248 251/251/251
f 254/254/254 250/250/250 253/253/253
f 250/250/250 249/249/249 253/253/253
f 256/256/256 252/252/252 255/255/255
f 252/252/252 251/251/251 255/255/255
f 253/253/253 256/256/256 254/254/254
f 256/256/256 255/255/255 254/254/254
f 259/259/259 258/258/258 257/257/257
f 258/258/258 260/260/260 257/257/257
f 262/262/262 258/258/258 261/261/261
f 258/258/258 259/259/259 261/261/261
f 265/265/265 264/264/264 263/263/263
f 267/267/267 262/262/262 266/266/266
f 262/262/262 261/261/261 266/266/266
f 269/269/269 263/263/263 268/268/268
f 271/271/271 267/267/267 270/270/270
f 267/267/267 266/266/266 270/270/270
f 273/273/273 269/269/269 272/272/272
f 269/269/269 268/268/268 272/272/272
f 270/270/270 273/273/273 271/271/271
f 273/273/273 272/272/272 271/271/271
f 274/274/274 275/275/275 276/276/276
f 275/275/275 277/277/277 276/276/276
f 281/281/281 279/279/279 280/280/280
f 283/283/283 282/282/282 281/281/281
f 281/281/281 282/282/282 279/279/279
f 282/282/282 278/278/278 279/279/279
f 286/286/286 285/285/285 284/284/284
f 289/289/289 288/288/288 287/287/287
f 288/288/288 290/290/290 287/287/287
f 293/293/293 292/292/292 291/291/291
f 292/292/292 294/294/294 291/291/291
f 299/299/299 298/298/298 297/297/297
f 298/298/298 300/300/300 297/297/297
f 297/297/297 301/301/301 299/299/299
f 304/304/304 303/303/303 302/302/302
f 303/303/303 305/305/305 302/302/302
f 288/288/288 289/289/289 307/307/307
f 289/289/289 308/308/308 307/307/307
f 311/311/311 310/310/310 309/309/309
f 310/310/310 312/312/312 309/309/309
f 314/314/314 313/313/313 311/311/311
f 317/317/317 316/316/316 315/315/315
f 319/319/319 318/318/318 315/315/315
f 318/318/318 317/317/317 315/315/315
f 321/321/321 287/287/287 320/320/320
f 287/287/287 322/322/322 320/320/320
f 325/325/325 324/324/324 323/323/323
f 324/324/324 326/326/326 323/323/323
f 328/328/328 327/327/327 323/323/323
f 327/327/327 325/325/325 323/323/323
f 332/332/332 331/331/331 330/330/330
f 331/331/331 323/323/323 330/330/330
f 332/332/332 330/330/330 333/333/333
f 330/330/330 334/334/334 333/333/333
f 323/323/323 331/331/331 328/328/328
f 331/331/331 335/335/335 328/328/328
f 286/286/286 336/336/336 285/285/285
f 336/336/336 335/335/335 285/285/285
f 298/298/298 337/337/337 300/300/300
f 337/337/337 338/338/338 300/300/300
f 334/334/334 341/341/341 340/340/340
f 341/341/341 342/342/342 340/340/340
f 294/294/294 346/346/346 345/345/345
f 347/347/347 284/284/284 311/311/311
f 284/284/284 285/285/285 311/311/311
f 311/311/311 348/348/348 347/347/347
f 304/304/304 302/302/302 349/349/349
f 302/302/302 350/350/350 349/349/349
f 353/353/353 352/352/352 351/351/351
f 356/356/356 355/355/355 354/354/354
f 355/355/355 357/357/357 354/354/354
f 360/360/360 359/359/359 358/358/358
f 359/359/359 361/361/361 358/358/358
f 359/359/359 360/360/360 295/295/295
f 360/360/360 362/362/362 295/295/295
f 361/361/361 364/364/364 363/363/363
f 364/364/364 365/365/365 363/363/363
f 334/334/334 330/330/330 341/341/341
f 330/330/330 323/323/323 341/341/341
f 351/351/351 350/350/350 353/353/353
f 350/350/350 302/302/302 353/353/353
f 321/321/321 367/367/367 287/287/287
f 297/297/297 293/293/293 301/301/301
f 293/293/293 291/291/291 301/301/301
f 295/295/295 362/362/362 296/296/296
f 362/362/362 368/368/368 296/296/296
f 312/312/312 369/369/369 309/309/309
f 296/296/296 368/368/368 329/329/329
f 368/368/368 370/370/370 329/329/329
f 371/371/371 370/370/370 362/362/362
f 370/370/370 368/368/368 362/362/362
f 364/364/364 361/361/361 359/359/359
f 374/374/374 373/373/373 372/372/372
f 373/373/373 375/375/375 372/372/372
f 320/320/320 377/377/377 376/376/376
f 377/377/377 378/378/378 376/376/376
f 381/381/381 380/380/380 379/379/379
f 380/380/380 315/315/315 379/379/379
f 315/315/315 316/316/316 379/379/379
f 373/373/373 320/320/320 375/375/375
f 320/320/320 376/376/376 375/375/375
f 350/350/350 351/351/351 367/367/367
f 351/351/351 382/382/382 367/367/367
f 321/321/321 349/349/349 367/367/367
f 349/349/349 350/350/350 367/367/367
f 313/313/313 382/382/382 311/311/311
f 382/382/382 348/348/348 311/311/311
f 383/383/383 372/372/372 375/375/375
f 357/357/357 384/384/384 354/354/354
f 384/384/384 385/385/385 354/354/354
f 386/386/386 385/385/385 384/384/384
f 389/389/389 388/388/388 387/387/387
f 388/388/388 390/390/390 387/387/387
f 392/392/392 391/391/391 388/388/388
f 391/391/391 393/393/393 388/388/388
f 396/396/396 395/395/395 394/394/394
f 395/395/395 397/397/397 394/394/394
f 388/388/388 393/393/393 390/390/390
f 396/396/396 394/394/394 398/398/398
f 401/401/401 400/400/400 399/399/399
f 401/401/401 403/403/403 400/400/400
f 304/304/304 372/372/372 404/404/404
f 372/372/372 383/383/383 404/404/404
f 346/346/346 303/303/303 345/345/345
f 303/303/303 404/404/404 345/345/345
f 327/327/327 354/354/354 325/325/325
f 354/354/354 385/385/385 325/325/325
f 366/366/366 406/406/406 405/405/405
f 406/406/406 407/407/407 405/405/405
f 359/359/359 295/295/295 364/364/364
f 335/335/335 409/409/409 408/408/408
f 336/336/336 286/286/286 328/328/328
f 286/286/286 327/327/327 328/328/328
f 324/324/324 410/410/410 326/326/326
f 410/410/410 342/342/342 326/326/326
f 340/340/340 342/342/342 411/411/411
f 342/342/342 412/412/412 411/411/411
f 412/412/412 342/342/342 410/410/410
f 399/399/399 414/414/414 401/401/401
f 414/414/414 415/415/415 401/401/401
f 407/407/407 322/322/322 290/290/290
f 322/322/322 287/287/287 290/290/290
f 358/358/358 307/307/307 416/416/416
f 307/307/307 308/308/308 416/416/416
f 416/416/416 417/417/417 358/358/358
f 417/417/417 360/360/360 358/358/358
f 407/407/407 290/290/290 405/405/405
f 290/290/290 288/288/288 405/405/405
f 363/363/363 288/288/288 361/361/361
f 288/288/288 307/307/307 361/361/361
f 372/372/372 304/304/304 374/374/374
f 349/349/349 321/321/321 304/304/304
f 321/321/321 374/374/374 304/304/304
f 386/386/386 418/418/418 385/385/385
f 418/418/418 325/325/325 385/385/385
f 386/386/386 419/419/419 418/418/418
f 419/419/419 324/324/324 418/418/418
f 335/335/335 331/331/331 409/409/409
f 331/331/331 332/332/332 409/409/409
f 351/351/351 352/352/352 348/348/348
f 352/352/352 347/347/347 348/348/348
f 338/338/338 324/324/324 300/300/300
f 324/324/324 419/419/419 300/300/300
f 423/423/423 389/389/389 319/319/319
f 389/389/389 318/318/318 319/319/319
f 413/413/413 423/423/423 319/319/319
f 389/389/389 387/387/387 394/394/394
f 387/387/387 398/398/398 394/394/394
f 394/394/394 317/317/317 389/389/389
f 317/317/317 318/318/318 389/389/389
f 382/382/382 313/313/313 367/367/367
f 313/313/313 424/424/424 367/367/367
f 366/366/366 405/405/405 365/365/365
f 405/405/405 363/363/363 365/365/365
f 410/410/410 343/343/343 412/412/412
f 343/343/343 344/344/344 412/412/412
f 393/393/393 398/398/398 390/390/390
f 398/398/398 387/387/387 390/390/390
f 393/393/393 425/425/425 398/398/398
f 352/352/352 353/353/353 355/355/355
f 353/353/353 426/426/426 355/355/355
f 357/357/357 426/426/426 305/305/305
f 426/426/426 302/302/302 305/305/305
f 315/315/315 380/380/380 421/421/421
f 380/380/380 420/420/420 421/421/421
f 413/413/413 427/427/427 423/423/423
f 427/427/427 389/389/389 423/423/423
f 308/308/308 313/313/313 416/416/416
f 313/313/313 314/314/314 416/416/416
f 289/289/289 424/424/424 308/308/308
f 424/424/424 313/313/313 308/308/308
f 431/431/431 395/395/395 430/430/430
f 395/395/395 432/432/432 430/430/430
f 435/435/435 434/434/434 433/433/433
f 297/297/297 419/419/419 293/293/293
f 419/419/419 386/386/386 293/293/293
f 433/433/433 437/437/437 436/436/436
f 437/437/437 438/438/438 436/436/436
f 434/434/434 439/439/439 433/433/433
f 439/439/439 437/437/437 433/433/433
f 395/395/395 396/396/396 432/432/432
f 396/396/396 440/440/440 432/432/432
f 419/419/419 297/297/297 300/300/300
f 396/396/396 441/441/441 440/440/440
f 320/320/320 373/373/373 321/321/321
f 373/373/373 374/374/374 321/321/321
f 438/438/438 443/443/443 442/442/442
f 443/443/443 444/444/444 442/442/442
f 438/438/438 442/442/442 436/436/436
f 442/442/442 445/445/445 436/436/436
f 420/420/420 380/380/380 428/428/428
f 335/335/335 446/446/446 285/285/285
f 335/335/335 408/408/408 446/446/446
f 408/408/408 447/447/447 446/446/446
f 371/371/371 312/312/312 370/370/370
f 315/315/315 421/421/421 319/319/319
f 357/357/357 305/305/305 384/384/384
f 305/305/305 346/346/346 384/384/384
f 346/346/346 294/294/294 292/292/292
f 440/440/440 448/448/448 432/432/432
f 448/448/448 449/449/449 432/432/432
f 378/378/378 406/406/406 306/306/306
f 396/396/396 398/398/398 441/441/441
f 398/398/398 425/425/425 441/441/441
f 360/360/360 417/417/417 362/362/362
f 417/417/417 371/371/371 362/362/362
f 323/323/323 326/326/326 341/341/341
f 326/326/326 342/342/342 341/341/341
f 337/337/337 339/339/339 410/410/410
f 339/339/339 343/343/343 410/410/410
f 451/451/451 450/450/450 430/430/430
f 450/450/450 431/431/431 430/430/430
f 450/450/450 452/452/452 431/431/431
f 454/454/454 444/444/444 453/453/453
f 444/444/444 443/443/443 453/453/453
f 347/347/347 356/356/356 284/284/284
f 356/356/356 354/354/354 284/284/284
f 354/354/354 327/327/327 284/284/284
f 327/327/327 286/286/286 284/284/284
f 292/292/292 293/293/293 384/384/384
f 293/293/293 386/386/386 384/384/384
f 292/292/292 384/384/384 346/346/346
f 428/428/428 380/380/380 381/381/381
f 455/455/455 393/393/393 391/391/391
f 424/424/424 289/289/289 367/367/367
f 289/289/289 287/287/287 367/367/367
f 441/441/441 425/425/425 456/456/456
f 425/425/425 457/457/457 456/456/456
f 441/441/441 456/456/456 440/440/440
f 404/404/404 303/303/303 304/304/304
f 325/325/325 418/418/418 324/324/324
f 357/357/357 355/355/355 426/426/426
f 392/392/392 429/429/429 391/391/391
f 430/430/430 449/449/449 451/451/451
f 450/450/450 451/451/451 458/458/458
f 456/456/456 459/459/459 440/440/440
f 440/440/440 459/459/459 448/448/448
f 346/346/346 305/305/305 303/303/303
f 425/425/425 393/393/393 457/457/457
f 458/458/458 451/451/451 460/460/460
f 461/461/461 458/458/458 460/460/460
f 405/405/405 288/288/288 363/363/363
f 449/449/449 430/430/430 432/432/432
f 355/355/355 356/356/356 352/352/352
f 356/356/356 347/347/347 352/352/352
f 377/377/377 407/407/407 378/378/378
f 407/407/407 406/406/406 378/378/378
f 407/407/407 377/377/377 322/322/322
f 377/377/377 320/320/320 322/322/322
f 416/416/416 462/462/462 417/417/417
f 462/462/462 371/371/371 417/417/417
f 307/307/307 358/358/358 361/361/361
f 462/462/462 416/416/416 314/314/314
f 410/410/410 324/324/324 338/338/338
f 410/410/410 338/338/338 337/337/337
f 351/351/351 348/348/348 382/382/382
f 464/464/464 463/463/463 379/379/379
f 463/463/463 381/381/381 379/379/379
f 389/389/389 427/427/427 388/388/388
f 427/427/427 392/392/392 388/388/388
f 426/426/426 353/353/353 302/302/302
f 336/336/336 328/328/328 335/335/335
f 421/421/421 422/422/422 319/319/319
f 450/450/450 458/458/458 452/452/452
f 458/458/458 461/461/461 452/452/452
f 461/461/461 465/465/465 452/452/452
f 397/397/397 466/466/466 317/317/317
f 466/466/466 316/316/316 317/317/317
f 466/466/466 397/397/397 465/465/465
f 397/397/397 452/452/452 465/465/465
f 395/395/395 431/431/431 397/397/397
f 431/431/431 452/452/452 397/397/397
f 394/394/394 397/397/397 317/317/317
f 310/310/310 311/311/311 285/285/285
f 435/435/435 468/468/468 467/467/467
f 468/468/468 445/445/445 467/467/467
f 445/445/445 469/469/469 467/467/467
f 442/442/442 469/469/469 445/445/445
f 470/470/470 469/469/469 444/444/444
f 469/469/469 442/442/442 444/444/444
f 470/470/470 444/444/444 454/454/454
f 399/399/399 402/402/402 472/472/472
f 402/402/402 471/471/471 472/472/472
f 462/462/462 369/369/369 371/371/371
f 369/369/369 312/312/312 371/371/371
f 311/311/311 309/309/309 314/314/314
f 309/309/309 369/369/369 314/314/314
f 369/369/369 462/462/462 314/314/314
f 435/435/435 467/467/467 473/473/473
f 469/469/469 473/473/473 467/467/467
f 472/472/472 414/414/414 399/399/399
f 435/435/435 433/433/433 468/468/468
f 433/433/433 436/436/436 468/468/468
f 436/436/436 445/445/445 468/468/468
f 477/477/477 476/476/476 475/475/475
f 476/476/476 478/478/478 475/475/475
f 479/479/479 478/478/478 476/476/476
f 480/480/480 476/476/476 481/481/481
f 476/476/476 477/477/477 481/481/481
f 483/483/483 482/482/482 477/477/477
f 482/482/482 481/481/481 477/477/477
f 475/475/475 483/483/483 477/477/477
f 481/481/481 486/486/486 485/485/485
f 486/486/486 487/487/487 485/485/485
f 490/490/490 489/489/489 488/488/488
f 489/489/489 474/474/474 488/488/488
f 491/491/491 490/490/490 488/488/488
f 484/484/484 489/489/489 492/492/492
f 474/474/474 489/489/489 484/484/484
f 493/493/493 482/482/482 483/483/483
f 497/497/497 494/494/494 496/496/496
f 495/495/495 497/497/497 496/496/496
f 79/79/79 68/68/68 67/67/67
f 79/79/79 80/80/80 68/68/68
