mtllib pz4_hull_m1.mtl
o pz4_hull_m1
v 0.65022 0.02649 1.47123
v 0.85468 0.02616 1.37549
v 0.83418 0.37483 1.37982
v 0.85468 0.02616 1.37549
v 0.85540 0.37491 1.37524
v 0.83418 0.37483 1.37982
v -0.82754 0.37711 1.37861
v -0.84947 0.02849 1.37424
v -0.64500 0.02826 1.47029
v -0.82754 0.37711 1.37861
v -0.84876 0.37724 1.37399
v -0.84947 0.02849 1.37424
v -0.87312 0.20756 1.33539
v -0.63668 -0.10370 1.43681
v -0.97493 -0.10305 1.01208
v 0.87903 0.20516 1.33667
v 0.97953 -0.10572 1.01352
v 0.64132 -0.10545 1.43775
v 0.85469 0.02636 1.37549
v 0.87370 0.02623 1.38579
v 1.04785 0.02626 0.87264
v 1.02857 0.02634 0.86235
v 0.66107 0.02647 1.49152
v 0.87370 0.02623 1.38579
v 0.85469 0.02636 1.37549
v 0.65022 0.02649 1.47123
v 1.02831 0.02629 0.86235
v 1.06542 0.02623 0.88191
v 1.25236 0.02625 0.36878
v -0.84947 0.02869 1.37425
v -1.02340 0.02915 0.86085
v -1.04268 0.02912 0.87111
v -0.86849 0.02861 1.38451
v -0.84947 0.02869 1.37425
v -0.86849 0.02861 1.38451
v -0.65585 0.02827 1.49055
v -0.64500 0.02826 1.47029
v -1.02314 0.02910 0.86085
v -1.24722 0.02966 0.36695
v -1.06024 0.02914 0.88035
v 0.76787 0.48922 1.02151
v 0.74870 0.48923 1.07039
v 0.94445 0.37120 1.11442
v 0.92528 0.37120 1.16330
v 0.76791 0.50992 1.02150
v 0.74874 0.50992 1.07037
v 0.94426 0.39329 1.12026
v 0.92509 0.39329 1.16914
v 0.74874 0.50992 1.07037
v 0.74870 0.48923 1.07039
v 0.92509 0.39329 1.16914
v 0.92528 0.37120 1.16330
v 0.76791 0.50992 1.02150
v 0.76787 0.48922 1.02151
v 0.94445 0.37120 1.11442
v 0.94426 0.39329 1.12026
v 0.92528 0.37120 1.16330
v 0.92509 0.39329 1.16914
v 0.92411 0.02705 1.16933
v 0.90589 0.02709 1.16347
v 0.85540 0.37491 1.37524
v 0.85468 0.02616 1.37549
v 1.02848 0.02626 0.86235
v 1.02940 0.43078 0.86206
v 0.87442 0.37498 1.38553
v 1.04868 0.43080 0.87235
v 1.04785 0.02626 0.87264
v 0.87370 0.02623 1.38579
v 0.84493 0.37481 1.40010
v 0.87370 0.02623 1.38579
v 0.66107 0.02647 1.49152
v 0.87442 0.37498 1.38553
v 0.83418 0.37483 1.37982
v 0.84493 0.37481 1.40010
v 0.65022 0.02649 1.47123
v 0.66107 0.02647 1.49152
v 1.02940 0.43078 0.86206
v 1.04868 0.43080 0.87235
v 0.85540 0.37491 1.37524
v 0.87442 0.37498 1.38553
v 0.83418 0.37483 1.37982
v 0.84493 0.37481 1.40010
v 1.06542 0.02623 0.88191
v 1.06635 0.48278 0.88158
v 1.25329 0.48279 0.36844
v 1.25236 0.02625 0.36878
v 1.02925 0.48284 0.86202
v 1.25329 0.48279 0.36844
v 1.06635 0.48278 0.88158
v 1.02848 0.02626 0.86235
v 1.02925 0.48284 0.86202
v 1.04785 0.02626 0.87264
v 1.06635 0.48278 0.88158
v 1.06542 0.02623 0.88191
v -0.76079 0.49131 1.02039
v -0.74161 0.49126 1.06929
v -0.93784 0.37377 1.11304
v -0.91867 0.37372 1.16195
v -0.76075 0.51201 1.02037
v -0.74157 0.51196 1.06928
v -0.93756 0.39586 1.11888
v -0.91839 0.39581 1.16779
v -0.74157 0.51196 1.06928
v -0.74161 0.49126 1.06929
v -0.91839 0.39581 1.16779
v -0.91867 0.37372 1.16195
v -0.76075 0.51201 1.02037
v -0.76079 0.49131 1.02039
v -0.93784 0.37377 1.11304
v -0.93756 0.39586 1.11888
v -0.91867 0.37372 1.16195
v -0.90070 0.02956 1.16214
v -0.91891 0.02957 1.16798
v -0.91839 0.39581 1.16779
v -0.84876 0.37724 1.37399
v -1.02257 0.43358 0.86056
v -1.02331 0.02906 0.86085
v -0.84947 0.02849 1.37424
v -0.86778 0.37736 1.38425
v -0.86849 0.02861 1.38451
v -1.04268 0.02912 0.87111
v -1.04185 0.43366 0.87082
v -0.65585 0.02827 1.49055
v -0.86849 0.02861 1.38451
v -0.83830 0.37711 1.39887
v -0.86778 0.37736 1.38425
v -0.64500 0.02826 1.47029
v -0.83830 0.37711 1.39887
v -0.82754 0.37711 1.37861
v -0.65585 0.02827 1.49055
v -0.84876 0.37724 1.37399
v -1.04185 0.43366 0.87082
v -1.02257 0.43358 0.86056
v -0.86778 0.37736 1.38425
v -0.82754 0.37711 1.37861
v -0.83830 0.37711 1.39887
v -1.24628 0.48621 0.36661
v -1.05930 0.48568 0.88002
v -1.06024 0.02914 0.88035
v -1.24722 0.02966 0.36695
v -1.02220 0.48564 0.86052
v -1.05930 0.48568 0.88002
v -1.24628 0.48621 0.36661
v -1.04268 0.02912 0.87111
v -1.02220 0.48564 0.86052
v -1.02331 0.02906 0.86085
v -1.05930 0.48568 0.88002
v -1.06024 0.02914 0.88035
v 0.64132 -0.10545 1.43775
v 0.74599 0.45360 1.26911
v 0.87903 0.20516 1.33667
v -0.63668 -0.10370 1.43681
v -0.73907 0.45563 1.26802
v -0.87312 0.20756 1.33539
v -0.46483 0.17663 1.35066
v -0.39275 0.18972 1.39310
v -0.39285 0.14379 1.36059
v -0.44365 0.21294 1.38608
v -0.49451 0.25572 1.32681
v -0.46464 0.26887 1.36921
v -0.39258 0.27423 1.38682
v -0.46451 0.33472 1.30300
v -0.44343 0.32473 1.35238
v -0.39239 0.36737 1.29318
v 0.39862 0.18864 1.39367
v 0.47064 0.17536 1.35135
v 0.39853 0.14271 1.36116
v 0.44962 0.21172 1.38673
v 0.39880 0.27315 1.38740
v 0.47083 0.26759 1.36989
v 0.50065 0.25436 1.32754
v 0.44985 0.32351 1.35303
v 0.39895 0.34673 1.34601
v 0.47097 0.33344 1.30368
v 0.39898 0.36628 1.29376
v -0.67968 0.32252 1.32764
v -0.59050 0.31627 1.30801
v -0.59048 0.32240 1.32771
v -0.67970 0.31639 1.30794
v -0.56652 0.29607 1.33566
v -0.56673 0.19226 1.34543
v -0.56671 0.19840 1.36513
v -0.56653 0.28994 1.31596
v -0.59079 0.17213 1.37305
v -0.68001 0.16603 1.35297
v -0.67999 0.17226 1.37298
v -0.59080 0.16600 1.35334
v -0.70396 0.19859 1.36503
v -0.70377 0.29002 1.31551
v -0.70375 0.29626 1.33556
v -0.70397 0.19213 1.34429
v -0.64148 0.27132 1.35212
v -0.62898 0.22847 1.36505
v -0.64157 0.22848 1.36504
v -0.62889 0.27130 1.35213
v -0.70377 0.29002 1.31551
v -0.67968 0.32252 1.32764
v -0.70375 0.29626 1.33556
v -0.67970 0.31639 1.30794
v -0.56652 0.29607 1.33566
v -0.59050 0.31627 1.30801
v -0.56653 0.28994 1.31596
v -0.59048 0.32240 1.32771
v -0.59079 0.17213 1.37305
v -0.56673 0.19226 1.34543
v -0.59080 0.16600 1.35334
v -0.56671 0.19840 1.36513
v -0.70396 0.19859 1.36503
v -0.68001 0.16603 1.35297
v -0.70397 0.19213 1.34429
v -0.67999 0.17226 1.37298
v -0.87312 0.20756 1.33539
v -0.97493 -0.10305 1.01208
v -0.97672 -0.10282 0.52473
v -0.73907 0.45563 1.26802
v 0.87903 0.20516 1.33667
v 0.98129 -0.10550 0.52617
v 0.97953 -0.10572 1.01352
v 0.74599 0.45360 1.26911
v 0.64132 -0.10545 1.43775
v -0.97493 -0.10305 1.01208
v -0.63668 -0.10370 1.43681
v 0.97953 -0.10572 1.01352
v -0.97672 -0.10282 0.52473
v 0.98129 -0.10550 0.52617
v -0.65944 -0.10135 -0.34045
v 0.66397 -0.10316 -0.33948
v -0.08217 -0.10361 -0.57034
v 0.00225 -0.10372 -0.58710
v 0.08668 -0.10384 -0.57022
v -0.70396 0.19859 1.36503
v -0.70375 0.29626 1.33556
v -0.64157 0.22848 1.36504
v -0.67999 0.17226 1.37298
v -0.62898 0.22847 1.36505
v -0.59079 0.17213 1.37305
v -0.64148 0.27132 1.35212
v -0.56671 0.19840 1.36513
v -0.62889 0.27130 1.35213
v -0.67968 0.32252 1.32764
v -0.56652 0.29607 1.33566
v -0.59048 0.32240 1.32771
vt 0.43859 0.24634
vt 0.44170 0.24634
vt 0.44164 0.20329
vt 0.44170 0.24634
vt 0.44170 0.20329
vt 0.44164 0.20329
vt 0.44164 0.20329
vt 0.44170 0.24634
vt 0.43859 0.24634
vt 0.44164 0.20329
vt 0.44170 0.20329
vt 0.44170 0.24634
vt 0.40333 0.24061
vt 0.40245 0.25951
vt 0.40617 0.25951
vt 0.40333 0.24110
vt 0.40617 0.25951
vt 0.40245 0.25951
vt 0.44189 0.20061
vt 0.44195 0.20305
vt 0.44969 0.19598
vt 0.44963 0.19378
vt 0.43859 0.24732
vt 0.44170 0.20305
vt 0.44146 0.20207
vt 0.43835 0.24598
vt 0.45018 0.18634
vt 0.45018 0.18927
vt 0.45781 0.18927
vt 0.44189 0.20061
vt 0.44963 0.19378
vt 0.44969 0.19598
vt 0.44195 0.20305
vt 0.44146 0.20207
vt 0.44170 0.20305
vt 0.43859 0.24732
vt 0.43835 0.24598
vt 0.45018 0.18634
vt 0.45781 0.18927
vt 0.45018 0.18927
vt 0.40231 0.41098
vt 0.40231 0.40659
vt 0.39930 0.41098
vt 0.39932 0.40659
vt 0.39914 0.40146
vt 0.39914 0.39659
vt 0.39325 0.40268
vt 0.39325 0.39707
vt 0.39914 0.39659
vt 0.39914 0.39342
vt 0.39325 0.39707
vt 0.39366 0.39415
vt 0.39914 0.40146
vt 0.39914 0.40488
vt 0.39366 0.40561
vt 0.39325 0.40268
vt 0.39889 0.41146
vt 0.39927 0.41390
vt 0.39322 0.41366
vt 0.39322 0.41146
vt 0.44170 0.20329
vt 0.44170 0.24634
vt 0.44988 0.24634
vt 0.44988 0.19634
vt 0.44195 0.20305
vt 0.44969 0.19598
vt 0.44969 0.24732
vt 0.44195 0.24732
vt 0.44170 0.20305
vt 0.44195 0.24732
vt 0.43859 0.24732
vt 0.44195 0.20305
vt 0.44146 0.20207
vt 0.44170 0.20305
vt 0.43835 0.24598
vt 0.43859 0.24732
vt 0.44963 0.19378
vt 0.44969 0.19598
vt 0.44189 0.20061
vt 0.44195 0.20305
vt 0.44164 0.20085
vt 0.44170 0.20305
vt 0.45018 0.24732
vt 0.45018 0.18927
vt 0.45781 0.18927
vt 0.45781 0.24732
vt 0.45018 0.18634
vt 0.45781 0.18927
vt 0.45018 0.18927
vt 0.44969 0.24720
vt 0.44969 0.18939
vt 0.44994 0.24732
vt 0.45018 0.18927
vt 0.45018 0.24732
vt 0.40231 0.41098
vt 0.40231 0.40659
vt 0.39930 0.41098
vt 0.39932 0.40659
vt 0.39914 0.40146
vt 0.39914 0.39659
vt 0.39325 0.40268
vt 0.39325 0.39707
vt 0.39914 0.39659
vt 0.39914 0.39342
vt 0.39325 0.39707
vt 0.39366 0.39415
vt 0.39914 0.40146
vt 0.39914 0.40488
vt 0.39366 0.40561
vt 0.39325 0.40268
vt 0.39889 0.41146
vt 0.39322 0.41146
vt 0.39322 0.41366
vt 0.39927 0.41390
vt 0.44170 0.20329
vt 0.44988 0.19634
vt 0.44988 0.24634
vt 0.44170 0.24634
vt 0.44195 0.20305
vt 0.44195 0.24732
vt 0.44969 0.24732
vt 0.44969 0.19598
vt 0.43859 0.24732
vt 0.44195 0.24732
vt 0.44170 0.20305
vt 0.44195 0.20305
vt 0.43835 0.24598
vt 0.44170 0.20305
vt 0.44146 0.20207
vt 0.43859 0.24732
vt 0.44189 0.20061
vt 0.44969 0.19598
vt 0.44963 0.19378
vt 0.44195 0.20305
vt 0.44164 0.20085
vt 0.44170 0.20305
vt 0.45781 0.18927
vt 0.45018 0.18927
vt 0.45018 0.24732
vt 0.45781 0.24732
vt 0.45018 0.18634
vt 0.45018 0.18927
vt 0.45781 0.18927
vt 0.44994 0.24732
vt 0.44969 0.18939
vt 0.44969 0.24720
vt 0.45018 0.18927
vt 0.45018 0.24732
vt 0.37982 0.38707
vt 0.37821 0.31561
vt 0.37613 0.34732
vt 0.39972 0.38707
vt 0.40133 0.31561
vt 0.40341 0.34732
vt 0.39724 0.35049
vt 0.39593 0.34927
vt 0.39593 0.35415
vt 0.39673 0.34634
vt 0.39779 0.34146
vt 0.39708 0.34122
vt 0.39593 0.34073
vt 0.39724 0.33220
vt 0.39676 0.33610
vt 0.39593 0.32854
vt 0.38343 0.34951
vt 0.38249 0.35122
vt 0.38343 0.35537
vt 0.38292 0.34683
vt 0.38343 0.34146
vt 0.38267 0.34146
vt 0.38202 0.34122
vt 0.38296 0.33585
vt 0.38343 0.33293
vt 0.38249 0.33122
vt 0.38343 0.32683
vt 0.41056 0.34781
vt 0.41199 0.34634
vt 0.41193 0.34781
vt 0.41050 0.34634
vt 0.41230 0.35049
vt 0.41248 0.36146
vt 0.41230 0.36024
vt 0.41251 0.35024
vt 0.41193 0.36293
vt 0.41056 0.36464
vt 0.41056 0.36293
vt 0.41193 0.36464
vt 0.41016 0.36024
vt 0.41001 0.34976
vt 0.41016 0.35049
vt 0.41001 0.36098
vt 0.41114 0.35293
vt 0.41135 0.35732
vt 0.41114 0.35732
vt 0.41135 0.35293
vt 0.41001 0.34976
vt 0.41056 0.34781
vt 0.41016 0.35049
vt 0.41050 0.34634
vt 0.41230 0.35049
vt 0.41199 0.34634
vt 0.41251 0.35024
vt 0.41193 0.34781
vt 0.41193 0.36293
vt 0.41248 0.36146
vt 0.41193 0.36464
vt 0.41230 0.36024
vt 0.41016 0.36024
vt 0.41056 0.36464
vt 0.41001 0.36098
vt 0.41056 0.36293
vt 0.40333 0.24061
vt 0.40617 0.25951
vt 0.41050 0.25927
vt 0.40392 0.22549
vt 0.40333 0.24061
vt 0.41050 0.25927
vt 0.40617 0.25951
vt 0.40392 0.22549
vt 0.48172 0.12518
vt 0.47922 0.04198
vt 0.48172 0.05939
vt 0.47922 0.14256
vt 0.47635 0.04189
vt 0.47635 0.14268
vt 0.47129 0.05823
vt 0.47129 0.12634
vt 0.46995 0.08793
vt 0.46983 0.09232
vt 0.46995 0.09665
vt 0.41016 0.36024
vt 0.41016 0.35049
vt 0.41114 0.35732
vt 0.41056 0.36293
vt 0.41135 0.35732
vt 0.41193 0.36293
vt 0.41114 0.35293
vt 0.41230 0.36024
vt 0.41135 0.35293
vt 0.41056 0.34781
vt 0.41230 0.35049
vt 0.41193 0.34781
usemtl pz4_hull_m1
s 1
f 3/3 2/2 1/1
f 6/6 5/5 4/4
f 9/9 8/8 7/7
f 12/12 11/11 10/10
f 15/15 14/14 13/13
f 18/18 17/17 16/16
f 21/21 20/20 19/19
f 21/21 19/19 22/22
f 25/25 24/24 23/23
f 25/25 23/23 26/26
f 29/29 28/28 27/27
f 32/32 31/31 30/30
f 32/32 30/30 33/33
f 36/36 35/35 34/34
f 36/36 34/34 37/37
f 39/39 38/38 40/40
f 42/42 41/41 43/43
f 42/42 43/43 44/44
f 47/47 45/45 46/46
f 47/47 46/46 48/48
f 51/51 49/49 50/50
f 51/51 50/50 52/52
f 53/53 55/55 54/54
f 55/55 53/53 56/56
f 59/59 58/58 57/57
f 59/59 57/57 60/60
f 63/63 62/62 61/61
f 63/63 61/61 64/64
f 67/67 66/66 65/65
f 67/67 65/65 68/68
f 71/71 70/70 69/69
f 70/70 72/72 69/69
f 75/75 74/74 73/73
f 74/74 75/75 76/76
f 79/79 78/78 77/77
f 78/78 79/79 80/80
f 81/81 80/80 79/79
f 80/80 81/81 82/82
f 85/85 84/84 83/83
f 85/85 83/83 86/86
f 88/88 87/87 89/89
f 92/92 91/91 90/90
f 91/91 92/92 93/93
f 92/92 94/94 93/93
f 97/97 95/95 96/96
f 97/97 96/96 98/98
f 101/101 100/100 99/99
f 101/101 102/102 100/100
f 105/105 104/104 103/103
f 105/105 106/106 104/104
f 108/108 109/109 107/107
f 110/110 107/107 109/109
f 113/113 112/112 111/111
f 113/113 111/111 114/114
f 117/117 116/116 115/115
f 117/117 115/115 118/118
f 121/121 120/120 119/119
f 121/121 119/119 122/122
f 125/125 124/124 123/123
f 125/125 126/126 124/124
f 129/129 128/128 127/127
f 130/130 127/127 128/128
f 133/133 132/132 131/131
f 134/134 131/131 132/132
f 131/131 134/134 135/135
f 136/136 135/135 134/134
f 139/139 138/138 137/137
f 139/139 137/137 140/140
f 143/143 142/142 141/141
f 146/146 145/145 144/144
f 147/147 144/144 145/145
f 147/147 148/148 144/144
f 151/151 150/150 149/149
f 152/152 153/153 154/154
f 157/157 156/156 155/155
f 158/158 155/155 156/156
f 155/155 158/158 159/159
f 160/160 159/159 158/158
f 158/158 161/161 160/160
f 159/159 160/160 162/162
f 163/163 162/162 160/160
f 160/160 161/161 163/163
f 162/162 163/163 164/164
f 167/167 166/166 165/165
f 168/168 165/165 166/166
f 168/168 169/169 165/165
f 170/170 169/169 168/168
f 166/166 171/171 168/168
f 170/170 168/168 171/171
f 172/172 169/169 170/170
f 173/173 169/169 172/172
f 172/172 170/170 174/174
f 171/171 174/174 170/170
f 173/173 172/172 175/175
f 174/174 175/175 172/172
f 178/178 177/177 176/176
f 179/179 176/176 177/177
f 182/182 181/181 180/180
f 183/183 180/180 181/181
f 186/186 185/185 184/184
f 187/187 184/184 185/185
f 190/190 189/189 188/188
f 191/191 188/188 189/189
f 194/194 193/193 192/192
f 193/193 195/195 192/192
f 198/198 197/197 196/196
f 199/199 196/196 197/197
f 202/202 201/201 200/200
f 203/203 200/200 201/201
f 206/206 205/205 204/204
f 207/207 204/204 205/205
f 210/210 209/209 208/208
f 211/211 208/208 209/209
f 214/214 213/213 212/212
f 212/212 215/215 214/214
f 218/218 217/217 216/216
f 219/219 216/216 217/217
f 222/222 221/221 220/220
f 223/223 220/220 221/221
f 221/221 224/224 223/223
f 225/225 223/223 224/224
f 224/224 226/226 225/225
f 227/227 225/225 226/226
f 228/228 227/227 226/226
f 229/229 227/227 228/228
f 230/230 227/227 229/229
f 233/233 232/232 231/231
f 233/233 231/231 234/234
f 234/234 235/235 233/233
f 236/236 235/235 234/234
f 237/237 232/232 233/233
f 235/235 236/236 238/238
f 238/238 239/239 235/235
f 232/232 237/237 240/240
f 241/241 239/239 238/238
f 239/239 241/241 242/242
f 242/242 237/237 239/239
f 240/240 237/237 242/242
