mtllib pz4_turret_m4.mtl
o pz4_turret_m4
v -0.29304 0.77617 0.07756
v -0.29306 0.76633 0.08933
v -0.29307 0.76647 -0.21773
v -0.29305 0.77630 -0.20598
v -0.29304 0.77617 0.07756
v -0.29307 0.76647 -0.21773
v -0.30355 0.79796 -0.03097
v -0.22006 0.79785 -0.03007
v -0.22012 0.76839 -0.03005
v -0.30361 0.76851 -0.03095
v -0.22012 0.76839 -0.03005
v -0.22006 0.79785 -0.03007
v -0.19893 0.76837 -0.03858
v -0.19886 0.79782 -0.03860
v -0.18267 0.76836 -0.05915
v -0.18261 0.79781 -0.05917
v -0.17595 0.76836 -0.08388
v -0.17589 0.79781 -0.08390
v -0.18230 0.76838 -0.10930
v -0.18224 0.79783 -0.10933
v -0.19825 0.76841 -0.13046
v -0.19818 0.79787 -0.13048
v -0.21931 0.76844 -0.13953
v -0.21925 0.79790 -0.13955
v -0.21925 0.79790 -0.13955
v -0.30271 0.79801 -0.14045
v -0.30277 0.76856 -0.14043
v -0.21931 0.76844 -0.13953
v -0.30271 0.79801 -0.14045
v -0.30298 0.79800 -0.10440
v -0.30305 0.76854 -0.10437
v -0.30277 0.76856 -0.14043
v -0.30298 0.79800 -0.10440
v -0.26843 0.79795 -0.10409
v -0.26849 0.76849 -0.10406
v -0.30305 0.76854 -0.10437
v -0.26843 0.79795 -0.10409
v -0.26871 0.79793 -0.06582
v -0.26877 0.76848 -0.06579
v -0.26849 0.76849 -0.10406
v -0.26871 0.79793 -0.06582
v -0.30328 0.79798 -0.06613
v -0.30334 0.76852 -0.06611
v -0.26877 0.76848 -0.06579
v -0.30328 0.79798 -0.06613
v -0.30355 0.79796 -0.03097
v -0.30361 0.76851 -0.03095
v -0.30334 0.76852 -0.06611
v -0.26843 0.79795 -0.10409
v -0.30298 0.79800 -0.10440
v -0.30271 0.79801 -0.14045
v -0.21925 0.79790 -0.13955
v -0.22006 0.79785 -0.03007
v -0.19818 0.79787 -0.13048
v -0.19886 0.79782 -0.03860
v -0.18224 0.79783 -0.10933
v -0.18261 0.79781 -0.05917
v -0.17589 0.79781 -0.08390
v -0.26871 0.79793 -0.06582
v -0.30355 0.79796 -0.03097
v -0.30328 0.79798 -0.06613
v -0.23715 0.76643 -0.30137
v 0.00004 0.76615 -0.39946
v -0.12833 0.76632 -0.37401
v 0.00006 0.76585 0.27149
v -0.12831 0.76603 0.24585
v -0.29306 0.76633 0.08933
v -0.29307 0.76647 -0.21773
v -0.23714 0.76622 0.17306
v 0.00008 0.77568 0.26482
v -0.11807 0.79222 0.22124
v 0.00011 0.79204 0.24483
v -0.12574 0.77587 0.23970
v 0.00006 0.76585 0.27149
v -0.12831 0.76603 0.24585
v -0.23241 0.77605 0.16834
v -0.23714 0.76622 0.17306
v -0.29306 0.76633 0.08933
v -0.29304 0.77617 0.07756
v -0.21825 0.79238 0.15422
v -0.28520 0.79252 0.05397
v 0.00006 0.77599 -0.39280
v -0.12833 0.76632 -0.37401
v 0.00004 0.76615 -0.39946
v -0.12576 0.77615 -0.36787
v 0.00009 0.79233 -0.37284
v -0.11809 0.79248 -0.34942
v -0.23243 0.77626 -0.29667
v -0.21827 0.79258 -0.28254
v -0.29305 0.77630 -0.20598
v -0.28521 0.79263 -0.18240
v -0.23715 0.76643 -0.30137
v -0.29307 0.76647 -0.21773
v -0.11809 0.79248 -0.34942
v -0.28521 0.79263 -0.18240
v -0.21827 0.79258 -0.28254
v 0.00009 0.79233 -0.37284
v 0.00011 0.79204 0.24483
v -0.11807 0.79222 0.22124
v -0.21825 0.79238 0.15422
v -0.28520 0.79252 0.05397
v -0.28521 0.79263 -0.18240
v -0.28520 0.79252 0.05397
v -0.29305 0.77630 -0.20598
v 0.00004 0.76615 -0.39946
v 0.00006 0.76585 0.27149
v 0.00008 0.77568 0.26482
v 0.00011 0.79204 0.24483
v 0.00006 0.77599 -0.39280
v 0.00009 0.79233 -0.37284
v 0.30452 0.79709 -0.02966
v 0.30446 0.76759 -0.02964
v 0.22086 0.76770 -0.02886
v 0.22092 0.79720 -0.02888
v 0.22086 0.76770 -0.02886
v 0.19970 0.79724 -0.03746
v 0.22092 0.79720 -0.02888
v 0.19964 0.76774 -0.03744
v 0.18342 0.79727 -0.05808
v 0.18336 0.76777 -0.05806
v 0.17668 0.79729 -0.08285
v 0.17662 0.76779 -0.08283
v 0.17662 0.76779 -0.08283
v 0.18305 0.79729 -0.10831
v 0.17668 0.79729 -0.08285
v 0.18298 0.76779 -0.10829
v 0.19901 0.79728 -0.12947
v 0.19895 0.76778 -0.12945
v 0.22010 0.79725 -0.13852
v 0.22004 0.76775 -0.13850
v 0.22010 0.79725 -0.13852
v 0.22004 0.76775 -0.13850
v 0.30362 0.76764 -0.13928
v 0.30368 0.79714 -0.13930
v 0.30368 0.79714 -0.13930
v 0.30362 0.76764 -0.13928
v 0.30389 0.76762 -0.10317
v 0.30396 0.79712 -0.10320
v 0.30396 0.79712 -0.10320
v 0.30389 0.76762 -0.10317
v 0.26930 0.76767 -0.10291
v 0.26936 0.79717 -0.10293
v 0.26936 0.79717 -0.10293
v 0.26930 0.76767 -0.10291
v 0.26958 0.76765 -0.06458
v 0.26965 0.79715 -0.06461
v 0.26965 0.79715 -0.06461
v 0.26958 0.76765 -0.06458
v 0.30419 0.76761 -0.06485
v 0.30425 0.79711 -0.06487
v 0.30425 0.79711 -0.06487
v 0.30419 0.76761 -0.06485
v 0.30446 0.76759 -0.02964
v 0.30452 0.79709 -0.02966
v 0.26965 0.79715 -0.06461
v 0.30425 0.79711 -0.06487
v 0.30452 0.79709 -0.02966
v 0.22092 0.79720 -0.02888
v 0.26936 0.79717 -0.10293
v 0.22010 0.79725 -0.13852
v 0.19901 0.79728 -0.12947
v 0.19970 0.79724 -0.03746
v 0.18305 0.79729 -0.10831
v 0.18342 0.79727 -0.05808
v 0.17668 0.79729 -0.08285
v 0.30368 0.79714 -0.13930
v 0.30396 0.79712 -0.10320
v 0.00016 0.76606 -0.39946
v 0.23787 0.76569 -0.30069
v 0.12887 0.76588 -0.37360
v 0.00018 0.76575 0.27248
v 0.12890 0.76559 0.24719
v 0.29388 0.76544 0.09067
v 0.23788 0.76547 0.17444
v 0.29387 0.76558 -0.21684
v 0.11874 0.79184 0.22252
v 0.00020 0.77561 0.26581
v 0.00023 0.79199 0.24579
v 0.12636 0.77545 0.24102
v 0.21908 0.79173 0.15554
v 0.23319 0.77533 0.16971
v 0.28612 0.79169 0.05525
v 0.29390 0.77529 0.07889
v 0.29388 0.76544 0.09067
v 0.23788 0.76547 0.17444
v 0.00018 0.76575 0.27248
v 0.12890 0.76559 0.24719
v 0.12887 0.76588 -0.37360
v 0.00017 0.77591 -0.39280
v 0.00016 0.76606 -0.39946
v 0.12635 0.77573 -0.36745
v 0.23787 0.76569 -0.30069
v 0.23317 0.77555 -0.29599
v 0.29387 0.76558 -0.21684
v 0.29389 0.77542 -0.20508
v 0.21906 0.79194 -0.28187
v 0.28611 0.79180 -0.18147
v 0.00021 0.79228 -0.37280
v 0.11872 0.79210 -0.34898
v 0.21908 0.79173 0.15554
v 0.28611 0.79180 -0.18147
v 0.28612 0.79169 0.05525
v 0.11874 0.79184 0.22252
v 0.00023 0.79199 0.24579
v 0.00021 0.79228 -0.37280
v 0.11872 0.79210 -0.34898
v 0.21906 0.79194 -0.28187
v 0.29388 0.76544 0.09067
v 0.29389 0.77542 -0.20508
v 0.29387 0.76558 -0.21684
v 0.29390 0.77529 0.07889
v 0.28612 0.79169 0.05525
v 0.28611 0.79180 -0.18147
v 0.00020 0.77561 0.26581
v 0.00018 0.76575 0.27248
v 0.00016 0.76606 -0.39946
v 0.00023 0.79199 0.24579
v 0.00017 0.77591 -0.39280
v 0.00021 0.79228 -0.37280
vt 0.17396 0.23439
vt 0.17409 0.23439
vt 0.17116 0.23439
vt 0.17128 0.23439
vt 0.17396 0.23439
vt 0.17116 0.23439
vt 0.17302 0.23134
vt 0.17302 0.23829
vt 0.17329 0.23939
vt 0.17326 0.23146
vt 0.17329 0.23939
vt 0.17302 0.23829
vt 0.17314 0.24183
vt 0.17296 0.24037
vt 0.17287 0.24366
vt 0.17274 0.24207
vt 0.17250 0.24439
vt 0.17247 0.24268
vt 0.17210 0.24366
vt 0.17223 0.24207
vt 0.17180 0.24195
vt 0.17201 0.24049
vt 0.17168 0.23951
vt 0.17192 0.23842
vt 0.17192 0.23842
vt 0.17192 0.23146
vt 0.17168 0.23134
vt 0.17168 0.23951
vt 0.17192 0.23146
vt 0.17229 0.23134
vt 0.17229 0.22927
vt 0.17192 0.22927
vt 0.17229 0.23134
vt 0.17229 0.23342
vt 0.17250 0.23342
vt 0.17250 0.23134
vt 0.17229 0.23342
vt 0.17265 0.23342
vt 0.17268 0.23183
vt 0.17229 0.23183
vt 0.17265 0.23342
vt 0.17265 0.23134
vt 0.17241 0.23134
vt 0.17241 0.23342
vt 0.17265 0.23134
vt 0.17302 0.23134
vt 0.17302 0.22915
vt 0.17265 0.22915
vt 0.17229 0.23342
vt 0.17229 0.23134
vt 0.17192 0.23146
vt 0.17192 0.23842
vt 0.17302 0.23829
vt 0.17201 0.24049
vt 0.17296 0.24037
vt 0.17223 0.24207
vt 0.17274 0.24207
vt 0.17247 0.24268
vt 0.17265 0.23342
vt 0.17302 0.23134
vt 0.17265 0.23134
vt 0.17037 0.23890
vt 0.16945 0.25756
vt 0.16969 0.24744
vt 0.17579 0.25756
vt 0.17555 0.24744
vt 0.17409 0.23439
vt 0.17116 0.23439
vt 0.17488 0.23890
vt 0.17573 0.25756
vt 0.17534 0.24829
vt 0.17555 0.25756
vt 0.17549 0.24768
vt 0.17579 0.25756
vt 0.17555 0.24744
vt 0.17482 0.23927
vt 0.17488 0.23890
vt 0.17409 0.23439
vt 0.17396 0.23439
vt 0.17470 0.24037
vt 0.17375 0.23512
vt 0.16951 0.25756
vt 0.16969 0.24744
vt 0.16945 0.25756
vt 0.16976 0.24768
vt 0.16969 0.25756
vt 0.16991 0.24829
vt 0.17043 0.23927
vt 0.17055 0.24037
vt 0.17128 0.23439
vt 0.17149 0.23512
vt 0.17037 0.23890
vt 0.17116 0.23439
vt 0.16991 0.24829
vt 0.17149 0.23512
vt 0.17055 0.24037
vt 0.16969 0.25756
vt 0.17555 0.25756
vt 0.17534 0.24829
vt 0.17470 0.24037
vt 0.17375 0.23512
vt 0.17149 0.23512
vt 0.17375 0.23512
vt 0.17128 0.23439
vt 0.16945 0.25976
vt 0.17579 0.25976
vt 0.17573 0.25878
vt 0.17555 0.25756
vt 0.16951 0.25878
vt 0.16969 0.25756
vt 0.17287 0.28244
vt 0.17308 0.28244
vt 0.17308 0.27561
vt 0.17290 0.27610
vt 0.17308 0.27561
vt 0.17281 0.27439
vt 0.17290 0.27610
vt 0.17299 0.27342
vt 0.17262 0.27293
vt 0.17271 0.27146
vt 0.17238 0.27244
vt 0.17238 0.27073
vt 0.17238 0.27073
vt 0.17213 0.27293
vt 0.17238 0.27244
vt 0.17204 0.27146
vt 0.17192 0.27439
vt 0.17177 0.27317
vt 0.17186 0.27610
vt 0.17165 0.27561
vt 0.17186 0.27610
vt 0.17165 0.27561
vt 0.17165 0.28244
vt 0.17183 0.28244
vt 0.17183 0.28244
vt 0.17183 0.28390
vt 0.17220 0.28390
vt 0.17220 0.28244
vt 0.17220 0.28244
vt 0.17241 0.28244
vt 0.17241 0.28025
vt 0.17220 0.28025
vt 0.17220 0.28025
vt 0.17220 0.28171
vt 0.17256 0.28171
vt 0.17256 0.28025
vt 0.17256 0.28025
vt 0.17235 0.28025
vt 0.17235 0.28244
vt 0.17256 0.28244
vt 0.17256 0.28244
vt 0.17253 0.28390
vt 0.17287 0.28415
vt 0.17287 0.28244
vt 0.17256 0.28025
vt 0.17256 0.28244
vt 0.17287 0.28244
vt 0.17290 0.27610
vt 0.17220 0.28025
vt 0.17186 0.27610
vt 0.17192 0.27439
vt 0.17281 0.27439
vt 0.17213 0.27293
vt 0.17262 0.27293
vt 0.17238 0.27244
vt 0.17183 0.28244
vt 0.17220 0.28244
vt 0.16945 0.25756
vt 0.17037 0.27634
vt 0.16969 0.26756
vt 0.17579 0.25756
vt 0.17555 0.26756
vt 0.17409 0.28073
vt 0.17488 0.27634
vt 0.17116 0.28073
vt 0.17534 0.26683
vt 0.17573 0.25756
vt 0.17555 0.25756
vt 0.17549 0.26756
vt 0.17470 0.27488
vt 0.17482 0.27585
vt 0.17375 0.28000
vt 0.17396 0.28073
vt 0.17409 0.28073
vt 0.17488 0.27634
vt 0.17579 0.25756
vt 0.17555 0.26756
vt 0.16969 0.26756
vt 0.16951 0.25756
vt 0.16945 0.25756
vt 0.16976 0.26756
vt 0.17037 0.27634
vt 0.17043 0.27585
vt 0.17116 0.28073
vt 0.17128 0.28073
vt 0.17055 0.27488
vt 0.17149 0.28000
vt 0.16969 0.25756
vt 0.16991 0.26683
vt 0.17470 0.27488
vt 0.17149 0.28000
vt 0.17375 0.28000
vt 0.17534 0.26683
vt 0.17555 0.25756
vt 0.16969 0.25756
vt 0.16991 0.26683
vt 0.17055 0.27488
vt 0.17409 0.28073
vt 0.17128 0.28073
vt 0.17116 0.28073
vt 0.17396 0.28073
vt 0.17375 0.28000
vt 0.17149 0.28000
vt 0.17573 0.25561
vt 0.17579 0.25439
vt 0.16945 0.25439
vt 0.17555 0.25756
vt 0.16951 0.25561
vt 0.16969 0.25756
vn -0.9954 0.0955 0.0001
vn -1.0000 0.0019 0.0000
vn -1.0000 0.0019 0.0000
vn -1.0000 0.0016 0.0000
vn -1.0000 0.0016 0.0000
vn -1.0000 0.0016 0.0000
vn -0.0108 0.0008 0.9999
vn -0.0108 0.0008 0.9999
vn -0.0108 0.0008 0.9999
vn -0.0108 0.0008 0.9999
vn 0.3735 -0.0001 0.9276
vn 0.3735 -0.0001 0.9276
vn 0.5990 -0.0007 0.8008
vn 0.5993 -0.0006 0.8005
vn 0.8928 -0.0015 0.4504
vn 0.8929 -0.0015 0.4502
vn 0.9999 -0.0021 0.0105
vn 0.9999 -0.0021 0.0102
vn 0.9025 -0.0023 -0.4307
vn 0.9024 -0.0023 -0.4309
vn 0.6177 -0.0019 -0.7864
vn 0.6177 -0.0019 -0.7864
vn 0.3955 -0.0015 -0.9185
vn 0.3955 -0.0015 -0.9185
vn 0.0108 -0.0007 -0.9999
vn 0.0108 -0.0007 -0.9999
vn 0.0108 -0.0007 -0.9999
vn 0.0108 -0.0008 -0.9999
vn -1.0000 0.0021 -0.0077
vn -1.0000 0.0021 -0.0076
vn -1.0000 0.0021 -0.0076
vn -1.0000 0.0020 -0.0077
vn -0.0090 0.0008 1.0000
vn -0.0090 0.0008 1.0000
vn -0.0090 0.0008 1.0000
vn -0.0090 0.0008 1.0000
vn -1.0000 0.0021 -0.0074
vn -1.0000 0.0021 -0.0074
vn -1.0000 0.0021 -0.0074
vn -1.0000 0.0021 -0.0074
vn 0.0090 -0.0008 -1.0000
vn 0.0090 -0.0008 -1.0000
vn 0.0090 -0.0008 -1.0000
vn 0.0090 -0.0008 -1.0000
vn -1.0000 0.0021 -0.0077
vn -1.0000 0.0021 -0.0077
vn -1.0000 0.0021 -0.0077
vn -1.0000 0.0021 -0.0077
vn 0.0014 1.0000 0.0005
vn 0.0014 1.0000 0.0005
vn 0.0014 1.0000 0.0005
vn 0.0014 1.0000 0.0005
vn 0.0014 1.0000 0.0005
vn 0.0014 1.0000 0.0005
vn 0.0014 1.0000 0.0005
vn 0.0014 1.0000 0.0005
vn 0.0014 1.0000 0.0005
vn 0.0014 1.0000 0.0005
vn 0.0014 1.0000 0.0005
vn 0.0014 1.0000 0.0005
vn 0.0014 1.0000 0.0005
vn -0.0014 -1.0000 -0.0005
vn -0.0014 -1.0000 -0.0005
vn -0.0014 -1.0000 -0.0005
vn -0.0014 -1.0000 -0.0005
vn -0.0014 -1.0000 -0.0005
vn -0.0014 -1.0000 -0.0005
vn -0.0014 -1.0000 -0.0005
vn -0.0014 -1.0000 -0.0004
vn -0.1464 0.6587 0.7381
vn -0.2416 0.7741 0.5851
vn -0.1243 0.7679 0.6284
vn -0.2851 0.6659 0.6894
vn -0.1622 0.5538 0.8167
vn -0.3165 0.5612 0.7648
vn -0.5268 0.6664 0.5276
vn -0.5846 0.5618 0.5853
vn -0.6917 0.5544 0.4627
vn -0.5837 0.7117 0.3908
vn -0.4468 0.7744 0.4479
vn -0.5316 0.7685 0.3561
vn -0.1455 0.6585 -0.7383
vn -0.3159 0.5610 -0.7652
vn -0.1613 0.5534 -0.8172
vn -0.2844 0.6659 -0.6897
vn -0.1236 0.7680 -0.6284
vn -0.2410 0.7743 -0.5852
vn -0.5267 0.6664 -0.5277
vn -0.4466 0.7747 -0.4477
vn -0.5838 0.7118 -0.3906
vn -0.5316 0.7687 -0.3557
vn -0.5847 0.5616 -0.5855
vn -0.6919 0.5543 -0.4627
vn 0.0014 1.0000 0.0005
vn 0.0014 1.0000 0.0005
vn 0.0014 1.0000 0.0005
vn 0.0014 1.0000 0.0005
vn 0.0014 1.0000 0.0005
vn 0.0014 1.0000 0.0005
vn 0.0014 1.0000 0.0005
vn 0.0014 1.0000 0.0005
vn -0.9016 0.4325 0.0002
vn -0.9016 0.4326 0.0002
vn -0.9016 0.4325 0.0002
vn 1.0000 -0.0015 -0.0001
vn 1.0000 -0.0022 -0.0000
vn 1.0000 -0.0021 -0.0000
vn 1.0000 -0.0019 -0.0000
vn 1.0000 -0.0016 -0.0000
vn 1.0000 -0.0021 -0.0000
vn 0.0093 0.0007 1.0000
vn 0.0093 0.0007 1.0000
vn 0.0093 0.0007 1.0000
vn 0.0093 0.0007 1.0000
vn -0.3746 0.0014 0.9272
vn -0.5999 0.0018 0.8001
vn -0.3746 0.0014 0.9272
vn -0.5998 0.0018 0.8001
vn -0.8930 0.0023 0.4500
vn -0.8929 0.0023 0.4502
vn -0.9649 0.0022 0.2625
vn -0.9650 0.0021 0.2623
vn -0.9702 0.0018 -0.2425
vn -0.9023 0.0015 -0.4311
vn -0.9702 0.0018 -0.2425
vn -0.9024 0.0016 -0.4308
vn -0.6169 0.0007 -0.7871
vn -0.6172 0.0007 -0.7868
vn -0.3943 0.0001 -0.9190
vn -0.3943 0.0001 -0.9190
vn -0.0093 -0.0008 -1.0000
vn -0.0093 -0.0008 -1.0000
vn -0.0093 -0.0008 -1.0000
vn -0.0093 -0.0008 -1.0000
vn 1.0000 -0.0022 -0.0077
vn 1.0000 -0.0021 -0.0077
vn 1.0000 -0.0022 -0.0077
vn 1.0000 -0.0022 -0.0077
vn 0.0076 0.0008 1.0000
vn 0.0076 0.0008 1.0000
vn 0.0076 0.0008 1.0000
vn 0.0076 0.0008 1.0000
vn 1.0000 -0.0021 -0.0075
vn 1.0000 -0.0021 -0.0075
vn 1.0000 -0.0021 -0.0075
vn 1.0000 -0.0021 -0.0075
vn -0.0076 -0.0007 -1.0000
vn -0.0076 -0.0008 -1.0000
vn -0.0076 -0.0007 -1.0000
vn -0.0075 -0.0006 -1.0000
vn 1.0000 -0.0020 -0.0077
vn 1.0000 -0.0019 -0.0077
vn 1.0000 -0.0020 -0.0077
vn 1.0000 -0.0020 -0.0078
vn 0.0014 1.0000 0.0005
vn 0.0014 1.0000 0.0005
vn 0.0014 1.0000 0.0005
vn 0.0014 1.0000 0.0005
vn 0.0014 1.0000 0.0005
vn 0.0014 1.0000 0.0005
vn 0.0014 1.0000 0.0005
vn 0.0014 1.0000 0.0005
vn 0.0014 1.0000 0.0005
vn 0.0014 1.0000 0.0005
vn 0.0014 1.0000 0.0005
vn 0.0014 1.0000 0.0005
vn 0.0014 1.0000 0.0005
vn -0.0014 -1.0000 -0.0005
vn -0.0014 -1.0000 -0.0005
vn -0.0014 -1.0000 -0.0005
vn -0.0014 -1.0000 -0.0005
vn -0.0014 -1.0000 -0.0005
vn -0.0014 -1.0000 -0.0005
vn -0.0014 -1.0000 -0.0005
vn -0.0014 -1.0000 -0.0005
vn 0.2425 0.7735 0.5856
vn 0.1459 0.6584 0.7384
vn 0.1244 0.7677 0.6286
vn 0.2855 0.6651 0.6900
vn 0.4487 0.7732 0.4482
vn 0.5284 0.6648 0.5281
vn 0.5336 0.7670 0.3564
vn 0.5856 0.7100 0.3911
vn 0.6932 0.5522 0.4631
vn 0.5858 0.5600 0.5859
vn 0.1613 0.5533 0.8172
vn 0.3164 0.5604 0.7654
vn 0.3188 0.5595 -0.7651
vn 0.1493 0.6577 -0.7384
vn 0.1649 0.5527 -0.8169
vn 0.2877 0.6647 -0.6895
vn 0.5870 0.5590 -0.5856
vn 0.5294 0.6642 -0.5278
vn 0.6939 0.5518 -0.4626
vn 0.5863 0.7097 -0.3906
vn 0.4495 0.7730 -0.4478
vn 0.5343 0.7667 -0.3558
vn 0.1274 0.7674 -0.6284
vn 0.2445 0.7734 -0.5849
vn 0.0014 1.0000 0.0005
vn 0.0014 1.0000 0.0005
vn 0.0014 1.0000 0.0005
vn 0.0014 1.0000 0.0005
vn 0.0014 1.0000 0.0005
vn 0.0014 1.0000 0.0005
vn 0.0014 1.0000 0.0005
vn 0.0014 1.0000 0.0005
vn 1.0000 -0.0021 -0.0000
vn 0.9959 0.0908 0.0000
vn 1.0000 -0.0017 -0.0000
vn 0.9959 0.0904 -0.0000
vn 0.9033 0.4290 0.0002
vn 0.9033 0.4290 0.0002
vn -1.0000 0.0020 0.0000
vn -1.0000 0.0019 0.0000
vn -1.0000 0.0018 0.0000
vn -1.0000 0.0021 0.0000
vn -1.0000 0.0018 0.0000
vn -1.0000 0.0022 0.0000
usemtl pz4_turret_m4
f 3/3/3 2/2/2 1/1/1
f 6/6/6 5/5/5 4/4/4
f 9/9/9 8/8/8 7/7/7
f 9/9/9 7/7/7 10/10/10
f 13/13/13 12/12/12 11/11/11
f 13/13/13 14/14/14 12/12/12
f 15/15/15 14/14/14 13/13/13
f 15/15/15 16/16/16 14/14/14
f 17/17/17 16/16/16 15/15/15
f 17/17/17 18/18/18 16/16/16
f 19/19/19 18/18/18 17/17/17
f 19/19/19 20/20/20 18/18/18
f 21/21/21 20/20/20 19/19/19
f 21/21/21 22/22/22 20/20/20
f 23/23/23 22/22/22 21/21/21
f 23/23/23 24/24/24 22/22/22
f 27/27/27 26/26/26 25/25/25
f 27/27/27 25/25/25 28/28/28
f 31/31/31 30/30/30 29/29/29
f 31/31/31 29/29/29 32/32/32
f 35/35/35 34/34/34 33/33/33
f 35/35/35 33/33/33 36/36/36
f 39/39/39 38/38/38 37/37/37
f 39/39/39 37/37/37 40/40/40
f 43/43/43 42/42/42 41/41/41
f 43/43/43 41/41/41 44/44/44
f 47/47/47 46/46/46 45/45/45
f 47/47/47 45/45/45 48/48/48
f 51/51/51 50/50/50 49/49/49
f 52/52/52 51/51/51 49/49/49
f 52/52/52 49/49/49 53/53/53
f 54/54/54 52/52/52 53/53/53
f 54/54/54 53/53/53 55/55/55
f 56/56/56 54/54/54 55/55/55
f 56/56/56 55/55/55 57/57/57
f 58/58/58 56/56/56 57/57/57
f 49/49/49 59/59/59 53/53/53
f 59/59/59 60/60/60 53/53/53
f 59/59/59 61/61/61 60/60/60
f 64/64/64 63/63/63 62/62/62
f 63/63/63 65/65/65 62/62/62
f 65/65/65 66/66/66 62/62/62
f 66/66/66 67/67/67 62/62/62
f 62/62/62 67/67/67 68/68/68
f 69/69/69 67/67/67 66/66/66
f 72/72/72 71/71/71 70/70/70
f 73/73/73 70/70/70 71/71/71
f 70/70/70 73/73/73 74/74/74
f 75/75/75 74/74/74 73/73/73
f 73/73/73 76/76/76 75/75/75
f 77/77/77 75/75/75 76/76/76
f 77/77/77 76/76/76 78/78/78
f 79/79/79 78/78/78 76/76/76
f 71/71/71 80/80/80 73/73/73
f 76/76/76 73/73/73 80/80/80
f 80/80/80 81/81/81 76/76/76
f 79/79/79 76/76/76 81/81/81
f 84/84/84 83/83/83 82/82/82
f 85/85/85 82/82/82 83/83/83
f 82/82/82 85/85/85 86/86/86
f 87/87/87 86/86/86 85/85/85
f 85/85/85 88/88/88 87/87/87
f 89/89/89 87/87/87 88/88/88
f 88/88/88 90/90/90 89/89/89
f 91/91/91 89/89/89 90/90/90
f 83/83/83 92/92/92 85/85/85
f 88/88/88 85/85/85 92/92/92
f 92/92/92 93/93/93 88/88/88
f 90/90/90 88/88/88 93/93/93
f 96/96/96 95/95/95 94/94/94
f 94/94/94 95/95/95 97/97/97
f 97/97/97 95/95/95 98/98/98
f 98/98/98 95/95/95 99/99/99
f 99/99/99 95/95/95 100/100/100
f 100/100/100 95/95/95 101/101/101
f 1/1/1 103/103/103 102/102/102
f 1/1/1 102/102/102 104/104/104
f 107/107/107 106/106/106 105/105/105
f 108/108/108 107/107/107 105/105/105
f 108/108/108 105/105/105 109/109/109
f 110/110/110 108/108/108 109/109/109
f 113/113/113 112/112/112 111/111/111
f 113/113/113 111/111/111 114/114/114
f 117/117/117 116/116/116 115/115/115
f 116/116/116 118/118/118 115/115/115
f 116/116/116 119/119/119 118/118/118
f 119/119/119 120/120/120 118/118/118
f 119/119/119 121/121/121 120/120/120
f 121/121/121 122/122/122 120/120/120
f 125/125/125 124/124/124 123/123/123
f 124/124/124 126/126/126 123/123/123
f 124/124/124 127/127/127 126/126/126
f 127/127/127 128/128/128 126/126/126
f 127/127/127 129/129/129 128/128/128
f 129/129/129 130/130/130 128/128/128
f 133/133/133 132/132/132 131/131/131
f 133/133/133 131/131/131 134/134/134
f 137/137/137 136/136/136 135/135/135
f 137/137/137 135/135/135 138/138/138
f 141/141/141 140/140/140 139/139/139
f 141/141/141 139/139/139 142/142/142
f 145/145/145 144/144/144 143/143/143
f 145/145/145 143/143/143 146/146/146
f 149/149/149 148/148/148 147/147/147
f 149/149/149 147/147/147 150/150/150
f 153/153/153 152/152/152 151/151/151
f 153/153/153 151/151/151 154/154/154
f 157/157/157 156/156/156 155/155/155
f 158/158/158 157/157/157 155/155/155
f 158/158/158 155/155/155 159/159/159
f 158/158/158 159/159/159 160/160/160
f 158/158/158 160/160/160 161/161/161
f 162/162/162 158/158/158 161/161/161
f 162/162/162 161/161/161 163/163/163
f 164/164/164 162/162/162 163/163/163
f 164/164/164 163/163/163 165/165/165
f 159/159/159 166/166/166 160/160/160
f 159/159/159 167/167/167 166/166/166
f 170/170/170 169/169/169 168/168/168
f 168/168/168 169/169/169 171/171/171
f 171/171/171 169/169/169 172/172/172
f 169/169/169 173/173/173 172/172/172
f 172/172/172 173/173/173 174/174/174
f 175/175/175 173/173/173 169/169/169
f 178/178/178 177/177/177 176/176/176
f 179/179/179 176/176/176 177/177/177
f 176/176/176 179/179/179 180/180/180
f 181/181/181 180/180/180 179/179/179
f 180/180/180 181/181/181 182/182/182
f 183/183/183 182/182/182 181/181/181
f 183/183/183 181/181/181 184/184/184
f 185/185/185 184/184/184 181/181/181
f 177/177/177 186/186/186 179/179/179
f 187/187/187 179/179/179 186/186/186
f 179/179/179 187/187/187 181/181/181
f 185/185/185 181/181/181 187/187/187
f 190/190/190 189/189/189 188/188/188
f 191/191/191 188/188/188 189/189/189
f 188/188/188 191/191/191 192/192/192
f 193/193/193 192/192/192 191/191/191
f 192/192/192 193/193/193 194/194/194
f 195/195/195 194/194/194 193/193/193
f 193/193/193 196/196/196 195/195/195
f 197/197/197 195/195/195 196/196/196
f 189/189/189 198/198/198 191/191/191
f 199/199/199 191/191/191 198/198/198
f 191/191/191 199/199/199 193/193/193
f 196/196/196 193/193/193 199/199/199
f 202/202/202 201/201/201 200/200/200
f 200/200/200 201/201/201 203/203/203
f 203/203/203 201/201/201 204/204/204
f 204/204/204 201/201/201 205/205/205
f 205/205/205 201/201/201 206/206/206
f 206/206/206 201/201/201 207/207/207
f 210/210/210 209/209/209 208/208/208
f 211/211/211 208/208/208 209/209/209
f 211/211/211 209/209/209 212/212/212
f 213/213/213 212/212/212 209/209/209
f 216/216/216 215/215/215 214/214/214
f 216/216/216 214/214/214 217/217/217
f 218/218/218 216/216/216 217/217/217
f 219/219/219 218/218/218 217/217/217
