mtllib pz4_hull_m5.mtl
o pz4_hull_m5
v 1.19849 -0.93802 -2.08869
v 1.20666 -0.81988 -1.94698
v 1.20656 -0.86419 -2.12827
v 1.20666 -0.81988 -1.94698
v 1.19849 -0.93802 -2.08869
v 1.19859 -0.89119 -1.93688
v 1.19833 -1.01433 -2.18383
v 1.20656 -0.86419 -2.12827
v 1.20633 -0.97117 -2.27031
v 1.20656 -0.86419 -2.12827
v 1.19833 -1.01433 -2.18383
v 1.19849 -0.93802 -2.08869
v 1.19772 -1.31117 -2.20969
v 1.20597 -1.14784 -2.34964
v 1.20559 -1.33686 -2.30987
v 1.20597 -1.14784 -2.34964
v 1.19772 -1.31117 -2.20969
v 1.19801 -1.16882 -2.25188
v 1.19810 -1.21505 2.99523
v 1.20568 -1.37939 2.98053
v 1.20594 -1.25566 3.07506
v 1.20568 -1.37939 2.98053
v 1.19810 -1.21505 2.99523
v 1.19791 -1.30887 2.93027
v 1.19849 -1.02105 2.99210
v 1.20630 -1.07936 3.09713
v 1.20646 -0.99996 3.08128
v 1.20630 -1.07936 3.09713
v 1.19849 -1.02105 2.99210
v 1.19836 -1.08947 3.00923
v 1.19868 -0.92886 2.92730
v 1.20646 -0.99996 3.08128
v 1.20671 -0.87915 3.00352
v 1.20646 -0.99996 3.08128
v 1.19868 -0.92886 2.92730
v 1.19849 -1.02105 2.99210
v 1.19882 -0.86097 2.82899
v 1.20671 -0.87915 3.00352
v 1.20687 -0.79597 2.87091
v 1.20671 -0.87915 3.00352
v 1.19882 -0.86097 2.82899
v 1.19868 -0.92886 2.92730
v 1.19888 -0.82960 2.69071
v 1.20687 -0.79597 2.87091
v 1.20693 -0.76317 2.69133
v 1.20687 -0.79597 2.87091
v 1.19888 -0.82960 2.69071
v 1.19882 -0.86097 2.82899
v 1.19876 -0.83701 -0.28428
v 1.20693 -0.76317 2.69133
v 1.20683 -0.76448 -0.28567
v 1.20693 -0.76317 2.69133
v 1.19876 -0.83701 -0.28428
v 1.19888 -0.82960 2.69071
v 1.19864 -0.88499 -0.80496
v 1.20683 -0.76448 -0.28567
v 1.20670 -0.81715 -0.80381
v 1.20683 -0.76448 -0.28567
v 1.19864 -0.88499 -0.80496
v 1.19876 -0.83701 -0.28428
v 1.19859 -0.89119 -1.93688
v 1.20670 -0.81715 -0.80381
v 1.20666 -0.81988 -1.94698
v 1.20670 -0.81715 -0.80381
v 1.19859 -0.89119 -1.93688
v 1.19864 -0.88499 -0.80496
v 1.15878 -0.86412 -2.12831
v 1.15887 -0.81982 -1.94702
v 1.16655 -0.93798 -2.08871
v 1.16665 -0.89115 -1.93691
v 1.16655 -0.93798 -2.08871
v 1.15887 -0.81982 -1.94702
v 1.15855 -0.97110 -2.27035
v 1.15878 -0.86412 -2.12831
v 1.16639 -1.01429 -2.18386
v 1.16655 -0.93798 -2.08871
v 1.16639 -1.01429 -2.18386
v 1.15878 -0.86412 -2.12831
v 1.15780 -1.33679 -2.30990
v 1.15819 -1.14777 -2.34967
v 1.16578 -1.31113 -2.20971
v 1.16607 -1.16878 -2.25190
v 1.16578 -1.31113 -2.20971
v 1.15819 -1.14777 -2.34967
v 1.15815 -1.25559 3.07502
v 1.15790 -1.37933 2.98050
v 1.16616 -1.21500 2.99520
v 1.16596 -1.30883 2.93025
v 1.16616 -1.21500 2.99520
v 1.15790 -1.37933 2.98050
v 1.15868 -0.99989 3.08124
v 1.15852 -1.07930 3.09710
v 1.16655 -1.02100 2.99207
v 1.16641 -1.08943 3.00921
v 1.16655 -1.02100 2.99207
v 1.15852 -1.07930 3.09710
v 1.15893 -0.87909 3.00349
v 1.15868 -0.99989 3.08124
v 1.16674 -0.92881 2.92728
v 1.16655 -1.02100 2.99207
v 1.16674 -0.92881 2.92728
v 1.15868 -0.99989 3.08124
v 1.15909 -0.79591 2.87088
v 1.15893 -0.87909 3.00349
v 1.16688 -0.86092 2.82896
v 1.16674 -0.92881 2.92728
v 1.16688 -0.86092 2.82896
v 1.15893 -0.87909 3.00349
v 1.15915 -0.76310 2.69129
v 1.15909 -0.79591 2.87088
v 1.16694 -0.82956 2.69068
v 1.16688 -0.86092 2.82896
v 1.16694 -0.82956 2.69068
v 1.15909 -0.79591 2.87088
v 1.15905 -0.76441 -0.28571
v 1.15915 -0.76310 2.69129
v 1.16682 -0.83696 -0.28430
v 1.16694 -0.82956 2.69068
v 1.16682 -0.83696 -0.28430
v 1.15915 -0.76310 2.69129
v 1.15892 -0.81709 -0.80384
v 1.15905 -0.76441 -0.28571
v 1.16670 -0.88495 -0.80498
v 1.16682 -0.83696 -0.28430
v 1.16670 -0.88495 -0.80498
v 1.15905 -0.76441 -0.28571
v 1.15887 -0.81982 -1.94702
v 1.15892 -0.81709 -0.80384
v 1.16665 -0.89115 -1.93691
v 1.16670 -0.88495 -0.80498
v 1.16665 -0.89115 -1.93691
v 1.15892 -0.81709 -0.80384
v -1.20525 -0.86089 -2.13004
v -1.20515 -0.81659 -1.94875
v -1.19748 -0.93474 -2.09045
v -1.19737 -0.88792 -1.93864
v -1.19748 -0.93474 -2.09045
v -1.20515 -0.81659 -1.94875
v -1.20547 -0.96787 -2.27208
v -1.20525 -0.86089 -2.13004
v -1.19764 -1.01105 -2.18559
v -1.19748 -0.93474 -2.09045
v -1.19764 -1.01105 -2.18559
v -1.20525 -0.86089 -2.13004
v -1.20622 -1.33356 -2.31164
v -1.20584 -1.14454 -2.35140
v -1.19825 -1.30789 -2.21144
v -1.19795 -1.16555 -2.25363
v -1.19825 -1.30789 -2.21144
v -1.20584 -1.14454 -2.35140
v -1.20587 -1.25236 3.07329
v -1.20612 -1.37609 2.97877
v -1.19787 -1.21177 2.99347
v -1.19806 -1.30560 2.92851
v -1.19787 -1.21177 2.99347
v -1.20612 -1.37609 2.97877
v -1.20534 -0.99666 3.07951
v -1.20550 -1.07607 3.09536
v -1.19747 -1.01777 2.99034
v -1.19761 -1.08620 3.00748
v -1.19747 -1.01777 2.99034
v -1.20550 -1.07607 3.09536
v -1.20510 -0.87585 3.00176
v -1.20534 -0.99666 3.07951
v -1.19728 -0.92558 2.92555
v -1.19747 -1.01777 2.99034
v -1.19728 -0.92558 2.92555
v -1.20534 -0.99666 3.07951
v -1.20493 -0.79268 2.86914
v -1.20510 -0.87585 3.00176
v -1.19715 -0.85769 2.82723
v -1.19728 -0.92558 2.92555
v -1.19715 -0.85769 2.82723
v -1.20510 -0.87585 3.00176
v -1.20487 -0.75987 2.68956
v -1.20493 -0.79268 2.86914
v -1.19709 -0.82633 2.68895
v -1.19715 -0.85769 2.82723
v -1.19709 -0.82633 2.68895
v -1.20493 -0.79268 2.86914
v -1.20497 -0.76118 -0.28744
v -1.20487 -0.75987 2.68956
v -1.19721 -0.83373 -0.28603
v -1.19709 -0.82633 2.68895
v -1.19721 -0.83373 -0.28603
v -1.20487 -0.75987 2.68956
v -1.20510 -0.81385 -0.80557
v -1.20497 -0.76118 -0.28744
v -1.19732 -0.88171 -0.80671
v -1.19721 -0.83373 -0.28603
v -1.19732 -0.88171 -0.80671
v -1.20497 -0.76118 -0.28744
v -1.20515 -0.81659 -1.94875
v -1.20510 -0.81385 -0.80557
v -1.19737 -0.88792 -1.93864
v -1.19732 -0.88171 -0.80671
v -1.19737 -0.88792 -1.93864
v -1.20510 -0.81385 -0.80557
v -1.16553 -0.93479 -2.09042
v -1.15737 -0.81665 -1.94871
v -1.15746 -0.86096 -2.13001
v -1.15737 -0.81665 -1.94871
v -1.16553 -0.93479 -2.09042
v -1.16543 -0.88796 -1.93861
v -1.16569 -1.01110 -2.18557
v -1.15746 -0.86096 -2.13001
v -1.15769 -0.96794 -2.27204
v -1.15746 -0.86096 -2.13001
v -1.16569 -1.01110 -2.18557
v -1.16553 -0.93479 -2.09042
v -1.16630 -1.30794 -2.21142
v -1.15805 -1.14460 -2.35137
v -1.15844 -1.33363 -2.31160
v -1.15805 -1.14460 -2.35137
v -1.16630 -1.30794 -2.21142
v -1.16601 -1.16559 -2.25361
v -1.16592 -1.21181 2.99350
v -1.15834 -1.37616 2.97880
v -1.15808 -1.25243 3.07332
v -1.15834 -1.37616 2.97880
v -1.16592 -1.21181 2.99350
v -1.16612 -1.30564 2.92854
v -1.16553 -1.01782 2.99036
v -1.15772 -1.07613 3.09540
v -1.15756 -0.99673 3.07955
v -1.15772 -1.07613 3.09540
v -1.16553 -1.01782 2.99036
v -1.16566 -1.08624 3.00750
v -1.16534 -0.92563 2.92557
v -1.15756 -0.99673 3.07955
v -1.15731 -0.87592 3.00179
v -1.15756 -0.99673 3.07955
v -1.16534 -0.92563 2.92557
v -1.16553 -1.01782 2.99036
v -1.16520 -0.85773 2.82726
v -1.15731 -0.87592 3.00179
v -1.15715 -0.79274 2.86918
v -1.15731 -0.87592 3.00179
v -1.16520 -0.85773 2.82726
v -1.16534 -0.92563 2.92557
v -1.16514 -0.82637 2.68898
v -1.15715 -0.79274 2.86918
v -1.15709 -0.75993 2.68959
v -1.15715 -0.79274 2.86918
v -1.16514 -0.82637 2.68898
v -1.16520 -0.85773 2.82726
v -1.16527 -0.83377 -0.28601
v -1.15709 -0.75993 2.68959
v -1.15719 -0.76125 -0.28741
v -1.15709 -0.75993 2.68959
v -1.16527 -0.83377 -0.28601
v -1.16514 -0.82637 2.68898
v -1.16538 -0.88176 -0.80669
v -1.15719 -0.76125 -0.28741
v -1.15732 -0.81392 -0.80554
v -1.15719 -0.76125 -0.28741
v -1.16538 -0.88176 -0.80669
v -1.16527 -0.83377 -0.28601
v -1.16543 -0.88796 -1.93861
v -1.15732 -0.81392 -0.80554
v -1.15737 -0.81665 -1.94871
v -1.15732 -0.81392 -0.80554
v -1.16543 -0.88796 -1.93861
v -1.16538 -0.88176 -0.80669
v 1.38366 -1.44412 -2.20134
v 1.38348 -1.35139 -2.40909
v 1.38318 -1.50189 -2.28089
v 1.38390 -1.32135 -2.30541
v 1.38393 -1.13034 -2.45026
v 1.38424 -1.15489 -2.34908
v 1.38436 -0.92374 -2.36819
v 1.38462 -0.97422 -2.27869
v 1.38462 -0.79862 -2.22121
v 1.38480 -0.88497 -2.18023
v 1.38473 -0.74680 -2.03361
v 1.38492 -0.83020 -2.02314
v 1.38478 -0.74353 -0.85059
v 1.38498 -0.82288 -0.85177
v 1.38492 -0.68190 -0.31441
v 1.38511 -0.76673 -0.31295
v 1.38504 -0.68019 2.76634
v 1.38524 -0.75789 2.76571
v 1.38496 -0.71854 2.95218
v 1.38516 -0.79456 2.90881
v 1.38477 -0.81580 3.08942
v 1.38500 -0.87395 3.01056
v 1.38448 -0.95708 3.16990
v 1.38478 -0.98175 3.07762
v 1.38429 -1.04993 3.18631
v 1.38462 -1.06177 3.09536
v 1.38387 -1.25610 3.16349
v 1.38432 -1.20862 3.08088
v 1.38357 -1.40080 3.06568
v 1.38409 -1.31835 3.01367
v 1.00471 -1.50137 -2.28117
v 1.00501 -1.35087 -2.40937
v 1.00483 -1.44360 -2.20162
v 1.00508 -1.32084 -2.30569
v 1.00547 -1.12982 -2.45054
v 1.00542 -1.15438 -2.34936
v 1.00589 -0.92322 -2.36847
v 1.00580 -0.97370 -2.27897
v 1.00615 -0.79811 -2.22149
v 1.00598 -0.88446 -2.18051
v 1.00627 -0.74628 -2.03388
v 1.00609 -0.82969 -2.02341
v 1.00631 -0.74302 -0.85087
v 1.00615 -0.82236 -0.85205
v 1.00646 -0.68139 -0.31468
v 1.00629 -0.76622 -0.31323
v 1.00657 -0.67967 2.76606
v 1.00641 -0.75738 2.76544
v 1.00650 -0.71802 2.95191
v 1.00634 -0.79404 2.90853
v 1.00630 -0.81529 3.08915
v 1.00618 -0.87343 3.01028
v 1.00602 -0.95656 3.16962
v 1.00596 -0.98124 3.07735
v 1.00583 -1.04941 3.18604
v 1.00580 -1.06125 3.09508
v 1.00540 -1.25558 3.16321
v 1.00550 -1.20810 3.08060
v 1.00510 -1.40028 3.06541
v 1.00527 -1.31783 3.01339
v 1.38366 -1.44412 -2.20134
v 1.00483 -1.44360 -2.20162
v 1.00508 -1.32084 -2.30569
v 1.38390 -1.32135 -2.30541
v 1.00542 -1.15438 -2.34936
v 1.38424 -1.15489 -2.34908
v 1.38462 -0.97422 -2.27869
v 1.00580 -0.97370 -2.27897
v 1.38480 -0.88497 -2.18023
v 1.00598 -0.88446 -2.18051
v 1.38492 -0.83020 -2.02314
v 1.00609 -0.82969 -2.02341
v 1.38498 -0.82288 -0.85177
v 1.00615 -0.82236 -0.85205
v 1.38511 -0.76673 -0.31295
v 1.00629 -0.76622 -0.31323
v 1.38524 -0.75789 2.76571
v 1.00641 -0.75738 2.76544
v 1.00634 -0.79404 2.90853
v 1.38516 -0.79456 2.90881
v 1.00618 -0.87343 3.01028
v 1.38500 -0.87395 3.01056
v 1.00596 -0.98124 3.07735
v 1.38478 -0.98175 3.07762
v 1.38462 -1.06177 3.09536
v 1.00580 -1.06125 3.09508
v 1.38432 -1.20862 3.08088
v 1.00550 -1.20810 3.08060
v 1.38409 -1.31835 3.01367
v 1.00527 -1.31783 3.01339
v 1.00321 -1.34218 -2.33744
v 1.00293 -1.47813 -2.21219
v 1.38322 -1.47865 -2.21191
v 1.38350 -1.34270 -2.33716
v 1.00361 -1.14251 -2.37765
v 1.38391 -1.14303 -2.37737
v 1.38429 -0.95641 -2.29717
v 1.00400 -0.95589 -2.29745
v 1.38453 -0.84340 -2.15357
v 1.00424 -0.84288 -2.15385
v 1.38463 -0.79659 -1.97027
v 1.00434 -0.79607 -1.97055
v 1.38468 -0.79368 -0.81444
v 1.00439 -0.79316 -0.81472
v 1.38481 -0.73803 -0.29057
v 1.00452 -0.73751 -0.29085
v 1.38492 -0.73658 2.71939
v 1.00462 -0.73606 2.71911
v 1.00456 -0.77071 2.90068
v 1.38485 -0.77123 2.90096
v 1.00439 -0.85857 3.03477
v 1.38468 -0.85909 3.03504
v 1.00413 -0.98619 3.11339
v 1.38442 -0.98671 3.11367
v 1.38425 -1.07059 3.12970
v 1.00396 -1.07007 3.12942
v 1.38387 -1.25682 3.10738
v 1.00357 -1.25630 3.10710
v 1.38359 -1.38752 3.01182
v 1.00331 -1.38701 3.01154
v -1.38448 -1.49810 -2.28292
v -1.38419 -1.34760 -2.41111
v -1.38472 -1.44033 -2.20337
v -1.38448 -1.31757 -2.30744
v -1.38373 -1.12656 -2.45229
v -1.38414 -1.15111 -2.35111
v -1.38330 -0.91995 -2.37022
v -1.38376 -0.97043 -2.28071
v -1.38304 -0.79484 -2.22324
v -1.38357 -0.88119 -2.18226
v -1.38293 -0.74302 -2.03563
v -1.38346 -0.82642 -2.02517
v -1.38288 -0.73975 -0.85262
v -1.38340 -0.81909 -0.85380
v -1.38273 -0.67812 -0.31643
v -1.38327 -0.76295 -0.31498
v -1.38262 -0.67640 2.76431
v -1.38314 -0.75411 2.76368
v -1.38270 -0.71476 2.95016
v -1.38321 -0.79077 2.90678
v -1.38289 -0.81202 3.08740
v -1.38337 -0.87016 3.00853
v -1.38318 -0.95329 3.16788
v -1.38359 -0.97797 3.07559
v -1.38337 -1.04615 3.18429
v -1.38375 -1.05799 3.09333
v -1.38379 -1.25232 3.16146
v -1.38406 -1.20484 3.07885
v -1.38409 -1.39702 3.06365
v -1.38428 -1.31456 3.01164
v -1.00590 -1.44085 -2.20309
v -1.00572 -1.34812 -2.41084
v -1.00602 -1.49862 -2.28264
v -1.00565 -1.31809 -2.30716
v -1.00526 -1.12708 -2.45201
v -1.00531 -1.15163 -2.35084
v -1.00484 -0.92047 -2.36994
v -1.00494 -0.97095 -2.28044
v -1.00457 -0.79536 -2.22296
v -1.00475 -0.88171 -2.18198
v -1.00446 -0.74353 -2.03536
v -1.00464 -0.82694 -2.02489
v -1.00441 -0.74027 -0.85234
v -1.00458 -0.81961 -0.85352
v -1.00427 -0.67864 -0.31616
v -1.00444 -0.76347 -0.31470
v -1.00416 -0.67692 2.76459
v -1.00432 -0.75463 2.76396
v -1.00423 -0.71527 2.95043
v -1.00439 -0.79129 2.90706
v -1.00442 -0.81254 3.08767
v -1.00455 -0.87068 3.00881
v -1.00471 -0.95381 3.16815
v -1.00477 -0.97849 3.07587
v -1.00490 -1.04666 3.18457
v -1.00493 -1.05850 3.09361
v -1.00533 -1.25283 3.16174
v -1.00523 -1.20535 3.07913
v -1.00563 -1.39753 3.06393
v -1.00546 -1.31508 3.01192
v -1.00565 -1.31809 -2.30716
v -1.00590 -1.44085 -2.20309
v -1.38472 -1.44033 -2.20337
v -1.38448 -1.31757 -2.30744
v -1.00531 -1.15163 -2.35084
v -1.38414 -1.15111 -2.35111
v -1.38376 -0.97043 -2.28071
v -1.00494 -0.97095 -2.28044
v -1.38357 -0.88119 -2.18226
v -1.00475 -0.88171 -2.18198
v -1.38346 -0.82642 -2.02517
v -1.00464 -0.82694 -2.02489
v -1.38340 -0.81909 -0.85380
v -1.00458 -0.81961 -0.85352
v -1.38327 -0.76295 -0.31498
v -1.00444 -0.76347 -0.31470
v -1.38314 -0.75411 2.76368
v -1.00432 -0.75463 2.76396
v -1.00439 -0.79129 2.90706
v -1.38321 -0.79077 2.90678
v -1.00455 -0.87068 3.00881
v -1.38337 -0.87016 3.00853
v -1.00477 -0.97849 3.07587
v -1.38359 -0.97797 3.07559
v -1.38375 -1.05799 3.09333
v -1.00493 -1.05850 3.09361
v -1.38406 -1.20484 3.07885
v -1.00523 -1.20535 3.07913
v -1.38428 -1.31456 3.01164
v -1.00546 -1.31508 3.01192
v -1.38443 -1.47487 -2.21394
v -1.00414 -1.47539 -2.21367
v -1.00387 -1.33944 -2.33891
v -1.38416 -1.33892 -2.33919
v -1.00346 -1.13977 -2.37912
v -1.38375 -1.13925 -2.37940
v -1.38337 -0.95262 -2.29920
v -1.00308 -0.95314 -2.29892
v -1.38313 -0.83961 -2.15559
v -1.00284 -0.84013 -2.15532
v -1.38303 -0.79281 -1.97230
v -1.00274 -0.79333 -1.97202
v -1.38298 -0.78990 -0.81647
v -1.00269 -0.79042 -0.81619
v -1.38285 -0.73424 -0.29260
v -1.00256 -0.73476 -0.29231
v -1.38274 -0.73280 2.71736
v -1.00245 -0.73332 2.71764
v -1.00251 -0.76797 2.89921
v -1.38281 -0.76745 2.89893
v -1.00269 -0.85583 3.03330
v -1.38298 -0.85531 3.03302
v -1.00295 -0.98344 3.11192
v -1.38324 -0.98292 3.11164
v -1.38341 -1.06680 3.12767
v -1.00312 -1.06732 3.12795
v -1.38380 -1.25303 3.10536
v -1.00350 -1.25355 3.10563
v -1.38407 -1.38374 3.00979
v -1.00378 -1.38426 3.01007
v 1.19801 -1.16882 -2.25188
v 1.20633 -0.97117 -2.27031
v 1.20597 -1.14784 -2.34964
v 1.19833 -1.01433 -2.18383
v 1.19751 -1.41615 -2.10913
v 1.20559 -1.33686 -2.30987
v 1.20532 -1.46556 -2.18600
v 1.19772 -1.31117 -2.20969
v 1.19836 -1.08947 3.00923
v 1.20594 -1.25566 3.07506
v 1.20630 -1.07936 3.09713
v 1.19810 -1.21505 2.99523
v 1.15819 -1.14777 -2.34967
v 1.15855 -0.97110 -2.27035
v 1.16607 -1.16878 -2.25190
v 1.16639 -1.01429 -2.18386
v 1.15754 -1.46549 -2.18604
v 1.15780 -1.33679 -2.30990
v 1.16556 -1.41611 -2.10915
v 1.16578 -1.31113 -2.20971
v 1.15852 -1.07930 3.09710
v 1.15815 -1.25559 3.07502
v 1.16641 -1.08943 3.00921
v 1.16616 -1.21500 2.99520
v -1.20584 -1.14454 -2.35140
v -1.20547 -0.96787 -2.27208
v -1.19795 -1.16555 -2.25363
v -1.19764 -1.01105 -2.18559
v -1.20648 -1.46226 -2.18777
v -1.20622 -1.33356 -2.31164
v -1.19846 -1.41288 -2.11089
v -1.19825 -1.30789 -2.21144
v -1.20550 -1.07607 3.09536
v -1.20587 -1.25236 3.07329
v -1.19761 -1.08620 3.00748
v -1.19787 -1.21177 2.99347
v -1.16601 -1.16559 -2.25361
v -1.15769 -0.96794 -2.27204
v -1.15805 -1.14460 -2.35137
v -1.16569 -1.01110 -2.18557
v -1.16652 -1.41292 -2.11086
v -1.15844 -1.33363 -2.31160
v -1.15870 -1.46232 -2.18773
v -1.16630 -1.30794 -2.21142
v -1.16566 -1.08624 3.00750
v -1.15808 -1.25243 3.07332
v -1.15772 -1.07613 3.09540
v -1.16592 -1.21181 2.99350
v -1.20708 -1.76879 -1.47398
v -1.20694 -1.69281 -1.72557
v -1.19901 -1.69404 -1.44267
v -1.19889 -1.62947 -1.66320
v -1.16707 -1.69408 -1.44264
v -1.15915 -1.69288 -1.72553
v -1.15931 -1.76885 -1.47394
v -1.16694 -1.62951 -1.66317
v -1.38520 -1.85652 -1.54422
v -1.38502 -1.76769 -1.80459
v -1.38537 -1.76909 -1.51184
v -1.38523 -1.69360 -1.74005
v -1.00655 -1.76961 -1.51156
v -1.00656 -1.76821 -1.80431
v -1.00673 -1.85704 -1.54394
v -1.00640 -1.69412 -1.73978
v -1.38537 -1.76909 -1.51184
v -1.38523 -1.69360 -1.74005
v -1.00655 -1.76961 -1.51156
v -1.00640 -1.69412 -1.73978
v -1.38507 -1.79866 -1.49224
v -1.00478 -1.79918 -1.49196
v -1.38492 -1.71840 -1.74661
v -1.00463 -1.71892 -1.74634
v 1.19696 -1.69731 -1.44091
v 1.20487 -1.69611 -1.72380
v 1.20472 -1.77209 -1.47221
v 1.19708 -1.63275 -1.66144
v 1.15694 -1.77202 -1.47224
v 1.15709 -1.69604 -1.72384
v 1.16501 -1.69727 -1.44093
v 1.16514 -1.63270 -1.66147
v 1.38300 -1.77288 -1.50981
v 1.38264 -1.77147 -1.80256
v 1.38247 -1.86031 -1.54219
v 1.38315 -1.69738 -1.73803
v 1.00400 -1.85979 -1.54247
v 1.00417 -1.77095 -1.80284
v 1.00418 -1.77236 -1.51008
v 1.00433 -1.69686 -1.73830
v 1.38300 -1.77288 -1.50981
v 1.00418 -1.77236 -1.51008
v 1.38315 -1.69738 -1.73803
v 1.00433 -1.69686 -1.73830
v 1.38259 -1.80244 -1.49021
v 1.38274 -1.72219 -1.74459
v 1.00229 -1.80192 -1.49048
v 1.00245 -1.72167 -1.74487
v -1.20693 -1.75840 2.28716
v -1.20696 -1.77046 2.14841
v -1.19885 -1.68052 2.24623
v -1.19889 -1.69569 2.14588
v -1.19885 -1.68052 2.24623
v -1.20696 -1.77046 2.14841
v -1.16691 -1.68056 2.24625
v -1.15918 -1.77052 2.14845
v -1.15915 -1.75846 2.28719
v -1.15918 -1.77052 2.14845
v -1.16691 -1.68056 2.24625
v -1.16695 -1.69573 2.14591
v -1.38504 -1.84414 2.34798
v -1.38507 -1.85825 2.20440
v -1.38521 -1.75305 2.30561
v -1.38525 -1.77080 2.20177
v -1.00639 -1.75357 2.30589
v -1.00660 -1.85877 2.20468
v -1.00657 -1.84466 2.34826
v -1.00643 -1.77132 2.20205
v -1.38521 -1.75305 2.30561
v -1.38525 -1.77080 2.20177
v -1.00639 -1.75357 2.30589
v -1.00643 -1.77132 2.20205
v -1.38492 -1.78760 2.31054
v -1.00463 -1.78812 2.31081
v -1.38495 -1.80034 2.17025
v -1.00466 -1.80086 2.17054
v 1.19711 -1.68379 2.24798
v 1.20485 -1.77375 2.15018
v 1.20488 -1.76170 2.28892
v 1.20485 -1.77375 2.15018
v 1.19711 -1.68379 2.24798
v 1.19708 -1.69897 2.14763
v 1.15709 -1.76163 2.28889
v 1.15706 -1.77369 2.15014
v 1.16517 -1.68375 2.24796
v 1.16514 -1.69892 2.14761
v 1.16517 -1.68375 2.24796
v 1.15706 -1.77369 2.15014
v 1.38317 -1.75684 2.30764
v 1.38259 -1.86203 2.20643
v 1.38263 -1.84792 2.35001
v 1.38313 -1.77459 2.20380
v 1.00416 -1.84740 2.34973
v 1.00413 -1.86151 2.20615
v 1.00435 -1.75632 2.30736
v 1.00431 -1.77407 2.20352
v 1.38317 -1.75684 2.30764
v 1.00435 -1.75632 2.30736
v 1.38313 -1.77459 2.20380
v 1.00431 -1.77407 2.20352
v 1.38274 -1.79139 2.31256
v 1.38271 -1.80413 2.17228
v 1.00245 -1.79087 2.31228
v 1.00242 -1.80361 2.17200
v -1.15870 -1.46232 -2.18773
v -1.16694 -1.62951 -1.66317
v -1.16652 -1.41292 -2.11086
v -1.16694 -1.62951 -1.66317
v -1.15870 -1.46232 -2.18773
v -1.15915 -1.69288 -1.72553
v -1.19846 -1.41288 -2.11089
v -1.19889 -1.62947 -1.66320
v -1.20648 -1.46226 -2.18777
v -1.20694 -1.69281 -1.72557
v -1.20648 -1.46226 -2.18777
v -1.19889 -1.62947 -1.66320
v 1.16556 -1.41611 -2.10915
v 1.16514 -1.63270 -1.66147
v 1.15754 -1.46549 -2.18604
v 1.15709 -1.69604 -1.72384
v 1.15754 -1.46549 -2.18604
v 1.16514 -1.63270 -1.66147
v 1.20532 -1.46556 -2.18600
v 1.19708 -1.63275 -1.66144
v 1.19751 -1.41615 -2.10913
v 1.19708 -1.63275 -1.66144
v 1.20532 -1.46556 -2.18600
v 1.20487 -1.69611 -1.72380
v -1.00478 -1.79918 -1.49196
v -1.38507 -1.79866 -1.49224
v -1.38537 -1.76909 -1.51184
v -1.00655 -1.76961 -1.51156
v -1.00673 -1.85704 -1.54394
v -1.00655 -1.76961 -1.51156
v -1.15915 -1.75846 2.28719
v -1.16612 -1.30564 2.92854
v -1.16691 -1.68056 2.24625
v -1.15834 -1.37616 2.97880
v -1.15931 -1.76885 -1.47394
v -1.16695 -1.69573 2.14591
v -1.16707 -1.69408 -1.44264
v -1.15918 -1.77052 2.14845
v -1.19885 -1.68052 2.24623
v -1.19806 -1.30560 2.92851
v -1.20693 -1.75840 2.28716
v -1.20612 -1.37609 2.97877
v -1.19901 -1.69404 -1.44267
v -1.19889 -1.69569 2.14588
v -1.20708 -1.76879 -1.47398
v -1.20696 -1.77046 2.14841
v -1.38537 -1.76909 -1.51184
v -1.38520 -1.85652 -1.54422
v 1.38259 -1.80244 -1.49021
v 1.00229 -1.80192 -1.49048
v 1.00418 -1.77236 -1.51008
v 1.38300 -1.77288 -1.50981
v 1.00418 -1.77236 -1.51008
v 1.00400 -1.85979 -1.54247
v 1.16517 -1.68375 2.24796
v 1.16596 -1.30883 2.93025
v 1.15709 -1.76163 2.28889
v 1.15790 -1.37933 2.98050
v 1.16501 -1.69727 -1.44093
v 1.16514 -1.69892 2.14761
v 1.15694 -1.77202 -1.47224
v 1.15706 -1.77369 2.15014
v 1.20488 -1.76170 2.28892
v 1.19791 -1.30887 2.93027
v 1.19711 -1.68379 2.24798
v 1.20568 -1.37939 2.98053
v 1.20472 -1.77209 -1.47221
v 1.19708 -1.69897 2.14763
v 1.19696 -1.69731 -1.44091
v 1.20485 -1.77375 2.15018
v 1.38247 -1.86031 -1.54219
v 1.38300 -1.77288 -1.50981
v 1.38379 -1.45911 -2.26558
v 1.00550 -1.45854 -2.26586
v 1.00577 -1.32390 -2.37253
v 1.38406 -1.32447 -2.37224
v 1.00614 -1.14134 -2.41729
v 1.38444 -1.14190 -2.41701
v 1.38484 -0.94375 -2.34485
v 1.00656 -0.94318 -2.34514
v 1.38505 -0.84587 -2.24394
v 1.00676 -0.84530 -2.24423
v 1.38518 -0.78580 -2.08293
v 1.00688 -0.78523 -2.08321
v 1.38524 -0.77777 -0.88234
v 1.00695 -0.77720 -0.88263
v 1.38539 -0.71619 -0.33008
v 1.00709 -0.71562 -0.33036
v 1.38552 -0.70649 2.82538
v 1.00723 -0.70593 2.82510
v 1.00715 -0.74614 2.97176
v 1.38544 -0.74671 2.97205
v 1.00698 -0.83321 3.07606
v 1.38527 -0.83378 3.07634
v 1.00673 -0.95145 3.14479
v 1.38503 -0.95201 3.14507
v 1.38485 -1.03977 3.16325
v 1.00656 -1.03920 3.16297
v 1.38452 -1.20083 3.14841
v 1.00623 -1.20026 3.14813
v 1.38427 -1.32117 3.07952
v 1.00598 -1.32061 3.07924
v 1.00372 -1.34732 -2.40506
v 1.00342 -1.49642 -2.27670
v 1.38332 -1.49699 -2.27641
v 1.38361 -1.34789 -2.40478
v 1.00416 -1.12832 -2.44628
v 1.38406 -1.12889 -2.44600
v 1.38449 -0.92421 -2.36380
v 1.00459 -0.92364 -2.36409
v 1.38475 -0.80027 -2.21661
v 1.00485 -0.79970 -2.21690
v 1.38486 -0.74893 -2.02874
v 1.00496 -0.74836 -2.02903
v 1.38491 -0.74574 -0.84408
v 1.00501 -0.74517 -0.84436
v 1.38506 -0.68471 -0.30714
v 1.00516 -0.68414 -0.30743
v 1.38517 -0.68312 2.77790
v 1.00527 -0.68255 2.77762
v 1.00520 -0.72055 2.96372
v 1.38511 -0.72112 2.96400
v 1.00501 -0.81692 3.10115
v 1.38491 -0.81749 3.10143
v 1.00473 -0.95688 3.18173
v 1.38463 -0.95745 3.18201
v 1.38444 -1.04944 3.19844
v 1.00454 -1.04887 3.19816
v 1.38402 -1.25369 3.17558
v 1.00412 -1.25312 3.17529
v 1.38372 -1.39704 3.07762
v 1.00382 -1.39647 3.07734
v -1.00514 -1.32089 -2.37404
v -1.00541 -1.45553 -2.26737
v -1.38469 -1.45496 -2.26766
v -1.38442 -1.32032 -2.37432
v -1.00476 -1.13832 -2.41880
v -1.38405 -1.13775 -2.41909
v -1.38364 -0.93960 -2.34693
v -1.00436 -0.94016 -2.34665
v -1.38343 -0.84172 -2.24602
v -1.00415 -0.84229 -2.24574
v -1.38330 -0.78165 -2.08501
v -1.00403 -0.78222 -2.08472
v -1.38324 -0.77362 -0.88442
v -1.00396 -0.77418 -0.88413
v -1.38310 -0.71204 -0.33216
v -1.00381 -0.71261 -0.33188
v -1.38296 -0.70234 2.82330
v -1.00368 -0.70291 2.82359
v -1.00375 -0.74312 2.97026
v -1.38304 -0.74256 2.96997
v -1.00393 -0.83019 3.07454
v -1.38321 -0.82963 3.07426
v -1.00417 -0.94843 3.14328
v -1.38345 -0.94786 3.14299
v -1.38363 -1.03562 3.16118
v -1.00435 -1.03619 3.16146
v -1.38396 -1.19668 3.14633
v -1.00468 -1.19725 3.14662
v -1.38421 -1.31702 3.07745
v -1.00493 -1.31759 3.07773
v -1.38437 -1.49284 -2.27850
v -1.00348 -1.49341 -2.27821
v -1.00318 -1.34431 -2.40657
v -1.38408 -1.34374 -2.40686
v -1.00273 -1.12531 -2.44779
v -1.38363 -1.12474 -2.44808
v -1.38321 -0.92006 -2.36588
v -1.00231 -0.92064 -2.36559
v -1.38295 -0.79612 -2.21869
v -1.00205 -0.79669 -2.21841
v -1.38284 -0.74478 -2.03082
v -1.00194 -0.74536 -2.03053
v -1.38278 -0.74159 -0.84616
v -1.00189 -0.74216 -0.84587
v -1.38264 -0.68056 -0.30922
v -1.00175 -0.68113 -0.30893
v -1.38252 -0.67897 2.77582
v -1.00163 -0.67954 2.77611
v -1.00170 -0.71755 2.96221
v -1.38259 -0.71697 2.96193
v -1.00189 -0.81391 3.09964
v -1.38279 -0.81334 3.09936
v -1.00218 -0.95387 3.18023
v -1.38307 -0.95330 3.17994
v -1.38326 -1.04529 3.19637
v -1.00236 -1.04586 3.19665
v -1.38368 -1.24954 3.17350
v -1.00278 -1.25011 3.17378
v -1.38398 -1.39289 3.07555
v -1.00308 -1.39346 3.07583
v -1.38540 -1.81552 -1.55887
v -1.38524 -1.73273 -1.79279
v -1.00612 -1.81609 -1.55859
v -1.00596 -1.73330 -1.79250
v -1.38507 -1.84795 -1.53879
v -1.00418 -1.84852 -1.53850
v -1.38490 -1.75993 -1.79951
v -1.00401 -1.76051 -1.79922
v 1.38308 -1.81968 -1.55679
v 1.00478 -1.81911 -1.55708
v 1.38324 -1.73688 -1.79071
v 1.00495 -1.73631 -1.79099
v 1.38262 -1.85210 -1.53670
v 1.38279 -1.76408 -1.79743
v 1.00271 -1.85153 -1.53699
v 1.00289 -1.76351 -1.79772
v -1.38523 -1.79793 2.35381
v -1.38527 -1.81740 2.24737
v -1.00595 -1.79850 2.35409
v -1.00599 -1.81797 2.24766
v -1.38491 -1.83583 2.35885
v -1.00402 -1.83640 2.35914
v -1.38494 -1.84980 2.21507
v -1.00405 -1.85037 2.21536
v 1.38326 -1.80208 2.35588
v 1.00497 -1.80152 2.35560
v 1.38321 -1.82155 2.24945
v 1.00492 -1.82098 2.24916
v 1.38279 -1.83998 2.36093
v 1.38275 -1.85395 2.21715
v 1.00289 -1.83941 2.36064
v 1.00285 -1.85338 2.21686
v -1.00418 -1.84852 -1.53850
v -1.38507 -1.84795 -1.53879
v -1.38540 -1.81552 -1.55887
v -1.00612 -1.81609 -1.55859
v 1.38262 -1.85210 -1.53670
v 1.00271 -1.85153 -1.53699
v 1.00478 -1.81911 -1.55708
v 1.38308 -1.81968 -1.55679
vt 0.75350 0.12438
vt 0.76716 0.05408
vt 0.76716 0.12436
vt 0.76716 0.05408
vt 0.75350 0.12438
vt 0.75350 0.05439
vt 0.75350 0.07673
vt 0.76716 0.12436
vt 0.76716 0.07655
vt 0.76716 0.12436
vt 0.75350 0.07673
vt 0.75350 0.12438
vt 0.75350 0.08682
vt 0.76716 0.01843
vt 0.76716 0.08694
vt 0.76716 0.01843
vt 0.75350 0.08682
vt 0.75350 0.01849
vt 0.75350 0.00925
vt 0.76716 0.05496
vt 0.76716 0.00925
vt 0.76716 0.05496
vt 0.75350 0.00925
vt 0.75350 0.05496
vt 0.75350 0.05788
vt 0.76716 0.08220
vt 0.76716 0.05788
vt 0.76716 0.08220
vt 0.75350 0.05788
vt 0.75350 0.08220
vt 0.75350 0.01800
vt 0.76716 0.05788
vt 0.76716 0.01800
vt 0.76716 0.05788
vt 0.75350 0.01800
vt 0.75350 0.05788
vt 0.75350 0.09193
vt 0.76716 0.01800
vt 0.76716 0.09193
vt 0.76716 0.01800
vt 0.75350 0.09193
vt 0.75350 0.01800
vt 0.75350 0.03551
vt 0.76716 0.09193
vt 0.76716 0.03551
vt 0.76716 0.09193
vt 0.75350 0.03551
vt 0.75350 0.09193
vt 0.75350 0.01654
vt 0.76716 0.03551
vt 0.76716 0.01678
vt 0.76716 0.03551
vt 0.75350 0.01654
vt 0.75350 0.03551
vt 0.75350 0.00292
vt 0.76716 0.01678
vt 0.76716 0.00317
vt 0.76716 0.01678
vt 0.75350 0.00292
vt 0.75350 0.01654
vt 0.75350 0.05439
vt 0.76716 0.00317
vt 0.76716 0.05408
vt 0.76716 0.00317
vt 0.75350 0.05439
vt 0.75350 0.00292
vt 0.76716 0.12436
vt 0.76716 0.05408
vt 0.75350 0.12438
vt 0.75350 0.05439
vt 0.75350 0.12438
vt 0.76716 0.05408
vt 0.76716 0.07655
vt 0.76716 0.12436
vt 0.75350 0.07673
vt 0.75350 0.12438
vt 0.75350 0.07673
vt 0.76716 0.12436
vt 0.76716 0.08694
vt 0.76716 0.01843
vt 0.75350 0.08682
vt 0.75350 0.01849
vt 0.75350 0.08682
vt 0.76716 0.01843
vt 0.76716 0.00925
vt 0.76716 0.05496
vt 0.75350 0.00925
vt 0.75350 0.05496
vt 0.75350 0.00925
vt 0.76716 0.05496
vt 0.76716 0.05788
vt 0.76716 0.08220
vt 0.75350 0.05788
vt 0.75350 0.08220
vt 0.75350 0.05788
vt 0.76716 0.08220
vt 0.76716 0.01800
vt 0.76716 0.05788
vt 0.75350 0.01800
vt 0.75350 0.05788
vt 0.75350 0.01800
vt 0.76716 0.05788
vt 0.76716 0.09193
vt 0.76716 0.01800
vt 0.75350 0.09193
vt 0.75350 0.01800
vt 0.75350 0.09193
vt 0.76716 0.01800
vt 0.76716 0.03551
vt 0.76716 0.09193
vt 0.75350 0.03551
vt 0.75350 0.09193
vt 0.75350 0.03551
vt 0.76716 0.09193
vt 0.76716 0.01678
vt 0.76716 0.03551
vt 0.75350 0.01654
vt 0.75350 0.03551
vt 0.75350 0.01654
vt 0.76716 0.03551
vt 0.76716 0.00317
vt 0.76716 0.01678
vt 0.75350 0.00292
vt 0.75350 0.01654
vt 0.75350 0.00292
vt 0.76716 0.01678
vt 0.76716 0.05408
vt 0.76716 0.00317
vt 0.75350 0.05439
vt 0.75350 0.00292
vt 0.75350 0.05439
vt 0.76716 0.00317
vt 0.76716 0.12436
vt 0.76716 0.05408
vt 0.75350 0.12438
vt 0.75350 0.05439
vt 0.75350 0.12438
vt 0.76716 0.05408
vt 0.76716 0.07655
vt 0.76716 0.12436
vt 0.75350 0.07673
vt 0.75350 0.12438
vt 0.75350 0.07673
vt 0.76716 0.12436
vt 0.76716 0.08694
vt 0.76716 0.01843
vt 0.75350 0.08682
vt 0.75350 0.01849
vt 0.75350 0.08682
vt 0.76716 0.01843
vt 0.76716 0.00925
vt 0.76716 0.05496
vt 0.75350 0.00925
vt 0.75350 0.05496
vt 0.75350 0.00925
vt 0.76716 0.05496
vt 0.76716 0.05788
vt 0.76716 0.08220
vt 0.75350 0.05788
vt 0.75350 0.08220
vt 0.75350 0.05788
vt 0.76716 0.08220
vt 0.76716 0.01800
vt 0.76716 0.05788
vt 0.75350 0.01800
vt 0.75350 0.05788
vt 0.75350 0.01800
vt 0.76716 0.05788
vt 0.76716 0.09193
vt 0.76716 0.01800
vt 0.75350 0.09193
vt 0.75350 0.01800
vt 0.75350 0.09193
vt 0.76716 0.01800
vt 0.76716 0.03551
vt 0.76716 0.09193
vt 0.75350 0.03551
vt 0.75350 0.09193
vt 0.75350 0.03551
vt 0.76716 0.09193
vt 0.76716 0.01678
vt 0.76716 0.03551
vt 0.75350 0.01654
vt 0.75350 0.03551
vt 0.75350 0.01654
vt 0.76716 0.03551
vt 0.76716 0.00317
vt 0.76716 0.01678
vt 0.75350 0.00292
vt 0.75350 0.01654
vt 0.75350 0.00292
vt 0.76716 0.01678
vt 0.76716 0.05408
vt 0.76716 0.00317
vt 0.75350 0.05439
vt 0.75350 0.00292
vt 0.75350 0.05439
vt 0.76716 0.00317
vt 0.75350 0.12438
vt 0.76716 0.05408
vt 0.76716 0.12436
vt 0.76716 0.05408
vt 0.75350 0.12438
vt 0.75350 0.05439
vt 0.75350 0.07673
vt 0.76716 0.12436
vt 0.76716 0.07655
vt 0.76716 0.12436
vt 0.75350 0.07673
vt 0.75350 0.12438
vt 0.75350 0.08682
vt 0.76716 0.01843
vt 0.76716 0.08694
vt 0.76716 0.01843
vt 0.75350 0.08682
vt 0.75350 0.01849
vt 0.75350 0.00925
vt 0.76716 0.05496
vt 0.76716 0.00925
vt 0.76716 0.05496
vt 0.75350 0.00925
vt 0.75350 0.05496
vt 0.75350 0.05788
vt 0.76716 0.08220
vt 0.76716 0.05788
vt 0.76716 0.08220
vt 0.75350 0.05788
vt 0.75350 0.08220
vt 0.75350 0.01800
vt 0.76716 0.05788
vt 0.76716 0.01800
vt 0.76716 0.05788
vt 0.75350 0.01800
vt 0.75350 0.05788
vt 0.75350 0.09193
vt 0.76716 0.01800
vt 0.76716 0.09193
vt 0.76716 0.01800
vt 0.75350 0.09193
vt 0.75350 0.01800
vt 0.75350 0.03551
vt 0.76716 0.09193
vt 0.76716 0.03551
vt 0.76716 0.09193
vt 0.75350 0.03551
vt 0.75350 0.09193
vt 0.75350 0.01654
vt 0.76716 0.03551
vt 0.76716 0.01678
vt 0.76716 0.03551
vt 0.75350 0.01654
vt 0.75350 0.03551
vt 0.75350 0.00292
vt 0.76716 0.01678
vt 0.76716 0.00317
vt 0.76716 0.01678
vt 0.75350 0.00292
vt 0.75350 0.01654
vt 0.75350 0.05439
vt 0.76716 0.00317
vt 0.76716 0.05408
vt 0.76716 0.00317
vt 0.75350 0.05439
vt 0.75350 0.00292
vt 0.76717 0.03393
vt 0.76410 0.08694
vt 0.76410 0.03429
vt 0.76717 0.08682
vt 0.76410 0.01843
vt 0.76717 0.01849
vt 0.76410 0.07655
vt 0.76717 0.07673
vt 0.76410 0.12436
vt 0.76717 0.12438
vt 0.76410 0.05408
vt 0.76717 0.05439
vt 0.76410 0.00317
vt 0.76717 0.00292
vt 0.76410 0.01678
vt 0.76717 0.01654
vt 0.76410 0.03551
vt 0.76717 0.03551
vt 0.76410 0.09193
vt 0.76717 0.09193
vt 0.76410 0.01800
vt 0.76717 0.01800
vt 0.76410 0.05788
vt 0.76717 0.05788
vt 0.76410 0.08220
vt 0.76717 0.08220
vt 0.76410 0.00925
vt 0.76717 0.00925
vt 0.76410 0.05496
vt 0.76717 0.05496
vt 0.76410 0.03429
vt 0.76410 0.08694
vt 0.76717 0.03393
vt 0.76717 0.08682
vt 0.76410 0.01843
vt 0.76717 0.01849
vt 0.76410 0.07655
vt 0.76717 0.07673
vt 0.76410 0.12436
vt 0.76717 0.12438
vt 0.76410 0.05408
vt 0.76717 0.05439
vt 0.76410 0.00317
vt 0.76717 0.00292
vt 0.76410 0.01678
vt 0.76717 0.01654
vt 0.76410 0.03551
vt 0.76717 0.03551
vt 0.76410 0.09193
vt 0.76717 0.09193
vt 0.76410 0.01800
vt 0.76717 0.01800
vt 0.76410 0.05788
vt 0.76717 0.05788
vt 0.76410 0.08220
vt 0.76717 0.08220
vt 0.76410 0.00925
vt 0.76717 0.00925
vt 0.76410 0.05496
vt 0.76717 0.05496
vt 0.76411 0.09825
vt 0.75361 0.09825
vt 0.75361 0.01751
vt 0.76411 0.01751
vt 0.75361 0.07333
vt 0.76411 0.07333
vt 0.76411 0.01010
vt 0.75361 0.01010
vt 0.76411 0.04293
vt 0.75361 0.04293
vt 0.76411 0.08621
vt 0.75361 0.08621
vt 0.76411 0.06883
vt 0.75361 0.06883
vt 0.76411 0.06396
vt 0.75361 0.06396
vt 0.76411 0.09825
vt 0.75361 0.09825
vt 0.75361 0.11819
vt 0.76411 0.11819
vt 0.75361 0.02335
vt 0.76411 0.02335
vt 0.75361 0.05983
vt 0.76411 0.05983
vt 0.76411 0.08609
vt 0.75361 0.08609
vt 0.76411 0.01022
vt 0.75361 0.01022
vt 0.76411 0.04718
vt 0.75361 0.04718
vt 0.75360 0.08694
vt 0.75360 0.03429
vt 0.76411 0.03429
vt 0.76411 0.08694
vt 0.75360 0.01849
vt 0.76411 0.01849
vt 0.76411 0.07661
vt 0.75360 0.07661
vt 0.76411 0.12439
vt 0.75360 0.12439
vt 0.76411 0.05414
vt 0.75360 0.05414
vt 0.76411 0.00317
vt 0.75360 0.00317
vt 0.76411 0.01678
vt 0.75360 0.01678
vt 0.76411 0.03551
vt 0.75360 0.03551
vt 0.75360 0.09193
vt 0.76411 0.09193
vt 0.75360 0.01800
vt 0.76411 0.01800
vt 0.75360 0.05788
vt 0.76411 0.05788
vt 0.76411 0.08317
vt 0.75360 0.08317
vt 0.76411 0.00925
vt 0.75360 0.00925
vt 0.76411 0.05496
vt 0.75360 0.05496
vt 0.76410 0.03429
vt 0.76410 0.08694
vt 0.76717 0.03393
vt 0.76717 0.08682
vt 0.76410 0.01843
vt 0.76717 0.01849
vt 0.76410 0.07655
vt 0.76717 0.07673
vt 0.76410 0.12436
vt 0.76717 0.12438
vt 0.76410 0.05408
vt 0.76717 0.05439
vt 0.76410 0.00317
vt 0.76717 0.00292
vt 0.76410 0.01678
vt 0.76717 0.01654
vt 0.76410 0.03551
vt 0.76717 0.03551
vt 0.76410 0.09193
vt 0.76717 0.09193
vt 0.76410 0.01800
vt 0.76717 0.01800
vt 0.76410 0.05788
vt 0.76717 0.05788
vt 0.76410 0.08220
vt 0.76717 0.08220
vt 0.76410 0.00925
vt 0.76717 0.00925
vt 0.76410 0.05496
vt 0.76717 0.05496
vt 0.76717 0.03393
vt 0.76410 0.08694
vt 0.76410 0.03429
vt 0.76717 0.08682
vt 0.76410 0.01843
vt 0.76717 0.01849
vt 0.76410 0.07655
vt 0.76717 0.07673
vt 0.76410 0.12436
vt 0.76717 0.12438
vt 0.76410 0.05408
vt 0.76717 0.05439
vt 0.76410 0.00317
vt 0.76717 0.00292
vt 0.76410 0.01678
vt 0.76717 0.01654
vt 0.76410 0.03551
vt 0.76717 0.03551
vt 0.76410 0.09193
vt 0.76717 0.09193
vt 0.76410 0.01800
vt 0.76717 0.01800
vt 0.76410 0.05788
vt 0.76717 0.05788
vt 0.76410 0.08220
vt 0.76717 0.08220
vt 0.76410 0.00925
vt 0.76717 0.00925
vt 0.76410 0.05496
vt 0.76717 0.05496
vt 0.75361 0.01751
vt 0.75361 0.09825
vt 0.76411 0.09825
vt 0.76411 0.01751
vt 0.75361 0.07333
vt 0.76411 0.07333
vt 0.76411 0.01010
vt 0.75361 0.01010
vt 0.76411 0.04293
vt 0.75361 0.04293
vt 0.76411 0.08621
vt 0.75361 0.08621
vt 0.76411 0.06883
vt 0.75361 0.06883
vt 0.76411 0.06396
vt 0.75361 0.06396
vt 0.76411 0.09825
vt 0.75361 0.09825
vt 0.75361 0.11819
vt 0.76411 0.11819
vt 0.75361 0.02335
vt 0.76411 0.02335
vt 0.75361 0.05983
vt 0.76411 0.05983
vt 0.76411 0.08609
vt 0.75361 0.08609
vt 0.76411 0.01022
vt 0.75361 0.01022
vt 0.76411 0.04718
vt 0.75361 0.04718
vt 0.76411 0.03429
vt 0.75360 0.03429
vt 0.75360 0.08694
vt 0.76411 0.08694
vt 0.75360 0.01849
vt 0.76411 0.01849
vt 0.76411 0.07661
vt 0.75360 0.07661
vt 0.76411 0.12439
vt 0.75360 0.12439
vt 0.76411 0.05414
vt 0.75360 0.05414
vt 0.76411 0.00317
vt 0.75360 0.00317
vt 0.76411 0.01678
vt 0.75360 0.01678
vt 0.76411 0.03551
vt 0.75360 0.03551
vt 0.75360 0.09193
vt 0.76411 0.09193
vt 0.75360 0.01800
vt 0.76411 0.01800
vt 0.75360 0.05788
vt 0.76411 0.05788
vt 0.76411 0.08317
vt 0.75360 0.08317
vt 0.76411 0.00925
vt 0.75360 0.00925
vt 0.76411 0.05496
vt 0.75360 0.05496
vt 0.75350 0.01849
vt 0.76716 0.07655
vt 0.76716 0.01843
vt 0.75350 0.07673
vt 0.75350 0.03393
vt 0.76716 0.08694
vt 0.76716 0.03429
vt 0.75350 0.08682
vt 0.75350 0.08220
vt 0.76716 0.00925
vt 0.76716 0.08220
vt 0.75350 0.00925
vt 0.76716 0.01843
vt 0.76716 0.07655
vt 0.75350 0.01849
vt 0.75350 0.07673
vt 0.76716 0.03429
vt 0.76716 0.08694
vt 0.75350 0.03393
vt 0.75350 0.08682
vt 0.76716 0.08220
vt 0.76716 0.00925
vt 0.75350 0.08220
vt 0.75350 0.00925
vt 0.76716 0.01843
vt 0.76716 0.07655
vt 0.75350 0.01849
vt 0.75350 0.07673
vt 0.76716 0.03429
vt 0.76716 0.08694
vt 0.75350 0.03393
vt 0.75350 0.08682
vt 0.76716 0.08220
vt 0.76716 0.00925
vt 0.75350 0.08220
vt 0.75350 0.00925
vt 0.75350 0.01849
vt 0.76716 0.07655
vt 0.76716 0.01843
vt 0.75350 0.07673
vt 0.75350 0.03393
vt 0.76716 0.08694
vt 0.76716 0.03429
vt 0.75350 0.08682
vt 0.75350 0.08220
vt 0.76716 0.00925
vt 0.76716 0.08220
vt 0.75350 0.00925
vt 0.76716 0.05910
vt 0.76716 0.01630
vt 0.75350 0.05886
vt 0.75350 0.01605
vt 0.75350 0.05886
vt 0.76716 0.01630
vt 0.76716 0.05910
vt 0.75350 0.01605
vt 0.76410 0.05910
vt 0.76410 0.01630
vt 0.76717 0.05886
vt 0.76717 0.01605
vt 0.76717 0.05886
vt 0.76410 0.01630
vt 0.76410 0.05910
vt 0.76717 0.01605
vt 0.76411 0.06542
vt 0.76411 0.11114
vt 0.75361 0.06542
vt 0.75361 0.11114
vt 0.76411 0.05910
vt 0.75360 0.05910
vt 0.76411 0.01630
vt 0.75360 0.01630
vt 0.75350 0.05886
vt 0.76716 0.01630
vt 0.76716 0.05910
vt 0.75350 0.01605
vt 0.76716 0.05910
vt 0.76716 0.01630
vt 0.75350 0.05886
vt 0.75350 0.01605
vt 0.76717 0.05886
vt 0.76410 0.01630
vt 0.76410 0.05910
vt 0.76717 0.01605
vt 0.76410 0.05910
vt 0.76410 0.01630
vt 0.76717 0.05886
vt 0.76717 0.01605
vt 0.76411 0.06542
vt 0.75361 0.06542
vt 0.76411 0.11114
vt 0.75361 0.11114
vt 0.76411 0.05910
vt 0.76411 0.01630
vt 0.75360 0.05910
vt 0.75360 0.01630
vt 0.76716 0.03648
vt 0.76716 0.06858
vt 0.75350 0.03551
vt 0.75350 0.06858
vt 0.75350 0.03551
vt 0.76716 0.06858
vt 0.75350 0.03551
vt 0.76716 0.06858
vt 0.76716 0.03648
vt 0.76716 0.06858
vt 0.75350 0.03551
vt 0.75350 0.06858
vt 0.76410 0.03648
vt 0.76410 0.06858
vt 0.76717 0.03551
vt 0.76717 0.06858
vt 0.76717 0.03551
vt 0.76410 0.06858
vt 0.76410 0.03648
vt 0.76717 0.06858
vt 0.76411 0.11430
vt 0.76411 0.00633
vt 0.75361 0.11430
vt 0.75361 0.00633
vt 0.76411 0.03648
vt 0.75360 0.03648
vt 0.76411 0.06858
vt 0.75360 0.06858
vt 0.75350 0.03551
vt 0.76716 0.06858
vt 0.76716 0.03648
vt 0.76716 0.06858
vt 0.75350 0.03551
vt 0.75350 0.06858
vt 0.76716 0.03648
vt 0.76716 0.06858
vt 0.75350 0.03551
vt 0.75350 0.06858
vt 0.75350 0.03551
vt 0.76716 0.06858
vt 0.76717 0.03551
vt 0.76410 0.06858
vt 0.76410 0.03648
vt 0.76717 0.06858
vt 0.76410 0.03648
vt 0.76410 0.06858
vt 0.76717 0.03551
vt 0.76717 0.06858
vt 0.76411 0.11430
vt 0.75361 0.11430
vt 0.76411 0.00633
vt 0.75361 0.00633
vt 0.76411 0.03648
vt 0.76411 0.06858
vt 0.75360 0.03648
vt 0.75360 0.06858
vt 0.76716 0.03429
vt 0.75350 0.01605
vt 0.75350 0.03393
vt 0.75350 0.01605
vt 0.76716 0.03429
vt 0.76716 0.01630
vt 0.75350 0.03393
vt 0.75350 0.01605
vt 0.76716 0.03429
vt 0.76716 0.01630
vt 0.76716 0.03429
vt 0.75350 0.01605
vt 0.75350 0.03393
vt 0.75350 0.01605
vt 0.76716 0.03429
vt 0.76716 0.01630
vt 0.76716 0.03429
vt 0.75350 0.01605
vt 0.76716 0.03429
vt 0.75350 0.01605
vt 0.75350 0.03393
vt 0.75350 0.01605
vt 0.76716 0.03429
vt 0.76716 0.01630
vt 0.75360 0.09971
vt 0.76411 0.09971
vt 0.76411 0.05691
vt 0.75361 0.05691
vt 0.76410 0.09971
vt 0.76717 0.09971
vt 0.76716 0.03648
vt 0.75350 0.05496
vt 0.75350 0.03551
vt 0.76716 0.05496
vt 0.76716 0.09971
vt 0.75350 0.06858
vt 0.75350 0.09971
vt 0.76716 0.06858
vt 0.75350 0.03551
vt 0.75350 0.05496
vt 0.76716 0.03648
vt 0.76716 0.05496
vt 0.75350 0.09971
vt 0.75350 0.06858
vt 0.76716 0.09971
vt 0.76716 0.06858
vt 0.76717 0.09971
vt 0.76410 0.09971
vt 0.76411 0.09971
vt 0.75360 0.09971
vt 0.75361 0.05691
vt 0.76411 0.05691
vt 0.76717 0.09971
vt 0.76410 0.09971
vt 0.75350 0.03551
vt 0.75350 0.05496
vt 0.76716 0.03648
vt 0.76716 0.05496
vt 0.75350 0.09971
vt 0.75350 0.06858
vt 0.76716 0.09971
vt 0.76716 0.06858
vt 0.76716 0.03648
vt 0.75350 0.05496
vt 0.75350 0.03551
vt 0.76716 0.05496
vt 0.76716 0.09971
vt 0.75350 0.06858
vt 0.75350 0.09971
vt 0.76716 0.06858
vt 0.76410 0.09971
vt 0.76717 0.09971
vt 0.76411 0.09825
vt 0.75361 0.09825
vt 0.75361 0.01751
vt 0.76411 0.01751
vt 0.75361 0.07333
vt 0.76411 0.07333
vt 0.76411 0.01010
vt 0.75361 0.01010
vt 0.76411 0.04293
vt 0.75361 0.04293
vt 0.76411 0.08621
vt 0.75361 0.08621
vt 0.76411 0.06883
vt 0.75361 0.06883
vt 0.76411 0.06396
vt 0.75361 0.06396
vt 0.76411 0.09825
vt 0.75361 0.09825
vt 0.75361 0.11819
vt 0.76411 0.11819
vt 0.75361 0.02335
vt 0.76411 0.02335
vt 0.75361 0.05983
vt 0.76411 0.05983
vt 0.76411 0.08609
vt 0.75361 0.08609
vt 0.76411 0.01022
vt 0.75361 0.01022
vt 0.76411 0.04718
vt 0.75361 0.04718
vt 0.75360 0.08694
vt 0.75360 0.03429
vt 0.76411 0.03429
vt 0.76411 0.08694
vt 0.75360 0.01849
vt 0.76411 0.01849
vt 0.76411 0.07661
vt 0.75360 0.07661
vt 0.76411 0.12439
vt 0.75360 0.12439
vt 0.76411 0.05414
vt 0.75360 0.05414
vt 0.76411 0.00317
vt 0.75360 0.00317
vt 0.76411 0.01678
vt 0.75360 0.01678
vt 0.76411 0.03551
vt 0.75360 0.03551
vt 0.75360 0.09193
vt 0.76411 0.09193
vt 0.75360 0.01800
vt 0.76411 0.01800
vt 0.75360 0.05788
vt 0.76411 0.05788
vt 0.76411 0.08317
vt 0.75360 0.08317
vt 0.76411 0.00925
vt 0.75360 0.00925
vt 0.76411 0.05496
vt 0.75360 0.05496
vt 0.75361 0.01751
vt 0.75361 0.09825
vt 0.76411 0.09825
vt 0.76411 0.01751
vt 0.75361 0.07333
vt 0.76411 0.07333
vt 0.76411 0.01010
vt 0.75361 0.01010
vt 0.76411 0.04293
vt 0.75361 0.04293
vt 0.76411 0.08621
vt 0.75361 0.08621
vt 0.76411 0.06883
vt 0.75361 0.06883
vt 0.76411 0.06396
vt 0.75361 0.06396
vt 0.76411 0.09825
vt 0.75361 0.09825
vt 0.75361 0.11819
vt 0.76411 0.11819
vt 0.75361 0.02335
vt 0.76411 0.02335
vt 0.75361 0.05983
vt 0.76411 0.05983
vt 0.76411 0.08609
vt 0.75361 0.08609
vt 0.76411 0.01022
vt 0.75361 0.01022
vt 0.76411 0.04718
vt 0.75361 0.04718
vt 0.76411 0.03429
vt 0.75360 0.03429
vt 0.75360 0.08694
vt 0.76411 0.08694
vt 0.75360 0.01849
vt 0.76411 0.01849
vt 0.76411 0.07661
vt 0.75360 0.07661
vt 0.76411 0.12439
vt 0.75360 0.12439
vt 0.76411 0.05414
vt 0.75360 0.05414
vt 0.76411 0.00317
vt 0.75360 0.00317
vt 0.76411 0.01678
vt 0.75360 0.01678
vt 0.76411 0.03551
vt 0.75360 0.03551
vt 0.75360 0.09193
vt 0.76411 0.09193
vt 0.75360 0.01800
vt 0.76411 0.01800
vt 0.75360 0.05788
vt 0.76411 0.05788
vt 0.76411 0.08317
vt 0.75360 0.08317
vt 0.76411 0.00925
vt 0.75360 0.00925
vt 0.76411 0.05496
vt 0.75360 0.05496
vt 0.76411 0.06542
vt 0.76411 0.11114
vt 0.75361 0.06542
vt 0.75361 0.11114
vt 0.76411 0.05910
vt 0.75360 0.05910
vt 0.76411 0.01630
vt 0.75360 0.01630
vt 0.76411 0.06542
vt 0.75361 0.06542
vt 0.76411 0.11114
vt 0.75361 0.11114
vt 0.76411 0.05910
vt 0.76411 0.01630
vt 0.75360 0.05910
vt 0.75360 0.01630
vt 0.76411 0.11430
vt 0.76411 0.00633
vt 0.75361 0.11430
vt 0.75361 0.00633
vt 0.76411 0.03648
vt 0.75360 0.03648
vt 0.76411 0.06858
vt 0.75360 0.06858
vt 0.76411 0.11430
vt 0.75361 0.11430
vt 0.76411 0.00633
vt 0.75361 0.00633
vt 0.76411 0.03648
vt 0.76411 0.06858
vt 0.75360 0.03648
vt 0.75360 0.06858
vt 0.75360 0.09971
vt 0.76411 0.09971
vt 0.76411 0.05691
vt 0.75361 0.05691
vt 0.76411 0.09971
vt 0.75360 0.09971
vt 0.75361 0.05691
vt 0.76411 0.05691
usemtl pz4_hull_m5
s 1
f 3/3 2/2 1/1
f 6/6 5/5 4/4
f 9/9 8/8 7/7
f 12/12 11/11 10/10
f 15/15 14/14 13/13
f 18/18 17/17 16/16
f 21/21 20/20 19/19
f 24/24 23/23 22/22
f 27/27 26/26 25/25
f 30/30 29/29 28/28
f 33/33 32/32 31/31
f 36/36 35/35 34/34
f 39/39 38/38 37/37
f 42/42 41/41 40/40
f 45/45 44/44 43/43
f 48/48 47/47 46/46
f 51/51 50/50 49/49
f 54/54 53/53 52/52
f 57/57 56/56 55/55
f 60/60 59/59 58/58
f 63/63 62/62 61/61
f 66/66 65/65 64/64
f 69/69 68/68 67/67
f 72/72 71/71 70/70
f 75/75 74/74 73/73
f 78/78 77/77 76/76
f 81/81 80/80 79/79
f 84/84 83/83 82/82
f 87/87 86/86 85/85
f 90/90 89/89 88/88
f 93/93 92/92 91/91
f 96/96 95/95 94/94
f 99/99 98/98 97/97
f 102/102 101/101 100/100
f 105/105 104/104 103/103
f 108/108 107/107 106/106
f 111/111 110/110 109/109
f 114/114 113/113 112/112
f 117/117 116/116 115/115
f 120/120 119/119 118/118
f 123/123 122/122 121/121
f 126/126 125/125 124/124
f 129/129 128/128 127/127
f 132/132 131/131 130/130
f 135/135 134/134 133/133
f 138/138 137/137 136/136
f 141/141 140/140 139/139
f 144/144 143/143 142/142
f 147/147 146/146 145/145
f 150/150 149/149 148/148
f 153/153 152/152 151/151
f 156/156 155/155 154/154
f 159/159 158/158 157/157
f 162/162 161/161 160/160
f 165/165 164/164 163/163
f 168/168 167/167 166/166
f 171/171 170/170 169/169
f 174/174 173/173 172/172
f 177/177 176/176 175/175
f 180/180 179/179 178/178
f 183/183 182/182 181/181
f 186/186 185/185 184/184
f 189/189 188/188 187/187
f 192/192 191/191 190/190
f 195/195 194/194 193/193
f 198/198 197/197 196/196
f 201/201 200/200 199/199
f 204/204 203/203 202/202
f 207/207 206/206 205/205
f 210/210 209/209 208/208
f 213/213 212/212 211/211
f 216/216 215/215 214/214
f 219/219 218/218 217/217
f 222/222 221/221 220/220
f 225/225 224/224 223/223
f 228/228 227/227 226/226
f 231/231 230/230 229/229
f 234/234 233/233 232/232
f 237/237 236/236 235/235
f 240/240 239/239 238/238
f 243/243 242/242 241/241
f 246/246 245/245 244/244
f 249/249 248/248 247/247
f 252/252 251/251 250/250
f 255/255 254/254 253/253
f 258/258 257/257 256/256
f 261/261 260/260 259/259
f 264/264 263/263 262/262
f 267/267 266/266 265/265
f 268/268 265/265 266/266
f 266/266 269/269 268/268
f 270/270 268/268 269/269
f 269/269 271/271 270/270
f 272/272 270/270 271/271
f 271/271 273/273 272/272
f 274/274 272/272 273/273
f 273/273 275/275 274/274
f 276/276 274/274 275/275
f 275/275 277/277 276/276
f 278/278 276/276 277/277
f 277/277 279/279 278/278
f 280/280 278/278 279/279
f 279/279 281/281 280/280
f 282/282 280/280 281/281
f 281/281 283/283 282/282
f 284/284 282/282 283/283
f 283/283 285/285 284/284
f 286/286 284/284 285/285
f 285/285 287/287 286/286
f 288/288 286/286 287/287
f 287/287 289/289 288/288
f 290/290 288/288 289/289
f 289/289 291/291 290/290
f 292/292 290/290 291/291
f 291/291 293/293 292/292
f 294/294 292/292 293/293
f 297/297 296/296 295/295
f 296/296 297/297 298/298
f 298/298 299/299 296/296
f 299/299 298/298 300/300
f 300/300 301/301 299/299
f 301/301 300/300 302/302
f 302/302 303/303 301/301
f 303/303 302/302 304/304
f 304/304 305/305 303/303
f 305/305 304/304 306/306
f 306/306 307/307 305/305
f 307/307 306/306 308/308
f 308/308 309/309 307/307
f 309/309 308/308 310/310
f 310/310 311/311 309/309
f 311/311 310/310 312/312
f 312/312 313/313 311/311
f 313/313 312/312 314/314
f 314/314 315/315 313/313
f 315/315 314/314 316/316
f 316/316 317/317 315/315
f 317/317 316/316 318/318
f 318/318 319/319 317/317
f 319/319 318/318 320/320
f 320/320 321/321 319/319
f 321/321 320/320 322/322
f 322/322 323/323 321/321
f 323/323 322/322 324/324
f 327/327 326/326 325/325
f 327/327 325/325 328/328
f 329/329 327/327 328/328
f 329/329 328/328 330/330
f 331/331 329/329 330/330
f 331/331 332/332 329/329
f 333/333 332/332 331/331
f 333/333 334/334 332/332
f 335/335 334/334 333/333
f 335/335 336/336 334/334
f 337/337 336/336 335/335
f 337/337 338/338 336/336
f 339/339 338/338 337/337
f 339/339 340/340 338/338
f 341/341 340/340 339/339
f 341/341 342/342 340/340
f 343/343 342/342 341/341
f 343/343 341/341 344/344
f 345/345 343/343 344/344
f 345/345 344/344 346/346
f 347/347 345/345 346/346
f 347/347 346/346 348/348
f 349/349 347/347 348/348
f 349/349 350/350 347/347
f 351/351 350/350 349/349
f 351/351 352/352 350/350
f 353/353 352/352 351/351
f 353/353 354/354 352/352
f 357/357 356/356 355/355
f 357/357 355/355 358/358
f 358/358 355/355 359/359
f 358/358 359/359 360/360
f 359/359 361/361 360/360
f 359/359 362/362 361/361
f 362/362 363/363 361/361
f 362/362 364/364 363/363
f 364/364 365/365 363/363
f 364/364 366/366 365/365
f 366/366 367/367 365/365
f 366/366 368/368 367/367
f 368/368 369/369 367/367
f 368/368 370/370 369/369
f 370/370 371/371 369/369
f 370/370 372/372 371/371
f 371/371 372/372 373/373
f 371/371 373/373 374/374
f 374/374 373/373 375/375
f 374/374 375/375 376/376
f 376/376 375/375 377/377
f 376/376 377/377 378/378
f 377/377 379/379 378/378
f 377/377 380/380 379/379
f 380/380 381/381 379/379
f 380/380 382/382 381/381
f 382/382 383/383 381/381
f 382/382 384/384 383/383
f 387/387 386/386 385/385
f 386/386 387/387 388/388
f 388/388 389/389 386/386
f 389/389 388/388 390/390
f 390/390 391/391 389/389
f 391/391 390/390 392/392
f 392/392 393/393 391/391
f 393/393 392/392 394/394
f 394/394 395/395 393/393
f 395/395 394/394 396/396
f 396/396 397/397 395/395
f 397/397 396/396 398/398
f 398/398 399/399 397/397
f 399/399 398/398 400/400
f 400/400 401/401 399/399
f 401/401 400/400 402/402
f 402/402 403/403 401/401
f 403/403 402/402 404/404
f 404/404 405/405 403/403
f 405/405 404/404 406/406
f 406/406 407/407 405/405
f 407/407 406/406 408/408
f 408/408 409/409 407/407
f 409/409 408/408 410/410
f 410/410 411/411 409/409
f 411/411 410/410 412/412
f 412/412 413/413 411/411
f 413/413 412/412 414/414
f 417/417 416/416 415/415
f 418/418 415/415 416/416
f 416/416 419/419 418/418
f 420/420 418/418 419/419
f 419/419 421/421 420/420
f 422/422 420/420 421/421
f 421/421 423/423 422/422
f 424/424 422/422 423/423
f 423/423 425/425 424/424
f 426/426 424/424 425/425
f 425/425 427/427 426/426
f 428/428 426/426 427/427
f 427/427 429/429 428/428
f 430/430 428/428 429/429
f 429/429 431/431 430/430
f 432/432 430/430 431/431
f 431/431 433/433 432/432
f 434/434 432/432 433/433
f 433/433 435/435 434/434
f 436/436 434/434 435/435
f 435/435 437/437 436/436
f 438/438 436/436 437/437
f 437/437 439/439 438/438
f 440/440 438/438 439/439
f 439/439 441/441 440/440
f 442/442 440/440 441/441
f 441/441 443/443 442/442
f 444/444 442/442 443/443
f 447/447 446/446 445/445
f 447/447 445/445 448/448
f 448/448 445/445 449/449
f 448/448 449/449 450/450
f 449/449 451/451 450/450
f 449/449 452/452 451/451
f 452/452 453/453 451/451
f 452/452 454/454 453/453
f 454/454 455/455 453/453
f 454/454 456/456 455/455
f 456/456 457/457 455/455
f 456/456 458/458 457/457
f 458/458 459/459 457/457
f 458/458 460/460 459/459
f 460/460 461/461 459/459
f 460/460 462/462 461/461
f 461/461 462/462 463/463
f 461/461 463/463 464/464
f 464/464 463/463 465/465
f 464/464 465/465 466/466
f 466/466 465/465 467/467
f 466/466 467/467 468/468
f 467/467 469/469 468/468
f 467/467 470/470 469/469
f 470/470 471/471 469/469
f 470/470 472/472 471/471
f 472/472 473/473 471/471
f 472/472 474/474 473/473
f 477/477 476/476 475/475
f 477/477 475/475 478/478
f 479/479 477/477 478/478
f 479/479 478/478 480/480
f 481/481 479/479 480/480
f 481/481 482/482 479/479
f 483/483 482/482 481/481
f 483/483 484/484 482/482
f 485/485 484/484 483/483
f 485/485 486/486 484/484
f 487/487 486/486 485/485
f 487/487 488/488 486/486
f 489/489 488/488 487/487
f 489/489 490/490 488/488
f 491/491 490/490 489/489
f 491/491 492/492 490/490
f 493/493 492/492 491/491
f 493/493 491/491 494/494
f 495/495 493/493 494/494
f 495/495 494/494 496/496
f 497/497 495/495 496/496
f 497/497 496/496 498/498
f 499/499 497/497 498/498
f 499/499 500/500 497/497
f 501/501 500/500 499/499
f 501/501 502/502 500/500
f 503/503 502/502 501/501
f 503/503 504/504 502/502
f 507/507 506/506 505/505
f 508/508 505/505 506/506
f 511/511 510/510 509/509
f 512/512 509/509 510/510
f 515/515 514/514 513/513
f 516/516 513/513 514/514
f 519/519 518/518 517/517
f 518/518 519/519 520/520
f 523/523 522/522 521/521
f 522/522 523/523 524/524
f 527/527 526/526 525/525
f 526/526 527/527 528/528
f 531/531 530/530 529/529
f 530/530 531/531 532/532
f 535/535 534/534 533/533
f 534/534 535/535 536/536
f 539/539 538/538 537/537
f 538/538 539/539 540/540
f 543/543 542/542 541/541
f 544/544 541/541 542/542
f 547/547 546/546 545/545
f 548/548 545/545 546/546
f 551/551 550/550 549/549
f 552/552 549/549 550/550
f 555/555 554/554 553/553
f 554/554 555/555 556/556
f 559/559 558/558 557/557
f 560/560 557/557 558/558
f 563/563 562/562 561/561
f 562/562 563/563 564/564
f 567/567 566/566 565/565
f 568/568 565/565 566/566
f 571/571 570/570 569/569
f 571/571 572/572 570/570
f 575/575 574/574 573/573
f 575/575 576/576 574/574
f 579/579 578/578 577/577
f 580/580 577/577 578/578
f 583/583 582/582 581/581
f 582/582 583/583 584/584
f 587/587 586/586 585/585
f 588/588 585/585 586/586
f 591/591 590/590 589/589
f 590/590 591/591 592/592
f 595/595 594/594 593/593
f 595/595 596/596 594/594
f 599/599 598/598 597/597
f 599/599 600/600 598/598
f 603/603 602/602 601/601
f 606/606 605/605 604/604
f 609/609 608/608 607/607
f 612/612 611/611 610/610
f 615/615 614/614 613/613
f 614/614 615/615 616/616
f 619/619 618/618 617/617
f 620/620 617/617 618/618
f 623/623 622/622 621/621
f 623/623 624/624 622/622
f 627/627 626/626 625/625
f 627/627 628/628 626/626
f 631/631 630/630 629/629
f 634/634 633/633 632/632
f 637/637 636/636 635/635
f 640/640 639/639 638/638
f 643/643 642/642 641/641
f 644/644 641/641 642/642
f 647/647 646/646 645/645
f 646/646 647/647 648/648
f 651/651 650/650 649/649
f 651/651 652/652 650/650
f 655/655 654/654 653/653
f 655/655 656/656 654/654
f 659/659 658/658 657/657
f 662/662 661/661 660/660
f 665/665 664/664 663/663
f 668/668 667/667 666/666
f 671/671 670/670 669/669
f 674/674 673/673 672/672
f 677/677 676/676 675/675
f 680/680 679/679 678/678
f 682/682 681/681 628/628
f 682/682 628/628 627/627
f 625/625 626/626 504/504
f 625/625 504/504 503/503
f 475/475 476/476 576/576
f 475/475 576/576 575/575
f 624/624 684/684 683/683
f 624/624 683/683 622/622
f 474/474 623/623 621/621
f 474/474 621/621 473/473
f 572/572 446/446 447/447
f 572/572 447/447 570/570
f 686/686 620/620 685/685
f 618/618 685/685 620/620
f 617/617 444/444 619/619
f 443/443 619/619 444/444
f 415/415 568/568 417/417
f 566/566 417/417 568/568
f 689/689 688/688 687/687
f 690/690 687/687 688/688
f 693/693 692/692 691/691
f 694/694 691/691 692/692
f 697/697 696/696 695/695
f 696/696 697/697 698/698
f 701/701 700/700 699/699
f 700/700 701/701 702/702
f 704/704 616/616 703/703
f 616/616 704/704 614/614
f 613/613 414/414 615/615
f 414/414 613/613 413/413
f 385/385 564/564 387/387
f 564/564 385/385 562/562
f 656/656 706/706 705/705
f 656/656 705/705 654/654
f 384/384 655/655 653/653
f 384/384 653/653 383/383
f 600/600 356/356 357/357
f 600/600 357/357 598/598
f 708/708 707/707 652/652
f 708/708 652/652 651/651
f 649/649 650/650 354/354
f 649/649 354/354 353/353
f 325/325 326/326 596/596
f 325/325 596/596 595/595
f 710/710 648/648 709/709
f 648/648 710/710 646/646
f 645/645 324/324 647/647
f 324/324 645/645 323/323
f 295/295 592/592 297/297
f 592/592 295/295 590/590
f 713/713 712/712 711/711
f 712/712 713/713 714/714
f 717/717 716/716 715/715
f 716/716 717/717 718/718
f 721/721 720/720 719/719
f 722/722 719/719 720/720
f 725/725 724/724 723/723
f 726/726 723/723 724/724
f 728/728 644/644 727/727
f 642/642 727/727 644/644
f 641/641 294/294 643/643
f 293/293 643/643 294/294
f 265/265 588/588 267/267
f 586/586 267/267 588/588
f 731/731 730/730 729/729
f 731/731 729/729 732/732
f 733/733 731/731 732/732
f 733/733 732/732 734/734
f 735/735 733/733 734/734
f 735/735 736/736 733/733
f 737/737 736/736 735/735
f 737/737 738/738 736/736
f 739/739 738/738 737/737
f 739/739 740/740 738/738
f 741/741 740/740 739/739
f 741/741 742/742 740/740
f 743/743 742/742 741/741
f 743/743 744/744 742/742
f 745/745 744/744 743/743
f 745/745 746/746 744/744
f 747/747 746/746 745/745
f 747/747 745/745 748/748
f 749/749 747/747 748/748
f 749/749 748/748 750/750
f 751/751 749/749 750/750
f 751/751 750/750 752/752
f 753/753 751/751 752/752
f 753/753 754/754 751/751
f 755/755 754/754 753/753
f 755/755 756/756 754/754
f 757/757 756/756 755/755
f 757/757 758/758 756/756
f 761/761 760/760 759/759
f 761/761 759/759 762/762
f 762/762 759/759 763/763
f 762/762 763/763 764/764
f 763/763 765/765 764/764
f 763/763 766/766 765/765
f 766/766 767/767 765/765
f 766/766 768/768 767/767
f 768/768 769/769 767/767
f 768/768 770/770 769/769
f 770/770 771/771 769/769
f 770/770 772/772 771/771
f 772/772 773/773 771/771
f 772/772 774/774 773/773
f 774/774 775/775 773/773
f 774/774 776/776 775/775
f 775/775 776/776 777/777
f 775/775 777/777 778/778
f 778/778 777/777 779/779
f 778/778 779/779 780/780
f 780/780 779/779 781/781
f 780/780 781/781 782/782
f 781/781 783/783 782/782
f 781/781 784/784 783/783
f 784/784 785/785 783/783
f 784/784 786/786 785/785
f 786/786 787/787 785/785
f 786/786 788/788 787/787
f 791/791 790/790 789/789
f 791/791 789/789 792/792
f 792/792 789/789 793/793
f 792/792 793/793 794/794
f 793/793 795/795 794/794
f 793/793 796/796 795/795
f 796/796 797/797 795/795
f 796/796 798/798 797/797
f 798/798 799/799 797/797
f 798/798 800/800 799/799
f 800/800 801/801 799/799
f 800/800 802/802 801/801
f 802/802 803/803 801/801
f 802/802 804/804 803/803
f 804/804 805/805 803/803
f 804/804 806/806 805/805
f 805/805 806/806 807/807
f 805/805 807/807 808/808
f 808/808 807/807 809/809
f 808/808 809/809 810/810
f 810/810 809/809 811/811
f 810/810 811/811 812/812
f 811/811 813/813 812/812
f 811/811 814/814 813/813
f 814/814 815/815 813/813
f 814/814 816/816 815/815
f 816/816 817/817 815/815
f 816/816 818/818 817/817
f 821/821 820/820 819/819
f 821/821 819/819 822/822
f 823/823 821/821 822/822
f 823/823 822/822 824/824
f 825/825 823/823 824/824
f 825/825 826/826 823/823
f 827/827 826/826 825/825
f 827/827 828/828 826/826
f 829/829 828/828 827/827
f 829/829 830/830 828/828
f 831/831 830/830 829/829
f 831/831 832/832 830/830
f 833/833 832/832 831/831
f 833/833 834/834 832/832
f 835/835 834/834 833/833
f 835/835 836/836 834/834
f 837/837 836/836 835/835
f 837/837 835/835 838/838
f 839/839 837/837 838/838
f 839/839 838/838 840/840
f 841/841 839/839 840/840
f 841/841 840/840 842/842
f 843/843 841/841 842/842
f 843/843 844/844 841/841
f 845/845 844/844 843/843
f 845/845 846/846 844/844
f 847/847 846/846 845/845
f 847/847 848/848 846/846
f 851/851 850/850 849/849
f 851/851 852/852 850/850
f 855/855 854/854 853/853
f 855/855 856/856 854/854
f 859/859 858/858 857/857
f 859/859 860/860 858/858
f 863/863 862/862 861/861
f 863/863 864/864 862/862
f 867/867 866/866 865/865
f 867/867 868/868 866/866
f 871/871 870/870 869/869
f 871/871 872/872 870/870
f 875/875 874/874 873/873
f 875/875 876/876 874/874
f 879/879 878/878 877/877
f 879/879 880/880 878/878
f 882/882 881/881 872/872
f 882/882 872/872 871/871
f 869/869 870/870 848/848
f 869/869 848/848 847/847
f 819/819 820/820 856/856
f 819/819 856/856 855/855
f 868/868 884/884 883/883
f 868/868 883/883 866/866
f 818/818 867/867 865/865
f 818/818 865/865 817/817
f 852/852 790/790 791/791
f 852/852 791/791 850/850
f 880/880 886/886 885/885
f 880/880 885/885 878/878
f 788/788 879/879 877/877
f 788/788 877/877 787/787
f 864/864 760/760 761/761
f 864/864 761/761 862/862
f 888/888 887/887 876/876
f 888/888 876/876 875/875
f 873/873 874/874 758/758
f 873/873 758/758 757/757
f 729/729 730/730 860/860
f 729/729 860/860 859/859
