mtllib sherman_hull_m11.mtl
o sherman_hull_m11
v 1.51270 -0.44957 0.31571
v 1.51196 -0.48845 -1.18307
v 1.50778 -0.48844 0.31571
v 1.51687 -0.44957 -1.18639
v 1.50075 -0.41272 -1.18422
v 1.49658 -0.41272 0.31571
v 1.46793 -0.38777 -1.17715
v 1.46376 -0.38776 0.31571
v 1.42719 -0.38140 -1.16706
v 1.42302 -0.38139 0.31571
v 1.38946 -0.39532 -1.15667
v 1.38528 -0.39531 0.31571
v 1.36483 -0.42580 -1.14875
v 1.36483 -0.42580 -1.14875
v 1.38528 -0.39531 0.31571
v 1.36066 -0.42579 0.31571
v 1.35992 -0.46467 -1.14543
v 1.36066 -0.42579 0.31571
v 1.35575 -0.46467 0.31571
v 1.37187 -0.50152 0.31571
v 1.37604 -0.50152 -1.14760
v 1.50778 -0.48844 0.31571
v 1.51196 -0.48845 -1.18307
v 1.48733 -0.51893 -1.17515
v 1.48733 -0.51893 -1.17515
v 1.48316 -0.51892 0.31571
v 1.48316 -0.51892 0.31571
v 1.44960 -0.53285 -1.16476
v 1.44543 -0.53284 0.31571
v 1.40886 -0.52648 -1.15467
v 1.40469 -0.52647 0.31571
v 1.37604 -0.50152 -1.14760
v 1.37187 -0.50152 0.31571
v 1.47169 -0.68122 0.30523
v 1.43816 -0.69190 -1.18725
v 1.43399 -0.69189 0.30523
v 1.47586 -0.68123 -1.19055
v 1.43816 -0.69190 -1.18725
v 1.50348 -0.65200 -1.18840
v 1.49931 -0.65199 0.30523
v 1.51363 -0.61203 -1.18135
v 1.51363 -0.61203 -1.18135
v 1.50946 -0.61203 0.30523
v 1.50358 -0.57204 -1.17131
v 1.50946 -0.61203 0.30523
v 1.49940 -0.57204 0.30523
v 1.47602 -0.54275 -1.16096
v 1.47602 -0.54275 -1.16096
v 1.47185 -0.54274 0.30523
v 1.43834 -0.53199 -1.15308
v 1.43417 -0.53199 0.30523
v 1.40064 -0.54266 -1.14977
v 1.43417 -0.53199 0.30523
v 1.39647 -0.54265 0.30523
v 1.36884 -0.57189 0.30523
v 1.37301 -0.57189 -1.15193
v 1.43399 -0.69189 0.30523
v 1.43816 -0.69190 -1.18725
v 1.40048 -0.68114 -1.17937
v 1.43399 -0.69189 0.30523
v 1.39631 -0.68114 0.30523
v 1.37292 -0.65185 -1.16902
v 1.36875 -0.65184 0.30523
v 1.36287 -0.61186 -1.15897
v 1.36287 -0.61186 -1.15897
v 1.35870 -0.61185 0.30523
v 1.35870 -0.61185 0.30523
v 1.37301 -0.57189 -1.15193
v 1.36884 -0.57189 0.30523
v 1.51270 -0.44957 1.93861
v 1.51196 -0.48845 0.43984
v 1.50778 -0.48844 1.93861
v 1.51687 -0.44957 0.43652
v 1.50075 -0.41272 0.43869
v 1.49658 -0.41272 1.93861
v 1.46793 -0.38777 0.44576
v 1.46376 -0.38776 1.93861
v 1.42719 -0.38140 0.45585
v 1.42302 -0.38139 1.93861
v 1.38946 -0.39532 0.46624
v 1.38528 -0.39531 1.93861
v 1.36483 -0.42580 0.47416
v 1.36483 -0.42580 0.47416
v 1.38528 -0.39531 1.93861
v 1.36066 -0.42579 1.93861
v 1.35992 -0.46467 0.47748
v 1.36066 -0.42579 1.93861
v 1.35575 -0.46467 1.93861
v 1.37187 -0.50152 1.93861
v 1.37604 -0.50152 0.47531
v 1.50778 -0.48844 1.93861
v 1.51196 -0.48845 0.43984
v 1.48733 -0.51893 0.44776
v 1.48733 -0.51893 0.44776
v 1.48316 -0.51892 1.93861
v 1.48316 -0.51892 1.93861
v 1.44960 -0.53285 0.45815
v 1.44543 -0.53284 1.93861
v 1.40886 -0.52648 0.46823
v 1.40469 -0.52647 1.93861
v 1.37604 -0.50152 0.47531
v 1.37187 -0.50152 1.93861
v 1.47169 -0.68122 1.92814
v 1.43816 -0.69190 0.43566
v 1.43399 -0.69189 1.92814
v 1.47586 -0.68123 0.43235
v 1.43816 -0.69190 0.43566
v 1.50348 -0.65200 0.43451
v 1.49931 -0.65199 1.92814
v 1.51363 -0.61203 0.44156
v 1.51363 -0.61203 0.44156
v 1.50946 -0.61203 1.92814
v 1.50358 -0.57204 0.45160
v 1.50946 -0.61203 1.92814
v 1.49940 -0.57204 1.92814
v 1.47602 -0.54275 0.46195
v 1.47602 -0.54275 0.46195
v 1.47185 -0.54274 1.92814
v 1.43834 -0.53199 0.46983
v 1.43417 -0.53199 1.92814
v 1.40064 -0.54266 0.47314
v 1.43417 -0.53199 1.92814
v 1.39647 -0.54265 1.92814
v 1.36884 -0.57189 1.92814
v 1.37301 -0.57189 0.47098
v 1.43399 -0.69189 1.92814
v 1.43816 -0.69190 0.43566
v 1.40048 -0.68114 0.44354
v 1.39631 -0.68114 1.92814
v 1.37292 -0.65185 0.45389
v 1.36875 -0.65184 1.92814
v 1.36287 -0.61186 0.46393
v 1.36287 -0.61186 0.46393
v 1.35870 -0.61185 1.92814
v 1.35870 -0.61185 1.92814
v 1.37301 -0.57189 0.47098
v 1.36884 -0.57189 1.92814
v -1.51901 -0.48496 -1.18307
v -1.51966 -0.44608 0.31571
v -1.51483 -0.48496 0.31571
v -1.52383 -0.44607 -1.18639
v -1.50763 -0.40926 -1.18422
v -1.50346 -0.40926 0.31571
v -1.47475 -0.38438 -1.17715
v -1.47057 -0.38438 0.31571
v -1.43399 -0.37810 -1.16706
v -1.42982 -0.37811 0.31571
v -1.39629 -0.39211 -1.15667
v -1.39212 -0.39211 0.31571
v -1.37174 -0.42265 -1.14875
v -1.36757 -0.42265 0.31571
v -1.36692 -0.46153 -1.14543
v -1.36275 -0.46154 0.31571
v -1.37895 -0.49835 0.31571
v -1.38312 -0.49834 -1.14760
v -1.49445 -0.51549 -1.17515
v -1.51901 -0.48496 -1.18307
v -1.51483 -0.48496 0.31571
v -1.49028 -0.51550 0.31571
v -1.45675 -0.52950 -1.16476
v -1.49445 -0.51549 -1.17515
v -1.49028 -0.51550 0.31571
v -1.45258 -0.52950 0.31571
v -1.41600 -0.52322 -1.15467
v -1.41183 -0.52323 0.31571
v -1.38312 -0.49834 -1.14760
v -1.37895 -0.49835 0.31571
v -1.44568 -0.68858 -1.18725
v -1.47918 -0.67783 0.30523
v -1.44150 -0.68858 0.30523
v -1.44568 -0.68858 -1.18725
v -1.48335 -0.67782 -1.19055
v -1.51091 -0.64852 -1.18840
v -1.50674 -0.64853 0.30523
v -1.52096 -0.60854 -1.18135
v -1.52096 -0.60854 -1.18135
v -1.51679 -0.60854 0.30523
v -1.51082 -0.56857 -1.17131
v -1.50665 -0.56858 0.30523
v -1.51679 -0.60854 0.30523
v -1.48319 -0.53934 -1.16096
v -1.47902 -0.53934 0.30523
v -1.44549 -0.52867 -1.15308
v -1.44132 -0.52868 0.30523
v -1.40781 -0.53943 -1.14977
v -1.40364 -0.53943 0.30523
v -1.44132 -0.52868 0.30523
v -1.37608 -0.56873 0.30523
v -1.38026 -0.56872 -1.15193
v -1.40797 -0.67791 -1.17937
v -1.44568 -0.68858 -1.18725
v -1.44150 -0.68858 0.30523
v -1.44150 -0.68858 0.30523
v -1.40380 -0.67791 0.30523
v -1.38035 -0.64868 -1.16902
v -1.37618 -0.64868 0.30523
v -1.37020 -0.60871 -1.15897
v -1.37020 -0.60871 -1.15897
v -1.36603 -0.60871 0.30523
v -1.38026 -0.56872 -1.15193
v -1.36603 -0.60871 0.30523
v -1.37608 -0.56873 0.30523
v -1.51901 -0.48496 0.43984
v -1.51966 -0.44608 1.93861
v -1.51483 -0.48496 1.93861
v -1.52383 -0.44607 0.43652
v -1.50763 -0.40926 0.43869
v -1.50346 -0.40926 1.93861
v -1.47475 -0.38438 0.44576
v -1.47057 -0.38438 1.93861
v -1.43399 -0.37810 0.45585
v -1.42982 -0.37811 1.93861
v -1.39629 -0.39211 0.46624
v -1.39212 -0.39211 1.93861
v -1.37174 -0.42265 0.47416
v -1.36757 -0.42265 1.93861
v -1.36692 -0.46153 0.47748
v -1.36275 -0.46154 1.93861
v -1.37895 -0.49835 1.93861
v -1.38312 -0.49834 0.47531
v -1.49445 -0.51549 0.44776
v -1.51901 -0.48496 0.43984
v -1.51483 -0.48496 1.93861
v -1.49445 -0.51549 0.44776
v -1.49028 -0.51550 1.93861
v -1.45675 -0.52950 0.45815
v -1.49028 -0.51550 1.93861
v -1.45258 -0.52950 1.93861
v -1.41600 -0.52322 0.46823
v -1.41183 -0.52323 1.93861
v -1.38312 -0.49834 0.47531
v -1.37895 -0.49835 1.93861
v -1.44568 -0.68858 0.43566
v -1.47918 -0.67783 1.92814
v -1.44150 -0.68858 1.92814
v -1.44568 -0.68858 0.43566
v -1.48335 -0.67782 0.43235
v -1.51091 -0.64852 0.43451
v -1.50674 -0.64853 1.92814
v -1.52096 -0.60854 0.44156
v -1.52096 -0.60854 0.44156
v -1.51679 -0.60854 1.92814
v -1.51082 -0.56857 0.45160
v -1.50665 -0.56858 1.92814
v -1.51679 -0.60854 1.92814
v -1.48319 -0.53934 0.46195
v -1.47902 -0.53934 1.92814
v -1.44549 -0.52867 0.46983
v -1.44132 -0.52868 1.92814
v -1.40781 -0.53943 0.47314
v -1.40364 -0.53943 1.92814
v -1.44132 -0.52868 1.92814
v -1.37608 -0.56873 1.92814
v -1.38026 -0.56872 0.47098
v -1.40797 -0.67791 0.44354
v -1.44568 -0.68858 0.43566
v -1.44150 -0.68858 1.92814
v -1.44150 -0.68858 1.92814
v -1.40380 -0.67791 1.92814
v -1.38035 -0.64868 0.45389
v -1.37618 -0.64868 1.92814
v -1.37020 -0.60871 0.46393
v -1.37020 -0.60871 0.46393
v -1.36603 -0.60871 1.92814
v -1.38026 -0.56872 0.47098
v -1.36603 -0.60871 1.92814
v -1.37608 -0.56873 1.92814
v -0.87033 -0.17153 -1.93365
v 0.62220 -0.13490 -1.94170
v 0.62215 -0.17324 -1.93365
v -0.87359 -0.13318 -1.94170
v 0.62220 -0.13490 -1.94170
v -0.87140 -0.10361 -1.96897
v 0.62223 -0.10533 -1.96897
v -0.86434 -0.09076 -2.00815
v 0.62224 -0.09247 -2.00815
v -0.85431 -0.09806 -2.04873
v 0.62224 -0.09976 -2.04873
v -0.84399 -0.12355 -2.07985
v 0.62224 -0.09976 -2.04873
v -0.84399 -0.12355 -2.07985
v 0.62221 -0.12524 -2.07985
v 0.62224 -0.09976 -2.04873
v -0.83615 -0.16041 -2.09316
v 0.62221 -0.12524 -2.07985
v 0.62216 -0.16209 -2.09316
v -0.83288 -0.19876 -2.08511
v 0.62212 -0.20044 -2.08511
v 0.62209 -0.23000 -2.05784
v -0.83508 -0.22832 -2.05784
v 0.62209 -0.23000 -2.05784
v -0.86249 -0.20839 -1.94696
v -0.87033 -0.17153 -1.93365
v 0.62215 -0.17324 -1.93365
v -0.86249 -0.20839 -1.94696
v 0.62215 -0.17324 -1.93365
v 0.62211 -0.21010 -1.94696
v -0.85217 -0.23388 -1.97808
v 0.62208 -0.23558 -1.97808
v -0.84213 -0.24118 -2.01866
v -0.85217 -0.23388 -1.97808
v 0.62208 -0.23558 -1.97808
v 0.62208 -0.23558 -1.97808
v 0.62207 -0.24286 -2.01866
v -0.83508 -0.22832 -2.05784
v 0.62207 -0.24286 -2.01866
v 0.62209 -0.23000 -2.05784
v -0.83926 -0.13854 -2.09712
v 0.92944 -0.11140 -2.12327
v 0.92941 -0.14058 -2.09712
v -0.83926 -0.13854 -2.09712
v -0.84285 -0.10936 -2.12327
v -0.84047 -0.09739 -2.16167
v 0.92944 -0.11140 -2.12327
v -0.84285 -0.10936 -2.12327
v -0.84047 -0.09739 -2.16167
v 0.92946 -0.09943 -2.16167
v 0.92944 -0.11140 -2.12327
v -0.83275 -0.10585 -2.20203
v 0.92945 -0.10788 -2.20203
v -0.82177 -0.13246 -2.23353
v 0.92945 -0.10788 -2.20203
v -0.83275 -0.10585 -2.20203
v -0.82177 -0.13246 -2.23353
v 0.92942 -0.13448 -2.23353
v 0.92945 -0.10788 -2.20203
v -0.81047 -0.17011 -2.24774
v 0.92942 -0.13448 -2.23353
v 0.92937 -0.17211 -2.24774
v -0.80187 -0.20869 -2.24084
v -0.80187 -0.20869 -2.24084
v 0.92933 -0.21068 -2.24084
v -0.79828 -0.23787 -2.21469
v -0.79828 -0.23787 -2.21469
v 0.92930 -0.23986 -2.21469
v 0.92933 -0.21068 -2.24084
v -0.79828 -0.23787 -2.21469
v 0.92928 -0.25183 -2.17630
v -0.80066 -0.24984 -2.17630
v 0.92928 -0.25183 -2.17630
v -0.83066 -0.17713 -2.09023
v -0.83926 -0.13854 -2.09712
v 0.92941 -0.14058 -2.09712
v 0.92937 -0.17915 -2.09023
v -0.81935 -0.21477 -2.10443
v 0.92932 -0.21678 -2.10443
v -0.80837 -0.24138 -2.13594
v -0.81935 -0.21477 -2.10443
v 0.92932 -0.21678 -2.10443
v 0.92929 -0.24338 -2.13594
v -0.80066 -0.24984 -2.17630
v -0.80837 -0.24138 -2.13594
v 0.92929 -0.24338 -2.13594
v -0.80066 -0.24984 -2.17630
v 0.92928 -0.25183 -2.17630
v -0.83716 0.05373 -1.96375
v 0.78224 0.07332 -2.20084
v 0.78697 0.06577 -2.16269
v -0.84549 0.06125 -2.00147
v 0.78224 0.07332 -2.20084
v -0.84764 0.04771 -2.03935
v 0.77774 0.05976 -2.23844
v -0.84305 0.01672 -2.06725
v 0.77467 0.02871 -2.26540
v -0.83294 -0.02340 -2.07770
v 0.77385 -0.01149 -2.27450
v -0.82002 -0.06192 -2.06788
v 0.77551 -0.05009 -2.26331
v -0.80775 -0.08850 -2.04044
v 0.77551 -0.05009 -2.26331
v 0.77919 -0.07673 -2.23482
v -0.79943 -0.09602 -2.00273
v 0.77919 -0.07673 -2.23482
v 0.78392 -0.08428 -2.19666
v -0.79943 -0.09602 -2.00273
v 0.78843 -0.07072 -2.15906
v -0.79727 -0.08248 -1.96484
v -0.82489 0.02715 -1.93631
v -0.83716 0.05373 -1.96375
v 0.78697 0.06577 -2.16269
v 0.78697 0.06577 -2.16269
v 0.79066 0.03913 -2.13419
v -0.81197 -0.01136 -1.92650
v -0.82489 0.02715 -1.93631
v 0.79066 0.03913 -2.13419
v 0.79232 0.00053 -2.12300
v -0.80186 -0.05149 -1.93694
v 0.79150 -0.03968 -2.13210
v -0.79727 -0.08248 -1.96484
v 0.78843 -0.07072 -2.15906
v -0.86131 -0.13003 -1.74013
v 0.56432 0.01408 -1.91537
v 0.56802 -0.02423 -1.90805
v -0.86131 -0.13003 -1.74013
v -0.86828 -0.09196 -1.74707
v -0.87146 -0.06207 -1.77388
v 0.56432 0.01408 -1.91537
v -0.87146 -0.06207 -1.77388
v 0.55900 0.04382 -1.94193
v -0.87000 -0.04837 -1.81338
v 0.55348 0.05700 -1.98060
v 0.55900 0.04382 -1.94193
v -0.86430 -0.05453 -1.85498
v 0.54925 0.05010 -2.02103
v -0.85587 -0.07890 -1.88753
v 0.54925 0.05010 -2.02103
v -0.86430 -0.05453 -1.85498
v 0.54742 0.02498 -2.05239
v 0.54925 0.05010 -2.02103
v -0.84698 -0.11495 -1.90232
v 0.54850 -0.01165 -2.06626
v -0.84001 -0.15302 -1.89538
v 0.54850 -0.01165 -2.06626
v -0.84698 -0.11495 -1.90232
v -0.84001 -0.15302 -1.89538
v 0.55220 -0.04997 -2.05893
v 0.55752 -0.07970 -2.03237
v 0.55220 -0.04997 -2.05893
v -0.83682 -0.18291 -1.86857
v -0.85242 -0.16609 -1.75492
v -0.86131 -0.13003 -1.74013
v 0.56802 -0.02423 -1.90805
v 0.56910 -0.06086 -1.92192
v -0.84399 -0.19046 -1.78748
v -0.84399 -0.19046 -1.78748
v 0.56728 -0.08599 -1.95327
v -0.83828 -0.19662 -1.82908
v -0.84399 -0.19046 -1.78748
v 0.56728 -0.08599 -1.95327
v 0.56304 -0.09288 -1.99370
v -0.83682 -0.18291 -1.86857
v 0.55752 -0.07970 -2.03237
v -0.95702 -0.08038 -1.58908
v 0.38579 -0.13148 -1.85821
v 0.38755 -0.15658 -1.84124
v -0.95702 -0.08038 -1.58908
v -0.96153 -0.05511 -1.60553
v 0.38579 -0.13148 -1.85821
v -0.96421 -0.04201 -1.63373
v -0.96153 -0.05511 -1.60553
v 0.38132 -0.11827 -1.88607
v -0.96434 -0.04457 -1.66613
v 0.37532 -0.12050 -1.91737
v -0.96187 -0.06212 -1.69404
v 0.36941 -0.13757 -1.94371
v -0.95749 -0.08995 -1.70998
v 0.36941 -0.13757 -1.94371
v -0.96187 -0.06212 -1.69404
v 0.36518 -0.16491 -1.95804
v 0.36941 -0.13757 -1.94371
v -0.95235 -0.12060 -1.70970
v 0.36375 -0.19520 -1.95652
v -0.94783 -0.14587 -1.69325
v 0.36550 -0.22030 -1.93955
v 0.36998 -0.23351 -1.91169
v -0.94515 -0.15898 -1.66505
v -0.95188 -0.11103 -1.58879
v -0.95702 -0.08038 -1.58908
v 0.38755 -0.15658 -1.84124
v 0.38612 -0.18687 -1.83972
v -0.94749 -0.13886 -1.60474
v -0.94749 -0.13886 -1.60474
v 0.38188 -0.21421 -1.85405
v -0.94503 -0.15641 -1.63265
v -0.94749 -0.13886 -1.60474
v 0.38188 -0.21421 -1.85405
v 0.37598 -0.23128 -1.88039
v -0.94515 -0.15898 -1.66505
v 0.36998 -0.23351 -1.91169
v -0.92717 -0.00224 -1.66713
v 0.47615 -0.06982 -1.57646
v 0.47172 -0.10633 -1.56877
v -0.92588 0.03459 -1.67513
v 0.47615 -0.06982 -1.57646
v -0.91843 0.06234 -1.70095
v 0.48156 -0.04186 -1.60248
v -0.90680 0.07357 -1.73766
v 0.48649 -0.02996 -1.63986
v -0.89412 0.06528 -1.77544
v -0.89412 0.06528 -1.77544
v 0.48964 -0.03729 -1.67859
v -0.88379 0.03969 -1.80415
v 0.48964 -0.03729 -1.67859
v 0.49014 -0.06190 -1.70829
v -0.87857 0.00364 -1.81611
v 0.49014 -0.06190 -1.70829
v 0.48788 -0.09720 -1.72100
v 0.49014 -0.06190 -1.70829
v -0.87986 -0.03319 -1.80811
v -0.87986 -0.03319 -1.80811
v 0.48345 -0.13371 -1.71331
v 0.47804 -0.16167 -1.68729
v -0.88732 -0.06094 -1.78229
v -0.92195 -0.03828 -1.67909
v -0.92717 -0.00224 -1.66713
v 0.47172 -0.10633 -1.56877
v 0.47172 -0.10633 -1.56877
v 0.46946 -0.14163 -1.58148
v -0.91162 -0.06388 -1.70780
v 0.46996 -0.16624 -1.61118
v -0.89894 -0.07217 -1.74558
v -0.91162 -0.06388 -1.70780
v 0.46996 -0.16624 -1.61118
v -0.89894 -0.07217 -1.74558
v 0.46996 -0.16624 -1.61118
v 0.47311 -0.17357 -1.64991
v -0.88732 -0.06094 -1.78229
v 0.47804 -0.16167 -1.68729
vt 0.37683 0.24989
vt 0.37591 0.00200
vt 0.37591 0.24989
vt 0.37684 0.00160
vt 0.37784 0.00180
vt 0.37783 0.24999
vt 0.37879 0.00257
vt 0.37878 0.24999
vt 0.37973 0.00387
vt 0.37972 0.24999
vt 0.38073 0.00522
vt 0.38073 0.24999
vt 0.38168 0.00627
vt 0.38168 0.00627
vt 0.38073 0.24999
vt 0.38167 0.24999
vt 0.38263 0.00669
vt 0.38167 0.24999
vt 0.38261 0.24999
vt 0.38352 0.24999
vt 0.38353 0.00682
vt 0.38139 0.24999
vt 0.38139 0.05505
vt 0.38039 0.05614
vt 0.38039 0.05614
vt 0.38036 0.24999
vt 0.38036 0.24999
vt 0.37930 0.05737
vt 0.37927 0.24999
vt 0.37827 0.05864
vt 0.37827 0.24999
vt 0.37724 0.05944
vt 0.37724 0.24999
vt 0.37687 0.24989
vt 0.37594 0.00272
vt 0.37593 0.24989
vt 0.37689 0.00232
vt 0.37594 0.00272
vt 0.37789 0.00252
vt 0.37788 0.24999
vt 0.37883 0.00330
vt 0.37883 0.00330
vt 0.37882 0.24999
vt 0.37978 0.00459
vt 0.37882 0.24999
vt 0.37976 0.24999
vt 0.38078 0.00594
vt 0.38078 0.00594
vt 0.38077 0.24999
vt 0.38173 0.00699
vt 0.38171 0.24999
vt 0.38268 0.00741
vt 0.38171 0.24999
vt 0.38266 0.24999
vt 0.38358 0.24999
vt 0.38359 0.00754
vt 0.38139 0.24999
vt 0.38139 0.05505
vt 0.38039 0.05614
vt 0.38139 0.24999
vt 0.38036 0.24999
vt 0.37930 0.05737
vt 0.37927 0.24999
vt 0.37827 0.05864
vt 0.37827 0.05864
vt 0.37827 0.24999
vt 0.37827 0.24999
vt 0.37724 0.05944
vt 0.37724 0.24999
vt 0.37683 0.24989
vt 0.37591 0.00200
vt 0.37591 0.24989
vt 0.37684 0.00160
vt 0.37784 0.00180
vt 0.37783 0.24999
vt 0.37879 0.00257
vt 0.37878 0.24999
vt 0.37973 0.00387
vt 0.37972 0.24999
vt 0.38073 0.00522
vt 0.38073 0.24999
vt 0.38168 0.00627
vt 0.38168 0.00627
vt 0.38073 0.24999
vt 0.38167 0.24999
vt 0.38263 0.00669
vt 0.38167 0.24999
vt 0.38261 0.24999
vt 0.38352 0.24999
vt 0.38353 0.00682
vt 0.38139 0.24999
vt 0.38139 0.05505
vt 0.38039 0.05614
vt 0.38039 0.05614
vt 0.38036 0.24999
vt 0.38036 0.24999
vt 0.37930 0.05737
vt 0.37927 0.24999
vt 0.37827 0.05864
vt 0.37827 0.24999
vt 0.37724 0.05944
vt 0.37724 0.24999
vt 0.37687 0.24989
vt 0.37594 0.00272
vt 0.37593 0.24989
vt 0.37689 0.00232
vt 0.37594 0.00272
vt 0.37789 0.00252
vt 0.37788 0.24999
vt 0.37883 0.00330
vt 0.37883 0.00330
vt 0.37882 0.24999
vt 0.37978 0.00459
vt 0.37882 0.24999
vt 0.37976 0.24999
vt 0.38078 0.00594
vt 0.38078 0.00594
vt 0.38077 0.24999
vt 0.38173 0.00699
vt 0.38171 0.24999
vt 0.38268 0.00741
vt 0.38171 0.24999
vt 0.38266 0.24999
vt 0.38358 0.24999
vt 0.38359 0.00754
vt 0.38139 0.24999
vt 0.38139 0.05505
vt 0.38039 0.05614
vt 0.38036 0.24999
vt 0.37930 0.05737
vt 0.37927 0.24999
vt 0.37827 0.05864
vt 0.37827 0.05864
vt 0.37827 0.24999
vt 0.37827 0.24999
vt 0.37724 0.05944
vt 0.37724 0.24999
vt 0.37591 0.00200
vt 0.37683 0.24989
vt 0.37591 0.24989
vt 0.37684 0.00160
vt 0.37784 0.00180
vt 0.37783 0.24999
vt 0.37879 0.00257
vt 0.37878 0.24999
vt 0.37973 0.00387
vt 0.37972 0.24999
vt 0.38073 0.00522
vt 0.38073 0.24999
vt 0.38168 0.00627
vt 0.38167 0.24999
vt 0.38263 0.00669
vt 0.38261 0.24999
vt 0.38352 0.24999
vt 0.38353 0.00682
vt 0.38039 0.05614
vt 0.38139 0.05505
vt 0.38139 0.24999
vt 0.38036 0.24999
vt 0.37930 0.05737
vt 0.38039 0.05614
vt 0.38036 0.24999
vt 0.37927 0.24999
vt 0.37827 0.05864
vt 0.37827 0.24999
vt 0.37724 0.05944
vt 0.37724 0.24999
vt 0.37594 0.00272
vt 0.37687 0.24989
vt 0.37593 0.24989
vt 0.37594 0.00272
vt 0.37689 0.00232
vt 0.37789 0.00252
vt 0.37788 0.24999
vt 0.37883 0.00330
vt 0.37883 0.00330
vt 0.37882 0.24999
vt 0.37978 0.00459
vt 0.37976 0.24999
vt 0.37882 0.24999
vt 0.38078 0.00594
vt 0.38077 0.24999
vt 0.38173 0.00699
vt 0.38171 0.24999
vt 0.38268 0.00741
vt 0.38266 0.24999
vt 0.38171 0.24999
vt 0.38358 0.24999
vt 0.38359 0.00754
vt 0.38039 0.05614
vt 0.38139 0.05505
vt 0.38139 0.24999
vt 0.38139 0.24999
vt 0.38036 0.24999
vt 0.37930 0.05737
vt 0.37927 0.24999
vt 0.37827 0.05864
vt 0.37827 0.05864
vt 0.37827 0.24999
vt 0.37724 0.05944
vt 0.37827 0.24999
vt 0.37724 0.24999
vt 0.37591 0.00200
vt 0.37683 0.24989
vt 0.37591 0.24989
vt 0.37684 0.00160
vt 0.37784 0.00180
vt 0.37783 0.24999
vt 0.37879 0.00257
vt 0.37878 0.24999
vt 0.37973 0.00387
vt 0.37972 0.24999
vt 0.38073 0.00522
vt 0.38073 0.24999
vt 0.38168 0.00627
vt 0.38167 0.24999
vt 0.38263 0.00669
vt 0.38261 0.24999
vt 0.38352 0.24999
vt 0.38353 0.00682
vt 0.38039 0.05614
vt 0.38139 0.05505
vt 0.38139 0.24999
vt 0.38039 0.05614
vt 0.38036 0.24999
vt 0.37930 0.05737
vt 0.38036 0.24999
vt 0.37927 0.24999
vt 0.37827 0.05864
vt 0.37827 0.24999
vt 0.37724 0.05944
vt 0.37724 0.24999
vt 0.37594 0.00272
vt 0.37687 0.24989
vt 0.37593 0.24989
vt 0.37594 0.00272
vt 0.37689 0.00232
vt 0.37789 0.00252
vt 0.37788 0.24999
vt 0.37883 0.00330
vt 0.37883 0.00330
vt 0.37882 0.24999
vt 0.37978 0.00459
vt 0.37976 0.24999
vt 0.37882 0.24999
vt 0.38078 0.00594
vt 0.38077 0.24999
vt 0.38173 0.00699
vt 0.38171 0.24999
vt 0.38268 0.00741
vt 0.38266 0.24999
vt 0.38171 0.24999
vt 0.38358 0.24999
vt 0.38359 0.00754
vt 0.38039 0.05614
vt 0.38139 0.05505
vt 0.38139 0.24999
vt 0.38139 0.24999
vt 0.38036 0.24999
vt 0.37930 0.05737
vt 0.37927 0.24999
vt 0.37827 0.05864
vt 0.37827 0.05864
vt 0.37827 0.24999
vt 0.37724 0.05944
vt 0.37827 0.24999
vt 0.37724 0.24999
vt 0.37594 0.00272
vt 0.37687 0.24989
vt 0.37593 0.24989
vt 0.37689 0.00232
vt 0.37687 0.24989
vt 0.37789 0.00252
vt 0.37788 0.24999
vt 0.37883 0.00330
vt 0.37882 0.24999
vt 0.37978 0.00459
vt 0.37976 0.24999
vt 0.38078 0.00594
vt 0.37976 0.24999
vt 0.38078 0.00594
vt 0.38077 0.24999
vt 0.37976 0.24999
vt 0.38173 0.00699
vt 0.38077 0.24999
vt 0.38171 0.24999
vt 0.38268 0.00741
vt 0.38266 0.24999
vt 0.38358 0.24999
vt 0.38359 0.00754
vt 0.38358 0.24999
vt 0.38039 0.05614
vt 0.38139 0.05505
vt 0.38139 0.24999
vt 0.38039 0.05614
vt 0.38139 0.24999
vt 0.38036 0.24999
vt 0.37930 0.05737
vt 0.37927 0.24999
vt 0.37827 0.05864
vt 0.37930 0.05737
vt 0.37927 0.24999
vt 0.37927 0.24999
vt 0.37827 0.24999
vt 0.37724 0.05944
vt 0.37827 0.24999
vt 0.37724 0.24999
vt 0.37591 0.00200
vt 0.37683 0.24989
vt 0.37591 0.24989
vt 0.37591 0.00200
vt 0.37684 0.00160
vt 0.37784 0.00180
vt 0.37683 0.24989
vt 0.37684 0.00160
vt 0.37784 0.00180
vt 0.37783 0.24999
vt 0.37683 0.24989
vt 0.37879 0.00257
vt 0.37878 0.24999
vt 0.37973 0.00387
vt 0.37878 0.24999
vt 0.37879 0.00257
vt 0.37973 0.00387
vt 0.37972 0.24999
vt 0.37878 0.24999
vt 0.38073 0.00522
vt 0.37972 0.24999
vt 0.38073 0.24999
vt 0.38168 0.00627
vt 0.38168 0.00627
vt 0.38167 0.24999
vt 0.38263 0.00669
vt 0.38263 0.00669
vt 0.38261 0.24999
vt 0.38167 0.24999
vt 0.38263 0.00669
vt 0.38352 0.24999
vt 0.38353 0.00682
vt 0.38352 0.24999
vt 0.38039 0.05614
vt 0.38139 0.05505
vt 0.38139 0.24999
vt 0.38036 0.24999
vt 0.37930 0.05737
vt 0.37927 0.24999
vt 0.37827 0.05864
vt 0.37930 0.05737
vt 0.37927 0.24999
vt 0.37827 0.24999
vt 0.37724 0.05944
vt 0.37827 0.05864
vt 0.37827 0.24999
vt 0.37724 0.05944
vt 0.37724 0.24999
vt 0.37591 0.00200
vt 0.37683 0.24989
vt 0.37591 0.24989
vt 0.37684 0.00160
vt 0.37683 0.24989
vt 0.37784 0.00180
vt 0.37783 0.24999
vt 0.37879 0.00257
vt 0.37878 0.24999
vt 0.37973 0.00387
vt 0.37972 0.24999
vt 0.38073 0.00522
vt 0.38073 0.24999
vt 0.38168 0.00627
vt 0.38073 0.24999
vt 0.38167 0.24999
vt 0.38263 0.00669
vt 0.38167 0.24999
vt 0.38261 0.24999
vt 0.38263 0.00669
vt 0.38352 0.24999
vt 0.38353 0.00682
vt 0.38039 0.05614
vt 0.38139 0.05505
vt 0.38139 0.24999
vt 0.38139 0.24999
vt 0.38036 0.24999
vt 0.37930 0.05737
vt 0.38039 0.05614
vt 0.38036 0.24999
vt 0.37927 0.24999
vt 0.37827 0.05864
vt 0.37827 0.24999
vt 0.37724 0.05944
vt 0.37724 0.24999
vt 0.37594 0.00272
vt 0.37687 0.24989
vt 0.37593 0.24989
vt 0.37594 0.00272
vt 0.37689 0.00232
vt 0.37789 0.00252
vt 0.37687 0.24989
vt 0.37789 0.00252
vt 0.37788 0.24999
vt 0.37883 0.00330
vt 0.37882 0.24999
vt 0.37788 0.24999
vt 0.37978 0.00459
vt 0.37976 0.24999
vt 0.38078 0.00594
vt 0.37976 0.24999
vt 0.37978 0.00459
vt 0.38077 0.24999
vt 0.37976 0.24999
vt 0.38173 0.00699
vt 0.38171 0.24999
vt 0.38268 0.00741
vt 0.38171 0.24999
vt 0.38173 0.00699
vt 0.38268 0.00741
vt 0.38266 0.24999
vt 0.38358 0.24999
vt 0.38266 0.24999
vt 0.38359 0.00754
vt 0.38039 0.05614
vt 0.38139 0.05505
vt 0.38139 0.24999
vt 0.38036 0.24999
vt 0.37930 0.05737
vt 0.37930 0.05737
vt 0.37927 0.24999
vt 0.37827 0.05864
vt 0.37930 0.05737
vt 0.37927 0.24999
vt 0.37827 0.24999
vt 0.37724 0.05944
vt 0.37724 0.24999
vt 0.37591 0.00200
vt 0.37683 0.24989
vt 0.37591 0.24989
vt 0.37591 0.00200
vt 0.37684 0.00160
vt 0.37683 0.24989
vt 0.37784 0.00180
vt 0.37684 0.00160
vt 0.37783 0.24999
vt 0.37879 0.00257
vt 0.37878 0.24999
vt 0.37973 0.00387
vt 0.37972 0.24999
vt 0.38073 0.00522
vt 0.37972 0.24999
vt 0.37973 0.00387
vt 0.38073 0.24999
vt 0.37972 0.24999
vt 0.38168 0.00627
vt 0.38167 0.24999
vt 0.38263 0.00669
vt 0.38261 0.24999
vt 0.38352 0.24999
vt 0.38353 0.00682
vt 0.38039 0.05614
vt 0.38139 0.05505
vt 0.38139 0.24999
vt 0.38036 0.24999
vt 0.37930 0.05737
vt 0.37930 0.05737
vt 0.37927 0.24999
vt 0.37827 0.05864
vt 0.37930 0.05737
vt 0.37927 0.24999
vt 0.37827 0.24999
vt 0.37724 0.05944
vt 0.37724 0.24999
vt 0.38011 0.24964
vt 0.38105 0.00240
vt 0.38010 0.00240
vt 0.38106 0.24999
vt 0.38105 0.00240
vt 0.38206 0.24977
vt 0.38205 0.00240
vt 0.38301 0.24902
vt 0.38300 0.00237
vt 0.37620 0.24769
vt 0.37620 0.24769
vt 0.37619 0.00237
vt 0.37721 0.24635
vt 0.37619 0.00237
vt 0.37719 0.00237
vt 0.37815 0.24537
vt 0.37719 0.00237
vt 0.37814 0.00237
vt 0.37719 0.00237
vt 0.37910 0.24487
vt 0.37910 0.24487
vt 0.37908 0.00237
vt 0.38000 0.00232
vt 0.38001 0.24477
vt 0.37682 0.19615
vt 0.37782 0.19724
vt 0.37782 0.00232
vt 0.37782 0.00232
vt 0.37679 0.00235
vt 0.38348 0.19492
vt 0.38346 0.00235
vt 0.38245 0.19372
vt 0.38348 0.19492
vt 0.38346 0.00235
vt 0.38245 0.19372
vt 0.38346 0.00235
vt 0.38243 0.00235
vt 0.38143 0.19285
vt 0.38142 0.00237
usemtl sherman_hull_m11
s 1
f 3/3 2/2 1/1
f 2/2 4/4 1/1
f 1/1 4/4 5/5
f 6/6 1/1 5/5
f 6/6 5/5 7/7
f 8/8 6/6 7/7
f 8/8 7/7 9/9
f 10/10 8/8 9/9
f 10/10 9/9 11/11
f 12/12 10/10 11/11
f 12/12 11/11 13/13
f 16/16 15/15 14/14
f 18/18 13/13 17/17
f 19/19 18/18 17/17
f 19/19 17/17 20/20
f 17/17 21/21 20/20
f 24/24 23/23 22/22
f 26/26 25/25 22/22
f 28/28 24/24 27/27
f 29/29 28/28 27/27
f 30/30 28/28 29/29
f 31/31 30/30 29/29
f 32/32 30/30 31/31
f 33/33 32/32 31/31
f 36/36 35/35 34/34
f 38/38 37/37 34/34
f 34/34 37/37 39/39
f 40/40 34/34 39/39
f 40/40 39/39 41/41
f 43/43 40/40 42/42
f 43/43 42/42 44/44
f 46/46 45/45 44/44
f 46/46 44/44 47/47
f 49/49 46/46 48/48
f 49/49 48/48 50/50
f 51/51 49/49 50/50
f 51/51 50/50 52/52
f 54/54 53/53 52/52
f 54/54 52/52 55/55
f 52/52 56/56 55/55
f 59/59 58/58 57/57
f 61/61 59/59 60/60
f 62/62 59/59 61/61
f 63/63 62/62 61/61
f 64/64 62/62 63/63
f 66/66 65/65 63/63
f 68/68 64/64 67/67
f 69/69 68/68 66/66
f 72/72 71/71 70/70
f 71/71 73/73 70/70
f 70/70 73/73 74/74
f 75/75 70/70 74/74
f 75/75 74/74 76/76
f 77/77 75/75 76/76
f 77/77 76/76 78/78
f 79/79 77/77 78/78
f 79/79 78/78 80/80
f 81/81 79/79 80/80
f 81/81 80/80 82/82
f 85/85 84/84 83/83
f 87/87 82/82 86/86
f 88/88 87/87 86/86
f 88/88 86/86 89/89
f 86/86 90/90 89/89
f 93/93 92/92 91/91
f 95/95 94/94 91/91
f 97/97 93/93 96/96
f 98/98 97/97 96/96
f 99/99 97/97 98/98
f 100/100 99/99 98/98
f 101/101 99/99 100/100
f 102/102 101/101 100/100
f 105/105 104/104 103/103
f 107/107 106/106 103/103
f 103/103 106/106 108/108
f 109/109 103/103 108/108
f 109/109 108/108 110/110
f 112/112 109/109 111/111
f 112/112 111/111 113/113
f 115/115 114/114 113/113
f 115/115 113/113 116/116
f 118/118 115/115 117/117
f 118/118 117/117 119/119
f 120/120 118/118 119/119
f 120/120 119/119 121/121
f 123/123 122/122 121/121
f 123/123 121/121 124/124
f 121/121 125/125 124/124
f 128/128 127/127 126/126
f 129/129 128/128 126/126
f 130/130 128/128 129/129
f 131/131 130/130 129/129
f 132/132 130/130 131/131
f 134/134 133/133 131/131
f 136/136 132/132 135/135
f 137/137 136/136 134/134
f 140/140 139/139 138/138
f 139/139 141/141 138/138
f 141/141 139/139 142/142
f 139/139 143/143 142/142
f 142/142 143/143 144/144
f 143/143 145/145 144/144
f 144/144 145/145 146/146
f 145/145 147/147 146/146
f 146/146 147/147 148/148
f 147/147 149/149 148/148
f 148/148 149/149 150/150
f 149/149 151/151 150/150
f 150/150 151/151 152/152
f 151/151 153/153 152/152
f 153/153 154/154 152/152
f 154/154 155/155 152/152
f 158/158 157/157 156/156
f 159/159 158/158 156/156
f 162/162 161/161 160/160
f 163/163 162/162 160/160
f 163/163 160/160 164/164
f 165/165 163/163 164/164
f 165/165 164/164 166/166
f 167/167 165/165 166/166
f 170/170 169/169 168/168
f 169/169 172/172 171/171
f 172/172 169/169 173/173
f 169/169 174/174 173/173
f 173/173 174/174 175/175
f 174/174 177/177 176/176
f 176/176 177/177 178/178
f 180/180 179/179 178/178
f 178/178 179/179 181/181
f 179/179 182/182 181/181
f 181/181 182/182 183/183
f 182/182 184/184 183/183
f 183/183 184/184 185/185
f 187/187 186/186 185/185
f 186/186 188/188 185/185
f 188/188 189/189 185/185
f 192/192 191/191 190/190
f 194/194 193/193 190/190
f 194/194 190/190 195/195
f 196/196 194/194 195/195
f 196/196 195/195 197/197
f 199/199 196/196 198/198
f 201/201 197/197 200/200
f 202/202 199/199 200/200
f 205/205 204/204 203/203
f 204/204 206/206 203/203
f 206/206 204/204 207/207
f 204/204 208/208 207/207
f 207/207 208/208 209/209
f 208/208 210/210 209/209
f 209/209 210/210 211/211
f 210/210 212/212 211/211
f 211/211 212/212 213/213
f 212/212 214/214 213/213
f 213/213 214/214 215/215
f 214/214 216/216 215/215
f 215/215 216/216 217/217
f 216/216 218/218 217/217
f 218/218 219/219 217/217
f 219/219 220/220 217/217
f 223/223 222/222 221/221
f 225/225 223/223 224/224
f 227/227 221/221 226/226
f 228/228 227/227 226/226
f 228/228 226/226 229/229
f 230/230 228/228 229/229
f 230/230 229/229 231/231
f 232/232 230/230 231/231
f 235/235 234/234 233/233
f 234/234 237/237 236/236
f 237/237 234/234 238/238
f 234/234 239/239 238/238
f 238/238 239/239 240/240
f 239/239 242/242 241/241
f 241/241 242/242 243/243
f 245/245 244/244 243/243
f 243/243 244/244 246/246
f 244/244 247/247 246/246
f 246/246 247/247 248/248
f 247/247 249/249 248/248
f 248/248 249/249 250/250
f 252/252 251/251 250/250
f 251/251 253/253 250/250
f 253/253 254/254 250/250
f 257/257 256/256 255/255
f 259/259 258/258 255/255
f 259/259 255/255 260/260
f 261/261 259/259 260/260
f 261/261 260/260 262/262
f 264/264 261/261 263/263
f 266/266 262/262 265/265
f 267/267 264/264 265/265
f 270/270 269/269 268/268
f 272/272 271/271 268/268
f 271/271 272/272 273/273
f 272/272 274/274 273/273
f 273/273 274/274 275/275
f 274/274 276/276 275/275
f 275/275 276/276 277/277
f 276/276 278/278 277/277
f 277/277 280/280 279/279
f 283/283 282/282 281/281
f 279/279 285/285 284/284
f 285/285 286/286 284/284
f 284/284 286/286 287/287
f 286/286 288/288 287/287
f 288/288 289/289 287/287
f 291/291 290/290 287/287
f 294/294 293/293 292/292
f 297/297 296/296 295/295
f 297/297 292/292 298/298
f 299/299 297/297 298/298
f 302/302 301/301 300/300
f 304/304 303/303 300/300
f 306/306 300/300 305/305
f 307/307 306/306 305/305
f 310/310 309/309 308/308
f 309/309 312/312 311/311
f 315/315 314/314 313/313
f 318/318 317/317 316/316
f 316/316 317/317 319/319
f 317/317 320/320 319/319
f 323/323 322/322 321/321
f 326/326 325/325 324/324
f 321/321 328/328 327/327
f 328/328 329/329 327/327
f 327/327 329/329 330/330
f 329/329 332/332 331/331
f 331/331 332/332 333/333
f 336/336 335/335 334/334
f 335/335 338/338 337/337
f 340/340 339/339 337/337
f 343/343 342/342 341/341
f 344/344 343/343 341/341
f 344/344 341/341 345/345
f 346/346 344/344 345/345
f 346/346 348/348 347/347
f 350/350 349/349 347/347
f 353/353 352/352 351/351
f 355/355 353/353 354/354
f 358/358 357/357 356/356
f 360/360 359/359 356/356
f 359/359 360/360 361/361
f 360/360 362/362 361/361
f 361/361 362/362 363/363
f 362/362 364/364 363/363
f 363/363 364/364 365/365
f 364/364 366/366 365/365
f 365/365 366/366 367/367
f 366/366 368/368 367/367
f 367/367 370/370 369/369
f 370/370 371/371 369/369
f 369/369 373/373 372/372
f 373/373 374/374 372/372
f 374/374 376/376 375/375
f 376/376 377/377 372/372
f 380/380 379/379 378/378
f 382/382 381/381 378/378
f 382/382 384/384 383/383
f 386/386 385/385 383/383
f 386/386 383/383 387/387
f 388/388 386/386 387/387
f 388/388 387/387 389/389
f 390/390 388/388 389/389
f 393/393 392/392 391/391
f 392/392 395/395 394/394
f 395/395 397/397 396/396
f 392/392 399/399 398/398
f 398/398 399/399 400/400
f 402/402 401/401 400/400
f 400/400 401/401 403/403
f 401/401 404/404 403/403
f 407/407 406/406 405/405
f 409/409 408/408 405/405
f 405/405 408/408 410/410
f 408/408 411/411 410/410
f 414/414 413/413 412/412
f 411/411 416/416 415/415
f 418/418 417/417 415/415
f 417/417 419/419 415/415
f 422/422 421/421 420/420
f 423/423 422/422 420/420
f 423/423 420/420 424/424
f 426/426 423/423 425/425
f 429/429 428/428 427/427
f 430/430 429/429 427/427
f 430/430 427/427 431/431
f 432/432 430/430 431/431
f 435/435 434/434 433/433
f 438/438 437/437 436/436
f 440/440 438/438 439/439
f 438/438 441/441 439/439
f 439/439 441/441 442/442
f 441/441 443/443 442/442
f 442/442 443/443 444/444
f 443/443 445/445 444/444
f 448/448 447/447 446/446
f 450/450 449/449 446/446
f 446/446 449/449 451/451
f 449/449 452/452 451/451
f 451/451 452/452 453/453
f 452/452 454/454 453/453
f 454/454 455/455 453/453
f 455/455 456/456 453/453
f 459/459 458/458 457/457
f 460/460 459/459 457/457
f 460/460 457/457 461/461
f 463/463 460/460 462/462
f 466/466 465/465 464/464
f 467/467 466/466 464/464
f 467/467 464/464 468/468
f 469/469 467/467 468/468
f 472/472 471/471 470/470
f 474/474 473/473 470/470
f 473/473 474/474 475/475
f 471/471 476/476 475/475
f 475/475 476/476 477/477
f 476/476 478/478 477/477
f 477/477 478/478 479/479
f 478/478 481/481 480/480
f 479/479 483/483 482/482
f 483/483 484/484 482/482
f 482/482 486/486 485/485
f 488/488 487/487 485/485
f 485/485 487/487 489/489
f 487/487 491/491 490/490
f 491/491 492/492 489/489
f 492/492 493/493 490/490
f 496/496 495/495 494/494
f 498/498 497/497 494/494
f 498/498 494/494 499/499
f 500/500 498/498 499/499
f 503/503 502/502 501/501
f 506/506 505/505 504/504
f 506/506 501/501 507/507
f 508/508 506/506 507/507
