mtllib sherman_hull_m8.mtl
o sherman_hull_m8
v -1.35275 -0.88438 -2.37367
v -0.90537 -0.83111 -2.22868
v -0.90544 -0.88490 -2.37367
v -0.90537 -0.83111 -2.22868
v -1.35272 -0.83059 -2.22868
v -1.35288 -1.00207 -2.46000
v -0.90557 -1.00258 -2.46000
v -1.35288 -1.00207 -2.46000
v -1.35272 -0.83059 -2.22868
v -0.90530 -0.76627 -1.26151
v -0.90537 -0.83111 -2.22868
v -1.35252 -0.76575 -1.26151
v -0.90536 -0.81635 -0.51934
v -1.35258 -0.81583 -0.51934
v -1.35258 -0.81583 -0.51934
v -0.90530 -0.76998 0.21194
v -0.90536 -0.81635 -0.51934
v -0.90530 -0.76998 0.21194
v -1.35258 -0.81583 -0.51934
v -1.35253 -0.76947 0.21194
v -1.35253 -0.76947 0.21194
v -0.90534 -0.80495 1.29014
v -0.90530 -0.76998 0.21194
v -0.90534 -0.80495 1.29014
v -1.35257 -0.80444 1.29014
v -1.35257 -0.80444 1.29014
v -0.90527 -0.73920 2.65439
v -1.35266 -0.73869 2.65439
v 1.34551 -0.72312 0.20709
v 0.89761 -0.76592 -0.51383
v 1.34546 -0.76644 -0.51383
v 0.89766 -0.72260 0.20709
v 1.34548 -0.75504 1.27000
v 0.89766 -0.72260 0.20709
v 1.34551 -0.72312 0.20709
v 0.89762 -0.75452 1.27000
v 0.89753 -0.83318 -2.22868
v 1.34478 -0.88749 -2.37367
v 0.89747 -0.88698 -2.37367
v 1.34487 -0.83370 -2.22868
v 1.34464 -1.00518 -2.46000
v 0.89733 -1.00466 -2.46000
v 1.34478 -0.88749 -2.37367
v 0.89760 -0.77206 0.21194
v 1.34477 -0.81894 -0.51934
v 0.89755 -0.81842 -0.51934
v 1.34477 -0.81894 -0.51934
v 0.89760 -0.77206 0.21194
v 1.34482 -0.77257 0.21194
v 0.89756 -0.80703 1.29014
v 1.34482 -0.77257 0.21194
v 0.89760 -0.77206 0.21194
v 1.34478 -0.80754 1.29014
v 0.89763 -0.74128 2.65439
v 1.34478 -0.80754 1.29014
v 0.89756 -0.80703 1.29014
v 1.34478 -0.80754 1.29014
v 1.34502 -0.74180 2.65439
v 0.89760 -0.76834 -1.26151
v 1.34487 -0.83370 -2.22868
v 0.89753 -0.83318 -2.22868
v 1.34483 -0.76886 -1.26151
v 0.89755 -0.81842 -0.51934
v 1.34483 -0.76886 -1.26151
v 1.34477 -0.81894 -0.51934
v -1.35384 -1.35938 -2.41810
v -1.35362 -1.61875 -2.04206
v -1.35419 -1.66275 -2.06962
v -1.35384 -1.35938 -2.41810
v -1.35322 -1.32179 -2.39144
v -1.35364 -1.19077 -2.52226
v -1.35364 -1.19077 -2.52226
v -1.35310 -1.16992 -2.47000
v -1.35322 -1.32179 -2.39144
v -1.35341 -0.98785 -2.50737
v -1.35364 -1.19077 -2.52226
v -1.35341 -0.98785 -2.50737
v -1.35291 -1.00493 -2.45923
v -1.35341 -0.98785 -2.50737
v -1.35276 -0.87428 -2.36367
v -1.35291 -1.00493 -2.45923
v -1.35324 -0.83549 -2.38839
v -1.31745 -1.28384 -2.31786
v -1.31732 -1.17177 -2.37781
v -1.31718 -1.04414 -2.36999
v -1.31718 -1.04414 -2.36999
v -1.35291 -1.00493 -2.45923
v -1.35276 -0.87428 -2.36367
v -1.31706 -0.94487 -2.29273
v -1.31718 -1.04414 -2.36999
v -1.35270 -0.82138 -2.19601
v -1.35317 -0.77946 -2.19601
v -1.35270 -0.82138 -2.19601
v -1.35324 -0.83549 -2.38839
v -1.31745 -1.28384 -2.31786
v -1.31776 -1.55189 -1.97851
v -1.31701 -0.89950 -2.15228
v -1.35263 -0.75923 -1.24548
v -1.35263 -0.75923 -1.24548
v -1.35310 -0.71721 -1.24548
v -1.35315 -0.76333 -0.51383
v -1.35269 -0.80546 -0.51383
v -1.31694 -0.84052 -1.22185
v -1.31699 -0.88276 -0.50290
v -1.35328 -1.32447 2.82227
v -1.31745 -1.28598 2.74185
v -1.31731 -1.15674 2.81612
v -1.31731 -1.15674 2.81612
v -1.35309 -1.15725 2.90979
v -1.31712 -0.99381 2.79787
v -1.35285 -0.95060 2.88974
v -1.35269 -0.80796 2.78268
v -1.35285 -0.95060 2.88974
v -1.31699 -0.87887 2.70910
v -1.35260 -0.73329 2.61491
v -1.31692 -0.81769 2.57152
v -1.35362 -1.16628 2.95574
v -1.35285 -0.95060 2.88974
v -1.35362 -1.16628 2.95574
v -1.35335 -0.93176 2.93422
v -1.35316 -0.77260 2.81042
v -1.35307 -0.69039 2.61492
v -1.35314 -0.75193 1.27000
v -1.35267 -0.79449 1.27000
v -1.35267 -0.79449 1.27000
v -1.31698 -0.87315 1.24996
v -1.35384 -1.35892 2.85629
v -1.31694 -0.84365 0.20550
v -1.31699 -0.88276 -0.50290
v -1.35269 -0.80546 -0.51383
v -1.35264 -0.76235 0.20709
v -1.35315 -0.76333 -0.51383
v -1.35310 -0.72001 0.20709
v -1.31698 -0.87315 1.24996
v -1.35264 -0.76235 0.20709
v -0.92141 -1.28429 -2.31786
v -0.90680 -1.61926 -2.04206
v -0.92171 -1.55234 -1.97851
v -0.90620 -1.32231 -2.39144
v -0.92128 -1.17223 -2.37781
v -0.90628 -1.17044 -2.47000
v -0.90620 -1.32231 -2.39144
v -0.92113 -1.04460 -2.36999
v -0.92128 -1.17223 -2.37781
v -0.90609 -1.00544 -2.45923
v -0.90594 -0.87480 -2.36367
v -0.92102 -0.94533 -2.29273
v -0.90598 -1.35990 -2.41810
v -0.90680 -1.61926 -2.04206
v -0.90579 -1.19128 -2.52226
v -0.90556 -0.98837 -2.50737
v -0.90556 -0.98837 -2.50737
v -0.90628 -1.17044 -2.47000
v -0.90538 -0.83600 -2.38839
v -0.90532 -0.77998 -2.19601
v -0.90538 -0.83600 -2.38839
v -0.90588 -0.82189 -2.19601
v -0.92102 -0.94533 -2.29273
v -0.92096 -0.89995 -2.15228
v -0.90598 -1.35990 -2.41810
v -0.90633 -1.66326 -2.06962
v -0.90586 -0.80597 -0.51383
v -0.92089 -0.84098 -1.22185
v -0.92094 -0.88322 -0.50290
v -0.90581 -0.75974 -1.24548
v -0.90530 -0.76384 -0.51383
v -0.90524 -0.71772 -1.24548
v -0.90646 -1.32498 2.82227
v -0.90598 -1.35944 2.85628
v -0.90576 -1.16680 2.95574
v -0.90576 -1.16680 2.95574
v -0.90627 -1.15776 2.90979
v -0.90603 -0.95111 2.88974
v -0.90627 -1.15776 2.90979
v -0.90549 -0.93228 2.93422
v -0.90549 -0.93228 2.93422
v -0.90531 -0.77311 2.81042
v -0.90531 -0.77311 2.81042
v -0.90586 -0.80847 2.78268
v -0.90531 -0.77311 2.81042
v -0.90578 -0.73381 2.61491
v -0.90521 -0.69091 2.61492
v -0.90646 -1.32498 2.82227
v -0.92126 -1.15720 2.81612
v -0.92107 -0.99426 2.79787
v -0.90603 -0.95111 2.88974
v -0.92094 -0.87932 2.70910
v -0.92094 -0.87932 2.70910
v -0.92094 -0.87932 2.70910
v -0.92087 -0.81815 2.57152
v -0.90585 -0.79500 1.27000
v -0.90528 -0.75245 1.27000
v -0.92141 -1.28644 2.74185
v -0.92093 -0.87360 1.24996
v -0.90581 -0.76286 0.20709
v -0.90585 -0.79500 1.27000
v -0.90525 -0.72053 0.20709
v -0.90530 -0.76384 -0.51383
v -0.90586 -0.80597 -0.51383
v -0.92090 -0.84411 0.20550
v -0.92094 -0.88322 -0.50290
v -0.92090 -0.84411 0.20550
v -0.92093 -0.87360 1.24996
v -1.35315 -0.76333 -0.51383
v -0.90524 -0.71772 -1.24548
v -0.90530 -0.76384 -0.51383
v -1.35310 -0.71721 -1.24548
v -0.90532 -0.77998 -2.19601
v -1.35310 -0.71721 -1.24548
v -1.35317 -0.77946 -2.19601
v -0.90538 -0.83600 -2.38839
v -0.90538 -0.83600 -2.38839
v -1.35324 -0.83549 -2.38839
v -1.35324 -0.83549 -2.38839
v -0.90556 -0.98837 -2.50737
v -0.90538 -0.83600 -2.38839
v -1.35341 -0.98785 -2.50737
v -1.35341 -0.98785 -2.50737
v -0.90579 -1.19128 -2.52226
v -0.90556 -0.98837 -2.50737
v -1.35364 -1.19077 -2.52226
v -1.35364 -1.19077 -2.52226
v -0.90598 -1.35990 -2.41810
v -0.90579 -1.19128 -2.52226
v -0.90598 -1.35990 -2.41810
v -1.35364 -1.19077 -2.52226
v -1.35384 -1.35938 -2.41810
v -0.90633 -1.66326 -2.06962
v -1.35419 -1.66275 -2.06962
v -1.35384 -1.35892 2.85629
v -0.90576 -1.16680 2.95574
v -0.90598 -1.35944 2.85628
v -0.90576 -1.16680 2.95574
v -1.35384 -1.35892 2.85629
v -1.35362 -1.16628 2.95574
v -0.90549 -0.93228 2.93422
v -1.35335 -0.93176 2.93422
v -1.35335 -0.93176 2.93422
v -0.90531 -0.77311 2.81042
v -0.90549 -0.93228 2.93422
v -0.90531 -0.77311 2.81042
v -1.35335 -0.93176 2.93422
v -1.35316 -0.77260 2.81042
v -0.90521 -0.69091 2.61492
v -0.90531 -0.77311 2.81042
v -0.90521 -0.69091 2.61492
v -1.35316 -0.77260 2.81042
v -1.35307 -0.69039 2.61492
v -1.35307 -0.69039 2.61492
v -0.90528 -0.75245 1.27000
v -0.90521 -0.69091 2.61492
v -1.35314 -0.75193 1.27000
v -1.35314 -0.75193 1.27000
v -0.90525 -0.72053 0.20709
v -0.90528 -0.75245 1.27000
v -0.90525 -0.72053 0.20709
v -1.35314 -0.75193 1.27000
v -1.35310 -0.72001 0.20709
v -1.35310 -0.72001 0.20709
v -0.90530 -0.76384 -0.51383
v -1.35315 -0.76333 -0.51383
v -0.90557 -1.00258 -2.46000
v -1.35298 -1.16739 -2.46939
v -1.35288 -1.00207 -2.46000
v -1.35298 -1.16739 -2.46939
v -0.90576 -1.16790 -2.46939
v -0.90576 -1.16790 -2.46939
v -1.35322 -1.32179 -2.39144
v -1.35322 -1.32179 -2.39144
v -0.90576 -1.16790 -2.46939
v -0.90620 -1.32231 -2.39144
v -0.90620 -1.32231 -2.39144
v -1.35350 -1.61867 -2.04363
v -1.35322 -1.32179 -2.39144
v -0.90620 -1.32231 -2.39144
v -0.90628 -1.61919 -2.04363
v -1.35266 -0.73869 2.65439
v -0.90535 -0.81173 2.79642
v -0.90527 -0.73920 2.65439
v -0.90535 -0.81173 2.79642
v -1.35272 -0.81122 2.79642
v -1.35272 -0.81122 2.79642
v -0.90551 -0.94799 2.88805
v -0.90535 -0.81173 2.79642
v -1.35282 -0.94748 2.88805
v -0.90573 -1.14116 2.90690
v -1.35303 -1.14065 2.90690
v -1.35303 -1.14065 2.90690
v -0.90591 -1.29437 2.83022
v -0.90573 -1.14116 2.90690
v -1.35313 -1.29386 2.83022
v 1.30856 -1.28686 -2.31786
v 1.34396 -1.62185 -2.04206
v 1.30825 -1.55491 -1.97851
v 1.30856 -1.28686 -2.31786
v 1.34424 -1.32490 -2.39144
v 1.30869 -1.17479 -2.37781
v 1.34424 -1.32490 -2.39144
v 1.34448 -1.17303 -2.47000
v 1.30884 -1.04716 -2.36999
v 1.34448 -1.17303 -2.47000
v 1.30869 -1.17479 -2.37781
v 1.34467 -1.00803 -2.45923
v 1.34482 -0.87739 -2.36367
v 1.30884 -1.04716 -2.36999
v 1.30895 -0.94790 -2.29273
v 1.34477 -1.36249 -2.41810
v 1.34497 -1.19387 -2.52226
v 1.34477 -1.36249 -2.41810
v 1.34497 -1.19387 -2.52226
v 1.34520 -0.99096 -2.50737
v 1.34520 -0.99096 -2.50737
v 1.34467 -1.00803 -2.45923
v 1.34538 -0.83859 -2.38839
v 1.34544 -0.78257 -2.19601
v 1.34538 -0.83859 -2.38839
v 1.34488 -0.82448 -2.19601
v 1.30895 -0.94790 -2.29273
v 1.30900 -0.90252 -2.15228
v 1.34477 -1.36249 -2.41810
v 1.34443 -1.66586 -2.06962
v 1.34490 -0.80857 -0.51383
v 1.30907 -0.84354 -1.22185
v 1.30902 -0.88579 -0.50290
v 1.34495 -0.76233 -1.24548
v 1.34546 -0.76644 -0.51383
v 1.34490 -0.80857 -0.51383
v 1.34551 -0.72031 -1.24548
v 1.34495 -0.76545 0.20709
v 1.34551 -0.72312 0.20709
v 1.34546 -0.76644 -0.51383
v 1.34490 -0.80857 -0.51383
v 1.34490 -0.80857 -0.51383
v 1.30907 -0.84668 0.20550
v 1.34490 -0.80857 -0.51383
v 1.30902 -0.88579 -0.50290
v 1.34495 -0.76545 0.20709
v 1.34548 -0.75504 1.27000
v 1.34491 -0.79759 1.27000
v 1.30904 -0.87617 1.24996
v 1.30907 -0.84668 0.20550
v 1.30904 -0.87617 1.24996
v 1.34430 -1.32757 2.82227
v 1.34478 -1.36203 2.85629
v 1.34500 -1.16939 2.95574
v 1.34449 -1.16035 2.90979
v 1.34500 -1.16939 2.95574
v 1.34473 -0.95370 2.88974
v 1.34527 -0.93487 2.93422
v 1.34473 -0.95370 2.88974
v 1.34545 -0.77570 2.81042
v 1.34545 -0.77570 2.81042
v 1.34490 -0.81106 2.78268
v 1.34498 -0.73640 2.61491
v 1.34555 -0.69350 2.61492
v 1.30871 -1.15977 2.81612
v 1.30890 -0.99683 2.79787
v 1.30890 -0.99683 2.79787
v 1.30903 -0.88189 2.70910
v 1.30910 -0.82071 2.57152
v 1.34491 -0.79759 1.27000
v 1.30856 -1.28900 2.74185
v 1.30910 -0.82071 2.57152
v 1.30904 -0.87617 1.24996
v 0.89692 -1.36197 -2.41810
v 0.89714 -1.62134 -2.04206
v 0.89657 -1.66534 -2.06962
v 0.89692 -1.36197 -2.41810
v 0.89722 -1.32438 -2.39144
v 0.89711 -1.19336 -2.52226
v 0.89722 -1.32438 -2.39144
v 0.89765 -1.17251 -2.47000
v 0.89735 -0.99044 -2.50737
v 0.89735 -0.99044 -2.50737
v 0.89784 -1.00752 -2.45923
v 0.89765 -1.17251 -2.47000
v 0.89799 -0.87687 -2.36367
v 0.89752 -0.83808 -2.38839
v 0.89714 -1.62134 -2.04206
v 0.91252 -1.28640 -2.31786
v 0.91265 -1.17434 -2.37781
v 0.91265 -1.17434 -2.37781
v 0.91279 -1.04671 -2.36999
v 0.91279 -1.04671 -2.36999
v 0.91291 -0.94744 -2.29273
v 0.89805 -0.82397 -2.19601
v 0.89759 -0.78205 -2.19601
v 0.89805 -0.82397 -2.19601
v 0.89752 -0.83808 -2.38839
v 0.91221 -1.55446 -1.97851
v 0.91296 -0.90206 -2.15228
v 0.89813 -0.76182 -1.24548
v 0.89766 -0.71980 -1.24548
v 0.89761 -0.76592 -0.51383
v 0.89807 -0.80805 -0.51383
v 0.91303 -0.84309 -1.22185
v 0.91298 -0.88533 -0.50290
v 0.89812 -0.76494 0.20709
v 0.89761 -0.76592 -0.51383
v 0.89766 -0.72260 0.20709
v 0.89807 -0.80805 -0.51383
v 0.91302 -0.84622 0.20550
v 0.91302 -0.84622 0.20550
v 0.91298 -0.88533 -0.50290
v 0.89762 -0.75452 1.27000
v 0.89812 -0.76494 0.20709
v 0.89809 -0.79708 1.27000
v 0.91299 -0.87572 1.24996
v 0.89812 -0.76494 0.20709
v 0.89809 -0.79708 1.27000
v 0.91299 -0.87572 1.24996
v 0.91302 -0.84622 0.20550
v 0.89748 -1.32706 2.82227
v 0.91251 -1.28855 2.74185
v 0.91266 -1.15931 2.81612
v 0.89767 -1.15984 2.90979
v 0.89767 -1.15984 2.90979
v 0.91285 -0.99637 2.79787
v 0.89791 -0.95319 2.88974
v 0.89807 -0.81055 2.78268
v 0.91298 -0.88144 2.70910
v 0.89816 -0.73588 2.61491
v 0.91298 -0.88144 2.70910
v 0.91305 -0.82026 2.57152
v 0.89714 -1.16887 2.95574
v 0.89748 -1.32706 2.82227
v 0.89714 -1.16887 2.95574
v 0.89791 -0.95319 2.88974
v 0.89791 -0.95319 2.88974
v 0.89741 -0.93435 2.93422
v 0.89760 -0.77519 2.81042
v 0.89741 -0.93435 2.93422
v 0.89760 -0.77519 2.81042
v 0.89769 -0.69298 2.61492
v 0.89809 -0.79708 1.27000
v 0.89809 -0.79708 1.27000
v 0.91299 -0.87572 1.24996
v 0.89692 -1.36151 2.85628
v 1.34477 -1.36249 -2.41810
v 0.89657 -1.66534 -2.06962
v 1.34443 -1.66586 -2.06962
v 0.89692 -1.36197 -2.41810
v 1.34497 -1.19387 -2.52226
v 0.89692 -1.36197 -2.41810
v 0.89711 -1.19336 -2.52226
v 1.34520 -0.99096 -2.50737
v 0.89711 -1.19336 -2.52226
v 0.89735 -0.99044 -2.50737
v 1.34538 -0.83859 -2.38839
v 1.34520 -0.99096 -2.50737
v 0.89752 -0.83808 -2.38839
v 1.34544 -0.78257 -2.19601
v 0.89752 -0.83808 -2.38839
v 1.34538 -0.83859 -2.38839
v 0.89759 -0.78205 -2.19601
v 1.34551 -0.72031 -1.24548
v 0.89759 -0.78205 -2.19601
v 1.34551 -0.72031 -1.24548
v 0.89766 -0.71980 -1.24548
v 1.34546 -0.76644 -0.51383
v 0.89766 -0.71980 -1.24548
v 0.89761 -0.76592 -0.51383
v 0.89714 -1.16887 2.95574
v 1.34478 -1.36203 2.85629
v 0.89692 -1.36151 2.85628
v 1.34500 -1.16939 2.95574
v 0.89741 -0.93435 2.93422
v 1.34500 -1.16939 2.95574
v 1.34527 -0.93487 2.93422
v 0.89760 -0.77519 2.81042
v 1.34527 -0.93487 2.93422
v 0.89741 -0.93435 2.93422
v 0.89760 -0.77519 2.81042
v 1.34545 -0.77570 2.81042
v 0.89769 -0.69298 2.61492
v 1.34555 -0.69350 2.61492
v 0.89762 -0.75452 1.27000
v 1.34548 -0.75504 1.27000
v 1.34436 -1.17049 -2.46939
v 0.89733 -1.00466 -2.46000
v 1.34464 -1.00518 -2.46000
v 0.89714 -1.16998 -2.46939
v 1.34424 -1.32490 -2.39144
v 1.34436 -1.17049 -2.46939
v 0.89722 -1.32438 -2.39144
v 1.34384 -1.62178 -2.04363
v 0.89722 -1.32438 -2.39144
v 1.34424 -1.32490 -2.39144
v 0.89662 -1.62126 -2.04363
v 1.34447 -1.14375 2.90690
v 0.89700 -1.29645 2.83022
v 1.34422 -1.29696 2.83022
v 0.89717 -1.14324 2.90690
v 1.34471 -0.95058 2.88805
v 1.34447 -1.14375 2.90690
v 1.34471 -0.95058 2.88805
v 0.89739 -0.95007 2.88805
v 1.34491 -0.81432 2.79642
v 0.89739 -0.95007 2.88805
v 1.34471 -0.95058 2.88805
v 0.89755 -0.81381 2.79642
v 1.34502 -0.74180 2.65439
v 1.34491 -0.81432 2.79642
v 0.89763 -0.74128 2.65439
v -1.35377 -1.74623 -0.83312
v -1.31789 -1.66412 -1.68172
v -1.31789 -1.66416 -0.81665
v -1.35377 -1.74620 -1.71347
v -1.35434 -1.79458 -0.83312
v -1.35377 -1.74623 -0.83312
v -1.35434 -1.79455 -1.71347
v -1.35429 -1.75384 -1.90252
v -1.35372 -1.70321 -1.89395
v -1.35372 -1.70321 -1.89395
v -1.31784 -1.62283 -1.84373
v -1.31784 -1.62283 -1.84373
v -0.92184 -1.66458 -1.68172
v -0.90694 -1.74674 -0.83312
v -0.92184 -1.66461 -0.81665
v -0.92184 -1.66458 -1.68172
v -0.90694 -1.74671 -1.71347
v -0.92180 -1.62329 -1.84373
v -0.92184 -1.66458 -1.68172
v -0.90689 -1.70373 -1.89395
v -0.90644 -1.75436 -1.90252
v -0.90694 -1.74671 -1.71347
v -0.90648 -1.79507 -1.71347
v -0.90648 -1.79509 -0.83312
v -0.90694 -1.74674 -0.83312
v -1.35429 -1.75384 -1.90252
v -0.90648 -1.79507 -1.71347
v -0.90644 -1.75436 -1.90252
v -1.35429 -1.75384 -1.90252
v -1.35434 -1.79455 -1.71347
v -1.35434 -1.79455 -1.71347
v -0.90648 -1.79509 -0.83312
v -1.35434 -1.79458 -0.83312
v -0.90638 -1.70329 -1.89634
v -1.35365 -1.74413 -1.73622
v -1.35360 -1.70278 -1.89635
v -0.90643 -1.74465 -1.73622
v -1.35365 -1.74417 -0.84321
v -0.90643 -1.74465 -1.73622
v -0.90643 -1.74468 -0.84321
v -1.35365 -1.74413 -1.73622
v 1.30812 -1.66715 -1.68172
v 1.34381 -1.74933 -0.83312
v 1.30812 -1.66718 -0.81665
v 1.34381 -1.74930 -1.71347
v 1.30817 -1.62586 -1.84373
v 1.34381 -1.74930 -1.71347
v 1.30817 -1.62586 -1.84373
v 1.34386 -1.70632 -1.89395
v 1.34432 -1.75695 -1.90252
v 1.34427 -1.79766 -1.71347
v 1.34427 -1.79769 -0.83312
v 0.89699 -1.74882 -0.83312
v 0.91208 -1.66669 -1.68172
v 0.91208 -1.66672 -0.81665
v 0.89699 -1.74879 -1.71347
v 0.89642 -1.79717 -0.83312
v 0.89699 -1.74879 -1.71347
v 0.89642 -1.79714 -1.71347
v 0.89647 -1.75643 -1.90252
v 0.89699 -1.74879 -1.71347
v 0.89704 -1.70581 -1.89395
v 0.91213 -1.62540 -1.84373
v 0.91208 -1.66669 -1.68172
v 1.34427 -1.79766 -1.71347
v 0.89642 -1.79717 -0.83312
v 1.34427 -1.79769 -0.83312
v 0.89642 -1.79714 -1.71347
v 1.34432 -1.75695 -1.90252
v 1.34427 -1.79766 -1.71347
v 0.89647 -1.75643 -1.90252
v 1.34370 -1.74724 -1.73622
v 0.89652 -1.70537 -1.89634
v 1.34375 -1.70588 -1.89635
v 0.89648 -1.74672 -1.73622
v 0.89648 -1.74672 -1.73622
v 1.34370 -1.74728 -0.84321
v 0.89648 -1.74676 -0.84321
v 1.34370 -1.74724 -1.73622
v -1.31790 -1.67044 2.12648
v -1.35377 -1.74632 1.17890
v -1.31789 -1.66425 1.16044
v -1.31790 -1.67044 2.12648
v -1.35378 -1.75310 2.16201
v -1.35434 -1.79465 1.17890
v -1.35435 -1.80143 2.16201
v -0.90695 -1.75361 2.16201
v -0.90648 -1.79517 1.17890
v -0.90649 -1.80195 2.16201
v -0.90694 -1.74683 1.17890
v -0.92185 -1.67089 2.12648
v -0.92179 -1.62017 2.28540
v -0.92184 -1.66471 1.16044
v -1.35434 -1.79465 1.17890
v -0.90649 -1.80195 2.16201
v -0.90648 -1.79517 1.17890
v -1.35435 -1.80143 2.16201
v -1.35377 -1.75162 2.19498
v -0.90643 -1.74480 1.19774
v -0.90643 -1.75213 2.19498
v -1.35365 -1.74428 1.19774
v 1.30812 -1.67346 2.12648
v 1.30812 -1.66727 1.16044
v 1.34381 -1.74942 1.17890
v 1.34381 -1.75621 2.16201
v 1.34381 -1.74942 1.17890
v 1.34427 -1.79776 1.17890
v 1.34427 -1.80454 2.16201
v 1.34387 -1.69800 2.35381
v 1.34434 -1.73669 2.38388
v 1.34387 -1.69800 2.35381
v 1.30818 -1.62274 2.28540
v 0.91207 -1.67301 2.12648
v 0.89699 -1.74891 1.17890
v 0.91208 -1.66682 1.16044
v 0.89698 -1.75569 2.16201
v 0.91213 -1.62229 2.28540
v 0.89705 -1.69748 2.35381
v 0.89641 -1.80402 2.16201
v 0.89649 -1.73617 2.38388
v 0.89642 -1.79724 1.17890
v 0.89641 -1.80402 2.16201
v 1.34427 -1.79776 1.17890
v 0.89642 -1.79724 1.17890
v 0.89641 -1.80402 2.16201
v 1.34427 -1.80454 2.16201
v 0.89649 -1.73617 2.38388
v 1.34434 -1.73669 2.38388
v 1.34380 -1.75472 2.19498
v 0.89648 -1.74687 1.19774
v 1.34370 -1.74739 1.19774
v 1.34380 -1.75472 2.19498
v 0.89647 -1.75421 2.19498
v 1.34386 -1.69459 2.35903
v 0.89653 -1.69865 2.35235
v -1.35377 -1.74626 -0.16373
v -1.35434 -1.79463 0.65756
v -1.35434 -1.79460 -0.16373
v -1.35377 -1.74629 0.65756
v -1.31789 -1.66423 0.64815
v -1.35377 -1.74629 0.65756
v -1.31789 -1.66423 0.64815
v -1.31789 -1.66419 -0.15888
v -0.90648 -1.79515 0.65756
v -0.90694 -1.74677 -0.16373
v -0.90648 -1.79512 -0.16373
v -0.90694 -1.74681 0.65756
v -0.92184 -1.66468 0.64815
v -0.90694 -1.74677 -0.16373
v -0.90694 -1.74681 0.65756
v -0.92184 -1.66464 -0.15888
v -1.15654 -1.79483 -0.16373
v -1.35434 -1.79460 -0.16373
v -1.35434 -1.79463 0.65756
v -1.00358 -1.79504 0.65756
v -0.90648 -1.79512 -0.16373
v -0.90648 -1.79515 0.65756
v -1.20144 -1.74443 0.65756
v -1.35365 -1.74425 0.65756
v -1.35365 -1.74421 -0.16373
v -1.04000 -1.74457 -0.16373
v -1.04000 -1.74457 -0.16373
v -0.90643 -1.74477 0.65756
v -1.20144 -1.74443 0.65756
v -0.90643 -1.74472 -0.16373
v -0.90643 -1.74477 0.65756
v 1.34427 -1.79774 0.65756
v 1.34381 -1.74936 -0.16373
v 1.34427 -1.79771 -0.16373
v 1.34381 -1.74940 0.65756
v 1.34381 -1.74936 -0.16373
v 1.30812 -1.66725 0.64815
v 1.34381 -1.74936 -0.16373
v 1.34381 -1.74940 0.65756
v 1.30812 -1.66721 -0.15888
v 0.89699 -1.74885 -0.16373
v 0.89642 -1.79722 0.65756
v 0.89642 -1.79719 -0.16373
v 0.89699 -1.74888 0.65756
v 0.91208 -1.66679 0.64815
v 0.89699 -1.74888 0.65756
v 0.89699 -1.74885 -0.16373
v 0.91208 -1.66675 -0.15888
v 1.34427 -1.79774 0.65756
v 1.34427 -1.79771 -0.16373
v 1.14647 -1.79748 -0.16373
v 0.99351 -1.79734 0.65756
v 0.89642 -1.79719 -0.16373
v 0.89642 -1.79722 0.65756
v 0.89648 -1.74684 0.65756
v 0.89648 -1.74680 -0.16373
v 1.03005 -1.74695 -0.16373
v 1.19149 -1.74718 0.65756
v 1.34370 -1.74731 -0.16373
v 1.34370 -1.74736 0.65756
v 0.89648 -1.74676 -0.84321
v 1.34370 -1.74728 -0.84321
v 1.34370 -1.74739 1.19774
v 0.89648 -1.74687 1.19774
v 0.89653 -1.69865 2.35235
v 1.34422 -1.29696 2.83022
v 0.89700 -1.29645 2.83022
v 1.34386 -1.69459 2.35903
v 0.89662 -1.62126 -2.04363
v 1.34375 -1.70588 -1.89635
v 1.34384 -1.62178 -2.04363
v 1.34434 -1.73669 2.38388
v 0.89649 -1.73617 2.38388
v 0.89647 -1.75643 -1.90252
v 1.34443 -1.66586 -2.06962
v 0.89657 -1.66534 -2.06962
v 1.34443 -1.66586 -2.06962
v 0.89642 -1.79724 1.17890
v 1.34427 -1.79776 1.17890
v 0.89649 -1.73617 2.38388
v 0.89692 -1.36151 2.85628
v 0.91251 -1.28855 2.74185
v 0.89657 -1.66534 -2.06962
v 0.89699 -1.74885 -0.16373
v 0.89699 -1.74885 -0.16373
v 0.89642 -1.79719 -0.16373
v 0.91208 -1.66679 0.64815
v 0.91208 -1.66682 1.16044
v 0.89699 -1.74891 1.17890
v 0.89699 -1.74891 1.17890
v 0.89642 -1.79724 1.17890
v 1.30856 -1.28900 2.74185
v 1.34434 -1.73669 2.38388
v 1.34478 -1.36203 2.85629
v 1.34396 -1.62185 -2.04206
v 1.34443 -1.66586 -2.06962
v 1.34381 -1.74936 -0.16373
v 1.34427 -1.79771 -0.16373
v 1.34381 -1.74936 -0.16373
v 1.30812 -1.66727 1.16044
v 1.30812 -1.66725 0.64815
v 1.34381 -1.74940 0.65756
v 1.34381 -1.74942 1.17890
v 1.34381 -1.74942 1.17890
v 1.34427 -1.79776 1.17890
v -1.35365 -1.74417 -0.84321
v -0.90643 -1.74468 -0.84321
v -0.90643 -1.74468 -0.84321
v -0.90643 -1.74472 -0.16373
v -0.90643 -1.74480 1.19774
v -1.35365 -1.74428 1.19774
v -1.35365 -1.74428 1.19774
v -0.90643 -1.75213 2.19498
v -1.35368 -1.69149 2.35903
v -1.35377 -1.75162 2.19498
v -1.35368 -1.69149 2.35903
v -0.90643 -1.75213 2.19498
v -0.90637 -1.69657 2.35235
v -0.90637 -1.69657 2.35235
v -1.35313 -1.29386 2.83022
v -0.90591 -1.29437 2.83022
v -1.35360 -1.70278 -1.89635
v -0.90638 -1.70329 -1.89634
v -1.35360 -1.70278 -1.89635
v -1.35427 -1.73358 2.38388
v -1.35427 -1.73358 2.38388
v -0.90641 -1.73410 2.38388
v -0.90641 -1.73410 2.38388
v -1.35427 -1.73358 2.38388
v -1.35419 -1.66275 -2.06962
v -1.35419 -1.66275 -2.06962
v -0.90633 -1.66326 -2.06962
v -0.90641 -1.73410 2.38388
v -0.90688 -1.69541 2.35381
v -0.92171 -1.55234 -1.97851
v -0.90633 -1.66326 -2.06962
v -0.90694 -1.74677 -0.16373
v -0.90648 -1.79512 -0.16373
v -0.90694 -1.74677 -0.16373
v -0.92184 -1.66461 -0.81665
v -0.92184 -1.66464 -0.15888
v -0.92184 -1.66461 -0.81665
v -0.92184 -1.66471 1.16044
v -0.92184 -1.66468 0.64815
v -0.92184 -1.66471 1.16044
v -0.90694 -1.74683 1.17890
v -0.90694 -1.74683 1.17890
v -0.90648 -1.79517 1.17890
v -1.35427 -1.73358 2.38388
v -1.35384 -1.35892 2.85629
v -1.35371 -1.69489 2.35381
v -1.31745 -1.28598 2.74185
v -1.35371 -1.69489 2.35381
v -1.35427 -1.73358 2.38388
v -1.35378 -1.75310 2.16201
v -1.31784 -1.61972 2.28540
v -1.35378 -1.75310 2.16201
v -1.35377 -1.74626 -0.16373
v -1.31789 -1.66416 -0.81665
v -1.31789 -1.66419 -0.15888
v -1.35377 -1.74626 -0.16373
v -1.35434 -1.79460 -0.16373
v -1.31789 -1.66423 0.64815
v -1.31789 -1.66425 1.16044
v -1.35377 -1.74632 1.17890
v -1.35434 -1.79463 0.65756
v -1.35434 -1.79465 1.17890
vt 0.40260 0.03474
vt 0.38397 0.24635
vt 0.38397 0.03474
vt 0.38397 0.24635
vt 0.40260 0.24635
vt 0.40260 0.23327
vt 0.38397 0.23327
vt 0.40260 0.23327
vt 0.40260 0.00682
vt 0.38397 0.16081
vt 0.38397 0.00682
vt 0.40260 0.16081
vt 0.38397 0.05457
vt 0.40260 0.05457
vt 0.40260 0.05457
vt 0.38397 0.11745
vt 0.38397 0.05457
vt 0.38397 0.11745
vt 0.40260 0.05457
vt 0.40260 0.11745
vt 0.40260 0.11745
vt 0.38397 0.15984
vt 0.38397 0.11745
vt 0.38397 0.15984
vt 0.40260 0.15984
vt 0.40260 0.15984
vt 0.38397 0.23562
vt 0.40260 0.23562
vt 0.38397 0.04581
vt 0.39789 0.15498
vt 0.38397 0.15498
vt 0.39789 0.04581
vt 0.38397 0.22636
vt 0.39789 0.04581
vt 0.38397 0.04581
vt 0.39789 0.22636
vt 0.38397 0.24635
vt 0.40260 0.03474
vt 0.38397 0.03474
vt 0.40260 0.24635
vt 0.40260 0.23327
vt 0.38397 0.23327
vt 0.40260 0.03474
vt 0.38397 0.11745
vt 0.40260 0.05457
vt 0.38397 0.05457
vt 0.40260 0.05457
vt 0.38397 0.11745
vt 0.40260 0.11745
vt 0.38397 0.15984
vt 0.40260 0.11745
vt 0.38397 0.11745
vt 0.40260 0.15984
vt 0.38397 0.23562
vt 0.40260 0.15984
vt 0.38397 0.15984
vt 0.40260 0.15984
vt 0.40260 0.23562
vt 0.38397 0.16081
vt 0.40260 0.00682
vt 0.38397 0.00682
vt 0.40260 0.16081
vt 0.38397 0.05457
vt 0.40260 0.16081
vt 0.40260 0.05457
vt 0.39796 0.17933
vt 0.39979 0.24562
vt 0.39796 0.24562
vt 0.39796 0.17933
vt 0.39979 0.17933
vt 0.39796 0.23489
vt 0.39796 0.23489
vt 0.39979 0.23392
vt 0.39979 0.17933
vt 0.39796 0.04192
vt 0.39796 0.23489
vt 0.39796 0.04192
vt 0.39979 0.04192
vt 0.39796 0.04192
vt 0.39979 0.09844
vt 0.39979 0.04192
vt 0.39796 0.09844
vt 0.40234 0.17933
vt 0.40234 0.23392
vt 0.40234 0.04192
vt 0.40234 0.04192
vt 0.39979 0.04192
vt 0.39979 0.09844
vt 0.40234 0.09844
vt 0.40234 0.04192
vt 0.39979 0.15108
vt 0.39796 0.15108
vt 0.39979 0.15108
vt 0.39796 0.09844
vt 0.40234 0.17933
vt 0.40234 0.24562
vt 0.40234 0.15108
vt 0.39979 0.18422
vt 0.39979 0.18422
vt 0.39796 0.18422
vt 0.39796 0.10625
vt 0.39979 0.10625
vt 0.40234 0.18422
vt 0.40234 0.10625
vt 0.39979 0.01949
vt 0.40234 0.01949
vt 0.40234 0.21369
vt 0.40234 0.21369
vt 0.39979 0.21369
vt 0.40234 0.14694
vt 0.39979 0.14694
vt 0.39979 0.10113
vt 0.39979 0.14694
vt 0.40234 0.10113
vt 0.39979 0.06019
vt 0.40234 0.06044
vt 0.39796 0.21369
vt 0.39979 0.14694
vt 0.39796 0.21369
vt 0.39796 0.14694
vt 0.39796 0.10113
vt 0.39796 0.05994
vt 0.39796 0.02530
vt 0.39979 0.02580
vt 0.39979 0.02580
vt 0.40234 0.02628
vt 0.39796 0.01949
vt 0.40234 0.06592
vt 0.40234 0.14694
vt 0.39979 0.14694
vt 0.39979 0.06433
vt 0.39796 0.14694
vt 0.39796 0.06263
vt 0.40234 0.02628
vt 0.39979 0.06433
vt 0.40234 0.17933
vt 0.39979 0.24562
vt 0.40234 0.24562
vt 0.39979 0.17933
vt 0.40234 0.23392
vt 0.39979 0.23392
vt 0.39979 0.17933
vt 0.40234 0.04192
vt 0.40234 0.23392
vt 0.39979 0.04192
vt 0.39979 0.09844
vt 0.40234 0.09844
vt 0.39796 0.17933
vt 0.39979 0.24562
vt 0.39796 0.23489
vt 0.39796 0.04192
vt 0.39796 0.04192
vt 0.39979 0.23392
vt 0.39796 0.09844
vt 0.39796 0.15108
vt 0.39796 0.09844
vt 0.39979 0.15108
vt 0.40234 0.09844
vt 0.40234 0.15108
vt 0.39796 0.17933
vt 0.39796 0.24562
vt 0.39979 0.10625
vt 0.40234 0.18422
vt 0.40234 0.10625
vt 0.39979 0.18422
vt 0.39796 0.10625
vt 0.39796 0.18422
vt 0.39979 0.01949
vt 0.39796 0.01949
vt 0.39796 0.21369
vt 0.39796 0.21369
vt 0.39979 0.21369
vt 0.39979 0.14694
vt 0.39979 0.21369
vt 0.39796 0.14694
vt 0.39796 0.14694
vt 0.39796 0.10113
vt 0.39796 0.10113
vt 0.39979 0.10113
vt 0.39796 0.10113
vt 0.39979 0.06019
vt 0.39796 0.05994
vt 0.39979 0.01949
vt 0.40234 0.21369
vt 0.40234 0.14694
vt 0.39979 0.14694
vt 0.40234 0.10113
vt 0.40234 0.10113
vt 0.40234 0.10113
vt 0.40234 0.06044
vt 0.39979 0.02580
vt 0.39796 0.02530
vt 0.40234 0.01949
vt 0.40234 0.02628
vt 0.39979 0.06433
vt 0.39979 0.02580
vt 0.39796 0.06263
vt 0.39796 0.14694
vt 0.39979 0.14694
vt 0.40234 0.06592
vt 0.40234 0.14694
vt 0.40234 0.06592
vt 0.40234 0.02628
vt 0.38397 0.17057
vt 0.39789 0.02535
vt 0.39789 0.17057
vt 0.38397 0.02535
vt 0.39789 0.03411
vt 0.38397 0.02535
vt 0.38397 0.03411
vt 0.39789 0.23879
vt 0.39789 0.23879
vt 0.38397 0.23879
vt 0.38397 0.23879
vt 0.39789 0.19200
vt 0.39789 0.23879
vt 0.38397 0.19200
vt 0.38397 0.19200
vt 0.39789 0.14230
vt 0.39789 0.19200
vt 0.38397 0.14230
vt 0.38397 0.14230
vt 0.39789 0.09552
vt 0.39789 0.14230
vt 0.39789 0.09552
vt 0.38397 0.14230
vt 0.38397 0.09552
vt 0.39789 0.18908
vt 0.38397 0.18908
vt 0.38397 0.14669
vt 0.39789 0.09953
vt 0.39789 0.14669
vt 0.39789 0.09953
vt 0.38397 0.14669
vt 0.38397 0.09953
vt 0.39789 0.04277
vt 0.38397 0.04277
vt 0.38397 0.04277
vt 0.39789 0.00382
vt 0.39789 0.04277
vt 0.39789 0.00382
vt 0.38397 0.04277
vt 0.38397 0.00382
vt 0.39789 0.21835
vt 0.39789 0.00382
vt 0.39789 0.21835
vt 0.38397 0.00382
vt 0.38397 0.21835
vt 0.38397 0.21835
vt 0.39789 0.22636
vt 0.39789 0.21835
vt 0.38397 0.22636
vt 0.38397 0.22636
vt 0.39789 0.04581
vt 0.39789 0.22636
vt 0.39789 0.04581
vt 0.38397 0.22636
vt 0.38397 0.04581
vt 0.38397 0.04581
vt 0.39789 0.15498
vt 0.38397 0.15498
vt 0.38397 0.23178
vt 0.40260 0.19096
vt 0.40260 0.23178
vt 0.40260 0.19096
vt 0.38397 0.19096
vt 0.38397 0.19096
vt 0.40260 0.15033
vt 0.40260 0.15033
vt 0.38397 0.19096
vt 0.38397 0.15033
vt 0.38397 0.15033
vt 0.40260 0.02376
vt 0.40260 0.15033
vt 0.38397 0.15033
vt 0.38397 0.02376
vt 0.40260 0.00682
vt 0.38397 0.04873
vt 0.38397 0.00682
vt 0.38397 0.04873
vt 0.40260 0.04873
vt 0.40260 0.04873
vt 0.38397 0.09065
vt 0.38397 0.04873
vt 0.40260 0.09065
vt 0.38397 0.13254
vt 0.40260 0.13254
vt 0.40260 0.13254
vt 0.38397 0.17446
vt 0.38397 0.13254
vt 0.40260 0.17446
vt 0.40234 0.17933
vt 0.39979 0.24562
vt 0.40234 0.24562
vt 0.40234 0.17933
vt 0.39979 0.17933
vt 0.40234 0.23392
vt 0.39979 0.17933
vt 0.39979 0.23392
vt 0.40234 0.04192
vt 0.39979 0.23392
vt 0.40234 0.23392
vt 0.39979 0.04192
vt 0.39979 0.09844
vt 0.40234 0.04192
vt 0.40234 0.09844
vt 0.39796 0.17933
vt 0.39796 0.23489
vt 0.39796 0.17933
vt 0.39796 0.23489
vt 0.39796 0.04192
vt 0.39796 0.04192
vt 0.39979 0.04192
vt 0.39796 0.09844
vt 0.39796 0.15108
vt 0.39796 0.09844
vt 0.39979 0.15108
vt 0.40234 0.09844
vt 0.40234 0.15108
vt 0.39796 0.17933
vt 0.39796 0.24562
vt 0.39979 0.10625
vt 0.40234 0.18422
vt 0.40234 0.10625
vt 0.39979 0.18422
vt 0.39796 0.10625
vt 0.39979 0.10625
vt 0.39796 0.18422
vt 0.39979 0.06433
vt 0.39796 0.06263
vt 0.39796 0.14694
vt 0.39979 0.14694
vt 0.39979 0.14694
vt 0.40234 0.06592
vt 0.39979 0.14694
vt 0.40234 0.14694
vt 0.39979 0.06433
vt 0.39796 0.02530
vt 0.39979 0.02580
vt 0.40234 0.02628
vt 0.40234 0.06592
vt 0.40234 0.02628
vt 0.39979 0.01949
vt 0.39796 0.01949
vt 0.39796 0.21369
vt 0.39979 0.21369
vt 0.39796 0.21369
vt 0.39979 0.14694
vt 0.39796 0.14694
vt 0.39979 0.14694
vt 0.39796 0.10113
vt 0.39796 0.10113
vt 0.39979 0.10113
vt 0.39979 0.06019
vt 0.39796 0.05994
vt 0.40234 0.21369
vt 0.40234 0.14694
vt 0.40234 0.14694
vt 0.40234 0.10113
vt 0.40234 0.06044
vt 0.39979 0.02580
vt 0.40234 0.01949
vt 0.40234 0.06044
vt 0.40234 0.02628
vt 0.39796 0.17933
vt 0.39979 0.24562
vt 0.39796 0.24562
vt 0.39796 0.17933
vt 0.39979 0.17933
vt 0.39796 0.23489
vt 0.39979 0.17933
vt 0.39979 0.23392
vt 0.39796 0.04192
vt 0.39796 0.04192
vt 0.39979 0.04192
vt 0.39979 0.23392
vt 0.39979 0.09844
vt 0.39796 0.09844
vt 0.39979 0.24562
vt 0.40234 0.17933
vt 0.40234 0.23392
vt 0.40234 0.23392
vt 0.40234 0.04192
vt 0.40234 0.04192
vt 0.40234 0.09844
vt 0.39979 0.15108
vt 0.39796 0.15108
vt 0.39979 0.15108
vt 0.39796 0.09844
vt 0.40234 0.24562
vt 0.40234 0.15108
vt 0.39979 0.18422
vt 0.39796 0.18422
vt 0.39796 0.10625
vt 0.39979 0.10625
vt 0.40234 0.18422
vt 0.40234 0.10625
vt 0.39979 0.06433
vt 0.39796 0.14694
vt 0.39796 0.06263
vt 0.39979 0.14694
vt 0.40234 0.06592
vt 0.40234 0.06592
vt 0.40234 0.14694
vt 0.39796 0.02530
vt 0.39979 0.06433
vt 0.39979 0.02580
vt 0.40234 0.02628
vt 0.39979 0.06433
vt 0.39979 0.02580
vt 0.40234 0.02628
vt 0.40234 0.06592
vt 0.39979 0.01949
vt 0.40234 0.01949
vt 0.40234 0.21369
vt 0.39979 0.21369
vt 0.39979 0.21369
vt 0.40234 0.14694
vt 0.39979 0.14694
vt 0.39979 0.10113
vt 0.40234 0.10113
vt 0.39979 0.06019
vt 0.40234 0.10113
vt 0.40234 0.06044
vt 0.39796 0.21369
vt 0.39979 0.01949
vt 0.39796 0.21369
vt 0.39979 0.14694
vt 0.39979 0.14694
vt 0.39796 0.14694
vt 0.39796 0.10113
vt 0.39796 0.14694
vt 0.39796 0.10113
vt 0.39796 0.05994
vt 0.39979 0.02580
vt 0.39979 0.02580
vt 0.40234 0.02628
vt 0.39796 0.01949
vt 0.38397 0.09552
vt 0.39789 0.18908
vt 0.38397 0.18908
vt 0.39789 0.09552
vt 0.38397 0.14230
vt 0.39789 0.09552
vt 0.39789 0.14230
vt 0.38397 0.19200
vt 0.39789 0.14230
vt 0.39789 0.19200
vt 0.38397 0.23879
vt 0.38397 0.19200
vt 0.39789 0.23879
vt 0.38397 0.03411
vt 0.39789 0.23879
vt 0.38397 0.23879
vt 0.39789 0.03411
vt 0.38397 0.02535
vt 0.39789 0.03411
vt 0.38397 0.02535
vt 0.39789 0.02535
vt 0.38397 0.17057
vt 0.39789 0.02535
vt 0.39789 0.17057
vt 0.39789 0.09953
vt 0.38397 0.14669
vt 0.39789 0.14669
vt 0.38397 0.09953
vt 0.39789 0.04277
vt 0.38397 0.09953
vt 0.38397 0.04277
vt 0.39789 0.00382
vt 0.38397 0.04277
vt 0.39789 0.04277
vt 0.39789 0.00382
vt 0.38397 0.00382
vt 0.39789 0.21835
vt 0.38397 0.21835
vt 0.39789 0.22636
vt 0.38397 0.22636
vt 0.40260 0.19096
vt 0.38397 0.23178
vt 0.40260 0.23178
vt 0.38397 0.19096
vt 0.40260 0.15033
vt 0.40260 0.19096
vt 0.38397 0.15033
vt 0.40260 0.02376
vt 0.38397 0.15033
vt 0.40260 0.15033
vt 0.38397 0.02376
vt 0.40260 0.13254
vt 0.38397 0.17446
vt 0.40260 0.17446
vt 0.38397 0.13254
vt 0.40260 0.09065
vt 0.40260 0.13254
vt 0.40260 0.09065
vt 0.38397 0.09065
vt 0.40260 0.04873
vt 0.38397 0.09065
vt 0.40260 0.09065
vt 0.38397 0.04873
vt 0.40260 0.00682
vt 0.40260 0.04873
vt 0.38397 0.00682
vt 0.39979 0.17446
vt 0.40234 0.13938
vt 0.40234 0.17446
vt 0.39979 0.13938
vt 0.39796 0.17446
vt 0.39979 0.17446
vt 0.39796 0.13841
vt 0.39796 0.19689
vt 0.39979 0.19689
vt 0.39979 0.19689
vt 0.40234 0.19689
vt 0.40234 0.19689
vt 0.40234 0.13938
vt 0.39979 0.17446
vt 0.40234 0.17446
vt 0.40234 0.13938
vt 0.39979 0.13938
vt 0.40234 0.19689
vt 0.40234 0.13938
vt 0.39979 0.19689
vt 0.39796 0.19689
vt 0.39979 0.13938
vt 0.39796 0.13841
vt 0.39796 0.17446
vt 0.39979 0.17446
vt 0.38397 0.14717
vt 0.39789 0.09844
vt 0.39789 0.14717
vt 0.38397 0.14717
vt 0.38397 0.09844
vt 0.38397 0.09844
vt 0.39789 0.16618
vt 0.38397 0.16618
vt 0.38397 0.23295
vt 0.40260 0.19200
vt 0.40260 0.23295
vt 0.38397 0.19200
vt 0.40260 0.08871
vt 0.38397 0.08479
vt 0.38397 0.08871
vt 0.40260 0.08479
vt 0.40234 0.13938
vt 0.39979 0.17446
vt 0.40234 0.17446
vt 0.39979 0.13938
vt 0.40234 0.19689
vt 0.39979 0.13938
vt 0.40234 0.19689
vt 0.39979 0.19689
vt 0.39796 0.19689
vt 0.39796 0.13841
vt 0.39796 0.17446
vt 0.39979 0.17446
vt 0.40234 0.13938
vt 0.40234 0.17446
vt 0.39979 0.13938
vt 0.39796 0.17446
vt 0.39979 0.13938
vt 0.39796 0.13841
vt 0.39796 0.19689
vt 0.39979 0.13938
vt 0.39979 0.19689
vt 0.40234 0.19689
vt 0.40234 0.13938
vt 0.38397 0.09844
vt 0.39789 0.16618
vt 0.38397 0.16618
vt 0.39789 0.09844
vt 0.38397 0.14717
vt 0.38397 0.09844
vt 0.39789 0.14717
vt 0.40260 0.19200
vt 0.38397 0.23295
vt 0.40260 0.23295
vt 0.38397 0.19200
vt 0.38397 0.08479
vt 0.40260 0.08871
vt 0.38397 0.08871
vt 0.40260 0.08479
vt 0.40234 0.22174
vt 0.39979 0.20223
vt 0.40234 0.20223
vt 0.40234 0.22174
vt 0.39979 0.22174
vt 0.39796 0.20223
vt 0.39796 0.22174
vt 0.39979 0.22174
vt 0.39796 0.20223
vt 0.39796 0.22174
vt 0.39979 0.20223
vt 0.40234 0.22174
vt 0.40234 0.17593
vt 0.40234 0.20223
vt 0.38397 0.01463
vt 0.39789 0.06919
vt 0.39789 0.01463
vt 0.38397 0.06919
vt 0.40260 0.14914
vt 0.38397 0.16471
vt 0.38397 0.14914
vt 0.40260 0.16471
vt 0.40234 0.22174
vt 0.40234 0.20223
vt 0.39979 0.20223
vt 0.39979 0.22174
vt 0.39979 0.20223
vt 0.39796 0.20223
vt 0.39796 0.22174
vt 0.39979 0.17593
vt 0.39796 0.17593
vt 0.39979 0.17593
vt 0.40234 0.17593
vt 0.40234 0.22174
vt 0.39979 0.20223
vt 0.40234 0.20223
vt 0.39979 0.22174
vt 0.40234 0.17593
vt 0.39979 0.17593
vt 0.39796 0.22174
vt 0.39796 0.17593
vt 0.39796 0.20223
vt 0.39789 0.06919
vt 0.38397 0.01463
vt 0.39789 0.01463
vt 0.39789 0.06919
vt 0.38397 0.06919
vt 0.39789 0.03022
vt 0.38397 0.03022
vt 0.40260 0.14914
vt 0.38397 0.16471
vt 0.40260 0.16471
vt 0.40260 0.14914
vt 0.38397 0.14914
vt 0.40260 0.09649
vt 0.38397 0.09649
vt 0.39979 0.01754
vt 0.39779 0.07408
vt 0.39796 0.01657
vt 0.39981 0.07408
vt 0.40255 0.07408
vt 0.39981 0.07408
vt 0.40255 0.07408
vt 0.40234 0.01754
vt 0.39779 0.07408
vt 0.39979 0.01754
vt 0.39796 0.01657
vt 0.39981 0.07408
vt 0.40255 0.07408
vt 0.39979 0.01754
vt 0.39981 0.07408
vt 0.40234 0.01754
vt 0.38859 0.03267
vt 0.38397 0.03267
vt 0.38397 0.11842
vt 0.39427 0.11842
vt 0.39789 0.03267
vt 0.39789 0.11842
vt 0.40593 0.02633
vt 0.40260 0.02633
vt 0.40260 0.19590
vt 0.41097 0.19590
vt 0.41097 0.19590
vt 0.38397 0.02633
vt 0.40593 0.02633
vt 0.38397 0.19590
vt 0.38397 0.02633
vt 0.39779 0.07408
vt 0.39979 0.01754
vt 0.39796 0.01657
vt 0.39981 0.07408
vt 0.39979 0.01754
vt 0.40255 0.07408
vt 0.39979 0.01754
vt 0.39981 0.07408
vt 0.40234 0.01754
vt 0.39979 0.01754
vt 0.39779 0.07408
vt 0.39796 0.01657
vt 0.39981 0.07408
vt 0.40255 0.07408
vt 0.39981 0.07408
vt 0.39979 0.01754
vt 0.40234 0.01754
vt 0.38397 0.11842
vt 0.38397 0.03267
vt 0.38859 0.03267
vt 0.39427 0.11842
vt 0.39789 0.03267
vt 0.39789 0.11842
vt 0.38397 0.02633
vt 0.38397 0.19590
vt 0.41097 0.19590
vt 0.40593 0.02633
vt 0.40260 0.19590
vt 0.40260 0.02633
vt 0.38397 0.08871
vt 0.40260 0.08871
vt 0.40260 0.16471
vt 0.38397 0.16471
vt 0.38397 0.09649
vt 0.40260 0.17446
vt 0.38397 0.17446
vt 0.40260 0.09649
vt 0.38397 0.02376
vt 0.40260 0.23295
vt 0.40260 0.02376
vt 0.38397 0.03022
vt 0.39789 0.03022
vt 0.39789 0.14717
vt 0.38397 0.18908
vt 0.39789 0.18908
vt 0.38397 0.18908
vt 0.39789 0.01463
vt 0.38397 0.01463
vt 0.39796 0.17593
vt 0.39796 0.01949
vt 0.40234 0.01949
vt 0.39796 0.24562
vt 0.39979 0.01754
vt 0.39979 0.01754
vt 0.39798 0.01754
vt 0.40255 0.07408
vt 0.40234 0.20223
vt 0.39973 0.20176
vt 0.39973 0.20176
vt 0.39785 0.20176
vt 0.40234 0.01949
vt 0.39796 0.17593
vt 0.39796 0.01949
vt 0.39979 0.24562
vt 0.39796 0.24562
vt 0.39979 0.01754
vt 0.39798 0.01754
vt 0.39979 0.01754
vt 0.40234 0.20223
vt 0.40255 0.07408
vt 0.39981 0.07408
vt 0.39973 0.20176
vt 0.39973 0.20176
vt 0.39785 0.20176
vt 0.40260 0.08871
vt 0.38397 0.08871
vt 0.38397 0.08871
vt 0.38397 0.19590
vt 0.38397 0.16471
vt 0.40260 0.16471
vt 0.40260 0.16471
vt 0.38397 0.14914
vt 0.40260 0.09649
vt 0.40260 0.14914
vt 0.40260 0.09649
vt 0.38397 0.14914
vt 0.38397 0.09649
vt 0.38397 0.09649
vt 0.40260 0.17446
vt 0.38397 0.17446
vt 0.40260 0.23295
vt 0.38397 0.23295
vt 0.40260 0.23295
vt 0.38397 0.03022
vt 0.38397 0.03022
vt 0.39789 0.03022
vt 0.39789 0.03022
vt 0.38397 0.03022
vt 0.38397 0.18908
vt 0.38397 0.18908
vt 0.39789 0.18908
vt 0.39796 0.17593
vt 0.39979 0.17593
vt 0.40234 0.24562
vt 0.39796 0.24562
vt 0.39979 0.01754
vt 0.39798 0.01754
vt 0.39979 0.01754
vt 0.40234 0.17446
vt 0.40234 0.01754
vt 0.40234 0.17446
vt 0.40234 0.20223
vt 0.40255 0.07408
vt 0.40234 0.20223
vt 0.39973 0.20176
vt 0.39973 0.20176
vt 0.39785 0.20176
vt 0.39796 0.17593
vt 0.39796 0.01949
vt 0.39979 0.17593
vt 0.40234 0.01949
vt 0.39979 0.17593
vt 0.39796 0.17593
vt 0.39979 0.22174
vt 0.40234 0.17593
vt 0.39979 0.22174
vt 0.39979 0.01754
vt 0.40234 0.17446
vt 0.40234 0.01754
vt 0.39979 0.01754
vt 0.39798 0.01754
vt 0.40255 0.07408
vt 0.40234 0.20223
vt 0.39973 0.20176
vt 0.39779 0.07408
vt 0.39785 0.20176
usemtl sherman_hull_m8
s 1
f 3/3 2/2 1/1
f 5/5 1/1 4/4
f 7/7 3/3 6/6
f 1/1 8/8 3/3
f 11/11 10/10 9/9
f 12/12 9/9 10/10
f 10/10 13/13 12/12
f 14/14 12/12 13/13
f 17/17 16/16 15/15
f 20/20 19/19 18/18
f 23/23 22/22 21/21
f 25/25 21/21 24/24
f 22/22 27/27 26/26
f 28/28 26/26 27/27
f 31/31 30/30 29/29
f 32/32 29/29 30/30
f 35/35 34/34 33/33
f 36/36 33/33 34/34
f 39/39 38/38 37/37
f 40/40 37/37 38/38
f 42/42 41/41 39/39
f 43/43 39/39 41/41
f 46/46 45/45 44/44
f 49/49 48/48 47/47
f 52/52 51/51 50/50
f 53/53 50/50 51/51
f 56/56 55/55 54/54
f 58/58 54/54 57/57
f 61/61 60/60 59/59
f 62/62 59/59 60/60
f 59/59 64/64 63/63
f 65/65 63/63 64/64
f 68/68 67/67 66/66
f 67/67 70/70 69/69
f 66/66 70/70 71/71
f 74/74 73/73 72/72
f 76/76 73/73 75/75
f 73/73 78/78 77/77
f 81/81 80/80 79/79
f 80/80 82/82 77/77
f 83/83 70/70 67/67
f 83/83 84/84 74/74
f 84/84 73/73 74/74
f 84/84 85/85 73/73
f 86/86 78/78 73/73
f 87/87 86/86 80/80
f 90/90 89/89 88/88
f 88/88 89/89 91/91
f 80/80 93/93 92/92
f 94/94 80/80 92/92
f 96/96 95/95 67/67
f 89/89 97/97 93/93
f 98/98 93/93 97/97
f 92/92 91/91 98/98
f 100/100 92/92 99/99
f 100/100 99/99 101/101
f 99/99 102/102 101/101
f 98/98 103/103 102/102
f 103/103 104/104 102/102
f 103/103 98/98 97/97
f 107/107 106/106 105/105
f 109/109 108/108 105/105
f 110/110 108/108 109/109
f 111/111 110/110 109/109
f 110/110 113/113 112/112
f 114/114 110/110 112/112
f 114/114 112/112 115/115
f 116/116 114/114 115/115
f 109/109 105/105 117/117
f 118/118 109/109 117/117
f 120/120 113/113 119/119
f 113/113 120/120 121/121
f 112/112 118/118 121/121
f 115/115 112/112 121/121
f 122/122 115/115 121/121
f 115/115 122/122 123/123
f 124/124 115/115 123/123
f 116/116 115/115 125/125
f 126/126 116/116 124/124
f 105/105 127/127 119/119
f 130/130 129/129 128/128
f 131/131 130/130 128/128
f 132/132 130/130 131/131
f 133/133 132/132 131/131
f 133/133 131/131 123/123
f 131/131 124/124 123/123
f 124/124 131/131 134/134
f 135/135 128/128 126/126
f 138/138 137/137 136/136
f 137/137 139/139 136/136
f 136/136 139/139 140/140
f 142/142 141/141 140/140
f 144/144 141/141 143/143
f 141/141 145/145 143/143
f 143/143 145/145 146/146
f 147/147 143/143 146/146
f 142/142 149/149 148/148
f 142/142 148/148 150/150
f 141/141 139/139 150/150
f 141/141 150/150 151/151
f 145/145 153/153 152/152
f 145/145 151/151 146/146
f 152/152 154/154 146/146
f 146/146 156/156 155/155
f 157/157 146/146 155/155
f 158/158 146/146 157/157
f 159/159 158/158 157/157
f 149/149 161/161 160/160
f 164/164 163/163 162/162
f 163/163 165/165 162/162
f 162/162 165/165 166/166
f 165/165 167/167 166/166
f 155/155 167/167 165/165
f 157/157 155/155 165/165
f 157/157 165/165 159/159
f 165/165 163/163 159/159
f 170/170 169/169 168/168
f 172/172 171/171 168/168
f 174/174 173/173 170/170
f 173/173 175/175 171/171
f 177/177 176/176 173/173
f 179/179 178/178 173/173
f 179/179 181/181 180/180
f 181/181 182/182 180/180
f 184/184 174/174 183/183
f 184/184 185/185 172/172
f 185/185 186/186 172/172
f 179/179 186/186 185/185
f 187/187 179/179 185/185
f 181/181 179/179 188/188
f 190/190 181/181 189/189
f 191/191 181/181 190/190
f 191/191 192/192 181/181
f 192/192 182/182 181/181
f 193/193 184/184 168/168
f 194/194 191/191 190/190
f 196/196 194/194 195/195
f 192/192 191/191 195/195
f 197/197 192/192 195/195
f 198/198 197/197 195/195
f 199/199 198/198 195/195
f 195/195 200/200 199/199
f 202/202 201/201 199/199
f 203/203 202/202 195/195
f 206/206 205/205 204/204
f 207/207 204/204 205/205
f 205/205 208/208 207/207
f 210/210 209/209 208/208
f 208/208 211/211 210/210
f 213/213 210/210 212/212
f 216/216 215/215 214/214
f 217/217 214/214 215/215
f 220/220 219/219 218/218
f 221/221 218/218 219/219
f 224/224 223/223 222/222
f 227/227 226/226 225/225
f 223/223 228/228 227/227
f 229/229 227/227 228/228
f 232/232 231/231 230/230
f 235/235 234/234 233/233
f 233/233 236/236 235/235
f 237/237 235/235 236/236
f 240/240 239/239 238/238
f 243/243 242/242 241/241
f 245/245 244/244 243/243
f 248/248 247/247 246/246
f 251/251 250/250 249/249
f 252/252 249/249 250/250
f 255/255 254/254 253/253
f 258/258 257/257 256/256
f 256/256 260/260 259/259
f 261/261 259/259 260/260
f 264/264 263/263 262/262
f 266/266 262/262 265/265
f 263/263 268/268 267/267
f 271/271 270/270 269/269
f 274/274 273/273 272/272
f 276/276 275/275 273/273
f 279/279 278/278 277/277
f 281/281 277/277 280/280
f 284/284 283/283 282/282
f 285/285 282/282 283/283
f 283/283 286/286 285/285
f 287/287 285/285 286/286
f 290/290 289/289 288/288
f 291/291 288/288 289/289
f 294/294 293/293 292/292
f 293/293 296/296 295/295
f 295/295 298/298 297/297
f 298/298 299/299 297/297
f 302/302 301/301 300/300
f 299/299 303/303 300/300
f 305/305 303/303 304/304
f 306/306 305/305 304/304
f 298/298 293/293 307/307
f 296/296 309/309 308/308
f 299/299 298/298 310/310
f 299/299 308/308 311/311
f 313/313 299/299 312/312
f 313/313 312/312 304/304
f 312/312 314/314 304/304
f 304/304 316/316 315/315
f 317/317 304/304 315/315
f 306/306 304/304 317/317
f 319/319 318/318 317/317
f 293/293 321/321 320/320
f 324/324 323/323 322/322
f 323/323 325/325 322/322
f 327/327 325/325 326/326
f 325/325 328/328 326/326
f 315/315 328/328 325/325
f 317/317 315/315 325/325
f 317/317 325/325 319/319
f 325/325 323/323 319/319
f 331/331 330/330 329/329
f 332/332 331/331 329/329
f 329/329 334/334 333/333
f 334/334 336/336 335/335
f 330/330 338/338 337/337
f 338/338 339/339 337/337
f 339/339 340/340 337/337
f 342/342 341/341 337/337
f 345/345 344/344 343/343
f 346/346 345/345 343/343
f 346/346 348/348 347/347
f 350/350 349/349 347/347
f 351/351 349/349 350/350
f 353/353 352/352 350/350
f 353/353 354/354 351/351
f 354/354 355/355 351/351
f 356/356 346/346 343/343
f 356/356 357/357 346/346
f 357/357 348/348 346/346
f 353/353 350/350 358/358
f 359/359 353/353 358/358
f 354/354 353/353 359/359
f 360/360 354/354 359/359
f 361/361 354/354 360/360
f 361/361 338/338 354/354
f 338/338 355/355 354/354
f 362/362 356/356 343/343
f 364/364 361/361 363/363
f 367/367 366/366 365/365
f 366/366 369/369 368/368
f 368/368 371/371 370/370
f 371/371 372/372 370/370
f 370/370 372/372 373/373
f 376/376 375/375 374/374
f 375/375 377/377 373/373
f 377/377 378/378 374/374
f 380/380 371/371 379/379
f 380/380 381/381 371/371
f 382/382 372/372 369/369
f 381/381 383/383 372/372
f 384/384 375/375 372/372
f 375/375 384/384 377/377
f 384/384 385/385 377/377
f 377/377 385/385 386/386
f 377/377 388/388 387/387
f 389/389 377/377 387/387
f 390/390 380/380 379/379
f 385/385 391/391 388/388
f 392/392 386/386 391/391
f 387/387 386/386 392/392
f 393/393 387/387 392/392
f 393/393 392/392 394/394
f 392/392 395/395 394/394
f 392/392 396/396 395/395
f 396/396 397/397 395/395
f 396/396 392/392 391/391
f 400/400 399/399 398/398
f 399/399 401/401 398/398
f 398/398 401/401 402/402
f 401/401 404/404 403/403
f 400/400 406/406 405/405
f 406/406 407/407 405/405
f 410/410 409/409 408/408
f 406/406 412/412 411/411
f 415/415 414/414 413/413
f 416/416 415/415 413/413
f 418/418 415/415 417/417
f 419/419 418/418 417/417
f 418/418 419/419 420/420
f 421/421 418/418 420/420
f 423/423 420/420 422/422
f 424/424 421/421 422/422
f 417/417 426/426 425/425
f 428/428 416/416 427/427
f 430/430 429/429 425/425
f 419/419 432/432 431/431
f 420/420 429/429 433/433
f 422/422 420/420 433/433
f 434/434 422/422 433/433
f 422/422 434/434 405/405
f 435/435 422/422 405/405
f 424/424 422/422 436/436
f 437/437 424/424 436/436
f 413/413 438/438 427/427
f 441/441 440/440 439/439
f 442/442 439/439 440/440
f 439/439 444/444 443/443
f 445/445 443/443 444/444
f 443/443 445/445 446/446
f 448/448 446/446 447/447
f 450/450 448/448 449/449
f 451/451 449/449 448/448
f 454/454 453/453 452/452
f 455/455 452/452 453/453
f 452/452 457/457 456/456
f 459/459 458/458 457/457
f 456/456 461/461 460/460
f 462/462 460/460 461/461
f 465/465 464/464 463/463
f 466/466 463/463 464/464
f 463/463 468/468 467/467
f 469/469 467/467 468/468
f 472/472 471/471 470/470
f 474/474 473/473 471/471
f 473/473 474/474 475/475
f 476/476 475/475 474/474
f 475/475 476/476 477/477
f 478/478 477/477 476/476
f 481/481 480/480 479/479
f 482/482 479/479 480/480
f 484/484 482/482 483/483
f 485/485 483/483 482/482
f 488/488 487/487 486/486
f 489/489 486/486 487/487
f 492/492 491/491 490/490
f 493/493 490/490 491/491
f 495/495 493/493 494/494
f 497/497 496/496 493/493
f 500/500 499/499 498/498
f 501/501 498/498 499/499
f 503/503 501/501 502/502
f 504/504 502/502 501/501
f 507/507 506/506 505/505
f 506/506 508/508 505/505
f 510/510 508/508 509/509
f 508/508 511/511 509/509
f 511/511 508/508 512/512
f 508/508 513/513 512/512
f 515/515 514/514 508/508
f 506/506 516/516 508/508
f 519/519 518/518 517/517
f 518/518 521/521 520/520
f 523/523 521/521 522/522
f 521/521 524/524 522/522
f 524/524 526/526 525/525
f 521/521 527/527 525/525
f 528/528 527/527 521/521
f 529/529 528/528 521/521
f 532/532 531/531 530/530
f 534/534 533/533 531/531
f 531/531 536/536 535/535
f 537/537 535/535 536/536
f 540/540 539/539 538/538
f 541/541 538/538 539/539
f 544/544 543/543 542/542
f 545/545 542/542 543/543
f 548/548 547/547 546/546
f 547/547 549/549 546/546
f 546/546 551/551 550/550
f 551/551 553/553 552/552
f 553/553 549/549 554/554
f 549/549 555/555 554/554
f 556/556 555/555 551/551
f 547/547 556/556 551/551
f 559/559 558/558 557/557
f 558/558 560/560 557/557
f 557/557 562/562 561/561
f 560/560 563/563 561/561
f 563/563 565/565 564/564
f 565/565 566/566 564/564
f 567/567 566/566 565/565
f 568/568 567/567 560/560
f 571/571 570/570 569/569
f 572/572 569/569 570/570
f 574/574 572/572 573/573
f 575/575 573/573 572/572
f 578/578 577/577 576/576
f 579/579 576/576 577/577
f 582/582 581/581 580/580
f 583/583 580/580 581/581
f 586/586 585/585 584/584
f 585/585 588/588 587/587
f 588/588 585/585 589/589
f 590/590 588/588 589/589
f 593/593 592/592 591/591
f 592/592 594/594 591/591
f 591/591 594/594 595/595
f 595/595 596/596 591/591
f 594/594 597/597 595/595
f 600/600 599/599 598/598
f 601/601 598/598 599/599
f 604/604 603/603 602/602
f 605/605 602/602 603/603
f 608/608 607/607 606/606
f 609/609 608/608 606/606
f 611/611 610/610 609/609
f 612/612 611/611 609/609
f 609/609 613/613 612/612
f 615/615 614/614 612/612
f 606/606 616/616 609/609
f 616/616 613/613 609/609
f 619/619 618/618 617/617
f 618/618 620/620 617/617
f 621/621 617/617 620/620
f 622/622 621/621 620/620
f 622/622 620/620 623/623
f 624/624 622/622 623/623
f 620/620 618/618 625/625
f 623/623 620/620 625/625
f 628/628 627/627 626/626
f 630/630 629/629 627/627
f 629/629 630/630 631/631
f 632/632 631/631 630/630
f 635/635 634/634 633/633
f 637/637 636/636 634/634
f 636/636 637/637 638/638
f 639/639 638/638 637/637
f 642/642 641/641 640/640
f 641/641 643/643 640/640
f 640/640 645/645 644/644
f 647/647 640/640 646/646
f 650/650 649/649 648/648
f 649/649 651/651 648/648
f 654/654 653/653 652/652
f 653/653 655/655 652/652
f 658/658 657/657 656/656
f 659/659 658/658 656/656
f 656/656 660/660 659/659
f 660/660 661/661 659/659
f 664/664 663/663 662/662
f 665/665 664/664 662/662
f 668/668 667/667 666/666
f 670/670 669/669 665/665
f 673/673 672/672 671/671
f 675/675 674/674 671/671
f 678/678 677/677 676/676
f 675/675 679/679 676/676
f 682/682 681/681 680/680
f 681/681 683/683 680/680
f 686/686 685/685 684/684
f 687/687 686/686 684/684
f 690/690 689/689 688/688
f 691/691 690/690 688/688
f 690/690 691/691 692/692
f 691/691 693/693 692/692
f 696/696 695/695 694/694
f 697/697 696/696 694/694
f 696/696 697/697 698/698
f 697/697 699/699 698/698
f 701/701 700/700 696/696
f 698/698 701/701 696/696
f 697/697 702/702 699/699
f 703/703 702/702 697/697
f 694/694 703/703 697/697
f 696/696 700/700 695/695
f 706/706 705/705 704/704
f 707/707 639/639 705/705
f 577/577 709/709 708/708
f 710/710 708/708 709/709
f 464/464 465/465 711/711
f 712/712 711/711 465/465
f 715/715 714/714 713/713
f 573/573 713/713 716/716
f 570/570 571/571 690/690
f 692/692 570/570 690/690
f 691/691 717/717 693/693
f 718/718 717/717 691/691
f 688/688 718/718 691/691
f 690/690 571/571 689/689
f 720/720 413/413 719/719
f 426/426 622/622 624/624
f 426/426 721/721 622/622
f 414/414 621/621 622/622
f 566/566 366/366 367/367
f 390/390 366/366 566/566
f 567/567 390/390 566/566
f 564/564 566/566 722/722
f 557/557 561/561 723/723
f 559/559 557/557 723/723
f 687/687 559/559 724/724
f 561/561 725/725 723/723
f 726/726 685/685 619/619
f 685/685 728/728 727/727
f 729/729 683/683 681/681
f 730/730 729/729 681/681
f 731/731 343/343 613/613
f 616/616 731/731 613/613
f 343/343 733/733 732/732
f 613/613 343/343 614/614
f 553/553 734/734 294/294
f 293/293 553/553 735/735
f 553/553 554/554 735/735
f 550/550 553/553 294/294
f 547/547 736/736 556/556
f 738/738 737/737 556/556
f 547/547 548/548 736/736
f 548/548 679/679 738/738
f 678/678 740/740 739/739
f 742/742 741/741 739/739
f 671/671 674/674 743/743
f 744/744 671/671 743/743
f 746/746 745/745 665/665
f 666/666 748/748 747/747
f 749/749 670/670 662/662
f 745/745 664/664 665/665
f 662/662 663/663 750/750
f 751/751 749/749 662/662
f 754/754 753/753 752/752
f 757/757 756/756 755/755
f 755/755 291/291 758/758
f 760/760 758/758 759/759
f 762/762 276/276 761/761
f 273/273 763/763 276/276
f 230/230 764/764 232/232
f 766/766 232/232 765/765
f 768/768 601/601 767/767
f 599/599 767/767 601/601
f 600/600 598/598 659/659
f 659/659 661/661 600/600
f 536/536 660/660 656/656
f 598/598 658/658 659/659
f 656/656 657/657 537/537
f 537/537 536/536 656/656
f 530/530 769/769 532/532
f 771/771 532/532 770/770
f 168/168 169/169 772/772
f 773/773 168/168 772/772
f 193/193 168/168 773/773
f 596/596 193/193 773/773
f 596/596 773/773 591/591
f 773/773 772/772 593/593
f 591/591 773/773 593/593
f 524/524 149/149 774/774
f 149/149 524/524 775/775
f 524/524 525/525 775/775
f 522/522 524/524 774/774
f 529/529 776/776 528/528
f 776/776 777/777 528/528
f 518/518 779/779 778/778
f 781/781 780/780 778/778
f 654/654 783/783 782/782
f 785/785 654/654 784/784
f 648/648 651/651 786/786
f 787/787 648/648 786/786
f 789/789 105/105 788/788
f 105/105 791/791 790/790
f 105/105 790/790 788/788
f 793/793 792/792 590/590
f 790/790 794/794 590/590
f 106/106 795/795 790/790
f 790/790 795/795 796/796
f 795/795 584/584 588/588
f 514/514 67/67 68/68
f 96/96 67/67 513/513
f 516/516 96/96 514/514
f 512/512 514/514 68/68
f 505/505 509/509 797/797
f 798/798 505/505 797/797
f 799/799 507/507 797/797
f 509/509 801/801 800/800
f 802/802 645/645 586/586
f 645/645 804/804 803/803
f 804/804 645/645 641/641
f 806/806 804/804 805/805
