mtllib sherman_hull_m3.mtl
o sherman_hull_m3
v 1.35575 -0.46467 0.31571
v 1.40469 -0.52647 0.31571
v 1.37187 -0.50152 0.31571
v 1.36066 -0.42579 0.31571
v 1.38528 -0.39531 0.31571
v 1.42302 -0.38139 0.31571
v 1.46376 -0.38776 0.31571
v 1.49658 -0.41272 0.31571
v 1.44543 -0.53284 0.31571
v 1.51270 -0.44957 0.31571
v 1.50778 -0.48844 0.31571
v 1.48316 -0.51892 0.31571
v 1.51196 -0.48845 -1.18307
v 1.44960 -0.53285 -1.16476
v 1.48733 -0.51893 -1.17515
v 1.51687 -0.44957 -1.18639
v 1.50075 -0.41272 -1.18422
v 1.46793 -0.38777 -1.17715
v 1.40886 -0.52648 -1.15467
v 1.42719 -0.38140 -1.16706
v 1.37604 -0.50152 -1.14760
v 1.38946 -0.39532 -1.15667
v 1.36483 -0.42580 -1.14875
v 1.35992 -0.46467 -1.14543
v 1.39647 -0.54265 0.30523
v 1.35870 -0.61185 0.30523
v 1.36884 -0.57189 0.30523
v 1.43417 -0.53199 0.30523
v 1.47185 -0.54274 0.30523
v 1.49940 -0.57204 0.30523
v 1.50946 -0.61203 0.30523
v 1.49931 -0.65199 0.30523
v 1.36875 -0.65184 0.30523
v 1.47169 -0.68122 0.30523
v 1.43399 -0.69189 0.30523
v 1.39631 -0.68114 0.30523
v 1.43816 -0.69190 -1.18725
v 1.37292 -0.65185 -1.16902
v 1.40048 -0.68114 -1.17937
v 1.47586 -0.68123 -1.19055
v 1.50348 -0.65200 -1.18840
v 1.51363 -0.61203 -1.18135
v 1.36287 -0.61186 -1.15897
v 1.50358 -0.57204 -1.17131
v 1.37301 -0.57189 -1.15193
v 1.47602 -0.54275 -1.16096
v 1.43834 -0.53199 -1.15308
v 1.40064 -0.54266 -1.14977
v 1.35575 -0.46467 1.93861
v 1.40469 -0.52647 1.93861
v 1.37187 -0.50152 1.93861
v 1.36066 -0.42579 1.93861
v 1.38528 -0.39531 1.93861
v 1.42302 -0.38139 1.93861
v 1.46376 -0.38776 1.93861
v 1.49658 -0.41272 1.93861
v 1.44543 -0.53284 1.93861
v 1.51270 -0.44957 1.93861
v 1.50778 -0.48844 1.93861
v 1.48316 -0.51892 1.93861
v 1.51196 -0.48845 0.43984
v 1.44960 -0.53285 0.45815
v 1.48733 -0.51893 0.44776
v 1.51687 -0.44957 0.43652
v 1.50075 -0.41272 0.43869
v 1.46793 -0.38777 0.44576
v 1.46793 -0.38777 0.44576
v 1.40886 -0.52648 0.46823
v 1.44960 -0.53285 0.45815
v 1.42719 -0.38140 0.45585
v 1.42719 -0.38140 0.45585
v 1.37604 -0.50152 0.47531
v 1.40886 -0.52648 0.46823
v 1.38946 -0.39532 0.46624
v 1.37604 -0.50152 0.47531
v 1.42719 -0.38140 0.45585
v 1.36483 -0.42580 0.47416
v 1.38946 -0.39532 0.46624
v 1.35992 -0.46467 0.47748
v 1.39647 -0.54265 1.92814
v 1.35870 -0.61185 1.92814
v 1.36884 -0.57189 1.92814
v 1.43417 -0.53199 1.92814
v 1.47185 -0.54274 1.92814
v 1.49940 -0.57204 1.92814
v 1.50946 -0.61203 1.92814
v 1.49931 -0.65199 1.92814
v 1.36875 -0.65184 1.92814
v 1.47169 -0.68122 1.92814
v 1.43399 -0.69189 1.92814
v 1.39631 -0.68114 1.92814
v 1.43816 -0.69190 0.43566
v 1.37292 -0.65185 0.45389
v 1.40048 -0.68114 0.44354
v 1.47586 -0.68123 0.43235
v 1.50348 -0.65200 0.43451
v 1.51363 -0.61203 0.44156
v 1.36287 -0.61186 0.46393
v 1.50358 -0.57204 0.45160
v 1.37301 -0.57189 0.47098
v 1.47602 -0.54275 0.46195
v 1.43834 -0.53199 0.46983
v 1.40064 -0.54266 0.47314
v -1.41183 -0.52323 0.31571
v -1.36275 -0.46154 0.31571
v -1.37895 -0.49835 0.31571
v -1.36757 -0.42265 0.31571
v -1.39212 -0.39211 0.31571
v -1.42982 -0.37811 0.31571
v -1.47057 -0.38438 0.31571
v -1.45258 -0.52950 0.31571
v -1.50346 -0.40926 0.31571
v -1.49028 -0.51550 0.31571
v -1.51483 -0.48496 0.31571
v -1.51966 -0.44608 0.31571
v -1.36692 -0.46153 -1.14543
v -1.41600 -0.52322 -1.15467
v -1.38312 -0.49834 -1.14760
v -1.37174 -0.42265 -1.14875
v -1.39629 -0.39211 -1.15667
v -1.43399 -0.37810 -1.16706
v -1.47475 -0.38438 -1.17715
v -1.45675 -0.52950 -1.16476
v -1.50763 -0.40926 -1.18422
v -1.49445 -0.51549 -1.17515
v -1.52383 -0.44607 -1.18639
v -1.51901 -0.48496 -1.18307
v -1.36603 -0.60871 0.30523
v -1.40364 -0.53943 0.30523
v -1.37608 -0.56873 0.30523
v -1.44132 -0.52868 0.30523
v -1.47902 -0.53934 0.30523
v -1.50665 -0.56858 0.30523
v -1.51679 -0.60854 0.30523
v -1.37618 -0.64868 0.30523
v -1.50674 -0.64853 0.30523
v -1.40380 -0.67791 0.30523
v -1.44150 -0.68858 0.30523
v -1.47918 -0.67783 0.30523
v -1.40781 -0.53943 -1.14977
v -1.37020 -0.60871 -1.15897
v -1.38026 -0.56872 -1.15193
v -1.44549 -0.52867 -1.15308
v -1.48319 -0.53934 -1.16096
v -1.51082 -0.56857 -1.17131
v -1.48319 -0.53934 -1.16096
v -1.52096 -0.60854 -1.18135
v -1.38035 -0.64868 -1.16902
v -1.51091 -0.64852 -1.18840
v -1.40797 -0.67791 -1.17937
v -1.48335 -0.67782 -1.19055
v -1.44568 -0.68858 -1.18725
v -1.41183 -0.52323 1.93861
v -1.36275 -0.46154 1.93861
v -1.37895 -0.49835 1.93861
v -1.36757 -0.42265 1.93861
v -1.39212 -0.39211 1.93861
v -1.42982 -0.37811 1.93861
v -1.47057 -0.38438 1.93861
v -1.45258 -0.52950 1.93861
v -1.50346 -0.40926 1.93861
v -1.49028 -0.51550 1.93861
v -1.51483 -0.48496 1.93861
v -1.51966 -0.44608 1.93861
v -1.36692 -0.46153 0.47748
v -1.41600 -0.52322 0.46823
v -1.38312 -0.49834 0.47531
v -1.37174 -0.42265 0.47416
v -1.39629 -0.39211 0.46624
v -1.41600 -0.52322 0.46823
v -1.37174 -0.42265 0.47416
v -1.43399 -0.37810 0.45585
v -1.39629 -0.39211 0.46624
v -1.47475 -0.38438 0.44576
v -1.47475 -0.38438 0.44576
v -1.45675 -0.52950 0.45815
v -1.50763 -0.40926 0.43869
v -1.45675 -0.52950 0.45815
v -1.49445 -0.51549 0.44776
v -1.52383 -0.44607 0.43652
v -1.51901 -0.48496 0.43984
v -1.36603 -0.60871 1.92814
v -1.40364 -0.53943 1.92814
v -1.37608 -0.56873 1.92814
v -1.44132 -0.52868 1.92814
v -1.47902 -0.53934 1.92814
v -1.50665 -0.56858 1.92814
v -1.51679 -0.60854 1.92814
v -1.37618 -0.64868 1.92814
v -1.50674 -0.64853 1.92814
v -1.40380 -0.67791 1.92814
v -1.44150 -0.68858 1.92814
v -1.47918 -0.67783 1.92814
v -1.40781 -0.53943 0.47314
v -1.37020 -0.60871 0.46393
v -1.38026 -0.56872 0.47098
v -1.44549 -0.52867 0.46983
v -1.48319 -0.53934 0.46195
v -1.51082 -0.56857 0.45160
v -1.52096 -0.60854 0.44156
v -1.38035 -0.64868 0.45389
v -1.51091 -0.64852 0.43451
v -1.40797 -0.67791 0.44354
v -1.48335 -0.67782 0.43235
v -1.44568 -0.68858 0.43566
v 0.62207 -0.24286 -2.01866
v 0.62212 -0.20044 -2.08511
v 0.62209 -0.23000 -2.05784
v 0.62216 -0.16209 -2.09316
v 0.62207 -0.24286 -2.01866
v 0.62221 -0.12524 -2.07985
v 0.62216 -0.16209 -2.09316
v 0.62224 -0.09976 -2.04873
v 0.62224 -0.09247 -2.00815
v 0.62224 -0.09976 -2.04873
v 0.62208 -0.23558 -1.97808
v 0.62223 -0.10533 -1.96897
v 0.62211 -0.21010 -1.94696
v 0.62215 -0.17324 -1.93365
v 0.62223 -0.10533 -1.96897
v 0.62211 -0.21010 -1.94696
v 0.62220 -0.13490 -1.94170
v 0.62215 -0.17324 -1.93365
v -0.83288 -0.19876 -2.08511
v -0.84213 -0.24118 -2.01866
v -0.83508 -0.22832 -2.05784
v -0.83615 -0.16041 -2.09316
v -0.84213 -0.24118 -2.01866
v -0.83288 -0.19876 -2.08511
v -0.84399 -0.12355 -2.07985
v -0.83615 -0.16041 -2.09316
v -0.85431 -0.09806 -2.04873
v -0.86434 -0.09076 -2.00815
v -0.85217 -0.23388 -1.97808
v -0.87140 -0.10361 -1.96897
v -0.86249 -0.20839 -1.94696
v -0.87359 -0.13318 -1.94170
v -0.87033 -0.17153 -1.93365
v 0.92929 -0.24338 -2.13594
v 0.92930 -0.23986 -2.21469
v 0.92928 -0.25183 -2.17630
v 0.92929 -0.24338 -2.13594
v 0.92933 -0.21068 -2.24084
v 0.92930 -0.23986 -2.21469
v 0.92937 -0.17211 -2.24774
v 0.92933 -0.21068 -2.24084
v 0.92942 -0.13448 -2.23353
v 0.92937 -0.17211 -2.24774
v 0.92945 -0.10788 -2.20203
v 0.92942 -0.13448 -2.23353
v 0.92932 -0.21678 -2.10443
v 0.92946 -0.09943 -2.16167
v 0.92937 -0.17915 -2.09023
v 0.92941 -0.14058 -2.09712
v 0.92946 -0.09943 -2.16167
v 0.92937 -0.17915 -2.09023
v 0.92944 -0.11140 -2.12327
v 0.92941 -0.14058 -2.09712
v -0.79828 -0.23787 -2.21469
v -0.80837 -0.24138 -2.13594
v -0.80066 -0.24984 -2.17630
v -0.80187 -0.20869 -2.24084
v -0.81047 -0.17011 -2.24774
v -0.82177 -0.13246 -2.23353
v -0.83275 -0.10585 -2.20203
v -0.81935 -0.21477 -2.10443
v -0.84047 -0.09739 -2.16167
v -0.83066 -0.17713 -2.09023
v -0.84285 -0.10936 -2.12327
v -0.83926 -0.13854 -2.09712
v 0.79150 -0.03968 -2.13210
v 0.78392 -0.08428 -2.19666
v 0.78843 -0.07072 -2.15906
v 0.77919 -0.07673 -2.23482
v 0.77551 -0.05009 -2.26331
v 0.77385 -0.01149 -2.27450
v 0.77467 0.02871 -2.26540
v 0.79232 0.00053 -2.12300
v 0.77774 0.05976 -2.23844
v 0.79066 0.03913 -2.13419
v 0.78697 0.06577 -2.16269
v 0.78224 0.07332 -2.20084
v 0.77774 0.05976 -2.23844
v 0.78697 0.06577 -2.16269
v -0.79943 -0.09602 -2.00273
v -0.80186 -0.05149 -1.93694
v -0.79727 -0.08248 -1.96484
v -0.80775 -0.08850 -2.04044
v -0.82002 -0.06192 -2.06788
v -0.83294 -0.02340 -2.07770
v -0.84305 0.01672 -2.06725
v -0.84305 0.01672 -2.06725
v -0.81197 -0.01136 -1.92650
v -0.80186 -0.05149 -1.93694
v -0.84764 0.04771 -2.03935
v -0.81197 -0.01136 -1.92650
v -0.82489 0.02715 -1.93631
v -0.84549 0.06125 -2.00147
v -0.83716 0.05373 -1.96375
v -0.82489 0.02715 -1.93631
v -0.84549 0.06125 -2.00147
v 0.56304 -0.09288 -1.99370
v 0.55220 -0.04997 -2.05893
v 0.55752 -0.07970 -2.03237
v 0.54850 -0.01165 -2.06626
v 0.54742 0.02498 -2.05239
v 0.54925 0.05010 -2.02103
v 0.55348 0.05700 -1.98060
v 0.56728 -0.08599 -1.95327
v 0.55900 0.04382 -1.94193
v 0.56910 -0.06086 -1.92192
v 0.56802 -0.02423 -1.90805
v 0.56432 0.01408 -1.91537
v -0.84001 -0.15302 -1.89538
v -0.83828 -0.19662 -1.82908
v -0.83682 -0.18291 -1.86857
v -0.84698 -0.11495 -1.90232
v -0.85587 -0.07890 -1.88753
v -0.86430 -0.05453 -1.85498
v -0.87000 -0.04837 -1.81338
v -0.84399 -0.19046 -1.78748
v -0.87146 -0.06207 -1.77388
v -0.84399 -0.19046 -1.78748
v -0.87000 -0.04837 -1.81338
v -0.87146 -0.06207 -1.77388
v -0.85242 -0.16609 -1.75492
v -0.86828 -0.09196 -1.74707
v -0.85242 -0.16609 -1.75492
v -0.86131 -0.13003 -1.74013
v -0.86828 -0.09196 -1.74707
v 0.37598 -0.23128 -1.88039
v 0.36550 -0.22030 -1.93955
v 0.36998 -0.23351 -1.91169
v 0.36375 -0.19520 -1.95652
v 0.37598 -0.23128 -1.88039
v 0.36518 -0.16491 -1.95804
v 0.36375 -0.19520 -1.95652
v 0.36941 -0.13757 -1.94371
v 0.36518 -0.16491 -1.95804
v 0.37532 -0.12050 -1.91737
v 0.38188 -0.21421 -1.85405
v 0.37532 -0.12050 -1.91737
v 0.38132 -0.11827 -1.88607
v 0.38612 -0.18687 -1.83972
v 0.38132 -0.11827 -1.88607
v 0.38188 -0.21421 -1.85405
v 0.38755 -0.15658 -1.84124
v 0.38579 -0.13148 -1.85821
v -0.94783 -0.14587 -1.69325
v -0.94503 -0.15641 -1.63265
v -0.94515 -0.15898 -1.66505
v -0.95235 -0.12060 -1.70970
v -0.94503 -0.15641 -1.63265
v -0.94783 -0.14587 -1.69325
v -0.95749 -0.08995 -1.70998
v -0.95235 -0.12060 -1.70970
v -0.96187 -0.06212 -1.69404
v -0.94503 -0.15641 -1.63265
v -0.95749 -0.08995 -1.70998
v -0.96434 -0.04457 -1.66613
v -0.94503 -0.15641 -1.63265
v -0.96187 -0.06212 -1.69404
v -0.96434 -0.04457 -1.66613
v -0.94749 -0.13886 -1.60474
v -0.96421 -0.04201 -1.63373
v -0.95188 -0.11103 -1.58879
v -0.96153 -0.05511 -1.60553
v -0.95702 -0.08038 -1.58908
v -0.95188 -0.11103 -1.58879
v -0.96153 -0.05511 -1.60553
v 0.47311 -0.17357 -1.64991
v 0.48345 -0.13371 -1.71331
v 0.47804 -0.16167 -1.68729
v 0.47311 -0.17357 -1.64991
v 0.48788 -0.09720 -1.72100
v 0.48345 -0.13371 -1.71331
v 0.49014 -0.06190 -1.70829
v 0.48964 -0.03729 -1.67859
v 0.48649 -0.02996 -1.63986
v 0.46996 -0.16624 -1.61118
v 0.48156 -0.04186 -1.60248
v 0.46946 -0.14163 -1.58148
v 0.48156 -0.04186 -1.60248
v 0.46996 -0.16624 -1.61118
v 0.47172 -0.10633 -1.56877
v 0.46946 -0.14163 -1.58148
v 0.47615 -0.06982 -1.57646
v -0.87986 -0.03319 -1.80811
v -0.89894 -0.07217 -1.74558
v -0.88732 -0.06094 -1.78229
v -0.87857 0.00364 -1.81611
v -0.88379 0.03969 -1.80415
v -0.89412 0.06528 -1.77544
v -0.90680 0.07357 -1.73766
v -0.91162 -0.06388 -1.70780
v -0.91843 0.06234 -1.70095
v -0.92195 -0.03828 -1.67909
v -0.92588 0.03459 -1.67513
v -0.92717 -0.00224 -1.66713
vt 0.50640 0.00188
vt 0.50972 0.06296
vt 0.50833 0.01630
vt 0.50438 0.02236
vt 0.50300 0.05856
vt 0.50244 0.12067
vt 0.50296 0.19068
vt 0.50433 0.23514
vt 0.51007 0.12573
vt 0.50624 0.24817
vt 0.50819 0.23270
vt 0.50964 0.18786
vt 0.50299 0.05916
vt 0.50637 0.00242
vt 0.50440 0.02268
vt 0.50244 0.12172
vt 0.50297 0.19115
vt 0.50448 0.23891
vt 0.50832 0.01665
vt 0.50638 0.24964
vt 0.50972 0.06216
vt 0.50829 0.23270
vt 0.50969 0.18761
vt 0.51007 0.12646
vt 0.50640 0.00188
vt 0.50972 0.06296
vt 0.50833 0.01630
vt 0.50438 0.02236
vt 0.50300 0.05856
vt 0.50244 0.12067
vt 0.50296 0.19068
vt 0.50433 0.23514
vt 0.51007 0.12573
vt 0.50624 0.24817
vt 0.50819 0.23270
vt 0.50964 0.18786
vt 0.50299 0.05916
vt 0.50637 0.00242
vt 0.50440 0.02268
vt 0.50244 0.12172
vt 0.50297 0.19115
vt 0.50448 0.23891
vt 0.50832 0.01665
vt 0.50638 0.24964
vt 0.50972 0.06216
vt 0.50829 0.23270
vt 0.50969 0.18761
vt 0.51007 0.12646
vt 0.50640 0.00188
vt 0.50972 0.06296
vt 0.50833 0.01630
vt 0.50438 0.02236
vt 0.50300 0.05856
vt 0.50244 0.12067
vt 0.50296 0.19068
vt 0.50433 0.23514
vt 0.51007 0.12573
vt 0.50624 0.24817
vt 0.50819 0.23270
vt 0.50964 0.18786
vt 0.50299 0.05916
vt 0.50637 0.00242
vt 0.50440 0.02268
vt 0.50244 0.12172
vt 0.50297 0.19115
vt 0.50448 0.23891
vt 0.50448 0.23891
vt 0.50832 0.01665
vt 0.50637 0.00242
vt 0.50638 0.24964
vt 0.50638 0.24964
vt 0.50972 0.06216
vt 0.50832 0.01665
vt 0.50829 0.23270
vt 0.50972 0.06216
vt 0.50638 0.24964
vt 0.50969 0.18761
vt 0.50829 0.23270
vt 0.51007 0.12646
vt 0.50640 0.00188
vt 0.50972 0.06296
vt 0.50833 0.01630
vt 0.50438 0.02236
vt 0.50300 0.05856
vt 0.50244 0.12067
vt 0.50296 0.19068
vt 0.50433 0.23514
vt 0.51007 0.12573
vt 0.50624 0.24817
vt 0.50819 0.23270
vt 0.50964 0.18786
vt 0.50299 0.05916
vt 0.50637 0.00242
vt 0.50440 0.02268
vt 0.50244 0.12172
vt 0.50297 0.19115
vt 0.50448 0.23891
vt 0.50832 0.01665
vt 0.50638 0.24964
vt 0.50972 0.06216
vt 0.50829 0.23270
vt 0.50969 0.18761
vt 0.51007 0.12646
vt 0.50972 0.06296
vt 0.50640 0.00188
vt 0.50833 0.01630
vt 0.50438 0.02236
vt 0.50300 0.05856
vt 0.50244 0.12067
vt 0.50296 0.19068
vt 0.51007 0.12573
vt 0.50433 0.23514
vt 0.50964 0.18786
vt 0.50819 0.23270
vt 0.50624 0.24817
vt 0.51007 0.12646
vt 0.50832 0.01665
vt 0.50972 0.06216
vt 0.50969 0.18761
vt 0.50829 0.23270
vt 0.50638 0.24964
vt 0.50448 0.23891
vt 0.50637 0.00242
vt 0.50297 0.19115
vt 0.50440 0.02268
vt 0.50244 0.12172
vt 0.50299 0.05916
vt 0.50972 0.06296
vt 0.50640 0.00188
vt 0.50833 0.01630
vt 0.50438 0.02236
vt 0.50300 0.05856
vt 0.50244 0.12067
vt 0.50296 0.19068
vt 0.51007 0.12573
vt 0.50433 0.23514
vt 0.50964 0.18786
vt 0.50819 0.23270
vt 0.50624 0.24817
vt 0.51007 0.12646
vt 0.50832 0.01665
vt 0.50972 0.06216
vt 0.50969 0.18761
vt 0.50829 0.23270
vt 0.50638 0.24964
vt 0.50829 0.23270
vt 0.50448 0.23891
vt 0.50637 0.00242
vt 0.50297 0.19115
vt 0.50440 0.02268
vt 0.50244 0.12172
vt 0.50299 0.05916
vt 0.50972 0.06296
vt 0.50640 0.00188
vt 0.50833 0.01630
vt 0.50438 0.02236
vt 0.50300 0.05856
vt 0.50244 0.12067
vt 0.50296 0.19068
vt 0.51007 0.12573
vt 0.50433 0.23514
vt 0.50964 0.18786
vt 0.50819 0.23270
vt 0.50624 0.24817
vt 0.51007 0.12646
vt 0.50832 0.01665
vt 0.50972 0.06216
vt 0.50969 0.18761
vt 0.50829 0.23270
vt 0.50832 0.01665
vt 0.50969 0.18761
vt 0.50638 0.24964
vt 0.50829 0.23270
vt 0.50448 0.23891
vt 0.50448 0.23891
vt 0.50637 0.00242
vt 0.50297 0.19115
vt 0.50637 0.00242
vt 0.50440 0.02268
vt 0.50244 0.12172
vt 0.50299 0.05916
vt 0.50972 0.06296
vt 0.50640 0.00188
vt 0.50833 0.01630
vt 0.50438 0.02236
vt 0.50300 0.05856
vt 0.50244 0.12067
vt 0.50296 0.19068
vt 0.51007 0.12573
vt 0.50433 0.23514
vt 0.50964 0.18786
vt 0.50819 0.23270
vt 0.50624 0.24817
vt 0.51007 0.12646
vt 0.50832 0.01665
vt 0.50972 0.06216
vt 0.50969 0.18761
vt 0.50829 0.23270
vt 0.50638 0.24964
vt 0.50448 0.23891
vt 0.50637 0.00242
vt 0.50297 0.19115
vt 0.50440 0.02268
vt 0.50244 0.12172
vt 0.50299 0.05916
vt 0.50972 0.06296
vt 0.50640 0.00188
vt 0.50833 0.01630
vt 0.50438 0.02236
vt 0.50972 0.06296
vt 0.50300 0.05856
vt 0.50438 0.02236
vt 0.50244 0.12067
vt 0.50296 0.19068
vt 0.50244 0.12067
vt 0.51007 0.12573
vt 0.50433 0.23514
vt 0.50964 0.18786
vt 0.50819 0.23270
vt 0.50433 0.23514
vt 0.50964 0.18786
vt 0.50624 0.24817
vt 0.50819 0.23270
vt 0.51007 0.12646
vt 0.50832 0.01665
vt 0.50972 0.06216
vt 0.50969 0.18761
vt 0.50832 0.01665
vt 0.51007 0.12646
vt 0.50829 0.23270
vt 0.50969 0.18761
vt 0.50638 0.24964
vt 0.50448 0.23891
vt 0.50637 0.00242
vt 0.50297 0.19115
vt 0.50440 0.02268
vt 0.50244 0.12172
vt 0.50299 0.05916
vt 0.50972 0.06296
vt 0.50640 0.00188
vt 0.50833 0.01630
vt 0.50972 0.06296
vt 0.50438 0.02236
vt 0.50640 0.00188
vt 0.50300 0.05856
vt 0.50438 0.02236
vt 0.50244 0.12067
vt 0.50300 0.05856
vt 0.50296 0.19068
vt 0.50244 0.12067
vt 0.51007 0.12573
vt 0.50433 0.23514
vt 0.50964 0.18786
vt 0.50819 0.23270
vt 0.50433 0.23514
vt 0.50964 0.18786
vt 0.50624 0.24817
vt 0.50819 0.23270
vt 0.51007 0.12646
vt 0.50832 0.01665
vt 0.50972 0.06216
vt 0.50969 0.18761
vt 0.50829 0.23270
vt 0.50638 0.24964
vt 0.50448 0.23891
vt 0.50637 0.00242
vt 0.50297 0.19115
vt 0.50440 0.02268
vt 0.50244 0.12172
vt 0.50299 0.05916
vt 0.50972 0.06296
vt 0.50640 0.00188
vt 0.50833 0.01630
vt 0.50438 0.02236
vt 0.50300 0.05856
vt 0.50244 0.12067
vt 0.50296 0.19068
vt 0.51007 0.12573
vt 0.50433 0.23514
vt 0.50964 0.18786
vt 0.50819 0.23270
vt 0.50624 0.24817
vt 0.50433 0.23514
vt 0.50819 0.23270
vt 0.51007 0.12646
vt 0.50832 0.01665
vt 0.50972 0.06216
vt 0.50969 0.18761
vt 0.50829 0.23270
vt 0.50638 0.24964
vt 0.50448 0.23891
vt 0.50448 0.23891
vt 0.50637 0.00242
vt 0.50832 0.01665
vt 0.50297 0.19115
vt 0.50637 0.00242
vt 0.50440 0.02268
vt 0.50244 0.12172
vt 0.50299 0.05916
vt 0.50440 0.02268
vt 0.50244 0.12172
vt 0.50972 0.06296
vt 0.50640 0.00188
vt 0.50833 0.01630
vt 0.50438 0.02236
vt 0.50300 0.05856
vt 0.50244 0.12067
vt 0.50296 0.19068
vt 0.51007 0.12573
vt 0.50433 0.23514
vt 0.50964 0.18786
vt 0.50819 0.23270
vt 0.50624 0.24817
vt 0.51007 0.12646
vt 0.50832 0.01665
vt 0.50972 0.06216
vt 0.50969 0.18761
vt 0.50829 0.23270
vt 0.50638 0.24964
vt 0.50448 0.23891
vt 0.50637 0.00242
vt 0.50297 0.19115
vt 0.50637 0.00242
vt 0.50448 0.23891
vt 0.50297 0.19115
vt 0.50440 0.02268
vt 0.50244 0.12172
vt 0.50440 0.02268
vt 0.50299 0.05916
vt 0.50244 0.12172
vt 0.50972 0.06296
vt 0.50640 0.00188
vt 0.50833 0.01630
vt 0.50438 0.02236
vt 0.50972 0.06296
vt 0.50300 0.05856
vt 0.50438 0.02236
vt 0.50244 0.12067
vt 0.50300 0.05856
vt 0.50296 0.19068
vt 0.51007 0.12573
vt 0.50296 0.19068
vt 0.50433 0.23514
vt 0.50964 0.18786
vt 0.50433 0.23514
vt 0.51007 0.12573
vt 0.50819 0.23270
vt 0.50624 0.24817
vt 0.51007 0.12646
vt 0.50832 0.01665
vt 0.50972 0.06216
vt 0.50969 0.18761
vt 0.50832 0.01665
vt 0.51007 0.12646
vt 0.50829 0.23270
vt 0.50969 0.18761
vt 0.50638 0.24964
vt 0.50832 0.01665
vt 0.50829 0.23270
vt 0.50448 0.23891
vt 0.50832 0.01665
vt 0.50638 0.24964
vt 0.50448 0.23891
vt 0.50637 0.00242
vt 0.50297 0.19115
vt 0.50440 0.02268
vt 0.50244 0.12172
vt 0.50299 0.05916
vt 0.50440 0.02268
vt 0.50244 0.12172
vt 0.50972 0.06296
vt 0.50640 0.00188
vt 0.50833 0.01630
vt 0.50972 0.06296
vt 0.50438 0.02236
vt 0.50640 0.00188
vt 0.50300 0.05856
vt 0.50244 0.12067
vt 0.50296 0.19068
vt 0.51007 0.12573
vt 0.50433 0.23514
vt 0.50964 0.18786
vt 0.50433 0.23514
vt 0.51007 0.12573
vt 0.50819 0.23270
vt 0.50964 0.18786
vt 0.50624 0.24817
vt 0.51007 0.12646
vt 0.50832 0.01665
vt 0.50972 0.06216
vt 0.50969 0.18761
vt 0.50829 0.23270
vt 0.50638 0.24964
vt 0.50448 0.23891
vt 0.50637 0.00242
vt 0.50297 0.19115
vt 0.50440 0.02268
vt 0.50244 0.12172
vt 0.50299 0.05916
vn -0.0000 0.0000 1.0000
vn 0.0000 -0.0000 1.0000
vn -0.0000 0.0000 1.0000
vn -0.0000 0.0000 1.0000
vn 0.0000 0.0000 1.0000
vn 0.0000 0.0000 1.0000
vn 0.0000 0.0000 1.0000
vn 0.0000 0.0000 1.0000
vn 0.0000 -0.0000 1.0000
vn -0.0000 0.0000 1.0000
vn -0.0000 0.0000 1.0000
vn -0.0000 0.0000 1.0000
vn -0.2475 -0.0513 -0.9675
vn -0.2475 -0.0513 -0.9675
vn -0.2475 -0.0513 -0.9675
vn -0.2475 -0.0513 -0.9675
vn -0.2475 -0.0513 -0.9675
vn -0.2475 -0.0513 -0.9675
vn -0.2475 -0.0513 -0.9675
vn -0.2475 -0.0513 -0.9675
vn -0.2475 -0.0513 -0.9675
vn -0.2475 -0.0513 -0.9675
vn -0.2475 -0.0513 -0.9675
vn -0.2475 -0.0513 -0.9675
vn 0.0000 -0.0000 1.0000
vn 0.0000 0.0000 1.0000
vn -0.0000 0.0000 1.0000
vn 0.0000 0.0000 1.0000
vn 0.0000 0.0000 1.0000
vn 0.0000 0.0000 1.0000
vn 0.0000 -0.0000 1.0000
vn 0.0000 -0.0000 1.0000
vn 0.0000 0.0000 1.0000
vn 0.0000 -0.0000 1.0000
vn 0.0000 -0.0000 1.0000
vn 0.0000 0.0000 1.0000
vn -0.1434 0.2070 -0.9678
vn -0.1434 0.2070 -0.9678
vn -0.1434 0.2070 -0.9678
vn -0.1434 0.2070 -0.9678
vn -0.1434 0.2070 -0.9678
vn -0.1434 0.2070 -0.9678
vn -0.1434 0.2070 -0.9678
vn -0.1434 0.2070 -0.9678
vn -0.1434 0.2070 -0.9678
vn -0.1434 0.2070 -0.9678
vn -0.1434 0.2070 -0.9678
vn -0.1434 0.2070 -0.9678
vn -0.0000 0.0000 1.0000
vn -0.0000 0.0000 1.0000
vn -0.0000 0.0000 1.0000
vn -0.0000 0.0000 1.0000
vn -0.0000 0.0000 1.0000
vn -0.0000 0.0000 1.0000
vn -0.0000 0.0000 1.0000
vn -0.0000 0.0000 1.0000
vn -0.0000 0.0000 1.0000
vn -0.0000 0.0000 1.0000
vn -0.0000 0.0000 1.0000
vn -0.0000 0.0000 1.0000
vn -0.2475 -0.0513 -0.9675
vn -0.2475 -0.0513 -0.9675
vn -0.2475 -0.0514 -0.9675
vn -0.2475 -0.0513 -0.9675
vn -0.2475 -0.0513 -0.9675
vn -0.2475 -0.0513 -0.9675
vn -0.2475 -0.0513 -0.9675
vn -0.2475 -0.0513 -0.9675
vn -0.2475 -0.0513 -0.9675
vn -0.2475 -0.0513 -0.9675
vn -0.2475 -0.0513 -0.9675
vn -0.2475 -0.0513 -0.9675
vn -0.2475 -0.0513 -0.9675
vn -0.2475 -0.0513 -0.9675
vn -0.2475 -0.0513 -0.9675
vn -0.2475 -0.0513 -0.9675
vn -0.2475 -0.0513 -0.9675
vn -0.2475 -0.0513 -0.9675
vn -0.2475 -0.0513 -0.9675
vn -0.0000 0.0000 1.0000
vn -0.0000 0.0000 1.0000
vn -0.0000 0.0000 1.0000
vn -0.0000 0.0000 1.0000
vn -0.0000 0.0000 1.0000
vn -0.0000 0.0000 1.0000
vn -0.0000 0.0000 1.0000
vn -0.0000 0.0000 1.0000
vn -0.0000 0.0000 1.0000
vn -0.0000 0.0000 1.0000
vn -0.0000 0.0000 1.0000
vn -0.0000 0.0000 1.0000
vn -0.1434 0.2070 -0.9678
vn -0.1434 0.2070 -0.9678
vn -0.1434 0.2070 -0.9678
vn -0.1434 0.2070 -0.9678
vn -0.1434 0.2070 -0.9678
vn -0.1434 0.2070 -0.9678
vn -0.1434 0.2070 -0.9678
vn -0.1434 0.2070 -0.9678
vn -0.1434 0.2070 -0.9678
vn -0.1434 0.2070 -0.9678
vn -0.1434 0.2070 -0.9678
vn -0.1434 0.2070 -0.9678
vn 0.0000 -0.0000 1.0000
vn -0.0000 0.0000 1.0000
vn -0.0000 0.0000 1.0000
vn -0.0000 0.0000 1.0000
vn -0.0000 0.0000 1.0000
vn 0.0000 0.0000 1.0000
vn 0.0000 -0.0000 1.0000
vn 0.0000 -0.0000 1.0000
vn 0.0000 -0.0000 1.0000
vn 0.0000 0.0000 1.0000
vn -0.0000 0.0000 1.0000
vn -0.0000 0.0000 1.0000
vn 0.2474 -0.0519 -0.9675
vn 0.2474 -0.0519 -0.9675
vn 0.2474 -0.0519 -0.9675
vn 0.2474 -0.0519 -0.9675
vn 0.2474 -0.0519 -0.9675
vn 0.2474 -0.0519 -0.9675
vn 0.2474 -0.0519 -0.9675
vn 0.2474 -0.0519 -0.9675
vn 0.2474 -0.0519 -0.9675
vn 0.2474 -0.0519 -0.9675
vn 0.2474 -0.0519 -0.9675
vn 0.2474 -0.0519 -0.9675
vn 0.0000 0.0000 1.0000
vn -0.0000 0.0000 1.0000
vn -0.0000 0.0000 1.0000
vn 0.0000 0.0000 1.0000
vn 0.0000 0.0000 1.0000
vn 0.0000 -0.0000 1.0000
vn 0.0000 -0.0000 1.0000
vn 0.0000 -0.0000 1.0000
vn 0.0000 0.0000 1.0000
vn 0.0000 -0.0000 1.0000
vn 0.0000 -0.0000 1.0000
vn 0.0000 0.0000 1.0000
vn 0.1439 0.2066 -0.9678
vn 0.1439 0.2066 -0.9678
vn 0.1439 0.2066 -0.9678
vn 0.1439 0.2066 -0.9678
vn 0.1439 0.2066 -0.9678
vn 0.1439 0.2066 -0.9678
vn 0.1439 0.2066 -0.9678
vn 0.1439 0.2066 -0.9678
vn 0.1439 0.2066 -0.9678
vn 0.1439 0.2066 -0.9678
vn 0.1439 0.2066 -0.9678
vn 0.1439 0.2066 -0.9678
vn 0.1439 0.2067 -0.9678
vn -0.0000 0.0000 1.0000
vn -0.0000 0.0000 1.0000
vn -0.0000 0.0000 1.0000
vn -0.0000 0.0000 1.0000
vn -0.0000 0.0000 1.0000
vn -0.0000 0.0000 1.0000
vn -0.0000 0.0000 1.0000
vn -0.0000 0.0000 1.0000
vn -0.0000 0.0000 1.0000
vn -0.0000 0.0000 1.0000
vn -0.0000 0.0000 1.0000
vn -0.0000 0.0000 1.0000
vn 0.2474 -0.0519 -0.9675
vn 0.2474 -0.0519 -0.9675
vn 0.2474 -0.0519 -0.9675
vn 0.2474 -0.0519 -0.9675
vn 0.2474 -0.0519 -0.9675
vn 0.2474 -0.0519 -0.9675
vn 0.2474 -0.0519 -0.9675
vn 0.2474 -0.0519 -0.9675
vn 0.2474 -0.0519 -0.9675
vn 0.2474 -0.0519 -0.9675
vn 0.2474 -0.0519 -0.9675
vn 0.2474 -0.0519 -0.9675
vn 0.2474 -0.0519 -0.9675
vn 0.2474 -0.0519 -0.9675
vn 0.2474 -0.0519 -0.9675
vn 0.2474 -0.0519 -0.9675
vn 0.2474 -0.0519 -0.9675
vn -0.0000 0.0000 1.0000
vn -0.0000 0.0000 1.0000
vn -0.0000 0.0000 1.0000
vn -0.0000 0.0000 1.0000
vn -0.0000 0.0000 1.0000
vn -0.0000 0.0000 1.0000
vn -0.0000 0.0000 1.0000
vn -0.0000 0.0000 1.0000
vn -0.0000 0.0000 1.0000
vn -0.0000 0.0000 1.0000
vn -0.0000 0.0000 1.0000
vn -0.0000 0.0000 1.0000
vn 0.1439 0.2066 -0.9678
vn 0.1439 0.2066 -0.9678
vn 0.1439 0.2066 -0.9678
vn 0.1439 0.2066 -0.9678
vn 0.1439 0.2066 -0.9678
vn 0.1439 0.2066 -0.9678
vn 0.1439 0.2066 -0.9678
vn 0.1439 0.2066 -0.9678
vn 0.1439 0.2066 -0.9678
vn 0.1439 0.2066 -0.9678
vn 0.1439 0.2066 -0.9678
vn 0.1439 0.2067 -0.9678
vn 1.0000 -0.0012 -0.0000
vn 1.0000 -0.0012 -0.0000
vn 1.0000 -0.0012 -0.0000
vn 1.0000 -0.0012 0.0000
vn 1.0000 -0.0011 0.0000
vn 1.0000 -0.0011 0.0000
vn 1.0000 -0.0011 0.0000
vn 1.0000 -0.0011 0.0000
vn 1.0000 -0.0012 -0.0000
vn 1.0000 -0.0012 -0.0000
vn 1.0000 -0.0012 -0.0000
vn 1.0000 -0.0012 0.0000
vn 1.0000 -0.0012 -0.0000
vn 1.0000 -0.0011 0.0000
vn 1.0000 -0.0011 0.0000
vn 1.0000 -0.0011 0.0000
vn 1.0000 -0.0012 -0.0000
vn 1.0000 -0.0012 -0.0000
vn -0.9679 -0.1278 -0.2163
vn -0.9679 -0.1278 -0.2163
vn -0.9679 -0.1278 -0.2163
vn -0.9679 -0.1278 -0.2163
vn -0.9679 -0.1278 -0.2163
vn -0.9679 -0.1278 -0.2163
vn -0.9679 -0.1278 -0.2163
vn -0.9679 -0.1278 -0.2163
vn -0.9679 -0.1278 -0.2163
vn -0.9679 -0.1278 -0.2163
vn -0.9679 -0.1278 -0.2163
vn -0.9679 -0.1278 -0.2163
vn -0.9679 -0.1278 -0.2163
vn -0.9679 -0.1278 -0.2163
vn -0.9679 -0.1278 -0.2163
vn 1.0000 -0.0012 -0.0000
vn 1.0000 -0.0012 0.0000
vn 1.0000 -0.0012 0.0000
vn 1.0000 -0.0011 0.0000
vn 1.0000 -0.0011 0.0000
vn 1.0000 -0.0011 0.0000
vn 1.0000 -0.0012 -0.0000
vn 1.0000 -0.0012 -0.0000
vn 1.0000 -0.0011 0.0000
vn 1.0000 -0.0011 0.0000
vn 1.0000 -0.0012 -0.0000
vn 1.0000 -0.0012 -0.0000
vn 1.0000 -0.0012 -0.0000
vn 1.0000 -0.0012 -0.0000
vn 1.0000 -0.0012 -0.0000
vn 1.0000 -0.0011 0.0000
vn 1.0000 -0.0011 0.0000
vn 1.0000 -0.0011 0.0000
vn 1.0000 -0.0012 -0.0000
vn 1.0000 -0.0012 -0.0000
vn -0.9619 -0.2383 -0.1339
vn -0.9619 -0.2383 -0.1339
vn -0.9619 -0.2383 -0.1339
vn -0.9619 -0.2383 -0.1339
vn -0.9619 -0.2383 -0.1339
vn -0.9619 -0.2383 -0.1339
vn -0.9619 -0.2383 -0.1339
vn -0.9619 -0.2383 -0.1339
vn -0.9619 -0.2383 -0.1339
vn -0.9619 -0.2383 -0.1339
vn -0.9619 -0.2383 -0.1339
vn -0.9619 -0.2383 -0.1339
vn 0.9926 0.0074 -0.1216
vn 0.9926 0.0074 -0.1216
vn 0.9926 0.0074 -0.1216
vn 0.9926 0.0074 -0.1216
vn 0.9926 0.0074 -0.1216
vn 0.9926 0.0074 -0.1216
vn 0.9926 0.0074 -0.1216
vn 0.9926 0.0074 -0.1216
vn 0.9926 0.0074 -0.1216
vn 0.9926 0.0074 -0.1216
vn 0.9926 0.0074 -0.1216
vn 0.9926 0.0074 -0.1216
vn 0.9926 0.0074 -0.1216
vn 0.9926 0.0074 -0.1216
vn -0.9480 -0.2788 0.1536
vn -0.9480 -0.2788 0.1536
vn -0.9480 -0.2788 0.1536
vn -0.9480 -0.2788 0.1536
vn -0.9480 -0.2788 0.1536
vn -0.9480 -0.2788 0.1536
vn -0.9480 -0.2788 0.1536
vn -0.9480 -0.2788 0.1536
vn -0.9480 -0.2788 0.1536
vn -0.9480 -0.2788 0.1536
vn -0.9480 -0.2788 0.1536
vn -0.9480 -0.2788 0.1536
vn -0.9480 -0.2788 0.1536
vn -0.9480 -0.2788 0.1536
vn -0.9480 -0.2788 0.1536
vn -0.9480 -0.2788 0.1536
vn -0.9480 -0.2788 0.1536
vn 0.9905 0.0733 -0.1164
vn 0.9905 0.0733 -0.1164
vn 0.9905 0.0733 -0.1164
vn 0.9905 0.0733 -0.1164
vn 0.9905 0.0733 -0.1164
vn 0.9905 0.0733 -0.1164
vn 0.9905 0.0733 -0.1164
vn 0.9905 0.0733 -0.1164
vn 0.9905 0.0733 -0.1164
vn 0.9905 0.0733 -0.1164
vn 0.9905 0.0733 -0.1164
vn 0.9905 0.0733 -0.1164
vn -0.9747 -0.1975 -0.1045
vn -0.9747 -0.1975 -0.1045
vn -0.9747 -0.1975 -0.1045
vn -0.9747 -0.1975 -0.1045
vn -0.9747 -0.1975 -0.1045
vn -0.9747 -0.1975 -0.1045
vn -0.9747 -0.1975 -0.1045
vn -0.9747 -0.1975 -0.1045
vn -0.9747 -0.1975 -0.1045
vn -0.9747 -0.1975 -0.1045
vn -0.9747 -0.1975 -0.1045
vn -0.9747 -0.1975 -0.1045
vn -0.9747 -0.1975 -0.1045
vn -0.9747 -0.1975 -0.1045
vn -0.9747 -0.1975 -0.1045
vn -0.9747 -0.1975 -0.1045
vn -0.9747 -0.1975 -0.1045
vn 0.9813 -0.0556 -0.1840
vn 0.9813 -0.0556 -0.1840
vn 0.9813 -0.0556 -0.1840
vn 0.9813 -0.0556 -0.1840
vn 0.9813 -0.0556 -0.1840
vn 0.9813 -0.0556 -0.1840
vn 0.9813 -0.0556 -0.1840
vn 0.9813 -0.0556 -0.1840
vn 0.9813 -0.0556 -0.1840
vn 0.9813 -0.0556 -0.1840
vn 0.9813 -0.0556 -0.1840
vn 0.9813 -0.0556 -0.1840
vn 0.9813 -0.0556 -0.1840
vn 0.9813 -0.0556 -0.1840
vn 0.9813 -0.0556 -0.1840
vn 0.9813 -0.0556 -0.1840
vn 0.9813 -0.0556 -0.1840
vn 0.9813 -0.0556 -0.1840
vn -0.9861 -0.1652 0.0169
vn -0.9861 -0.1652 0.0169
vn -0.9861 -0.1652 0.0169
vn -0.9861 -0.1652 0.0169
vn -0.9861 -0.1652 0.0169
vn -0.9861 -0.1652 0.0169
vn -0.9861 -0.1652 0.0169
vn -0.9861 -0.1652 0.0169
vn -0.9861 -0.1652 0.0169
vn -0.9861 -0.1652 0.0169
vn -0.9861 -0.1652 0.0169
vn -0.9861 -0.1652 0.0169
vn -0.9861 -0.1652 0.0169
vn -0.9861 -0.1652 0.0169
vn -0.9861 -0.1652 0.0169
vn -0.9861 -0.1652 0.0169
vn -0.9861 -0.1652 0.0169
vn -0.9861 -0.1652 0.0169
vn -0.9861 -0.1652 0.0169
vn -0.9861 -0.1652 0.0169
vn -0.9861 -0.1652 0.0169
vn -0.9861 -0.1652 0.0169
vn 0.9901 -0.0992 0.0991
vn 0.9901 -0.0992 0.0991
vn 0.9901 -0.0992 0.0991
vn 0.9901 -0.0992 0.0991
vn 0.9901 -0.0992 0.0991
vn 0.9901 -0.0992 0.0991
vn 0.9901 -0.0992 0.0991
vn 0.9901 -0.0992 0.0991
vn 0.9901 -0.0992 0.0991
vn 0.9901 -0.0992 0.0991
vn 0.9901 -0.0992 0.0991
vn 0.9901 -0.0992 0.0991
vn 0.9901 -0.0992 0.0991
vn 0.9901 -0.0992 0.0991
vn 0.9901 -0.0992 0.0991
vn 0.9901 -0.0992 0.0991
vn 0.9901 -0.0992 0.0991
vn -0.9497 -0.0343 -0.3112
vn -0.9497 -0.0343 -0.3112
vn -0.9497 -0.0343 -0.3112
vn -0.9497 -0.0343 -0.3112
vn -0.9497 -0.0343 -0.3112
vn -0.9497 -0.0343 -0.3112
vn -0.9497 -0.0343 -0.3112
vn -0.9497 -0.0343 -0.3112
vn -0.9497 -0.0343 -0.3112
vn -0.9497 -0.0343 -0.3112
vn -0.9497 -0.0343 -0.3112
vn -0.9497 -0.0343 -0.3112
usemtl sherman_hull_m3
f 3/3/3 2/2/2 1/1/1
f 1/1/1 2/2/2 4/4/4
f 4/4/4 2/2/2 5/5/5
f 5/5/5 2/2/2 6/6/6
f 6/6/6 2/2/2 7/7/7
f 7/7/7 2/2/2 8/8/8
f 2/2/2 9/9/9 8/8/8
f 8/8/8 9/9/9 10/10/10
f 10/10/10 9/9/9 11/11/11
f 11/11/11 9/9/9 12/12/12
f 15/15/15 14/14/14 13/13/13
f 13/13/13 14/14/14 16/16/16
f 16/16/16 14/14/14 17/17/17
f 17/17/17 14/14/14 18/18/18
f 14/14/14 19/19/19 18/18/18
f 18/18/18 19/19/19 20/20/20
f 19/19/19 21/21/21 20/20/20
f 20/20/20 21/21/21 22/22/22
f 22/22/22 21/21/21 23/23/23
f 23/23/23 21/21/21 24/24/24
f 27/27/27 26/26/26 25/25/25
f 25/25/25 26/26/26 28/28/28
f 28/28/28 26/26/26 29/29/29
f 29/29/29 26/26/26 30/30/30
f 30/30/30 26/26/26 31/31/31
f 31/31/31 26/26/26 32/32/32
f 26/26/26 33/33/33 32/32/32
f 32/32/32 33/33/33 34/34/34
f 34/34/34 33/33/33 35/35/35
f 35/35/35 33/33/33 36/36/36
f 39/39/39 38/38/38 37/37/37
f 37/37/37 38/38/38 40/40/40
f 40/40/40 38/38/38 41/41/41
f 41/41/41 38/38/38 42/42/42
f 38/38/38 43/43/43 42/42/42
f 42/42/42 43/43/43 44/44/44
f 43/43/43 45/45/45 44/44/44
f 44/44/44 45/45/45 46/46/46
f 46/46/46 45/45/45 47/47/47
f 47/47/47 45/45/45 48/48/48
f 51/51/51 50/50/50 49/49/49
f 49/49/49 50/50/50 52/52/52
f 52/52/52 50/50/50 53/53/53
f 53/53/53 50/50/50 54/54/54
f 54/54/54 50/50/50 55/55/55
f 55/55/55 50/50/50 56/56/56
f 50/50/50 57/57/57 56/56/56
f 56/56/56 57/57/57 58/58/58
f 58/58/58 57/57/57 59/59/59
f 59/59/59 57/57/57 60/60/60
f 63/63/63 62/62/62 61/61/61
f 61/61/61 62/62/62 64/64/64
f 64/64/64 62/62/62 65/65/65
f 65/65/65 62/62/62 66/66/66
f 69/69/69 68/68/68 67/67/67
f 67/67/67 68/68/68 70/70/70
f 73/73/73 72/72/72 71/71/71
f 76/76/76 75/75/75 74/74/74
f 78/78/78 72/72/72 77/77/77
f 77/77/77 72/72/72 79/79/79
f 82/82/82 81/81/81 80/80/80
f 80/80/80 81/81/81 83/83/83
f 83/83/83 81/81/81 84/84/84
f 84/84/84 81/81/81 85/85/85
f 85/85/85 81/81/81 86/86/86
f 86/86/86 81/81/81 87/87/87
f 81/81/81 88/88/88 87/87/87
f 87/87/87 88/88/88 89/89/89
f 89/89/89 88/88/88 90/90/90
f 90/90/90 88/88/88 91/91/91
f 94/94/94 93/93/93 92/92/92
f 92/92/92 93/93/93 95/95/95
f 95/95/95 93/93/93 96/96/96
f 96/96/96 93/93/93 97/97/97
f 93/93/93 98/98/98 97/97/97
f 97/97/97 98/98/98 99/99/99
f 98/98/98 100/100/100 99/99/99
f 99/99/99 100/100/100 101/101/101
f 101/101/101 100/100/100 102/102/102
f 102/102/102 100/100/100 103/103/103
f 106/106/106 105/105/105 104/104/104
f 105/105/105 107/107/107 104/104/104
f 107/107/107 108/108/108 104/104/104
f 108/108/108 109/109/109 104/104/104
f 109/109/109 110/110/110 104/104/104
f 104/104/104 110/110/110 111/111/111
f 110/110/110 112/112/112 111/111/111
f 111/111/111 112/112/112 113/113/113
f 113/113/113 112/112/112 114/114/114
f 114/114/114 112/112/112 115/115/115
f 118/118/118 117/117/117 116/116/116
f 116/116/116 117/117/117 119/119/119
f 119/119/119 117/117/117 120/120/120
f 120/120/120 117/117/117 121/121/121
f 121/121/121 117/117/117 122/122/122
f 117/117/117 123/123/123 122/122/122
f 122/122/122 123/123/123 124/124/124
f 123/123/123 125/125/125 124/124/124
f 124/124/124 125/125/125 126/126/126
f 126/126/126 125/125/125 127/127/127
f 130/130/130 129/129/129 128/128/128
f 129/129/129 131/131/131 128/128/128
f 131/131/131 132/132/132 128/128/128
f 132/132/132 133/133/133 128/128/128
f 133/133/133 134/134/134 128/128/128
f 128/128/128 134/134/134 135/135/135
f 134/134/134 136/136/136 135/135/135
f 135/135/135 136/136/136 137/137/137
f 137/137/137 136/136/136 138/138/138
f 138/138/138 136/136/136 139/139/139
f 142/142/142 141/141/141 140/140/140
f 140/140/140 141/141/141 143/143/143
f 143/143/143 141/141/141 144/144/144
f 146/146/146 141/141/141 145/145/145
f 145/145/145 141/141/141 147/147/147
f 141/141/141 148/148/148 147/147/147
f 147/147/147 148/148/148 149/149/149
f 148/148/148 150/150/150 149/149/149
f 149/149/149 150/150/150 151/151/151
f 151/151/151 150/150/150 152/152/152
f 155/155/155 154/154/154 153/153/153
f 154/154/154 156/156/156 153/153/153
f 156/156/156 157/157/157 153/153/153
f 157/157/157 158/158/158 153/153/153
f 158/158/158 159/159/159 153/153/153
f 153/153/153 159/159/159 160/160/160
f 159/159/159 161/161/161 160/160/160
f 160/160/160 161/161/161 162/162/162
f 162/162/162 161/161/161 163/163/163
f 163/163/163 161/161/161 164/164/164
f 167/167/167 166/166/166 165/165/165
f 165/165/165 166/166/166 168/168/168
f 171/171/171 170/170/170 169/169/169
f 173/173/173 166/166/166 172/172/172
f 172/172/172 166/166/166 174/174/174
f 170/170/170 176/176/176 175/175/175
f 174/174/174 178/178/178 177/177/177
f 178/178/178 179/179/179 177/177/177
f 177/177/177 179/179/179 180/180/180
f 180/180/180 179/179/179 181/181/181
f 184/184/184 183/183/183 182/182/182
f 183/183/183 185/185/185 182/182/182
f 185/185/185 186/186/186 182/182/182
f 186/186/186 187/187/187 182/182/182
f 187/187/187 188/188/188 182/182/182
f 182/182/182 188/188/188 189/189/189
f 188/188/188 190/190/190 189/189/189
f 189/189/189 190/190/190 191/191/191
f 191/191/191 190/190/190 192/192/192
f 192/192/192 190/190/190 193/193/193
f 196/196/196 195/195/195 194/194/194
f 194/194/194 195/195/195 197/197/197
f 197/197/197 195/195/195 198/198/198
f 198/198/198 195/195/195 199/199/199
f 199/199/199 195/195/195 200/200/200
f 195/195/195 201/201/201 200/200/200
f 200/200/200 201/201/201 202/202/202
f 201/201/201 203/203/203 202/202/202
f 202/202/202 203/203/203 204/204/204
f 204/204/204 203/203/203 205/205/205
f 208/208/208 207/207/207 206/206/206
f 207/207/207 209/209/209 206/206/206
f 212/212/212 211/211/211 210/210/210
f 211/211/211 213/213/213 210/210/210
f 215/215/215 214/214/214 206/206/206
f 206/206/206 214/214/214 216/216/216
f 214/214/214 217/217/217 216/216/216
f 216/216/216 217/217/217 218/218/218
f 221/221/221 220/220/220 219/219/219
f 223/223/223 217/217/217 222/222/222
f 226/226/226 225/225/225 224/224/224
f 229/229/229 228/228/228 227/227/227
f 231/231/231 225/225/225 230/230/230
f 230/230/230 225/225/225 232/232/232
f 232/232/232 225/225/225 233/233/233
f 225/225/225 234/234/234 233/233/233
f 233/233/233 234/234/234 235/235/235
f 234/234/234 236/236/236 235/235/235
f 235/235/235 236/236/236 237/237/237
f 237/237/237 236/236/236 238/238/238
f 241/241/241 240/240/240 239/239/239
f 244/244/244 243/243/243 242/242/242
f 246/246/246 245/245/245 239/239/239
f 248/248/248 247/247/247 242/242/242
f 250/250/250 249/249/249 239/239/239
f 239/239/239 249/249/249 251/251/251
f 249/249/249 252/252/252 251/251/251
f 251/251/251 252/252/252 253/253/253
f 256/256/256 255/255/255 254/254/254
f 258/258/258 252/252/252 257/257/257
f 261/261/261 260/260/260 259/259/259
f 259/259/259 260/260/260 262/262/262
f 262/262/262 260/260/260 263/263/263
f 263/263/263 260/260/260 264/264/264
f 264/264/264 260/260/260 265/265/265
f 260/260/260 266/266/266 265/265/265
f 265/265/265 266/266/266 267/267/267
f 266/266/266 268/268/268 267/267/267
f 267/267/267 268/268/268 269/269/269
f 269/269/269 268/268/268 270/270/270
f 273/273/273 272/272/272 271/271/271
f 272/272/272 274/274/274 271/271/271
f 274/274/274 275/275/275 271/271/271
f 275/275/275 276/276/276 271/271/271
f 276/276/276 277/277/277 271/271/271
f 271/271/271 277/277/277 278/278/278
f 277/277/277 279/279/279 278/278/278
f 278/278/278 279/279/279 280/280/280
f 280/280/280 279/279/279 281/281/281
f 284/284/284 283/283/283 282/282/282
f 287/287/287 286/286/286 285/285/285
f 285/285/285 286/286/286 288/288/288
f 288/288/288 286/286/286 289/289/289
f 289/289/289 286/286/286 290/290/290
f 290/290/290 286/286/286 291/291/291
f 294/294/294 293/293/293 292/292/292
f 291/291/291 296/296/296 295/295/295
f 296/296/296 297/297/297 295/295/295
f 295/295/295 297/297/297 298/298/298
f 301/301/301 300/300/300 299/299/299
f 304/304/304 303/303/303 302/302/302
f 303/303/303 305/305/305 302/302/302
f 305/305/305 306/306/306 302/302/302
f 306/306/306 307/307/307 302/302/302
f 307/307/307 308/308/308 302/302/302
f 302/302/302 308/308/308 309/309/309
f 308/308/308 310/310/310 309/309/309
f 309/309/309 310/310/310 311/311/311
f 311/311/311 310/310/310 312/312/312
f 312/312/312 310/310/310 313/313/313
f 316/316/316 315/315/315 314/314/314
f 314/314/314 315/315/315 317/317/317
f 317/317/317 315/315/315 318/318/318
f 318/318/318 315/315/315 319/319/319
f 319/319/319 315/315/315 320/320/320
f 315/315/315 321/321/321 320/320/320
f 324/324/324 323/323/323 322/322/322
f 321/321/321 326/326/326 325/325/325
f 322/322/322 328/328/328 327/327/327
f 330/330/330 326/326/326 329/329/329
f 333/333/333 332/332/332 331/331/331
f 332/332/332 334/334/334 331/331/331
f 337/337/337 336/336/336 335/335/335
f 339/339/339 338/338/338 331/331/331
f 338/338/338 340/340/340 331/331/331
f 335/335/335 342/342/342 341/341/341
f 342/342/342 343/343/343 341/341/341
f 346/346/346 345/345/345 344/344/344
f 344/344/344 345/345/345 347/347/347
f 347/347/347 345/345/345 348/348/348
f 351/351/351 350/350/350 349/349/349
f 354/354/354 353/353/353 352/352/352
f 356/356/356 350/350/350 355/355/355
f 359/359/359 358/358/358 357/357/357
f 362/362/362 361/361/361 360/360/360
f 350/350/350 364/364/364 363/363/363
f 363/363/363 364/364/364 365/365/365
f 364/364/364 366/366/366 365/365/365
f 365/365/365 366/366/366 367/367/367
f 370/370/370 369/369/369 368/368/368
f 373/373/373 372/372/372 371/371/371
f 376/376/376 375/375/375 374/374/374
f 375/375/375 377/377/377 374/374/374
f 377/377/377 378/378/378 374/374/374
f 378/378/378 379/379/379 374/374/374
f 374/374/374 379/379/379 380/380/380
f 379/379/379 381/381/381 380/380/380
f 384/384/384 383/383/383 382/382/382
f 386/386/386 381/381/381 385/385/385
f 385/385/385 381/381/381 387/387/387
f 390/390/390 389/389/389 388/388/388
f 388/388/388 389/389/389 391/391/391
f 391/391/391 389/389/389 392/392/392
f 392/392/392 389/389/389 393/393/393
f 393/393/393 389/389/389 394/394/394
f 389/389/389 395/395/395 394/394/394
f 394/394/394 395/395/395 396/396/396
f 395/395/395 397/397/397 396/396/396
f 396/396/396 397/397/397 398/398/398
f 398/398/398 397/397/397 399/399/399
