mtllib sherman_turret_m1.mtl
o sherman_turret_m1
v 1.00691 0.41875 0.35742
v 0.94022 0.03558 0.58734
v 0.92090 0.41610 0.57508
v 1.02177 0.02482 0.36361
v 1.01144 0.41875 0.08828
v 1.03571 0.03547 0.32628
v 1.01324 0.41599 0.32231
v 1.02751 0.02481 0.08828
vt 0.51879 0.08259
vt 0.52203 0.12439
vt 0.52198 0.08292
vt 0.51879 0.12556
vt 0.51879 0.08259
vt 0.52203 0.12439
vt 0.52198 0.08292
vt 0.51879 0.12556
vn 0.9323 0.0525 0.3579
vn 0.9357 0.0470 0.3497
vn 0.9282 0.0590 0.3675
vn 0.9394 0.0408 0.3405
vn 0.9985 0.0524 -0.0174
vn 0.9986 0.0469 -0.0263
vn 0.9982 0.0589 -0.0070
vn 0.9985 0.0407 -0.0362
usemtl sherman_turret_m1
f 3/3/3 2/2/2 1/1/1
f 2/2/2 4/4/4 1/1/1
f 7/7/7 6/6/6 5/5/5
f 6/6/6 8/8/8 5/5/5
