mtllib sherman_turret_m4.mtl
o sherman_turret_m4
v -0.71946 0.59774 0.78670
v -0.89142 0.58585 0.54993
v -0.71332 0.58564 0.78086
v -0.89903 0.59795 0.55354
v -0.89142 0.58585 0.54993
v -0.72658 0.59720 0.79345
v -0.89903 0.59795 0.55354
v -0.90786 0.59741 0.55772
v -0.89903 0.59795 0.55354
v -0.98859 0.58596 0.29651
v -0.73324 0.58566 0.79977
v -0.73324 0.58566 0.79977
v -0.91612 0.58587 0.56162
v -0.90786 0.59741 0.55772
v -0.99707 0.59806 0.29755
v -0.89903 0.59795 0.55354
v -0.99707 0.59806 0.29755
v -0.98859 0.58596 0.29651
v -0.90789 0.57431 0.55772
v -0.91612 0.58587 0.56162
v -0.72660 0.57411 0.79345
v -0.91612 0.58587 0.56162
v -1.00691 0.59753 0.29876
v -1.00693 0.57443 0.29876
v -1.01611 0.58599 0.29989
v -0.72660 0.57411 0.79345
v -0.89906 0.57376 0.55354
v -0.99710 0.57387 0.29755
v -1.00693 0.57443 0.29876
v -0.99710 0.57387 0.29755
v -0.97505 0.59803 -0.06558
v -0.71949 0.57355 0.78670
v -0.99707 0.59806 0.29755
v -1.00691 0.59753 0.29876
v -0.98463 0.59750 -0.06749
v -0.98463 0.59750 -0.06749
v -1.01611 0.58599 0.29989
v -0.99359 0.58596 -0.06928
v -0.99359 0.58596 -0.06928
v -0.98465 0.57440 -0.06749
v -0.98465 0.57440 -0.06749
v -0.96679 0.58593 -0.06392
v -0.98859 0.58596 0.29651
v -0.97508 0.57385 -0.06558
v -0.98465 0.57440 -0.06749
v -0.99710 0.57387 0.29755
v -0.85789 0.59736 -0.38033
v -0.86588 0.58582 -0.38485
v -0.86588 0.58582 -0.38485
v -0.85789 0.59736 -0.38033
v -0.96679 0.58593 -0.06392
v -0.84935 0.59789 -0.37549
v -0.84935 0.59789 -0.37549
v -0.85791 0.57426 -0.38033
v -0.85791 0.57426 -0.38033
v -0.96679 0.58593 -0.06392
v -0.84937 0.57370 -0.37549
v -0.85791 0.57426 -0.38033
v -0.96679 0.58593 -0.06392
v -0.84937 0.57370 -0.37549
v -0.84198 0.58579 -0.37132
v -0.89142 0.58585 0.54993
v -0.89906 0.57376 0.55354
v -0.89142 0.58585 0.54993
v -0.98859 0.58596 0.29651
v -0.65386 0.59766 -0.63066
v -0.66052 0.59713 -0.63794
v -0.66052 0.59713 -0.63794
v -0.65386 0.59766 -0.63066
v -0.64811 0.58556 -0.62437
v -0.84935 0.59789 -0.37549
v -0.65386 0.59766 -0.63066
v -0.85791 0.57426 -0.38033
v -0.66055 0.57403 -0.63794
v -0.65388 0.57348 -0.63066
v -0.65388 0.57348 -0.63066
v -0.66055 0.57403 -0.63794
v -0.66677 0.58559 -0.64474
v -0.42981 0.58531 -0.81249
v -0.96679 0.58593 -0.06392
v -0.84198 0.58579 -0.37132
v -0.66052 0.59713 -0.63794
v -0.43337 0.59741 -0.82027
v -0.65386 0.59766 -0.63066
v -0.43337 0.59741 -0.82027
v -0.42981 0.58531 -0.81249
v -0.66677 0.58559 -0.64474
v -0.43751 0.59687 -0.82928
v -0.84937 0.57370 -0.37549
v -0.64811 0.58556 -0.62437
v -0.64811 0.58556 -0.62437
v -0.71949 0.57355 0.78670
v -0.71332 0.58564 0.78086
v -0.89142 0.58585 0.54993
v -0.66677 0.58559 -0.64474
v -0.43754 0.57377 -0.82928
v -0.43340 0.57322 -0.82027
v -0.43340 0.57322 -0.82027
v -0.44140 0.58533 -0.83770
v -0.44140 0.58533 -0.83770
v -0.65388 0.57348 -0.63066
v -0.42981 0.58531 -0.81249
v -0.43340 0.57322 -0.82027
v -0.64811 0.58556 -0.62437
v 0.73536 0.59607 0.78670
v 0.72919 0.58398 0.78086
v 0.90732 0.58377 0.54993
v 0.91496 0.59586 0.55354
v 1.00040 0.58367 0.29651
v 0.91496 0.59586 0.55354
v 1.00891 0.59575 0.29755
v 0.74247 0.59551 0.79345
v 0.73536 0.59607 0.78670
v 0.98844 0.59577 -0.07281
v 1.00891 0.59575 0.29755
v 1.00040 0.58367 0.29651
v 0.98015 0.58369 -0.07116
v 0.92379 0.59530 0.55772
v 0.74247 0.59551 0.79345
v 0.98844 0.59577 -0.07281
v 0.98015 0.58369 -0.07116
v 0.88133 0.58380 -0.36543
v 0.99802 0.59522 -0.07473
v 0.98844 0.59577 -0.07281
v 1.00891 0.59575 0.29755
v 1.01874 0.59520 0.29876
v 0.99802 0.59522 -0.07473
v 1.01874 0.59520 0.29876
v 0.88133 0.58380 -0.36543
v 0.88872 0.59589 -0.36960
v 0.67017 0.59614 -0.61217
v 0.88872 0.59589 -0.36960
v 0.88133 0.58380 -0.36543
v 0.74911 0.58396 0.79977
v 0.66439 0.58405 -0.60588
v 0.93202 0.58375 0.56162
v 0.92379 0.59530 0.55772
v 1.01874 0.59520 0.29876
v 1.00695 0.58366 -0.07652
v 0.66439 0.58405 -0.60588
v 0.54138 0.58420 -0.81249
v 0.88872 0.59589 -0.36960
v 0.89726 0.59534 -0.37444
v 1.00695 0.58366 -0.07652
v 0.93202 0.58375 0.56162
v 1.02792 0.58364 0.29989
v 0.67683 0.59559 -0.61944
v 0.88872 0.59589 -0.36960
v 0.89726 0.59534 -0.37444
v 0.88872 0.59589 -0.36960
v 0.67017 0.59614 -0.61217
v 0.54497 0.59628 -0.82027
v 0.67683 0.59559 -0.61944
v 0.92376 0.57221 0.55772
v 0.74911 0.58396 0.79977
v 1.01872 0.57210 0.29876
v 1.02792 0.58364 0.29989
v 0.92376 0.57221 0.55772
v 0.90523 0.58378 -0.37895
v 1.01872 0.57210 0.29876
v 1.00695 0.58366 -0.07652
v 0.99799 0.57212 -0.07473
v 0.92376 0.57221 0.55772
v 0.74244 0.57241 0.79345
v 0.68305 0.58403 -0.62625
v 0.89726 0.59534 -0.37444
v 0.67683 0.59559 -0.61944
v 0.90523 0.58378 -0.37895
v 0.89724 0.57224 -0.37444
v 0.99799 0.57212 -0.07473
v 0.89724 0.57224 -0.37444
v 1.00888 0.57156 0.29755
v 1.00888 0.57156 0.29755
v 1.01872 0.57210 0.29876
v 0.91493 0.57167 0.55354
v 0.74244 0.57241 0.79345
v 1.00888 0.57156 0.29755
v 0.91493 0.57167 0.55354
v 0.92376 0.57221 0.55772
v 0.88870 0.57170 -0.36960
v 0.67681 0.57249 -0.61944
v 0.88870 0.57170 -0.36960
v 0.67681 0.57249 -0.61944
v 0.99799 0.57212 -0.07473
v 0.98841 0.57159 -0.07281
v 0.88870 0.57170 -0.36960
v 0.98841 0.57159 -0.07281
v 0.54911 0.59574 -0.82928
v 0.73533 0.57188 0.78670
v 1.00040 0.58367 0.29651
v 1.00888 0.57156 0.29755
v 0.90732 0.58377 0.54993
v 0.73533 0.57188 0.78670
v 1.00040 0.58367 0.29651
v 0.88133 0.58380 -0.36543
v 0.98841 0.57159 -0.07281
v 0.88870 0.57170 -0.36960
v 0.67014 0.57195 -0.61217
v 0.88133 0.58380 -0.36543
v 0.54909 0.57264 -0.82928
v 0.98015 0.58369 -0.07116
v 0.98015 0.58369 -0.07116
v 0.72919 0.58398 0.78086
v 0.54494 0.57210 -0.82027
v 0.67014 0.57195 -0.61217
v 0.67681 0.57249 -0.61944
v 0.54494 0.57210 -0.82027
v 0.67681 0.57249 -0.61944
v 0.54909 0.57264 -0.82928
v 0.54909 0.57264 -0.82928
v 0.55297 0.58418 -0.83770
v 0.66439 0.58405 -0.60588
v 0.54138 0.58420 -0.81249
v 0.54494 0.57210 -0.82027
v -1.00069 0.60104 0.20871
v -0.97702 0.59671 0.19159
v -0.97258 0.59685 0.20770
v -1.00513 0.60089 0.19260
v -1.11912 0.57869 0.23643
v -1.12357 0.57855 0.22031
v -1.16757 0.55083 0.23388
v -1.16312 0.55097 0.25000
v -1.18841 0.49128 0.24396
v -1.18397 0.49143 0.26008
v -1.17814 0.42266 0.24669
v -1.17369 0.42280 0.26281
v -1.14067 0.37117 0.24104
v -1.13623 0.37131 0.25716
v -1.13623 0.37131 0.25716
v -1.09033 0.35648 0.22916
v -1.14067 0.37117 0.24104
v -1.13623 0.37131 0.25716
v -1.08588 0.35662 0.24527
v -1.09033 0.35648 0.22916
v -1.04188 0.38435 0.23170
v -1.04633 0.38420 0.21559
v -1.02104 0.44389 0.22163
v -1.02548 0.44375 0.20551
v -0.92783 0.59899 0.53778
v -0.90721 0.59903 0.51857
v -0.90245 0.59942 0.53605
v -0.93259 0.59861 0.52031
v -1.03338 0.59042 0.56383
v -0.93259 0.59861 0.52031
v -0.92783 0.59899 0.53778
v -1.03814 0.59003 0.54636
v -1.03338 0.59042 0.56383
v -1.08706 0.56162 0.56084
v -1.03814 0.59003 0.54636
v -1.08230 0.56200 0.57831
v -1.08230 0.56200 0.57831
v -1.11123 0.50160 0.57045
v -1.08706 0.56162 0.56084
v -1.10647 0.50198 0.58792
v -1.09815 0.43316 0.58352
v -1.10291 0.43278 0.56605
v -1.05862 0.38198 0.57372
v -1.09815 0.43316 0.58352
v -1.06338 0.38160 0.55625
v -1.00793 0.36759 0.54412
v -1.00317 0.36797 0.56159
v -1.00317 0.36797 0.56159
v -0.95746 0.39613 0.53532
v -0.95270 0.39651 0.55279
v -0.92853 0.45653 0.54318
v -0.93329 0.45615 0.52571
v -1.07227 0.36620 0.12666
v -1.04064 0.43442 0.12999
v -1.04800 0.43482 0.11558
v -1.06577 0.36341 0.14139
v -1.12384 0.33414 0.13962
v -1.06577 0.36341 0.14139
v -1.07227 0.36620 0.12666
v -1.11912 0.33023 0.15486
v -1.04353 0.38424 0.21357
v -1.18004 0.35128 0.16051
v -1.17733 0.34796 0.17628
v -1.08772 0.35654 0.22646
v -1.04353 0.38424 0.21357
v -1.20936 0.41105 0.18409
v -1.17733 0.34796 0.17628
v -1.18004 0.35128 0.16051
v -1.21059 0.41230 0.16800
v -1.13776 0.37119 0.23941
v -1.17733 0.34796 0.17628
v -1.13776 0.37119 0.23941
v -1.13776 0.37119 0.23941
v -1.02206 0.44371 0.20565
v -1.22263 0.49269 0.17690
v -1.20936 0.41105 0.18409
v -1.21059 0.41230 0.16800
v -1.17454 0.42259 0.24746
v -1.13776 0.37119 0.23941
v -1.18400 0.49111 0.24755
v -1.18400 0.49111 0.24755
v -1.22349 0.49119 0.16081
v -1.08499 0.35691 0.23659
v -1.13503 0.37156 0.24954
v -1.13776 0.37119 0.23941
v -1.08499 0.35691 0.23659
v -1.04080 0.38460 0.22370
v -1.02206 0.44371 0.20565
v -1.08499 0.35691 0.23659
v -1.04080 0.38460 0.22370
v -1.17181 0.42296 0.25759
v -1.01933 0.44407 0.21579
v -0.99459 0.38184 0.37713
v -0.96936 0.44736 0.36798
v -0.99459 0.38184 0.37713
v -1.04581 0.35106 0.39202
v -0.99459 0.38184 0.37713
v -1.18127 0.49148 0.25768
v -1.17181 0.42296 0.25759
v -1.10345 0.36677 0.40697
v -1.10345 0.36677 0.40697
v -1.14549 0.42297 0.41627
v -1.15588 0.49820 0.41637
v -1.15588 0.49820 0.41637
v -0.95371 0.39605 0.53663
v -0.99459 0.38184 0.37713
v -1.00394 0.36748 0.54627
v -1.04581 0.35106 0.39202
v -0.95371 0.39605 0.53663
v -1.05917 0.38145 0.55916
v -1.04581 0.35106 0.39202
v -1.05917 0.38145 0.55916
v -0.92928 0.45604 0.52790
v -1.09852 0.43261 0.56958
v -1.00015 0.36798 0.56035
v -0.94991 0.39655 0.55072
v -1.00015 0.36798 0.56035
v -0.95371 0.39605 0.53663
v -1.16254 0.55058 0.23964
v -1.05537 0.38196 0.57325
v -1.05537 0.38196 0.57325
v -1.15588 0.49820 0.41637
v -1.10681 0.50143 0.57407
v -1.15981 0.55094 0.24977
v -1.15981 0.55094 0.24977
v -1.09473 0.43312 0.58366
v -1.09473 0.43312 0.58366
v -1.10681 0.50143 0.57407
v -0.94991 0.39655 0.55072
v -0.92549 0.45654 0.54199
v -0.92823 0.38565 0.65190
v -1.13065 0.56372 0.40723
v -1.18127 0.49148 0.25768
v -1.15981 0.55094 0.24977
v -0.98477 0.35295 0.66760
v -0.90013 0.45466 0.64186
v -1.04899 0.36894 0.67984
v -1.09473 0.43312 0.58366
v -1.21026 0.55827 0.15484
v -1.10302 0.50193 0.58815
v -1.08239 0.56142 0.56534
v -1.10681 0.50143 0.57407
v -1.08239 0.56142 0.56534
v -1.09473 0.43312 0.58366
v -1.08222 0.42945 0.68589
v -1.08222 0.42945 0.68589
v -1.10302 0.50193 0.58815
v -0.92847 0.39061 0.66484
v -0.98216 0.35948 0.68041
v -0.98216 0.35948 0.68041
v -0.92847 0.39061 0.66484
v -1.04333 0.37471 0.69207
v -0.98477 0.35295 0.66760
v -0.90171 0.45633 0.65528
v -1.07860 0.56192 0.57943
v -1.10302 0.50193 0.58815
v -1.09403 0.50830 0.69213
v -1.04333 0.37471 0.69207
v -1.07445 0.43242 0.69742
v -1.07626 0.57588 0.68492
v -1.10302 0.50193 0.58815
v -1.07860 0.56192 0.57943
v -1.08591 0.50749 0.70303
v -1.06947 0.57180 0.69629
v -1.08591 0.50749 0.70303
v -1.06947 0.57180 0.69629
v -1.09403 0.50830 0.69213
v -1.07626 0.57588 0.68492
v -1.01578 0.60292 0.68072
v -1.16254 0.55058 0.23964
v -1.20854 0.56216 0.17061
v -1.21026 0.55827 0.15484
v -1.01989 0.60855 0.66857
v -1.02960 0.59033 0.56521
v -1.07860 0.56192 0.57943
v -1.01989 0.60855 0.66857
v -1.02960 0.59033 0.56521
v -1.03339 0.58982 0.55113
v -1.02960 0.59033 0.56521
v -1.07943 0.59450 0.39233
v -0.95678 0.59242 0.65216
v -0.95678 0.59242 0.65216
v -1.02960 0.59033 0.56521
v -0.97474 0.57630 0.55095
v -1.02960 0.59033 0.56521
v -1.03339 0.58982 0.55113
v -1.02179 0.57879 0.37738
v -0.95567 0.58755 0.66509
v -0.97853 0.57580 0.53686
v -0.97853 0.57580 0.53686
v -1.15981 0.55094 0.24977
v -1.11562 0.57864 0.23688
v -0.91104 0.53364 0.64196
v -0.95567 0.58755 0.66509
v -0.93497 0.52520 0.54208
v -0.97853 0.57580 0.53686
v -0.97975 0.52259 0.36808
v -1.06557 0.56399 0.22393
v -1.06557 0.56399 0.22393
v -0.97853 0.57580 0.53686
v -0.93876 0.52470 0.52799
v -1.11834 0.57828 0.22674
v -0.91210 0.53156 0.65537
v -1.15572 0.59527 0.15520
v -1.11834 0.57828 0.22674
v -1.02880 0.51259 0.21587
v -1.11834 0.57828 0.22674
v -1.06830 0.56363 0.21380
v -1.09591 0.57776 0.13972
v -1.03153 0.51223 0.20574
v -1.05195 0.51632 0.13009
v -1.05195 0.51632 0.13009
v -1.09591 0.57776 0.13972
v -1.15921 0.59027 0.13995
v -1.10141 0.57335 0.12499
v -1.10141 0.57335 0.12499
v -1.05893 0.51397 0.11569
v 0.81989 0.59349 0.70595
v 0.79751 0.59802 0.70623
v 0.80499 0.59816 0.69128
v 0.81241 0.59335 0.72090
v 0.88497 0.57639 0.74761
v 0.81241 0.59335 0.72090
v 0.81989 0.59349 0.70595
v 0.87749 0.57625 0.76256
v 0.92605 0.54857 0.76820
v 0.92605 0.54857 0.76820
v 0.91857 0.54843 0.78315
v 0.94068 0.48883 0.78957
v 0.91857 0.54843 0.78315
v 0.92605 0.54857 0.76820
v 0.94816 0.48897 0.77462
v 0.94068 0.48883 0.78957
v 0.94816 0.48897 0.77462
v 0.93474 0.42023 0.78061
v 0.94816 0.48897 0.77462
v 0.94222 0.42037 0.76566
v 0.90301 0.36882 0.75970
v 0.91049 0.36896 0.74475
v 0.91049 0.36896 0.74475
v 0.85762 0.35424 0.73483
v 0.86510 0.35438 0.71988
v 0.85762 0.35424 0.73483
v 0.82338 0.38220 0.70055
v 0.85762 0.35424 0.73483
v 0.86510 0.35438 0.71988
v 0.81589 0.38206 0.71550
v 0.80126 0.44179 0.69414
v 0.79378 0.44165 0.70909
v 0.96435 0.59681 0.40738
v 0.93618 0.59691 0.40786
v 0.94433 0.59729 0.39169
v 0.95620 0.59643 0.42355
v 0.93618 0.59691 0.40786
v 1.06020 0.58801 0.45864
v 1.05205 0.58763 0.47481
v 1.06020 0.58801 0.45864
v 1.09804 0.55910 0.49676
v 1.05205 0.58763 0.47481
v 1.10619 0.55948 0.48059
v 1.12231 0.49902 0.50575
v 1.13046 0.49940 0.48958
v 1.12231 0.49902 0.50575
v 1.12120 0.43060 0.48723
v 1.13046 0.49940 0.48958
v 1.11304 0.43022 0.50340
v 1.08516 0.37951 0.46802
v 1.07701 0.37913 0.48420
v 1.08516 0.37951 0.46802
v 1.02766 0.36525 0.45609
v 1.07701 0.37913 0.48420
v 1.03581 0.36562 0.43992
v 0.98432 0.39390 0.42888
v 0.99247 0.39427 0.41271
v 0.96820 0.45435 0.40372
v 0.96820 0.45435 0.40372
v 0.96005 0.45397 0.41989
v 0.77563 0.36408 0.79893
v 0.75449 0.43235 0.77534
v 0.75032 0.43275 0.79097
v 0.77563 0.36408 0.79893
v 0.78065 0.36128 0.78364
v 0.82256 0.33190 0.82378
v 0.77563 0.36408 0.79893
v 0.82924 0.32799 0.80929
v 0.78065 0.36128 0.78364
v 0.81246 0.38210 0.71513
v 0.87834 0.34891 0.84587
v 0.87834 0.34891 0.84587
v 0.88687 0.34558 0.83234
v 0.85387 0.35431 0.73509
v 0.91603 0.40860 0.84801
v 0.87834 0.34891 0.84587
v 0.90618 0.40986 0.86079
v 0.89975 0.36885 0.75897
v 0.89975 0.36885 0.75897
v 0.81246 0.38210 0.71513
v 0.79133 0.44162 0.70669
v 0.92124 0.49022 0.86231
v 0.90618 0.40986 0.86079
v 0.91603 0.40860 0.84801
v 0.93258 0.42017 0.77763
v 0.93981 0.48867 0.78395
v 0.93258 0.42017 0.77763
v 0.93981 0.48867 0.78395
v 0.91603 0.40860 0.84801
v 0.91111 0.48873 0.87483
v 0.85863 0.35467 0.72574
v 0.90451 0.36921 0.74961
v 0.89975 0.36885 0.75897
v 0.81721 0.38246 0.70577
v 0.85863 0.35467 0.72574
v 0.93733 0.42053 0.76828
v 0.89975 0.36885 0.75897
v 0.93733 0.42053 0.76828
v 0.90451 0.36921 0.74961
v 0.79609 0.44198 0.69734
v 0.79133 0.44162 0.70669
v 0.90604 0.37965 0.57128
v 0.88130 0.44523 0.56124
v 0.94456 0.48903 0.77460
v 0.93733 0.42053 0.76828
v 0.95400 0.34876 0.59446
v 0.85863 0.35467 0.72574
v 0.90604 0.37965 0.57128
v 1.00687 0.36434 0.62192
v 1.04445 0.42045 0.64319
v 0.94456 0.48903 0.77460
v 0.98241 0.39382 0.42539
v 1.02613 0.36514 0.45182
v 1.07583 0.37899 0.47921
v 1.00687 0.36434 0.62192
v 1.04445 0.42045 0.64319
v 1.07583 0.37899 0.47921
v 0.95854 0.45386 0.41558
v 0.94456 0.48903 0.77460
v 1.05238 0.49566 0.65012
v 1.11214 0.43006 0.49783
v 1.03273 0.36564 0.43882
v 0.98901 0.39432 0.41239
v 1.03273 0.36564 0.43882
v 1.08243 0.37950 0.46620
v 1.11214 0.43006 0.49783
v 1.08243 0.37950 0.46620
v 0.91868 0.54818 0.77551
v 1.12145 0.49886 0.50010
v 0.92343 0.54854 0.76616
v 0.93981 0.48867 0.78395
v 1.11875 0.43057 0.48483
v 0.96514 0.45436 0.40258
v 1.04058 0.38338 0.32268
v 1.09304 0.35056 0.34882
v 1.01312 0.45245 0.31140
v 0.96514 0.45436 0.40258
v 1.04058 0.38338 0.32268
v 1.02765 0.56123 0.64009
v 0.94456 0.48903 0.77460
v 0.92343 0.54854 0.76616
v 1.14899 0.36641 0.38271
v 0.89742 0.55585 0.87047
v 0.92124 0.49022 0.86231
v 1.12806 0.49936 0.48710
v 1.14899 0.36641 0.38271
v 1.11875 0.43057 0.48483
v 1.17785 0.42685 0.40049
v 1.17785 0.42685 0.40049
v 1.12806 0.49936 0.48710
v 1.09758 0.55891 0.49029
v 1.04943 0.38833 0.31323
v 1.09968 0.35708 0.33755
v 1.09968 0.35708 0.33755
v 1.04058 0.38338 0.32268
v 1.15298 0.37218 0.36984
v 1.15298 0.37218 0.36984
v 1.14899 0.36641 0.38271
v 1.17785 0.42685 0.40049
v 1.15298 0.37218 0.36984
v 1.02328 0.45412 0.30248
v 1.10419 0.55941 0.47729
v 1.19097 0.50567 0.40382
v 1.17979 0.42983 0.38673
v 1.17979 0.42983 0.38673
v 1.17306 0.57329 0.39734
v 1.12806 0.49936 0.48710
v 1.17306 0.57329 0.39734
v 1.19222 0.50487 0.39028
v 1.17562 0.56921 0.38434
v 1.19097 0.50567 0.40382
v 1.12537 0.60045 0.36001
v 1.17562 0.56921 0.38434
v 0.92124 0.49022 0.86231
v 0.90670 0.55973 0.85761
v 0.89742 0.55585 0.87047
v 0.90670 0.55973 0.85761
v 1.12030 0.60609 0.37179
v 1.10419 0.55941 0.47729
v 1.12537 0.60045 0.36001
v 1.05832 0.58792 0.45509
v 1.09758 0.55891 0.49029
v 1.05172 0.58742 0.46809
v 1.05832 0.58792 0.45509
v 1.05172 0.58742 0.46809
v 0.97968 0.59213 0.61691
v 1.12537 0.60045 0.36001
v 1.12030 0.60609 0.37179
v 1.06239 0.59009 0.34175
v 1.06239 0.59009 0.34175
v 1.00798 0.57402 0.42897
v 0.92681 0.57654 0.58944
v 1.00137 0.57352 0.44197
v 0.92681 0.57654 0.58944
v 1.00137 0.57352 0.44197
v 1.07021 0.58522 0.33139
v 0.97968 0.59213 0.61691
v 0.88202 0.57634 0.74619
v 0.92681 0.57654 0.58944
v 0.88202 0.57634 0.74619
v 0.88202 0.57634 0.74619
v 1.02145 0.53141 0.31868
v 1.07021 0.58522 0.33139
v 1.06239 0.59009 0.34175
v 1.02145 0.53141 0.31868
v 0.97239 0.52300 0.40891
v 0.97239 0.52300 0.40891
v 1.00137 0.57352 0.44197
v 0.88923 0.52043 0.56818
v 0.83614 0.56180 0.72232
v 0.88923 0.52043 0.56818
v 0.83614 0.56180 0.72232
v 0.96578 0.52250 0.42192
v 0.87727 0.57598 0.75555
v 0.83614 0.56180 0.72232
v 0.87727 0.57598 0.75555
v 1.03121 0.52932 0.30942
v 0.85720 0.59295 0.83374
v 0.80332 0.51048 0.70366
v 0.83139 0.56144 0.73167
v 0.80237 0.57557 0.80520
v 0.87727 0.57598 0.75555
v 0.80237 0.57557 0.80520
v 0.83139 0.56144 0.73167
v 0.79856 0.51012 0.71301
v 0.76313 0.51423 0.78290
v 0.84958 0.58796 0.84740
v 0.84958 0.58796 0.84740
v 0.84958 0.58796 0.84740
v 0.79659 0.57116 0.81983
v 0.80237 0.57557 0.80520
v 0.79659 0.57116 0.81983
v 0.79659 0.57116 0.81983
v 0.75867 0.51188 0.79827
v 1.02155 0.59564 0.17629
v 0.99864 0.59717 0.18786
v 0.99764 0.59732 0.17117
v 1.02255 0.59549 0.19298
v 1.10329 0.57614 0.17659
v 1.10429 0.57598 0.19328
v 1.10329 0.57614 0.17659
v 1.15008 0.54816 0.18914
v 1.10429 0.57598 0.19328
v 1.14909 0.54831 0.17245
v 1.15008 0.54816 0.18914
v 1.17243 0.48856 0.18361
v 1.14909 0.54831 0.17245
v 1.17143 0.48871 0.16692
v 1.16279 0.41996 0.17878
v 1.16180 0.42011 0.16209
v 1.12485 0.36856 0.17651
v 1.12386 0.36871 0.15982
v 1.07310 0.35399 0.17766
v 1.07211 0.35414 0.16097
v 1.02631 0.38197 0.16511
v 1.07310 0.35399 0.17766
v 1.07211 0.35414 0.16097
v 1.02631 0.38197 0.16511
v 1.02731 0.38181 0.18179
v 1.00396 0.44156 0.17064
v 1.02731 0.38181 0.18179
v 1.00396 0.44156 0.17064
v 1.00496 0.44141 0.18733
v 0.97887 0.59679 -0.15795
v 0.95472 0.59689 -0.14345
v 0.95369 0.59728 -0.16153
v 0.97990 0.59641 -0.13987
v 1.08751 0.58797 -0.16149
v 0.97990 0.59641 -0.13987
v 0.97887 0.59679 -0.15795
v 1.08751 0.58797 -0.16149
v 1.08854 0.58759 -0.14341
v 1.13934 0.55905 -0.14741
v 1.13831 0.55944 -0.16548
v 1.13934 0.55905 -0.14741
v 1.16484 0.49897 -0.15179
v 1.16382 0.49936 -0.16987
v 1.16484 0.49897 -0.15179
v 1.15460 0.43056 -0.16732
v 1.15460 0.43056 -0.16732
v 1.15563 0.43017 -0.14924
v 1.11379 0.37948 -0.16596
v 1.15563 0.43017 -0.14924
v 1.15460 0.43056 -0.16732
v 1.11481 0.37909 -0.14788
v 1.15563 0.43017 -0.14924
v 1.05802 0.36521 -0.14755
v 1.05699 0.36560 -0.16563
v 1.05699 0.36560 -0.16563
v 1.00689 0.39387 -0.14943
v 1.05802 0.36521 -0.14755
v 1.00586 0.39426 -0.16751
v 1.00689 0.39387 -0.14943
v 0.98036 0.45434 -0.16312
v 1.00586 0.39426 -0.16751
v 0.98138 0.45395 -0.14504
v 1.03415 0.36378 0.27416
v 1.00406 0.43206 0.26435
v 1.00826 0.43246 0.27997
v 1.03085 0.36100 0.25841
v 1.08721 0.33159 0.27221
v 1.08576 0.32769 0.25632
v 1.02415 0.38186 0.18319
v 1.00406 0.43206 0.26435
v 1.14657 0.34860 0.26346
v 1.14657 0.34860 0.26346
v 1.14719 0.34528 0.24747
v 1.06999 0.35406 0.17976
v 1.18029 0.40830 0.24650
v 1.14657 0.34860 0.26346
v 1.18029 0.40830 0.24650
v 1.17815 0.40955 0.26249
v 1.12167 0.36859 0.17750
v 1.00164 0.44138 0.18648
v 1.19196 0.48991 0.25632
v 1.15943 0.41991 0.17728
v 1.16886 0.48840 0.17918
v 1.18945 0.48841 0.27224
v 1.06943 0.35442 0.16928
v 1.12110 0.36896 0.16702
v 1.02359 0.38223 0.17271
v 1.00164 0.44138 0.18648
v 1.02415 0.38186 0.18319
v 1.15887 0.42027 0.16680
v 1.12167 0.36859 0.17750
v 1.15887 0.42027 0.16680
v 1.12110 0.36896 0.16702
v 1.02359 0.38223 0.17271
v 1.00108 0.44174 0.17600
v 1.01029 0.37953 0.01303
v 0.98385 0.44511 0.01674
v 1.00108 0.44174 0.17600
v 1.06341 0.34863 0.00910
v 1.16830 0.48877 0.16870
v 1.12293 0.36421 0.00646
v 1.15887 0.42027 0.16680
v 1.12293 0.36421 0.00646
v 1.15887 0.42027 0.16680
v 1.16611 0.42031 0.00612
v 1.17647 0.49551 0.00820
v 1.16611 0.42031 0.00612
v 1.17647 0.49551 0.00820
v 1.00349 0.39379 -0.15149
v 1.05456 0.36511 -0.15048
v 1.01029 0.37953 0.01303
v 1.11129 0.37895 -0.15161
v 1.11129 0.37895 -0.15161
v 0.97792 0.45384 -0.14802
v 1.15207 0.43002 -0.15360
v 1.15207 0.43002 -0.15360
v 1.05378 0.36562 -0.16504
v 1.00271 0.39430 -0.16606
v 0.97792 0.45384 -0.14802
v 1.05378 0.36562 -0.16504
v 1.14636 0.54792 0.18247
v 1.11051 0.37946 -0.16617
v 1.05378 0.36562 -0.16504
v 1.16127 0.49881 -0.15625
v 1.14580 0.54829 0.17199
v 1.16886 0.48840 0.17918
v 1.14580 0.54829 0.17199
v 1.16886 0.48840 0.17918
v 1.11051 0.37946 -0.16617
v 1.15129 0.43053 -0.16817
v 0.97714 0.45435 -0.16258
v 1.00251 0.38343 -0.26954
v 1.15004 0.56109 0.01192
v 1.06100 0.35060 -0.27315
v 1.00251 0.38343 -0.26954
v 1.06100 0.35060 -0.27315
v 0.97309 0.45250 -0.26554
v 0.97714 0.45435 -0.16258
v 1.12640 0.36643 -0.27177
v 1.17542 0.55553 0.27534
v 1.16049 0.49933 -0.17082
v 1.13570 0.55886 -0.15278
v 1.16030 0.42687 -0.27076
v 1.16049 0.49933 -0.17082
v 1.00544 0.38838 -0.28215
v 0.97309 0.45250 -0.26554
v 1.00251 0.38343 -0.26954
v 1.06113 0.35713 -0.28622
v 1.00544 0.38838 -0.28215
v 1.12342 0.37221 -0.28490
v 1.12640 0.36643 -0.27177
v 1.16030 0.42687 -0.27076
v 1.06113 0.35713 -0.28622
v 1.00544 0.38838 -0.28215
v 0.97743 0.45417 -0.27834
v 1.13493 0.55937 -0.16734
v 1.16127 0.49881 -0.15625
v 1.17333 0.50569 -0.27439
v 1.15510 0.42986 -0.28365
v 1.15460 0.57331 -0.27102
v 1.15510 0.42986 -0.28365
v 1.17333 0.50569 -0.27439
v 1.16765 0.50490 -0.28674
v 1.15031 0.56924 -0.28355
v 1.16765 0.50490 -0.28674
v 1.15031 0.56924 -0.28355
v 1.17333 0.50569 -0.27439
v 1.15460 0.57331 -0.27102
v 1.09463 0.60049 -0.27948
v 1.15031 0.56924 -0.28355
v 1.15460 0.57331 -0.27102
v 1.19196 0.48991 0.25632
v 1.17703 0.55942 0.25956
v 1.09614 0.60612 -0.26674
v 1.15460 0.57331 -0.27102
v 1.08411 0.58790 -0.16362
v 1.08489 0.58738 -0.14906
v 1.08489 0.58738 -0.14906
v 1.15004 0.56109 0.01192
v 1.09691 0.59199 0.01584
v 1.09463 0.60049 -0.27948
v 1.03096 0.59013 -0.26381
v 1.03096 0.59013 -0.26381
v 1.02745 0.57400 -0.16108
v 1.08411 0.58790 -0.16362
v 1.09691 0.59199 0.01584
v 1.03739 0.57642 0.01848
v 1.03255 0.58526 -0.27669
v 1.02823 0.57349 -0.14651
v 1.02823 0.57349 -0.14651
v 1.09995 0.57609 0.17542
v 1.03739 0.57642 0.01848
v 0.98397 0.53145 -0.26335
v 1.03255 0.58526 -0.27669
v 0.98659 0.52299 -0.16068
v 1.02745 0.57400 -0.16108
v 0.98659 0.52299 -0.16068
v 0.99421 0.52031 0.01883
v 1.03739 0.57642 0.01848
v 1.04828 0.56156 0.17768
v 1.03739 0.57642 0.01848
v 0.98659 0.52299 -0.16068
v 0.98737 0.52248 -0.14612
v 1.10051 0.57572 0.18590
v 1.04828 0.56156 0.17768
v 0.98397 0.53145 -0.26335
v 0.98779 0.52937 -0.27625
v 1.12224 0.59265 0.26366
v 1.17703 0.55942 0.25956
v 1.01051 0.51024 0.17790
v 1.04884 0.56119 0.18816
v 1.01051 0.51024 0.17790
v 1.04884 0.56119 0.18816
v 1.06047 0.57528 0.26635
v 1.01107 0.50987 0.18838
v 1.01533 0.51394 0.26662
v 1.01533 0.51394 0.26662
v 1.12247 0.58764 0.27930
v 1.12247 0.58764 0.27930
v 1.01533 0.51394 0.26662
v 1.06047 0.57528 0.26635
v 1.06278 0.57086 0.28191
v 1.12247 0.58764 0.27930
v 1.01916 0.51158 0.28216
v -1.14574 0.46164 0.12414
v -1.21026 0.55827 0.15484
v -1.22349 0.49119 0.16081
v -1.14574 0.46164 0.12414
v -1.15921 0.59027 0.13995
v -1.21026 0.55827 0.15484
v -1.10141 0.57335 0.12499
v -1.05893 0.51397 0.11569
v -1.22349 0.49119 0.16081
v -1.21059 0.41230 0.16800
v -1.04800 0.43482 0.11558
v -1.05893 0.51397 0.11569
v -1.07227 0.36620 0.12666
v -1.12384 0.33414 0.13962
v -1.18004 0.35128 0.16051
v -0.99567 0.48164 0.69281
v -1.01578 0.60292 0.68072
v -0.95567 0.58755 0.66509
v -1.06947 0.57180 0.69629
v -1.08591 0.50749 0.70303
v -1.07445 0.43242 0.69742
v -1.08591 0.50749 0.70303
v -0.99567 0.48164 0.69281
v -0.91210 0.53156 0.65537
v -1.04333 0.37471 0.69207
v -0.98216 0.35948 0.68041
v -0.92847 0.39061 0.66484
v -0.90171 0.45633 0.65528
v -0.92847 0.39061 0.66484
v -0.99567 0.48164 0.69281
v -0.91210 0.53156 0.65537
v 0.82873 0.45937 0.85004
v 0.89742 0.55585 0.87047
v 0.91111 0.48873 0.87483
v 0.84958 0.58796 0.84740
v 0.79659 0.57116 0.81983
v 0.84958 0.58796 0.84740
v 0.75867 0.51188 0.79827
v 0.82873 0.45937 0.85004
v 0.90618 0.40986 0.86079
v 0.75032 0.43275 0.79097
v 0.77563 0.36408 0.79893
v 0.82256 0.33190 0.82378
v 0.87834 0.34891 0.84587
v 0.90618 0.40986 0.86079
v 1.11827 0.47921 0.33748
v 1.12537 0.60045 0.36001
v 1.07021 0.58522 0.33139
v 1.17562 0.56921 0.38434
v 1.11827 0.47921 0.33748
v 1.19222 0.50487 0.39028
v 1.17979 0.42983 0.38673
v 1.03121 0.52932 0.30942
v 1.15298 0.37218 0.36984
v 1.17979 0.42983 0.38673
v 1.09968 0.35708 0.33755
v 1.15298 0.37218 0.36984
v 1.04943 0.38833 0.31323
v 1.02328 0.45412 0.30248
v 1.02328 0.45412 0.30248
v 1.10571 0.45905 0.29193
v 1.17542 0.55553 0.27534
v 1.18945 0.48841 0.27224
v 1.12247 0.58764 0.27930
v 1.06278 0.57086 0.28191
v 1.12247 0.58764 0.27930
v 1.01916 0.51158 0.28216
v 1.17815 0.40955 0.26249
v 1.00826 0.43246 0.27997
v 1.01916 0.51158 0.28216
v 1.10571 0.45905 0.29193
v 1.03415 0.36378 0.27416
v 1.08721 0.33159 0.27221
v 1.14657 0.34860 0.26346
v 1.14657 0.34860 0.26346
v 1.07720 0.47925 -0.29551
v 1.09463 0.60049 -0.27948
v 1.03255 0.58526 -0.27669
v 1.07720 0.47925 -0.29551
v 1.15031 0.56924 -0.28355
v 1.09463 0.60049 -0.27948
v 1.16765 0.50490 -0.28674
v 1.15031 0.56924 -0.28355
v 1.07720 0.47925 -0.29551
v 1.15510 0.42986 -0.28365
v 0.98779 0.52937 -0.27625
v 1.12342 0.37221 -0.28490
v 1.15510 0.42986 -0.28365
v 1.06113 0.35713 -0.28622
v 1.00544 0.38838 -0.28215
v 0.97743 0.45417 -0.27834
v 0.97743 0.45417 -0.27834
vt 0.14398 0.28120
vt 0.14795 0.28295
vt 0.14398 0.28295
vt 0.14795 0.28120
vt 0.14795 0.28295
vt 0.14398 0.27975
vt 0.14795 0.28120
vt 0.14795 0.27975
vt 0.14795 0.28120
vt 0.15191 0.28295
vt 0.14398 0.27806
vt 0.14398 0.27806
vt 0.14795 0.27806
vt 0.14795 0.27975
vt 0.15191 0.28120
vt 0.14795 0.28120
vt 0.15191 0.28120
vt 0.15191 0.28295
vt 0.14795 0.27636
vt 0.14795 0.27806
vt 0.14398 0.27636
vt 0.14795 0.27806
vt 0.15191 0.27975
vt 0.15191 0.27636
vt 0.15191 0.27806
vt 0.14398 0.27636
vt 0.14795 0.27486
vt 0.15191 0.27486
vt 0.15191 0.27636
vt 0.15191 0.27486
vt 0.15587 0.28120
vt 0.14398 0.27486
vt 0.15191 0.28120
vt 0.15191 0.27975
vt 0.15587 0.27975
vt 0.15587 0.27975
vt 0.15191 0.27806
vt 0.15587 0.27806
vt 0.15587 0.27806
vt 0.15587 0.27636
vt 0.15587 0.27636
vt 0.15587 0.28295
vt 0.15191 0.27316
vt 0.15587 0.27486
vt 0.15587 0.27636
vt 0.15191 0.27486
vt 0.15981 0.27975
vt 0.15981 0.27806
vt 0.15981 0.27806
vt 0.15981 0.27975
vt 0.15587 0.28295
vt 0.15981 0.28120
vt 0.15981 0.28120
vt 0.15981 0.27636
vt 0.15981 0.27636
vt 0.15587 0.27316
vt 0.15981 0.27486
vt 0.15981 0.27636
vt 0.15587 0.27316
vt 0.15981 0.27486
vt 0.15981 0.28295
vt 0.14795 0.27316
vt 0.14795 0.27486
vt 0.14795 0.27316
vt 0.15191 0.27316
vt 0.16378 0.28120
vt 0.16378 0.27975
vt 0.16378 0.27975
vt 0.16378 0.28120
vt 0.16378 0.28295
vt 0.15981 0.28120
vt 0.16378 0.28120
vt 0.15981 0.27636
vt 0.16378 0.27636
vt 0.16378 0.27486
vt 0.16378 0.27486
vt 0.16378 0.27636
vt 0.16378 0.27806
vt 0.16774 0.28295
vt 0.15587 0.27316
vt 0.15981 0.27316
vt 0.16378 0.27975
vt 0.16774 0.28120
vt 0.16378 0.28120
vt 0.16774 0.28120
vt 0.16774 0.28295
vt 0.16378 0.27806
vt 0.16774 0.27975
vt 0.15981 0.27486
vt 0.16378 0.27316
vt 0.16378 0.27316
vt 0.14398 0.27486
vt 0.14398 0.27316
vt 0.14795 0.27316
vt 0.16378 0.27806
vt 0.16774 0.27636
vt 0.16774 0.27486
vt 0.16774 0.27486
vt 0.16774 0.27806
vt 0.16774 0.27806
vt 0.16378 0.27486
vt 0.16774 0.27316
vt 0.16774 0.27486
vt 0.16378 0.27316
vt 0.14398 0.28120
vt 0.14398 0.28295
vt 0.14795 0.28295
vt 0.14795 0.28120
vt 0.15191 0.28295
vt 0.14795 0.28120
vt 0.15191 0.28120
vt 0.14398 0.27975
vt 0.14398 0.28120
vt 0.15587 0.28120
vt 0.15191 0.28120
vt 0.15191 0.28295
vt 0.15587 0.28295
vt 0.14795 0.27975
vt 0.14398 0.27975
vt 0.15587 0.28120
vt 0.15587 0.28295
vt 0.15981 0.28295
vt 0.15587 0.27975
vt 0.15587 0.28120
vt 0.15191 0.28120
vt 0.15191 0.27975
vt 0.15587 0.27975
vt 0.15191 0.27975
vt 0.15981 0.28295
vt 0.15981 0.28120
vt 0.16378 0.28120
vt 0.15981 0.28120
vt 0.15981 0.28295
vt 0.14398 0.27806
vt 0.16378 0.28295
vt 0.14795 0.27806
vt 0.14795 0.27975
vt 0.15191 0.27975
vt 0.15587 0.27806
vt 0.16378 0.28295
vt 0.16774 0.28295
vt 0.15981 0.28120
vt 0.15981 0.27975
vt 0.15587 0.27806
vt 0.14795 0.27806
vt 0.15191 0.27806
vt 0.16378 0.27975
vt 0.15981 0.28120
vt 0.15981 0.27975
vt 0.15981 0.28120
vt 0.16378 0.28120
vt 0.16774 0.28120
vt 0.16378 0.27975
vt 0.14795 0.27636
vt 0.14398 0.27806
vt 0.15191 0.27636
vt 0.15191 0.27806
vt 0.14795 0.27636
vt 0.15981 0.27806
vt 0.15191 0.27636
vt 0.15587 0.27806
vt 0.15587 0.27636
vt 0.14795 0.27636
vt 0.14398 0.27636
vt 0.16378 0.27806
vt 0.15981 0.27975
vt 0.16378 0.27975
vt 0.15981 0.27806
vt 0.15981 0.27636
vt 0.15587 0.27636
vt 0.15981 0.27636
vt 0.15191 0.27486
vt 0.15191 0.27486
vt 0.15191 0.27636
vt 0.14795 0.27486
vt 0.14398 0.27636
vt 0.15191 0.27486
vt 0.14795 0.27486
vt 0.14795 0.27636
vt 0.15981 0.27486
vt 0.16378 0.27636
vt 0.15981 0.27486
vt 0.16378 0.27636
vt 0.15587 0.27636
vt 0.15587 0.27486
vt 0.15981 0.27486
vt 0.15587 0.27486
vt 0.16774 0.27975
vt 0.14398 0.27486
vt 0.15191 0.27316
vt 0.15191 0.27486
vt 0.14795 0.27316
vt 0.14398 0.27486
vt 0.15191 0.27316
vt 0.15981 0.27316
vt 0.15587 0.27486
vt 0.15981 0.27486
vt 0.16378 0.27486
vt 0.15981 0.27316
vt 0.16774 0.27636
vt 0.15587 0.27316
vt 0.15587 0.27316
vt 0.14398 0.27316
vt 0.16774 0.27486
vt 0.16378 0.27486
vt 0.16378 0.27636
vt 0.16774 0.27486
vt 0.16378 0.27636
vt 0.16774 0.27636
vt 0.16774 0.27636
vt 0.16774 0.27806
vt 0.16378 0.27316
vt 0.16774 0.27316
vt 0.16774 0.27486
vt 0.23609 0.33685
vt 0.23579 0.32536
vt 0.23609 0.32536
vt 0.23579 0.33685
vt 0.23603 0.34584
vt 0.23573 0.34584
vt 0.23573 0.35488
vt 0.23603 0.35488
vt 0.23592 0.36782
vt 0.23622 0.36782
vt 0.23586 0.38465
vt 0.23622 0.38465
vt 0.23592 0.39779
vt 0.23622 0.39779
vt 0.23622 0.39779
vt 0.23598 0.40708
vt 0.23592 0.39779
vt 0.23622 0.39779
vt 0.23628 0.40708
vt 0.23598 0.40708
vt 0.23641 0.41612
vt 0.23609 0.41612
vt 0.23652 0.42756
vt 0.23616 0.42756
vt 0.24598 0.33635
vt 0.24555 0.32511
vt 0.24598 0.32511
vt 0.24555 0.33635
vt 0.24598 0.34609
vt 0.24555 0.33635
vt 0.24598 0.33635
vt 0.24555 0.34609
vt 0.24598 0.34609
vt 0.24562 0.35608
vt 0.24555 0.34609
vt 0.24610 0.35608
vt 0.24610 0.35608
vt 0.24591 0.36877
vt 0.24562 0.35608
vt 0.24641 0.36877
vt 0.24646 0.38365
vt 0.24598 0.38365
vt 0.24646 0.39659
vt 0.24646 0.38365
vt 0.24604 0.39659
vt 0.24598 0.40658
vt 0.24641 0.40658
vt 0.24641 0.40658
vt 0.24587 0.41632
vt 0.24629 0.41632
vt 0.24610 0.42806
vt 0.24562 0.42806
vt 0.23256 0.41392
vt 0.23298 0.42636
vt 0.23250 0.42636
vt 0.23305 0.41392
vt 0.23250 0.40463
vt 0.23305 0.41392
vt 0.23256 0.41392
vt 0.23298 0.40463
vt 0.23609 0.41612
vt 0.23268 0.39539
vt 0.23317 0.39539
vt 0.23598 0.40708
vt 0.23609 0.41612
vt 0.23323 0.38440
vt 0.23317 0.39539
vt 0.23268 0.39539
vt 0.23275 0.38440
vt 0.23592 0.39779
vt 0.23317 0.39539
vt 0.23592 0.39779
vt 0.23592 0.39779
vt 0.23616 0.42756
vt 0.23298 0.36807
vt 0.23323 0.38440
vt 0.23275 0.38440
vt 0.23586 0.38465
vt 0.23592 0.39779
vt 0.23592 0.36782
vt 0.23592 0.36782
vt 0.23250 0.36807
vt 0.23628 0.40708
vt 0.23622 0.39779
vt 0.23592 0.39779
vt 0.23628 0.40708
vt 0.23641 0.41612
vt 0.23616 0.42756
vt 0.23628 0.40708
vt 0.23641 0.41612
vt 0.23622 0.38465
vt 0.23652 0.42756
vt 0.24092 0.41757
vt 0.24092 0.42976
vt 0.24092 0.41757
vt 0.24092 0.40758
vt 0.24092 0.41757
vt 0.23622 0.36782
vt 0.23622 0.38465
vt 0.24092 0.39754
vt 0.24092 0.39754
vt 0.24092 0.38415
vt 0.24092 0.36832
vt 0.24092 0.36832
vt 0.24587 0.41632
vt 0.24092 0.41757
vt 0.24598 0.40658
vt 0.24092 0.40758
vt 0.24587 0.41632
vt 0.24604 0.39659
vt 0.24092 0.40758
vt 0.24604 0.39659
vt 0.24562 0.42806
vt 0.24598 0.38365
vt 0.24641 0.40658
vt 0.24629 0.41632
vt 0.24641 0.40658
vt 0.24587 0.41632
vt 0.23573 0.35488
vt 0.24646 0.39659
vt 0.24646 0.39659
vt 0.24092 0.36832
vt 0.24591 0.36877
vt 0.23603 0.35488
vt 0.23603 0.35488
vt 0.24646 0.38365
vt 0.24646 0.38365
vt 0.24591 0.36877
vt 0.24629 0.41632
vt 0.24610 0.42806
vt 0.24983 0.41412
vt 0.24092 0.35513
vt 0.23622 0.36782
vt 0.23603 0.35488
vt 0.24983 0.40413
vt 0.24983 0.42681
vt 0.24970 0.39439
vt 0.24646 0.38365
vt 0.23250 0.35708
vt 0.24641 0.36877
vt 0.24562 0.35608
vt 0.24591 0.36877
vt 0.24562 0.35608
vt 0.24646 0.38365
vt 0.24964 0.38365
vt 0.24964 0.38365
vt 0.24641 0.36877
vt 0.25025 0.41412
vt 0.25025 0.40413
vt 0.25025 0.40413
vt 0.25025 0.41412
vt 0.25013 0.39439
vt 0.24983 0.40413
vt 0.25025 0.42681
vt 0.24610 0.35608
vt 0.24641 0.36877
vt 0.24983 0.36927
vt 0.25013 0.39439
vt 0.25006 0.38365
vt 0.24983 0.35828
vt 0.24641 0.36877
vt 0.24610 0.35608
vt 0.25025 0.36902
vt 0.25025 0.35828
vt 0.25025 0.36902
vt 0.25025 0.35828
vt 0.24983 0.36927
vt 0.24983 0.35828
vt 0.25025 0.34854
vt 0.23573 0.35488
vt 0.23298 0.35708
vt 0.23250 0.35708
vt 0.24983 0.34854
vt 0.24598 0.34609
vt 0.24610 0.35608
vt 0.24983 0.34854
vt 0.24598 0.34609
vt 0.24555 0.34609
vt 0.24598 0.34609
vt 0.24092 0.34514
vt 0.24983 0.33855
vt 0.24983 0.33855
vt 0.24598 0.34609
vt 0.24598 0.33635
vt 0.24598 0.34609
vt 0.24555 0.34609
vt 0.24092 0.33535
vt 0.25025 0.33855
vt 0.24555 0.33635
vt 0.24555 0.33635
vt 0.23603 0.35488
vt 0.23603 0.34584
vt 0.24983 0.32611
vt 0.25025 0.33855
vt 0.24598 0.32511
vt 0.24555 0.33635
vt 0.24092 0.32316
vt 0.23609 0.33685
vt 0.23609 0.33685
vt 0.24555 0.33635
vt 0.24555 0.32511
vt 0.23573 0.34584
vt 0.25025 0.32611
vt 0.23298 0.34804
vt 0.23573 0.34584
vt 0.23609 0.32536
vt 0.23573 0.34584
vt 0.23579 0.33685
vt 0.23298 0.33905
vt 0.23579 0.32536
vt 0.23298 0.32661
vt 0.23298 0.32661
vt 0.23298 0.33905
vt 0.23250 0.34804
vt 0.23250 0.33905
vt 0.23250 0.33905
vt 0.23250 0.32661
vt 0.23609 0.33685
vt 0.23579 0.32536
vt 0.23609 0.32536
vt 0.23579 0.33685
vt 0.23603 0.34584
vt 0.23579 0.33685
vt 0.23609 0.33685
vt 0.23573 0.34584
vt 0.23603 0.35488
vt 0.23603 0.35488
vt 0.23573 0.35488
vt 0.23592 0.36782
vt 0.23573 0.35488
vt 0.23603 0.35488
vt 0.23622 0.36782
vt 0.23592 0.36782
vt 0.23622 0.36782
vt 0.23586 0.38465
vt 0.23622 0.36782
vt 0.23622 0.38465
vt 0.23592 0.39779
vt 0.23622 0.39779
vt 0.23622 0.39779
vt 0.23598 0.40708
vt 0.23628 0.40708
vt 0.23598 0.40708
vt 0.23641 0.41612
vt 0.23598 0.40708
vt 0.23628 0.40708
vt 0.23609 0.41612
vt 0.23652 0.42756
vt 0.23616 0.42756
vt 0.24598 0.33635
vt 0.24555 0.32511
vt 0.24598 0.32511
vt 0.24555 0.33635
vt 0.24555 0.32511
vt 0.24598 0.34609
vt 0.24555 0.34609
vt 0.24598 0.34609
vt 0.24562 0.35608
vt 0.24555 0.34609
vt 0.24610 0.35608
vt 0.24591 0.36877
vt 0.24641 0.36877
vt 0.24591 0.36877
vt 0.24646 0.38365
vt 0.24641 0.36877
vt 0.24598 0.38365
vt 0.24646 0.39659
vt 0.24604 0.39659
vt 0.24646 0.39659
vt 0.24598 0.40658
vt 0.24604 0.39659
vt 0.24641 0.40658
vt 0.24587 0.41632
vt 0.24629 0.41632
vt 0.24610 0.42806
vt 0.24610 0.42806
vt 0.24562 0.42806
vt 0.23256 0.41392
vt 0.23298 0.42636
vt 0.23250 0.42636
vt 0.23256 0.41392
vt 0.23305 0.41392
vt 0.23250 0.40463
vt 0.23256 0.41392
vt 0.23298 0.40463
vt 0.23305 0.41392
vt 0.23609 0.41612
vt 0.23268 0.39539
vt 0.23268 0.39539
vt 0.23317 0.39539
vt 0.23598 0.40708
vt 0.23323 0.38440
vt 0.23268 0.39539
vt 0.23275 0.38440
vt 0.23592 0.39779
vt 0.23592 0.39779
vt 0.23609 0.41612
vt 0.23616 0.42756
vt 0.23298 0.36807
vt 0.23275 0.38440
vt 0.23323 0.38440
vt 0.23586 0.38465
vt 0.23592 0.36782
vt 0.23586 0.38465
vt 0.23592 0.36782
vt 0.23323 0.38440
vt 0.23250 0.36807
vt 0.23628 0.40708
vt 0.23622 0.39779
vt 0.23592 0.39779
vt 0.23641 0.41612
vt 0.23628 0.40708
vt 0.23622 0.38465
vt 0.23592 0.39779
vt 0.23622 0.38465
vt 0.23622 0.39779
vt 0.23652 0.42756
vt 0.23616 0.42756
vt 0.24092 0.41757
vt 0.24092 0.42976
vt 0.23622 0.36782
vt 0.23622 0.38465
vt 0.24092 0.40758
vt 0.23628 0.40708
vt 0.24092 0.41757
vt 0.24092 0.39754
vt 0.24092 0.38415
vt 0.23622 0.36782
vt 0.24587 0.41632
vt 0.24598 0.40658
vt 0.24604 0.39659
vt 0.24092 0.39754
vt 0.24092 0.38415
vt 0.24604 0.39659
vt 0.24562 0.42806
vt 0.23622 0.36782
vt 0.24092 0.36832
vt 0.24598 0.38365
vt 0.24641 0.40658
vt 0.24629 0.41632
vt 0.24641 0.40658
vt 0.24646 0.39659
vt 0.24598 0.38365
vt 0.24646 0.39659
vt 0.23573 0.35488
vt 0.24591 0.36877
vt 0.23603 0.35488
vt 0.23592 0.36782
vt 0.24646 0.38365
vt 0.24610 0.42806
vt 0.24983 0.41412
vt 0.24983 0.40413
vt 0.24983 0.42681
vt 0.24610 0.42806
vt 0.24983 0.41412
vt 0.24092 0.35513
vt 0.23622 0.36782
vt 0.23603 0.35488
vt 0.24970 0.39439
vt 0.23250 0.35708
vt 0.23298 0.36807
vt 0.24641 0.36877
vt 0.24970 0.39439
vt 0.24646 0.38365
vt 0.24964 0.38365
vt 0.24964 0.38365
vt 0.24641 0.36877
vt 0.24562 0.35608
vt 0.25025 0.41412
vt 0.25025 0.40413
vt 0.25025 0.40413
vt 0.24983 0.41412
vt 0.25013 0.39439
vt 0.25013 0.39439
vt 0.24970 0.39439
vt 0.24964 0.38365
vt 0.25013 0.39439
vt 0.25025 0.42681
vt 0.24610 0.35608
vt 0.24983 0.36927
vt 0.25006 0.38365
vt 0.25006 0.38365
vt 0.24983 0.35828
vt 0.24641 0.36877
vt 0.24983 0.35828
vt 0.25025 0.36902
vt 0.25025 0.35828
vt 0.24983 0.36927
vt 0.25025 0.34854
vt 0.25025 0.35828
vt 0.23298 0.36807
vt 0.23298 0.35708
vt 0.23250 0.35708
vt 0.23298 0.35708
vt 0.24983 0.34854
vt 0.24610 0.35608
vt 0.25025 0.34854
vt 0.24598 0.34609
vt 0.24562 0.35608
vt 0.24555 0.34609
vt 0.24598 0.34609
vt 0.24555 0.34609
vt 0.24092 0.34514
vt 0.25025 0.34854
vt 0.24983 0.34854
vt 0.24983 0.33855
vt 0.24983 0.33855
vt 0.24598 0.33635
vt 0.24092 0.33535
vt 0.24555 0.33635
vt 0.24092 0.33535
vt 0.24555 0.33635
vt 0.25025 0.33855
vt 0.24092 0.34514
vt 0.23603 0.34584
vt 0.24092 0.33535
vt 0.23603 0.34584
vt 0.23603 0.34584
vt 0.24983 0.32611
vt 0.25025 0.33855
vt 0.24983 0.33855
vt 0.24983 0.32611
vt 0.24598 0.32511
vt 0.24598 0.32511
vt 0.24555 0.33635
vt 0.24092 0.32316
vt 0.23609 0.33685
vt 0.24092 0.32316
vt 0.23609 0.33685
vt 0.24555 0.32511
vt 0.23573 0.34584
vt 0.23609 0.33685
vt 0.23573 0.34584
vt 0.25025 0.32611
vt 0.23298 0.34804
vt 0.23609 0.32536
vt 0.23579 0.33685
vt 0.23298 0.33905
vt 0.23573 0.34584
vt 0.23298 0.33905
vt 0.23579 0.33685
vt 0.23579 0.32536
vt 0.23298 0.32661
vt 0.23250 0.34804
vt 0.23250 0.34804
vt 0.23250 0.34804
vt 0.23250 0.33905
vt 0.23298 0.33905
vt 0.23250 0.33905
vt 0.23250 0.33905
vt 0.23250 0.32661
vt 0.23609 0.33685
vt 0.23579 0.32536
vt 0.23609 0.32536
vt 0.23579 0.33685
vt 0.23603 0.34584
vt 0.23573 0.34584
vt 0.23603 0.34584
vt 0.23573 0.35488
vt 0.23573 0.34584
vt 0.23603 0.35488
vt 0.23573 0.35488
vt 0.23592 0.36782
vt 0.23603 0.35488
vt 0.23622 0.36782
vt 0.23586 0.38465
vt 0.23622 0.38465
vt 0.23592 0.39779
vt 0.23622 0.39779
vt 0.23598 0.40708
vt 0.23628 0.40708
vt 0.23641 0.41612
vt 0.23598 0.40708
vt 0.23628 0.40708
vt 0.23641 0.41612
vt 0.23609 0.41612
vt 0.23652 0.42756
vt 0.23609 0.41612
vt 0.23652 0.42756
vt 0.23616 0.42756
vt 0.24598 0.33635
vt 0.24555 0.32511
vt 0.24598 0.32511
vt 0.24555 0.33635
vt 0.24598 0.34609
vt 0.24555 0.33635
vt 0.24598 0.33635
vt 0.24598 0.34609
vt 0.24555 0.34609
vt 0.24562 0.35608
vt 0.24610 0.35608
vt 0.24562 0.35608
vt 0.24591 0.36877
vt 0.24641 0.36877
vt 0.24591 0.36877
vt 0.24646 0.38365
vt 0.24646 0.38365
vt 0.24598 0.38365
vt 0.24646 0.39659
vt 0.24598 0.38365
vt 0.24646 0.38365
vt 0.24604 0.39659
vt 0.24598 0.38365
vt 0.24598 0.40658
vt 0.24641 0.40658
vt 0.24641 0.40658
vt 0.24587 0.41632
vt 0.24598 0.40658
vt 0.24629 0.41632
vt 0.24587 0.41632
vt 0.24610 0.42806
vt 0.24629 0.41632
vt 0.24562 0.42806
vt 0.23256 0.41392
vt 0.23298 0.42636
vt 0.23250 0.42636
vt 0.23305 0.41392
vt 0.23250 0.40463
vt 0.23298 0.40463
vt 0.23609 0.41612
vt 0.23298 0.42636
vt 0.23268 0.39539
vt 0.23268 0.39539
vt 0.23317 0.39539
vt 0.23598 0.40708
vt 0.23323 0.38440
vt 0.23268 0.39539
vt 0.23323 0.38440
vt 0.23275 0.38440
vt 0.23592 0.39779
vt 0.23616 0.42756
vt 0.23298 0.36807
vt 0.23586 0.38465
vt 0.23592 0.36782
vt 0.23250 0.36807
vt 0.23628 0.40708
vt 0.23622 0.39779
vt 0.23641 0.41612
vt 0.23616 0.42756
vt 0.23609 0.41612
vt 0.23622 0.38465
vt 0.23592 0.39779
vt 0.23622 0.38465
vt 0.23622 0.39779
vt 0.23641 0.41612
vt 0.23652 0.42756
vt 0.24092 0.41757
vt 0.24092 0.42976
vt 0.23652 0.42756
vt 0.24092 0.40758
vt 0.23622 0.36782
vt 0.24092 0.39754
vt 0.23622 0.38465
vt 0.24092 0.39754
vt 0.23622 0.38465
vt 0.24092 0.38415
vt 0.24092 0.36832
vt 0.24092 0.38415
vt 0.24092 0.36832
vt 0.24587 0.41632
vt 0.24598 0.40658
vt 0.24092 0.41757
vt 0.24604 0.39659
vt 0.24604 0.39659
vt 0.24562 0.42806
vt 0.24598 0.38365
vt 0.24598 0.38365
vt 0.24641 0.40658
vt 0.24629 0.41632
vt 0.24562 0.42806
vt 0.24641 0.40658
vt 0.23573 0.35488
vt 0.24646 0.39659
vt 0.24641 0.40658
vt 0.24591 0.36877
vt 0.23603 0.35488
vt 0.23592 0.36782
vt 0.23603 0.35488
vt 0.23592 0.36782
vt 0.24646 0.39659
vt 0.24646 0.38365
vt 0.24610 0.42806
vt 0.24983 0.41412
vt 0.24092 0.35513
vt 0.24983 0.40413
vt 0.24983 0.41412
vt 0.24983 0.40413
vt 0.24983 0.42681
vt 0.24610 0.42806
vt 0.24970 0.39439
vt 0.23250 0.35708
vt 0.24641 0.36877
vt 0.24562 0.35608
vt 0.24964 0.38365
vt 0.24641 0.36877
vt 0.25025 0.41412
vt 0.24983 0.42681
vt 0.24983 0.41412
vt 0.25025 0.40413
vt 0.25025 0.41412
vt 0.25013 0.39439
vt 0.24970 0.39439
vt 0.24964 0.38365
vt 0.25025 0.40413
vt 0.25025 0.41412
vt 0.25025 0.42681
vt 0.24610 0.35608
vt 0.24591 0.36877
vt 0.24983 0.36927
vt 0.25006 0.38365
vt 0.24983 0.35828
vt 0.25006 0.38365
vt 0.24983 0.36927
vt 0.25025 0.36902
vt 0.25025 0.35828
vt 0.25025 0.36902
vt 0.25025 0.35828
vt 0.24983 0.36927
vt 0.24983 0.35828
vt 0.25025 0.34854
vt 0.25025 0.35828
vt 0.24983 0.35828
vt 0.23298 0.36807
vt 0.23298 0.35708
vt 0.24983 0.34854
vt 0.24983 0.35828
vt 0.24598 0.34609
vt 0.24555 0.34609
vt 0.24555 0.34609
vt 0.24092 0.35513
vt 0.24092 0.34514
vt 0.25025 0.34854
vt 0.24983 0.33855
vt 0.24983 0.33855
vt 0.24598 0.33635
vt 0.24598 0.34609
vt 0.24092 0.34514
vt 0.24092 0.33535
vt 0.25025 0.33855
vt 0.24555 0.33635
vt 0.24555 0.33635
vt 0.23603 0.34584
vt 0.24092 0.33535
vt 0.24983 0.32611
vt 0.25025 0.33855
vt 0.24598 0.32511
vt 0.24598 0.33635
vt 0.24598 0.32511
vt 0.24092 0.32316
vt 0.24092 0.33535
vt 0.23609 0.33685
vt 0.24092 0.33535
vt 0.24598 0.32511
vt 0.24555 0.32511
vt 0.23573 0.34584
vt 0.23609 0.33685
vt 0.24983 0.32611
vt 0.25025 0.32611
vt 0.23298 0.34804
vt 0.23298 0.35708
vt 0.23609 0.32536
vt 0.23579 0.33685
vt 0.23609 0.32536
vt 0.23579 0.33685
vt 0.23298 0.33905
vt 0.23579 0.32536
vt 0.23298 0.32661
vt 0.23298 0.32661
vt 0.23250 0.34804
vt 0.23250 0.34804
vt 0.23298 0.32661
vt 0.23298 0.33905
vt 0.23250 0.33905
vt 0.23250 0.34804
vt 0.23250 0.32661
vt 0.22939 0.40149
vt 0.22817 0.37486
vt 0.22987 0.38051
vt 0.22939 0.40149
vt 0.22725 0.38830
vt 0.22817 0.37486
vt 0.22707 0.40368
vt 0.22805 0.41562
vt 0.22987 0.38051
vt 0.23128 0.39219
vt 0.22932 0.42391
vt 0.22805 0.41562
vt 0.23110 0.42831
vt 0.23207 0.41902
vt 0.23201 0.40683
vt 0.22939 0.40149
vt 0.22725 0.38855
vt 0.22817 0.37511
vt 0.22714 0.40388
vt 0.22811 0.41587
vt 0.22939 0.42391
vt 0.22811 0.41587
vt 0.22939 0.40149
vt 0.22994 0.38051
vt 0.23110 0.42856
vt 0.23213 0.41902
vt 0.23207 0.40683
vt 0.23128 0.39244
vt 0.23207 0.40683
vt 0.22939 0.40149
vt 0.22994 0.38051
vt 0.22939 0.40149
vt 0.22817 0.37486
vt 0.22987 0.38051
vt 0.22725 0.38830
vt 0.22707 0.40368
vt 0.22725 0.38830
vt 0.22805 0.41562
vt 0.22939 0.40149
vt 0.23128 0.39219
vt 0.22932 0.42391
vt 0.23110 0.42831
vt 0.23207 0.41902
vt 0.23201 0.40683
vt 0.23128 0.39219
vt 0.22939 0.40149
vt 0.22725 0.38855
vt 0.22817 0.37511
vt 0.22714 0.40388
vt 0.22939 0.40149
vt 0.22811 0.41587
vt 0.22939 0.42391
vt 0.22994 0.38051
vt 0.23110 0.42856
vt 0.22939 0.42391
vt 0.23213 0.41902
vt 0.23110 0.42856
vt 0.23207 0.40683
vt 0.23128 0.39244
vt 0.23128 0.39244
vt 0.22939 0.40149
vt 0.22817 0.37486
vt 0.22987 0.38051
vt 0.22725 0.38830
vt 0.22707 0.40368
vt 0.22725 0.38830
vt 0.22805 0.41562
vt 0.23128 0.39219
vt 0.22932 0.42391
vt 0.22805 0.41562
vt 0.22939 0.40149
vt 0.23110 0.42831
vt 0.23207 0.41902
vt 0.23201 0.40683
vt 0.23201 0.40683
vt 0.22939 0.40149
vt 0.22725 0.38855
vt 0.22817 0.37511
vt 0.22939 0.40149
vt 0.22714 0.40388
vt 0.22725 0.38855
vt 0.22811 0.41587
vt 0.22714 0.40388
vt 0.22939 0.40149
vt 0.22939 0.42391
vt 0.22994 0.38051
vt 0.23110 0.42856
vt 0.22939 0.42391
vt 0.23213 0.41902
vt 0.23207 0.40683
vt 0.23128 0.39244
vt 0.23128 0.39244
usemtl sherman_turret_m4
s 1
f 3/3 2/2 1/1
f 5/5 4/4 1/1
f 1/1 7/7 6/6
f 9/9 8/8 6/6
f 2/2 10/10 9/9
f 6/6 8/8 11/11
f 14/14 13/13 12/12
f 16/16 15/15 8/8
f 18/18 17/17 7/7
f 20/20 19/19 12/12
f 19/19 21/21 11/11
f 14/14 23/23 22/22
f 17/17 23/23 14/14
f 24/24 19/19 22/22
f 23/23 25/25 22/22
f 25/25 24/24 22/22
f 19/19 27/27 26/26
f 29/29 28/28 19/19
f 30/30 27/27 19/19
f 31/31 15/15 10/10
f 27/27 32/32 21/21
f 35/35 34/34 33/33
f 31/31 36/36 33/33
f 38/38 37/37 23/23
f 37/37 39/39 24/24
f 35/35 38/38 23/23
f 29/29 40/40 28/28
f 38/38 41/41 24/24
f 42/42 31/31 10/10
f 28/28 43/43 27/27
f 45/45 44/44 28/28
f 46/46 44/44 43/43
f 47/47 35/35 31/31
f 48/48 38/38 35/35
f 38/38 48/48 41/41
f 50/50 49/49 35/35
f 52/52 31/31 51/51
f 53/53 50/50 31/31
f 40/40 54/54 44/44
f 49/49 55/55 40/40
f 44/44 56/56 43/43
f 58/58 57/57 44/44
f 44/44 60/60 59/59
f 61/61 52/52 42/42
f 63/63 62/62 32/32
f 65/65 64/64 63/63
f 53/53 66/66 50/50
f 50/50 67/67 48/48
f 69/69 68/68 50/50
f 61/61 70/70 52/52
f 70/70 72/72 71/71
f 74/74 73/73 48/48
f 75/75 57/57 58/58
f 77/77 76/76 58/58
f 68/68 78/78 49/49
f 78/78 74/74 49/49
f 70/70 79/79 72/72
f 60/60 81/81 80/80
f 66/66 83/83 82/82
f 86/86 85/85 84/84
f 68/68 88/88 87/87
f 85/85 88/88 67/67
f 76/76 90/90 89/89
f 91/91 81/81 60/60
f 94/94 93/93 92/92
f 96/96 74/74 95/95
f 97/97 76/76 77/77
f 96/96 98/98 74/74
f 88/88 99/99 78/78
f 100/100 96/96 78/78
f 103/103 102/102 101/101
f 102/102 104/104 76/76
f 107/107 106/106 105/105
f 108/108 107/107 105/105
f 109/109 107/107 108/108
f 111/111 109/109 110/110
f 108/108 113/113 112/112
f 116/116 115/115 114/114
f 117/117 109/109 114/114
f 111/111 108/108 118/118
f 118/118 110/110 119/119
f 122/122 121/121 120/120
f 124/124 115/115 123/123
f 126/126 125/125 118/118
f 111/111 128/128 127/127
f 130/130 129/129 120/120
f 130/130 120/120 123/123
f 133/133 132/132 131/131
f 118/118 112/112 134/134
f 135/135 133/133 131/131
f 138/138 137/137 136/136
f 136/136 118/118 134/134
f 123/123 128/128 139/139
f 141/141 140/140 131/131
f 143/143 142/142 127/127
f 143/143 123/123 144/144
f 146/146 138/138 145/145
f 138/138 146/146 139/139
f 131/131 148/148 147/147
f 150/150 149/149 147/147
f 152/152 141/141 151/151
f 152/152 131/131 153/153
f 145/145 155/155 154/154
f 157/157 136/136 156/156
f 139/139 146/146 156/156
f 136/136 158/158 156/156
f 159/159 143/143 139/139
f 162/162 161/161 160/160
f 134/134 164/164 163/163
f 167/167 166/166 165/165
f 149/149 168/168 165/165
f 139/139 170/170 169/169
f 159/159 139/139 169/169
f 165/165 168/168 171/171
f 160/160 163/163 172/172
f 170/170 174/174 173/173
f 163/163 176/176 175/175
f 179/179 178/178 177/177
f 171/171 162/162 180/180
f 181/181 165/165 169/169
f 183/183 169/169 182/182
f 185/185 184/184 177/177
f 170/170 187/187 186/186
f 188/188 152/152 147/147
f 188/188 153/153 165/165
f 164/164 189/189 178/178
f 191/191 178/178 190/190
f 185/185 177/177 190/190
f 178/178 193/193 192/192
f 175/175 192/192 194/194
f 197/197 196/196 195/195
f 198/198 183/183 180/180
f 198/198 180/180 199/199
f 165/165 183/183 200/200
f 201/201 185/185 190/190
f 196/196 202/202 195/195
f 193/193 203/203 192/192
f 206/206 205/205 204/204
f 209/209 208/208 207/207
f 211/211 165/165 210/210
f 211/211 188/188 165/165
f 212/212 198/198 199/199
f 205/205 212/212 213/213
f 214/214 198/198 213/213
f 217/217 216/216 215/215
f 216/216 218/218 215/215
f 215/215 218/218 219/219
f 218/218 220/220 219/219
f 220/220 221/221 219/219
f 221/221 222/222 219/219
f 221/221 223/223 222/222
f 223/223 224/224 222/222
f 223/223 225/225 224/224
f 225/225 226/226 224/224
f 225/225 227/227 226/226
f 227/227 228/228 226/226
f 231/231 230/230 229/229
f 234/234 233/233 232/232
f 233/233 234/234 235/235
f 234/234 236/236 235/235
f 235/235 236/236 237/237
f 236/236 238/238 237/237
f 241/241 240/240 239/239
f 240/240 242/242 239/239
f 245/245 244/244 243/243
f 244/244 246/246 243/243
f 249/249 248/248 247/247
f 248/248 250/250 247/247
f 253/253 252/252 251/251
f 252/252 254/254 251/251
f 254/254 252/252 255/255
f 252/252 256/256 255/255
f 258/258 256/256 257/257
f 256/256 259/259 257/257
f 259/259 260/260 257/257
f 260/260 261/261 257/257
f 260/260 263/263 262/262
f 263/263 264/264 262/262
f 264/264 263/263 265/265
f 263/263 266/266 265/265
f 269/269 268/268 267/267
f 268/268 270/270 267/267
f 273/273 272/272 271/271
f 272/272 274/274 271/271
f 270/270 268/268 275/275
f 271/271 274/274 276/276
f 274/274 277/277 276/276
f 274/274 270/270 278/278
f 270/270 279/279 278/278
f 276/276 281/281 280/280
f 283/283 282/282 280/280
f 285/285 274/274 284/284
f 277/277 286/286 280/280
f 274/274 278/278 287/287
f 268/268 288/288 279/279
f 291/291 290/290 289/289
f 293/293 292/292 290/290
f 290/290 292/292 294/294
f 289/289 280/280 295/295
f 296/296 291/291 289/289
f 278/278 279/279 297/297
f 299/299 278/278 298/298
f 278/278 300/300 298/298
f 279/279 302/302 301/301
f 279/279 304/304 303/303
f 292/292 293/293 305/305
f 292/292 305/305 294/294
f 299/299 298/298 305/305
f 288/288 306/306 304/304
f 297/297 304/304 307/307
f 304/304 306/306 308/308
f 309/309 304/304 308/308
f 298/298 300/300 310/310
f 310/310 297/297 311/311
f 313/313 312/312 295/295
f 305/305 298/298 314/314
f 315/315 298/298 310/310
f 316/316 305/305 315/315
f 305/305 316/316 317/317
f 312/312 305/305 318/318
f 320/320 308/308 319/319
f 322/322 320/320 321/321
f 320/320 323/323 321/321
f 315/315 325/325 324/324
f 316/316 315/315 324/324
f 322/322 321/321 326/326
f 308/308 327/327 323/323
f 316/316 328/328 317/317
f 328/328 316/316 324/324
f 321/321 323/323 329/329
f 323/323 327/327 330/330
f 332/332 330/330 331/331
f 289/289 294/294 333/333
f 324/324 321/321 334/334
f 328/328 326/326 335/335
f 321/321 329/329 334/334
f 328/328 337/337 336/336
f 295/295 312/312 338/338
f 333/333 295/295 339/339
f 340/340 328/328 335/335
f 342/342 328/328 341/341
f 327/327 344/344 343/343
f 329/329 330/330 345/345
f 347/347 317/317 346/346
f 348/348 312/312 346/346
f 334/334 329/329 349/349
f 349/349 329/329 345/345
f 330/330 344/344 350/350
f 345/345 330/330 350/350
f 352/352 334/334 351/351
f 351/351 335/335 349/349
f 296/296 289/289 353/353
f 354/354 342/342 340/340
f 318/318 356/356 355/355
f 346/346 317/317 357/357
f 359/359 358/358 351/351
f 361/361 340/340 360/360
f 345/345 350/350 362/362
f 349/349 345/345 363/363
f 345/345 365/365 364/364
f 351/351 367/367 366/366
f 359/359 351/351 366/366
f 349/349 364/364 366/366
f 350/350 368/368 365/365
f 356/356 361/361 369/369
f 357/357 356/356 369/369
f 371/371 370/370 359/359
f 373/373 359/359 372/372
f 371/371 359/359 373/373
f 375/375 371/371 374/374
f 376/376 354/354 374/374
f 377/377 371/371 373/373
f 371/371 379/379 378/378
f 382/382 381/381 380/380
f 382/382 380/380 383/383
f 385/385 289/289 384/384
f 289/289 385/385 386/386
f 369/369 374/374 387/387
f 387/387 374/374 383/383
f 355/355 389/389 388/388
f 391/391 369/369 390/390
f 346/346 355/355 392/392
f 392/392 355/355 393/393
f 394/394 346/346 392/392
f 348/348 346/346 394/394
f 395/395 390/390 383/383
f 397/397 390/390 396/396
f 392/392 399/399 398/398
f 398/398 399/399 396/396
f 401/401 394/394 400/400
f 402/402 396/396 383/383
f 403/403 392/392 398/398
f 404/404 401/401 392/392
f 406/406 405/405 394/394
f 406/406 394/394 401/401
f 384/384 339/339 406/406
f 398/398 396/396 407/407
f 407/407 396/396 408/408
f 410/410 398/398 409/409
f 409/409 398/398 407/407
f 411/411 401/401 404/404
f 412/412 406/406 401/401
f 413/413 401/401 411/411
f 415/415 414/414 409/409
f 415/415 411/411 410/410
f 416/416 333/333 406/406
f 416/416 406/406 412/412
f 417/417 407/407 408/408
f 419/419 418/418 384/384
f 418/418 385/385 333/333
f 420/420 412/412 411/411
f 422/422 421/421 413/413
f 422/422 412/412 420/420
f 422/422 423/423 421/421
f 423/423 418/418 416/416
f 424/424 422/422 420/420
f 425/425 423/423 422/422
f 424/424 426/426 422/422
f 428/428 418/418 427/427
f 385/385 418/418 428/428
f 353/353 385/385 428/428
f 429/429 427/427 425/425
f 430/430 428/428 427/427
f 431/431 430/430 425/425
f 434/434 433/433 432/432
f 433/433 435/435 432/432
f 438/438 437/437 436/436
f 437/437 439/439 436/436
f 436/436 439/439 440/440
f 439/439 442/442 441/441
f 444/444 443/443 441/441
f 447/447 446/446 445/445
f 443/443 449/449 448/448
f 449/449 451/451 450/450
f 449/449 452/452 451/451
f 452/452 453/453 451/451
f 452/452 455/455 454/454
f 457/457 456/456 454/454
f 460/460 459/459 458/458
f 459/459 461/461 458/458
f 458/458 461/461 462/462
f 461/461 463/463 462/462
f 466/466 465/465 464/464
f 468/468 467/467 464/464
f 464/464 467/467 469/469
f 467/467 470/470 469/469
f 473/473 472/472 471/471
f 472/472 474/474 471/471
f 472/472 475/475 474/474
f 477/477 476/476 474/474
f 479/479 475/475 478/478
f 475/475 480/480 478/478
f 478/478 480/480 481/481
f 480/480 482/482 481/481
f 485/485 484/484 483/483
f 484/484 486/486 483/483
f 484/484 487/487 486/486
f 487/487 488/488 486/486
f 488/488 487/487 489/489
f 487/487 491/491 490/490
f 494/494 493/493 492/492
f 493/493 496/496 495/495
f 498/498 496/496 497/497
f 500/500 499/499 497/497
f 496/496 493/493 501/501
f 497/497 499/499 502/502
f 499/499 504/504 503/503
f 499/499 500/500 505/505
f 496/496 501/501 505/505
f 503/503 504/504 506/506
f 508/508 507/507 506/506
f 504/504 499/499 509/509
f 504/504 509/509 506/506
f 499/499 505/505 510/510
f 493/493 512/512 511/511
f 514/514 506/506 513/513
f 509/509 516/516 515/515
f 506/506 518/518 517/517
f 513/513 520/520 519/519
f 521/521 514/514 513/513
f 505/505 511/511 522/522
f 524/524 505/505 523/523
f 505/505 522/522 523/523
f 511/511 512/512 525/525
f 501/501 525/525 526/526
f 516/516 528/528 527/527
f 516/516 527/527 517/517
f 509/509 530/530 529/529
f 532/532 531/531 525/525
f 526/526 525/525 533/533
f 525/525 531/531 534/534
f 533/533 525/525 534/534
f 536/536 535/535 517/517
f 523/523 538/538 537/537
f 537/537 526/526 539/539
f 527/527 523/523 540/540
f 540/540 523/523 537/537
f 541/541 527/527 540/540
f 542/542 527/527 541/541
f 539/539 534/534 543/543
f 537/537 539/539 544/544
f 533/533 543/543 544/544
f 546/546 537/537 545/545
f 547/547 540/540 545/545
f 537/537 544/544 548/548
f 534/534 549/549 543/543
f 551/551 550/550 547/547
f 552/552 547/547 548/548
f 541/541 552/552 551/551
f 544/544 543/543 553/553
f 543/543 549/549 554/554
f 543/543 554/554 555/555
f 545/545 544/544 556/556
f 557/557 545/545 556/556
f 544/544 555/555 558/558
f 513/513 519/519 559/559
f 552/552 560/560 551/551
f 562/562 535/535 561/561
f 559/559 517/517 561/561
f 563/563 557/557 558/558
f 560/560 552/552 563/563
f 549/549 564/564 554/554
f 555/555 554/554 565/565
f 556/556 555/555 566/566
f 566/566 553/553 565/565
f 554/554 568/568 567/567
f 569/569 554/554 567/567
f 571/571 551/551 570/570
f 572/572 542/542 570/570
f 563/563 556/556 573/573
f 573/573 556/556 566/566
f 521/521 575/575 574/574
f 576/576 560/560 563/563
f 579/579 578/578 577/577
f 581/581 563/563 580/580
f 551/551 560/560 582/582
f 570/570 551/551 582/582
f 569/569 567/567 583/583
f 566/566 569/569 584/584
f 586/586 583/583 585/585
f 577/577 566/566 587/587
f 590/590 589/589 588/588
f 566/566 585/585 591/591
f 567/567 592/592 583/583
f 560/560 576/576 593/593
f 582/582 560/560 593/593
f 594/594 581/581 580/580
f 595/595 579/579 588/588
f 594/594 580/580 596/596
f 598/598 594/594 597/597
f 593/593 598/598 599/599
f 600/600 594/594 595/595
f 594/594 600/600 601/601
f 597/597 602/602 601/601
f 597/597 604/604 603/603
f 606/606 605/605 559/559
f 575/575 608/608 607/607
f 610/610 597/597 609/609
f 609/609 597/597 611/611
f 613/613 593/593 612/612
f 612/612 610/610 609/609
f 570/570 613/613 614/614
f 614/614 582/582 615/615
f 617/617 570/570 616/616
f 572/572 570/570 617/617
f 620/620 619/619 618/618
f 615/615 609/609 621/621
f 614/614 615/615 622/622
f 622/622 612/612 621/621
f 623/623 617/617 614/614
f 624/624 614/614 622/622
f 626/626 625/625 614/614
f 627/627 620/620 611/611
f 629/629 572/572 628/628
f 631/631 617/617 630/630
f 559/559 572/572 632/632
f 622/622 620/620 633/633
f 636/636 635/635 634/634
f 626/626 622/622 637/637
f 638/638 622/622 633/633
f 640/640 630/630 639/639
f 641/641 632/632 630/630
f 643/643 630/630 642/642
f 644/644 624/624 637/637
f 644/644 642/642 624/624
f 645/645 559/559 629/629
f 647/647 631/631 646/646
f 648/648 633/633 634/634
f 647/647 649/649 559/559
f 649/649 606/606 559/559
f 650/650 641/641 642/642
f 651/651 645/645 641/641
f 651/651 646/646 650/650
f 651/651 652/652 645/645
f 654/654 649/649 653/653
f 656/656 655/655 650/650
f 657/657 652/652 651/651
f 656/656 657/657 655/655
f 658/658 649/649 652/652
f 608/608 649/649 659/659
f 574/574 606/606 660/660
f 661/661 654/654 657/657
f 663/663 658/658 662/662
f 665/665 664/664 657/657
f 668/668 667/667 666/666
f 667/667 669/669 666/666
f 666/666 669/669 670/670
f 669/669 671/671 670/670
f 674/674 673/673 672/672
f 676/676 675/675 670/670
f 676/676 677/677 675/675
f 677/677 679/679 678/678
f 677/677 680/680 679/679
f 680/680 681/681 679/679
f 680/680 682/682 681/681
f 682/682 683/683 681/681
f 682/682 684/684 683/683
f 684/684 685/685 683/683
f 688/688 687/687 686/686
f 687/687 690/690 689/689
f 686/686 692/692 691/691
f 692/692 694/694 693/693
f 697/697 696/696 695/695
f 696/696 698/698 695/695
f 701/701 700/700 699/699
f 700/700 703/703 702/702
f 703/703 704/704 702/702
f 706/706 705/705 699/699
f 704/704 707/707 705/705
f 709/709 708/708 705/705
f 708/708 709/709 710/710
f 709/709 712/712 711/711
f 715/715 714/714 713/713
f 717/717 716/716 713/713
f 716/716 718/718 713/713
f 718/718 719/719 713/713
f 722/722 721/721 720/720
f 724/724 723/723 719/719
f 726/726 721/721 725/725
f 724/724 727/727 725/725
f 730/730 729/729 728/728
f 729/729 731/731 728/728
f 728/728 731/731 732/732
f 731/731 733/733 732/732
f 731/731 735/735 734/734
f 732/732 733/733 736/736
f 733/733 738/738 737/737
f 733/733 731/731 739/739
f 731/731 734/734 739/739
f 741/741 738/738 740/740
f 743/743 736/736 742/742
f 738/738 733/733 744/744
f 738/738 744/744 742/742
f 733/733 739/739 744/744
f 729/729 745/745 734/734
f 743/743 742/742 746/746
f 744/744 747/747 742/742
f 740/740 747/747 748/748
f 746/746 742/742 748/748
f 749/749 743/743 746/746
f 739/739 734/734 750/750
f 744/744 739/739 751/751
f 739/739 750/750 751/751
f 754/754 753/753 752/752
f 734/734 752/752 750/750
f 747/747 756/756 755/755
f 747/747 757/757 748/748
f 744/744 758/758 755/755
f 745/745 760/760 759/759
f 750/750 752/752 761/761
f 752/752 763/763 762/762
f 761/761 752/752 762/762
f 751/751 750/750 764/764
f 764/764 750/750 761/761
f 755/755 765/765 748/748
f 767/767 751/751 766/766
f 766/766 751/751 764/764
f 770/770 769/769 768/768
f 757/757 772/772 771/771
f 765/765 755/755 773/773
f 761/761 762/762 774/774
f 764/764 761/761 775/775
f 776/776 774/774 775/775
f 768/768 764/764 777/777
f 770/770 766/766 777/777
f 764/764 775/775 778/778
f 762/762 779/779 774/774
f 770/770 780/780 773/773
f 781/781 772/772 777/777
f 775/775 774/774 782/782
f 774/774 784/784 783/783
f 774/774 783/783 785/785
f 746/746 748/748 786/786
f 777/777 775/775 787/787
f 781/781 777/777 787/787
f 775/775 788/788 787/787
f 780/780 789/789 773/773
f 791/791 765/765 790/790
f 786/786 793/793 792/792
f 795/795 780/780 794/794
f 789/789 780/780 795/795
f 779/779 796/796 783/783
f 788/788 783/783 797/797
f 765/765 773/773 798/798
f 792/792 765/765 798/798
f 794/794 788/788 799/799
f 801/801 782/782 800/800
f 783/783 803/803 802/802
f 797/797 783/783 802/802
f 795/795 787/787 804/804
f 804/804 794/794 801/801
f 749/749 746/746 805/805
f 806/806 789/789 795/795
f 771/771 789/789 807/807
f 798/798 773/773 807/807
f 808/808 795/795 804/804
f 809/809 795/795 808/808
f 812/812 811/811 810/810
f 801/801 812/812 813/813
f 800/800 814/814 813/813
f 804/804 799/799 815/815
f 817/817 816/816 815/815
f 799/799 818/818 815/815
f 802/802 820/820 819/819
f 789/789 809/809 821/821
f 807/807 822/822 821/821
f 823/823 806/806 808/808
f 824/824 808/808 815/815
f 823/823 808/808 824/824
f 806/806 823/823 825/825
f 821/821 806/806 825/825
f 828/828 827/827 826/826
f 823/823 830/830 829/829
f 833/833 832/832 831/831
f 836/836 835/835 834/834
f 838/838 837/837 786/786
f 746/746 838/838 805/805
f 821/821 836/836 839/839
f 839/839 840/840 834/834
f 807/807 821/821 841/841
f 841/841 821/821 839/839
f 798/798 807/807 842/842
f 843/843 807/807 841/841
f 845/845 844/844 843/843
f 792/792 798/798 845/845
f 847/847 839/839 846/846
f 841/841 839/839 848/848
f 843/843 841/841 849/849
f 849/849 850/850 848/848
f 852/852 851/851 843/843
f 853/853 848/848 834/834
f 854/854 842/842 849/849
f 855/855 852/852 842/842
f 856/856 792/792 845/845
f 856/856 851/851 857/857
f 786/786 792/792 856/856
f 849/849 848/848 858/858
f 858/858 847/847 859/859
f 854/854 861/861 860/860
f 862/862 849/849 858/858
f 863/863 852/852 854/854
f 865/865 856/856 864/864
f 865/865 866/866 863/863
f 868/868 854/854 867/867
f 868/868 863/863 854/854
f 869/869 786/786 856/856
f 869/869 856/856 870/870
f 872/872 871/871 853/853
f 869/869 873/873 786/786
f 873/873 874/874 786/786
f 875/875 870/870 863/863
f 876/876 869/869 870/870
f 878/878 870/870 877/877
f 876/876 879/879 869/869
f 879/879 873/873 869/869
f 880/880 878/878 877/877
f 881/881 879/879 878/878
f 880/880 882/882 878/878
f 883/883 873/873 879/879
f 874/874 873/873 884/884
f 805/805 838/838 884/884
f 887/887 886/886 885/885
f 887/887 888/888 879/879
f 889/889 887/887 885/885
f 892/892 891/891 890/890
f 895/895 894/894 893/893
f 894/894 896/896 890/890
f 896/896 897/897 890/890
f 899/899 898/898 893/893
f 901/901 900/900 893/893
f 900/900 902/902 890/890
f 902/902 903/903 890/890
f 903/903 904/904 893/893
f 904/904 899/899 893/893
f 907/907 906/906 905/905
f 906/906 908/908 905/905
f 908/908 909/909 905/905
f 911/911 910/910 905/905
f 913/913 907/907 912/912
f 910/910 914/914 912/912
f 914/914 915/915 905/905
f 915/915 916/916 905/905
f 918/918 917/917 905/905
f 917/917 920/920 919/919
f 923/923 922/922 921/921
f 922/922 924/924 921/921
f 926/926 925/925 921/921
f 925/925 927/927 921/921
f 929/929 923/923 928/928
f 927/927 930/930 921/921
f 930/930 931/931 921/921
f 931/931 932/932 921/921
f 932/932 933/933 921/921
f 933/933 934/934 921/921
f 937/937 936/936 935/935
f 936/936 938/938 935/935
f 938/938 940/940 939/939
f 940/940 941/941 939/939
f 942/942 937/937 935/935
f 944/944 943/943 935/935
f 946/946 945/945 939/939
f 945/945 947/947 939/939
f 947/947 948/948 939/939
f 949/949 942/942 939/939
f 952/952 951/951 950/950
f 951/951 953/953 950/950
f 955/955 954/954 950/950
f 954/954 956/956 950/950
f 957/957 952/952 950/950
f 959/959 958/958 950/950
f 958/958 961/961 960/960
f 961/961 962/962 950/950
f 962/962 963/963 950/950
f 964/964 957/957 950/950
f 967/967 966/966 965/965
f 970/970 969/969 968/968
f 972/972 971/971 965/965
f 971/971 974/974 973/973
f 975/975 967/967 965/965
f 977/977 976/976 965/965
f 976/976 978/978 965/965
f 978/978 979/979 965/965
f 979/979 980/980 965/965
f 981/981 975/975 965/965
