mtllib sherman_hull_m5.mtl
o sherman_hull_m5
v 1.13523 -0.50985 -2.80517
v 1.01280 -0.62780 -2.82884
v 1.13435 -0.62977 -2.82844
v 1.01486 -0.50790 -2.80556
v 1.01280 -0.62780 -2.82884
v 0.87980 -0.50632 -2.80587
v 0.87892 -0.62624 -2.82915
v 1.01486 -0.50790 -2.80556
v -0.79172 -0.62755 -2.82844
v -1.07661 -0.50549 -2.80556
v -1.07992 -0.62539 -2.82884
v -0.79036 -0.50763 -2.80517
v -1.07992 -0.62539 -2.82884
v -1.29966 -0.50381 -2.80587
v -1.30101 -0.62373 -2.82915
v -1.07992 -0.62539 -2.82884
v -1.07661 -0.50549 -2.80556
v -1.29966 -0.50381 -2.80587
v -1.38467 -0.59858 -1.59966
v -1.38564 -0.41361 -1.36069
v -1.38585 -0.59858 -1.36069
v -1.38467 -0.59858 -1.59966
v -1.38446 -0.41361 -1.60028
v -1.38564 -0.41361 -1.36069
v -1.37925 -0.42586 1.20915
v -1.37895 -0.16337 1.36867
v -1.37925 -0.42586 1.36867
v -1.37895 -0.16337 1.20915
v -1.37925 -0.42586 1.04963
v -1.37895 -0.16337 1.20915
v -1.37925 -0.42586 1.20915
v -1.37895 -0.16337 1.04963
v -1.38013 -0.41361 -2.47778
v -1.38192 -0.59858 -2.15661
v -1.38034 -0.59858 -2.47778
v -1.38013 -0.41361 -2.47778
v -1.38174 -0.41361 -2.15153
v -1.38192 -0.59858 -2.15661
v -1.38331 -0.41361 -1.83231
v -1.38467 -0.59858 -1.59966
v -1.38352 -0.59858 -1.83321
v -1.38446 -0.41361 -1.60028
v -1.38467 -0.59858 -1.59966
v -1.38174 -0.41361 -2.15153
v -1.38352 -0.59858 -1.83321
v -1.38192 -0.59858 -2.15661
v -1.38288 -0.41361 -1.91923
v -1.38174 -0.41361 -2.15153
v -1.38331 -0.41361 -1.83231
v 1.37876 -0.41679 -1.36069
v 1.37736 -0.60176 -1.59966
v 1.37854 -0.60176 -1.36069
v 1.37757 -0.41679 -1.60028
v 1.37736 -0.60176 -1.59966
v 1.37264 -0.16654 1.36867
v 1.37234 -0.42903 1.20915
v 1.37234 -0.42903 1.36867
v 1.37264 -0.16654 1.20915
v 1.37264 -0.16654 1.20915
v 1.37234 -0.42903 1.04963
v 1.37234 -0.42903 1.20915
v 1.37264 -0.16654 1.04963
v 1.37324 -0.41678 -2.47778
v 1.37461 -0.60176 -2.15661
v 1.37485 -0.41679 -2.15153
v 1.37324 -0.41678 -2.47778
v 1.37303 -0.60175 -2.47778
v 1.37461 -0.60176 -2.15661
v 1.37643 -0.41679 -1.83231
v 1.37736 -0.60176 -1.59966
v 1.37757 -0.41679 -1.60028
v 1.37621 -0.60176 -1.83321
v 1.37600 -0.41679 -1.91923
v 1.37621 -0.60176 -1.83321
v 1.37643 -0.41679 -1.83231
v 1.37600 -0.41679 -1.91923
v 1.37461 -0.60176 -2.15661
v 1.37621 -0.60176 -1.83321
v 1.37485 -0.41679 -2.15153
v 1.37461 -0.60176 -2.15661
v -0.99366 -0.25460 2.01064
v -1.28169 -0.12762 1.88399
v -0.99352 -0.12795 1.88399
v -1.28183 -0.25427 2.01064
vt 0.49886 0.01809
vt 0.49700 0.03271
vt 0.49886 0.03271
vt 0.49703 0.01809
vt 0.48447 0.08030
vt 0.48241 0.06568
vt 0.48241 0.08030
vt 0.48451 0.06568
vt 0.48311 0.14108
vt 0.47782 0.12646
vt 0.47779 0.14108
vt 0.48311 0.12646
vt 0.48131 0.15570
vt 0.47735 0.14108
vt 0.47735 0.15570
vt 0.48131 0.15570
vt 0.48135 0.14108
vt 0.47735 0.14108
vt 0.48643 0.14108
vt 0.48311 0.12586
vt 0.48311 0.14108
vt 0.48643 0.14108
vt 0.48644 0.12586
vt 0.48311 0.12586
vt 0.48244 0.12379
vt 0.47935 0.08107
vt 0.47935 0.12379
vt 0.48244 0.08107
vt 0.48243 0.12379
vt 0.47934 0.08107
vt 0.47934 0.12379
vt 0.48243 0.08102
vt 0.47545 0.12586
vt 0.47099 0.14108
vt 0.47545 0.14108
vt 0.47545 0.12586
vt 0.47092 0.12586
vt 0.47099 0.14108
vt 0.50020 0.01715
vt 0.49696 0.03234
vt 0.50020 0.03234
vt 0.49697 0.01715
vt 0.49696 0.03234
vt 0.48395 0.00128
vt 0.47953 0.01650
vt 0.48403 0.01650
vt 0.48072 0.00128
vt 0.48395 0.00128
vt 0.47952 0.00128
vt 0.48644 0.12586
vt 0.48312 0.14108
vt 0.48644 0.14108
vt 0.48311 0.12586
vt 0.48312 0.14108
vt 0.48243 0.08107
vt 0.47934 0.12379
vt 0.48243 0.12379
vt 0.47934 0.08107
vt 0.48244 0.08107
vt 0.47935 0.12379
vt 0.48244 0.12379
vt 0.47935 0.08102
vt 0.47092 0.12586
vt 0.47539 0.14108
vt 0.47545 0.12586
vt 0.47092 0.12586
vt 0.47092 0.14108
vt 0.47539 0.14108
vt 0.49697 0.01715
vt 0.50020 0.03234
vt 0.50020 0.01715
vt 0.49696 0.03234
vt 0.48281 0.00128
vt 0.48401 0.01650
vt 0.48403 0.00128
vt 0.48281 0.00128
vt 0.47952 0.01650
vt 0.48401 0.01650
vt 0.47959 0.00128
vt 0.47952 0.01650
vt 0.48153 0.04833
vt 0.48615 0.01909
vt 0.48153 0.01909
vt 0.48615 0.04833
usemtl sherman_hull_m5
s 1
f 3/3 2/2 1/1
f 2/2 4/4 1/1
f 7/7 6/6 5/5
f 6/6 8/8 5/5
f 11/11 10/10 9/9
f 10/10 12/12 9/9
f 15/15 14/14 13/13
f 18/18 17/17 16/16
f 21/21 20/20 19/19
f 24/24 23/23 22/22
f 27/27 26/26 25/25
f 26/26 28/28 25/25
f 31/31 30/30 29/29
f 30/30 32/32 29/29
f 35/35 34/34 33/33
f 38/38 37/37 36/36
f 41/41 40/40 39/39
f 43/43 42/42 39/39
f 46/46 45/45 44/44
f 48/48 45/45 47/47
f 45/45 49/49 47/47
f 52/52 51/51 50/50
f 54/54 53/53 50/50
f 57/57 56/56 55/55
f 56/56 58/58 55/55
f 61/61 60/60 59/59
f 60/60 62/62 59/59
f 65/65 64/64 63/63
f 68/68 67/67 66/66
f 71/71 70/70 69/69
f 70/70 72/72 69/69
f 75/75 74/74 73/73
f 78/78 77/77 76/76
f 73/73 80/80 79/79
f 83/83 82/82 81/81
f 82/82 84/84 81/81
