mtllib sherman_hull_m6.mtl
o sherman_hull_m6
v -0.87008 -0.62037 2.58148
v -0.57846 -0.63250 2.56927
v -0.87049 -0.63217 2.56927
v -0.87154 -0.64743 2.52244
v 0.86346 -0.56873 2.60600
v -0.86805 -0.54720 2.62624
v -0.87154 -0.64743 2.52244
v 0.86754 -0.66897 2.50220
v 0.86346 -0.56873 2.60600
v -0.87154 -0.64743 2.52244
v 0.86748 -0.72264 2.55402
v 0.86754 -0.66897 2.50220
v -0.87154 -0.64743 2.52244
v -0.87161 -0.70109 2.57426
v 0.86748 -0.72264 2.55402
v -0.86811 -0.60086 2.67806
v 0.86346 -0.56873 2.60600
v 0.86340 -0.62239 2.65782
v -0.86811 -0.60086 2.67806
v -0.86805 -0.54720 2.62624
v 0.86346 -0.56873 2.60600
v 0.86346 -0.56873 2.60600
v 0.86748 -0.72264 2.55402
v 0.86340 -0.62239 2.65782
v 0.86754 -0.66897 2.50220
v -0.57846 -0.63250 2.56927
v -0.87053 -0.67033 2.60612
v -0.87049 -0.63217 2.56927
v -0.57850 -0.67067 2.60612
v -0.87008 -0.62037 2.58148
v -0.57850 -0.67067 2.60612
v -0.57846 -0.63250 2.56927
v -0.87012 -0.65853 2.61833
v -0.87008 -0.62037 2.58148
v -0.86811 -0.60086 2.67806
v -0.87012 -0.65853 2.61833
v -0.87008 -0.62037 2.58148
v -0.86805 -0.54720 2.62624
v -0.86811 -0.60086 2.67806
v -0.87008 -0.62037 2.58148
v -0.87154 -0.64743 2.52244
v -0.86805 -0.54720 2.62624
v -0.87049 -0.63217 2.56927
v -0.87161 -0.70109 2.57426
v -0.87161 -0.70109 2.57426
v -0.87049 -0.63217 2.56927
v -0.87053 -0.67033 2.60612
v -0.57850 -0.67067 2.60612
v -0.87161 -0.70109 2.57426
v -0.87053 -0.67033 2.60612
v -0.57850 -0.67067 2.60612
v 0.86748 -0.72264 2.55402
v -0.87161 -0.70109 2.57426
v 0.86340 -0.62239 2.65782
v -0.86811 -0.60086 2.67806
v 0.86340 -0.62239 2.65782
v -0.87012 -0.65853 2.61833
v -0.86811 -0.60086 2.67806
vt 0.43242 0.00122
vt 0.42352 0.00122
vt 0.42352 0.12805
vt 0.43624 0.00122
vt 0.43309 0.25025
vt 0.43309 0.00122
vt 0.43624 0.00122
vt 0.43624 0.25025
vt 0.43309 0.25025
vt 0.43902 0.00265
vt 0.43625 0.00245
vt 0.43902 0.00245
vt 0.43902 0.00265
vt 0.43625 0.00265
vt 0.43625 0.00245
vt 0.43626 0.24974
vt 0.43901 0.17154
vt 0.43626 0.17154
vt 0.43626 0.24974
vt 0.43901 0.24974
vt 0.43901 0.17154
vt 0.42969 0.05205
vt 0.42915 0.02743
vt 0.42915 0.05205
vt 0.42969 0.02743
vt 0.42352 0.00122
vt 0.43141 0.08706
vt 0.43141 0.00122
vt 0.42352 0.08706
vt 0.43011 0.00122
vt 0.43902 0.08706
vt 0.43902 0.00122
vt 0.43011 0.08706
vt 0.42953 0.03785
vt 0.42915 0.05205
vt 0.42915 0.03785
vt 0.42953 0.03785
vt 0.42969 0.05205
vt 0.42915 0.05205
vt 0.42953 0.03785
vt 0.42969 0.02743
vt 0.42969 0.05205
vt 0.42953 0.03496
vt 0.42915 0.02743
vt 0.42915 0.02743
vt 0.42953 0.03496
vt 0.42915 0.03496
vt 0.43517 0.04285
vt 0.43624 0.00122
vt 0.43527 0.00122
vt 0.43517 0.04285
vt 0.43624 0.25025
vt 0.43624 0.00122
vt 0.43309 0.25025
vt 0.43309 0.00122
vt 0.43309 0.25025
vt 0.43490 0.00122
vt 0.43309 0.00122
vn -0.0008 -0.7193 0.6947
vn -0.0008 -0.7193 0.6947
vn -0.0008 -0.7193 0.6947
vn 0.0008 0.7193 -0.6947
vn 0.0008 0.7193 -0.6947
vn 0.0008 0.7193 -0.6947
vn 0.0008 0.7193 -0.6947
vn 0.0008 0.7193 -0.6947
vn 0.0008 0.7193 -0.6947
vn -0.0170 -0.6945 -0.7192
vn -0.0170 -0.6945 -0.7192
vn -0.0170 -0.6945 -0.7192
vn -0.0170 -0.6945 -0.7192
vn -0.0170 -0.6945 -0.7192
vn -0.0170 -0.6945 -0.7192
vn 0.0170 0.6945 0.7192
vn 0.0170 0.6945 0.7192
vn 0.0170 0.6945 0.7192
vn 0.0170 0.6945 0.7192
vn 0.0170 0.6945 0.7192
vn 0.0170 0.6945 0.7192
vn 0.9996 0.0190 0.0209
vn 0.9996 0.0190 0.0209
vn 0.9996 0.0190 0.0209
vn 0.9996 0.0190 0.0209
vn 0.0008 0.6947 0.7193
vn 0.0008 0.6947 0.7193
vn 0.0008 0.6947 0.7193
vn 0.0008 0.6947 0.7193
vn -0.0589 -0.6934 -0.7181
vn -0.0589 -0.6934 -0.7181
vn -0.0589 -0.6934 -0.7181
vn -0.0589 -0.6934 -0.7181
vn -0.9997 0.0174 0.0168
vn -0.9997 0.0174 0.0168
vn -0.9997 0.0174 0.0168
vn -0.9997 0.0174 0.0168
vn -0.9997 0.0174 0.0168
vn -0.9997 0.0174 0.0168
vn -0.9997 0.0174 0.0168
vn -0.9997 0.0174 0.0168
vn -0.9997 0.0174 0.0168
vn -0.9997 0.0174 0.0168
vn -0.9997 0.0174 0.0168
vn -0.9997 0.0174 0.0168
vn -0.9997 0.0174 0.0168
vn -0.9997 0.0174 0.0168
vn -0.0008 -0.7193 0.6947
vn -0.0008 -0.7193 0.6947
vn -0.0008 -0.7193 0.6947
vn -0.0008 -0.7193 0.6947
vn -0.0008 -0.7193 0.6947
vn -0.0008 -0.7193 0.6947
vn -0.0008 -0.7193 0.6947
vn -0.0008 -0.7193 0.6947
vn -0.0008 -0.7193 0.6947
vn -0.0008 -0.7193 0.6947
vn -0.0008 -0.7193 0.6947
usemtl sherman_hull_m6
f 3/3/3 2/2/2 1/1/1
f 6/6/6 5/5/5 4/4/4
f 9/9/9 8/8/8 7/7/7
f 12/12/12 11/11/11 10/10/10
f 15/15/15 14/14/14 13/13/13
f 18/18/18 17/17/17 16/16/16
f 21/21/21 20/20/20 19/19/19
f 24/24/24 23/23/23 22/22/22
f 23/23/23 25/25/25 22/22/22
f 28/28/28 27/27/27 26/26/26
f 27/27/27 29/29/29 26/26/26
f 32/32/32 31/31/31 30/30/30
f 31/31/31 33/33/33 30/30/30
f 36/36/36 35/35/35 34/34/34
f 39/39/39 38/38/38 37/37/37
f 42/42/42 41/41/41 40/40/40
f 41/41/41 43/43/43 40/40/40
f 43/43/43 41/41/41 44/44/44
f 47/47/47 46/46/46 45/45/45
f 50/50/50 49/49/49 48/48/48
f 53/53/53 52/52/52 51/51/51
f 51/51/51 52/52/52 54/54/54
f 56/56/56 55/55/55 48/48/48
f 58/58/58 57/57/57 51/51/51
