mtllib sherman_turret_m0.mtl
o sherman_turret_m0
v -0.70687 0.13863 0.88312
v -0.69048 0.58813 0.87096
v -0.65609 0.58556 0.83681
v -0.70687 0.13863 0.88312
v -0.74355 0.14223 0.91972
v -0.69048 0.58813 0.87096
v -1.04001 0.12672 -0.01751
v -0.98265 0.57085 -0.01751
v -1.03101 0.57292 -0.01751
v -0.99167 0.12362 -0.01751
v -0.84743 0.14016 0.79246
v -0.74355 0.14223 0.91972
v -0.70687 0.13863 0.88312
v -0.84743 0.14016 0.79246
v -0.80811 0.13664 0.76125
v -0.90739 0.13469 0.63634
v -0.80811 0.13664 0.76125
v -0.94933 0.13815 0.66193
v -1.02174 0.13563 0.49353
v -0.97698 0.13231 0.47908
v -1.02174 0.13563 0.49353
v -1.01868 0.12983 0.33122
v -1.06732 0.13300 0.33534
v -1.02174 0.13563 0.49353
v -1.05354 0.12983 0.15728
v -1.00505 0.12669 0.15524
v -1.05354 0.12983 0.15728
v -1.00505 0.12669 0.15524
v -1.04001 0.12672 -0.01751
v -1.05354 0.12983 0.15728
v -1.00505 0.12669 0.15524
v -0.99167 0.12362 -0.01751
v -1.04001 0.12672 -0.01751
v -0.69048 0.58813 0.87096
v -0.76271 0.58361 0.72259
v -0.65609 0.58556 0.83681
v -0.80026 0.58611 0.75185
v -0.76271 0.58361 0.72259
v -0.80026 0.58611 0.75185
v -0.86696 0.58171 0.60479
v -0.90760 0.58414 0.62891
v -0.94215 0.57941 0.45762
v -0.98632 0.58169 0.47128
v -0.94215 0.57941 0.45762
v -0.98632 0.58169 0.47128
v -0.98767 0.57700 0.32007
v -1.03608 0.57914 0.32410
v -1.03352 0.57600 0.15172
v -0.98513 0.57389 0.14972
v -1.03101 0.57292 -0.01751
v -0.98513 0.57389 0.14972
v -1.03352 0.57600 0.15172
v -0.98265 0.57085 -0.01751
v -0.80026 0.58611 0.75185
v -0.69048 0.58813 0.87096
v -0.74355 0.14223 0.91972
v -0.80026 0.58611 0.75185
v -0.84743 0.14016 0.79246
v -0.90760 0.58414 0.62891
v -0.94933 0.13815 0.66193
v -1.02174 0.13563 0.49353
v -0.98632 0.58169 0.47128
v -1.03608 0.57914 0.32410
v -1.06732 0.13300 0.33534
v -1.03608 0.57914 0.32410
v -1.05354 0.12983 0.15728
v -1.06732 0.13300 0.33534
v -1.05354 0.12983 0.15728
v -1.03352 0.57600 0.15172
v -1.03101 0.57292 -0.01751
v -1.05354 0.12983 0.15728
v -1.04001 0.12672 -0.01751
vt 0.55575 0.24907
vt 0.54196 0.22818
vt 0.54196 0.24919
vt 0.55575 0.24907
vt 0.55573 0.22808
vt 0.54196 0.22818
vt 0.55571 0.24939
vt 0.54194 0.22793
vt 0.54194 0.24932
vt 0.55574 0.22801
vt 0.55774 0.05303
vt 0.55774 0.01550
vt 0.55591 0.01560
vt 0.55774 0.05303
vt 0.55591 0.05310
vt 0.55591 0.08955
vt 0.55591 0.05310
vt 0.55774 0.08948
vt 0.55774 0.12646
vt 0.55591 0.12646
vt 0.55774 0.12646
vt 0.55591 0.16423
vt 0.55774 0.16423
vt 0.55774 0.12646
vt 0.55774 0.20126
vt 0.55591 0.20126
vt 0.55774 0.20126
vt 0.55591 0.20126
vt 0.55774 0.23746
vt 0.55774 0.20126
vt 0.55591 0.20126
vt 0.55591 0.23746
vt 0.55774 0.23746
vt 0.55774 0.01550
vt 0.55591 0.05310
vt 0.55591 0.01560
vt 0.55774 0.05303
vt 0.55591 0.05310
vt 0.55774 0.05303
vt 0.55591 0.08955
vt 0.55774 0.08948
vt 0.55591 0.12646
vt 0.55774 0.12646
vt 0.55591 0.12646
vt 0.55774 0.12646
vt 0.55591 0.16423
vt 0.55774 0.16423
vt 0.55774 0.20126
vt 0.55591 0.20126
vt 0.55774 0.23746
vt 0.55591 0.20126
vt 0.55774 0.20126
vt 0.55591 0.23746
vt 0.56069 0.20747
vt 0.56069 0.24914
vt 0.57300 0.24914
vt 0.56069 0.20747
vt 0.57300 0.20747
vt 0.56069 0.16680
vt 0.57300 0.16680
vt 0.57300 0.12568
vt 0.56069 0.12568
vt 0.56069 0.08364
vt 0.57300 0.08364
vt 0.56069 0.08364
vt 0.57300 0.04250
vt 0.57300 0.08364
vt 0.57300 0.04250
vt 0.56069 0.04250
vt 0.56069 0.00212
vt 0.57300 0.04250
vt 0.57300 0.00212
vn 0.7043 -0.0065 0.7098
vn 0.7043 -0.0065 0.7098
vn 0.7043 -0.0065 0.7098
vn 0.7061 -0.0066 0.7081
vn 0.7061 -0.0066 0.7081
vn 0.7061 -0.0066 0.7081
vn -0.0000 0.0000 -1.0000
vn -0.0000 -0.0000 -1.0000
vn -0.0000 -0.0000 -1.0000
vn -0.0000 0.0000 -1.0000
vn -0.0473 -0.9975 0.0532
vn -0.0451 -0.9976 0.0530
vn -0.0453 -0.9976 0.0533
vn -0.0462 -0.9974 0.0546
vn -0.0462 -0.9974 0.0546
vn -0.0537 -0.9975 0.0470
vn -0.0474 -0.9975 0.0531
vn -0.0536 -0.9975 0.0470
vn -0.0580 -0.9975 0.0399
vn -0.0616 -0.9974 0.0382
vn -0.0616 -0.9974 0.0381
vn -0.0632 -0.9977 0.0237
vn -0.0631 -0.9977 0.0235
vn -0.0622 -0.9975 0.0345
vn -0.0641 -0.9979 0.0128
vn -0.0640 -0.9979 0.0128
vn -0.0640 -0.9979 0.0128
vn -0.0640 -0.9979 0.0128
vn -0.0640 -0.9979 0.0128
vn -0.0640 -0.9979 0.0128
vn -0.0640 -0.9979 0.0128
vn -0.0640 -0.9979 0.0128
vn -0.0640 -0.9979 0.0128
vn 0.0302 0.9985 -0.0451
vn 0.0316 0.9985 -0.0444
vn 0.0300 0.9985 -0.0450
vn 0.0310 0.9985 -0.0455
vn 0.0310 0.9985 -0.0455
vn 0.0321 0.9985 -0.0444
vn 0.0357 0.9986 -0.0403
vn 0.0361 0.9985 -0.0400
vn 0.0415 0.9986 -0.0320
vn 0.0406 0.9985 -0.0358
vn 0.0406 0.9985 -0.0358
vn 0.0419 0.9986 -0.0314
vn 0.0423 0.9988 -0.0247
vn 0.0423 0.9988 -0.0241
vn 0.0428 0.9989 -0.0175
vn 0.0428 0.9989 -0.0175
vn 0.0428 0.9989 -0.0175
vn 0.0428 0.9989 -0.0176
vn 0.0428 0.9989 -0.0176
vn 0.0428 0.9989 -0.0175
vn -0.7272 0.1595 0.6676
vn -0.7272 0.1595 0.6676
vn -0.7596 0.1429 0.6345
vn -0.7511 0.1382 0.6455
vn -0.7721 0.1305 0.6220
vn -0.8330 0.1171 0.5408
vn -0.8552 0.1174 0.5048
vn -0.9340 0.0937 0.3448
vn -0.9198 0.0921 0.3815
vn -0.9899 0.0691 0.1238
vn -0.9586 0.0741 0.2749
vn -0.9586 0.0741 0.2749
vn -0.9946 0.0677 -0.0782
vn -0.9946 0.0677 -0.0782
vn -0.9989 0.0446 -0.0156
vn -0.9989 0.0446 -0.0156
vn -0.9988 0.0388 -0.0303
vn -0.9968 0.0201 -0.0775
vn -0.9968 0.0201 -0.0775
usemtl sherman_turret_m0
f 3/3/3 2/2/2 1/1/1
f 6/6/6 5/5/5 4/4/4
f 9/9/9 8/8/8 7/7/7
f 8/8/8 10/10/10 7/7/7
f 13/13/13 12/12/12 11/11/11
f 15/15/15 13/13/13 14/14/14
f 17/17/17 11/11/11 16/16/16
f 11/11/11 18/18/18 16/16/16
f 18/18/18 19/19/19 16/16/16
f 21/21/21 20/20/20 16/16/16
f 20/20/20 21/21/21 22/22/22
f 24/24/24 23/23/23 22/22/22
f 23/23/23 25/25/25 22/22/22
f 27/27/27 26/26/26 22/22/22
f 30/30/30 29/29/29 28/28/28
f 33/33/33 32/32/32 31/31/31
f 36/36/36 35/35/35 34/34/34
f 38/38/38 37/37/37 34/34/34
f 35/35/35 40/40/40 39/39/39
f 40/40/40 41/41/41 39/39/39
f 40/40/40 42/42/42 41/41/41
f 44/44/44 43/43/43 41/41/41
f 42/42/42 46/46/46 45/45/45
f 46/46/46 47/47/47 45/45/45
f 47/47/47 46/46/46 48/48/48
f 46/46/46 49/49/49 48/48/48
f 52/52/52 51/51/51 50/50/50
f 49/49/49 53/53/53 50/50/50
f 56/56/56 55/55/55 54/54/54
f 58/58/58 56/56/56 57/57/57
f 57/57/57 59/59/59 58/58/58
f 59/59/59 60/60/60 58/58/58
f 60/60/60 59/59/59 61/61/61
f 59/59/59 62/62/62 61/61/61
f 62/62/62 63/63/63 61/61/61
f 65/65/65 64/64/64 61/61/61
f 67/67/67 63/63/63 66/66/66
f 63/63/63 69/69/69 68/68/68
f 69/69/69 70/70/70 68/68/68
f 70/70/70 72/72/72 71/71/71
