mtllib t34_85_hull_m2.mtl
o t34_85_hull_m2
v 0.88552 -0.73724 -2.72763
v 0.88655 -0.82606 -2.81124
v 0.88629 -0.77835 -2.86192
v 0.88526 -0.68953 -2.77831
v 0.88758 -0.91488 -2.89485
v 0.88733 -0.86718 -2.94553
v 0.88798 -0.94419 -2.93961
v 0.88781 -0.91363 -2.97208
v 0.90222 -0.71515 -2.77759
v 0.90310 -0.79065 -2.84865
v 0.94046 -0.78323 -2.85607
v 0.93958 -0.70774 -2.78500
v 0.90398 -0.86615 -2.91972
v 0.94133 -0.85873 -2.92713
v 0.88733 -0.86718 -2.94553
v 0.88781 -0.91363 -2.97208
v 0.94195 -0.91316 -2.97191
v 0.94146 -0.86670 -2.94536
v 0.93900 -0.65976 -2.73338
v 0.93939 -0.68906 -2.77814
v 0.99353 -0.68859 -2.77797
v 0.99313 -0.65929 -2.73321
v 0.94046 -0.78323 -2.85607
v 0.97789 -0.79000 -2.84842
v 0.97701 -0.71450 -2.77735
v 0.97877 -0.86550 -2.91949
v 0.99801 -0.69958 -2.78062
v 0.99887 -0.77405 -2.85072
v 1.04426 -0.77366 -2.85058
v 1.04339 -0.69919 -2.78048
v 0.99969 -0.79001 -2.86462
v 1.00054 -0.86238 -2.93274
v 1.04464 -0.86200 -2.93260
v 1.04380 -0.78963 -2.86448
v 0.99560 -0.86623 -2.94519
v 0.99608 -0.91269 -2.97174
v 1.05022 -0.91222 -2.97157
v 1.04973 -0.86576 -2.94502
v 1.04727 -0.65882 -2.73304
v 1.04766 -0.68812 -2.77780
v 1.10180 -0.68765 -2.77764
v 1.10140 -0.65835 -2.73287
v 1.05246 -0.69991 -2.78064
v 1.05332 -0.77334 -2.84976
v 1.09807 -0.77295 -2.84962
v 1.09722 -0.69952 -2.78050
v 1.05411 -0.79023 -2.86461
v 1.05494 -0.86170 -2.93189
v 1.09850 -0.86132 -2.93176
v 1.09767 -0.78985 -2.86448
v 1.10635 -0.69882 -2.78032
v 1.10721 -0.77306 -2.85021
v 1.15246 -0.77267 -2.85007
v 1.15159 -0.69843 -2.78018
v 1.10867 -0.79082 -2.86470
v 1.10949 -0.86091 -2.93067
v 1.15221 -0.86054 -2.93054
v 1.15139 -0.79045 -2.86456
v 1.10386 -0.86529 -2.94485
v 1.10435 -0.91175 -2.97140
v 1.15849 -0.91128 -2.97123
v 1.15800 -0.86482 -2.94468
v 1.15554 -0.65788 -2.73270
v 1.15593 -0.68718 -2.77747
v 1.21007 -0.68671 -2.77730
v 1.20967 -0.65740 -2.73253
v 1.16062 -0.69870 -2.78024
v 1.16148 -0.77248 -2.84969
v 1.20645 -0.77209 -2.84955
v 1.20559 -0.69831 -2.78010
v 1.16282 -0.79038 -2.86454
v 1.16364 -0.86043 -2.93047
v 1.20633 -0.86006 -2.93034
v 1.20551 -0.79001 -2.86440
v 1.21475 -0.69821 -2.78007
v 1.21561 -0.77202 -2.84954
v 1.26059 -0.77162 -2.84940
v 1.25973 -0.69782 -2.77992
v 1.21681 -0.78954 -2.86428
v 1.21763 -0.86007 -2.93067
v 1.26061 -0.85970 -2.93053
v 1.25979 -0.78917 -2.86414
v 1.21213 -0.86435 -2.94451
v 1.21262 -0.91081 -2.97106
v 1.26675 -0.91034 -2.97089
v 1.26627 -0.86388 -2.94434
v 1.26380 -0.65693 -2.73236
v 1.26420 -0.68624 -2.77713
v 1.31833 -0.68577 -2.77696
v 1.31794 -0.65646 -2.73219
v 1.28116 -0.71186 -2.77640
v 1.28204 -0.78735 -2.84747
v 1.31940 -0.77994 -2.85488
v 1.31852 -0.70444 -2.78382
v 1.28292 -0.86285 -2.91854
v 1.32027 -0.85544 -2.92595
v 1.31940 -0.77994 -2.85488
v 1.35683 -0.78670 -2.84724
v 1.35595 -0.71121 -2.77617
v 1.35771 -0.86220 -2.91830
v 1.32040 -0.86341 -2.94418
v 1.32089 -0.90987 -2.97072
v 1.37502 -0.90939 -2.97055
v 1.37454 -0.86294 -2.94401
v 1.37247 -0.68530 -2.77679
v 1.37350 -0.77412 -2.86040
v 1.37376 -0.82182 -2.80971
v 1.37272 -0.73300 -2.72611
v 1.37454 -0.86294 -2.94401
v 1.37479 -0.91065 -2.89332
v 1.37502 -0.90939 -2.97055
v 1.37519 -0.93995 -2.93809
v 1.36262 -0.73031 -2.74648
v 1.36355 -0.81045 -2.82192
v 1.31960 -0.81792 -2.81453
v 1.31867 -0.73778 -2.73909
v 1.36448 -0.89059 -2.89736
v 1.32053 -0.89807 -2.88997
v 1.37479 -0.91065 -2.89332
v 1.37519 -0.93995 -2.93809
v 1.32105 -0.94042 -2.93826
v 1.32066 -0.91112 -2.89349
v 1.31810 -0.68702 -2.69973
v 1.31859 -0.73347 -2.72627
v 1.26446 -0.73395 -2.72644
v 1.26397 -0.68749 -2.69990
v 1.31960 -0.81792 -2.81453
v 1.27557 -0.81122 -2.82220
v 1.27464 -0.73108 -2.74676
v 1.27651 -0.89136 -2.89763
v 1.25995 -0.73746 -2.73781
v 1.26080 -0.81127 -2.80728
v 1.21582 -0.81166 -2.80742
v 1.21496 -0.73785 -2.73795
v 1.25999 -0.82705 -2.82390
v 1.26082 -0.89758 -2.89029
v 1.21783 -0.89795 -2.89042
v 1.21701 -0.82742 -2.82403
v 1.26652 -0.91159 -2.89366
v 1.26692 -0.94089 -2.93843
v 1.21278 -0.94136 -2.93860
v 1.21239 -0.91206 -2.89383
v 1.20983 -0.68796 -2.70007
v 1.21032 -0.73442 -2.72661
v 1.15619 -0.73489 -2.72678
v 1.15570 -0.68843 -2.70024
v 1.20580 -0.73794 -2.73800
v 1.20666 -0.81172 -2.80745
v 1.16169 -0.81211 -2.80759
v 1.16084 -0.73833 -2.73814
v 1.20572 -0.82763 -2.82443
v 1.20653 -0.89768 -2.89037
v 1.16384 -0.89805 -2.89050
v 1.16302 -0.82800 -2.82457
v 1.15181 -0.73830 -2.73782
v 1.15267 -0.81254 -2.80770
v 1.10742 -0.81293 -2.80784
v 1.10656 -0.73869 -2.73796
v 1.15159 -0.82809 -2.82457
v 1.15241 -0.89818 -2.89055
v 1.10969 -0.89855 -2.89068
v 1.10888 -0.82846 -2.82470
v 1.15825 -0.91253 -2.89400
v 1.15865 -0.94183 -2.93877
v 1.10451 -0.94230 -2.93894
v 1.10412 -0.91300 -2.89417
v 1.10157 -0.68890 -2.70040
v 1.10205 -0.73536 -2.72695
v 1.04792 -0.73583 -2.72712
v 1.04743 -0.68937 -2.70057
v 1.09743 -0.73896 -2.73860
v 1.09828 -0.81239 -2.80772
v 1.05353 -0.81278 -2.80786
v 1.05268 -0.73935 -2.73874
v 1.09788 -0.82824 -2.82369
v 1.09871 -0.89971 -2.89097
v 1.05515 -0.90009 -2.89111
v 1.05431 -0.82862 -2.82383
v 1.04361 -0.73919 -2.73798
v 1.04447 -0.81366 -2.80808
v 0.99909 -0.81405 -2.80823
v 0.99822 -0.73958 -2.73813
v 1.04401 -0.82850 -2.82318
v 1.04485 -0.90087 -2.89130
v 1.00075 -0.90125 -2.89144
v 0.99990 -0.82888 -2.82332
v 1.04999 -0.91347 -2.89434
v 1.05038 -0.94277 -2.93911
v 0.99625 -0.94325 -2.93928
v 0.99585 -0.91394 -2.89451
v 0.99330 -0.68984 -2.70074
v 0.99378 -0.73630 -2.72729
v 0.93965 -0.73677 -2.72746
v 0.93916 -0.69031 -2.70091
v 0.98368 -0.73361 -2.74767
v 0.98461 -0.81375 -2.82311
v 0.94066 -0.82122 -2.81571
v 0.93973 -0.74108 -2.74027
v 0.98554 -0.89389 -2.89854
v 0.94159 -0.90136 -2.89115
v 0.94066 -0.82122 -2.81571
v 0.89663 -0.81451 -2.82338
v 0.89570 -0.73437 -2.74794
v 0.89757 -0.89465 -2.89882
v 0.94172 -0.91441 -2.89468
v 0.94211 -0.94372 -2.93944
v 0.88798 -0.94419 -2.93961
v 0.88758 -0.91488 -2.89485
v 1.32105 -0.94042 -2.93826
v 1.37519 -0.93995 -2.93809
v 1.37502 -0.90939 -2.97055
v 1.32089 -0.90987 -2.97072
v 1.21278 -0.94136 -2.93860
v 1.26692 -0.94089 -2.93843
v 1.26675 -0.91034 -2.97089
v 1.21262 -0.91081 -2.97106
v 1.10451 -0.94230 -2.93894
v 1.15865 -0.94183 -2.93877
v 1.15849 -0.91128 -2.97123
v 1.10435 -0.91175 -2.97140
v 0.99625 -0.94325 -2.93928
v 1.05038 -0.94277 -2.93911
v 1.05022 -0.91222 -2.97157
v 0.99608 -0.91269 -2.97174
v 0.88798 -0.94419 -2.93961
v 0.94211 -0.94372 -2.93944
v 0.94195 -0.91316 -2.97191
v 0.88781 -0.91363 -2.97208
v 1.31810 -0.68702 -2.69973
v 1.26397 -0.68749 -2.69990
v 1.26380 -0.65693 -2.73236
v 1.31794 -0.65646 -2.73219
v 1.20983 -0.68796 -2.70007
v 1.15570 -0.68843 -2.70024
v 1.15554 -0.65788 -2.73270
v 1.20967 -0.65740 -2.73253
v 1.10157 -0.68890 -2.70040
v 1.04743 -0.68937 -2.70057
v 1.04727 -0.65882 -2.73304
v 1.10140 -0.65835 -2.73287
v 0.99330 -0.68984 -2.70074
v 0.93916 -0.69031 -2.70091
v 0.93900 -0.65976 -2.73338
v 0.99313 -0.65929 -2.73321
v 1.10180 -0.68765 -2.77764
v 1.15593 -0.68718 -2.77747
v 1.15619 -0.73489 -2.72678
v 1.10205 -0.73536 -2.72695
v 0.99353 -0.68859 -2.77797
v 1.04766 -0.68812 -2.77780
v 1.04792 -0.73583 -2.72712
v 0.99378 -0.73630 -2.72729
v 0.88526 -0.68953 -2.77831
v 0.93939 -0.68906 -2.77814
v 0.93965 -0.73677 -2.72746
v 0.88552 -0.73724 -2.72763
v 1.21007 -0.68671 -2.77730
v 1.26420 -0.68624 -2.77713
v 1.26446 -0.73395 -2.72644
v 1.21032 -0.73442 -2.72661
v 0.93939 -0.68906 -2.77814
v 0.93900 -0.65976 -2.73338
v 0.93916 -0.69031 -2.70091
v 0.93965 -0.73677 -2.72746
v 0.99353 -0.68859 -2.77797
v 0.99378 -0.73630 -2.72729
v 0.99330 -0.68984 -2.70074
v 0.99313 -0.65929 -2.73321
v 1.04766 -0.68812 -2.77780
v 1.04727 -0.65882 -2.73304
v 1.04743 -0.68937 -2.70057
v 1.04792 -0.73583 -2.72712
v 1.10180 -0.68765 -2.77764
v 1.10205 -0.73536 -2.72695
v 1.10157 -0.68890 -2.70040
v 1.10140 -0.65835 -2.73287
v 1.15593 -0.68718 -2.77747
v 1.15554 -0.65788 -2.73270
v 1.15570 -0.68843 -2.70024
v 1.15619 -0.73489 -2.72678
v 1.21007 -0.68671 -2.77730
v 1.21032 -0.73442 -2.72661
v 1.20983 -0.68796 -2.70007
v 1.20967 -0.65740 -2.73253
v 1.26420 -0.68624 -2.77713
v 1.26380 -0.65693 -2.73236
v 1.26397 -0.68749 -2.69990
v 1.26446 -0.73395 -2.72644
v 1.31833 -0.68577 -2.77696
v 1.37247 -0.68530 -2.77679
v 1.37272 -0.73300 -2.72611
v 1.31859 -0.73347 -2.72627
v 1.31810 -0.68702 -2.69973
v 1.31794 -0.65646 -2.73219
v 1.32040 -0.86341 -2.94418
v 1.26627 -0.86388 -2.94434
v 1.26652 -0.91159 -2.89366
v 1.32066 -0.91112 -2.89349
v 1.21213 -0.86435 -2.94451
v 1.15800 -0.86482 -2.94468
v 1.15825 -0.91253 -2.89400
v 1.21239 -0.91206 -2.89383
v 1.10386 -0.86529 -2.94485
v 1.04973 -0.86576 -2.94502
v 1.04999 -0.91347 -2.89434
v 1.10412 -0.91300 -2.89417
v 0.99560 -0.86623 -2.94519
v 0.94146 -0.86670 -2.94536
v 0.94172 -0.91441 -2.89468
v 0.99585 -0.91394 -2.89451
v 0.94195 -0.91316 -2.97191
v 0.94211 -0.94372 -2.93944
v 0.94172 -0.91441 -2.89468
v 0.94146 -0.86670 -2.94536
v 0.99608 -0.91269 -2.97174
v 0.99560 -0.86623 -2.94519
v 0.99585 -0.91394 -2.89451
v 0.99625 -0.94325 -2.93928
v 1.05022 -0.91222 -2.97157
v 1.05038 -0.94277 -2.93911
v 1.04999 -0.91347 -2.89434
v 1.04973 -0.86576 -2.94502
v 1.10435 -0.91175 -2.97140
v 1.10386 -0.86529 -2.94485
v 1.10412 -0.91300 -2.89417
v 1.10451 -0.94230 -2.93894
v 1.15849 -0.91128 -2.97123
v 1.15865 -0.94183 -2.93877
v 1.15825 -0.91253 -2.89400
v 1.15800 -0.86482 -2.94468
v 1.21262 -0.91081 -2.97106
v 1.21213 -0.86435 -2.94451
v 1.21239 -0.91206 -2.89383
v 1.21278 -0.94136 -2.93860
v 1.26675 -0.91034 -2.97089
v 1.26692 -0.94089 -2.93843
v 1.26652 -0.91159 -2.89366
v 1.26627 -0.86388 -2.94434
v 1.32089 -0.90987 -2.97072
v 1.32040 -0.86341 -2.94418
v 1.32066 -0.91112 -2.89349
v 1.32105 -0.94042 -2.93826
v 0.88526 -0.68953 -2.77831
v 0.88629 -0.77835 -2.86192
v 0.90310 -0.79065 -2.84865
v 0.99456 -0.77741 -2.86158
v 0.97789 -0.79000 -2.84842
v 0.99560 -0.86623 -2.94519
v 1.26523 -0.77506 -2.86074
v 1.28204 -0.78735 -2.84747
v 1.26627 -0.86388 -2.94434
v 1.37350 -0.77412 -2.86040
v 1.37247 -0.68530 -2.77679
v 1.35683 -0.78670 -2.84724
v 1.37272 -0.73300 -2.72611
v 1.37376 -0.82182 -2.80971
v 1.36355 -0.81045 -2.82192
v 1.26549 -0.82277 -2.81005
v 1.27557 -0.81122 -2.82220
v 1.26652 -0.91159 -2.89366
v 0.99482 -0.82512 -2.81090
v 0.98461 -0.81375 -2.82311
v 0.99585 -0.91394 -2.89451
v 0.88655 -0.82606 -2.81124
v 0.88552 -0.73724 -2.72763
v 0.89663 -0.81451 -2.82338
v 1.21110 -0.77553 -2.86091
v 1.21213 -0.86435 -2.94451
v 1.21763 -0.86007 -2.93067
v 1.21681 -0.78954 -2.86428
v 1.21213 -0.86435 -2.94451
v 1.26627 -0.86388 -2.94434
v 1.26061 -0.85970 -2.93053
v 1.21763 -0.86007 -2.93067
v 1.26627 -0.86388 -2.94434
v 1.26523 -0.77506 -2.86074
v 1.25979 -0.78917 -2.86414
v 1.26061 -0.85970 -2.93053
v 1.26523 -0.77506 -2.86074
v 1.21110 -0.77553 -2.86091
v 1.21681 -0.78954 -2.86428
v 1.25979 -0.78917 -2.86414
v 1.26549 -0.82277 -2.81005
v 1.26652 -0.91159 -2.89366
v 1.26082 -0.89758 -2.89029
v 1.25999 -0.82705 -2.82390
v 1.26652 -0.91159 -2.89366
v 1.21239 -0.91206 -2.89383
v 1.21783 -0.89795 -2.89042
v 1.26082 -0.89758 -2.89029
v 1.21239 -0.91206 -2.89383
v 1.21136 -0.82324 -2.81022
v 1.21701 -0.82742 -2.82403
v 1.21783 -0.89795 -2.89042
v 1.21136 -0.82324 -2.81022
v 1.26549 -0.82277 -2.81005
v 1.25999 -0.82705 -2.82390
v 1.21701 -0.82742 -2.82403
v 1.21007 -0.68671 -2.77730
v 1.21110 -0.77553 -2.86091
v 1.21561 -0.77202 -2.84954
v 1.21475 -0.69821 -2.78007
v 1.21110 -0.77553 -2.86091
v 1.26523 -0.77506 -2.86074
v 1.26059 -0.77162 -2.84940
v 1.21561 -0.77202 -2.84954
v 1.26523 -0.77506 -2.86074
v 1.26420 -0.68624 -2.77713
v 1.25973 -0.69782 -2.77992
v 1.26059 -0.77162 -2.84940
v 1.26420 -0.68624 -2.77713
v 1.21007 -0.68671 -2.77730
v 1.21475 -0.69821 -2.78007
v 1.25973 -0.69782 -2.77992
v 1.26446 -0.73395 -2.72644
v 1.26549 -0.82277 -2.81005
v 1.26080 -0.81127 -2.80728
v 1.25995 -0.73746 -2.73781
v 1.26549 -0.82277 -2.81005
v 1.21136 -0.82324 -2.81022
v 1.21582 -0.81166 -2.80742
v 1.26080 -0.81127 -2.80728
v 1.21136 -0.82324 -2.81022
v 1.21032 -0.73442 -2.72661
v 1.21496 -0.73785 -2.73795
v 1.21582 -0.81166 -2.80742
v 1.21032 -0.73442 -2.72661
v 1.26446 -0.73395 -2.72644
v 1.25995 -0.73746 -2.73781
v 1.21496 -0.73785 -2.73795
v 1.15593 -0.68718 -2.77747
v 1.15696 -0.77600 -2.86107
v 1.16148 -0.77248 -2.84969
v 1.16062 -0.69870 -2.78024
v 1.15696 -0.77600 -2.86107
v 1.21110 -0.77553 -2.86091
v 1.20645 -0.77209 -2.84955
v 1.16148 -0.77248 -2.84969
v 1.21110 -0.77553 -2.86091
v 1.21007 -0.68671 -2.77730
v 1.20559 -0.69831 -2.78010
v 1.20645 -0.77209 -2.84955
v 1.21007 -0.68671 -2.77730
v 1.15593 -0.68718 -2.77747
v 1.16062 -0.69870 -2.78024
v 1.20559 -0.69831 -2.78010
v 1.21032 -0.73442 -2.72661
v 1.21136 -0.82324 -2.81022
v 1.20666 -0.81172 -2.80745
v 1.20580 -0.73794 -2.73800
v 1.21136 -0.82324 -2.81022
v 1.15722 -0.82371 -2.81039
v 1.16169 -0.81211 -2.80759
v 1.20666 -0.81172 -2.80745
v 1.15722 -0.82371 -2.81039
v 1.15619 -0.73489 -2.72678
v 1.16084 -0.73833 -2.73814
v 1.16169 -0.81211 -2.80759
v 1.15619 -0.73489 -2.72678
v 1.21032 -0.73442 -2.72661
v 1.20580 -0.73794 -2.73800
v 1.16084 -0.73833 -2.73814
v 1.15696 -0.77600 -2.86107
v 1.15800 -0.86482 -2.94468
v 1.16364 -0.86043 -2.93047
v 1.16282 -0.79038 -2.86454
v 1.15800 -0.86482 -2.94468
v 1.21213 -0.86435 -2.94451
v 1.20633 -0.86006 -2.93034
v 1.16364 -0.86043 -2.93047
v 1.21213 -0.86435 -2.94451
v 1.21110 -0.77553 -2.86091
v 1.20551 -0.79001 -2.86440
v 1.20633 -0.86006 -2.93034
v 1.21110 -0.77553 -2.86091
v 1.15696 -0.77600 -2.86107
v 1.16282 -0.79038 -2.86454
v 1.20551 -0.79001 -2.86440
v 1.21136 -0.82324 -2.81022
v 1.21239 -0.91206 -2.89383
v 1.20653 -0.89768 -2.89037
v 1.20572 -0.82763 -2.82443
v 1.21239 -0.91206 -2.89383
v 1.15825 -0.91253 -2.89400
v 1.16384 -0.89805 -2.89050
v 1.20653 -0.89768 -2.89037
v 1.15825 -0.91253 -2.89400
v 1.15722 -0.82371 -2.81039
v 1.16302 -0.82800 -2.82457
v 1.16384 -0.89805 -2.89050
v 1.15722 -0.82371 -2.81039
v 1.21136 -0.82324 -2.81022
v 1.20572 -0.82763 -2.82443
v 1.16302 -0.82800 -2.82457
v 1.10283 -0.77647 -2.86124
v 1.10386 -0.86529 -2.94485
v 1.10949 -0.86091 -2.93067
v 1.10867 -0.79082 -2.86470
v 1.10386 -0.86529 -2.94485
v 1.15800 -0.86482 -2.94468
v 1.15221 -0.86054 -2.93054
v 1.10949 -0.86091 -2.93067
v 1.15800 -0.86482 -2.94468
v 1.15696 -0.77600 -2.86107
v 1.15139 -0.79045 -2.86456
v 1.15221 -0.86054 -2.93054
v 1.15696 -0.77600 -2.86107
v 1.10283 -0.77647 -2.86124
v 1.10867 -0.79082 -2.86470
v 1.15139 -0.79045 -2.86456
v 1.15722 -0.82371 -2.81039
v 1.15825 -0.91253 -2.89400
v 1.15241 -0.89818 -2.89055
v 1.15159 -0.82809 -2.82457
v 1.15825 -0.91253 -2.89400
v 1.10412 -0.91300 -2.89417
v 1.10969 -0.89855 -2.89068
v 1.15241 -0.89818 -2.89055
v 1.10412 -0.91300 -2.89417
v 1.10309 -0.82418 -2.81056
v 1.10888 -0.82846 -2.82470
v 1.10969 -0.89855 -2.89068
v 1.10309 -0.82418 -2.81056
v 1.15722 -0.82371 -2.81039
v 1.15159 -0.82809 -2.82457
v 1.10888 -0.82846 -2.82470
v 1.10180 -0.68765 -2.77764
v 1.10283 -0.77647 -2.86124
v 1.10721 -0.77306 -2.85021
v 1.10635 -0.69882 -2.78032
v 1.10283 -0.77647 -2.86124
v 1.15696 -0.77600 -2.86107
v 1.15246 -0.77267 -2.85007
v 1.10721 -0.77306 -2.85021
v 1.15696 -0.77600 -2.86107
v 1.15593 -0.68718 -2.77747
v 1.15159 -0.69843 -2.78018
v 1.15246 -0.77267 -2.85007
v 1.15593 -0.68718 -2.77747
v 1.10180 -0.68765 -2.77764
v 1.10635 -0.69882 -2.78032
v 1.15159 -0.69843 -2.78018
v 1.15619 -0.73489 -2.72678
v 1.15722 -0.82371 -2.81039
v 1.15267 -0.81254 -2.80770
v 1.15181 -0.73830 -2.73782
v 1.15722 -0.82371 -2.81039
v 1.10309 -0.82418 -2.81056
v 1.10742 -0.81293 -2.80784
v 1.15267 -0.81254 -2.80770
v 1.10309 -0.82418 -2.81056
v 1.10205 -0.73536 -2.72695
v 1.10656 -0.73869 -2.73796
v 1.10742 -0.81293 -2.80784
v 1.10205 -0.73536 -2.72695
v 1.15619 -0.73489 -2.72678
v 1.15181 -0.73830 -2.73782
v 1.10656 -0.73869 -2.73796
v 1.04766 -0.68812 -2.77780
v 1.04870 -0.77694 -2.86141
v 1.05332 -0.77334 -2.84976
v 1.05246 -0.69991 -2.78064
v 1.04870 -0.77694 -2.86141
v 1.10283 -0.77647 -2.86124
v 1.09807 -0.77295 -2.84962
v 1.05332 -0.77334 -2.84976
v 1.10283 -0.77647 -2.86124
v 1.10180 -0.68765 -2.77764
v 1.09722 -0.69952 -2.78050
v 1.09807 -0.77295 -2.84962
v 1.10180 -0.68765 -2.77764
v 1.04766 -0.68812 -2.77780
v 1.05246 -0.69991 -2.78064
v 1.09722 -0.69952 -2.78050
v 1.10205 -0.73536 -2.72695
v 1.10309 -0.82418 -2.81056
v 1.09828 -0.81239 -2.80772
v 1.09743 -0.73896 -2.73860
v 1.10309 -0.82418 -2.81056
v 1.04895 -0.82465 -2.81073
v 1.05353 -0.81278 -2.80786
v 1.09828 -0.81239 -2.80772
v 1.04895 -0.82465 -2.81073
v 1.04792 -0.73583 -2.72712
v 1.05268 -0.73935 -2.73874
v 1.05353 -0.81278 -2.80786
v 1.04792 -0.73583 -2.72712
v 1.10205 -0.73536 -2.72695
v 1.09743 -0.73896 -2.73860
v 1.05268 -0.73935 -2.73874
v 1.04870 -0.77694 -2.86141
v 1.04973 -0.86576 -2.94502
v 1.05494 -0.86170 -2.93189
v 1.05411 -0.79023 -2.86461
v 1.04973 -0.86576 -2.94502
v 1.10386 -0.86529 -2.94485
v 1.09850 -0.86132 -2.93176
v 1.05494 -0.86170 -2.93189
v 1.10386 -0.86529 -2.94485
v 1.10283 -0.77647 -2.86124
v 1.09767 -0.78985 -2.86448
v 1.09850 -0.86132 -2.93176
v 1.10283 -0.77647 -2.86124
v 1.04870 -0.77694 -2.86141
v 1.05411 -0.79023 -2.86461
v 1.09767 -0.78985 -2.86448
v 1.10309 -0.82418 -2.81056
v 1.10412 -0.91300 -2.89417
v 1.09871 -0.89971 -2.89097
v 1.09788 -0.82824 -2.82369
v 1.10412 -0.91300 -2.89417
v 1.04999 -0.91347 -2.89434
v 1.05515 -0.90009 -2.89111
v 1.09871 -0.89971 -2.89097
v 1.04999 -0.91347 -2.89434
v 1.04895 -0.82465 -2.81073
v 1.05431 -0.82862 -2.82383
v 1.05515 -0.90009 -2.89111
v 1.04895 -0.82465 -2.81073
v 1.10309 -0.82418 -2.81056
v 1.09788 -0.82824 -2.82369
v 1.05431 -0.82862 -2.82383
v 0.99353 -0.68859 -2.77797
v 0.99456 -0.77741 -2.86158
v 0.99887 -0.77405 -2.85072
v 0.99801 -0.69958 -2.78062
v 0.99456 -0.77741 -2.86158
v 1.04870 -0.77694 -2.86141
v 1.04426 -0.77366 -2.85058
v 0.99887 -0.77405 -2.85072
v 1.04870 -0.77694 -2.86141
v 1.04766 -0.68812 -2.77780
v 1.04339 -0.69919 -2.78048
v 1.04426 -0.77366 -2.85058
v 1.04766 -0.68812 -2.77780
v 0.99353 -0.68859 -2.77797
v 0.99801 -0.69958 -2.78062
v 1.04339 -0.69919 -2.78048
v 1.04792 -0.73583 -2.72712
v 1.04895 -0.82465 -2.81073
v 1.04447 -0.81366 -2.80808
v 1.04361 -0.73919 -2.73798
v 1.04895 -0.82465 -2.81073
v 0.99482 -0.82512 -2.81090
v 0.99909 -0.81405 -2.80823
v 1.04447 -0.81366 -2.80808
v 0.99482 -0.82512 -2.81090
v 0.99378 -0.73630 -2.72729
v 0.99822 -0.73958 -2.73813
v 0.99909 -0.81405 -2.80823
v 0.99378 -0.73630 -2.72729
v 1.04792 -0.73583 -2.72712
v 1.04361 -0.73919 -2.73798
v 0.99822 -0.73958 -2.73813
v 0.99456 -0.77741 -2.86158
v 0.99560 -0.86623 -2.94519
v 1.00054 -0.86238 -2.93274
v 0.99969 -0.79001 -2.86462
v 0.99560 -0.86623 -2.94519
v 1.04973 -0.86576 -2.94502
v 1.04464 -0.86200 -2.93260
v 1.00054 -0.86238 -2.93274
v 1.04973 -0.86576 -2.94502
v 1.04870 -0.77694 -2.86141
v 1.04380 -0.78963 -2.86448
v 1.04464 -0.86200 -2.93260
v 1.04870 -0.77694 -2.86141
v 0.99456 -0.77741 -2.86158
v 0.99969 -0.79001 -2.86462
v 1.04380 -0.78963 -2.86448
v 1.04895 -0.82465 -2.81073
v 1.04999 -0.91347 -2.89434
v 1.04485 -0.90087 -2.89130
v 1.04401 -0.82850 -2.82318
v 1.04999 -0.91347 -2.89434
v 0.99585 -0.91394 -2.89451
v 1.00075 -0.90125 -2.89144
v 1.04485 -0.90087 -2.89130
v 0.99585 -0.91394 -2.89451
v 0.99482 -0.82512 -2.81090
v 0.99990 -0.82888 -2.82332
v 1.00075 -0.90125 -2.89144
v 0.99482 -0.82512 -2.81090
v 1.04895 -0.82465 -2.81073
v 1.04401 -0.82850 -2.82318
v 0.99990 -0.82888 -2.82332
vt 0.27174 0.34821
vt 0.27369 0.37946
vt 0.27369 0.37946
vt 0.27174 0.37946
vt 0.27564 0.37946
vt 0.27564 0.37946
vt 0.27760 0.37946
vt 0.27760 0.37946
vt 0.27174 0.37946
vt 0.27369 0.37946
vt 0.27369 0.37599
vt 0.27174 0.37599
vt 0.27564 0.37946
vt 0.27564 0.37599
vt 0.27564 0.37946
vt 0.27760 0.37946
vt 0.27760 0.37599
vt 0.27564 0.37599
vt 0.26978 0.37599
vt 0.27174 0.37599
vt 0.27174 0.37252
vt 0.26978 0.37252
vt 0.27369 0.37599
vt 0.27369 0.37252
vt 0.27174 0.37252
vt 0.27564 0.37252
vt 0.27174 0.37252
vt 0.27369 0.37252
vt 0.27369 0.36905
vt 0.27174 0.36905
vt 0.27369 0.37252
vt 0.27564 0.37252
vt 0.27564 0.36905
vt 0.27369 0.36905
vt 0.27564 0.37252
vt 0.27760 0.37252
vt 0.27760 0.36905
vt 0.27564 0.36905
vt 0.26978 0.36905
vt 0.27174 0.36905
vt 0.27174 0.36558
vt 0.26978 0.36558
vt 0.27174 0.36905
vt 0.27369 0.36905
vt 0.27369 0.36558
vt 0.27174 0.36558
vt 0.27369 0.36905
vt 0.27564 0.36905
vt 0.27564 0.36558
vt 0.27369 0.36558
vt 0.27174 0.36558
vt 0.27369 0.36558
vt 0.27369 0.36210
vt 0.27174 0.36210
vt 0.27369 0.36558
vt 0.27564 0.36558
vt 0.27564 0.36210
vt 0.27369 0.36210
vt 0.27564 0.36558
vt 0.27760 0.36558
vt 0.27760 0.36210
vt 0.27564 0.36210
vt 0.26978 0.36210
vt 0.27174 0.36210
vt 0.27174 0.35863
vt 0.26978 0.35863
vt 0.27174 0.36210
vt 0.27369 0.36210
vt 0.27369 0.35863
vt 0.27174 0.35863
vt 0.27369 0.36210
vt 0.27564 0.36210
vt 0.27564 0.35863
vt 0.27369 0.35863
vt 0.27174 0.35863
vt 0.27369 0.35863
vt 0.27369 0.35516
vt 0.27174 0.35516
vt 0.27369 0.35863
vt 0.27564 0.35863
vt 0.27564 0.35516
vt 0.27369 0.35516
vt 0.27564 0.35863
vt 0.27760 0.35863
vt 0.27760 0.35516
vt 0.27564 0.35516
vt 0.26978 0.35516
vt 0.27174 0.35516
vt 0.27174 0.35169
vt 0.26978 0.35169
vt 0.27174 0.35516
vt 0.27369 0.35516
vt 0.27369 0.35169
vt 0.27174 0.35169
vt 0.27564 0.35516
vt 0.27564 0.35169
vt 0.27369 0.35169
vt 0.27369 0.34821
vt 0.27174 0.34821
vt 0.27564 0.34821
vt 0.27564 0.35169
vt 0.27760 0.35169
vt 0.27760 0.34821
vt 0.27564 0.34821
vt 0.27174 0.34821
vt 0.27369 0.34821
vt 0.27369 0.31696
vt 0.27174 0.31696
vt 0.27564 0.34821
vt 0.27564 0.31696
vt 0.27760 0.34821
vt 0.27760 0.31696
vt 0.27174 0.31696
vt 0.27369 0.31696
vt 0.27369 0.31696
vt 0.27174 0.31696
vt 0.27564 0.31696
vt 0.27564 0.31696
vt 0.27564 0.31696
vt 0.27760 0.31696
vt 0.27760 0.31696
vt 0.27564 0.31696
vt 0.26978 0.31696
vt 0.27174 0.31696
vt 0.27174 0.31696
vt 0.26978 0.31696
vt 0.27369 0.31696
vt 0.27369 0.31696
vt 0.27174 0.31696
vt 0.27564 0.31696
vt 0.27174 0.31696
vt 0.27369 0.31696
vt 0.27369 0.31696
vt 0.27174 0.31696
vt 0.27369 0.31696
vt 0.27564 0.31696
vt 0.27564 0.31696
vt 0.27369 0.31696
vt 0.27564 0.31696
vt 0.27760 0.31696
vt 0.27760 0.31696
vt 0.27564 0.31696
vt 0.26978 0.31696
vt 0.27174 0.31696
vt 0.27174 0.31696
vt 0.26978 0.31696
vt 0.27174 0.31696
vt 0.27369 0.31696
vt 0.27369 0.31696
vt 0.27174 0.31696
vt 0.27369 0.31696
vt 0.27564 0.31696
vt 0.27564 0.31696
vt 0.27369 0.31696
vt 0.27174 0.31696
vt 0.27369 0.31696
vt 0.27369 0.31696
vt 0.27174 0.31696
vt 0.27369 0.31696
vt 0.27564 0.31696
vt 0.27564 0.31696
vt 0.27369 0.31696
vt 0.27564 0.31696
vt 0.27760 0.31696
vt 0.27760 0.31696
vt 0.27564 0.31696
vt 0.26978 0.31696
vt 0.27174 0.31696
vt 0.27174 0.31696
vt 0.26978 0.31696
vt 0.27174 0.31696
vt 0.27369 0.31696
vt 0.27369 0.31696
vt 0.27174 0.31696
vt 0.27369 0.31696
vt 0.27564 0.31696
vt 0.27564 0.31696
vt 0.27369 0.31696
vt 0.27174 0.31696
vt 0.27369 0.31696
vt 0.27369 0.31696
vt 0.27174 0.31696
vt 0.27369 0.31696
vt 0.27564 0.31696
vt 0.27564 0.31696
vt 0.27369 0.31696
vt 0.27564 0.31696
vt 0.27760 0.31696
vt 0.27760 0.31696
vt 0.27564 0.31696
vt 0.26978 0.31696
vt 0.27174 0.31696
vt 0.27174 0.31696
vt 0.26978 0.31696
vt 0.27174 0.31696
vt 0.27369 0.31696
vt 0.27369 0.31696
vt 0.27174 0.31696
vt 0.27564 0.31696
vt 0.27564 0.31696
vt 0.27369 0.31696
vt 0.27369 0.31696
vt 0.27174 0.34821
vt 0.27564 0.31696
vt 0.27564 0.31696
vt 0.27760 0.31696
vt 0.27760 0.31696
vt 0.27564 0.31696
vt 0.28150 0.37946
vt 0.28150 0.37946
vt 0.28150 0.37946
vt 0.28150 0.37946
vt 0.28150 0.37946
vt 0.28150 0.37946
vt 0.28150 0.37946
vt 0.28150 0.37946
vt 0.28107 0.37946
vt 0.28150 0.37946
vt 0.28150 0.37946
vt 0.28107 0.37946
vt 0.27933 0.37946
vt 0.28020 0.37946
vt 0.28020 0.37946
vt 0.27933 0.37946
vt 0.27760 0.37946
vt 0.27846 0.37946
vt 0.27846 0.37946
vt 0.27760 0.37946
vt 0.26588 0.37946
vt 0.26588 0.37946
vt 0.26588 0.37946
vt 0.26588 0.37946
vt 0.26588 0.37946
vt 0.26588 0.37946
vt 0.26588 0.37946
vt 0.26588 0.37946
vt 0.26631 0.37946
vt 0.26718 0.37946
vt 0.26718 0.37946
vt 0.26631 0.37946
vt 0.26805 0.37946
vt 0.26892 0.37946
vt 0.26892 0.37946
vt 0.26805 0.37946
vt 0.27174 0.36558
vt 0.27174 0.36210
vt 0.27174 0.31696
vt 0.27174 0.31696
vt 0.27174 0.37252
vt 0.27174 0.36905
vt 0.27174 0.31696
vt 0.27174 0.31696
vt 0.27174 0.37946
vt 0.27174 0.37599
vt 0.27174 0.31696
vt 0.27174 0.34821
vt 0.27174 0.35863
vt 0.27174 0.35516
vt 0.27174 0.31696
vt 0.27174 0.31696
vt 0.27174 0.37599
vt 0.26892 0.37946
vt 0.26978 0.31696
vt 0.27174 0.31696
vt 0.27174 0.37252
vt 0.27174 0.31696
vt 0.26805 0.37946
vt 0.26978 0.37252
vt 0.27174 0.36905
vt 0.26718 0.37946
vt 0.26978 0.31696
vt 0.27174 0.31696
vt 0.27174 0.36558
vt 0.27174 0.31696
vt 0.26631 0.37946
vt 0.26978 0.36558
vt 0.27174 0.36210
vt 0.26588 0.37946
vt 0.26978 0.31696
vt 0.27174 0.31696
vt 0.27174 0.35863
vt 0.27174 0.31696
vt 0.26588 0.37946
vt 0.26978 0.35863
vt 0.27174 0.35516
vt 0.26588 0.37946
vt 0.26978 0.31696
vt 0.27174 0.31696
vt 0.27174 0.35169
vt 0.27174 0.34821
vt 0.27174 0.31696
vt 0.27174 0.31696
vt 0.26588 0.37946
vt 0.26978 0.35169
vt 0.27564 0.35169
vt 0.27564 0.35516
vt 0.27564 0.31696
vt 0.27564 0.31696
vt 0.27564 0.35863
vt 0.27564 0.36210
vt 0.27564 0.31696
vt 0.27564 0.31696
vt 0.27564 0.36558
vt 0.27564 0.36905
vt 0.27564 0.31696
vt 0.27564 0.31696
vt 0.27564 0.37252
vt 0.27564 0.37599
vt 0.27564 0.31696
vt 0.27564 0.31696
vt 0.27846 0.37946
vt 0.27760 0.31696
vt 0.27564 0.31696
vt 0.27564 0.37599
vt 0.27760 0.37252
vt 0.27564 0.37252
vt 0.27564 0.31696
vt 0.27933 0.37946
vt 0.28020 0.37946
vt 0.27760 0.31696
vt 0.27564 0.31696
vt 0.27564 0.36905
vt 0.27760 0.36558
vt 0.27564 0.36558
vt 0.27564 0.31696
vt 0.28107 0.37946
vt 0.28150 0.37946
vt 0.27760 0.31696
vt 0.27564 0.31696
vt 0.27564 0.36210
vt 0.27760 0.35863
vt 0.27564 0.35863
vt 0.27564 0.31696
vt 0.28150 0.37946
vt 0.28150 0.37946
vt 0.27760 0.31696
vt 0.27564 0.31696
vt 0.27564 0.35516
vt 0.27760 0.35169
vt 0.27564 0.35169
vt 0.27564 0.31696
vt 0.28150 0.37946
vt 0.27174 0.37946
vt 0.27369 0.37946
vt 0.27369 0.37946
vt 0.27369 0.37252
vt 0.27369 0.37252
vt 0.27564 0.37252
vt 0.27369 0.35516
vt 0.27369 0.35516
vt 0.27564 0.35516
vt 0.27369 0.34821
vt 0.27174 0.34821
vt 0.27369 0.34821
vt 0.27174 0.31696
vt 0.27369 0.31696
vt 0.27369 0.31696
vt 0.27369 0.31696
vt 0.27369 0.31696
vt 0.27564 0.31696
vt 0.27369 0.31696
vt 0.27369 0.31696
vt 0.27564 0.31696
vt 0.27369 0.31696
vt 0.27174 0.34821
vt 0.27369 0.31696
vt 0.27369 0.35863
vt 0.27564 0.35863
vt 0.27564 0.35863
vt 0.27369 0.35863
vt 0.27564 0.35863
vt 0.27564 0.35516
vt 0.27564 0.35516
vt 0.27564 0.35863
vt 0.27564 0.35516
vt 0.27369 0.35516
vt 0.27369 0.35516
vt 0.27564 0.35516
vt 0.27369 0.35516
vt 0.27369 0.35863
vt 0.27369 0.35863
vt 0.27369 0.35516
vt 0.27369 0.31696
vt 0.27564 0.31696
vt 0.27564 0.31696
vt 0.27369 0.31696
vt 0.27564 0.31696
vt 0.27564 0.31696
vt 0.27564 0.31696
vt 0.27564 0.31696
vt 0.27564 0.31696
vt 0.27369 0.31696
vt 0.27369 0.31696
vt 0.27564 0.31696
vt 0.27369 0.31696
vt 0.27369 0.31696
vt 0.27369 0.31696
vt 0.27369 0.31696
vt 0.27174 0.35863
vt 0.27369 0.35863
vt 0.27369 0.35863
vt 0.27174 0.35863
vt 0.27369 0.35863
vt 0.27369 0.35516
vt 0.27369 0.35516
vt 0.27369 0.35863
vt 0.27369 0.35516
vt 0.27174 0.35516
vt 0.27174 0.35516
vt 0.27369 0.35516
vt 0.27174 0.35516
vt 0.27174 0.35863
vt 0.27174 0.35863
vt 0.27174 0.35516
vt 0.27174 0.31696
vt 0.27369 0.31696
vt 0.27369 0.31696
vt 0.27174 0.31696
vt 0.27369 0.31696
vt 0.27369 0.31696
vt 0.27369 0.31696
vt 0.27369 0.31696
vt 0.27369 0.31696
vt 0.27174 0.31696
vt 0.27174 0.31696
vt 0.27369 0.31696
vt 0.27174 0.31696
vt 0.27174 0.31696
vt 0.27174 0.31696
vt 0.27174 0.31696
vt 0.27174 0.36210
vt 0.27369 0.36210
vt 0.27369 0.36210
vt 0.27174 0.36210
vt 0.27369 0.36210
vt 0.27369 0.35863
vt 0.27369 0.35863
vt 0.27369 0.36210
vt 0.27369 0.35863
vt 0.27174 0.35863
vt 0.27174 0.35863
vt 0.27369 0.35863
vt 0.27174 0.35863
vt 0.27174 0.36210
vt 0.27174 0.36210
vt 0.27174 0.35863
vt 0.27174 0.31696
vt 0.27369 0.31696
vt 0.27369 0.31696
vt 0.27174 0.31696
vt 0.27369 0.31696
vt 0.27369 0.31696
vt 0.27369 0.31696
vt 0.27369 0.31696
vt 0.27369 0.31696
vt 0.27174 0.31696
vt 0.27174 0.31696
vt 0.27369 0.31696
vt 0.27174 0.31696
vt 0.27174 0.31696
vt 0.27174 0.31696
vt 0.27174 0.31696
vt 0.27369 0.36210
vt 0.27564 0.36210
vt 0.27564 0.36210
vt 0.27369 0.36210
vt 0.27564 0.36210
vt 0.27564 0.35863
vt 0.27564 0.35863
vt 0.27564 0.36210
vt 0.27564 0.35863
vt 0.27369 0.35863
vt 0.27369 0.35863
vt 0.27564 0.35863
vt 0.27369 0.35863
vt 0.27369 0.36210
vt 0.27369 0.36210
vt 0.27369 0.35863
vt 0.27369 0.31696
vt 0.27564 0.31696
vt 0.27564 0.31696
vt 0.27369 0.31696
vt 0.27564 0.31696
vt 0.27564 0.31696
vt 0.27564 0.31696
vt 0.27564 0.31696
vt 0.27564 0.31696
vt 0.27369 0.31696
vt 0.27369 0.31696
vt 0.27564 0.31696
vt 0.27369 0.31696
vt 0.27369 0.31696
vt 0.27369 0.31696
vt 0.27369 0.31696
vt 0.27369 0.36558
vt 0.27564 0.36558
vt 0.27564 0.36558
vt 0.27369 0.36558
vt 0.27564 0.36558
vt 0.27564 0.36210
vt 0.27564 0.36210
vt 0.27564 0.36558
vt 0.27564 0.36210
vt 0.27369 0.36210
vt 0.27369 0.36210
vt 0.27564 0.36210
vt 0.27369 0.36210
vt 0.27369 0.36558
vt 0.27369 0.36558
vt 0.27369 0.36210
vt 0.27369 0.31696
vt 0.27564 0.31696
vt 0.27564 0.31696
vt 0.27369 0.31696
vt 0.27564 0.31696
vt 0.27564 0.31696
vt 0.27564 0.31696
vt 0.27564 0.31696
vt 0.27564 0.31696
vt 0.27369 0.31696
vt 0.27369 0.31696
vt 0.27564 0.31696
vt 0.27369 0.31696
vt 0.27369 0.31696
vt 0.27369 0.31696
vt 0.27369 0.31696
vt 0.27174 0.36558
vt 0.27369 0.36558
vt 0.27369 0.36558
vt 0.27174 0.36558
vt 0.27369 0.36558
vt 0.27369 0.36210
vt 0.27369 0.36210
vt 0.27369 0.36558
vt 0.27369 0.36210
vt 0.27174 0.36210
vt 0.27174 0.36210
vt 0.27369 0.36210
vt 0.27174 0.36210
vt 0.27174 0.36558
vt 0.27174 0.36558
vt 0.27174 0.36210
vt 0.27174 0.31696
vt 0.27369 0.31696
vt 0.27369 0.31696
vt 0.27174 0.31696
vt 0.27369 0.31696
vt 0.27369 0.31696
vt 0.27369 0.31696
vt 0.27369 0.31696
vt 0.27369 0.31696
vt 0.27174 0.31696
vt 0.27174 0.31696
vt 0.27369 0.31696
vt 0.27174 0.31696
vt 0.27174 0.31696
vt 0.27174 0.31696
vt 0.27174 0.31696
vt 0.27174 0.36905
vt 0.27369 0.36905
vt 0.27369 0.36905
vt 0.27174 0.36905
vt 0.27369 0.36905
vt 0.27369 0.36558
vt 0.27369 0.36558
vt 0.27369 0.36905
vt 0.27369 0.36558
vt 0.27174 0.36558
vt 0.27174 0.36558
vt 0.27369 0.36558
vt 0.27174 0.36558
vt 0.27174 0.36905
vt 0.27174 0.36905
vt 0.27174 0.36558
vt 0.27174 0.31696
vt 0.27369 0.31696
vt 0.27369 0.31696
vt 0.27174 0.31696
vt 0.27369 0.31696
vt 0.27369 0.31696
vt 0.27369 0.31696
vt 0.27369 0.31696
vt 0.27369 0.31696
vt 0.27174 0.31696
vt 0.27174 0.31696
vt 0.27369 0.31696
vt 0.27174 0.31696
vt 0.27174 0.31696
vt 0.27174 0.31696
vt 0.27174 0.31696
vt 0.27369 0.36905
vt 0.27564 0.36905
vt 0.27564 0.36905
vt 0.27369 0.36905
vt 0.27564 0.36905
vt 0.27564 0.36558
vt 0.27564 0.36558
vt 0.27564 0.36905
vt 0.27564 0.36558
vt 0.27369 0.36558
vt 0.27369 0.36558
vt 0.27564 0.36558
vt 0.27369 0.36558
vt 0.27369 0.36905
vt 0.27369 0.36905
vt 0.27369 0.36558
vt 0.27369 0.31696
vt 0.27564 0.31696
vt 0.27564 0.31696
vt 0.27369 0.31696
vt 0.27564 0.31696
vt 0.27564 0.31696
vt 0.27564 0.31696
vt 0.27564 0.31696
vt 0.27564 0.31696
vt 0.27369 0.31696
vt 0.27369 0.31696
vt 0.27564 0.31696
vt 0.27369 0.31696
vt 0.27369 0.31696
vt 0.27369 0.31696
vt 0.27369 0.31696
vt 0.27174 0.37252
vt 0.27369 0.37252
vt 0.27369 0.37252
vt 0.27174 0.37252
vt 0.27369 0.37252
vt 0.27369 0.36905
vt 0.27369 0.36905
vt 0.27369 0.37252
vt 0.27369 0.36905
vt 0.27174 0.36905
vt 0.27174 0.36905
vt 0.27369 0.36905
vt 0.27174 0.36905
vt 0.27174 0.37252
vt 0.27174 0.37252
vt 0.27174 0.36905
vt 0.27174 0.31696
vt 0.27369 0.31696
vt 0.27369 0.31696
vt 0.27174 0.31696
vt 0.27369 0.31696
vt 0.27369 0.31696
vt 0.27369 0.31696
vt 0.27369 0.31696
vt 0.27369 0.31696
vt 0.27174 0.31696
vt 0.27174 0.31696
vt 0.27369 0.31696
vt 0.27174 0.31696
vt 0.27174 0.31696
vt 0.27174 0.31696
vt 0.27174 0.31696
vt 0.27369 0.37252
vt 0.27564 0.37252
vt 0.27564 0.37252
vt 0.27369 0.37252
vt 0.27564 0.37252
vt 0.27564 0.36905
vt 0.27564 0.36905
vt 0.27564 0.37252
vt 0.27564 0.36905
vt 0.27369 0.36905
vt 0.27369 0.36905
vt 0.27564 0.36905
vt 0.27369 0.36905
vt 0.27369 0.37252
vt 0.27369 0.37252
vt 0.27369 0.36905
vt 0.27369 0.31696
vt 0.27564 0.31696
vt 0.27564 0.31696
vt 0.27369 0.31696
vt 0.27564 0.31696
vt 0.27564 0.31696
vt 0.27564 0.31696
vt 0.27564 0.31696
vt 0.27564 0.31696
vt 0.27369 0.31696
vt 0.27369 0.31696
vt 0.27564 0.31696
vt 0.27369 0.31696
vt 0.27369 0.31696
vt 0.27369 0.31696
vt 0.27369 0.31696
usemtl t34_85_hull_m2
s 1
f 3/3 2/2 1/1
f 4/4 3/3 1/1
f 6/6 5/5 2/2
f 3/3 6/6 2/2
f 8/8 7/7 5/5
f 6/6 8/8 5/5
f 11/11 10/10 9/9
f 12/12 11/11 9/9
f 14/14 13/13 10/10
f 11/11 14/14 10/10
f 17/17 16/16 15/15
f 18/18 17/17 15/15
f 21/21 20/20 19/19
f 22/22 21/21 19/19
f 24/24 23/23 12/12
f 25/25 24/24 12/12
f 26/26 14/14 23/23
f 24/24 26/26 23/23
f 29/29 28/28 27/27
f 30/30 29/29 27/27
f 33/33 32/32 31/31
f 34/34 33/33 31/31
f 37/37 36/36 35/35
f 38/38 37/37 35/35
f 41/41 40/40 39/39
f 42/42 41/41 39/39
f 45/45 44/44 43/43
f 46/46 45/45 43/43
f 49/49 48/48 47/47
f 50/50 49/49 47/47
f 53/53 52/52 51/51
f 54/54 53/53 51/51
f 57/57 56/56 55/55
f 58/58 57/57 55/55
f 61/61 60/60 59/59
f 62/62 61/61 59/59
f 65/65 64/64 63/63
f 66/66 65/65 63/63
f 69/69 68/68 67/67
f 70/70 69/69 67/67
f 73/73 72/72 71/71
f 74/74 73/73 71/71
f 77/77 76/76 75/75
f 78/78 77/77 75/75
f 81/81 80/80 79/79
f 82/82 81/81 79/79
f 85/85 84/84 83/83
f 86/86 85/85 83/83
f 89/89 88/88 87/87
f 90/90 89/89 87/87
f 93/93 92/92 91/91
f 94/94 93/93 91/91
f 96/96 95/95 92/92
f 93/93 96/96 92/92
f 98/98 97/97 94/94
f 99/99 98/98 94/94
f 100/100 96/96 97/97
f 98/98 100/100 97/97
f 103/103 102/102 101/101
f 104/104 103/103 101/101
f 107/107 106/106 105/105
f 108/108 107/107 105/105
f 110/110 109/109 106/106
f 107/107 110/110 106/106
f 112/112 111/111 109/109
f 110/110 112/112 109/109
f 115/115 114/114 113/113
f 116/116 115/115 113/113
f 118/118 117/117 114/114
f 115/115 118/118 114/114
f 121/121 120/120 119/119
f 122/122 121/121 119/119
f 125/125 124/124 123/123
f 126/126 125/125 123/123
f 128/128 127/127 116/116
f 129/129 128/128 116/116
f 130/130 118/118 127/127
f 128/128 130/130 127/127
f 133/133 132/132 131/131
f 134/134 133/133 131/131
f 137/137 136/136 135/135
f 138/138 137/137 135/135
f 141/141 140/140 139/139
f 142/142 141/141 139/139
f 145/145 144/144 143/143
f 146/146 145/145 143/143
f 149/149 148/148 147/147
f 150/150 149/149 147/147
f 153/153 152/152 151/151
f 154/154 153/153 151/151
f 157/157 156/156 155/155
f 158/158 157/157 155/155
f 161/161 160/160 159/159
f 162/162 161/161 159/159
f 165/165 164/164 163/163
f 166/166 165/165 163/163
f 169/169 168/168 167/167
f 170/170 169/169 167/167
f 173/173 172/172 171/171
f 174/174 173/173 171/171
f 177/177 176/176 175/175
f 178/178 177/177 175/175
f 181/181 180/180 179/179
f 182/182 181/181 179/179
f 185/185 184/184 183/183
f 186/186 185/185 183/183
f 189/189 188/188 187/187
f 190/190 189/189 187/187
f 193/193 192/192 191/191
f 194/194 193/193 191/191
f 197/197 196/196 195/195
f 198/198 197/197 195/195
f 200/200 199/199 196/196
f 197/197 200/200 196/196
f 202/202 201/201 198/198
f 203/203 202/202 198/198
f 204/204 200/200 201/201
f 202/202 204/204 201/201
f 207/207 206/206 205/205
f 208/208 207/207 205/205
f 211/211 210/210 209/209
f 212/212 211/211 209/209
f 215/215 214/214 213/213
f 216/216 215/215 213/213
f 219/219 218/218 217/217
f 220/220 219/219 217/217
f 223/223 222/222 221/221
f 224/224 223/223 221/221
f 227/227 226/226 225/225
f 228/228 227/227 225/225
f 231/231 230/230 229/229
f 232/232 231/231 229/229
f 235/235 234/234 233/233
f 236/236 235/235 233/233
f 239/239 238/238 237/237
f 240/240 239/239 237/237
f 243/243 242/242 241/241
f 244/244 243/243 241/241
f 247/247 246/246 245/245
f 248/248 247/247 245/245
f 251/251 250/250 249/249
f 252/252 251/251 249/249
f 255/255 254/254 253/253
f 256/256 255/255 253/253
f 259/259 258/258 257/257
f 260/260 259/259 257/257
f 263/263 262/262 261/261
f 264/264 263/263 261/261
f 267/267 266/266 265/265
f 268/268 267/267 265/265
f 271/271 270/270 269/269
f 272/272 271/271 269/269
f 275/275 274/274 273/273
f 276/276 275/275 273/273
f 279/279 278/278 277/277
f 280/280 279/279 277/277
f 283/283 282/282 281/281
f 284/284 283/283 281/281
f 287/287 286/286 285/285
f 288/288 287/287 285/285
f 291/291 290/290 289/289
f 292/292 291/291 289/289
f 293/293 292/292 289/289
f 294/294 293/293 289/289
f 297/297 296/296 295/295
f 298/298 297/297 295/295
f 301/301 300/300 299/299
f 302/302 301/301 299/299
f 305/305 304/304 303/303
f 306/306 305/305 303/303
f 309/309 308/308 307/307
f 310/310 309/309 307/307
f 313/313 312/312 311/311
f 314/314 313/313 311/311
f 317/317 316/316 315/315
f 318/318 317/317 315/315
f 321/321 320/320 319/319
f 322/322 321/321 319/319
f 325/325 324/324 323/323
f 326/326 325/325 323/323
f 329/329 328/328 327/327
f 330/330 329/329 327/327
f 333/333 332/332 331/331
f 334/334 333/333 331/331
f 337/337 336/336 335/335
f 338/338 337/337 335/335
f 341/341 340/340 339/339
f 342/342 341/341 339/339
f 345/345 344/344 343/343
f 9/9 345/345 343/343
f 9/9 343/343 20/20
f 12/12 9/9 20/20
f 13/13 15/15 344/344
f 345/345 13/13 344/344
f 14/14 18/18 15/15
f 13/13 14/14 15/15
f 25/25 21/21 346/346
f 347/347 25/25 346/346
f 12/12 20/20 21/21
f 25/25 12/12 21/21
f 26/26 348/348 18/18
f 14/14 26/26 18/18
f 347/347 346/346 348/348
f 26/26 347/347 348/348
f 350/350 349/349 88/88
f 91/91 350/350 88/88
f 91/91 88/88 89/89
f 94/94 91/91 89/89
f 95/95 351/351 349/349
f 350/350 95/95 349/349
f 96/96 101/101 351/351
f 95/95 96/96 351/351
f 99/99 353/353 352/352
f 354/354 99/99 352/352
f 94/94 89/89 353/353
f 99/99 94/94 353/353
f 100/100 104/104 101/101
f 96/96 100/100 101/101
f 354/354 352/352 104/104
f 100/100 354/354 104/104
f 357/357 356/356 355/355
f 113/113 357/357 355/355
f 113/113 355/355 124/124
f 116/116 113/113 124/124
f 117/117 119/119 356/356
f 357/357 117/117 356/356
f 118/118 122/122 119/119
f 117/117 118/118 119/119
f 129/129 125/125 358/358
f 359/359 129/129 358/358
f 116/116 124/124 125/125
f 129/129 116/116 125/125
f 130/130 360/360 122/122
f 118/118 130/130 122/122
f 359/359 358/358 360/360
f 130/130 359/359 360/360
f 362/362 361/361 192/192
f 195/195 362/362 192/192
f 195/195 192/192 193/193
f 198/198 195/195 193/193
f 199/199 363/363 361/361
f 362/362 199/199 361/361
f 200/200 205/205 363/363
f 199/199 200/200 363/363
f 203/203 365/365 364/364
f 366/366 203/203 364/364
f 198/198 193/193 365/365
f 203/203 198/198 365/365
f 204/204 208/208 205/205
f 200/200 204/204 205/205
f 366/366 364/364 208/208
f 204/204 366/366 208/208
f 369/369 368/368 367/367
f 370/370 369/369 367/367
f 373/373 372/372 371/371
f 374/374 373/373 371/371
f 377/377 376/376 375/375
f 378/378 377/377 375/375
f 381/381 380/380 379/379
f 382/382 381/381 379/379
f 385/385 384/384 383/383
f 386/386 385/385 383/383
f 389/389 388/388 387/387
f 390/390 389/389 387/387
f 393/393 392/392 391/391
f 394/394 393/393 391/391
f 397/397 396/396 395/395
f 398/398 397/397 395/395
f 401/401 400/400 399/399
f 402/402 401/401 399/399
f 405/405 404/404 403/403
f 406/406 405/405 403/403
f 409/409 408/408 407/407
f 410/410 409/409 407/407
f 413/413 412/412 411/411
f 414/414 413/413 411/411
f 417/417 416/416 415/415
f 418/418 417/417 415/415
f 421/421 420/420 419/419
f 422/422 421/421 419/419
f 425/425 424/424 423/423
f 426/426 425/425 423/423
f 429/429 428/428 427/427
f 430/430 429/429 427/427
f 433/433 432/432 431/431
f 434/434 433/433 431/431
f 437/437 436/436 435/435
f 438/438 437/437 435/435
f 441/441 440/440 439/439
f 442/442 441/441 439/439
f 445/445 444/444 443/443
f 446/446 445/445 443/443
f 449/449 448/448 447/447
f 450/450 449/449 447/447
f 453/453 452/452 451/451
f 454/454 453/453 451/451
f 457/457 456/456 455/455
f 458/458 457/457 455/455
f 461/461 460/460 459/459
f 462/462 461/461 459/459
f 465/465 464/464 463/463
f 466/466 465/465 463/463
f 469/469 468/468 467/467
f 470/470 469/469 467/467
f 473/473 472/472 471/471
f 474/474 473/473 471/471
f 477/477 476/476 475/475
f 478/478 477/477 475/475
f 481/481 480/480 479/479
f 482/482 481/481 479/479
f 485/485 484/484 483/483
f 486/486 485/485 483/483
f 489/489 488/488 487/487
f 490/490 489/489 487/487
f 493/493 492/492 491/491
f 494/494 493/493 491/491
f 497/497 496/496 495/495
f 498/498 497/497 495/495
f 501/501 500/500 499/499
f 502/502 501/501 499/499
f 505/505 504/504 503/503
f 506/506 505/505 503/503
f 509/509 508/508 507/507
f 510/510 509/509 507/507
f 513/513 512/512 511/511
f 514/514 513/513 511/511
f 517/517 516/516 515/515
f 518/518 517/517 515/515
f 521/521 520/520 519/519
f 522/522 521/521 519/519
f 525/525 524/524 523/523
f 526/526 525/525 523/523
f 529/529 528/528 527/527
f 530/530 529/529 527/527
f 533/533 532/532 531/531
f 534/534 533/533 531/531
f 537/537 536/536 535/535
f 538/538 537/537 535/535
f 541/541 540/540 539/539
f 542/542 541/541 539/539
f 545/545 544/544 543/543
f 546/546 545/545 543/543
f 549/549 548/548 547/547
f 550/550 549/549 547/547
f 553/553 552/552 551/551
f 554/554 553/553 551/551
f 557/557 556/556 555/555
f 558/558 557/557 555/555
f 561/561 560/560 559/559
f 562/562 561/561 559/559
f 565/565 564/564 563/563
f 566/566 565/565 563/563
f 569/569 568/568 567/567
f 570/570 569/569 567/567
f 573/573 572/572 571/571
f 574/574 573/573 571/571
f 577/577 576/576 575/575
f 578/578 577/577 575/575
f 581/581 580/580 579/579
f 582/582 581/581 579/579
f 585/585 584/584 583/583
f 586/586 585/585 583/583
f 589/589 588/588 587/587
f 590/590 589/589 587/587
f 593/593 592/592 591/591
f 594/594 593/593 591/591
f 597/597 596/596 595/595
f 598/598 597/597 595/595
f 601/601 600/600 599/599
f 602/602 601/601 599/599
f 605/605 604/604 603/603
f 606/606 605/605 603/603
f 609/609 608/608 607/607
f 610/610 609/609 607/607
f 613/613 612/612 611/611
f 614/614 613/613 611/611
f 617/617 616/616 615/615
f 618/618 617/617 615/615
f 621/621 620/620 619/619
f 622/622 621/621 619/619
f 625/625 624/624 623/623
f 626/626 625/625 623/623
f 629/629 628/628 627/627
f 630/630 629/629 627/627
f 633/633 632/632 631/631
f 634/634 633/633 631/631
f 637/637 636/636 635/635
f 638/638 637/637 635/635
f 641/641 640/640 639/639
f 642/642 641/641 639/639
f 645/645 644/644 643/643
f 646/646 645/645 643/643
f 649/649 648/648 647/647
f 650/650 649/649 647/647
f 653/653 652/652 651/651
f 654/654 653/653 651/651
f 657/657 656/656 655/655
f 658/658 657/657 655/655
f 661/661 660/660 659/659
f 662/662 661/661 659/659
f 665/665 664/664 663/663
f 666/666 665/665 663/663
f 669/669 668/668 667/667
f 670/670 669/669 667/667
f 673/673 672/672 671/671
f 674/674 673/673 671/671
f 677/677 676/676 675/675
f 678/678 677/677 675/675
f 681/681 680/680 679/679
f 682/682 681/681 679/679
f 685/685 684/684 683/683
f 686/686 685/685 683/683
