mtllib t34_85_hull_m3.mtl
o t34_85_hull_m3
v 0.66282 -0.10410 -1.98402
v 0.66282 -0.08833 -1.99312
v 0.66282 -0.09884 -1.99312
v 0.66282 -0.10410 -2.00223
v -0.64108 -0.08833 -1.99312
v -0.64108 -0.10410 -1.98402
v -0.64108 -0.09884 -1.99312
v -0.64108 -0.10410 -2.00223
v 0.22819 -0.10410 -1.98402
v 0.22819 -0.08833 -1.99312
v 0.66282 -0.08833 -1.99312
v 0.66282 -0.10410 -1.98402
v 0.22819 -0.10410 -2.00223
v 0.22819 -0.10410 -1.98402
v 0.66282 -0.10410 -1.98402
v 0.66282 -0.10410 -2.00223
v 0.22819 -0.08833 -1.99312
v 0.22819 -0.10410 -2.00223
v 0.66282 -0.10410 -2.00223
v 0.66282 -0.08833 -1.99312
v -0.20645 -0.10410 -1.98402
v -0.20645 -0.08833 -1.99312
v -0.20645 -0.10410 -2.00223
v -0.20645 -0.10410 -1.98402
v -0.20645 -0.08833 -1.99312
v -0.20645 -0.10410 -2.00223
v -0.64108 -0.10410 -1.98402
v -0.64108 -0.08833 -1.99312
v -0.64108 -0.10410 -2.00223
v -0.64108 -0.10410 -1.98402
v -0.64108 -0.08833 -1.99312
v -0.64108 -0.10410 -2.00223
vt 0.08014 0.34821
vt 0.08014 0.34821
vt 0.08014 0.34821
vt 0.08014 0.34821
vt 0.08014 0.34821
vt 0.08014 0.34821
vt 0.08014 0.34821
vt 0.08014 0.34821
vt 0.08014 0.34821
vt 0.08014 0.34821
vt 0.08014 0.34821
vt 0.08014 0.34821
vt 0.08014 0.34821
vt 0.08014 0.34821
vt 0.08014 0.34821
vt 0.08014 0.34821
vt 0.08014 0.34821
vt 0.08014 0.34821
vt 0.08014 0.34821
vt 0.08014 0.34821
vt 0.08014 0.34821
vt 0.08014 0.34821
vt 0.08014 0.34821
vt 0.08014 0.34821
vt 0.08014 0.34821
vt 0.08014 0.34821
vt 0.08014 0.34821
vt 0.08014 0.34821
vt 0.08014 0.34821
vt 0.08014 0.34821
vt 0.08014 0.34821
vt 0.08014 0.34821
vn 1.0000 -0.0000 -0.0000
vn 1.0000 -0.0000 -0.0000
vn 1.0000 -0.0000 -0.0000
vn 1.0000 -0.0000 -0.0000
vn -1.0000 0.0000 0.0000
vn -1.0000 0.0000 0.0000
vn -1.0000 0.0000 0.0000
vn -1.0000 0.0000 0.0000
vn 0.0000 0.5000 0.8660
vn 0.0000 0.5000 0.8660
vn -0.0000 0.5000 0.8660
vn -0.0000 0.5000 0.8660
vn -0.0000 -1.0000 0.0000
vn -0.0000 -1.0000 0.0000
vn -0.0000 -1.0000 0.0000
vn -0.0000 -1.0000 0.0000
vn -0.0000 0.5000 -0.8660
vn -0.0000 0.5000 -0.8660
vn -0.0000 0.5000 -0.8660
vn -0.0000 0.5000 -0.8660
vn 0.0000 0.5000 0.8660
vn 0.0000 0.5000 0.8660
vn -0.0000 -1.0000 0.0000
vn -0.0000 -1.0000 0.0000
vn -0.0000 0.5000 -0.8660
vn -0.0000 0.5000 -0.8660
vn -0.0000 0.5000 0.8660
vn -0.0000 0.5000 0.8660
vn -0.0000 -1.0000 0.0000
vn -0.0000 -1.0000 0.0000
vn -0.0000 0.5000 -0.8660
vn -0.0000 0.5000 -0.8660
usemtl t34_85_hull_m3
f 3/3/3 2/2/2 1/1/1
f 3/3/3 1/1/1 4/4/4
f 3/3/3 4/4/4 2/2/2
f 7/7/7 6/6/6 5/5/5
f 7/7/7 8/8/8 6/6/6
f 7/7/7 5/5/5 8/8/8
f 11/11/11 10/10/10 9/9/9
f 12/12/12 11/11/11 9/9/9
f 15/15/15 14/14/14 13/13/13
f 16/16/16 15/15/15 13/13/13
f 19/19/19 18/18/18 17/17/17
f 20/20/20 19/19/19 17/17/17
f 10/10/10 22/22/22 21/21/21
f 9/9/9 10/10/10 21/21/21
f 14/14/14 24/24/24 23/23/23
f 13/13/13 14/14/14 23/23/23
f 18/18/18 26/26/26 25/25/25
f 17/17/17 18/18/18 25/25/25
f 22/22/22 28/28/28 27/27/27
f 21/21/21 22/22/22 27/27/27
f 24/24/24 30/30/30 29/29/29
f 23/23/23 24/24/24 29/29/29
f 26/26/26 32/32/32 31/31/31
f 25/25/25 26/26/26 31/31/31
