mtllib t34_85_turret.mtl
o t34_85_turret
v -1.10471 -0.05177 -0.30405
v -1.01837 0.05475 -0.44347
v -1.04104 0.10552 -0.29966
v -1.01479 0.03237 -0.60371
v -0.93950 0.10975 -0.52932
v -0.97581 0.07796 -0.36683
v -0.51636 0.01168 1.18687
v -0.78481 0.04978 1.09487
v -0.54987 0.03832 1.12797
v -0.67776 0.05872 1.08942
v -0.67776 0.05872 1.08942
v -0.49394 0.03716 1.15495
v -0.56289 0.06818 1.17729
v -0.78481 0.04978 1.09487
v -0.56891 0.11369 1.12883
v -0.76944 0.11477 1.10455
v -0.56289 0.06818 1.17729
v -0.78481 0.04978 1.09487
v -0.93522 0.04664 0.08557
v -1.02185 0.04297 0.00525
v -1.03777 0.04064 0.09978
v -1.03053 0.03066 0.22683
v -0.92599 0.04992 0.29547
v -0.89289 0.04679 0.43554
v -0.92193 0.03352 0.59006
v -0.82366 0.04626 0.60869
v -0.69265 0.02251 0.99074
v -0.93164 0.02496 0.96564
v -1.03294 0.03731 -0.09465
v -0.89151 0.04665 -0.14336
v -0.78818 0.04574 -0.40449
v -0.64595 0.04749 0.85884
v -0.52579 0.04858 0.95703
v -0.54987 0.03832 1.12797
v -0.44534 0.03268 1.12219
v -0.31266 0.04539 1.05608
v -0.49394 0.03716 1.15495
v -1.03498 0.05174 0.88450
v -1.03959 0.04160 0.31320
v -1.11099 0.03215 0.26604
v -1.02541 0.04399 0.95061
v -1.03610 0.04253 1.13932
v -0.93515 0.04648 1.14582
v -0.77933 0.05077 1.05270
v -0.67776 0.05872 1.08942
v -0.78481 0.04978 1.09487
v -0.10854 0.02909 1.09280
v -0.97581 0.07796 -0.36683
v -0.78950 0.04101 -0.63899
v -0.70393 0.05314 -0.60602
v -0.60593 0.04788 -0.72006
v -0.67838 0.05288 -0.84957
v -0.53259 0.04752 -0.79464
v -0.66454 0.05626 -0.93470
v -0.62209 0.05771 -0.95088
v -0.45615 0.07650 -0.94501
v -0.24546 0.06290 -0.95155
v -0.70001 0.04623 -0.92254
v -0.76664 0.05024 -0.81746
v -0.74572 0.05156 -0.79131
v -0.81671 0.04436 -0.82686
v -0.83055 0.03832 -1.01751
v -1.02542 0.05666 -0.99918
v -1.03865 0.03476 -0.83324
v -1.01479 0.03237 -0.60371
v -0.69952 0.02485 -1.02354
v -1.05203 0.07672 -0.21621
v -1.11381 0.09506 0.04700
v -1.08466 0.10217 0.91252
v -1.04104 0.10552 -0.29966
v -1.01837 0.05475 -0.44347
v -0.22470 0.22739 -1.65680
v -0.43906 0.25557 -1.61310
v -0.21523 0.17741 -1.56679
v -0.16575 0.17177 -1.64842
v -0.48433 0.21563 -1.64861
v -0.53903 0.13897 -1.65481
v -0.68182 0.10239 -1.14661
v -0.70608 0.11450 -1.08579
v -0.64869 0.11187 -1.13513
v -0.70486 0.14623 -0.85868
v -0.71822 0.12431 -1.36989
v -0.75149 0.13879 -1.63806
v -0.73614 0.13903 -1.31881
v -0.69084 0.13321 -1.45938
v -0.70278 0.14231 -1.65666
v -0.56107 0.18334 -1.64797
v -0.60776 0.13024 -1.23964
v -0.53587 0.16654 -1.50809
v -0.53151 0.14720 -1.30009
v -0.40254 0.15169 -1.26149
v -0.64869 0.11187 -1.13513
v -0.08850 0.10937 -1.15298
v -0.23953 0.15876 -1.28778
v -0.45615 0.07650 -0.94501
v -0.08833 0.14425 -1.43104
v -0.23238 0.17832 -1.46367
v -0.06674 0.10118 -1.31158
v 0.03802 0.14660 -1.68156
v -0.08049 0.15562 -1.67169
v -0.16575 0.17177 -1.64842
v 0.06384 0.11721 -1.22157
v -0.21523 0.17741 -1.56679
v -0.60972 0.08473 -0.93352
v -0.24546 0.06290 -0.95155
v -0.01193 0.09043 -0.97174
v 0.13840 0.07843 -0.95810
v -0.70486 0.14623 -0.85868
v -0.70793 0.09144 -1.34386
v 0.16952 0.07132 -0.96534
v 0.43161 0.12108 -1.17140
v 0.53593 0.09539 -0.95064
v 0.61179 0.10131 -1.10668
v 0.57293 0.12514 -1.24241
v 0.49428 0.15007 -1.30910
v 0.39187 0.14024 -1.27318
v 0.48775 0.17114 -1.48783
v 0.66305 0.11442 -1.33536
v 0.68484 0.12074 -1.55537
v 0.49587 0.16706 -1.57252
v 0.45819 0.22672 -1.66349
v 0.66332 0.17655 -1.67524
v 0.62236 0.11908 -0.86949
v 0.66324 0.12951 -1.01560
v 0.66017 0.09695 -1.11330
v 0.68479 0.13533 -0.83135
v 0.19878 0.15525 -1.28477
v 0.05936 0.16720 -1.65068
v 0.12573 0.16420 -1.64397
v 0.18747 0.15994 -1.56033
v 0.30881 0.21468 -1.58057
v 0.68896 0.09761 -1.11964
v 0.57293 0.12514 -1.24241
v 0.61179 0.10131 -1.10668
v 0.66305 0.11442 -1.33536
v 0.70183 0.08810 -1.24229
v 0.71472 0.08116 -1.32788
v -0.60776 0.13024 -1.23964
v -0.73614 0.13903 -1.31881
v -0.64869 0.11187 -1.13513
v -0.69084 0.13321 -1.45938
v -0.74468 0.13903 -1.08105
v 0.96741 0.05308 -0.19644
v 0.78037 0.04580 -0.38648
v 0.84387 0.04418 -0.20359
v 0.75296 0.04520 -0.67128
v 0.68435 0.04812 -0.57898
v 0.64284 0.05710 -0.83367
v 0.52670 0.04298 -0.93740
v 0.56638 0.04882 -0.74299
v 0.31251 0.04683 -0.91984
v 0.66864 0.04426 -0.93917
v 0.79013 0.05345 -0.94685
v 0.71145 0.05668 -0.84192
v 0.71483 0.05200 -0.78036
v 0.84503 0.04287 -0.74451
v 0.99651 0.04208 -0.86807
v 1.00620 0.02935 -0.60272
v 0.99301 0.03214 -1.01488
v 0.99594 0.03814 -0.43070
v 0.71729 0.05190 -0.78837
v 0.98862 0.03503 -0.10365
v 0.90631 0.04674 0.07955
v 1.03337 0.04779 -0.23517
v 1.00823 0.02539 -0.01293
v 0.99092 0.04091 0.07726
v 1.00334 0.02563 0.24568
v 0.84684 0.04806 0.49200
v 0.99534 0.04132 0.34513
v 0.72695 0.05323 0.72670
v 0.67534 0.02435 -1.01552
v 0.72086 0.02008 0.90636
v 0.98792 0.03479 0.87177
v 0.50100 0.03047 1.12179
v 0.62002 0.05348 0.84725
v 0.98616 0.05088 1.13142
v 0.49691 0.04946 0.94342
v 0.36191 0.04500 1.01309
v 0.59391 0.07383 -1.05565
v 0.58670 0.06097 -0.98064
v 0.68086 0.05997 -1.07000
v 1.07378 0.09752 0.04302
v 0.23065 0.31998 1.11929
v -0.00485 0.16002 1.02841
v 0.43598 0.14170 1.00285
v 0.45149 0.20369 1.04716
v 0.45341 0.49621 1.13726
v 0.22036 0.54562 1.12498
v 0.47651 0.14240 0.97881
v 0.36191 0.04500 1.01309
v 0.00366 0.02400 1.09977
v 0.72526 0.23325 0.92580
v 0.57641 0.45976 1.02603
v 0.47918 0.41607 1.07053
v 0.74741 0.33778 0.91824
v 0.48143 0.11303 0.94533
v 0.85975 0.22953 0.74263
v 0.86727 0.30550 0.73111
v 0.13182 0.31592 1.18543
v -0.07669 0.31852 1.12619
v -0.37505 0.21493 1.06024
v -0.35824 0.42937 1.12908
v -0.15457 0.48654 1.13746
v -0.34294 0.58247 1.11327
v -0.37597 0.15003 1.00524
v -0.68188 0.24419 1.00283
v 1.03184 -0.01146 0.95087
v 0.98616 0.05088 1.13142
v 0.98270 0.06288 0.93035
v -1.11309 0.06517 0.93359
v -1.07756 -0.00336 0.91601
v -1.02541 0.04399 0.95061
v -1.08466 0.10217 0.91252
v -1.11309 0.06517 0.93359
v -1.08466 0.10217 0.91252
v -1.07756 -0.00336 0.91601
v -1.03498 0.05174 0.88450
v -0.67776 0.05872 1.08942
v -0.77933 0.05077 1.05270
v -0.56891 0.11369 1.12883
v -0.49394 0.03716 1.15495
v -0.76944 0.11477 1.10455
v -0.77933 0.05077 1.05270
v -0.78481 0.04978 1.09487
v -0.76944 0.11477 1.10455
v -0.82366 0.04626 0.60869
v -0.64595 0.04749 0.85884
v -0.76988 0.11891 0.77800
v -0.90805 0.10539 0.48513
v -0.89289 0.04679 0.43554
v -0.92599 0.04992 0.29547
v -0.59395 0.18158 0.93842
v -0.52579 0.04858 0.95703
v -0.31266 0.04539 1.05608
v -0.78512 0.19917 0.71652
v -0.90805 0.10539 0.48513
v -0.76988 0.11891 0.77800
v -0.86316 0.19364 0.53386
v -0.92866 0.19160 0.24624
v -0.59395 0.18158 0.93842
v -0.95462 0.09109 0.04263
v -0.90614 0.18271 -0.05737
v -0.84258 0.08550 -0.37019
v -0.77484 0.17205 -0.45811
v -0.92599 0.04992 0.29547
v -0.52815 0.15346 -0.78234
v -0.53259 0.04752 -0.79464
v -0.60593 0.04788 -0.72006
v -0.70393 0.05314 -0.60602
v -0.77484 0.17205 -0.45811
v -0.84258 0.08550 -0.37019
v -0.24546 0.06290 -0.95155
v -0.30465 0.15073 -0.92369
v -0.84258 0.08550 -0.37019
v -0.89151 0.04665 -0.14336
v -0.95462 0.09109 0.04263
v -0.93522 0.04664 0.08557
v -0.92599 0.04992 0.29547
v -0.78818 0.04574 -0.40449
v -0.70393 0.05314 -0.60602
v -1.11381 0.09506 0.04700
v -1.08047 -0.00489 0.03024
v -1.03777 0.04064 0.09978
v -1.11381 0.09506 0.04700
v -1.02185 0.04297 0.00525
v -1.08047 -0.00489 0.03024
v -1.03721 0.06237 -0.28583
v -1.09469 0.02499 -0.24540
v -1.05203 0.07672 -0.21621
v -1.10471 -0.05177 -0.30405
v -1.03294 0.03731 -0.09465
v -1.04104 0.10552 -0.29966
v -0.70486 0.14623 -0.85868
v -0.81671 0.04436 -0.82686
v -0.88519 0.10422 -0.62368
v -1.01479 0.03237 -0.60371
v -0.93950 0.10975 -0.52932
v -0.73448 0.08931 -0.86850
v -0.70608 0.11450 -1.08579
v -0.70608 0.11450 -1.08579
v -0.70608 0.03155 -1.06553
v -0.73448 0.08931 -0.86850
v -0.78950 0.04101 -0.63899
v -0.65380 0.08885 -0.87332
v -0.88519 0.10422 -0.62368
v -0.93950 0.10975 -0.52932
v -0.97581 0.07796 -0.36683
v -0.70486 0.14623 -0.85868
v -0.60972 0.08473 -0.93352
v -0.67838 0.05288 -0.84957
v -0.65380 0.08885 -0.87332
v -0.78950 0.04101 -0.63899
v -0.73456 0.06635 -0.82752
v -0.73448 0.08931 -0.86850
v -0.67838 0.05288 -0.84957
v -0.74572 0.05156 -0.79131
v -0.68615 0.08145 -0.89613
v -0.76664 0.05024 -0.81746
v -0.81671 0.04436 -0.82686
v -0.65380 0.08885 -0.87332
v -0.00485 0.16002 1.02841
v -0.31266 0.04539 1.05608
v 0.02724 0.09887 1.08450
v -0.08194 0.05435 1.09222
v 0.43598 0.14170 1.00285
v -0.37597 0.15003 1.00524
v -0.59395 0.18158 0.93842
v -0.04890 0.01600 1.16596
v -0.04670 0.03232 1.09440
v 0.00366 0.02400 1.09977
v 0.02724 0.09887 1.08450
v 0.43598 0.14170 1.00285
v -0.04670 0.03232 1.09440
v -0.08194 0.05435 1.09222
v -0.10854 0.02909 1.09280
v -0.31266 0.04539 1.05608
v 0.02724 0.09887 1.08450
v -0.04890 0.01600 1.16596
v -0.04670 0.03232 1.09440
v 0.46870 0.14085 0.81565
v 0.47691 0.16183 0.93429
v 0.48143 0.11303 0.94533
v 0.47651 0.14240 0.97881
v 0.47601 0.18404 0.87519
v 0.48143 0.11303 0.94533
v 0.43039 0.12047 0.91028
v 0.44692 0.12498 0.83191
v 0.44636 0.12010 0.94856
v 0.46870 0.14085 0.81565
v 0.50581 0.15790 0.92567
v 0.44636 0.12010 0.94856
v 0.48143 0.11303 0.94533
v 0.47691 0.16183 0.93429
v 0.56071 0.16227 0.93176
v 0.49691 0.04946 0.94342
v 0.36191 0.04500 1.01309
v 0.80690 0.16906 0.61796
v 0.72695 0.05323 0.72670
v 0.62002 0.05348 0.84725
v 0.84684 0.04806 0.49200
v 0.89687 0.16923 0.32861
v 0.90631 0.04674 0.07955
v 0.87895 0.15451 -0.08469
v 0.89687 0.16923 0.32861
v 0.90631 0.04674 0.07955
v 0.87643 0.19448 -0.27397
v 0.93162 0.19279 0.24165
v 0.87895 0.15451 -0.08469
v 0.78520 0.15288 -0.41390
v 0.69536 0.20870 -0.71136
v 0.78037 0.04580 -0.38648
v 0.68435 0.04812 -0.57898
v 0.84387 0.04418 -0.20359
v 0.90631 0.04674 0.07955
v 0.20712 0.14577 -0.93905
v 0.54276 0.14860 -0.74971
v 0.31251 0.04683 -0.91984
v 0.56638 0.04882 -0.74299
v 1.03337 0.04779 -0.23517
v 1.00383 0.10676 -0.21801
v 0.96741 0.05308 -0.19644
v 0.93319 0.08982 -0.39986
v 0.87086 0.10680 -0.61576
v 0.75296 0.04520 -0.67128
v 0.96741 0.05308 -0.19644
v 0.98255 0.11938 -0.33212
v 1.00383 0.10676 -0.21801
v 0.68479 0.13533 -0.83135
v 0.84897 0.14529 -0.74479
v 0.64284 0.05710 -0.83367
v 0.62236 0.11908 -0.86949
v 0.63755 0.09774 -0.91624
v 0.71663 0.06273 -0.78576
v 0.64284 0.05710 -0.83367
v 0.71483 0.05200 -0.78036
v 0.71145 0.05668 -0.84192
v 0.71663 0.06273 -0.78576
v 0.67639 0.08055 -0.92241
v 0.63755 0.09774 -0.91624
v 0.71483 0.05200 -0.78036
v 0.71663 0.06273 -0.78576
v 0.71729 0.05190 -0.78837
v 0.71145 0.05668 -0.84192
v 0.68479 0.13533 -0.83135
v 0.71145 0.05668 -0.84192
v 0.67639 0.08055 -0.92241
v 0.66324 0.12951 -1.01560
v 0.68086 0.05997 -1.07000
v 0.66017 0.09695 -1.11330
v 0.84897 0.14529 -0.74479
v 0.99594 0.03814 -0.43070
v 0.93319 0.08982 -0.39986
v 0.98255 0.11938 -0.33212
v 0.87086 0.10680 -0.61576
v 0.84503 0.04287 -0.74451
v 1.03337 0.04779 -0.23517
v 1.00383 0.10676 -0.21801
v -0.52815 0.15346 -0.78234
v -0.35301 0.20880 -1.08939
v -0.30465 0.15073 -0.92369
v -0.09111 0.14466 -0.96459
v 0.19650 0.20848 -1.11736
v 0.20712 0.14577 -0.93905
v 0.51717 0.22831 -0.97146
v 0.54276 0.14860 -0.74971
v -0.57750 0.22170 -0.89555
v 0.69536 0.20870 -0.71136
v 0.78520 0.15288 -0.41390
v -0.72889 0.22443 -0.70163
v -0.77484 0.17205 -0.45811
v -0.92004 0.24193 -0.24806
v -0.90614 0.18271 -0.05737
v -0.95459 0.22390 0.03784
v -0.92866 0.19160 0.24624
v -0.95075 0.22755 0.42713
v -0.86316 0.19364 0.53386
v -0.93088 0.25319 0.66007
v -0.78512 0.19917 0.71652
v -0.68188 0.24419 1.00283
v -0.59395 0.18158 0.93842
v -0.37597 0.15003 1.00524
v -0.80117 0.29794 0.91405
v -0.38841 0.45716 1.08420
v -0.40392 0.70326 0.94019
v -0.62594 0.60833 0.96511
v -0.60957 0.43244 1.04528
v -0.64957 0.78657 0.81955
v -0.39689 0.84053 0.79889
v -0.80117 0.29794 0.91405
v -0.68188 0.24419 1.00283
v -0.37934 0.64377 1.05150
v -0.34294 0.58247 1.11327
v -0.35824 0.42937 1.12908
v -0.37505 0.21493 1.06024
v -0.41369 0.95073 -0.67277
v -0.55200 0.91292 -0.69415
v -0.61464 0.92026 -0.60736
v -0.38261 0.95431 -0.80398
v -0.33332 0.97014 -0.55490
v -0.43695 0.97408 -0.47881
v -0.52691 0.99094 -0.63905
v -0.58753 0.99868 -0.38885
v -0.14649 0.96438 -0.90262
v -0.53076 0.94604 -0.11251
v -0.61210 0.99059 -0.53624
v -0.27918 0.96125 -0.26170
v -0.05582 0.96713 -0.01479
v -0.18772 0.93773 0.06271
v -0.12217 0.93367 0.05493
v 0.16827 0.93515 0.06499
v 0.20614 0.97359 -0.03156
v 0.29331 0.90858 0.06928
v 0.27726 0.95577 -0.02124
v 0.38938 1.08778 -0.25634
v 0.34254 0.90708 0.06361
v -0.48585 0.93385 0.07173
v -0.56872 0.94201 -0.10795
v -0.58506 0.97225 -0.18525
v -0.61565 0.93630 -0.02542
v -0.65336 0.93381 0.08806
v -0.71681 0.95461 -0.05650
v -0.59403 0.95847 0.16329
v -0.52329 0.93729 0.29080
v -0.62701 0.93889 0.26509
v -0.73867 0.92623 0.35011
v -0.61078 0.90928 0.65811
v -0.70426 0.91014 0.54355
v -0.52454 0.93314 0.56756
v -0.45221 0.93026 0.58833
v -0.38957 0.91062 0.68361
v -0.37608 0.90593 0.61386
v -0.71955 0.94000 0.25522
v -0.32056 0.94025 0.30098
v -0.74142 0.92812 0.10984
v -0.73247 0.91061 0.50691
v -0.75783 0.90837 0.58804
v -0.64795 0.96527 -0.41913
v -0.17712 0.93475 0.22230
v 0.17188 0.94724 0.08966
v 0.19182 0.90563 0.61525
v 0.31954 0.92907 0.49368
v 0.34784 0.94000 0.37712
v 0.48760 0.94185 0.23431
v 0.44999 0.93771 0.38903
v -0.15025 0.89065 0.62147
v 0.46304 0.93592 0.49507
v 0.62166 0.94393 0.23603
v 0.59101 0.91400 0.61840
v 0.35450 0.94577 0.06971
v 0.43750 0.94635 0.06516
v 0.50012 0.94918 0.14086
v 0.60150 0.93932 0.10488
v 0.49510 0.93627 -0.01930
v 0.63449 0.95412 0.00563
v 0.52740 0.97819 -0.03471
v 0.49288 0.94748 -0.07518
v 0.49428 0.94419 -0.17652
v 0.44406 0.96225 -0.27947
v 0.49383 0.96271 -0.45745
v -0.31864 0.94746 0.57223
v 0.14060 0.86645 0.63427
v -0.15025 0.89065 0.62147
v -0.37674 0.87405 0.74201
v -0.37608 0.90593 0.61386
v 0.11499 0.85144 0.77134
v 0.45296 0.85883 0.76473
v 0.44671 0.88693 0.63979
v 0.43718 0.81577 0.91993
v -0.01703 0.81915 0.91997
v -0.39689 0.84053 0.79889
v 0.59101 0.91400 0.61840
v 0.46304 0.93592 0.49507
v 0.19182 0.90563 0.61525
v -0.30199 0.72136 1.01943
v -0.38957 0.91062 0.68361
v -0.61078 0.90928 0.65811
v -0.64957 0.78657 0.81955
v -0.37934 0.64377 1.05150
v -0.03186 1.06047 -0.05314
v 0.01710 1.16183 -0.04501
v -0.12710 1.16307 -0.10641
v 0.20614 0.97359 -0.03156
v 0.22415 1.16507 -0.06894
v -0.05582 0.96713 -0.01479
v -0.23194 1.07390 -0.23075
v -0.27918 0.96125 -0.26170
v -0.26516 1.17289 -0.28793
v 0.02843 1.18876 -0.08172
v 0.11212 1.18507 -0.08369
v 0.07402 1.25050 -0.11553
v 0.07983 1.20959 -0.52586
v 0.05709 1.20201 -0.27927
v 0.26094 1.20420 -0.23631
v 0.28286 1.21673 -0.71216
v 0.02792 1.22192 -0.83720
v -0.12018 1.21548 -0.71214
v -0.06625 1.21198 -0.52052
v -0.17751 1.20021 -0.48337
v 0.09859 1.21307 -0.15194
v 0.33488 1.22641 -0.56722
v -0.13455 1.17015 -0.40683
v 0.11212 1.18507 -0.08369
v 0.22415 1.16507 -0.06894
v 0.38960 1.16966 -0.24858
v 0.35764 1.17717 -0.40391
v 0.43716 1.16528 -0.42139
v 0.38031 1.15611 -0.71851
v -0.21778 1.24098 -0.51034
v 0.07402 1.25050 -0.11553
v -0.13940 1.18923 -0.34637
v -0.26516 1.17289 -0.28793
v 0.02843 1.18876 -0.08172
v -0.12710 1.16307 -0.10641
v -0.30581 1.15900 -0.53089
v -0.41255 0.73483 -0.90065
v -0.64660 0.33262 -0.79060
v -0.55200 0.91292 -0.69415
v -0.37340 0.31522 -1.07774
v -0.33871 0.57138 -1.01665
v -0.78512 0.28107 -0.58319
v -0.61464 0.92026 -0.60736
v -0.62340 0.28946 -0.84093
v -0.72889 0.22443 -0.70163
v -0.51887 0.28333 -0.96218
v -0.42056 0.26787 -1.04959
v -0.57750 0.22170 -0.89555
v -0.75485 0.86426 -0.28459
v -0.86689 0.47349 -0.23113
v -0.92004 0.24193 -0.24806
v -0.73525 0.91280 -0.32288
v -0.39354 0.78193 -0.87543
v -0.42361 0.85567 -0.85064
v -0.35301 0.20880 -1.08939
v -0.35776 0.79485 -0.88520
v -0.32516 0.84210 -0.93430
v -0.37249 0.75055 -0.88959
v -0.18746 1.06037 -0.81167
v 0.06650 1.05066 -0.92784
v -0.14649 0.96438 -0.90262
v 0.05044 0.90820 -0.99225
v -0.15529 0.91081 -0.96272
v -0.38261 0.95431 -0.80398
v -0.41032 0.90582 -0.82802
v -0.55200 0.91292 -0.69415
v -0.42361 0.85567 -0.85064
v 0.18097 0.91146 -0.96653
v 0.18601 1.15300 -0.89782
v -0.07351 1.15065 -0.89872
v 0.08278 1.17172 -0.87553
v 0.28286 1.21673 -0.71216
v 0.02792 1.22192 -0.83720
v 0.38031 1.15611 -0.71851
v -0.23757 1.16658 -0.73979
v -0.18063 1.17720 -0.69632
v -0.30581 1.15900 -0.53089
v -0.22790 1.18398 -0.56312
v -0.26219 1.22843 -0.54988
v -0.21778 1.24098 -0.51034
v -0.26516 1.17289 -0.28793
v -0.29735 1.05746 -0.54067
v -0.23194 1.07390 -0.23075
v -0.30581 1.15900 -0.53089
v -0.33332 0.97014 -0.55490
v -0.27918 0.96125 -0.26170
v -0.18746 1.06037 -0.81167
v -0.14649 0.96438 -0.90262
v -0.23757 1.16658 -0.73979
v -0.07351 1.15065 -0.89872
v 0.06650 1.05066 -0.92784
v 0.47601 0.18404 0.87519
v 0.44692 0.12498 0.83191
v 0.43039 0.12047 0.91028
v 0.46870 0.14085 0.81565
v 0.47691 0.16183 0.93429
v 0.44636 0.12010 0.94856
v 0.62028 0.72676 0.83888
v 0.48510 0.68268 0.95339
v 0.57641 0.45976 1.02603
v 0.74741 0.33778 0.91824
v 0.47918 0.41607 1.07053
v 0.45296 0.85883 0.76473
v 0.59101 0.91400 0.61840
v 0.66502 0.88524 0.56677
v 0.68087 0.84221 0.59979
v 0.86727 0.30550 0.73111
v 0.76257 0.65890 0.57544
v 0.73081 0.79120 0.55153
v 0.89855 0.29438 0.48583
v 0.43718 0.81577 0.91993
v 0.46143 0.58929 1.06495
v 0.42224 0.61282 1.07582
v 0.45216 0.52905 1.10389
v 0.45341 0.49621 1.13726
v 0.44354 0.55892 1.12068
v 0.85975 0.22953 0.74263
v 0.56071 0.16227 0.93176
v 0.80690 0.16906 0.61796
v 0.72526 0.23325 0.92580
v 0.47651 0.14240 0.97881
v 0.89687 0.16923 0.32861
v 0.50581 0.15790 0.92567
v 0.93162 0.19279 0.24165
v 0.87895 0.15451 -0.08469
v 0.47691 0.16183 0.93429
v 0.62692 0.95950 -0.22905
v 0.52740 0.97819 -0.03471
v 0.63449 0.95412 0.00563
v 0.69581 0.92078 -0.11051
v 0.69465 0.89627 -0.28073
v 0.56152 0.93240 -0.48739
v 0.62416 0.90145 -0.49208
v 0.49383 0.96271 -0.45745
v 0.39736 0.96789 -0.75530
v 0.41634 0.92936 -0.81020
v 0.33308 0.89782 -0.89228
v 0.46462 0.89481 -0.78938
v 0.18097 0.91146 -0.96653
v 0.60150 0.93932 0.10488
v 0.62166 0.94393 0.23603
v 0.69598 0.90582 0.35252
v 0.59101 0.91400 0.61840
v 0.66944 0.89573 0.50439
v 0.66502 0.88524 0.56677
v 0.78113 0.74156 0.08331
v 0.46462 0.89481 -0.78938
v 0.73239 0.29815 -0.60116
v 0.53054 0.48710 -0.86823
v 0.62416 0.90145 -0.49208
v 0.51717 0.22831 -0.97146
v 0.89264 0.27018 -0.18784
v 0.69465 0.89627 -0.28073
v 0.74247 0.26404 -0.63000
v 0.87643 0.19448 -0.27397
v 0.69536 0.20870 -0.71136
v 0.45350 0.38977 -0.96862
v 0.45625 0.31889 -1.00726
v 0.39155 0.75738 -0.89688
v 0.33308 0.89782 -0.89228
v 0.37703 0.72786 -0.91720
v 0.35589 0.76659 -0.93605
v 0.41920 0.60159 -0.92656
v 0.36284 0.74474 -0.94978
v 0.40132 0.45317 -0.98134
v 0.40749 0.40657 -1.02654
v 0.41634 0.92936 -0.81020
v 0.47000 0.40347 -1.05680
v 1.02542 0.00280 0.89065
v 1.07148 0.08605 0.92041
v 0.98792 0.03479 0.87177
v 0.98792 0.03479 0.87177
v 0.98270 0.06288 0.93035
v 1.07148 0.08605 0.92041
v 0.98792 0.03479 0.87177
v 0.98616 0.05088 1.13142
v 0.98270 0.06288 0.93035
v 1.07148 0.08605 0.92041
v 0.98270 0.06288 0.93035
v 1.03184 -0.01146 0.95087
v 0.97741 -0.00012 -1.63360
v 0.94261 0.02983 -1.39738
v 0.94345 0.04039 -1.06546
v 0.89031 0.05324 -1.88081
v 0.82133 0.09422 -1.49291
v 0.81126 0.09341 -1.85996
v 0.82259 0.09602 -1.33772
v 0.87608 0.07672 -1.08247
v 0.71318 0.14713 -1.40415
v 0.73930 0.12062 -1.69101
v 0.71256 0.13644 -1.68961
v 0.69383 0.13803 -1.07252
v 0.69372 0.13682 -1.65939
v 0.69577 0.11014 -1.92339
v 0.67026 0.11967 -1.73885
v 0.69263 0.11099 -1.70082
v 1.03901 0.00192 0.08195
v 1.07378 0.09752 0.04302
v 0.99092 0.04091 0.07726
v 1.07378 0.09752 0.04302
v 1.03901 0.00192 0.08195
v 1.00823 0.02539 -0.01293
v -0.86315 0.09637 -1.07788
v -0.95529 0.05649 -1.05926
v -0.81064 0.00834 -1.05886
v -0.74468 0.13903 -1.08105
v -0.70608 0.03155 -1.06553
v -0.70608 0.11450 -1.08579
v -1.22883 0.16391 -1.26678
v -1.26666 0.08191 -1.24378
v -1.12102 0.10311 -1.24546
v -1.18993 0.20878 -1.23524
v -0.83055 0.03832 -1.01751
v -0.87275 0.00018 -1.00004
v -1.02542 0.05666 -0.99918
v -0.97805 0.02003 -1.88528
v -0.97111 0.03458 -1.52199
v -0.89822 0.07232 -1.51939
v -0.91121 0.06308 -1.96791
v -0.93988 0.06061 -1.36198
v -0.75716 0.13032 -1.99796
v -0.74752 0.12427 -1.69056
v -0.75149 0.13879 -1.63806
v -0.73614 0.13903 -1.31881
v -0.86315 0.09637 -1.07788
v -0.94209 0.04082 -1.31086
v -0.92623 0.07266 -1.14444
v -0.95529 0.05649 -1.05926
v -0.74468 0.13903 -1.08105
v -1.00824 0.03170 -1.12602
v -0.99187 0.01157 -1.42623
v -0.93988 0.06061 -1.36198
v -0.99187 0.01157 -1.42623
v -0.94209 0.04082 -1.31086
v -1.11556 0.12633 -1.50369
v -1.12102 0.10311 -1.24546
v -1.09695 -0.05440 -1.26005
v -1.18993 0.20878 -1.23524
v -1.22477 0.24486 -1.54101
v -1.09710 -0.05688 -1.61262
v -1.10972 0.08467 -1.86345
v -1.11209 0.07299 -1.75640
v -1.10842 0.15784 -1.50277
v -1.11556 0.12633 -1.50369
v -1.10842 0.15784 -1.50277
v -1.11661 0.19610 -1.51294
v -1.11556 0.12633 -1.50369
v -1.22477 0.24486 -1.54101
v -1.12341 0.15678 -1.62142
v -1.17187 0.16928 -1.75657
v -1.14073 0.18510 -1.55004
v -1.22477 0.24486 -1.54101
v -1.11661 0.19610 -1.51294
v -1.07765 0.11999 -1.70524
v -1.12341 0.15678 -1.62142
v -1.10842 0.15784 -1.50277
v -1.11209 0.07299 -1.75640
v -1.17187 0.16928 -1.75657
v -1.07765 0.11999 -1.70524
v -1.10842 0.15784 -1.50277
v -1.12341 0.15678 -1.62142
v -1.02423 0.18285 -1.80990
v -1.07765 0.11999 -1.70524
v -1.06169 0.05438 -1.78256
v -1.04088 0.07045 -1.86886
v -1.10842 0.15784 -1.50277
v -1.11661 0.19610 -1.51294
v -1.09342 0.08519 -1.86794
v -1.06169 0.05438 -1.78256
v -1.10381 0.08310 -1.80524
v -1.11209 0.07299 -1.75640
v -1.10972 0.08467 -1.86345
v -1.12016 0.13433 -1.78775
v -1.10972 0.08467 -1.86345
v -1.10381 0.08310 -1.80524
v -1.11494 0.16368 -1.75578
v -1.26079 0.23759 -1.79943
v -1.17187 0.16928 -1.75657
v -1.11209 0.07299 -1.75640
v -1.15125 0.26079 -1.87180
v -1.11494 0.16368 -1.75578
v -1.12349 0.15924 -1.85243
v -1.07765 0.11999 -1.70524
v -1.11661 0.19610 -1.51294
v -1.11494 0.16368 -1.75578
v -1.11209 0.07299 -1.75640
v -1.06169 0.05438 -1.78256
v -1.07765 0.11999 -1.70524
v -1.11209 0.07299 -1.75640
v -1.12016 0.13433 -1.78775
v -1.07918 0.14478 -1.79065
v -1.10381 0.08310 -1.80524
v -1.08113 0.09784 -1.79360
v -1.07918 0.14478 -1.79065
v -1.07750 0.16690 -1.84233
v -1.05889 0.14228 -1.82811
v -1.12016 0.13433 -1.78775
v -1.07579 0.22332 -1.82159
v -1.12349 0.15924 -1.85243
v -1.11494 0.16368 -1.75578
v -1.11661 0.19610 -1.51294
v -1.09342 0.08519 -1.86794
v -1.08113 0.09784 -1.79360
v -1.10381 0.08310 -1.80524
v -1.02423 0.18285 -1.80990
v -1.07579 0.22332 -1.82159
v -1.11661 0.19610 -1.51294
v -1.06883 0.10970 -1.86724
v -1.08113 0.09784 -1.79360
v -1.05889 0.14228 -1.82811
v -1.07918 0.14478 -1.79065
v -0.69772 0.03198 -1.12404
v -0.67975 0.09670 -1.07994
v -0.70608 0.03155 -1.06553
v -0.74468 0.13903 -1.08105
v -0.70608 0.11450 -1.08579
v -0.69772 0.03198 -1.12404
v -0.67975 0.09670 -1.07994
v -0.68182 0.10239 -1.14661
v -0.74468 0.13903 -1.08105
v -0.69772 0.03198 -1.12404
v -0.64869 0.11187 -1.13513
v -0.74468 0.13903 -1.08105
v -0.68182 0.10239 -1.14661
v -0.65380 0.08885 -0.87332
v -0.66454 0.05626 -0.93470
v -0.60972 0.08473 -0.93352
v -0.62209 0.05771 -0.95088
v -0.68615 0.08145 -0.89613
v -0.70001 0.04623 -0.92254
v -0.73448 0.08931 -0.86850
v -0.45615 0.07650 -0.94501
v -0.70608 0.03155 -1.06553
v -0.69952 0.02485 -1.02354
v -0.70608 0.03155 -1.06553
v -0.67975 0.09670 -1.07994
v -0.65760 0.06051 -1.08631
v -0.70608 0.03155 -1.06553
v -0.65760 0.06051 -1.08631
v -0.69952 0.02485 -1.02354
v -0.69772 0.03198 -1.12404
v -0.65760 0.06051 -1.08631
v -0.68182 0.10239 -1.14661
v -0.67975 0.09670 -1.07994
v -0.70608 0.11450 -1.08579
v -0.68182 0.10239 -1.14661
v -0.65760 0.06051 -1.08631
v -0.89822 0.07232 -1.51939
v -0.93988 0.06061 -1.36198
v -0.94209 0.04082 -1.31086
v -0.70793 0.09144 -1.34386
v -0.73614 0.13903 -1.31881
v -0.69084 0.13321 -1.45938
v -0.70139 0.05033 -1.32287
v -0.69741 0.04906 -1.38565
v -0.71064 0.08232 -1.39563
v -0.70139 0.05033 -1.32287
v -0.70231 0.07290 -1.44056
v -0.71822 0.12431 -1.36989
v -0.73614 0.13903 -1.31881
v -0.68513 0.08722 -1.38075
v -0.69741 0.04906 -1.38565
v -0.70985 0.02445 -1.34026
v -0.70139 0.05033 -1.32287
v -0.69860 0.07773 -1.29173
v -0.70231 0.07290 -1.44056
v -0.70793 0.09144 -1.34386
v -0.71822 0.12431 -1.36989
v -0.71064 0.08232 -1.39563
v -0.68513 0.08722 -1.38075
v -0.70793 0.09144 -1.34386
v -0.71064 0.08232 -1.39563
v -0.70231 0.07290 -1.44056
v -0.69860 0.07773 -1.29173
v -0.70139 0.05033 -1.32287
v -0.70793 0.09144 -1.34386
v -0.69860 0.07773 -1.29173
v -0.56107 0.18334 -1.64797
v -0.70141 0.22149 -1.65172
v -0.70278 0.14231 -1.65666
v -0.75853 0.17822 -1.65723
v -0.98187 0.20258 -1.65413
v -0.48433 0.21563 -1.64861
v -0.43354 0.16058 -1.65629
v -0.75149 0.13879 -1.63806
v -0.44374 0.13074 -1.68770
v -0.53009 0.12690 -1.68797
v -0.72544 0.10316 -1.69475
v -0.68410 0.08787 -1.69504
v -0.69459 0.08807 -1.63027
v -0.69644 0.07282 -1.84232
v -0.70571 0.00777 -1.72720
v -0.68410 0.08787 -1.69504
v -0.70218 0.04259 -1.69583
v -0.69459 0.08807 -1.63027
v -0.55413 0.10543 -1.57866
v -0.53587 0.16654 -1.50809
v -0.54718 0.08099 -1.48547
v -0.54373 0.16309 -1.57445
v -0.53151 0.14720 -1.30009
v -0.53764 0.06793 -1.31044
v -0.56107 0.18334 -1.64797
v -0.32533 0.23168 -1.57873
v -0.54373 0.16309 -1.57445
v -0.39768 0.08882 -1.59345
v -0.49894 0.08511 -1.58591
v -0.55413 0.10543 -1.57866
v -0.21523 0.17741 -1.56679
v -0.23626 0.09554 -1.57712
v -0.43906 0.25557 -1.61310
v -0.56107 0.18334 -1.64797
v -0.54373 0.16309 -1.57445
v -0.23953 0.15876 -1.28778
v -0.38552 0.05132 -1.26864
v -0.40254 0.15169 -1.26149
v -0.23143 0.05423 -1.30057
v -0.53764 0.06793 -1.31044
v -0.53151 0.14720 -1.30009
v -0.23238 0.17832 -1.46367
v -0.23000 0.08577 -1.47326
v -0.23953 0.15876 -1.28778
v -0.23143 0.05423 -1.30057
v -0.23626 0.09554 -1.57712
v -0.21523 0.17741 -1.56679
v 0.20712 0.14577 -0.93905
v 0.13840 0.07843 -0.95810
v -0.09111 0.14466 -0.96459
v -0.01193 0.09043 -0.97174
v 0.19821 0.05698 -0.94901
v 0.14999 0.05052 -0.96383
v -0.24546 0.06290 -0.95155
v -0.30465 0.15073 -0.92369
v 0.29173 0.08187 -0.88993
v 0.28958 0.05361 -0.89293
v 0.31251 0.04683 -0.91984
v 0.19821 0.05698 -0.94901
v 0.28958 0.05361 -0.89293
v 0.31251 0.04683 -0.91984
v -0.54718 0.08099 -1.48547
v -0.38552 0.05132 -1.26864
v -0.39768 0.08882 -1.59345
v -0.23143 0.05423 -1.30057
v -0.53764 0.06793 -1.31044
v -0.49894 0.08511 -1.58591
v -0.23000 0.08577 -1.47326
v -0.23626 0.09554 -1.57712
v -0.55413 0.10543 -1.57866
v -0.48433 0.21563 -1.64861
v -0.43872 0.15352 -1.64676
v -0.53903 0.13897 -1.65481
v -0.43354 0.16058 -1.65629
v -0.48918 0.13167 -1.63023
v -0.53903 0.13897 -1.65481
v -0.56107 0.18334 -1.64797
v -0.43906 0.25557 -1.61310
v -0.44374 0.13074 -1.68770
v -0.53009 0.12690 -1.68797
v -0.48918 0.13167 -1.63023
v -0.53903 0.13897 -1.65481
v -0.53009 0.12690 -1.68797
v -0.56107 0.18334 -1.64797
v -0.53903 0.13897 -1.65481
v -0.30810 0.19580 -1.65257
v -0.24801 0.14684 -1.67669
v -0.20750 0.16795 -1.65521
v -0.20750 0.16795 -1.65521
v -0.23790 0.16789 -1.62670
v -0.30810 0.19580 -1.65257
v -0.24801 0.14684 -1.67669
v -0.30810 0.19580 -1.65257
v -0.23790 0.16789 -1.62670
v -0.20750 0.16795 -1.65521
v -0.14568 0.38852 -1.26627
v -0.22199 0.37054 -1.20345
v -0.01677 0.36480 -1.13862
v -0.22982 0.34832 -1.12587
v 0.02069 0.40069 -1.15319
v -0.04952 0.37937 -1.27069
v -0.08648 0.14786 -1.71886
v -0.18607 0.16960 -1.72807
v -0.09131 0.22907 -1.71811
v 0.04982 0.21569 -1.70633
v 0.04902 0.14129 -1.71761
v -0.59930 0.17045 -1.72269
v 0.15076 0.16511 -1.72835
v 0.32967 0.26167 -1.70423
v 0.55785 0.16456 -1.72663
v 0.65466 0.22681 -1.70176
v 0.65991 0.14408 -1.71881
v -0.69243 0.23201 -1.69535
v -0.69374 0.14277 -1.71342
v -0.74752 0.12427 -1.69056
v -0.72544 0.10316 -1.69475
v -0.68410 0.08787 -1.69504
v -0.75853 0.17822 -1.65723
v -0.98187 0.20258 -1.65413
v 0.67026 0.11967 -1.73885
v -0.75853 0.17822 -1.65723
v -0.74752 0.12427 -1.69056
v -0.75149 0.13879 -1.63806
v 0.67026 0.11967 -1.73885
v 0.56061 0.13838 -2.00961
v 0.55785 0.16456 -1.72663
v 0.16961 0.14824 -2.02160
v 0.04902 0.14129 -1.71761
v 0.15076 0.16511 -1.72835
v -0.56979 0.15324 -2.03366
v -0.69374 0.14277 -1.71342
v -0.59930 0.17045 -1.72269
v -0.16553 0.13505 -2.02410
v -0.07944 0.11481 -1.97538
v -0.08648 0.14786 -1.71886
v -0.18607 0.16960 -1.72807
v -0.25702 0.14663 -2.00924
v -0.75716 0.13032 -1.99796
v -0.71242 0.11914 -1.77289
v -0.74752 0.12427 -1.69056
v -0.72544 0.10316 -1.69475
v -0.70571 0.00777 -1.72720
v -0.72447 0.02103 -1.88234
v -0.71750 0.08890 -1.82461
v -0.70218 0.04259 -1.69583
v -0.72544 0.10316 -1.69475
v -0.69459 0.08807 -1.63027
v -0.71242 0.11914 -1.77289
v -0.68410 0.08787 -1.69504
v -0.71750 0.08890 -1.82461
v -0.69644 0.07282 -1.84232
v -0.71242 0.11914 -1.77289
v -0.69374 0.14277 -1.71342
v -0.43872 0.15352 -1.64676
v -0.44374 0.13074 -1.68770
v -0.48918 0.13167 -1.63023
v -0.43354 0.16058 -1.65629
v 0.07000 0.23182 -1.65678
v 0.05936 0.16720 -1.65068
v 0.12573 0.16420 -1.64397
v 0.07000 0.23182 -1.65678
v -0.16575 0.17177 -1.64842
v -0.08049 0.15562 -1.67169
v 0.03802 0.14660 -1.68156
v 0.05936 0.16720 -1.65068
v 0.07000 0.23182 -1.65678
v 0.03802 0.14660 -1.68156
v 0.06384 0.11721 -1.22157
v 0.68662 0.01517 -1.06798
v 0.94345 0.04039 -1.06546
v 0.68086 0.05997 -1.07000
v 0.87608 0.07672 -1.08247
v 0.69383 0.13803 -1.07252
v 1.21360 0.08334 -1.21907
v 1.21592 0.23200 -1.23341
v 1.11736 0.14996 -1.23792
v 1.22624 0.09084 -1.23671
v 1.09374 0.02355 -1.23949
v 1.07724 0.07579 -1.22468
v 1.06527 0.04774 -1.76069
v 1.06540 -0.07624 -1.65083
v 1.07100 0.13435 -1.68005
v 1.06239 -0.08307 -1.50261
v 1.06440 0.05102 -1.51324
v 1.07870 0.15348 -1.64904
v 1.11372 0.17320 -1.54954
v 1.09835 0.17083 -1.50440
v 1.12571 0.20252 -1.28848
v 1.07724 0.07579 -1.22468
v 1.07211 -0.01074 -1.22790
v 1.21592 0.23200 -1.23341
v 1.11736 0.14996 -1.23792
v 0.31251 0.04683 -0.91984
v 0.52670 0.04298 -0.93740
v 0.53593 0.09539 -0.95064
v 0.63755 0.09774 -0.91624
v 0.66864 0.04426 -0.93917
v 0.67639 0.08055 -0.92241
v 0.19821 0.05698 -0.94901
v 0.16952 0.07132 -0.96534
v 0.14999 0.05052 -0.96383
v 0.13840 0.07843 -0.95810
v 0.19870 0.06276 -1.29131
v 0.33822 0.03291 -1.25585
v 0.34455 0.05460 -1.23055
v 0.58670 0.06097 -0.98064
v 0.64834 0.08096 -1.00052
v 0.64212 0.08347 -0.95576
v 0.59391 0.07383 -1.05565
v 0.67639 0.08055 -0.92241
v 0.68086 0.05997 -1.07000
v 0.19870 0.06276 -1.29131
v 0.19878 0.15525 -1.28477
v 0.33822 0.03291 -1.25585
v 0.39187 0.14024 -1.27318
v 0.41852 0.08246 -1.22807
v 0.34455 0.05460 -1.23055
v 0.39187 0.14024 -1.27318
v 0.39187 0.14024 -1.27318
v 0.34455 0.05460 -1.23055
v 0.33822 0.03291 -1.25585
v 0.19407 0.08839 -1.57451
v 0.19870 0.06276 -1.29131
v 0.40581 0.05631 -1.26957
v 0.34455 0.05460 -1.23055
v 0.49435 0.09126 -1.55866
v 0.49851 0.06372 -1.30305
v 0.17701 0.09375 -1.51036
v 0.41852 0.08246 -1.22807
v 0.64094 0.08987 -1.14707
v 0.61179 0.10131 -1.10668
v 0.63168 0.02734 -1.08471
v 0.64094 0.08987 -1.14707
v 0.68896 0.09761 -1.11964
v 0.61179 0.10131 -1.10668
v 0.63168 0.02734 -1.08471
v 0.61179 0.10131 -1.10668
v 0.65950 0.00361 -1.10316
v 0.66017 0.09695 -1.11330
v 0.64212 0.08347 -0.95576
v 0.67639 0.08055 -0.92241
v 0.66864 0.04426 -0.93917
v 0.58670 0.06097 -0.98064
v 0.40749 0.40657 -1.02654
v 0.27585 0.41227 -1.20372
v 0.20753 0.39903 -1.11112
v 0.47000 0.40347 -1.05680
v 0.09028 0.37447 -1.23894
v 0.45350 0.38977 -0.96862
v 0.20712 0.14577 -0.93905
v 0.31251 0.04683 -0.91984
v 0.29173 0.08187 -0.88993
v 0.62236 0.11908 -0.86949
v 0.53593 0.09539 -0.95064
v 0.63755 0.09774 -0.91624
v 0.62236 0.11908 -0.86949
v 0.63755 0.09774 -0.91624
v 0.64284 0.05710 -0.83367
v 0.40581 0.05631 -1.26957
v 0.41852 0.08246 -1.22807
v 0.39187 0.14024 -1.27318
v 0.49435 0.09126 -1.55866
v 0.49851 0.06372 -1.30305
v 0.49428 0.15007 -1.30910
v 0.48775 0.17114 -1.48783
v 0.40581 0.05631 -1.26957
v 0.39187 0.14024 -1.27318
v 0.49428 0.15007 -1.30910
v 0.49851 0.06372 -1.30305
v 0.17701 0.09375 -1.51036
v 0.18747 0.15994 -1.56033
v 0.19870 0.06276 -1.29131
v 0.19878 0.15525 -1.28477
v 0.19407 0.08839 -1.57451
v 0.19407 0.08839 -1.57451
v 0.49587 0.16706 -1.57252
v 0.30881 0.21468 -1.58057
v 0.49435 0.09126 -1.55866
v 0.52100 0.10798 -1.56427
v 0.18747 0.15994 -1.56033
v 0.48775 0.17114 -1.48783
v 0.53076 0.10254 -1.49036
v 0.49435 0.09126 -1.55866
v 0.49435 0.09126 -1.55866
v 0.53076 0.10254 -1.49036
v 0.52100 0.10798 -1.56427
v 0.66365 0.00368 -1.54815
v 0.64488 0.11181 -1.68229
v 0.65450 0.09995 -1.57566
v 0.66332 0.00295 -1.45067
v 0.64875 0.09383 -1.79137
v 0.68484 0.12074 -1.55537
v 0.67748 0.09563 -1.43783
v 0.67311 -0.03013 -1.37986
v 0.66305 0.11442 -1.33536
v 0.67026 0.11967 -1.73885
v 0.65991 0.14408 -1.71881
v 0.48775 0.17114 -1.48783
v 0.52100 0.10798 -1.56427
v 0.53076 0.10254 -1.49036
v 0.49587 0.16706 -1.57252
v 0.90013 0.19425 -1.67829
v 0.69874 0.21314 -1.64614
v 0.70937 0.17640 -1.67782
v 0.69372 0.13682 -1.65939
v 0.73930 0.12062 -1.69101
v 0.66332 0.17655 -1.67524
v 0.68086 0.05997 -1.07000
v 0.67534 0.02435 -1.01552
v 0.68662 0.01517 -1.06798
v 0.68896 0.09761 -1.11964
v 0.66017 0.09695 -1.11330
v 0.68086 0.05997 -1.07000
v 0.64094 0.08987 -1.14707
v 0.63168 0.02734 -1.08471
v 0.70183 0.08810 -1.24229
v 0.69383 0.13803 -1.07252
v 0.68427 0.11195 -1.31664
v 0.70941 0.07106 -1.36702
v 0.70038 0.08163 -1.37408
v 0.68896 0.09761 -1.11964
v 0.68086 0.05997 -1.07000
v 0.66365 0.00368 -1.54815
v 0.67451 0.07108 -1.51164
v 0.67743 0.10145 -1.54806
v 0.66639 0.08458 -1.70981
v 0.68922 0.10051 -1.50459
v 0.64875 0.09383 -1.79137
v 0.67026 0.11967 -1.73885
v 0.69263 0.11099 -1.70082
v 0.67748 0.09563 -1.43783
v 0.68484 0.12074 -1.55537
v 0.67451 0.07108 -1.51164
v 0.67895 0.07690 -1.32777
v 0.68427 0.11195 -1.31664
v 0.67883 0.03386 -1.45934
v 0.68164 0.01238 -1.50986
v 0.66332 0.00295 -1.45067
v 0.67895 0.07690 -1.32777
v 0.67047 -0.06134 -1.43907
v 0.66305 0.11442 -1.33536
v 0.71472 0.08116 -1.32788
v 0.67895 0.07690 -1.32777
v 0.66305 0.11442 -1.33536
v 0.71472 0.08116 -1.32788
v 0.68427 0.11195 -1.31664
v 0.67895 0.07690 -1.32777
v 0.70183 0.08810 -1.24229
v 0.70941 0.07106 -1.36702
v 0.71472 0.08116 -1.32788
v 0.71472 0.08116 -1.32788
v 0.70038 0.08163 -1.37408
v 0.68427 0.11195 -1.31664
v 0.70941 0.07106 -1.36702
v 0.68427 0.11195 -1.31664
v 0.71318 0.14713 -1.40415
v 0.66305 0.11442 -1.33536
v 0.68484 0.12074 -1.55537
v 0.69372 0.13682 -1.65939
v 0.69383 0.13803 -1.07252
v 0.67748 0.09563 -1.43783
v 0.68427 0.11195 -1.31664
v 0.66305 0.11442 -1.33536
v 1.11736 0.14996 -1.23792
v 1.22624 0.09084 -1.23671
v 1.21360 0.08334 -1.21907
v 1.12689 0.19519 -1.61817
v 1.08524 0.16276 -1.66156
v 1.11372 0.17320 -1.54954
v 1.07870 0.15348 -1.64904
v 1.09630 0.16215 -1.73890
v 1.21863 0.24565 -1.79787
v 1.29031 0.24754 -1.59243
v 1.10434 0.19471 -1.80016
v 1.07100 0.13435 -1.68005
v 1.11003 0.23080 -1.55413
v 1.18634 0.23370 -1.49025
v 1.12571 0.20252 -1.28848
v 1.09835 0.17083 -1.50440
v 1.06527 0.04774 -1.76069
v 1.11372 0.17320 -1.54954
v 1.11003 0.23080 -1.55413
v 1.12689 0.19519 -1.61817
v 0.68484 0.12074 -1.55537
v 0.65450 0.09995 -1.57566
v 0.67743 0.10145 -1.54806
v 0.64488 0.11181 -1.68229
v 0.67743 0.10145 -1.54806
v 0.65450 0.09995 -1.57566
v 0.66639 0.08458 -1.70981
v 0.66332 0.17655 -1.67524
v 0.68484 0.12074 -1.55537
v 0.69263 0.11099 -1.70082
v 0.65991 0.14408 -1.71881
v 0.65466 0.22681 -1.70176
v 0.67743 0.10145 -1.54806
v 0.64488 0.11181 -1.68229
v 0.65991 0.14408 -1.71881
v 0.69263 0.11099 -1.70082
v 0.66639 0.08458 -1.70981
v 0.64488 0.11181 -1.68229
v 0.69263 0.11099 -1.70082
v 0.67451 0.07108 -1.51164
v 0.68484 0.12074 -1.55537
v 0.68922 0.10051 -1.50459
v 0.71256 0.13644 -1.68961
v 0.69577 0.11014 -1.92339
v 0.69263 0.11099 -1.70082
v 0.71789 0.09974 -1.66264
v 0.71789 0.09974 -1.66264
v 0.67743 0.10145 -1.54806
v 0.68922 0.10051 -1.50459
v 0.69263 0.11099 -1.70082
v 0.70937 0.17640 -1.67782
v 0.73930 0.12062 -1.69101
v 0.71256 0.13644 -1.68961
v 0.66332 0.17655 -1.67524
v 0.65466 0.22681 -1.70176
v 0.90013 0.19425 -1.67829
v 0.71789 0.09974 -1.66264
v 0.68484 0.12074 -1.55537
v 0.69372 0.13682 -1.65939
v 0.68922 0.10051 -1.50459
v 0.71256 0.13644 -1.68961
v 0.66332 0.17655 -1.67524
v 1.09835 0.17083 -1.50440
v 1.01100 0.23325 -1.82916
v 1.02219 0.13649 -1.73651
v 1.00156 0.07200 -1.84813
v 1.06527 0.04774 -1.76069
v 1.09630 0.16215 -1.73890
v 1.02219 0.13649 -1.73651
v 1.06527 0.04774 -1.76069
v 1.07604 0.19626 -1.72973
v 1.09835 0.17083 -1.50440
v 1.02219 0.13649 -1.73651
v 1.07870 0.15348 -1.64904
v 1.07100 0.13435 -1.68005
v 1.08524 0.16276 -1.66156
v 1.10458 0.18164 -1.61837
v 1.07870 0.15348 -1.64904
v 1.09835 0.17083 -1.50440
v 1.07604 0.19626 -1.72973
v 1.02219 0.13649 -1.73651
v 1.11372 0.17320 -1.54954
v 1.07100 0.13435 -1.68005
v 1.10434 0.19471 -1.80016
v 1.07604 0.19626 -1.72973
v 1.11003 0.23080 -1.55413
v 1.09630 0.16215 -1.73890
v 1.10458 0.18164 -1.61837
v 1.11372 0.17320 -1.54954
v 1.09073 0.13024 -1.81369
v 1.04132 0.10026 -1.83270
v 1.07026 0.08981 -1.79653
v 1.12769 0.18850 -1.86522
v 1.09747 0.22468 -1.80138
v 1.15539 0.18210 -1.81983
v 1.09747 0.22468 -1.80138
v 1.15539 0.18210 -1.81983
v 1.10434 0.19471 -1.80016
v 1.14898 0.15114 -1.84575
vt 0.09036 0.81657
vt 0.08087 0.80806
vt 0.09027 0.80563
vt 0.07084 0.80961
vt 0.07484 0.80181
vt 0.08531 0.80412
vt 0.45575 0.58187
vt 0.47573 0.58795
vt 0.45827 0.58589
vt 0.46778 0.58856
vt 0.05288 0.84224
vt 0.05288 0.85684
vt 0.04944 0.85213
vt 0.05054 0.83448
vt 0.76494 0.48968
vt 0.78006 0.48786
vt 0.76368 0.48562
vt 0.78117 0.48366
vt 0.29173 0.44565
vt 0.28586 0.45134
vt 0.28404 0.44559
vt 0.28368 0.43761
vt 0.29106 0.43252
vt 0.29252 0.42354
vt 0.28928 0.41413
vt 0.29649 0.41225
vt 0.30370 0.38742
vt 0.28616 0.39080
vt 0.28571 0.45765
vt 0.29652 0.45953
vt 0.30593 0.47493
vt 0.30810 0.39537
vt 0.31637 0.38835
vt 0.31352 0.37787
vt 0.32130 0.37743
vt 0.33154 0.38064
vt 0.31749 0.37576
vt 0.27889 0.39670
vt 0.28236 0.43229
vt 0.27745 0.43591
vt 0.27922 0.39250
vt 0.27718 0.38085
vt 0.28459 0.37956
vt 0.29681 0.38392
vt 0.30406 0.38076
vt 0.29608 0.38135
vt 0.34641 0.37667
vt 0.29164 0.47436
vt 0.30770 0.48950
vt 0.31379 0.48662
vt 0.32189 0.49282
vt 0.31756 0.50154
vt 0.32790 0.49676
vt 0.31925 0.50670
vt 0.32251 0.50731
vt 0.33479 0.50551
vt 0.35039 0.50367
vt 0.31647 0.50628
vt 0.31081 0.50029
vt 0.31217 0.49849
vt 0.30716 0.50132
vt 0.30748 0.51329
vt 0.29290 0.51376
vt 0.29077 0.50346
vt 0.29102 0.48899
vt 0.31726 0.51269
vt 0.28483 0.46572
vt 0.27799 0.44982
vt 0.27386 0.39557
vt 0.28578 0.47123
vt 0.28985 0.48001
vt 0.51523 0.88003
vt 0.51196 0.89599
vt 0.50860 0.87856
vt 0.51374 0.87459
vt 0.51457 0.90003
vt 0.51504 0.90630
vt 0.28332 0.64449
vt 0.27915 0.64531
vt 0.28313 0.64187
vt 0.26526 0.64187
vt 0.11814 0.34506
vt 0.12167 0.36166
vt 0.11958 0.34178
vt 0.11644 0.35079
vt 0.11811 0.36305
vt 0.10721 0.36333
vt 0.10941 0.33746
vt 0.10489 0.35464
vt 0.10388 0.34162
vt 0.09413 0.33972
vt 0.11215 0.33070
vt 0.07040 0.33341
vt 0.08204 0.34191
vt 0.09731 0.31919
vt 0.07076 0.35092
vt 0.08172 0.35298
vt 0.06822 0.34323
vt 0.06213 0.36703
vt 0.07096 0.36599
vt 0.07734 0.36426
vt 0.05838 0.33774
vt 0.08063 0.35921
vt 0.10876 0.31811
vt 0.08157 0.32002
vt 0.06416 0.32231
vt 0.05288 0.32192
vt 0.11683 0.31341
vt 0.11633 0.34301
vt 0.05046 0.32149
vt 0.03090 0.33476
vt 0.02305 0.32091
vt 0.01741 0.33068
vt 0.02038 0.33927
vt 0.02633 0.34361
vt 0.03395 0.34120
vt 0.02677 0.35486
vt 0.01350 0.34493
vt 0.01161 0.35865
vt 0.02597 0.36013
vt 0.02924 0.36673
vt 0.01359 0.36683
vt 0.01644 0.31583
vt 0.01325 0.32494
vt 0.01382 0.33135
vt 0.01169 0.31341
vt 0.04833 0.34207
vt 0.05918 0.36440
vt 0.05427 0.36410
vt 0.04959 0.35905
vt 0.04017 0.36117
vt 0.14813 0.00903
vt 0.14193 0.01935
vt 0.15004 0.01470
vt 0.13483 0.01356
vt 0.14017 0.00919
vt 0.13457 0.00903
vt 0.28531 0.03740
vt 0.28974 0.02709
vt 0.27844 0.03463
vt 0.29880 0.03010
vt 0.27472 0.02709
vt 0.05935 0.38444
vt 0.04976 0.40008
vt 0.06032 0.39365
vt 0.03252 0.40484
vt 0.03899 0.40902
vt 0.02376 0.41456
vt 0.01877 0.42421
vt 0.03028 0.41935
vt 0.02237 0.43983
vt 0.01691 0.41377
vt 0.01507 0.40491
vt 0.02245 0.40958
vt 0.02622 0.40872
vt 0.02674 0.39870
vt 0.01723 0.38895
vt 0.03335 0.38533
vt 0.00826 0.39077
vt 0.04402 0.38427
vt 0.02569 0.40861
vt 0.06497 0.38204
vt 0.07716 0.38653
vt 0.05635 0.37984
vt 0.07036 0.37970
vt 0.07618 0.38027
vt 0.08651 0.37789
vt 0.10325 0.38760
vt 0.09281 0.37769
vt 0.11886 0.39471
vt 0.01197 0.41411
vt 0.13020 0.39344
vt 0.12546 0.37393
vt 0.14570 0.40793
vt 0.12739 0.40162
vt 0.14157 0.37188
vt 0.13466 0.40985
vt 0.14040 0.41921
vt 0.01143 0.42138
vt 0.01613 0.42047
vt 0.00817 0.41562
vt 0.07405 0.37313
vt 0.41305 0.33119
vt 0.42970 0.31850
vt 0.39695 0.31895
vt 0.39624 0.32378
vt 0.39701 0.34282
vt 0.41434 0.34523
vt 0.39354 0.31842
vt 0.40328 0.31341
vt 0.43108 0.31530
vt 0.37463 0.32341
vt 0.38561 0.33886
vt 0.39357 0.33697
vt 0.37225 0.32971
vt 0.39254 0.31571
vt 0.35974 0.32095
vt 0.35813 0.32549
vt 0.42117 0.33341
vt 0.43654 0.32933
vt 0.45744 0.31871
vt 0.45827 0.33285
vt 0.44392 0.33882
vt 0.45874 0.34254
vt 0.45681 0.31341
vt 0.48022 0.31470
vt 0.65158 0.26069
vt 0.66231 0.26698
vt 0.64968 0.26642
vt 0.48292 0.71082
vt 0.48882 0.71152
vt 0.48882 0.70550
vt 0.48194 0.70768
vt 0.53698 0.58941
vt 0.53697 0.59286
vt 0.54213 0.58856
vt 0.54213 0.59372
vt 0.45787 0.15571
vt 0.45873 0.14746
vt 0.45386 0.16449
vt 0.45873 0.17068
vt 0.45357 0.14890
vt 0.57653 0.17842
vt 0.57475 0.18100
vt 0.57051 0.17842
vt 0.21441 0.17261
vt 0.19395 0.17292
vt 0.20383 0.17880
vt 0.22460 0.17565
vt 0.22627 0.17089
vt 0.23517 0.16896
vt 0.18703 0.18100
vt 0.18318 0.17175
vt 0.16638 0.16896
vt 0.42343 0.59031
vt 0.40696 0.59807
vt 0.42785 0.59506
vt 0.41065 0.59186
vt 0.39195 0.59242
vt 0.44325 0.58770
vt 0.37895 0.59866
vt 0.37282 0.59165
vt 0.35196 0.59494
vt 0.34609 0.58770
vt 0.39494 0.60146
vt 0.10053 0.68627
vt 0.10009 0.69330
vt 0.10739 0.69347
vt 0.11774 0.69322
vt 0.12809 0.68487
vt 0.13543 0.69040
vt 0.07696 0.69000
vt 0.08173 0.68487
vt 0.36036 0.14258
vt 0.34560 0.13992
vt 0.33300 0.14316
vt 0.33080 0.13940
vt 0.31771 0.13715
vt 0.36374 0.13829
vt 0.37790 0.13715
vt 0.64541 0.56191
vt 0.64273 0.55503
vt 0.64961 0.55503
vt 0.99957 0.85512
vt 0.99957 0.84652
vt 0.99441 0.84976
vt 0.72783 0.22700
vt 0.72707 0.22160
vt 0.72315 0.22505
vt 0.73302 0.21883
vt 0.71582 0.21883
vt 0.72773 0.23001
vt 0.89467 0.19727
vt 0.90247 0.20485
vt 0.89615 0.21801
vt 0.90413 0.22571
vt 0.89507 0.22534
vt 0.89848 0.19852
vt 0.90413 0.18616
vt 0.61866 0.80525
vt 0.61866 0.79923
vt 0.60490 0.79988
vt 0.32643 0.11909
vt 0.30817 0.11671
vt 0.33150 0.11238
vt 0.33875 0.11221
vt 0.34867 0.11634
vt 0.31111 0.11221
vt 0.30310 0.11726
vt 0.27386 0.44581
vt 0.27644 0.44841
vt 0.27644 0.43035
vt 0.89871 0.51465
vt 0.90033 0.51204
vt 0.90300 0.51629
vt 0.89661 0.51634
vt 0.90434 0.51293
vt 0.89605 0.51431
vt 0.89295 0.51204
vt 0.90585 0.51507
vt 0.76027 0.21075
vt 0.73744 0.21892
vt 0.76297 0.21597
vt 0.75485 0.21899
vt 0.79321 0.20851
vt 0.73250 0.21154
vt 0.71582 0.20851
vt 0.75797 0.22399
vt 0.31427 0.68632
vt 0.31085 0.68487
vt 0.30797 0.68917
vt 0.27730 0.68487
vt 0.73904 0.77244
vt 0.73637 0.77085
vt 0.73428 0.77257
vt 0.71840 0.77085
vt 0.15090 0.10275
vt 0.16036 0.10275
vt 0.15713 0.10619
vt 0.48108 0.75279
vt 0.47822 0.74554
vt 0.48108 0.74416
vt 0.47882 0.74248
vt 0.47764 0.74958
vt 0.57309 0.74678
vt 0.56879 0.74952
vt 0.57097 0.75440
vt 0.56989 0.74694
vt 0.57309 0.75537
vt 0.81474 0.57970
vt 0.81785 0.57548
vt 0.81795 0.57815
vt 0.81486 0.57746
vt 0.81430 0.58382
vt 0.82179 0.57971
vt 0.82330 0.56879
vt 0.81384 0.61083
vt 0.82110 0.60175
vt 0.82112 0.59072
vt 0.82170 0.61903
vt 0.81452 0.63024
vt 0.82330 0.64531
vt 0.96776 0.25408
vt 0.96776 0.22829
vt 0.96002 0.24401
vt 0.23826 0.75573
vt 0.27042 0.75085
vt 0.24949 0.75118
vt 0.22774 0.75133
vt 0.20780 0.75373
vt 0.22915 0.74450
vt 0.21514 0.74441
vt 0.24153 0.74432
vt 0.25985 0.74420
vt 0.17240 0.75155
vt 0.20005 0.75055
vt 0.17972 0.74459
vt 0.20163 0.74420
vt 0.07782 0.48968
vt 0.07782 0.48452
vt 0.07266 0.48583
vt 0.19706 0.69013
vt 0.21108 0.69345
vt 0.21863 0.68615
vt 0.18480 0.68487
vt 0.19144 0.69213
vt 0.18444 0.68965
vt 0.23042 0.69088
vt 0.21867 0.69776
vt 0.23170 0.68487
vt 0.23517 0.68829
vt 0.12683 0.28504
vt 0.13765 0.28504
vt 0.13193 0.28848
vt 0.13801 0.28567
vt 0.14289 0.00643
vt 0.13972 0.00387
vt 0.14920 0.00731
vt 0.15090 0.00387
vt 0.27993 0.23173
vt 0.28074 0.23214
vt 0.27988 0.23226
vt 0.27993 0.23603
vt 0.80318 0.96329
vt 0.80819 0.96105
vt 0.80900 0.96685
vt 0.80892 0.97350
vt 0.81470 0.97435
vt 0.81359 0.97807
vt 0.80066 0.95014
vt 0.80643 0.92683
vt 0.80028 0.92749
vt 0.80012 0.92160
vt 0.80209 0.94169
vt 0.80723 0.94940
vt 0.80465 0.91440
vt 0.80009 0.91425
vt 0.17778 0.47143
vt 0.20045 0.47746
vt 0.19603 0.46676
vt 0.20961 0.45810
vt 0.23261 0.45208
vt 0.22556 0.44254
vt 0.24578 0.43009
vt 0.23767 0.41761
vt 0.17998 0.48022
vt 0.24635 0.40902
vt 0.23994 0.38994
vt 0.16346 0.47939
vt 0.15045 0.47016
vt 0.13290 0.47079
vt 0.12519 0.46090
vt 0.11777 0.46085
vt 0.10902 0.45078
vt 0.09831 0.44620
vt 0.09673 0.43674
vt 0.08666 0.43717
vt 0.09009 0.42574
vt 0.07814 0.41007
vt 0.08587 0.40624
vt 0.09040 0.38994
vt 0.07696 0.42103
vt 0.80991 0.37055
vt 0.81873 0.35461
vt 0.83135 0.36742
vt 0.82512 0.37795
vt 0.83964 0.35545
vt 0.82454 0.34351
vt 0.83964 0.38969
vt 0.82855 0.39080
vt 0.81171 0.35892
vt 0.80680 0.36243
vt 0.80610 0.37206
vt 0.80934 0.38639
vt 0.63011 0.89043
vt 0.64075 0.88863
vt 0.64552 0.89412
vt 0.62742 0.88222
vt 0.62423 0.89815
vt 0.63218 0.90276
vt 0.63902 0.89259
vt 0.64367 0.90843
vt 0.60937 0.87661
vt 0.63933 0.92601
vt 0.64549 0.89907
vt 0.62030 0.91671
vt 0.60359 0.93243
vt 0.61365 0.93742
vt 0.60869 0.93721
vt 0.58683 0.93820
vt 0.58385 0.93169
vt 0.57733 0.93931
vt 0.57846 0.93284
vt 0.56997 0.91583
vt 0.57361 0.93908
vt 0.63611 0.93772
vt 0.64221 0.92628
vt 0.64327 0.92100
vt 0.64580 0.93146
vt 0.64873 0.93860
vt 0.65347 0.92935
vt 0.64430 0.94363
vt 0.63869 0.95160
vt 0.64655 0.95027
vt 0.65475 0.95600
vt 0.64439 0.97511
vt 0.65171 0.96816
vt 0.63800 0.96908
vt 0.63253 0.97030
vt 0.62770 0.97635
vt 0.62661 0.97196
vt 0.65354 0.94989
vt 0.62362 0.95217
vt 0.65563 0.94035
vt 0.65393 0.96593
vt 0.65563 0.97113
vt 0.64876 0.90680
vt 0.61318 0.94745
vt 0.58699 0.94027
vt 0.58690 0.97309
vt 0.57708 0.96585
vt 0.57468 0.95866
vt 0.56397 0.95020
vt 0.56714 0.95971
vt 0.61227 0.97249
vt 0.56645 0.96635
vt 0.55404 0.95071
vt 0.55724 0.97447
vt 0.57341 0.93958
vt 0.56726 0.93954
vt 0.56279 0.94442
vt 0.55519 0.94243
vt 0.56278 0.93442
vt 0.55245 0.93631
vt 0.55985 0.93222
vt 0.56301 0.93088
vt 0.56282 0.92458
vt 0.56657 0.91809
vt 0.56274 0.90707
vt 0.62430 0.96861
vt 0.41823 0.29524
vt 0.43928 0.30075
vt 0.45739 0.29669
vt 0.45562 0.30482
vt 0.42181 0.28714
vt 0.39697 0.28272
vt 0.39579 0.29074
vt 0.40010 0.27300
vt 0.43333 0.27969
vt 0.45958 0.29284
vt 0.38478 0.29004
vt 0.39237 0.29985
vt 0.41392 0.29710
vt 0.45598 0.27594
vt 0.45803 0.30109
vt 0.47404 0.30439
vt 0.47850 0.29229
vt 0.46322 0.27300
vt 0.75371 0.31138
vt 0.74930 0.31743
vt 0.76029 0.31949
vt 0.73590 0.30482
vt 0.73388 0.31709
vt 0.75543 0.30482
vt 0.77224 0.31593
vt 0.77773 0.30979
vt 0.77536 0.32299
vt 0.74848 0.32026
vt 0.74204 0.31958
vt 0.74460 0.32459
vt 0.56343 0.22995
vt 0.56573 0.24614
vt 0.58160 0.24434
vt 0.57523 0.21467
vt 0.55488 0.21195
vt 0.54631 0.22228
vt 0.55308 0.23261
vt 0.54602 0.23677
vt 0.57144 0.25313
vt 0.58145 0.22251
vt 0.55027 0.24069
vt 0.57422 0.25682
vt 0.58237 0.25536
vt 0.59104 0.24121
vt 0.58640 0.23225
vt 0.59200 0.22962
vt 0.58324 0.21195
vt 0.54200 0.23580
vt 0.56967 0.25621
vt 0.55015 0.24444
vt 0.54160 0.24950
vt 0.56517 0.25883
vt 0.55341 0.25924
vt 0.53611 0.23555
vt 0.75154 0.82834
vt 0.72410 0.81332
vt 0.76139 0.81089
vt 0.72576 0.84056
vt 0.74229 0.83836
vt 0.72010 0.79682
vt 0.76139 0.80365
vt 0.72148 0.81701
vt 0.71668 0.80544
vt 0.72202 0.82788
vt 0.72219 0.83711
vt 0.71760 0.82221
vt 0.75780 0.78078
vt 0.73266 0.77414
vt 0.71763 0.77343
vt 0.76085 0.78359
vt 0.75514 0.82829
vt 0.75957 0.82516
vt 0.71896 0.84308
vt 0.75627 0.83090
vt 0.75952 0.83459
vt 0.75369 0.83054
vt 0.41605 0.25016
vt 0.39578 0.24777
vt 0.41014 0.25683
vt 0.39396 0.25759
vt 0.40891 0.26183
vt 0.42872 0.25948
vt 0.42978 0.26336
vt 0.44325 0.26172
vt 0.43000 0.26698
vt 0.38479 0.25378
vt 0.38936 0.23853
vt 0.40780 0.24480
vt 0.39729 0.23922
vt 0.38614 0.22446
vt 0.40260 0.23707
vt 0.37790 0.22399
vt 0.42278 0.23947
vt 0.41971 0.23535
vt 0.43224 0.22890
vt 0.42587 0.22858
vt 0.42797 0.22528
vt 0.42393 0.22399
vt 0.31856 0.14746
vt 0.30257 0.15567
vt 0.32287 0.15383
vt 0.30332 0.14898
vt 0.30193 0.16208
vt 0.32057 0.16179
vt 0.28335 0.15417
vt 0.27633 0.15962
vt 0.28954 0.14756
vt 0.27356 0.14746
vt 0.26268 0.15392
vt 0.50955 0.28074
vt 0.50754 0.27558
vt 0.51308 0.27558
vt 0.50602 0.27730
vt 0.51374 0.28046
vt 0.51548 0.27692
vt 0.78030 0.62815
vt 0.76826 0.63107
vt 0.76347 0.61522
vt 0.77323 0.60168
vt 0.75657 0.61660
vt 0.78049 0.64187
vt 0.79454 0.63942
vt 0.79951 0.63489
vt 0.79751 0.63193
vt 0.78702 0.59501
vt 0.79827 0.61853
vt 0.80095 0.62710
vt 0.80095 0.59286
vt 0.77084 0.64029
vt 0.75962 0.62693
vt 0.75803 0.62976
vt 0.75602 0.62398
vt 0.75365 0.62215
vt 0.75540 0.62600
vt 0.55245 0.55622
vt 0.56742 0.53557
vt 0.56040 0.56143
vt 0.55579 0.54141
vt 0.57182 0.53009
vt 0.56221 0.58060
vt 0.57127 0.53414
vt 0.56141 0.58673
vt 0.57309 0.60404
vt 0.57309 0.53285
vt 0.34986 0.96539
vt 0.34011 0.95482
vt 0.33554 0.96207
vt 0.34120 0.96893
vt 0.35136 0.97250
vt 0.36678 0.96668
vt 0.36555 0.97165
vt 0.36666 0.96090
vt 0.38660 0.96005
vt 0.38947 0.96346
vt 0.39732 0.96076
vt 0.38718 0.96724
vt 0.40628 0.95228
vt 0.32949 0.95907
vt 0.32115 0.95880
vt 0.31278 0.96325
vt 0.29794 0.95228
vt 0.30375 0.95961
vt 0.29988 0.95870
vt 0.32653 0.97893
vt 0.76567 0.71912
vt 0.72752 0.74158
vt 0.73888 0.71891
vt 0.76717 0.74110
vt 0.72197 0.71372
vt 0.72817 0.76999
vt 0.76827 0.75525
vt 0.72484 0.74059
vt 0.72273 0.76508
vt 0.72098 0.73469
vt 0.73279 0.71036
vt 0.72789 0.70884
vt 0.75708 0.71035
vt 0.76659 0.70745
vt 0.75524 0.70863
vt 0.75778 0.70675
vt 0.74679 0.71041
vt 0.75613 0.70625
vt 0.73729 0.70690
vt 0.73346 0.70529
vt 0.76827 0.71556
vt 0.73255 0.70464
vt 0.54365 0.41292
vt 0.53697 0.40972
vt 0.54557 0.40972
vt 0.57945 0.00559
vt 0.57911 0.00129
vt 0.58598 0.00129
vt 0.97979 0.75279
vt 0.97979 0.73646
vt 0.97807 0.74901
vt 0.79149 0.91445
vt 0.78687 0.92046
vt 0.78375 0.91445
vt 0.38425 0.44270
vt 0.39914 0.44584
vt 0.42003 0.44603
vt 0.36869 0.45010
vt 0.39315 0.45581
vt 0.37002 0.45656
vt 0.40291 0.45576
vt 0.41897 0.45157
vt 0.39873 0.46457
vt 0.38069 0.46217
vt 0.38079 0.46438
vt 0.41960 0.46576
vt 0.38266 0.46574
vt 0.36600 0.46527
vt 0.37735 0.46819
vt 0.37986 0.46663
vt 0.71324 0.19304
vt 0.70636 0.19468
vt 0.71324 0.19819
vt 0.66681 0.85856
vt 0.66255 0.86457
vt 0.65907 0.85856
vt 0.86851 0.34234
vt 0.86715 0.34966
vt 0.87559 0.34172
vt 0.87073 0.33322
vt 0.87838 0.33413
vt 0.87365 0.33147
vt 0.89593 0.50707
vt 0.89295 0.50190
vt 0.90413 0.50306
vt 0.89918 0.51021
vt 0.71299 0.92046
vt 0.70996 0.92338
vt 0.69811 0.92057
vt 0.67095 0.94051
vt 0.66808 0.91797
vt 0.67398 0.91685
vt 0.67749 0.94466
vt 0.66922 0.90764
vt 0.69003 0.94454
vt 0.68744 0.92550
vt 0.68697 0.92212
vt 0.68452 0.90230
vt 0.67204 0.88919
vt 0.66783 0.90471
vt 0.66777 0.89407
vt 0.66454 0.88918
vt 0.68129 0.88779
vt 0.66095 0.89405
vt 0.66498 0.91246
vt 0.89811 0.16903
vt 0.90069 0.16294
vt 0.90069 0.17154
vt 0.62456 0.41752
vt 0.62148 0.40119
vt 0.61156 0.40321
vt 0.62974 0.39940
vt 0.63586 0.41831
vt 0.91773 0.06751
vt 0.90298 0.07873
vt 0.90969 0.07712
vt 0.92648 0.08040
vt 0.92636 0.07829
vt 0.38281 0.75376
vt 0.38134 0.75606
vt 0.38478 0.75279
vt 0.38478 0.76483
vt 0.27751 0.17372
vt 0.27129 0.16638
vt 0.27701 0.17891
vt 0.26999 0.18186
vt 0.27903 0.18104
vt 0.27988 0.16719
vt 0.94707 0.00913
vt 0.93938 0.00817
vt 0.95498 0.01591
vt 0.95658 0.00817
vt 0.31771 0.42175
vt 0.31771 0.40800
vt 0.31427 0.41535
vt 0.38547 0.95572
vt 0.39093 0.94837
vt 0.38469 0.94626
vt 0.37974 0.94947
vt 0.40404 0.94626
vt 0.40456 0.94899
vt 0.02193 0.75198
vt 0.02821 0.75451
vt 0.02621 0.75086
vt 0.02966 0.75021
vt 0.02219 0.75021
vt 0.38134 0.71551
vt 0.37643 0.71240
vt 0.38012 0.71201
vt 0.06257 0.01081
vt 0.05030 0.00645
vt 0.05907 0.00773
vt 0.06664 0.00645
vt 0.28246 0.05620
vt 0.27558 0.04772
vt 0.28246 0.04894
vt 0.66838 0.23706
vt 0.66853 0.22313
vt 0.66337 0.23858
vt 0.66853 0.24119
vt 0.93336 0.34179
vt 0.93336 0.33491
vt 0.92992 0.33896
vt 0.79063 0.46819
vt 0.78719 0.46819
vt 0.79001 0.47248
vt 0.78797 0.47161
vt 0.92384 0.79063
vt 0.92046 0.78805
vt 0.92077 0.79060
vt 0.92648 0.78805
vt 0.70709 0.05632
vt 0.70464 0.05116
vt 0.71073 0.05117
vt 0.72614 0.05116
vt 0.61923 0.83867
vt 0.62012 0.83362
vt 0.61791 0.83458
vt 0.35872 0.41182
vt 0.36047 0.40735
vt 0.34179 0.40112
vt 0.95572 0.76741
vt 0.96088 0.76741
vt 0.95774 0.77057
vt 0.96062 0.77085
vt 0.99441 0.28517
vt 0.99871 0.28160
vt 0.99871 0.28620
vt 0.65219 0.00903
vt 0.64980 0.01185
vt 0.65219 0.01763
vt 0.64789 0.01364
vt 0.69518 0.97635
vt 0.69518 0.96948
vt 0.69003 0.97616
vt 0.32545 0.49226
vt 0.32545 0.48366
vt 0.32287 0.49040
vt 0.68016 0.85993
vt 0.68422 0.85779
vt 0.68479 0.86228
vt 0.68624 0.86054
vt 0.68085 0.85712
vt 0.68314 0.85513
vt 0.67799 0.85413
vt 0.69089 0.87231
vt 0.69089 0.84996
vt 0.68911 0.85209
vt 0.30997 0.19647
vt 0.30997 0.19132
vt 0.30739 0.19268
vt 0.31749 0.44583
vt 0.31341 0.44325
vt 0.31943 0.44325
vt 0.13199 0.63690
vt 0.12769 0.63867
vt 0.13199 0.64187
vt 0.99694 0.20576
vt 0.99527 0.20746
vt 0.99957 0.20937
vt 0.99957 0.20421
vt 0.70636 0.66165
vt 0.70464 0.67208
vt 0.70636 0.67541
vt 0.95334 0.78485
vt 0.95658 0.78719
vt 0.95658 0.77773
vt 0.95056 0.78581
vt 0.99452 0.47260
vt 0.99336 0.47046
vt 0.99129 0.47522
vt 0.99613 0.46905
vt 0.99015 0.46952
vt 0.98667 0.47084
vt 0.82979 0.24134
vt 0.83182 0.23954
vt 0.83074 0.23622
vt 0.82865 0.23684
vt 0.82588 0.23684
vt 0.83362 0.24291
vt 0.57223 0.55331
vt 0.57567 0.55331
vt 0.57419 0.55675
vt 0.77773 0.72289
vt 0.77976 0.72021
vt 0.78031 0.72382
vt 0.77976 0.72700
vt 0.77871 0.71668
vt 0.49828 0.38194
vt 0.50086 0.38392
vt 0.50086 0.38048
vt 0.48910 0.89140
vt 0.49140 0.90200
vt 0.48609 0.90200
vt 0.48840 0.90623
vt 0.48970 0.92304
vt 0.49140 0.88568
vt 0.48779 0.88177
vt 0.48545 0.90580
vt 0.48488 0.88250
vt 0.48452 0.88898
vt 0.61178 0.07180
vt 0.60996 0.07524
vt 0.60662 0.07180
vt 0.50516 0.65825
vt 0.49972 0.65139
vt 0.50516 0.64864
vt 0.50175 0.64903
vt 0.50434 0.64445
vt 0.73671 0.42156
vt 0.73254 0.41660
vt 0.73063 0.42261
vt 0.73675 0.41735
vt 0.71926 0.41660
vt 0.71945 0.42232
vt 0.74162 0.41660
vt 0.73057 0.09195
vt 0.73454 0.07529
vt 0.73990 0.08616
vt 0.73986 0.07850
vt 0.73835 0.07438
vt 0.73446 0.10017
vt 0.73986 0.09840
vt 0.14918 0.58598
vt 0.13973 0.59114
vt 0.13887 0.58598
vt 0.19475 0.26467
vt 0.20163 0.25365
vt 0.19505 0.25237
vt 0.20163 0.26526
vt 0.20076 0.24205
vt 0.19554 0.24253
vt 0.82744 0.71521
vt 0.82136 0.71508
vt 0.82760 0.70378
vt 0.82072 0.70378
vt 0.82114 0.72179
vt 0.82655 0.72184
vt 0.79837 0.50425
vt 0.79348 0.49911
vt 0.79780 0.48183
vt 0.79403 0.48779
vt 0.79214 0.50367
vt 0.79149 0.49996
vt 0.79211 0.47022
vt 0.79837 0.46561
vt 0.79434 0.51152
vt 0.79236 0.51139
vt 0.79167 0.51376
vt 0.20163 0.31857
vt 0.19363 0.32115
vt 0.19218 0.31857
vt 0.23784 0.07611
vt 0.24910 0.09071
vt 0.24966 0.07012
vt 0.26092 0.08952
vt 0.23777 0.08717
vt 0.24195 0.07008
vt 0.26182 0.07853
vt 0.26182 0.07195
vt 0.23775 0.07009
vt 0.00731 0.23078
vt 0.00218 0.22997
vt 0.00731 0.22399
vt 0.00215 0.23087
vt 0.00361 0.22579
vt 0.82947 0.00731
vt 0.82932 0.00387
vt 0.84050 0.00387
vt 0.95916 0.00043
vt 0.96617 0.00043
vt 0.96283 0.00473
vt 0.96690 0.00297
vt 0.31255 0.34695
vt 0.31771 0.34695
vt 0.31457 0.34867
vt 0.08040 0.30911
vt 0.07528 0.31169
vt 0.07266 0.30911
vt 0.90585 0.99011
vt 0.90327 0.99237
vt 0.90585 0.99785
vt 0.58598 0.42271
vt 0.58598 0.41660
vt 0.58255 0.42163
vt 0.58291 0.42433
vt 0.97463 0.08097
vt 0.97868 0.08717
vt 0.98409 0.07152
vt 0.98409 0.08813
vt 0.98287 0.06836
vt 0.97492 0.07358
vt 0.55589 0.47127
vt 0.55712 0.46382
vt 0.56098 0.47082
vt 0.56033 0.48135
vt 0.55560 0.48134
vt 0.55689 0.43312
vt 0.55707 0.48893
vt 0.56363 0.50208
vt 0.55777 0.51917
vt 0.56213 0.52628
vt 0.55684 0.52682
vt 0.56101 0.42614
vt 0.55530 0.42605
vt 0.55444 0.42173
vt 0.55297 0.42327
vt 0.55159 0.42618
vt 0.55826 0.42034
vt 0.56363 0.40456
vt 0.55483 0.52752
vt 0.95400 0.79108
vt 0.95744 0.79407
vt 0.95744 0.79063
vt 0.60715 0.42922
vt 0.62371 0.43775
vt 0.60612 0.43794
vt 0.62439 0.46673
vt 0.60557 0.47577
vt 0.60616 0.46809
vt 0.62417 0.52237
vt 0.60404 0.53140
vt 0.60467 0.52415
vt 0.62427 0.49220
vt 0.62147 0.48555
vt 0.60541 0.48582
vt 0.60567 0.49337
vt 0.62315 0.49902
vt 0.22366 0.85152
vt 0.20936 0.85468
vt 0.20421 0.85189
vt 0.20426 0.85406
vt 0.58094 0.02030
vt 0.57113 0.01859
vt 0.57362 0.02374
vt 0.58233 0.02297
vt 0.58122 0.02709
vt 0.58598 0.02654
vt 0.57610 0.02667
vt 0.69862 0.26358
vt 0.69009 0.26376
vt 0.68954 0.26588
vt 0.69326 0.26166
vt 0.69724 0.26010
vt 0.34181 0.40948
vt 0.34351 0.40628
vt 0.33835 0.40628
vt 0.34254 0.40972
vt 0.38134 0.69650
vt 0.37718 0.69776
vt 0.37618 0.69283
vt 0.98237 0.67197
vt 0.97873 0.68995
vt 0.97722 0.68345
vt 0.97635 0.67445
vt 0.37744 0.25808
vt 0.37274 0.25868
vt 0.37962 0.26010
vt 0.37962 0.23001
vt 0.10606 0.20329
vt 0.12462 0.19653
vt 0.10486 0.20066
vt 0.11897 0.19561
vt 0.10447 0.19561
vt 0.55175 0.33785
vt 0.55656 0.34589
vt 0.56009 0.33765
vt 0.55090 0.33902
vt 0.55704 0.32982
vt 0.56019 0.33187
vt 0.72912 0.47012
vt 0.73702 0.47690
vt 0.72372 0.47524
vt 0.73756 0.48616
vt 0.72899 0.48582
vt 0.72250 0.47714
vt 0.72034 0.48356
vt 0.72094 0.48640
vt 0.71807 0.49987
vt 0.72681 0.50402
vt 0.73227 0.50399
vt 0.71238 0.50523
vt 0.72122 0.50327
vt 0.33986 0.72528
vt 0.32385 0.72587
vt 0.32327 0.72958
vt 0.31539 0.72937
vt 0.31327 0.72528
vt 0.31255 0.72796
vt 0.34847 0.72696
vt 0.35065 0.72837
vt 0.35221 0.72709
vt 0.35297 0.72908
vt 0.76913 0.34093
vt 0.76655 0.35202
vt 0.76913 0.35297
vt 0.25580 0.26109
vt 0.26102 0.26238
vt 0.26059 0.25952
vt 0.25629 0.26577
vt 0.26354 0.25752
vt 0.26354 0.26698
vt 0.96831 0.26636
vt 0.96862 0.26010
vt 0.95751 0.26784
vt 0.95400 0.26010
vt 0.15459 0.24033
vt 0.15004 0.23603
vt 0.15778 0.23603
vt 0.85340 0.01677
vt 0.84608 0.01935
vt 0.84480 0.01677
vt 0.29768 0.08555
vt 0.29655 0.10363
vt 0.28079 0.10437
vt 0.28533 0.10705
vt 0.27488 0.08555
vt 0.27386 0.10190
vt 0.29880 0.08964
vt 0.27972 0.10679
vt 0.97291 0.98409
vt 0.96948 0.98575
vt 0.97291 0.99011
vt 0.79403 0.45185
vt 0.79063 0.44927
vt 0.79665 0.44927
vt 0.15928 0.81586
vt 0.15778 0.81040
vt 0.16208 0.81728
vt 0.16208 0.81067
vt 0.43479 0.02709
vt 0.43809 0.02709
vt 0.43719 0.02966
vt 0.43035 0.02881
vt 0.77409 0.72134
vt 0.76827 0.73505
vt 0.77601 0.73707
vt 0.77027 0.71801
vt 0.77279 0.74850
vt 0.77601 0.71668
vt 0.18272 0.18444
vt 0.19304 0.18444
vt 0.19065 0.18702
vt 0.51376 0.78805
vt 0.51376 0.77945
vt 0.51032 0.78687
vt 0.51290 0.93766
vt 0.51290 0.93422
vt 0.50774 0.93756
vt 0.74162 0.90603
vt 0.74506 0.90671
vt 0.74506 0.90155
vt 0.18530 0.63586
vt 0.18530 0.61952
vt 0.17943 0.62049
vt 0.17928 0.63194
vt 0.83372 0.77029
vt 0.83964 0.77085
vt 0.83964 0.76225
vt 0.83362 0.76249
vt 0.22794 0.00883
vt 0.22444 0.01285
vt 0.24205 0.00817
vt 0.24192 0.01419
vt 0.22399 0.00817
vt 0.15561 0.84566
vt 0.13300 0.85062
vt 0.14699 0.85377
vt 0.13312 0.84566
vt 0.13113 0.84677
vt 0.15606 0.85013
vt 0.90941 0.08555
vt 0.90843 0.07954
vt 0.91359 0.07954
vt 0.53181 0.06750
vt 0.53181 0.06234
vt 0.52923 0.06658
vt 0.30029 0.04858
vt 0.29055 0.05343
vt 0.29726 0.05416
vt 0.30624 0.04993
vt 0.28418 0.05071
vt 0.29879 0.05664
vt 0.30629 0.05593
vt 0.31100 0.04858
vt 0.31255 0.05804
vt 0.28655 0.05396
vt 0.28803 0.05549
vt 0.17498 0.75881
vt 0.16957 0.76411
vt 0.16896 0.75881
vt 0.17419 0.76483
vt 0.41917 0.34997
vt 0.40403 0.35106
vt 0.40545 0.35396
vt 0.40326 0.35604
vt 0.40678 0.35813
vt 0.40082 0.35342
vt 0.65907 0.41488
vt 0.66337 0.41488
vt 0.66074 0.41745
vt 0.65765 0.66321
vt 0.65840 0.66095
vt 0.66165 0.66337
vt 0.65649 0.65899
vt 0.66165 0.65649
vt 0.67749 0.01800
vt 0.68917 0.01505
vt 0.67255 0.01604
vt 0.66896 0.01887
vt 0.66853 0.01806
vt 0.68587 0.01760
vt 0.68917 0.02021
vt 0.74834 0.22915
vt 0.75030 0.22451
vt 0.74781 0.22273
vt 0.73757 0.22484
vt 0.75070 0.22227
vt 0.73216 0.22519
vt 0.73548 0.22276
vt 0.73846 0.22227
vt 0.53210 0.46124
vt 0.53353 0.45357
vt 0.53024 0.45652
vt 0.53112 0.46841
vt 0.53353 0.46905
vt 0.52790 0.45999
vt 0.52634 0.45677
vt 0.52575 0.46063
vt 0.31329 0.59114
vt 0.30224 0.58856
vt 0.31513 0.58856
vt 0.69175 0.73388
vt 0.68916 0.73560
vt 0.68659 0.73388
vt 0.56457 0.71926
vt 0.56277 0.71668
vt 0.56535 0.71668
vt 0.60232 0.25838
vt 0.60232 0.24979
vt 0.60146 0.25248
vt 0.41316 0.13380
vt 0.41574 0.13126
vt 0.41574 0.13629
vt 0.41455 0.13113
vt 0.48093 0.07037
vt 0.47507 0.06750
vt 0.47982 0.07180
vt 0.46552 0.07118
vt 0.45873 0.07048
vt 0.49656 0.06750
vt 0.39338 0.31083
vt 0.40112 0.31083
vt 0.39986 0.31255
vt 0.26182 0.64531
vt 0.26182 0.63586
vt 0.26010 0.63655
vt 0.32924 0.62445
vt 0.33185 0.62065
vt 0.33228 0.62796
vt 0.33284 0.62115
vt 0.32950 0.61633
vt 0.31812 0.61643
vt 0.31771 0.63029
vt 0.32669 0.61293
vt 0.33334 0.61878
vt 0.33159 0.62860
vt 0.32725 0.63409
vt 0.33577 0.64473
vt 0.33447 0.63103
vt 0.33577 0.61178
vt 0.59451 0.99871
vt 0.59286 0.99527
vt 0.59802 0.99527
vt 0.57051 0.00387
vt 0.57395 0.00387
vt 0.57142 0.00559
vt 0.94540 0.09077
vt 0.94798 0.09931
vt 0.94608 0.09756
vt 0.94798 0.08899
vt 0.46621 0.34154
vt 0.46819 0.34998
vt 0.46131 0.34332
vt 0.46286 0.34018
vt 0.46819 0.33835
vt 0.46748 0.35125
vt 0.43156 0.30482
vt 0.43035 0.30138
vt 0.43379 0.30138
vt 0.97120 0.60662
vt 0.97120 0.60318
vt 0.96776 0.60636
vt 0.25150 0.71754
vt 0.25580 0.71754
vt 0.25280 0.72012
vt 0.05278 0.31083
vt 0.03740 0.30847
vt 0.05200 0.30825
vt 0.05460 0.30847
vt 0.81099 0.00731
vt 0.81884 0.00473
vt 0.82158 0.00606
vt 0.80868 0.00473
vt 0.97429 0.88793
vt 0.97034 0.88583
vt 0.97153 0.88784
vt 0.97445 0.89146
vt 0.97807 0.89209
vt 0.97488 0.87317
vt 0.25056 0.61006
vt 0.25576 0.60433
vt 0.24950 0.60701
vt 0.25924 0.60404
vt 0.24798 0.60890
vt 0.24721 0.60404
vt 0.37582 0.07391
vt 0.35468 0.06750
vt 0.35982 0.07449
vt 0.35211 0.07775
vt 0.35880 0.08126
vt 0.35071 0.74420
vt 0.34922 0.73818
vt 0.35641 0.73818
vt 0.34781 0.74394
vt 0.99355 0.79407
vt 0.99355 0.81040
vt 0.99154 0.80344
vt 0.99097 0.80581
vt 0.94251 0.44208
vt 0.94570 0.44303
vt 0.94302 0.44106
vt 0.95228 0.43981
vt 0.93851 0.44497
vt 0.93594 0.43981
vt 0.95004 0.44203
vt 0.94106 0.44008
vt 0.38476 0.11204
vt 0.38872 0.11497
vt 0.40010 0.11650
vt 0.38913 0.11226
vt 0.39593 0.11354
vt 0.40026 0.11278
vt 0.82974 0.79923
vt 0.83050 0.80353
vt 0.82760 0.80174
vt 0.23672 0.41029
vt 0.23173 0.41224
vt 0.23689 0.41402
vt 0.41230 0.76068
vt 0.41754 0.76225
vt 0.41381 0.75967
vt 0.41917 0.75967
usemtl t34_85_turret
s 1
f 2/2 1/1 3/3
f 5/5 2/2 6/6
f 5/5 4/4 2/2
f 9/9 10/10 8/8
f 9/9 8/8 7/7
f 11/11 12/12 13/13
f 11/11 13/13 14/14
f 15/15 16/16 17/17
f 17/17 16/16 18/18
f 28/28 42/42 43/43
f 28/28 41/41 42/42
f 44/44 28/28 43/43
f 46/46 44/44 43/43
f 41/41 38/38 69/69
f 28/28 38/38 41/41
f 27/27 28/28 44/44
f 27/27 26/26 25/25
f 26/26 27/27 32/32
f 25/25 38/38 28/28
f 39/39 38/38 25/25
f 24/24 25/25 26/26
f 22/22 39/39 25/25
f 22/22 40/40 39/39
f 25/25 24/24 22/22
f 23/23 22/22 24/24
f 19/19 22/22 23/23
f 22/22 19/19 21/21
f 19/19 20/20 21/21
f 21/21 20/20 68/68
f 29/29 20/20 19/19
f 29/29 19/19 30/30
f 31/31 48/48 29/29
f 31/31 29/29 30/30
f 49/49 48/48 31/31
f 49/49 31/31 50/50
f 61/61 64/64 65/65
f 52/52 59/59 60/60
f 48/48 67/67 29/29
f 67/67 48/48 70/70
f 71/71 70/70 48/48
f 27/27 45/45 34/34
f 35/35 34/34 37/37
f 36/36 33/33 35/35
f 47/47 36/36 35/35
f 27/27 44/44 45/45
f 33/33 34/34 35/35
f 27/27 33/33 32/32
f 27/27 34/34 33/33
f 51/51 49/49 50/50
f 51/51 52/52 49/49
f 52/52 51/51 53/53
f 63/63 64/64 61/61
f 62/62 63/63 61/61
f 59/59 58/58 61/61
f 58/58 62/62 61/61
f 52/52 58/58 59/59
f 62/62 58/58 66/66
f 139/139 142/142 140/140
f 58/58 52/52 54/54
f 78/78 79/79 80/80
f 53/53 54/54 52/52
f 55/55 54/54 53/53
f 91/91 88/88 92/92
f 80/80 79/79 81/81
f 104/104 92/92 108/108
f 85/85 82/82 109/109
f 82/82 83/83 84/84
f 85/85 83/83 82/82
f 86/86 83/83 85/85
f 138/138 139/139 140/140
f 138/138 141/141 139/139
f 89/89 88/88 90/90
f 90/90 88/88 91/91
f 89/89 87/87 88/88
f 87/87 85/85 88/88
f 87/87 86/86 85/85
f 56/56 55/55 53/53
f 104/104 95/95 92/92
f 56/56 53/53 57/57
f 93/93 92/92 95/95
f 93/93 91/91 92/92
f 93/93 95/95 105/105
f 105/105 106/106 93/93
f 99/99 96/96 98/98
f 93/93 94/94 91/91
f 96/96 94/94 93/93
f 96/96 97/97 94/94
f 93/93 98/98 96/96
f 103/103 97/97 96/96
f 96/96 101/101 103/103
f 100/100 101/101 96/96
f 99/99 100/100 96/96
f 75/75 72/72 74/74
f 77/77 73/73 76/76
f 107/107 93/93 106/106
f 102/102 98/98 93/93
f 110/110 93/93 107/107
f 93/93 110/110 102/102
f 112/112 111/111 110/110
f 112/112 113/113 111/111
f 110/110 111/111 102/102
f 127/127 102/102 111/111
f 116/116 127/127 111/111
f 113/113 112/112 123/123
f 124/124 113/113 123/123
f 114/114 111/111 113/113
f 132/132 133/133 134/134
f 135/135 133/133 132/132
f 111/111 115/115 116/116
f 124/124 123/123 126/126
f 125/125 113/113 124/124
f 99/99 98/98 102/102
f 127/127 128/128 102/102
f 129/129 128/128 127/127
f 130/130 129/129 127/127
f 131/131 129/129 130/130
f 114/114 115/115 111/111
f 117/117 115/115 114/114
f 118/118 117/117 114/114
f 119/119 117/117 118/118
f 119/119 120/120 117/117
f 121/121 120/120 119/119
f 122/122 121/121 119/119
f 136/136 135/135 132/132
f 137/137 135/135 136/136
f 177/177 178/178 174/174
f 175/175 177/177 174/174
f 172/172 175/175 174/174
f 172/172 170/170 175/175
f 147/147 144/144 146/146
f 147/147 149/149 150/150
f 147/147 148/148 149/149
f 146/146 148/148 147/147
f 148/148 152/152 149/149
f 148/148 155/155 154/154
f 148/148 154/154 153/153
f 161/161 154/154 155/155
f 169/169 172/172 173/173
f 169/169 170/170 172/172
f 174/174 176/176 173/173
f 168/168 170/170 169/169
f 167/167 168/168 169/169
f 167/167 163/163 168/168
f 167/167 166/166 163/163
f 166/166 165/165 163/163
f 165/165 166/166 182/182
f 162/162 145/145 163/163
f 162/162 163/163 165/165
f 164/164 143/143 162/162
f 162/162 143/143 145/145
f 143/143 144/144 145/145
f 146/146 144/144 143/143
f 160/160 158/158 156/156
f 153/153 154/154 156/156
f 153/153 156/156 157/157
f 156/156 158/158 157/157
f 149/149 151/151 150/150
f 152/152 179/179 180/180
f 148/148 153/153 152/152
f 171/171 179/179 152/152
f 179/179 171/171 181/181
f 153/153 171/171 152/152
f 171/171 153/153 159/159
f 159/159 153/153 157/157
f 185/185 191/191 190/190
f 189/189 185/185 190/190
f 190/190 196/196 189/189
f 201/201 206/206 205/205
f 184/184 201/201 205/205
f 200/200 201/201 184/184
f 200/200 202/202 201/201
f 203/203 202/202 200/200
f 204/204 202/202 203/203
f 184/184 199/199 200/200
f 184/184 183/183 199/199
f 183/183 184/184 185/185
f 186/186 183/183 185/185
f 186/186 185/185 189/189
f 186/186 187/187 183/183
f 183/183 187/187 188/188
f 189/189 192/192 186/186
f 187/187 186/186 194/194
f 193/193 194/194 186/186
f 193/193 186/186 192/192
f 195/195 193/193 192/192
f 197/197 195/195 192/192
f 198/198 195/195 197/197
f 209/209 208/208 207/207
f 210/210 211/211 212/212
f 213/213 210/210 212/212
f 214/214 215/215 216/216
f 217/217 216/216 215/215
f 223/223 224/224 225/225
f 220/220 219/219 222/222
f 218/218 219/219 220/220
f 221/221 218/218 220/220
f 228/228 229/229 226/226
f 229/229 230/230 226/226
f 231/231 230/230 229/229
f 236/236 241/241 245/245
f 232/232 228/228 227/227
f 227/227 233/233 232/232
f 234/234 232/232 233/233
f 226/226 227/227 228/228
f 240/240 235/235 237/237
f 235/235 236/236 237/237
f 236/236 235/235 238/238
f 238/238 239/239 236/236
f 239/239 241/241 236/236
f 241/241 239/239 242/242
f 243/243 241/241 242/242
f 243/243 242/242 244/244
f 257/257 258/258 256/256
f 255/255 257/257 256/256
f 259/259 255/255 254/254
f 254/254 255/255 256/256
f 260/260 259/259 254/254
f 249/249 251/251 250/250
f 249/249 246/246 248/248
f 246/246 247/247 248/248
f 252/252 247/247 246/246
f 252/252 246/246 253/253
f 246/246 249/249 250/250
f 261/261 262/262 263/263
f 264/264 265/265 266/266
f 269/269 268/268 271/271
f 267/267 268/268 269/269
f 270/270 267/267 272/272
f 272/272 267/267 269/269
f 276/276 277/277 275/275
f 275/275 274/274 276/276
f 273/273 274/274 275/275
f 273/273 278/278 274/274
f 280/280 281/281 282/282
f 279/279 278/278 273/273
f 283/283 286/286 287/287
f 286/286 283/283 285/285
f 283/283 284/284 285/285
f 285/285 284/284 288/288
f 290/290 291/291 292/292
f 288/288 284/284 289/289
f 296/296 298/298 293/293
f 299/299 294/294 298/298
f 293/293 298/298 294/294
f 293/293 295/295 296/296
f 293/293 294/294 295/295
f 300/300 295/295 297/297
f 297/297 295/295 294/294
f 314/314 316/316 315/315
f 303/303 302/302 304/304
f 313/313 314/314 315/315
f 308/308 303/303 304/304
f 309/309 310/310 311/311
f 310/310 312/312 311/311
f 306/306 307/307 302/302
f 302/302 301/301 306/306
f 301/301 302/302 303/303
f 305/305 301/301 303/303
f 317/317 318/318 319/319
f 325/325 328/328 326/326
f 325/325 326/326 327/327
f 329/329 325/325 327/327
f 322/322 321/321 323/323
f 320/320 321/321 322/322
f 321/321 320/320 324/324
f 335/335 332/332 336/336
f 334/334 332/332 335/335
f 330/330 331/331 332/332
f 339/339 334/334 335/335
f 337/337 338/338 340/340
f 334/334 330/330 332/332
f 331/331 330/330 333/333
f 338/338 334/334 339/339
f 337/337 334/334 338/338
f 341/341 337/337 340/340
f 341/341 340/340 342/342
f 352/352 358/358 356/356
f 356/356 349/349 352/352
f 358/358 357/357 356/356
f 351/351 349/349 353/353
f 343/343 344/344 345/345
f 348/348 354/354 353/353
f 346/346 347/347 348/348
f 353/353 349/349 348/348
f 348/348 349/349 346/346
f 351/351 352/352 349/349
f 350/350 346/346 349/349
f 355/355 356/356 357/357
f 368/368 370/370 364/364
f 371/371 370/370 368/368
f 362/362 365/365 366/366
f 359/359 360/360 361/361
f 366/366 365/365 367/367
f 365/365 362/362 364/364
f 362/362 363/363 364/364
f 363/363 368/368 364/364
f 368/368 363/363 369/369
f 375/375 374/374 373/373
f 372/372 373/373 374/374
f 382/382 381/381 383/383
f 380/380 381/381 382/382
f 378/378 377/377 379/379
f 376/376 377/377 378/378
f 390/390 395/395 385/385
f 390/390 385/385 384/384
f 393/393 396/396 391/391
f 393/393 397/397 396/396
f 391/391 392/392 393/393
f 391/391 394/394 392/392
f 391/391 395/395 394/394
f 394/394 395/395 390/390
f 384/384 385/385 386/386
f 387/387 384/384 386/386
f 387/387 386/386 388/388
f 389/389 387/387 388/388
f 419/419 422/422 417/417
f 419/419 417/417 418/418
f 419/419 418/418 420/420
f 418/418 417/417 416/416
f 416/416 417/417 415/415
f 414/414 416/416 415/415
f 413/413 412/412 414/414
f 420/420 421/421 419/419
f 412/412 411/411 410/410
f 398/398 410/410 409/409
f 406/406 398/398 409/409
f 408/408 405/405 407/407
f 407/407 405/405 404/404
f 399/399 398/398 406/406
f 398/398 399/399 400/400
f 399/399 401/401 400/400
f 402/402 401/401 399/399
f 403/403 401/401 402/402
f 402/402 404/404 403/403
f 403/403 404/404 405/405
f 425/425 429/429 426/426
f 426/426 429/429 430/430
f 434/434 433/433 423/423
f 423/423 425/425 426/426
f 423/423 424/424 425/425
f 433/433 432/432 423/423
f 431/431 423/423 432/432
f 427/427 425/425 424/424
f 424/424 423/423 431/431
f 428/428 427/427 424/424
f 428/428 424/424 431/431
f 475/475 476/476 467/467
f 467/467 465/465 475/475
f 466/466 465/465 467/467
f 465/465 466/466 463/463
f 468/468 463/463 466/466
f 463/463 464/464 465/465
f 465/465 464/464 472/472
f 474/474 465/465 472/472
f 462/462 472/472 464/464
f 462/462 474/474 472/472
f 463/463 462/462 464/464
f 460/460 461/461 474/474
f 461/461 460/460 459/459
f 460/460 474/474 462/462
f 456/456 460/460 462/462
f 456/456 459/459 460/460
f 470/470 469/469 466/466
f 468/468 466/466 469/469
f 471/471 469/469 470/470
f 463/463 456/456 462/462
f 473/473 456/456 463/463
f 473/473 448/448 456/456
f 444/444 457/457 456/456
f 459/459 456/456 457/457
f 485/485 478/478 500/500
f 473/473 500/500 478/478
f 480/480 478/478 485/485
f 448/448 473/473 478/478
f 448/448 478/478 449/449
f 479/479 449/449 478/478
f 448/448 444/444 456/456
f 447/447 444/444 448/448
f 447/447 448/448 449/449
f 450/450 447/447 449/449
f 444/444 458/458 457/457
f 442/442 445/445 477/477
f 444/444 442/442 477/477
f 440/440 442/442 444/444
f 442/442 441/441 445/445
f 440/440 441/441 442/442
f 435/435 436/436 437/437
f 447/447 446/446 444/444
f 444/444 439/439 440/440
f 446/446 439/439 444/444
f 435/435 440/440 439/439
f 438/438 436/436 435/435
f 439/439 438/438 435/435
f 438/438 439/439 443/443
f 435/435 441/441 440/440
f 480/480 479/479 478/478
f 481/481 479/479 480/480
f 479/479 481/481 482/482
f 481/481 480/480 486/486
f 483/483 479/479 482/482
f 484/484 483/483 482/482
f 486/486 483/483 484/484
f 483/483 486/486 487/487
f 488/488 487/487 486/486
f 479/479 483/483 489/489
f 489/489 483/483 490/490
f 491/491 490/490 483/483
f 492/492 490/490 491/491
f 447/447 450/450 451/451
f 452/452 451/451 450/450
f 453/453 451/451 452/452
f 455/455 453/453 452/452
f 496/496 490/490 493/493
f 453/453 454/454 451/451
f 490/490 497/497 498/498
f 497/497 490/490 496/496
f 492/492 493/493 490/490
f 494/494 493/493 492/492
f 495/495 493/493 494/494
f 499/499 498/498 497/497
f 510/510 518/518 514/514
f 510/510 516/516 517/517
f 516/516 510/510 515/515
f 503/503 515/515 510/510
f 504/504 515/515 503/503
f 509/509 510/510 514/514
f 505/505 510/510 509/509
f 502/502 504/504 503/503
f 503/503 510/510 505/505
f 501/501 502/502 503/503
f 501/501 513/513 502/502
f 501/501 503/503 505/505
f 508/508 505/505 509/509
f 506/506 505/505 508/508
f 506/506 501/501 505/505
f 507/507 513/513 501/501
f 507/507 501/501 506/506
f 511/511 507/507 506/506
f 512/512 513/513 507/507
f 512/512 507/507 511/511
f 524/524 522/522 519/519
f 522/522 520/520 519/519
f 519/519 520/520 521/521
f 528/528 521/521 520/520
f 529/529 528/528 520/520
f 530/530 528/528 529/529
f 524/524 525/525 526/526
f 519/519 525/525 524/524
f 519/519 521/521 525/525
f 521/521 527/527 525/525
f 523/523 529/529 520/520
f 523/523 520/520 522/522
f 552/552 551/551 553/553
f 539/539 549/549 542/542
f 551/551 538/538 554/554
f 538/538 551/551 550/550
f 550/550 541/541 538/538
f 532/532 551/551 552/552
f 532/532 550/550 551/551
f 549/549 532/532 552/552
f 539/539 532/532 549/549
f 539/539 533/533 532/532
f 537/537 538/538 541/541
f 536/536 548/548 538/538
f 536/536 538/538 537/537
f 536/536 537/537 531/531
f 536/536 531/531 535/535
f 542/542 533/533 539/539
f 543/543 533/533 542/542
f 544/544 533/533 543/543
f 533/533 544/544 545/545
f 531/531 532/532 533/533
f 533/533 534/534 531/531
f 540/540 534/534 533/533
f 545/545 540/540 533/533
f 546/546 545/545 544/544
f 534/534 535/535 531/531
f 546/546 534/534 545/545
f 534/534 546/546 547/547
f 560/560 569/569 568/568
f 568/568 567/567 560/560
f 560/560 563/563 569/569
f 560/560 562/562 563/563
f 566/566 563/563 562/562
f 562/562 560/560 556/556
f 555/555 556/556 557/557
f 557/557 556/556 560/560
f 560/560 567/567 561/561
f 570/570 561/561 567/567
f 560/560 561/561 557/557
f 555/555 557/557 571/571
f 571/571 557/557 572/572
f 562/562 564/564 566/566
f 556/556 564/564 562/562
f 564/564 556/556 558/558
f 558/558 556/556 555/555
f 565/565 566/566 564/564
f 573/573 566/566 565/565
f 559/559 558/558 555/555
f 555/555 576/576 559/559
f 576/576 555/555 571/571
f 575/575 559/559 576/576
f 558/558 565/565 564/564
f 571/571 572/572 574/574
f 575/575 574/574 572/572
f 575/575 576/576 574/574
f 585/585 584/584 583/583
f 583/583 584/584 582/582
f 581/581 583/583 582/582
f 597/597 596/596 595/595
f 598/598 596/596 597/597
f 595/595 596/596 594/594
f 595/595 594/594 593/593
f 593/593 589/589 588/588
f 589/589 593/593 594/594
f 590/590 589/589 591/591
f 590/590 587/587 589/589
f 587/587 590/590 592/592
f 579/579 581/581 582/582
f 580/580 581/581 579/579
f 577/577 578/578 579/579
f 580/580 579/579 578/578
f 588/588 587/587 578/578
f 586/586 580/580 578/578
f 586/586 578/578 587/587
f 587/587 588/588 589/589
f 601/601 603/603 604/604
f 599/599 600/600 601/601
f 603/603 601/601 600/600
f 600/600 599/599 602/602
f 603/603 600/600 605/605
f 602/602 607/607 600/600
f 607/607 605/605 600/600
f 606/606 603/603 605/605
f 607/607 608/608 605/605
f 605/605 609/609 608/608
f 610/610 611/611 612/612
f 611/611 610/610 613/613
f 615/615 614/614 612/612
f 612/612 614/614 610/610
f 620/620 632/632 633/633
f 632/632 634/634 633/633
f 629/629 631/631 630/630
f 620/620 630/630 632/632
f 618/618 617/617 620/620
f 617/617 630/630 620/620
f 616/616 617/617 618/618
f 616/616 618/618 619/619
f 625/625 624/624 619/619
f 626/626 624/624 625/625
f 624/624 616/616 619/619
f 617/617 629/629 630/630
f 617/617 621/621 629/629
f 621/621 617/617 616/616
f 616/616 622/622 621/621
f 623/623 616/616 624/624
f 616/616 623/623 622/622
f 627/627 624/624 626/626
f 628/628 626/626 625/625
f 628/628 627/627 626/626
f 641/641 636/636 639/639
f 641/641 639/639 644/644
f 638/638 639/639 636/636
f 635/635 636/636 637/637
f 637/637 640/640 635/635
f 642/642 635/635 640/640
f 642/642 640/640 643/643
f 663/663 662/662 661/661
f 662/662 660/660 661/661
f 659/659 661/661 660/660
f 648/648 659/659 660/660
f 648/648 658/658 659/659
f 658/658 648/648 647/647
f 664/664 648/648 660/660
f 649/649 650/650 645/645
f 649/649 651/651 650/650
f 651/651 656/656 654/654
f 645/645 646/646 647/647
f 645/645 647/647 648/648
f 649/649 645/645 648/648
f 645/645 650/650 652/652
f 651/651 654/654 650/650
f 653/653 652/652 650/650
f 653/653 650/650 654/654
f 653/653 655/655 657/657
f 655/655 653/653 654/654
f 670/670 668/668 671/671
f 670/670 666/666 668/668
f 665/665 666/666 667/667
f 668/668 666/666 665/665
f 669/669 672/672 674/674
f 672/672 669/669 666/666
f 669/669 667/667 666/666
f 667/667 677/677 665/665
f 665/665 678/678 685/685
f 673/673 672/672 670/670
f 666/666 670/670 672/672
f 673/673 674/674 672/672
f 676/676 675/675 669/669
f 683/683 675/675 684/684
f 669/669 675/675 667/667
f 686/686 675/675 676/676
f 683/683 667/667 675/675
f 683/683 681/681 667/667
f 679/679 667/667 681/681
f 677/677 679/679 680/680
f 679/679 682/682 680/680
f 677/677 667/667 679/679
f 665/665 677/677 678/678
f 688/688 687/687 689/689
f 693/693 694/694 695/695
f 690/690 691/691 692/692
f 696/696 697/697 698/698
f 705/705 710/710 706/706
f 710/710 705/705 707/707
f 703/703 707/707 705/705
f 701/701 705/705 706/706
f 700/700 705/705 701/701
f 700/700 703/703 705/705
f 703/703 708/708 707/707
f 704/704 708/708 703/703
f 708/708 711/711 707/707
f 700/700 699/699 703/703
f 704/704 703/703 699/699
f 702/702 704/704 699/699
f 714/714 712/712 713/713
f 709/709 704/704 712/712
f 704/704 709/709 708/708
f 715/715 716/716 717/717
f 718/718 719/719 720/720
f 721/721 722/722 723/723
f 721/721 723/723 724/724
f 723/723 725/725 724/724
f 724/724 725/725 726/726
f 730/730 727/727 729/729
f 727/727 728/728 729/729
f 731/731 732/732 733/733
f 748/748 746/746 745/745
f 743/743 744/744 745/745
f 745/745 746/746 743/743
f 742/742 743/743 747/747
f 744/744 748/748 745/745
f 742/742 736/736 743/743
f 736/736 744/744 743/743
f 742/742 741/741 736/736
f 750/750 751/751 752/752
f 735/735 749/749 738/738
f 736/736 735/735 738/738
f 740/740 736/736 741/741
f 734/734 735/735 736/736
f 737/737 734/734 736/736
f 739/739 736/736 740/740
f 739/739 737/737 736/736
f 753/753 754/754 755/755
f 756/756 754/754 753/753
f 753/753 757/757 756/756
f 762/762 758/758 761/761
f 760/760 761/761 758/758
f 758/758 759/759 760/760
f 765/765 764/764 766/766
f 763/763 764/764 765/765
f 770/770 769/769 768/768
f 767/767 768/768 769/769
f 771/771 767/767 769/769
f 775/775 776/776 773/773
f 771/771 772/772 767/767
f 773/773 774/774 775/775
f 777/777 778/778 779/779
f 780/780 784/784 781/781
f 784/784 780/780 785/785
f 780/780 781/781 782/782
f 780/780 782/782 783/783
f 789/789 788/788 787/787
f 789/789 790/790 788/788
f 786/786 787/787 788/788
f 792/792 791/791 793/793
f 794/794 795/795 796/796
f 798/798 799/799 800/800
f 794/794 796/796 797/797
f 801/801 802/802 803/803
f 803/803 804/804 801/801
f 805/805 806/806 807/807
f 808/808 809/809 810/810
f 812/812 815/815 813/813
f 811/811 810/810 809/809
f 812/812 813/813 814/814
f 816/816 817/817 818/818
f 819/819 816/816 818/818
f 822/822 821/821 820/820
f 824/824 825/825 823/823
f 828/828 827/827 829/829
f 826/826 827/827 828/828
f 830/830 831/831 832/832
f 833/833 834/834 835/835
f 835/835 834/834 836/836
f 837/837 838/838 839/839
f 840/840 841/841 842/842
f 847/847 849/849 848/848
f 847/847 848/848 844/844
f 843/843 847/847 844/844
f 851/851 848/848 849/849
f 848/848 851/851 852/852
f 843/843 844/844 845/845
f 846/846 845/845 844/844
f 850/850 845/845 846/846
f 856/856 857/857 858/858
f 853/853 854/854 855/855
f 862/862 863/863 864/864
f 859/859 860/860 861/861
f 864/864 865/865 862/862
f 866/866 867/867 868/868
f 869/869 872/872 870/870
f 869/869 870/870 871/871
f 875/875 877/877 878/878
f 874/874 877/877 875/875
f 873/873 874/874 875/875
f 874/874 873/873 876/876
f 879/879 882/882 883/883
f 884/884 880/880 879/879
f 879/879 881/881 882/882
f 879/879 880/880 881/881
f 885/885 886/886 887/887
f 888/888 890/890 891/891
f 888/888 889/889 890/890
f 892/892 889/889 888/888
f 893/893 894/894 895/895
f 897/897 900/900 899/899
f 898/898 899/899 903/903
f 899/899 898/898 897/897
f 896/896 897/897 898/898
f 902/902 901/901 896/896
f 902/902 896/896 904/904
f 904/904 896/896 905/905
f 906/906 907/907 908/908
f 911/911 912/912 913/913
f 911/911 910/910 912/912
f 909/909 910/910 911/911
f 916/916 918/918 919/919
f 917/917 920/920 915/915
f 914/914 915/915 916/916
f 917/917 915/915 914/914
f 915/915 918/918 916/916
f 922/922 925/925 924/924
f 922/922 924/924 923/923
f 921/921 922/922 923/923
f 928/928 929/929 930/930
f 921/921 923/923 926/926
f 926/926 923/923 927/927
f 933/933 935/935 936/936
f 935/935 933/933 932/932
f 931/931 932/932 933/933
f 932/932 931/931 934/934
f 939/939 938/938 940/940
f 937/937 938/938 939/939
f 937/937 941/941 938/938
f 941/941 937/937 942/942
f 950/950 945/945 949/949
f 946/946 949/949 945/945
f 948/948 944/944 947/947
f 943/943 951/951 947/947
f 952/952 947/947 951/951
f 954/954 955/955 956/956
f 953/953 952/952 951/951
f 945/945 944/944 946/946
f 943/943 944/944 945/945
f 943/943 947/947 944/944
f 958/958 957/957 961/961
f 957/957 958/958 959/959
f 962/962 965/965 957/957
f 959/959 962/962 957/957
f 960/960 959/959 958/958
f 963/963 959/959 960/960
f 964/964 959/959 963/963
f 968/968 967/967 970/970
f 966/966 967/967 968/968
f 967/967 966/966 969/969
f 975/975 977/977 976/976
f 971/971 972/972 973/973
f 978/978 979/979 980/980
f 974/974 975/975 976/976
f 984/984 985/985 986/986
f 981/981 982/982 983/983
f 987/987 989/989 990/990
f 987/987 988/988 989/989
f 993/993 992/992 994/994
f 991/991 992/992 993/993
f 995/995 991/991 993/993
f 991/991 995/995 996/996
f 1014/1014 1008/1008 1013/1013
f 1009/1009 1011/1011 1010/1010
f 1008/1008 1010/1010 1013/1013
f 1010/1010 1008/1008 1009/1009
f 1009/1009 1012/1012 1011/1011
f 1002/1002 1009/1009 1008/1008
f 1002/1002 999/999 998/998
f 997/997 1000/1000 1001/1001
f 1000/1000 997/997 999/999
f 997/997 998/998 999/999
f 1003/1003 1001/1001 1000/1000
f 1005/1005 1003/1003 1004/1004
f 1007/1007 1005/1005 1006/1006
f 1015/1015 1005/1005 1007/1007
f 1016/1016 1017/1017 1018/1018
f 1034/1034 1035/1035 1036/1036
f 1034/1034 1033/1033 1035/1035
f 1025/1025 1026/1026 1027/1027
f 1027/1027 1031/1031 1032/1032
f 1030/1030 1028/1028 1031/1031
f 1023/1023 1029/1029 1030/1030
f 1022/1022 1023/1023 1024/1024
f 1021/1021 1022/1022 1024/1024
f 1021/1021 1019/1019 1020/1020
f 1042/1042 1040/1040 1041/1041
f 1039/1039 1040/1040 1037/1037
f 1041/1041 1040/1040 1039/1039
f 1043/1043 1041/1041 1039/1039
f 1038/1038 1039/1039 1037/1037
f 1047/1047 1044/1044 1048/1048
f 1045/1045 1044/1044 1047/1047
f 1044/1044 1045/1045 1046/1046
f 1052/1052 1050/1050 1049/1049
f 1049/1049 1050/1050 1051/1051
f 1056/1056 1057/1057 1058/1058
f 1063/1063 1060/1060 1062/1062
f 1059/1059 1056/1056 1058/1058
f 1060/1060 1061/1061 1062/1062
f 1053/1053 1054/1054 1055/1055
f 1067/1067 1068/1068 1066/1066
f 1064/1064 1065/1065 1066/1066
f 1065/1065 1067/1067 1066/1066
f 1071/1071 1074/1074 1073/1073
f 1071/1071 1073/1073 1072/1072
f 1072/1072 1070/1070 1069/1069
f 1069/1069 1070/1070 1071/1071
f 1079/1079 1085/1085 1084/1084
f 1086/1086 1083/1083 1087/1087
f 1087/1087 1083/1083 1084/1084
f 1083/1083 1079/1079 1084/1084
f 1082/1082 1079/1079 1083/1083
f 1079/1079 1082/1082 1081/1081
f 1075/1075 1076/1076 1077/1077
f 1079/1079 1077/1077 1078/1078
f 1077/1077 1079/1079 1080/1080
f 1080/1080 1079/1079 1081/1081
f 1095/1095 1097/1097 1096/1096
f 1096/1096 1094/1094 1095/1095
f 1094/1094 1090/1090 1095/1095
f 1090/1090 1094/1094 1088/1088
f 1088/1088 1089/1089 1090/1090
f 1091/1091 1090/1090 1089/1089
f 1091/1091 1089/1089 1092/1092
f 1091/1091 1092/1092 1093/1093
f 1098/1098 1099/1099 1100/1100
f 1101/1101 1104/1104 1102/1102
f 1101/1101 1102/1102 1103/1103
f 1105/1105 1103/1103 1102/1102
f 1105/1105 1102/1102 1106/1106
f 1106/1106 1102/1102 1104/1104
f 1114/1114 1115/1115 1116/1116
f 1111/1111 1112/1112 1113/1113
f 1107/1107 1108/1108 1109/1109
f 1110/1110 1109/1109 1108/1108
f 1120/1120 1124/1124 1119/1119
f 1123/1123 1118/1118 1117/1117
f 1119/1119 1118/1118 1120/1120
f 1117/1117 1118/1118 1119/1119
f 1121/1121 1119/1119 1122/1122
f 1117/1117 1119/1119 1121/1121
f 1125/1125 1126/1126 1127/1127
f 1128/1128 1129/1129 1130/1130
f 1131/1131 1132/1132 1133/1133
f 1134/1134 1133/1133 1132/1132
f 1135/1135 1137/1137 1138/1138
f 1135/1135 1136/1136 1137/1137
f 1140/1140 1143/1143 1141/1141
f 1139/1139 1140/1140 1141/1141
f 1142/1142 1140/1140 1139/1139
f 1142/1142 1139/1139 1144/1144
f 1145/1145 1146/1146 1147/1147
f 1148/1148 1149/1149 1150/1150
f 1151/1151 1152/1152 1153/1153
f 1154/1154 1155/1155 1156/1156
f 1161/1161 1162/1162 1163/1163
f 1161/1161 1163/1163 1164/1164
f 1157/1157 1158/1158 1159/1159
f 1157/1157 1159/1159 1160/1160
f 1169/1169 1166/1166 1165/1165
f 1167/1167 1166/1166 1168/1168
f 1165/1165 1166/1166 1167/1167
f 1170/1170 1172/1172 1175/1175
f 1173/1173 1171/1171 1170/1170
f 1171/1171 1173/1173 1174/1174
f 1170/1170 1171/1171 1172/1172
f 1176/1176 1177/1177 1178/1178
f 1179/1179 1180/1180 1181/1181
f 1182/1182 1183/1183 1184/1184
f 1183/1183 1182/1182 1186/1186
f 1189/1189 1188/1188 1190/1190
f 1184/1184 1185/1185 1182/1182
f 1185/1185 1187/1187 1188/1188
f 1184/1184 1187/1187 1185/1185
f 1192/1192 1183/1183 1191/1191
f 1186/1186 1191/1191 1183/1183
f 1196/1196 1194/1194 1193/1193
f 1193/1193 1194/1194 1195/1195
f 1200/1200 1199/1199 1198/1198
f 1200/1200 1198/1198 1202/1202
f 1199/1199 1200/1200 1201/1201
f 1197/1197 1198/1198 1199/1199
f 1203/1203 1204/1204 1205/1205
f 1209/1209 1210/1210 1207/1207
f 1206/1206 1207/1207 1208/1208
f 1206/1206 1209/1209 1207/1207
f 1216/1216 1217/1217 1212/1212
f 1216/1216 1212/1212 1211/1211
f 1211/1211 1212/1212 1213/1213
f 1214/1214 1213/1213 1215/1215
f 1214/1214 1211/1211 1213/1213
f 1230/1230 1226/1226 1229/1229
f 1229/1229 1226/1226 1228/1228
f 1233/1233 1229/1229 1231/1231
f 1228/1228 1231/1231 1229/1229
f 1228/1228 1232/1232 1231/1231
f 1218/1218 1219/1219 1220/1220
f 1221/1221 1218/1218 1220/1220
f 1221/1221 1225/1225 1224/1224
f 1218/1218 1221/1221 1223/1223
f 1223/1223 1221/1221 1224/1224
f 1226/1226 1227/1227 1228/1228
f 1219/1219 1222/1222 1220/1220
f 1237/1237 1238/1238 1239/1239
f 1234/1234 1235/1235 1236/1236
f 1240/1240 1241/1241 1242/1242
f 1246/1246 1247/1247 1248/1248
f 1247/1247 1246/1246 1249/1249
f 1243/1243 1244/1244 1245/1245
f 1250/1250 1251/1251 1252/1252
f 1253/1253 1252/1252 1251/1251
f 1255/1255 1251/1251 1250/1250
f 1254/1254 1253/1253 1251/1251
f 1256/1256 1257/1257 1258/1258
f 1259/1259 1260/1260 1261/1261
f 1272/1272 1274/1274 1273/1273
f 1264/1264 1263/1263 1265/1265
f 1262/1262 1263/1263 1264/1264
f 1270/1270 1266/1266 1275/1275
f 1266/1266 1270/1270 1263/1263
f 1262/1262 1266/1266 1263/1263
f 1276/1276 1277/1277 1278/1278
f 1268/1268 1262/1262 1271/1271
f 1262/1262 1268/1268 1267/1267
f 1267/1267 1266/1266 1262/1262
f 1267/1267 1269/1269 1266/1266
f 1268/1268 1271/1271 1272/1272
f 1279/1279 1280/1280 1281/1281
f 1282/1282 1283/1283 1284/1284
f 1285/1285 1283/1283 1282/1282
f 1286/1286 1287/1287 1288/1288
f 1289/1289 1286/1286 1288/1288
f 1289/1289 1290/1290 1286/1286
f 1288/1288 1287/1287 1291/1291
f 1295/1295 1296/1296 1297/1297
f 1292/1292 1293/1293 1294/1294
f 1298/1298 1299/1299 1300/1300
f 1305/1305 1306/1306 1307/1307
f 1305/1305 1308/1308 1306/1306
f 1301/1301 1303/1303 1304/1304
f 1301/1301 1302/1302 1303/1303
f 1315/1315 1318/1318 1316/1316
f 1315/1315 1316/1316 1317/1317
f 1309/1309 1310/1310 1311/1311
f 1319/1319 1315/1315 1317/1317
f 1320/1320 1319/1319 1317/1317
f 1312/1312 1309/1309 1311/1311
f 1309/1309 1312/1312 1313/1313
f 1313/1313 1314/1314 1309/1309
f 1321/1321 1322/1322 1323/1323
f 1322/1322 1324/1324 1323/1323
f 1329/1329 1327/1327 1326/1326
f 1326/1326 1327/1327 1328/1328
f 1324/1324 1325/1325 1323/1323
f 1330/1330 1331/1331 1332/1332
f 1331/1331 1333/1333 1332/1332
f 1341/1341 1339/1339 1334/1334
f 1334/1334 1339/1339 1338/1338
f 1340/1340 1337/1337 1335/1335
f 1336/1336 1335/1335 1337/1337
f 1334/1334 1335/1335 1336/1336
f 1338/1338 1335/1335 1334/1334
f 1347/1347 1346/1346 1344/1344
f 1343/1343 1344/1344 1346/1346
f 1342/1342 1343/1343 1345/1345
f 1350/1350 1349/1349 1348/1348
f 1353/1353 1352/1352 1351/1351
f 1354/1354 1355/1355 1356/1356
f 1357/1357 1356/1356 1355/1355
f 1351/1351 1352/1352 1353/1353
f 1348/1348 1349/1349 1350/1350
f 1342/1342 1345/1345 1343/1343
f 1300/1300 1299/1299 1298/1298
f 1297/1297 1296/1296 1295/1295
f 1294/1294 1293/1293 1292/1292
f 1281/1281 1280/1280 1279/1279
f 1278/1278 1277/1277 1276/1276
f 1273/1273 1274/1274 1272/1272
f 1261/1261 1260/1260 1259/1259
f 1258/1258 1257/1257 1256/1256
f 1245/1245 1244/1244 1243/1243
f 1242/1242 1241/1241 1240/1240
f 1239/1239 1238/1238 1237/1237
f 1236/1236 1235/1235 1234/1234
f 1205/1205 1204/1204 1203/1203
f 1189/1189 1190/1190 1188/1188
f 1181/1181 1180/1180 1179/1179
f 1178/1178 1177/1177 1176/1176
f 1156/1156 1155/1155 1154/1154
f 1153/1153 1152/1152 1151/1151
f 1150/1150 1149/1149 1148/1148
f 1147/1147 1146/1146 1145/1145
f 1130/1130 1129/1129 1128/1128
f 1127/1127 1126/1126 1125/1125
f 1116/1116 1115/1115 1114/1114
f 1113/1113 1112/1112 1111/1111
f 1100/1100 1099/1099 1098/1098
f 1077/1077 1076/1076 1075/1075
f 1072/1072 1070/1070 1071/1071
f 1072/1072 1069/1069 1071/1071
f 1055/1055 1054/1054 1053/1053
f 1032/1032 1031/1031 1027/1027
f 1028/1028 1030/1030 1031/1031
f 1030/1030 1029/1029 1023/1023
f 1021/1021 1020/1020 1019/1019
f 1027/1027 1026/1026 1025/1025
f 1018/1018 1017/1017 1016/1016
f 1005/1005 1004/1004 1003/1003
f 986/986 985/985 984/984
f 983/983 982/982 981/981
f 980/980 979/979 978/978
f 973/973 972/972 971/971
f 956/956 955/955 954/954
f 930/930 929/929 928/928
f 908/908 907/907 906/906
f 895/895 894/894 893/893
f 887/887 886/886 885/885
f 868/868 867/867 866/866
f 861/861 860/860 859/859
f 858/858 857/857 856/856
f 855/855 854/854 853/853
f 842/842 841/841 840/840
f 839/839 838/838 837/837
f 832/832 831/831 830/830
f 825/825 824/824 823/823
f 820/820 821/821 822/822
f 807/807 806/806 805/805
f 800/800 799/799 798/798
f 791/791 792/792 793/793
f 779/779 778/778 777/777
f 752/752 751/751 750/750
f 733/733 732/732 731/731
f 720/720 719/719 718/718
f 717/717 716/716 715/715
f 714/714 713/713 712/712
f 698/698 697/697 696/696
f 695/695 694/694 693/693
f 692/692 691/691 690/690
f 687/687 688/688 689/689
f 571/571 574/574 576/576
f 534/534 545/545 540/540
f 412/412 413/413 414/414
f 410/410 411/411 412/412
f 361/361 360/360 359/359
f 345/345 344/344 343/343
f 319/319 318/318 317/317
f 292/292 291/291 290/290
f 282/282 281/281 280/280
f 266/266 265/265 264/264
f 263/263 262/262 261/261
f 225/225 224/224 223/223
f 207/207 208/208 209/209
f 173/173 176/176 174/174
f 172/172 174/174 173/173
f 77/77 76/76 73/73
f 75/75 74/74 72/72
f 28/28 27/27 25/25
f 2/2 3/3 1/1
f 1355/1355 1354/1354 1356/1356
f 1344/1344 1343/1343 1346/1346
f 1331/1331 1330/1330 1332/1332
f 1326/1326 1328/1328 1327/1327
f 1305/1305 1307/1307 1306/1306
f 1303/1303 1302/1302 1301/1301
f 1282/1282 1284/1284 1283/1283
f 1246/1246 1248/1248 1247/1247
f 1193/1193 1195/1195 1194/1194
f 1163/1163 1162/1162 1161/1161
f 1159/1159 1158/1158 1157/1157
f 1137/1137 1136/1136 1135/1135
f 1132/1132 1131/1131 1133/1133
f 1108/1108 1107/1107 1109/1109
f 1071/1071 1072/1072 1073/1073
f 1062/1062 1061/1061 1060/1060
f 1058/1058 1057/1057 1056/1056
f 1049/1049 1051/1051 1050/1050
f 1035/1035 1033/1033 1034/1034
f 1022/1022 1021/1021 1024/1024
f 1007/1007 1006/1006 1005/1005
f 989/989 988/988 987/987
f 975/975 974/974 976/976
f 869/869 871/871 870/870
f 864/864 863/863 862/862
f 834/834 833/833 835/835
f 827/827 826/826 828/828
f 818/818 817/817 816/816
f 812/812 814/814 813/813
f 809/809 808/808 810/810
f 803/803 802/802 801/801
f 796/796 795/795 794/794
f 775/775 774/774 773/773
f 764/764 763/763 765/765
f 729/729 728/728 727/727
f 484/484 482/482 481/481
f 381/381 380/380 382/382
f 377/377 376/376 378/378
f 373/373 372/372 374/374
f 314/314 313/313 315/315
f 310/310 309/309 311/311
f 215/215 214/214 216/216
f 212/212 211/211 210/210
f 79/79 78/78 80/80
f 16/16 15/15 17/17
f 13/13 12/12 11/11
f 9/9 7/7 8/8
f 2/2 4/4 5/5
f 1356/1356 1357/1357 1355/1355
f 1346/1346 1347/1347 1344/1344
f 1332/1332 1333/1333 1331/1331
f 1327/1327 1329/1329 1326/1326
f 1306/1306 1308/1308 1305/1305
f 1301/1301 1304/1304 1303/1303
f 1283/1283 1285/1285 1282/1282
f 1247/1247 1249/1249 1246/1246
f 1194/1194 1196/1196 1193/1193
f 1161/1161 1164/1164 1163/1163
f 1157/1157 1160/1160 1159/1159
f 1135/1135 1138/1138 1137/1137
f 1133/1133 1134/1134 1132/1132
f 1109/1109 1110/1110 1108/1108
f 1073/1073 1074/1074 1071/1071
f 1060/1060 1063/1063 1062/1062
f 1056/1056 1059/1059 1058/1058
f 1050/1050 1052/1052 1049/1049
f 1034/1034 1036/1036 1035/1035
f 1024/1024 1023/1023 1022/1022
f 1005/1005 1015/1015 1007/1007
f 987/987 990/990 989/989
f 976/976 977/977 975/975
f 870/870 872/872 869/869
f 862/862 865/865 864/864
f 835/835 836/836 834/834
f 828/828 829/829 827/827
f 816/816 819/819 818/818
f 813/813 815/815 812/812
f 810/810 811/811 809/809
f 801/801 804/804 803/803
f 794/794 797/797 796/796
f 773/773 776/776 775/775
f 765/765 766/766 764/764
f 727/727 730/730 729/729
f 481/481 486/486 484/484
f 382/382 383/383 381/381
f 378/378 379/379 377/377
f 374/374 375/375 373/373
f 315/315 316/316 314/314
f 311/311 312/312 310/310
f 216/216 217/217 215/215
f 210/210 213/213 212/212
f 80/80 81/81 79/79
f 17/17 18/18 16/16
f 11/11 14/14 13/13
f 8/8 10/10 9/9
f 5/5 6/6 2/2
