mtllib marker_smoke.mtl
o marker_smoke
v -0.0682 0.0208 0.1285
v -0.0909 0.0082 0.1204
v -0.0601 0.0101 0.1325
v -0.0990 0.0226 0.1137
v -0.1285 0.0078 0.0934
v -0.1304 0.0196 0.0900
v -0.0268 0.0210 0.1341
v -0.1538 0.0222 0.0523
v -0.1642 0.0064 0.0214
v -0.1503 0.0044 0.0612
v -0.1626 0.0219 0.0192
v -0.1659 0.0166 -0.0033
v -0.1631 0.0011 0.0114
v -0.1630 0.0036 -0.0256
v -0.1447 0.0002 0.0592
v -0.1354 0.0027 0.0804
v -0.1503 0.0044 0.0612
v -0.1631 0.0011 0.0114
v -0.1642 0.0064 0.0214
v -0.0601 0.0101 0.1325
v -0.0784 0.0008 0.1221
v -0.0530 0.0014 0.1301
v -0.0909 0.0082 0.1204
v -0.0963 0.0005 0.1121
v -0.1140 0.0000 0.0978
v -0.1285 0.0078 0.0934
v -0.0174 0.0009 0.1305
v -0.0268 0.0210 0.1341
v -0.0013 0.0048 0.1296
v 0.0254 0.0006 0.1159
v 0.0324 0.0074 0.1178
v 0.0528 0.0007 0.0985
v 0.0658 0.0045 0.0910
v -0.0268 0.0210 0.1341
v -0.0013 0.0048 0.1296
v 0.0212 0.0217 0.1226
v 0.0324 0.0074 0.1178
v -0.1237 0.0250 0.0899
v -0.1406 0.0260 0.0674
v -0.1304 0.0196 0.0900
v -0.0990 0.0226 0.1137
v -0.1013 0.0262 0.1073
v -0.0788 0.0257 0.1191
v -0.0682 0.0208 0.1285
v -0.0506 0.0253 0.1272
v -0.0268 0.0210 0.1341
v -0.1538 0.0222 0.0523
v -0.1533 0.0265 0.0380
v -0.1577 0.0255 0.0217
v -0.1626 0.0219 0.0192
v -0.1582 0.0248 -0.0312
v -0.1659 0.0166 -0.0033
v -0.1527 0.3877 0.0424
v -0.1521 0.2875 0.0433
v -0.1407 0.3138 0.0674
v -0.1405 0.1797 0.0678
v -0.1394 0.2437 0.0697
v -0.1541 0.2044 0.0362
v -0.1538 0.1600 0.0388
v -0.1407 0.1055 0.0680
v -0.1406 0.0260 0.0674
v -0.1526 0.0824 0.0408
v -0.1533 0.0265 0.0380
v -0.1417 0.3962 0.0644
v -0.1290 0.3717 0.0833
v -0.1243 0.1432 0.0880
v -0.1265 0.0528 0.0855
v -0.1237 0.0250 0.0899
v -0.1170 0.2880 0.0954
v -0.1167 0.2222 0.0953
v -0.1117 0.4017 0.0998
v -0.1042 0.3355 0.1060
v -0.1036 0.1100 0.1062
v -0.1013 0.0262 0.1073
v -0.1030 0.1773 0.1063
v -0.0974 0.2691 0.1095
v -0.0995 0.3858 0.1091
v -0.1600 0.3320 0.0131
v -0.1575 0.4067 0.0218
v -0.1595 0.2672 0.0087
v -0.1591 0.0573 0.0118
v -0.1591 0.1037 0.0111
v -0.1594 0.1938 0.0086
v -0.1577 0.0255 0.0217
v -0.1602 0.3909 -0.0026
v -0.1582 0.0248 -0.0312
v -0.1579 0.0815 -0.0183
v -0.1583 0.1670 -0.0142
v -0.1577 0.2451 -0.0208
v -0.1585 0.3810 -0.0226
v -0.1562 0.3062 -0.0287
v -0.0460 0.0019 -0.1210
v -0.0971 0.0005 -0.1114
v -0.0516 0.0010 -0.1289
v -0.0955 0.0014 -0.1060
v -0.0014 0.0008 -0.1184
v -0.0116 0.0018 -0.1302
v 0.0214 0.0038 -0.1216
v 0.0416 0.0010 -0.1062
v 0.0350 0.0009 -0.1038
v 0.0650 0.0008 -0.0859
v 0.0571 0.0021 -0.0812
v 0.0706 0.0020 -0.0629
v 0.0878 0.0007 -0.0493
v 0.0845 0.0016 -0.0332
v 0.0977 0.0015 -0.0160
v 0.0913 0.0013 0.0009
v 0.1010 0.0042 0.0174
v 0.0885 0.0006 0.0439
v -0.1092 0.0047 -0.1096
v -0.1229 0.0027 -0.0973
v -0.1288 0.0010 -0.0768
v -0.1452 0.0032 -0.0684
v -0.1393 0.0008 -0.0599
v -0.1558 0.0023 -0.0413
v -0.1484 0.0019 -0.0309
v -0.1466 0.0029 0.0310
v -0.1631 0.0011 0.0114
v -0.1447 0.0002 0.0592
v -0.1359 0.0012 0.0641
v -0.1354 0.0027 0.0804
v -0.1140 0.0000 0.0978
v -0.1630 0.0036 -0.0256
v -0.0760 0.0050 -0.1266
v -0.0391 0.0064 -0.1341
v -0.1452 0.0032 -0.0684
v -0.1391 0.0188 -0.0804
v -0.1229 0.0027 -0.0973
v -0.1531 0.0075 -0.0544
v -0.1191 0.0213 -0.1007
v -0.1092 0.0047 -0.1096
v -0.1514 0.0214 -0.0563
v -0.0908 0.0221 -0.1201
v -0.0760 0.0050 -0.1266
v -0.1582 0.0248 -0.0312
v -0.1630 0.0036 -0.0256
v -0.1659 0.0166 -0.0033
v -0.1363 0.0257 -0.0737
v -0.1558 0.0023 -0.0413
v -0.1511 0.0256 -0.0440
v -0.0500 0.0226 -0.1314
v -0.0908 0.0221 -0.1201
v -0.0542 0.0259 -0.1256
v -0.0785 0.0254 -0.1188
v -0.0985 0.0257 -0.1083
v -0.0171 0.0253 -0.1268
v -0.1191 0.0213 -0.1007
v -0.1192 0.0259 -0.0927
v -0.1363 0.0257 -0.0737
v -0.0070 0.0213 -0.1309
v -0.1390 0.3415 -0.0691
v -0.1362 0.2341 -0.0724
v -0.1439 0.2969 -0.0605
v -0.1514 0.2395 -0.0449
v -0.1451 0.2101 -0.0579
v -0.1394 0.1584 -0.0684
v -0.1536 0.1415 -0.0380
v -0.1530 0.3638 -0.0393
v -0.1408 0.0773 -0.0667
v -0.1533 0.0668 -0.0384
v -0.1420 0.3864 -0.0655
v -0.1363 0.0257 -0.0737
v -0.1511 0.0256 -0.0440
v -0.1582 0.0248 -0.0312
v -0.1559 0.4429 -0.0326
v -0.1562 0.3062 -0.0287
v -0.1585 0.3810 -0.0226
v -0.1395 0.4067 -0.0672
v -0.1577 0.2451 -0.0208
v -0.1579 0.0815 -0.0183
v -0.1583 0.1670 -0.0142
v -0.1240 0.3921 -0.0869
v -0.1211 0.2944 -0.0911
v -0.1201 0.1326 -0.0921
v -0.1192 0.0259 -0.0927
v -0.1190 0.2093 -0.0927
v -0.1043 0.3730 -0.1056
v -0.1017 0.4018 -0.1057
v -0.1025 0.0956 -0.1066
v -0.1033 0.2458 -0.1057
v -0.1002 0.1628 -0.1070
v -0.1008 0.3040 -0.1067
v -0.0985 0.0257 -0.1083
v -0.0288 0.0131 0.0600
v -0.0921 0.0125 0.0522
v -0.0516 0.0130 0.0153
v -0.1045 0.0128 -0.0090
v 0.0120 0.0130 -0.0497
v 0.0354 0.0130 0.0164
v -0.0435 0.0130 -0.0668
v -0.1346 0.0115 -0.0396
v 0.0220 0.0115 0.0893
v -0.1431 0.0107 0.0252
v -0.0711 0.0108 -0.0991
v -0.1438 0.0106 -0.0056
v -0.0598 0.0098 0.1130
v -0.1004 0.0105 0.0836
v -0.0336 0.0095 0.1183
v 0.0613 0.0102 0.0650
v 0.0581 0.0111 -0.0238
v 0.0820 0.0102 0.0135
v 0.0756 0.0103 0.0441
v 0.0816 0.0101 -0.0173
v 0.0716 0.0102 -0.0503
v 0.0579 0.0098 -0.0670
v 0.0376 0.0094 -0.0907
v -0.0262 0.0106 -0.1100
v -0.1303 0.0088 0.0633
v -0.0717 0.0094 0.1092
v -0.1118 0.0077 -0.0860
v -0.1322 0.0092 -0.0583
v -0.0027 0.0084 0.1142
v -0.0756 0.0085 -0.1097
v -0.1149 0.0077 0.0862
v -0.0059 0.0076 -0.1144
v 0.0460 0.0078 0.0884
v -0.0358 0.0079 -0.1183
v 0.0176 0.0075 0.1071
v -0.0938 0.0043 0.1012
v -0.1140 0.0000 0.0978
v -0.0963 0.0005 0.1121
v -0.0801 0.0023 0.1109
v -0.0784 0.0008 0.1221
v -0.0579 0.0016 0.1172
v -0.0530 0.0014 0.1301
v -0.0270 0.0019 0.1207
v -0.0174 0.0009 0.1305
v 0.0015 0.0019 0.1153
v 0.0254 0.0006 0.1159
v 0.0309 0.0015 0.1036
v 0.0528 0.0007 0.0985
v 0.0532 0.0019 0.0848
v 0.0646 0.0004 0.0728
v 0.0658 0.0045 0.0910
v 0.0792 0.0034 0.0723
v 0.0885 0.0006 0.0439
v 0.0810 0.0020 0.0474
v -0.1484 0.0019 -0.0309
v -0.0955 0.0014 -0.1060
v -0.1288 0.0010 -0.0768
v -0.1393 0.0008 -0.0599
v -0.1359 0.0012 0.0641
v -0.1466 0.0029 0.0310
v -0.0469 0.3870 -0.1274
v -0.0760 0.4015 -0.1187
v -0.0715 0.3296 -0.1206
v -0.0451 0.3106 -0.1275
v -0.0583 0.2578 -0.1245
v -0.0386 0.2082 -0.1279
v -0.0444 0.0749 -0.1274
v -0.0614 0.1797 -0.1236
v -0.0598 0.0784 -0.1240
v -0.0542 0.0259 -0.1256
v -0.0785 0.0254 -0.1188
v -0.0819 0.2444 -0.1164
v -0.0817 0.1305 -0.1163
v -0.1043 0.3730 -0.1056
v -0.1008 0.3040 -0.1067
v -0.1002 0.1628 -0.1070
v -0.1033 0.2458 -0.1057
v -0.1025 0.0956 -0.1066
v -0.0985 0.0257 -0.1083
v -0.1017 0.4018 -0.1057
v -0.0201 0.3860 0.1268
v -0.0495 0.3137 0.1267
v -0.0171 0.2944 0.1267
v -0.0470 0.3811 0.1270
v -0.0174 0.1962 0.1270
v -0.0468 0.2447 0.1270
v -0.0410 0.1521 0.1274
v -0.0197 0.0661 0.1270
v -0.0491 0.0676 0.1268
v -0.0506 0.0253 0.1272
v -0.0078 0.0259 0.1252
v -0.0569 0.1198 0.1253
v -0.0648 0.2341 0.1233
v -0.0704 0.3934 0.1216
v -0.0751 0.3374 0.1197
v -0.0788 0.0257 0.1191
v -0.0802 0.1258 0.1174
v -0.0842 0.0553 0.1158
v -0.0784 0.2111 0.1183
v -0.0974 0.2691 0.1095
v -0.0995 0.3858 0.1091
v -0.1042 0.3355 0.1060
v -0.1036 0.1100 0.1062
v -0.1013 0.0262 0.1073
v -0.1030 0.1773 0.1063
v 0.0032 0.1168 0.1223
v 0.0009 0.3419 0.1224
v 0.0040 0.2670 0.1217
v 0.0046 0.1944 0.1216
v 0.0116 0.0720 0.1196
v 0.0182 0.3885 0.1165
v 0.0150 0.0252 0.1176
v 0.0285 0.3161 0.1115
v 0.0236 0.2524 0.1140
v 0.0270 0.1953 0.1128
v 0.0289 0.1359 0.1115
v 0.0303 0.0881 0.1109
v 0.0279 0.0264 0.1117
v -0.0579 0.0016 0.1172
v -0.0717 0.0094 0.1092
v -0.0598 0.0098 0.1130
v -0.0801 0.0023 0.1109
v -0.0336 0.0095 0.1183
v -0.0270 0.0019 0.1207
v -0.0027 0.0084 0.1142
v -0.0938 0.0043 0.1012
v 0.0015 0.0019 0.1153
v 0.0532 0.0019 0.0848
v 0.0309 0.0015 0.1036
v 0.0460 0.0078 0.0884
v 0.0646 0.0004 0.0728
v 0.0176 0.0075 0.1071
v 0.0613 0.0102 0.0650
v 0.0810 0.0020 0.0474
v 0.0756 0.0103 0.0441
v 0.0820 0.0102 0.0135
v -0.0460 0.0019 -0.1210
v -0.0358 0.0079 -0.1183
v -0.0756 0.0085 -0.1097
v -0.0955 0.0014 -0.1060
v -0.0014 0.0008 -0.1184
v -0.0059 0.0076 -0.1144
v 0.0716 0.0102 -0.0503
v 0.0579 0.0098 -0.0670
v 0.0706 0.0020 -0.0629
v 0.0571 0.0021 -0.0812
v 0.0376 0.0094 -0.0907
v 0.0350 0.0009 -0.1038
v 0.0845 0.0016 -0.0332
v 0.0816 0.0101 -0.0173
v 0.0913 0.0013 0.0009
v 0.0820 0.0102 0.0135
v 0.0885 0.0006 0.0439
v 0.0237 0.0141 -0.1221
v 0.0214 0.0038 -0.1216
v -0.0070 0.0213 -0.1309
v -0.0116 0.0018 -0.1302
v -0.0391 0.0064 -0.1341
v 0.0558 0.0105 -0.1010
v 0.0491 0.0225 -0.1032
v 0.0230 0.0223 -0.1196
v -0.0500 0.0226 -0.1314
v 0.0704 0.0222 -0.0823
v -0.0760 0.0050 -0.1266
v -0.0908 0.0221 -0.1201
v 0.0558 0.0105 -0.1010
v 0.0650 0.0008 -0.0859
v 0.0416 0.0010 -0.1062
v 0.0783 0.0049 -0.0750
v 0.0214 0.0038 -0.1216
v 0.0946 0.0253 -0.0183
v 0.0943 0.0259 0.0153
v 0.1009 0.0227 0.0076
v 0.0951 0.0222 0.0366
v 0.0883 0.0256 0.0433
v 0.0882 0.0228 0.0545
v 0.0748 0.0254 0.0705
v 0.0971 0.0224 -0.0271
v 0.0909 0.0220 -0.0494
v 0.0862 0.0254 -0.0483
v 0.0687 0.0253 -0.0770
v 0.0704 0.0222 -0.0823
v 0.0545 0.0255 -0.0916
v 0.0491 0.0225 -0.1032
v 0.0326 0.0254 -0.1089
v 0.0230 0.0223 -0.1196
v 0.0032 0.0256 -0.1219
v -0.0070 0.0213 -0.1309
v -0.0171 0.0253 -0.1268
v 0.0750 0.0223 0.0772
v 0.0607 0.0250 0.0874
v 0.0609 0.0215 0.0944
v 0.0502 0.0262 0.0970
v 0.0457 0.0219 0.1066
v 0.0279 0.0264 0.1117
v 0.0212 0.0217 0.1226
v 0.0150 0.0252 0.1176
v -0.0078 0.0259 0.1252
v -0.0268 0.0210 0.1341
v -0.0506 0.0253 0.1272
v 0.0157 0.2602 -0.1176
v 0.0118 0.2084 -0.1195
v -0.0130 0.2776 -0.1269
v 0.0112 0.3101 -0.1195
v -0.0111 0.1912 -0.1259
v 0.0115 0.1397 -0.1194
v -0.0202 0.1321 -0.1273
v -0.0216 0.3284 -0.1277
v -0.0051 0.0930 -0.1247
v 0.0052 0.3791 -0.1224
v 0.0134 0.0543 -0.1185
v -0.0171 0.0253 -0.1268
v 0.0032 0.0256 -0.1219
v -0.0188 0.3915 -0.1270
v 0.0005 0.4135 -0.1222
v 0.0266 0.4044 -0.1122
v 0.0326 0.0254 -0.1089
v 0.0322 0.3310 -0.1095
v 0.0379 0.2597 -0.1052
v 0.0347 0.2000 -0.1073
v 0.0350 0.1207 -0.1075
v 0.0315 0.0602 -0.1092
v 0.0460 0.0454 -0.0997
v 0.0462 0.3973 -0.0992
v 0.0498 0.3416 -0.0970
v 0.0497 0.1325 -0.0964
v 0.0523 0.2856 -0.0943
v 0.0514 0.2279 -0.0949
v 0.0520 0.1883 -0.0947
v -0.0386 0.2082 -0.1279
v -0.0451 0.3106 -0.1275
v -0.0444 0.0749 -0.1274
v -0.0469 0.3870 -0.1274
v -0.0542 0.0259 -0.1256
v 0.0882 0.0228 0.0545
v 0.0750 0.0223 0.0772
v 0.0792 0.0034 0.0723
v 0.0929 0.0082 0.0486
v 0.0658 0.0045 0.0910
v 0.0609 0.0215 0.0944
v 0.0951 0.0222 0.0366
v 0.1010 0.0042 0.0174
v 0.1009 0.0227 0.0076
v 0.0324 0.0074 0.1178
v 0.0457 0.0219 0.1066
v 0.0212 0.0217 0.1226
v 0.0885 0.0006 0.0439
v 0.0727 0.3532 0.0712
v 0.0531 0.3308 0.0942
v 0.0726 0.2886 0.0719
v 0.0543 0.2645 0.0930
v 0.0733 0.2226 0.0711
v 0.0637 0.1833 0.0840
v 0.0692 0.3891 0.0764
v 0.0818 0.1701 0.0590
v 0.0803 0.1317 0.0609
v 0.0649 0.0971 0.0821
v 0.0757 0.0798 0.0680
v 0.0808 0.0575 0.0599
v 0.0607 0.0250 0.0874
v 0.0748 0.0254 0.0705
v 0.0825 0.3054 0.0549
v 0.0843 0.3831 0.0507
v 0.0768 0.4080 0.0636
v 0.0836 0.2181 0.0536
v 0.0836 0.2727 0.0534
v 0.0480 0.4176 0.0979
v 0.0429 0.3703 0.1023
v 0.0536 0.2054 0.0939
v 0.0501 0.1449 0.0969
v 0.0517 0.0832 0.0952
v 0.0502 0.0262 0.0970
v 0.0883 0.0256 0.0433
v 0.0388 0.2381 0.1052
v 0.0285 0.3161 0.1115
v 0.0303 0.0881 0.1109
v 0.0289 0.1359 0.1115
v 0.0270 0.1953 0.1128
v 0.0279 0.0264 0.1117
v 0.0182 0.3885 0.1165
v 0.0236 0.2524 0.1140
v 0.0928 0.3953 0.0277
v 0.0912 0.3713 0.0317
v 0.0899 0.1228 0.0366
v 0.0894 0.0528 0.0380
v 0.0895 0.1814 0.0391
v 0.0900 0.2547 0.0355
v 0.0900 0.3093 0.0330
v 0.0917 0.3976 -0.0255
v 0.0927 0.3968 0.0159
v 0.0938 0.3239 0.0039
v 0.0936 0.2648 0.0123
v 0.0931 0.2538 -0.0183
v 0.0908 0.3195 -0.0329
v 0.0917 0.3747 -0.0293
v 0.0946 0.2193 0.0116
v 0.0942 0.1986 -0.0163
v 0.0948 0.1699 0.0125
v 0.0943 0.1195 -0.0147
v 0.0942 0.0993 0.0162
v 0.0942 0.0902 -0.0152
v 0.0943 0.0259 0.0153
v 0.0946 0.0253 -0.0183
v 0.0912 0.3713 0.0317
v 0.0928 0.3953 0.0277
v 0.0900 0.3093 0.0330
v 0.0900 0.2547 0.0355
v 0.0895 0.1814 0.0391
v 0.0899 0.1228 0.0366
v 0.0894 0.0528 0.0380
v 0.0883 0.0256 0.0433
v 0.0886 0.2570 -0.0409
v 0.0873 0.2153 -0.0454
v 0.0898 0.0785 -0.0350
v 0.0899 0.1565 -0.0340
v 0.0862 0.0254 -0.0483
v 0.1602 0.2097 -0.0295
v 0.1610 0.2104 0.0306
v 0.1547 0.2110 0.0038
v 0.1495 0.2163 -0.0336
v 0.1469 0.2198 0.0330
v 0.1530 0.2194 0.0404
v 0.1474 0.2290 -0.0391
v 0.1602 0.2179 -0.0368
v 0.1495 0.2163 -0.0336
v 0.1602 0.2097 -0.0295
v 0.0909 0.0220 -0.0494
v 0.1000 0.0071 -0.0200
v 0.0923 0.0075 -0.0508
v 0.0971 0.0224 -0.0271
v 0.1009 0.0227 0.0076
v 0.1010 0.0042 0.0174
v 0.0783 0.0049 -0.0750
v 0.0704 0.0222 -0.0823
v 0.0558 0.0105 -0.1010
v 0.0977 0.0015 -0.0160
v 0.0878 0.0007 -0.0493
v 0.0650 0.0008 -0.0859
v 0.0686 0.3452 -0.0772
v 0.0810 0.3373 -0.0577
v 0.0747 0.2946 -0.0680
v 0.0782 0.3845 -0.0628
v 0.0640 0.3870 -0.0820
v 0.0708 0.4077 -0.0709
v 0.0635 0.3079 -0.0833
v 0.0812 0.1838 -0.0585
v 0.0660 0.1361 -0.0795
v 0.0639 0.2124 -0.0825
v 0.0757 0.2320 -0.0668
v 0.0759 0.1333 -0.0668
v 0.0688 0.0940 -0.0764
v 0.0829 0.1127 -0.0538
v 0.0814 0.0548 -0.0576
v 0.0687 0.0253 -0.0770
v 0.0862 0.0254 -0.0483
v 0.0873 0.2153 -0.0454
v 0.0886 0.2570 -0.0409
v 0.0878 0.3031 -0.0418
v 0.0898 0.0785 -0.0350
v 0.0899 0.1565 -0.0340
v 0.0917 0.3747 -0.0293
v 0.0908 0.3195 -0.0329
v 0.0917 0.3976 -0.0255
v 0.0498 0.3416 -0.0970
v 0.0462 0.3973 -0.0992
v 0.0520 0.1883 -0.0947
v 0.0460 0.0454 -0.0997
v 0.0497 0.1325 -0.0964
v 0.0514 0.2279 -0.0949
v 0.0523 0.2856 -0.0943
v 0.0545 0.0255 -0.0916
v 0.0326 0.0254 -0.1089
v 0.1346 0.3650 0.0368
v 0.1414 0.3016 0.0401
v 0.1463 0.3044 0.0361
v 0.1298 0.3665 0.0402
v 0.1293 0.3979 0.0353
v 0.1527 0.2752 0.0368
v 0.1228 0.4068 0.0405
v 0.1530 0.2194 0.0404
v 0.1589 0.2445 0.0367
v 0.1647 0.2202 0.0357
v 0.1610 0.2104 0.0306
v 0.1659 0.2143 -0.0297
v 0.1610 0.2104 0.0306
v 0.1602 0.2097 -0.0295
v 0.1647 0.2202 0.0357
v 0.1298 0.3665 0.0402
v 0.1147 0.3857 0.0387
v 0.1185 0.3665 0.0388
v 0.1414 0.3016 0.0401
v 0.1228 0.4068 0.0405
v 0.1349 0.2940 0.0393
v 0.1530 0.2194 0.0404
v 0.1215 0.3312 0.0355
v 0.1374 0.2607 0.0356
v 0.1288 0.3028 0.0352
v 0.1469 0.2198 0.0330
v 0.1158 0.3670 0.0346
v 0.1130 0.3908 0.0000
v 0.1106 0.4002 -0.0276
v 0.1129 0.3912 -0.0353
v 0.1172 0.3615 -0.0370
v 0.1158 0.3670 0.0346
v 0.1218 0.3309 0.0000
v 0.1221 0.3310 -0.0338
v 0.1215 0.3312 0.0355
v 0.1288 0.3028 0.0352
v 0.1356 0.2688 -0.0345
v 0.1453 0.2227 -0.0003
v 0.1374 0.2607 0.0356
v 0.1450 0.2230 -0.0264
v 0.1278 0.3108 -0.0374
v 0.1469 0.2198 0.0330
v 0.1147 0.3857 0.0387
v 0.1080 0.3976 0.0292
v 0.1474 0.2290 -0.0391
v 0.1495 0.2163 -0.0336
v 0.1113 0.4044 0.0373
v 0.1547 0.2110 0.0038
v 0.1226 0.3413 -0.0383
v 0.1346 0.3650 0.0368
v 0.1463 0.3044 0.0361
v 0.1397 0.3322 -0.0016
v 0.1382 0.3416 -0.0348
v 0.1305 0.3876 -0.0355
v 0.1270 0.4150 0.0017
v 0.1293 0.3979 0.0353
v 0.1419 0.3239 -0.0220
v 0.1527 0.2752 0.0368
v 0.1534 0.2723 -0.0351
v 0.1625 0.2292 -0.0027
v 0.1589 0.2445 0.0367
v 0.1647 0.2202 0.0357
v 0.1603 0.2356 -0.0369
v 0.1659 0.2143 -0.0297
v 0.1445 0.3085 -0.0367
v 0.1133 0.4089 -0.0373
v 0.1305 0.3876 -0.0355
v 0.1251 0.3708 -0.0402
v 0.1382 0.3416 -0.0348
v 0.1344 0.3259 -0.0396
v 0.1226 0.3413 -0.0383
v 0.1172 0.3615 -0.0370
v 0.1129 0.3912 -0.0353
v 0.1445 0.3085 -0.0367
v 0.1278 0.3108 -0.0374
v 0.1423 0.2754 -0.0399
v 0.1356 0.2688 -0.0345
v 0.1474 0.2290 -0.0391
v 0.1603 0.2356 -0.0369
v 0.1602 0.2179 -0.0368
v 0.1659 0.2143 -0.0297
v 0.1602 0.2097 -0.0295
v 0.1534 0.2723 -0.0351
vt 0.84670 0.79837
vt 0.85528 0.78322
vt 0.85386 0.80410
vt 0.84546 0.77686
vt 0.85486 0.75403
vt 0.84680 0.75199
vt 0.84534 0.82471
vt 0.84352 0.72412
vt 0.85275 0.70299
vt 0.85583 0.72945
vt 0.84223 0.70260
vt 0.84449 0.68803
vt 0.85583 0.69648
vt 0.85221 0.67334
vt 0.88149 0.55570
vt 0.87462 0.56858
vt 0.87743 0.55356
vt 0.89563 0.52686
vt 0.88917 0.52981
vt 0.86590 0.62622
vt 0.87164 0.61292
vt 0.87225 0.62963
vt 0.86635 0.60541
vt 0.87216 0.60008
vt 0.87395 0.58593
vt 0.86891 0.57649
vt 0.87627 0.65159
vt 0.86262 0.64797
vt 0.87571 0.66198
vt 0.88484 0.67864
vt 0.88127 0.68372
vt 0.89361 0.69705
vt 0.89563 0.70654
vt 0.04029 0.01025
vt 0.02407 0.02100
vt 0.00901 0.01025
vt 0.00146 0.01953
vt 0.48520 0.97227
vt 0.46764 0.97173
vt 0.48273 0.97705
vt 0.50667 0.97118
vt 0.50257 0.96863
vt 0.51773 0.96398
vt 0.52704 0.96483
vt 0.53418 0.95595
vt 0.54903 0.95068
vt 0.45512 0.97415
vt 0.44798 0.96813
vt 0.43769 0.96568
vt 0.43458 0.96835
vt 0.40825 0.95068
vt 0.42036 0.96510
vt 0.71677 0.88392
vt 0.71626 0.82089
vt 0.69953 0.83742
vt 0.69941 0.75312
vt 0.69794 0.79336
vt 0.72091 0.76866
vt 0.71938 0.74077
vt 0.69946 0.70645
vt 0.69986 0.65649
vt 0.71805 0.69197
vt 0.71991 0.65685
vt 0.70135 0.88917
vt 0.68712 0.87375
vt 0.68322 0.73016
vt 0.68537 0.67329
vt 0.68226 0.65576
vt 0.67656 0.82115
vt 0.67654 0.77982
vt 0.67219 0.89264
vt 0.66614 0.85100
vt 0.66599 0.70923
vt 0.66449 0.65655
vt 0.66559 0.75155
vt 0.66146 0.80925
vt 0.66258 0.88262
vt 0.73570 0.84895
vt 0.72999 0.89588
vt 0.73844 0.80822
vt 0.73667 0.67623
vt 0.73710 0.70540
vt 0.73856 0.76207
vt 0.73051 0.65619
vt 0.74543 0.88597
vt 0.76363 0.65576
vt 0.75555 0.69143
vt 0.75290 0.74523
vt 0.75697 0.79434
vt 0.75795 0.87972
vt 0.76194 0.83271
vt 0.85219 0.28995
vt 0.84952 0.32170
vt 0.84670 0.29213
vt 0.85299 0.32196
vt 0.85909 0.26317
vt 0.85071 0.26790
vt 0.85965 0.24877
vt 0.87167 0.23847
vt 0.87237 0.24280
vt 0.88673 0.22635
vt 0.88883 0.23181
vt 0.90154 0.22539
vt 0.91172 0.21607
vt 0.92134 0.21985
vt 0.93338 0.21338
vt 0.94317 0.21907
vt 0.95441 0.21458
vt 0.96942 0.22549
vt 0.84757 0.32940
vt 0.85209 0.34017
vt 0.86299 0.34821
vt 0.86414 0.35997
vt 0.87064 0.35830
vt 0.87770 0.37246
vt 0.88558 0.37058
vt 0.92247 0.38424
vt 0.90700 0.38941
vt 0.93949 0.39014
vt 0.94448 0.38613
vt 0.95425 0.38963
vt 0.96942 0.38074
vt 0.88514 0.38064
vt 0.84320 0.30694
vt 0.84363 0.28373
vt 0.66529 0.49259
vt 0.65536 0.48418
vt 0.66553 0.46945
vt 0.66223 0.50260
vt 0.65357 0.46634
vt 0.66423 0.45782
vt 0.65345 0.50083
vt 0.65276 0.44452
vt 0.66362 0.43408
vt 0.65034 0.51700
vt 0.66381 0.52195
vt 0.65449 0.53564
vt 0.64946 0.48660
vt 0.66553 0.51102
vt 0.64903 0.50775
vt 0.86692 0.49063
vt 0.86262 0.46232
vt 0.86959 0.48642
vt 0.86705 0.46953
vt 0.86805 0.45433
vt 0.87913 0.50970
vt 0.86673 0.43947
vt 0.87201 0.43724
vt 0.87908 0.42139
vt 0.87908 0.51709
vt 0.80299 0.65989
vt 0.80591 0.72726
vt 0.79686 0.68792
vt 0.78608 0.72396
vt 0.79522 0.74236
vt 0.80280 0.77480
vt 0.78166 0.78546
vt 0.78227 0.64601
vt 0.80152 0.82577
vt 0.78203 0.83241
vt 0.80007 0.63178
vt 0.80683 0.85814
vt 0.78593 0.85831
vt 0.77673 0.85889
vt 0.77762 0.59642
vt 0.77536 0.68214
vt 0.77115 0.63525
vt 0.80178 0.61902
vt 0.77041 0.72044
vt 0.76905 0.82319
vt 0.76637 0.76948
vt 0.81760 0.62814
vt 0.82089 0.68941
vt 0.82209 0.79099
vt 0.82299 0.85798
vt 0.82274 0.74283
vt 0.83475 0.64005
vt 0.83597 0.62200
vt 0.83651 0.81415
vt 0.83551 0.71987
vt 0.83771 0.77196
vt 0.83699 0.68337
vt 0.83932 0.85806
vt 0.85888 0.91967
vt 0.87049 0.88136
vt 0.88873 0.91041
vt 0.90924 0.88033
vt 0.92191 0.95673
vt 0.87884 0.96422
vt 0.93824 0.92414
vt 0.93100 0.86488
vt 0.83548 0.94802
vt 0.89252 0.85284
vt 0.96101 0.91045
vt 0.91122 0.85580
vt 0.82968 0.89465
vt 0.85217 0.87268
vt 0.82354 0.91036
vt 0.84615 0.97511
vt 0.90111 0.98263
vt 0.87567 0.99348
vt 0.85749 0.98625
vt 0.89465 0.99658
vt 0.91600 0.99387
vt 0.92774 0.98718
vt 0.94446 0.97708
vt 0.96303 0.93947
vt 0.86780 0.85639
vt 0.83318 0.88766
vt 0.95725 0.88372
vt 0.94236 0.86824
vt 0.82267 0.93005
vt 0.96815 0.90863
vt 0.85226 0.86333
vt 0.96379 0.95268
vt 0.83322 0.96318
vt 0.96942 0.93443
vt 0.82465 0.94352
vt 0.83977 0.87389
vt 0.84385 0.86107
vt 0.83296 0.87071
vt 0.83170 0.88121
vt 0.82442 0.88073
vt 0.82481 0.89440
vt 0.81606 0.89580
vt 0.81855 0.91351
vt 0.81117 0.91836
vt 0.81850 0.93225
vt 0.81531 0.94738
vt 0.82245 0.95228
vt 0.82333 0.96693
vt 0.83200 0.96858
vt 0.83836 0.97727
vt 0.82634 0.97656
vt 0.83708 0.98700
vt 0.85458 0.99558
vt 0.85319 0.99024
vt 0.92801 0.85314
vt 0.96942 0.89511
vt 0.95501 0.87095
vt 0.94561 0.86200
vt 0.86703 0.85035
vt 0.88928 0.84717
vt 0.60327 0.49424
vt 0.58234 0.49103
vt 0.59839 0.53345
vt 0.61825 0.53992
vt 0.61972 0.57418
vt 0.64080 0.60044
vt 0.66161 0.68198
vt 0.63199 0.62187
vt 0.65150 0.68272
vt 0.66456 0.71336
vt 0.64945 0.71826
vt 0.60713 0.58681
vt 0.62800 0.65551
vt 0.56881 0.51385
vt 0.58350 0.55481
vt 0.60965 0.63980
vt 0.59251 0.59035
vt 0.62047 0.68075
vt 0.63583 0.72217
vt 0.56504 0.49611
vt 0.77847 0.24950
vt 0.80047 0.29315
vt 0.78119 0.30683
vt 0.79545 0.25122
vt 0.78639 0.36825
vt 0.80228 0.33641
vt 0.80340 0.39465
vt 0.79445 0.44958
vt 0.81282 0.44715
vt 0.81587 0.47358
vt 0.78904 0.47536
vt 0.81508 0.41408
vt 0.81432 0.34209
vt 0.80974 0.24223
vt 0.81580 0.27694
vt 0.83416 0.47181
vt 0.83016 0.40905
vt 0.83652 0.45295
vt 0.82454 0.35573
vt 0.83463 0.31838
vt 0.82985 0.24533
vt 0.83599 0.27648
vt 0.84722 0.41756
vt 0.85000 0.47015
vt 0.84340 0.37548
vt 0.77726 0.41902
vt 0.76727 0.27810
vt 0.76904 0.32504
vt 0.77233 0.37051
vt 0.77408 0.44755
vt 0.75364 0.24986
vt 0.77403 0.47705
vt 0.75003 0.29566
vt 0.75660 0.33525
vt 0.75724 0.37117
vt 0.75886 0.40852
vt 0.76035 0.43854
vt 0.76505 0.47705
vt 0.59067 0.81213
vt 0.59889 0.80451
vt 0.59668 0.81201
vt 0.59543 0.79840
vt 0.59183 0.82817
vt 0.58592 0.83117
vt 0.58777 0.84743
vt 0.60146 0.78955
vt 0.58314 0.84924
vt 0.58229 0.88736
vt 0.58107 0.86903
vt 0.58598 0.88226
vt 0.58244 0.89781
vt 0.58580 0.86086
vt 0.59057 0.89932
vt 0.58697 0.91638
vt 0.59348 0.91502
vt 0.60146 0.93311
vt 0.64590 0.55416
vt 0.64705 0.54660
vt 0.66061 0.56846
vt 0.66359 0.58154
vt 0.63416 0.52857
vt 0.63996 0.52901
vt 0.64121 0.46535
vt 0.63902 0.47871
vt 0.63333 0.47079
vt 0.63080 0.48481
vt 0.63636 0.49812
vt 0.62864 0.50456
vt 0.63911 0.45102
vt 0.64911 0.44515
vt 0.64820 0.43108
vt 0.65945 0.42871
vt 0.66359 0.40869
vt 0.91394 0.63479
vt 0.90751 0.63361
vt 0.91863 0.61487
vt 0.90631 0.61212
vt 0.90912 0.59462
vt 0.91177 0.65881
vt 0.91939 0.65452
vt 0.91929 0.63509
vt 0.91945 0.58773
vt 0.91990 0.67334
vt 0.90879 0.57078
vt 0.91990 0.56104
vt 0.97233 0.76782
vt 0.98010 0.77861
vt 0.98010 0.75888
vt 0.97736 0.78955
vt 0.97906 0.74268
vt 0.88891 0.16049
vt 0.86796 0.16234
vt 0.87318 0.16650
vt 0.85475 0.16538
vt 0.85004 0.16105
vt 0.84304 0.16270
vt 0.83179 0.15574
vt 0.89467 0.16223
vt 0.90837 0.15755
vt 0.90731 0.15396
vt 0.92515 0.14273
vt 0.92881 0.14435
vt 0.93452 0.13394
vt 0.94225 0.13114
vt 0.94598 0.12064
vt 0.95354 0.11534
vt 0.95553 0.10272
vt 0.96262 0.09724
vt 0.96014 0.09033
vt 0.82748 0.15732
vt 0.81947 0.14950
vt 0.81489 0.15130
vt 0.81222 0.14418
vt 0.80507 0.14388
vt 0.79950 0.13328
vt 0.79100 0.13202
vt 0.79311 0.12693
vt 0.78408 0.11473
vt 0.77353 0.10627
vt 0.77233 0.09033
vt 0.56923 0.19682
vt 0.60203 0.19465
vt 0.55862 0.17744
vt 0.53779 0.19317
vt 0.61310 0.17976
vt 0.64540 0.19528
vt 0.65057 0.17467
vt 0.52663 0.17154
vt 0.67506 0.18474
vt 0.49434 0.18815
vt 0.69926 0.19756
vt 0.71792 0.17786
vt 0.71754 0.19108
vt 0.48678 0.17264
vt 0.47266 0.18502
vt 0.47807 0.20283
vt 0.71731 0.21142
vt 0.52434 0.20760
vt 0.56928 0.21269
vt 0.60704 0.21099
vt 0.65709 0.21208
vt 0.69534 0.21029
vt 0.70448 0.22110
vt 0.48228 0.21739
vt 0.51744 0.22062
vt 0.64944 0.22302
vt 0.55271 0.22332
vt 0.58919 0.22327
vt 0.61420 0.22412
vt 0.60268 0.16266
vt 0.53814 0.15766
vt 0.68694 0.16076
vt 0.48993 0.15576
vt 0.71796 0.15576
vt 0.78398 0.89922
vt 0.78358 0.91573
vt 0.77140 0.91168
vt 0.77456 0.89471
vt 0.77208 0.92614
vt 0.78310 0.92971
vt 0.78356 0.88716
vt 0.77194 0.87464
vt 0.78386 0.86865
vt 0.77435 0.95310
vt 0.78356 0.94203
vt 0.78386 0.96045
vt 0.76845 0.89294
vt 0.70161 0.37112
vt 0.72004 0.38602
vt 0.70015 0.41167
vt 0.71711 0.42767
vt 0.69760 0.45318
vt 0.70663 0.47837
vt 0.70654 0.34884
vt 0.68674 0.48584
vt 0.68714 0.51010
vt 0.70273 0.53267
vt 0.69098 0.54304
vt 0.68431 0.55682
vt 0.70494 0.57833
vt 0.69102 0.57747
vt 0.68823 0.40056
vt 0.68772 0.35174
vt 0.69781 0.33662
vt 0.68461 0.45543
vt 0.68614 0.42107
vt 0.72630 0.33180
vt 0.72924 0.36163
vt 0.71620 0.46486
vt 0.71738 0.50308
vt 0.71415 0.54193
vt 0.71400 0.57800
vt 0.67183 0.57642
vt 0.72885 0.44478
vt 0.73858 0.39606
vt 0.73110 0.53964
vt 0.73340 0.50953
vt 0.73653 0.47213
vt 0.73087 0.57861
vt 0.74767 0.35096
vt 0.74030 0.43627
vt 0.67267 0.34328
vt 0.67459 0.35849
vt 0.67037 0.51493
vt 0.66929 0.55909
vt 0.67362 0.47809
vt 0.67357 0.43182
vt 0.67375 0.39744
vt 0.52471 0.14124
vt 0.52539 0.11524
vt 0.57077 0.12308
vt 0.60770 0.11804
vt 0.61438 0.13730
vt 0.57334 0.14628
vt 0.53895 0.14372
vt 0.63601 0.11868
vt 0.64877 0.13624
vt 0.66676 0.11832
vt 0.69805 0.13558
vt 0.71076 0.11626
vt 0.71633 0.13601
vt 0.75650 0.11712
vt 0.75680 0.13818
vt 0.54135 0.10544
vt 0.52634 0.10790
vt 0.58000 0.10474
vt 0.61403 0.10337
vt 0.65972 0.10126
vt 0.69621 0.10309
vt 0.73981 0.10242
vt 0.75680 0.09912
vt 0.61232 0.15176
vt 0.63826 0.15491
vt 0.72355 0.14878
vt 0.67497 0.14784
vt 0.75655 0.15771
vt 0.76576 0.48913
vt 0.80433 0.49170
vt 0.78728 0.48715
vt 0.76359 0.48096
vt 0.80656 0.48096
vt 0.81117 0.48458
vt 0.79175 0.03467
vt 0.80300 0.03467
vt 0.79862 0.04053
vt 0.80728 0.04022
vt 0.65672 0.08110
vt 0.67536 0.07016
vt 0.65579 0.07156
vt 0.67120 0.08052
vt 0.69312 0.07939
vt 0.69854 0.06689
vt 0.63836 0.07061
vt 0.63242 0.08252
vt 0.61699 0.07587
vt 0.67740 0.06592
vt 0.65539 0.06619
vt 0.62807 0.06592
vt 0.11173 0.13623
vt 0.11633 0.15093
vt 0.14315 0.14381
vt 0.08707 0.14663
vt 0.08573 0.13158
vt 0.07270 0.13957
vt 0.13507 0.13168
vt 0.21226 0.15247
vt 0.24237 0.13666
vt 0.19476 0.13342
vt 0.18226 0.14559
vt 0.24389 0.14686
vt 0.26864 0.13984
vt 0.25659 0.15643
vt 0.29282 0.15459
vt 0.31157 0.14034
vt 0.31111 0.16152
vt 0.19240 0.16114
vt 0.16630 0.16352
vt 0.13749 0.16221
vt 0.27775 0.16949
vt 0.22902 0.16917
vt 0.09260 0.16950
vt 0.12709 0.16792
vt 0.07824 0.17139
vt 0.11429 0.11907
vt 0.07950 0.11594
vt 0.21003 0.12297
vt 0.29938 0.11981
vt 0.24490 0.12188
vt 0.18528 0.12210
vt 0.14919 0.12210
vt 0.31171 0.12745
vt 0.31214 0.10986
vt 0.74640 0.97490
vt 0.70620 0.97926
vt 0.70733 0.97459
vt 0.74793 0.97875
vt 0.76750 0.97370
vt 0.68843 0.97437
vt 0.77381 0.97845
vt 0.65370 0.98193
vt 0.66859 0.97422
vt 0.65284 0.97314
vt 0.64709 0.97459
vt 0.42656 0.05322
vt 0.38866 0.06006
vt 0.42670 0.05795
vt 0.38495 0.05322
vt 0.75137 0.53855
vt 0.74351 0.55189
vt 0.74421 0.53957
vt 0.75287 0.49708
vt 0.75054 0.56427
vt 0.74808 0.49289
vt 0.75291 0.44482
vt 0.74220 0.51728
vt 0.74586 0.47188
vt 0.74389 0.49885
vt 0.74686 0.44543
vt 0.74109 0.54004
vt 0.63151 0.81955
vt 0.64906 0.81471
vt 0.65341 0.82085
vt 0.65309 0.83971
vt 0.60902 0.83302
vt 0.62883 0.85748
vt 0.64977 0.85887
vt 0.60691 0.85563
vt 0.60584 0.87404
vt 0.64749 0.89877
vt 0.62425 0.92674
vt 0.60368 0.90091
vt 0.64041 0.92763
vt 0.65112 0.87213
vt 0.60350 0.92731
vt 0.60730 0.82113
vt 0.61375 0.81310
vt 0.64886 0.92499
vt 0.64471 0.93283
vt 0.60807 0.80935
vt 0.62113 0.93604
vt 0.65341 0.85287
vt 0.92173 0.67725
vt 0.92222 0.63849
vt 0.94605 0.65648
vt 0.96711 0.66242
vt 0.96750 0.69177
vt 0.94391 0.70905
vt 0.92269 0.69820
vt 0.95900 0.65106
vt 0.92176 0.61971
vt 0.96727 0.61787
vt 0.94675 0.59016
vt 0.92179 0.60002
vt 0.92247 0.58437
vt 0.96845 0.59436
vt 0.96386 0.58057
vt 0.96835 0.64126
vt 0.26951 0.10426
vt 0.25473 0.09569
vt 0.24480 0.10130
vt 0.22569 0.09475
vt 0.21635 0.09947
vt 0.22683 0.10552
vt 0.23974 0.10736
vt 0.25863 0.10744
vt 0.20472 0.09449
vt 0.20763 0.10502
vt 0.18457 0.09906
vt 0.18105 0.10482
vt 0.15564 0.09981
vt 0.15854 0.09117
vt 0.14772 0.09274
vt 0.14469 0.08740
vt 0.14126 0.09047
vt 0.18177 0.09175
usemtl marker_smoke
s 1
f 8/8 9/9 10/10
f 8/8 11/11 9/9
f 11/11 12/12 9/9
f 13/13 9/9 12/12
f 14/14 13/13 12/12
f 6/6 10/10 5/5
f 6/6 8/8 10/10
f 4/4 5/5 2/2
f 4/4 6/6 5/5
f 1/1 2/2 3/3
f 2/2 1/1 4/4
f 7/7 1/1 3/3
f 18/18 17/17 19/19
f 25/25 26/26 16/16
f 26/26 17/17 16/16
f 25/25 23/23 26/26
f 23/23 25/25 24/24
f 15/15 16/16 17/17
f 17/17 18/18 15/15
f 21/21 23/23 24/24
f 21/21 20/20 23/23
f 20/20 21/21 22/22
f 27/27 20/20 22/22
f 20/20 27/27 28/28
f 29/29 28/28 27/27
f 34/34 35/35 36/36
f 29/29 27/27 30/30
f 31/31 29/29 30/30
f 36/36 35/35 37/37
f 32/32 31/31 30/30
f 33/33 31/31 32/32
f 49/49 47/47 48/48
f 49/49 50/50 47/47
f 50/50 51/51 52/52
f 51/51 50/50 49/49
f 38/38 40/40 41/41
f 39/39 47/47 40/40
f 38/38 39/39 40/40
f 42/42 38/38 41/41
f 48/48 47/47 39/39
f 43/43 42/42 41/41
f 44/44 43/43 41/41
f 45/45 43/43 44/44
f 46/46 45/45 44/44
f 81/81 84/84 63/63
f 81/81 63/63 62/62
f 82/82 81/81 62/62
f 81/81 86/86 84/84
f 86/86 81/81 87/87
f 82/82 87/87 81/81
f 82/82 62/62 59/59
f 83/83 82/82 59/59
f 88/88 82/82 83/83
f 88/88 87/87 82/82
f 83/83 59/59 58/58
f 80/80 58/58 54/54
f 83/83 58/58 80/80
f 89/89 88/88 83/83
f 89/89 83/83 80/80
f 78/78 80/80 54/54
f 89/89 80/80 78/78
f 91/91 89/89 78/78
f 78/78 54/54 53/53
f 91/91 78/78 90/90
f 90/90 78/78 85/85
f 78/78 53/53 79/79
f 85/85 78/78 79/79
f 67/67 61/61 68/68
f 67/67 60/60 61/61
f 67/67 68/68 74/74
f 73/73 67/67 74/74
f 60/60 67/67 66/66
f 73/73 66/66 67/67
f 62/62 61/61 60/60
f 61/61 62/62 63/63
f 75/75 66/66 73/73
f 56/56 60/60 66/66
f 59/59 62/62 60/60
f 56/56 59/59 60/60
f 56/56 58/58 59/59
f 57/57 66/66 70/70
f 57/57 56/56 66/66
f 70/70 66/66 75/75
f 76/76 70/70 75/75
f 57/57 70/70 69/69
f 76/76 69/69 70/70
f 55/55 57/57 69/69
f 54/54 56/56 57/57
f 54/54 58/58 56/56
f 72/72 69/69 76/76
f 69/69 65/65 55/55
f 65/65 69/69 72/72
f 65/65 72/72 71/71
f 71/71 72/72 77/77
f 54/54 57/57 55/55
f 53/53 54/54 55/55
f 64/64 55/55 65/65
f 64/64 53/53 55/55
f 115/115 117/117 118/118
f 115/115 118/118 123/123
f 120/120 122/122 121/121
f 121/121 119/119 120/120
f 117/117 120/120 119/119
f 119/119 118/118 117/117
f 116/116 117/117 115/115
f 116/116 115/115 114/114
f 113/113 114/114 115/115
f 112/112 114/114 113/113
f 111/111 112/112 113/113
f 111/111 95/95 112/112
f 95/95 111/111 110/110
f 93/93 95/95 110/110
f 124/124 93/93 110/110
f 93/93 92/92 95/95
f 94/94 93/93 124/124
f 92/92 93/93 94/94
f 124/124 125/125 94/94
f 97/97 94/94 125/125
f 96/96 92/92 94/94
f 96/96 94/94 97/97
f 107/107 108/108 109/109
f 108/108 107/107 106/106
f 106/106 107/107 105/105
f 106/106 105/105 104/104
f 105/105 103/103 104/104
f 101/101 100/100 99/99
f 103/103 102/102 101/101
f 104/104 103/103 101/101
f 101/101 102/102 100/100
f 100/100 96/96 99/99
f 99/99 96/96 98/98
f 98/98 96/96 97/97
f 135/135 136/136 137/137
f 140/140 132/132 135/135
f 136/136 129/129 139/139
f 135/135 129/129 136/136
f 132/132 129/129 135/135
f 126/126 139/139 129/129
f 127/127 126/126 129/129
f 140/140 138/138 132/132
f 127/127 129/129 132/132
f 127/127 132/132 138/138
f 126/126 127/127 128/128
f 128/128 127/127 130/130
f 130/130 127/127 138/138
f 148/148 147/147 149/149
f 130/130 131/131 128/128
f 133/133 131/131 130/130
f 145/145 147/147 148/148
f 133/133 134/134 131/131
f 145/145 142/142 147/147
f 144/144 142/142 145/145
f 143/143 142/142 144/144
f 141/141 142/142 143/143
f 143/143 146/146 141/141
f 150/150 141/141 146/146
f 160/160 164/164 170/170
f 163/163 164/164 160/160
f 157/157 160/160 170/170
f 157/157 170/170 171/171
f 171/171 169/169 157/157
f 154/154 157/157 169/169
f 157/157 154/154 155/155
f 154/154 169/169 166/166
f 158/158 166/166 167/167
f 158/158 167/167 165/165
f 160/160 162/162 163/163
f 162/162 160/160 159/159
f 159/159 160/160 157/157
f 175/175 162/162 159/159
f 179/179 183/183 175/175
f 159/159 174/174 175/175
f 179/179 175/175 174/174
f 157/157 156/156 159/159
f 174/174 159/159 156/156
f 181/181 179/179 174/174
f 156/156 157/157 155/155
f 155/155 152/152 156/156
f 152/152 174/174 156/156
f 174/174 152/152 176/176
f 181/181 174/174 176/176
f 180/180 181/181 176/176
f 173/173 176/176 152/152
f 152/152 155/155 154/154
f 166/166 153/153 154/154
f 153/153 152/152 154/154
f 180/180 176/176 173/173
f 151/151 152/152 153/153
f 173/173 152/152 151/151
f 153/153 166/166 158/158
f 182/182 180/180 173/173
f 153/153 158/158 151/151
f 182/182 173/173 177/177
f 173/173 151/151 172/172
f 177/177 173/173 172/172
f 151/151 158/158 161/161
f 172/172 151/151 161/161
f 172/172 161/161 168/168
f 177/177 172/172 178/178
f 214/214 220/220 242/242
f 214/214 242/242 208/208
f 214/214 219/219 220/220
f 197/197 214/214 208/208
f 243/243 208/208 242/242
f 208/208 243/243 193/193
f 197/197 208/208 193/193
f 185/185 197/197 193/193
f 195/195 193/193 243/243
f 195/195 187/187 193/193
f 185/185 193/193 187/187
f 195/195 243/243 238/238
f 195/195 238/238 191/191
f 191/191 238/238 211/211
f 187/187 195/195 191/191
f 211/211 238/238 241/241
f 211/211 241/241 240/240
f 191/191 211/211 210/210
f 210/210 211/211 240/240
f 239/239 210/210 240/240
f 210/210 194/194 191/191
f 213/213 210/210 239/239
f 223/223 221/221 222/222
f 222/222 221/221 219/219
f 225/225 223/223 224/224
f 224/224 223/223 222/222
f 219/219 221/221 220/220
f 197/197 209/209 219/219
f 209/209 197/197 196/196
f 197/197 219/219 214/214
f 196/196 197/197 185/185
f 184/184 196/196 185/185
f 184/184 185/185 186/186
f 186/186 185/185 187/187
f 190/190 187/187 191/191
f 190/190 191/191 194/194
f 194/194 210/210 213/213
f 207/207 194/194 213/213
f 226/226 225/225 224/224
f 227/227 225/225 226/226
f 184/184 198/198 196/196
f 226/226 228/228 227/227
f 192/192 212/212 198/198
f 192/192 198/198 184/184
f 184/184 186/186 188/188
f 187/187 188/188 186/186
f 188/188 187/187 190/190
f 207/207 188/188 190/190
f 217/217 207/207 213/213
f 207/207 190/190 194/194
f 215/215 207/207 217/217
f 206/206 207/207 215/215
f 229/229 227/227 228/228
f 192/192 218/218 212/212
f 228/228 230/230 229/229
f 231/231 229/229 230/230
f 216/216 218/218 192/192
f 216/216 192/192 199/199
f 231/231 230/230 232/232
f 233/233 234/234 231/231
f 231/231 232/232 233/233
f 233/233 235/235 234/234
f 199/199 192/192 189/189
f 189/189 192/192 184/184
f 189/189 184/184 188/188
f 200/200 199/199 189/189
f 236/236 235/235 233/233
f 236/236 233/233 237/237
f 199/199 201/201 202/202
f 236/236 237/237 201/201
f 200/200 201/201 199/199
f 200/200 189/189 188/188
f 201/201 200/200 203/203
f 203/203 200/200 204/204
f 204/204 200/200 205/205
f 206/206 200/200 188/188
f 206/206 188/188 207/207
f 205/205 200/200 206/206
f 261/261 259/259 256/256
f 258/258 255/255 260/260
f 256/256 254/254 262/262
f 254/254 256/256 252/252
f 252/252 253/253 254/254
f 256/256 262/262 261/261
f 252/252 256/256 251/251
f 255/255 256/256 259/259
f 251/251 256/256 255/255
f 255/255 259/259 260/260
f 248/248 251/251 255/255
f 246/246 255/255 258/258
f 246/246 248/248 255/255
f 247/247 248/248 246/246
f 246/246 258/258 257/257
f 246/246 257/257 245/245
f 244/244 246/246 245/245
f 245/245 257/257 263/263
f 250/250 253/253 252/252
f 250/250 252/252 251/251
f 249/249 250/250 251/251
f 249/249 251/251 248/248
f 249/249 248/248 247/247
f 244/244 247/247 246/246
f 281/281 287/287 279/279
f 272/272 279/279 273/273
f 286/286 287/287 281/281
f 279/279 275/275 281/281
f 275/275 279/279 272/272
f 281/281 280/280 286/286
f 280/280 281/281 275/275
f 288/288 286/286 280/280
f 282/282 288/288 280/280
f 276/276 280/280 275/275
f 280/280 276/276 282/282
f 282/282 283/283 288/288
f 276/276 283/283 282/282
f 278/278 283/283 276/276
f 285/285 283/283 278/278
f 265/265 278/278 276/276
f 278/278 284/284 285/285
f 284/284 278/278 277/277
f 271/271 273/273 274/274
f 271/271 272/272 273/273
f 293/293 271/271 274/274
f 289/289 271/271 293/293
f 275/275 272/272 270/270
f 270/270 272/272 271/271
f 270/270 276/276 275/275
f 271/271 268/268 270/270
f 268/268 271/271 289/289
f 269/269 276/276 270/270
f 269/269 270/270 268/268
f 289/289 292/292 268/268
f 291/291 268/268 292/292
f 268/268 266/266 269/269
f 266/266 268/268 291/291
f 265/265 276/276 269/269
f 265/265 269/269 266/266
f 267/267 278/278 265/265
f 264/264 265/265 266/266
f 267/267 265/265 264/264
f 277/277 278/278 267/267
f 264/264 266/266 290/290
f 293/293 274/274 295/295
f 301/301 293/293 295/295
f 300/300 289/289 293/293
f 299/299 289/289 300/300
f 300/300 293/293 301/301
f 299/299 292/292 289/289
f 292/292 299/299 298/298
f 297/297 292/292 298/298
f 297/297 291/291 292/292
f 296/296 291/291 297/297
f 290/290 266/266 291/291
f 296/296 290/290 291/291
f 290/290 296/296 294/294
f 264/264 290/290 294/294
f 303/303 302/302 305/305
f 302/302 303/303 304/304
f 303/303 305/305 309/309
f 306/306 302/302 304/304
f 302/302 306/306 307/307
f 308/308 307/307 306/306
f 310/310 307/307 308/308
f 315/315 310/310 308/308
f 312/312 310/310 315/315
f 315/315 313/313 312/312
f 311/311 312/312 313/313
f 313/313 314/314 311/311
f 314/314 313/313 316/316
f 316/316 317/317 314/314
f 317/317 316/316 318/318
f 319/319 317/317 318/318
f 320/320 322/322 323/323
f 320/320 321/321 322/322
f 324/324 321/321 320/320
f 321/321 324/324 325/325
f 336/336 335/335 334/334
f 332/332 326/326 328/328
f 334/334 335/335 333/333
f 332/332 334/334 333/333
f 332/332 333/333 326/326
f 329/329 330/330 331/331
f 331/331 330/330 325/325
f 329/329 328/328 327/327
f 326/326 327/327 328/328
f 329/329 327/327 330/330
f 331/331 325/325 324/324
f 345/345 347/347 348/348
f 341/341 347/347 345/345
f 339/339 340/340 341/341
f 339/339 338/338 340/340
f 341/341 345/345 339/339
f 353/353 349/349 351/351
f 349/349 350/350 351/351
f 349/349 352/352 350/350
f 346/346 342/342 343/343
f 337/337 338/338 339/339
f 337/337 339/339 344/344
f 342/342 338/338 337/337
f 343/343 337/337 344/344
f 342/342 337/337 343/343
f 381/381 383/383 382/382
f 379/379 381/381 382/382
f 371/371 372/372 370/370
f 380/380 381/381 379/379
f 378/378 380/380 379/379
f 378/378 379/379 377/377
f 377/377 376/376 378/378
f 375/375 376/376 377/377
f 375/375 374/374 376/376
f 373/373 374/374 375/375
f 374/374 373/373 360/360
f 360/360 373/373 359/359
f 358/358 360/360 359/359
f 357/357 358/358 359/359
f 355/355 358/358 357/357
f 356/356 355/355 357/357
f 354/354 355/355 356/356
f 361/361 354/354 356/356
f 362/362 354/354 361/361
f 362/362 363/363 354/354
f 368/368 366/366 367/367
f 364/364 362/362 365/365
f 364/364 363/363 362/362
f 366/366 365/365 367/367
f 365/365 366/366 364/364
f 369/369 371/371 370/370
f 370/370 368/368 369/369
f 367/367 369/369 368/368
f 394/394 396/396 395/395
f 394/394 395/395 392/392
f 415/415 395/395 417/417
f 390/390 395/395 415/415
f 390/390 392/392 395/395
f 390/390 415/415 413/413
f 389/389 392/392 390/390
f 384/384 386/386 387/387
f 388/388 389/389 390/390
f 385/385 388/388 386/386
f 388/388 390/390 413/413
f 386/386 388/388 413/413
f 413/413 414/414 386/386
f 387/387 386/386 391/391
f 387/387 391/391 393/393
f 398/398 393/393 397/397
f 393/393 391/391 397/397
f 386/386 414/414 391/391
f 416/416 391/391 414/414
f 397/397 391/391 416/416
f 394/394 400/400 396/396
f 400/400 394/394 406/406
f 406/406 394/394 405/405
f 404/404 405/405 394/394
f 389/389 394/394 392/392
f 404/404 394/394 389/389
f 409/409 406/406 405/405
f 409/409 405/405 404/404
f 403/403 404/404 389/389
f 404/404 403/403 409/409
f 385/385 389/389 388/388
f 385/385 403/403 389/389
f 409/409 403/403 412/412
f 411/411 412/412 403/403
f 385/385 402/402 403/403
f 384/384 385/385 386/386
f 402/402 385/385 384/384
f 411/411 403/403 402/402
f 402/402 384/384 387/387
f 401/401 402/402 387/387
f 410/410 411/411 402/402
f 410/410 402/402 401/401
f 401/401 387/387 393/393
f 410/410 401/401 408/408
f 399/399 408/408 401/401
f 399/399 401/401 393/393
f 407/407 408/408 399/399
f 429/429 427/427 428/428
f 423/423 428/428 427/427
f 423/423 427/427 422/422
f 419/419 422/422 420/420
f 419/419 423/423 422/422
f 421/421 418/418 420/420
f 421/421 420/420 430/430
f 425/425 421/421 430/430
f 424/424 421/421 425/425
f 418/418 419/419 420/420
f 424/424 418/418 421/421
f 424/424 425/425 426/426
f 455/455 459/459 462/462
f 442/442 443/443 444/444
f 443/443 440/440 455/455
f 440/440 454/454 455/455
f 442/442 440/440 443/443
f 441/441 440/440 442/442
f 454/454 459/459 455/455
f 454/454 460/460 459/459
f 444/444 456/456 442/442
f 442/442 456/456 468/468
f 439/439 441/441 442/442
f 439/439 442/442 467/467
f 467/467 442/442 468/468
f 453/453 460/460 454/454
f 453/453 454/454 440/440
f 436/436 453/453 440/440
f 439/439 440/440 441/441
f 439/439 436/436 440/440
f 467/467 438/438 439/439
f 469/469 438/438 467/467
f 436/436 452/452 453/453
f 453/453 461/461 460/460
f 452/452 461/461 453/453
f 452/452 457/457 461/461
f 438/438 436/436 439/439
f 435/435 436/436 438/438
f 448/448 435/435 438/438
f 448/448 438/438 469/469
f 457/457 464/464 461/461
f 452/452 434/434 457/457
f 434/434 436/436 435/435
f 436/436 434/434 452/452
f 433/433 434/434 435/435
f 448/448 433/433 435/435
f 449/449 433/433 448/448
f 458/458 464/464 457/457
f 434/434 458/458 457/457
f 432/432 458/458 434/434
f 451/451 458/458 432/432
f 433/433 432/432 434/434
f 445/445 433/433 449/449
f 445/445 431/431 433/433
f 470/470 448/448 469/469
f 470/470 449/449 448/448
f 471/471 449/449 470/470
f 445/445 449/449 471/471
f 466/466 445/445 471/471
f 451/451 463/463 458/458
f 450/450 463/463 451/451
f 437/437 450/450 451/451
f 431/431 432/432 433/433
f 446/446 431/431 445/445
f 446/446 445/445 466/466
f 446/446 437/437 431/431
f 437/437 432/432 431/431
f 437/437 451/451 432/432
f 446/446 447/447 437/437
f 465/465 447/447 446/446
f 465/465 446/446 466/466
f 485/485 493/493 494/494
f 483/483 493/493 485/485
f 483/483 492/492 493/493
f 483/483 485/485 484/484
f 482/482 483/483 484/484
f 483/483 491/491 492/492
f 481/481 483/483 482/482
f 481/481 491/491 483/483
f 479/479 491/491 481/481
f 484/484 485/485 486/486
f 484/484 486/486 497/497
f 486/486 499/499 497/497
f 497/497 482/482 484/484
f 498/498 482/482 497/497
f 480/480 481/481 482/482
f 480/480 482/482 498/498
f 498/498 496/496 480/480
f 480/480 479/479 481/481
f 490/490 491/491 479/479
f 475/475 490/490 479/479
f 489/489 490/490 475/475
f 474/474 489/489 475/475
f 474/474 487/487 489/489
f 488/488 487/487 473/473
f 476/476 480/480 496/496
f 476/476 496/496 495/495
f 477/477 476/476 495/495
f 479/479 476/476 475/475
f 476/476 479/479 480/480
f 474/474 475/475 476/476
f 477/477 474/474 476/476
f 478/478 474/474 477/477
f 473/473 487/487 474/474
f 474/474 472/472 473/473
f 472/472 474/474 478/478
f 500/500 501/501 502/502
f 501/501 505/505 504/504
f 501/501 504/504 502/502
f 500/500 502/502 503/503
f 507/507 509/509 508/508
f 506/506 507/507 508/508
f 511/511 515/515 519/519
f 514/514 515/515 511/511
f 513/513 514/514 511/511
f 520/520 512/512 519/519
f 512/512 511/511 519/519
f 510/510 511/511 512/512
f 511/511 510/510 513/513
f 512/512 520/520 516/516
f 512/512 516/516 510/510
f 520/520 521/521 516/516
f 516/516 517/517 510/510
f 516/516 518/518 517/517
f 554/554 555/555 550/550
f 542/542 538/538 536/536
f 536/536 538/538 537/537
f 537/537 534/534 536/536
f 535/535 542/542 536/536
f 535/535 543/543 542/542
f 535/535 536/536 534/534
f 534/534 533/533 535/535
f 537/537 554/554 550/550
f 534/534 550/550 551/551
f 537/537 550/550 534/534
f 534/534 551/551 530/530
f 549/549 530/530 551/551
f 531/531 530/530 549/549
f 552/552 531/531 549/549
f 533/533 534/534 530/530
f 535/535 529/529 543/543
f 533/533 529/529 535/535
f 529/529 533/533 530/530
f 529/529 530/530 531/531
f 532/532 539/539 529/529
f 539/539 543/543 529/529
f 540/540 539/539 532/532
f 532/532 529/529 531/531
f 541/541 545/545 540/540
f 540/540 524/524 541/541
f 524/524 540/540 532/532
f 531/531 524/524 532/532
f 524/524 531/531 528/528
f 552/552 553/553 531/531
f 528/528 531/531 553/553
f 541/541 523/523 545/545
f 523/523 541/541 524/524
f 522/522 523/523 524/524
f 522/522 524/524 528/528
f 544/544 545/545 523/523
f 525/525 544/544 523/523
f 525/525 546/546 544/544
f 522/522 525/525 523/523
f 526/526 525/525 522/522
f 526/526 527/527 525/525
f 553/553 547/547 528/528
f 522/522 528/528 547/547
f 547/547 526/526 522/522
f 526/526 547/547 548/548
f 565/565 563/563 566/566
f 564/564 563/563 565/565
f 567/567 570/570 568/568
f 567/567 568/568 569/569
f 564/564 561/561 563/563
f 561/561 557/557 563/563
f 557/557 561/561 558/558
f 559/559 557/557 556/556
f 556/556 557/557 558/558
f 560/560 559/559 556/556
f 562/562 559/559 560/560
f 579/579 581/581 577/577
f 579/579 577/577 576/576
f 574/574 576/576 577/577
f 580/580 579/579 576/576
f 576/576 573/573 578/578
f 576/576 578/578 580/580
f 573/573 576/576 574/574
f 571/571 573/573 574/574
f 582/582 578/578 573/573
f 571/571 572/572 573/573
f 582/582 573/573 572/572
f 571/571 575/575 572/572
f 603/603 597/597 593/593
f 597/597 594/594 593/593
f 591/591 593/593 594/594
f 588/588 591/591 590/590
f 587/587 588/588 590/590
f 586/586 588/588 587/587
f 599/599 598/598 602/602
f 598/598 599/599 583/583
f 587/587 598/598 583/583
f 593/593 601/601 603/603
f 601/601 593/593 595/595
f 595/595 593/593 592/592
f 600/600 601/601 595/595
f 600/600 595/595 592/592
f 592/592 593/593 591/591
f 588/588 592/592 591/591
f 592/592 588/588 596/596
f 589/589 596/596 588/588
f 596/596 589/589 604/604
f 586/586 589/589 588/588
f 604/604 589/589 586/586
f 586/586 587/587 583/583
f 585/585 583/583 584/584
f 583/583 585/585 586/586
f 615/615 617/617 619/619
f 615/615 616/616 617/617
f 615/615 613/613 616/616
f 612/612 606/606 613/613
f 607/607 606/606 612/612
f 605/605 606/606 607/607
f 610/610 611/611 605/605
f 613/613 615/615 614/614
f 615/615 619/619 618/618
f 614/614 615/615 618/618
f 614/614 612/612 613/613
f 614/614 620/620 612/612
f 612/612 620/620 608/608
f 608/608 607/607 612/612
f 608/608 605/605 607/607
f 609/609 610/610 605/605
f 605/605 608/608 609/609
f 633/633 632/632 631/631
f 635/635 636/636 637/637
f 636/636 635/635 634/634
f 634/634 635/635 633/633
f 634/634 633/633 631/631
f 634/634 631/631 638/638
f 631/631 632/632 630/630
f 638/638 631/631 629/629
f 629/629 631/631 625/625
f 626/626 623/623 625/625
f 625/625 631/631 630/630
f 624/624 629/629 625/625
f 630/630 626/626 625/625
f 624/624 625/625 623/623
f 623/623 627/627 628/628
f 626/626 627/627 623/623
f 622/622 624/624 623/623
f 621/621 623/623 628/628
f 621/621 622/622 623/623
